<?xml version="1.0" encoding="UTF-8" standalone="no"?>
<svg
   xmlns:dc="http://purl.org/dc/elements/1.1/"
   xmlns:cc="http://creativecommons.org/ns#"
   xmlns:rdf="http://www.w3.org/1999/02/22-rdf-syntax-ns#"
   xmlns:svg="http://www.w3.org/2000/svg"
   xmlns="http://www.w3.org/2000/svg"
   viewBox="0 0 666.66669 666.66669"
   height="666.66669"
   width="666.66669"
   xml:space="preserve"
   id="svg2"
   version="1.1"><metadata
     id="metadata8"><rdf:RDF><cc:Work
         rdf:about=""><dc:format>image/svg+xml</dc:format><dc:type
           rdf:resource="http://purl.org/dc/dcmitype/StillImage" /></cc:Work></rdf:RDF></metadata><defs
     id="defs6"><clipPath
       id="clipPath20"
       clipPathUnits="userSpaceOnUse"><path
         id="path18"
         d="M 0,500 H 500 V 0 H 0 Z" /></clipPath><clipPath
       id="clipPath106"
       clipPathUnits="userSpaceOnUse"><path
         id="path104"
         d="M 0,500 H 500 V 0 H 0 Z" /></clipPath><clipPath
       id="clipPath118"
       clipPathUnits="userSpaceOnUse"><path
         id="path116"
         d="M 56.9477,429.243 H 381.151 V 132.758 H 56.9477 Z" /></clipPath><clipPath
       id="clipPath134"
       clipPathUnits="userSpaceOnUse"><path
         id="path132"
         d="M 0,500 H 500 V 0 H 0 Z" /></clipPath><clipPath
       id="clipPath146"
       clipPathUnits="userSpaceOnUse"><path
         id="path144"
         d="M 0,500 H 500 V 0 H 0 Z" /></clipPath><clipPath
       id="clipPath240"
       clipPathUnits="userSpaceOnUse"><path
         id="path238"
         d="m 272.063,323.067 h 28.692 v -24.746 h -28.692 z" /></clipPath><clipPath
       id="clipPath268"
       clipPathUnits="userSpaceOnUse"><path
         id="path266"
         d="M 336.838,292.134 H 365.53 V 267.388 H 336.838 Z" /></clipPath><clipPath
       id="clipPath304"
       clipPathUnits="userSpaceOnUse"><path
         id="path302"
         d="M 0,500 H 500 V 0 H 0 Z" /></clipPath><clipPath
       id="clipPath312"
       clipPathUnits="userSpaceOnUse"><path
         id="path310"
         d="m 123.767,256.76 h 118.954 v -15 H 123.767 Z" /></clipPath><clipPath
       id="clipPath404"
       clipPathUnits="userSpaceOnUse"><path
         id="path402"
         d="M 93.2905,320.326 H 116.145 V 293.832 H 93.2905 Z" /></clipPath><clipPath
       id="clipPath420"
       clipPathUnits="userSpaceOnUse"><path
         id="path418"
         d="m 104.09,308.978 h 7.495 v -15.146 h -7.495 z" /></clipPath><clipPath
       id="clipPath440"
       clipPathUnits="userSpaceOnUse"><path
         id="path438"
         d="M 99.2476,320.293 H 141.438 V 257.799 H 99.2476 Z" /></clipPath><clipPath
       id="clipPath456"
       clipPathUnits="userSpaceOnUse"><path
         id="path454"
         d="m 135.167,299.432 h 5.873 v -14.333 h -5.873 z" /></clipPath><clipPath
       id="clipPath476"
       clipPathUnits="userSpaceOnUse"><path
         id="path474"
         d="m 131.722,314.881 h 22.331 v -28.533 h -22.331 z" /></clipPath><clipPath
       id="clipPath492"
       clipPathUnits="userSpaceOnUse"><path
         id="path490"
         d="m 123.635,106.101 h 6.62 v -7.8592 h -6.62 z" /></clipPath><clipPath
       id="clipPath508"
       clipPathUnits="userSpaceOnUse"><path
         id="path506"
         d="m 75.1159,110.654 h 8.8402 v -9.199 h -8.8402 z" /></clipPath><clipPath
       id="clipPath544"
       clipPathUnits="userSpaceOnUse"><path
         id="path542"
         d="m 112.111,239.573 h 7.414 V 191.72 h -7.414 z" /></clipPath></defs><g
     transform="matrix(1.3333333,0,0,-1.3333333,0,666.66667)"
     id="g10"><path
       id="path12"
       style="fill:#ececec;fill-opacity:1;fill-rule:nonzero;stroke:none"
       d="m 0,117.352 h 500 v 0.249 H 0 Z" /><g
       id="g14"><g
         clip-path="url(#clipPath20)"
         id="g16"><g
           transform="translate(43.915,444.7979)"
           id="g22"><path
             id="path24"
             style="fill:#ececec;fill-opacity:1;fill-rule:nonzero;stroke:none"
             d="M 0,0 C -3.01,0 -5.458,-2.449 -5.458,-5.458 V -276.89 c 0,-3.009 2.448,-5.458 5.458,-5.458 h 193.099 c 3.008,0 5.457,2.449 5.457,5.458 V -5.458 c 0,3.009 -2.449,5.458 -5.457,5.458 z M 193.099,-282.598 H 0 c -3.147,0 -5.708,2.561 -5.708,5.708 V -5.458 c 0,3.146 2.561,5.708 5.708,5.708 h 193.099 c 3.146,0 5.707,-2.562 5.707,-5.708 V -276.89 c 0,-3.147 -2.561,-5.708 -5.707,-5.708" /></g><g
           transform="translate(260.2119,444.7979)"
           id="g26"><path
             id="path28"
             style="fill:#ececec;fill-opacity:1;fill-rule:nonzero;stroke:none"
             d="M 0,0 C -3.009,0 -5.457,-2.449 -5.457,-5.458 V -276.89 c 0,-3.009 2.448,-5.458 5.457,-5.458 h 193.099 c 3.009,0 5.458,2.449 5.458,5.458 V -5.458 c 0,3.009 -2.449,5.458 -5.458,5.458 z M 193.099,-282.598 H 0 c -3.146,0 -5.707,2.561 -5.707,5.708 V -5.458 c 0,3.146 2.561,5.708 5.707,5.708 h 193.099 c 3.147,0 5.708,-2.562 5.708,-5.708 V -276.89 c 0,-3.147 -2.561,-5.708 -5.708,-5.708" /></g><path
           id="path30"
           style="fill:#ececec;fill-opacity:1;fill-rule:nonzero;stroke:none"
           d="m 418.333,107.828 h 31.568 v 0.25 h -31.568 z" /><path
           id="path32"
           style="fill:#ececec;fill-opacity:1;fill-rule:nonzero;stroke:none"
           d="m 301.926,110.542 h 33.408 v 0.25 h -33.408 z" /><path
           id="path34"
           style="fill:#ececec;fill-opacity:1;fill-rule:nonzero;stroke:none"
           d="m 396.586,98.542 h 62.433 v 0.25 h -62.433 z" /><path
           id="path36"
           style="fill:#ececec;fill-opacity:1;fill-rule:nonzero;stroke:none"
           d="m 52.459,100.223 h 19.234 v 0.25 H 52.459 Z" /><path
           id="path38"
           style="fill:#ececec;fill-opacity:1;fill-rule:nonzero;stroke:none"
           d="m 80.597,100.223 h 30.292 v 0.25 H 80.597 Z" /><path
           id="path40"
           style="fill:#ececec;fill-opacity:1;fill-rule:nonzero;stroke:none"
           d="m 189.578,104.444 h 54.556 v 0.25 h -54.556 z" /><g
           transform="translate(456.4526,244.7559)"
           id="g42"><path
             id="path44"
             style="fill:#e7e7e7;fill-opacity:1;fill-rule:nonzero;stroke:none"
             d="m 0,0 c -10.141,4.252 -26.946,0.149 -40.865,-16.729 -6.432,-7.801 -12.625,-19.236 -14.296,-30.944 0.112,13.358 0.244,27.71 0.378,41.254 2.149,8.862 4.128,12.908 7.188,19.059 10.211,20.521 18.652,18.256 32.52,34.316 23.073,26.718 36.296,77.13 13.34,57.041 C -22.542,85.789 -32.61,67.571 -39.607,51.76 -49.062,30.396 -52.862,15.488 -54.714,0.521 c 0.129,12.721 0.256,24.401 0.364,33.413 0.354,29.394 1.156,38.843 1.304,41.758 0.361,7.076 2.696,11.187 3.344,12.204 5.471,8.586 14.056,14.209 22.473,23.997 19.604,22.795 30.923,51.042 21.481,53.657 -9.872,2.734 -22.846,-9.707 -37.258,-38.911 -8.262,-16.741 -10.364,-20.701 -12.035,-53.502 -0.145,-2.852 -0.767,-13.592 -1.068,-28.516 -2.333,16.055 -6.761,31.985 -14.499,42.573 -14.905,20.394 -26.241,22.341 -34.505,20.394 -8.264,-1.946 -4.797,-23.359 4.523,-34.804 14.026,-17.223 37.393,-13.555 44.326,-36.468 -0.348,-20.228 -0.604,-45.853 -0.743,-69.713 -2.36,12.322 -4.824,22.57 -10.244,32.219 -10.08,17.945 -22.48,25.771 -31.014,17.319 -5.305,-5.254 0.851,-19.981 11.956,-26.033 11.271,-6.141 20.514,-14.639 24.095,-19.743 0.835,-1.19 3.602,-5.756 5.182,-8.38 -0.153,-29.129 -0.126,-54.841 0.122,-63.608 l 1.486,-0.087 c -0.088,2.264 -0.019,17.081 0.126,36.69 2.455,24.477 19.74,25.807 30.789,30.46 C -4.79,-26.255 10.142,-4.251 0,0" /></g><g
           transform="translate(386.0057,117.6016)"
           id="g46"><path
             id="path48"
             style="fill:#e7e7e7;fill-opacity:1;fill-rule:nonzero;stroke:none"
             d="m 0,0 h 29.146 c 1.593,0 2.965,0.933 3.281,2.229 l 2.069,36.14 H -5.35 L -3.281,2.229 C -2.965,0.933 -1.593,0 0,0" /></g><g
           transform="translate(381.3861,143.667)"
           id="g50"><path
             id="path52"
             style="fill:#f5f5f5;fill-opacity:1;fill-rule:nonzero;stroke:none"
             d="m 0,0 h 38.386 c 0.919,0 1.692,1.209 1.795,2.81 l 0.785,12.206 c 0.121,1.876 -0.717,3.517 -1.795,3.517 H -0.785 c -1.078,0 -1.916,-1.641 -1.796,-3.517 L -1.796,2.81 C -1.693,1.209 -0.92,0 0,0" /></g><path
           id="path54"
           style="fill:#f0f0f0;fill-opacity:1;fill-rule:nonzero;stroke:none"
           d="m 186.007,124.223 h -37.833 v 71.312 h 37.833 z" /><path
           id="path56"
           style="fill:#f0f0f0;fill-opacity:1;fill-rule:nonzero;stroke:none"
           d="M 342.012,124.223 H 155.438 v -6.621 h 186.574 z" /><path
           id="path58"
           style="fill:#fafafa;fill-opacity:1;fill-rule:nonzero;stroke:none"
           d="m 186.007,124.223 h 163.27 v 71.312 h -163.27 z" /><path
           id="path60"
           style="fill:#f0f0f0;fill-opacity:1;fill-rule:nonzero;stroke:none"
           d="m 200.881,164.916 h 133.521 v 21.943 H 200.881 Z" /><path
           id="path62"
           style="fill:#f0f0f0;fill-opacity:1;fill-rule:nonzero;stroke:none"
           d="m 200.881,136.722 h 133.521 v 21.944 H 200.881 Z" /><g
           transform="translate(284.0193,184.8809)"
           id="g64"><path
             id="path66"
             style="fill:#fafafa;fill-opacity:1;fill-rule:nonzero;stroke:none"
             d="m 0,0 h -32.755 c -1.266,0 -2.302,1.036 -2.302,2.302 v 0.096 c 0,1.266 1.036,2.301 2.302,2.301 H 0 c 1.266,0 2.302,-1.035 2.302,-2.301 V 2.302 C 2.302,1.036 1.266,0 0,0" /></g><g
           transform="translate(284.0193,156.6875)"
           id="g68"><path
             id="path70"
             style="fill:#fafafa;fill-opacity:1;fill-rule:nonzero;stroke:none"
             d="m 0,0 h -32.755 c -1.266,0 -2.302,1.036 -2.302,2.302 v 0.095 c 0,1.267 1.036,2.302 2.302,2.302 H 0 c 1.266,0 2.302,-1.035 2.302,-2.302 V 2.302 C 2.302,1.036 1.266,0 0,0" /></g><path
           id="path72"
           style="fill:#f0f0f0;fill-opacity:1;fill-rule:nonzero;stroke:none"
           d="M 354.318,201.929 H 186.007 v -6.395 h 168.311 z" /><path
           id="path74"
           style="fill:#e7e7e7;fill-opacity:1;fill-rule:nonzero;stroke:none"
           d="m 142.887,201.929 h 43.12 v -6.395 h -43.12 z" /><g
           transform="translate(111.8445,173.5186)"
           id="g76"><path
             id="path78"
             style="fill:#f0f0f0;fill-opacity:1;fill-rule:nonzero;stroke:none"
             d="m 0,0 c -4.32,2.265 -11.902,1.089 -18.694,-5.842 -3.139,-3.203 -6.31,-8.02 -7.492,-13.132 0.556,5.9 1.159,12.237 1.732,18.217 1.287,3.835 2.315,5.548 3.901,8.15 5.291,8.681 8.935,7.36 15.673,13.93 C 6.331,32.255 14.088,54.03 3.181,46.024 -6.705,38.769 -11.846,31.1 -15.538,24.378 c -4.99,-9.083 -7.235,-15.526 -8.622,-22.07 0.54,5.616 1.04,10.773 1.43,14.752 1.272,12.976 1.985,17.122 2.161,18.404 0.428,3.113 1.616,4.842 1.941,5.266 2.744,3.587 6.751,5.746 10.842,9.751 9.529,9.331 15.603,21.383 11.53,22.897 -4.259,1.583 -10.464,-3.422 -17.942,-15.781 -4.286,-7.084 -5.366,-8.754 -7.349,-23.187 -0.173,-1.255 -0.855,-5.977 -1.555,-12.56 -0.421,7.183 -1.773,14.391 -4.791,19.363 -5.813,9.579 -10.748,10.87 -14.475,10.323 -3.726,-0.547 -3.006,-10.14 0.678,-15.553 5.544,-8.143 16.01,-7.41 18.204,-17.798 -0.921,-8.926 -2.007,-20.241 -2.974,-30.78 -0.576,5.535 -1.276,10.157 -3.305,14.627 -3.773,8.313 -8.956,12.242 -13.048,8.831 -2.543,-2.12 -0.382,-8.862 4.296,-11.958 4.747,-3.141 8.51,-7.248 9.898,-9.639 0.324,-0.558 1.374,-2.68 1.972,-3.9 -1.173,-12.867 -2.137,-24.231 -2.36,-28.115 l 0.653,-0.095 c 0.047,1.004 0.64,7.55 1.448,16.21 2.015,10.724 9.704,10.655 14.763,12.292 C -3.114,-11.421 4.32,-2.264 0,0" /></g><g
           transform="translate(44.9419,195.8008)"
           id="g80"><path
             id="path82"
             style="fill:#e7e7e7;fill-opacity:1;fill-rule:nonzero;stroke:none"
             d="m 0,0 c 5.592,2.522 15.025,0.485 23.04,-8.72 3.703,-4.254 7.328,-10.538 8.434,-17.043 -0.261,7.449 -0.549,15.45 -0.827,23.001 C 29.316,2.148 28.152,4.375 26.354,7.76 20.353,19.052 15.679,17.662 7.706,26.411 -5.561,40.966 -13.689,68.882 -0.587,58.022 11.289,48.18 17.176,38.17 21.315,29.457 26.907,17.684 29.248,9.427 30.505,1.107 30.243,8.2 29.998,14.712 29.803,19.735 c -0.637,16.388 -1.225,21.646 -1.352,23.269 -0.306,3.94 -1.67,6.198 -2.047,6.756 -3.179,4.707 -8.051,7.715 -12.891,13.047 C 2.239,75.227 -4.495,90.81 0.731,92.409 c 5.465,1.672 12.886,-5.072 21.36,-21.143 4.857,-9.212 6.089,-11.39 7.511,-29.658 0.124,-1.587 0.631,-7.568 1.022,-15.885 1.061,8.988 3.292,17.938 7.449,23.958 8.008,11.596 14.301,12.851 18.939,11.889 4.638,-0.962 3.024,-12.956 -2.003,-19.477 -7.564,-9.815 -20.651,-8.118 -24.174,-21 0.496,-11.276 1.021,-25.563 1.456,-38.866 1.132,6.907 2.353,12.659 5.231,18.121 5.353,10.157 12.152,14.708 17.037,10.122 3.037,-2.852 -0.176,-11.157 -6.278,-14.697 -6.194,-3.593 -11.222,-8.47 -13.142,-11.371 -0.448,-0.675 -1.923,-3.263 -2.765,-4.751 0.52,-16.242 0.89,-30.582 0.882,-35.474 l -0.827,-0.071 c 0.015,1.264 -0.245,9.526 -0.619,20.459 -1.735,13.614 -11.394,14.098 -17.625,16.528 C 3.064,-14.571 -5.592,-2.523 0,0" /></g><g
           transform="translate(68.5895,117.6016)"
           id="g84"><path
             id="path86"
             style="fill:#e7e7e7;fill-opacity:1;fill-rule:nonzero;stroke:none"
             d="m 0,0 h 25.855 c 1.413,0 2.63,0.827 2.911,1.978 l 1.836,32.059 H -4.746 L -2.911,1.978 C -2.63,0.827 -1.413,0 0,0" /></g><g
           transform="translate(64.4915,140.7236)"
           id="g88"><path
             id="path90"
             style="fill:#f5f5f5;fill-opacity:1;fill-rule:nonzero;stroke:none"
             d="m 0,0 h 34.052 c 0.816,0 1.501,1.073 1.593,2.492 l 0.696,10.828 c 0.107,1.664 -0.637,3.121 -1.593,3.121 H -0.696 c -0.957,0 -1.7,-1.457 -1.593,-3.121 L -1.593,2.492 C -1.502,1.073 -0.816,0 0,0" /></g><path
           id="path92"
           style="fill:#e7e7e7;fill-opacity:1;fill-rule:nonzero;stroke:none"
           d="M 273.233,299.682 H 60.192 v 120.46 h 213.041 z" /><path
           id="path94"
           style="fill:#f5f5f5;fill-opacity:1;fill-rule:nonzero;stroke:none"
           d="M 279.889,299.682 H 61.318 v 120.46 h 218.571 z" /><g
           transform="translate(66.635,309.1826)"
           id="g96"><path
             id="path98"
             style="fill:#ffffff;fill-opacity:1;fill-rule:nonzero;stroke:none"
             d="m 0,0 v 101.458 c 0,2.311 1.873,4.184 4.183,4.184 h 199.57 c 2.31,0 4.183,-1.873 4.183,-4.184 L 207.936,0 c 0,-2.311 -1.873,-4.184 -4.183,-4.184 H 4.183 C 1.873,-4.184 0,-2.311 0,0" /></g></g></g><g
       id="g100"><g
         clip-path="url(#clipPath106)"
         id="g102"><g
           transform="translate(317.8684,413.9746)"
           id="g108"><path
             id="path110"
             style="fill:#007cff;fill-opacity:1;fill-rule:nonzero;stroke:none"
             d="m 0,0 c -27.213,20.673 -76.222,21.595 -107.562,-4.909 -34.61,-29.269 -36.798,-82.64 -71.763,-109.156 -35.555,-26.966 -77.016,-13.942 -81.394,-80.375 -3.373,-51.206 36.136,-51.301 69.212,-57.671 59.384,-11.438 168.257,-67.455 221.525,15.481 C 90.688,-142.169 61.003,-46.341 0,0" /></g><g
           id="g112"><g
             id="g114" /><g
             id="g126"><g
               style="opacity:0.89999402"
               id="g124"
               clip-path="url(#clipPath118)"><g
                 id="g122"
                 transform="translate(317.8684,413.9746)"><path
                   id="path120"
                   style="fill:#ffffff;fill-opacity:1;fill-rule:nonzero;stroke:none"
                   d="m 0,0 c -27.213,20.673 -76.222,21.595 -107.562,-4.909 -34.61,-29.269 -36.798,-82.64 -71.763,-109.156 -35.555,-26.966 -77.016,-13.942 -81.394,-80.375 -3.373,-51.206 36.136,-51.301 69.212,-57.671 59.384,-11.438 168.257,-67.455 221.525,15.481 C 90.688,-142.169 61.003,-46.341 0,0" /></g></g></g></g></g></g><g
       id="g128"><g
         clip-path="url(#clipPath134)"
         id="g130"><g
           transform="translate(443.8894,83.7617)"
           id="g136"><path
             id="path138"
             style="fill:#f5f5f5;fill-opacity:1;fill-rule:nonzero;stroke:none"
             d="m 0,0 c 0,-6.254 -86.807,-11.323 -193.889,-11.323 -107.082,0 -193.889,5.069 -193.889,11.323 0,6.254 86.807,11.323 193.889,11.323 C -86.807,11.323 0,6.254 0,0" /></g></g></g><g
       id="g140"><g
         clip-path="url(#clipPath146)"
         id="g142"><g
           transform="translate(401.9121,187.5928)"
           id="g148"><path
             id="path150"
             style="fill:#007cff;fill-opacity:1;fill-rule:nonzero;stroke:none"
             d="M 0,0 H -23.995 V 1 H 0 C 5.569,1 10.959,4.281 13.731,9.359 L 14.608,8.881 C 11.664,3.485 5.93,0 0,0" /></g><path
           id="path152"
           style="fill:#007cff;fill-opacity:1;fill-rule:nonzero;stroke:none"
           d="m 373.167,187.593 h -9.834 v 1 h 9.834 z" /><g
           transform="translate(401.9122,191.0928)"
           id="g154"><path
             id="path156"
             style="fill:#007cff;fill-opacity:1;fill-rule:nonzero;stroke:none"
             d="m 0,0 h -280.802 c -6.6,0 -11.529,5.4 -10.954,12 l 15.177,174 c 0.576,6.601 6.447,12 13.047,12 H 17.27 c 6.6,0 11.529,-5.399 10.954,-12 L 13.047,12 C 12.471,5.4 6.6,0 0,0" /></g><g
           transform="translate(396.0616,194.7393)"
           id="g158"><path
             id="path160"
             style="fill:#ffffff;fill-opacity:1;fill-rule:nonzero;stroke:none"
             d="m 0,0 h -273.797 c -5.62,0 -9.816,4.598 -9.326,10.218 l 13.826,158.514 c 0.141,1.621 1.57,2.934 3.19,2.934 H 22.257 c 1.62,0 2.819,-1.313 2.678,-2.934 L 11.109,10.218 C 10.619,4.598 5.62,0 0,0" /></g><g
           transform="translate(157.1559,374.3437)"
           id="g162"><path
             id="path164"
             style="fill:#1a2e35;fill-opacity:1;fill-rule:nonzero;stroke:none"
             d="m 0,0 c -8.133,0 -14.172,6.616 -13.463,14.749 0.71,8.133 7.903,14.75 16.036,14.75 8.133,0 14.172,-6.617 13.463,-14.75 h -6 c 0.42,4.825 -3.162,8.75 -7.986,8.75 -4.825,0 -9.092,-3.925 -9.513,-8.75 C -7.883,9.925 -4.301,6 0.523,6 Z" /></g><g
           transform="translate(216.5074,374.3437)"
           id="g166"><path
             id="path168"
             style="fill:#1a2e35;fill-opacity:1;fill-rule:nonzero;stroke:none"
             d="m 0,0 c -8.133,0 -14.173,6.616 -13.464,14.749 0.71,8.133 7.904,14.75 16.037,14.75 8.133,0 14.172,-6.617 13.462,-14.75 h -6 c 0.421,4.825 -3.161,8.75 -7.985,8.75 -4.826,0 -9.093,-3.925 -9.514,-8.75 C -7.884,9.925 -4.302,6 0.523,6 Z" /></g><g
           transform="translate(275.859,374.3437)"
           id="g170"><path
             id="path172"
             style="fill:#1a2e35;fill-opacity:1;fill-rule:nonzero;stroke:none"
             d="m 0,0 c -8.133,0 -14.173,6.616 -13.464,14.749 0.71,8.133 7.904,14.75 16.037,14.75 8.133,0 14.172,-6.617 13.463,-14.75 h -6 c 0.42,4.825 -3.162,8.75 -7.986,8.75 -4.826,0 -9.093,-3.925 -9.514,-8.75 C -7.884,9.925 -4.302,6 0.523,6 Z" /></g><g
           transform="translate(335.2096,374.3437)"
           id="g174"><path
             id="path176"
             style="fill:#1a2e35;fill-opacity:1;fill-rule:nonzero;stroke:none"
             d="m 0,0 c -8.133,0 -14.172,6.616 -13.463,14.749 0.71,8.133 7.903,14.75 16.036,14.75 8.133,0 14.173,-6.617 13.463,-14.75 h -6 c 0.421,4.825 -3.161,8.75 -7.986,8.75 -4.825,0 -9.092,-3.925 -9.513,-8.75 C -7.883,9.925 -4.301,6 0.523,6 Z" /></g><g
           transform="translate(394.5612,374.3437)"
           id="g178"><path
             id="path180"
             style="fill:#1a2e35;fill-opacity:1;fill-rule:nonzero;stroke:none"
             d="m 0,0 c -8.133,0 -14.172,6.616 -13.463,14.749 0.71,8.133 7.903,14.75 16.036,14.75 8.133,0 14.172,-6.617 13.463,-14.75 h -6.001 c 0.421,4.825 -3.161,8.75 -7.985,8.75 -4.825,0 -9.092,-3.925 -9.513,-8.75 C -7.883,9.925 -4.301,6 0.523,6 Z" /></g><g
           transform="translate(125.2622,202.9287)"
           id="g182"><path
             id="path184"
             style="fill:#e1e1e1;fill-opacity:1;fill-rule:nonzero;stroke:none"
             d="m 0,0 h 269.662 l 13.403,153.664 H 13.403 Z M 270.075,-1 H -0.587 c -0.277,0 -0.481,0.224 -0.457,0.5 l 13.491,154.664 c 0.024,0.276 0.267,0.5 0.543,0.5 h 270.662 c 0.277,0 0.481,-0.224 0.457,-0.5 L 270.619,-0.5 C 270.594,-0.776 270.351,-1 270.075,-1" /></g><g
           transform="translate(398.0352,232.8623)"
           id="g186"><path
             id="path188"
             style="fill:#e1e1e1;fill-opacity:1;fill-rule:nonzero;stroke:none"
             d="m 0,0 h -270.662 c -0.276,0 -0.481,0.224 -0.456,0.5 0.024,0.276 0.267,0.5 0.543,0.5 H 0.087 C 0.364,1 0.568,0.776 0.544,0.5 0.52,0.224 0.276,0 0,0" /></g><g
           transform="translate(400.7332,263.7949)"
           id="g190"><path
             id="path192"
             style="fill:#e1e1e1;fill-opacity:1;fill-rule:nonzero;stroke:none"
             d="m 0,0 h -270.662 c -0.276,0 -0.481,0.224 -0.456,0.5 0.024,0.276 0.267,0.5 0.543,0.5 H 0.087 C 0.364,1 0.568,0.776 0.544,0.5 0.52,0.224 0.276,0 0,0" /></g><g
           transform="translate(403.4312,294.7275)"
           id="g194"><path
             id="path196"
             style="fill:#e1e1e1;fill-opacity:1;fill-rule:nonzero;stroke:none"
             d="m 0,0 h -270.662 c -0.276,0 -0.481,0.224 -0.456,0.5 0.024,0.276 0.267,0.5 0.543,0.5 H 0.087 C 0.364,1 0.568,0.776 0.544,0.5 0.52,0.224 0.276,0 0,0" /></g><g
           transform="translate(406.1293,325.6602)"
           id="g198"><path
             id="path200"
             style="fill:#e1e1e1;fill-opacity:1;fill-rule:nonzero;stroke:none"
             d="m 0,0 h -270.662 c -0.276,0 -0.481,0.224 -0.457,0.5 0.025,0.276 0.268,0.5 0.544,0.5 H 0.087 C 0.364,1 0.568,0.776 0.544,0.5 0.52,0.224 0.276,0 0,0" /></g><g
           transform="translate(361.504,201.9287)"
           id="g202"><path
             id="path204"
             style="fill:#e1e1e1;fill-opacity:1;fill-rule:nonzero;stroke:none"
             d="m 0,0 c -0.276,0 -0.48,0.224 -0.456,0.5 l 13.49,154.664 c 0.024,0.276 0.267,0.5 0.544,0.5 0.276,0 0.48,-0.224 0.456,-0.5 L 0.544,0.5 C 0.52,0.224 0.276,0 0,0" /></g><g
           transform="translate(327.671,201.9287)"
           id="g206"><path
             id="path208"
             style="fill:#e1e1e1;fill-opacity:1;fill-rule:nonzero;stroke:none"
             d="m 0,0 c -0.276,0 -0.48,0.224 -0.456,0.5 l 13.49,154.664 c 0.024,0.276 0.267,0.5 0.544,0.5 0.276,0 0.48,-0.224 0.456,-0.5 L 0.544,0.5 C 0.52,0.224 0.276,0 0,0" /></g><g
           transform="translate(293.838,201.9287)"
           id="g210"><path
             id="path212"
             style="fill:#e1e1e1;fill-opacity:1;fill-rule:nonzero;stroke:none"
             d="m 0,0 c -0.276,0 -0.48,0.224 -0.456,0.5 l 13.49,154.664 c 0.024,0.276 0.267,0.5 0.544,0.5 0.276,0 0.48,-0.224 0.456,-0.5 L 0.544,0.5 C 0.52,0.224 0.276,0 0,0" /></g><g
           transform="translate(260.006,201.9287)"
           id="g214"><path
             id="path216"
             style="fill:#e1e1e1;fill-opacity:1;fill-rule:nonzero;stroke:none"
             d="m 0,0 c -0.276,0 -0.48,0.224 -0.456,0.5 l 13.49,154.664 c 0.024,0.276 0.267,0.5 0.544,0.5 0.276,0 0.48,-0.224 0.456,-0.5 L 0.544,0.5 C 0.52,0.224 0.276,0 0,0" /></g><g
           transform="translate(226.173,201.9287)"
           id="g218"><path
             id="path220"
             style="fill:#e1e1e1;fill-opacity:1;fill-rule:nonzero;stroke:none"
             d="m 0,0 c -0.276,0 -0.48,0.224 -0.456,0.5 l 13.49,154.664 c 0.024,0.276 0.267,0.5 0.544,0.5 0.276,0 0.48,-0.224 0.456,-0.5 L 0.544,0.5 C 0.52,0.224 0.276,0 0,0" /></g><g
           transform="translate(192.34,201.9287)"
           id="g222"><path
             id="path224"
             style="fill:#e1e1e1;fill-opacity:1;fill-rule:nonzero;stroke:none"
             d="m 0,0 c -0.276,0 -0.48,0.224 -0.456,0.5 l 13.49,154.664 c 0.024,0.276 0.267,0.5 0.544,0.5 0.276,0 0.48,-0.224 0.456,-0.5 L 0.544,0.5 C 0.52,0.224 0.276,0 0,0" /></g><g
           transform="translate(158.5079,201.9287)"
           id="g226"><path
             id="path228"
             style="fill:#e1e1e1;fill-opacity:1;fill-rule:nonzero;stroke:none"
             d="m 0,0 c -0.276,0 -0.481,0.224 -0.456,0.5 l 13.49,154.664 c 0.024,0.276 0.267,0.5 0.544,0.5 0.276,0 0.48,-0.224 0.456,-0.5 L 0.544,0.5 C 0.519,0.224 0.276,0 0,0" /></g><g
           transform="translate(295.6656,298.3203)"
           id="g230"><path
             id="path232"
             style="fill:#007cff;fill-opacity:1;fill-rule:nonzero;stroke:none"
             d="m 0,0 h -20.672 c -1.765,0 -3.072,1.432 -2.918,3.197 l 1.6,18.352 c 0.155,1.766 1.711,3.197 3.477,3.197 H 2.158 c 1.766,0 3.073,-1.431 2.919,-3.197 L 3.476,3.197 C 3.322,1.432 1.766,0 0,0" /></g><g
           id="g234"><g
             id="g236" /><g
             id="g248"><g
               style="opacity:0.60000598"
               id="g246"
               clip-path="url(#clipPath240)"><g
                 id="g244"
                 transform="translate(295.6656,298.3203)"><path
                   id="path242"
                   style="fill:#ffffff;fill-opacity:1;fill-rule:nonzero;stroke:none"
                   d="m 0,0 h -20.672 c -1.765,0 -3.072,1.432 -2.918,3.197 l 1.6,18.352 c 0.155,1.766 1.711,3.197 3.477,3.197 H 2.158 c 1.766,0 3.073,-1.431 2.919,-3.197 L 3.476,3.197 C 3.322,1.432 1.766,0 0,0" /></g></g></g></g><g
           transform="translate(439.8867,298.3203)"
           id="g250"><path
             id="path252"
             style="fill:#ffffff;fill-opacity:1;fill-rule:nonzero;stroke:none"
             d="m 0,0 h -21.731 l 2.158,24.746 H 2.158 L -6.007,12.373 Z" /></g><g
           transform="translate(418.6995,298.8203)"
           id="g254"><path
             id="path256"
             style="fill:#007cff;fill-opacity:1;fill-rule:nonzero;stroke:none"
             d="m 0,0 h 20.368 l -5.764,11.874 7.835,11.873 H 2.071 Z M 22.005,-1 H -1.087 L 1.158,24.747 H 24.251 L 15.756,11.874 Z" /></g><g
           transform="translate(360.4408,267.3877)"
           id="g258"><path
             id="path260"
             style="fill:#007cff;fill-opacity:1;fill-rule:nonzero;stroke:none"
             d="m 0,0 h -20.672 c -1.765,0 -3.072,1.432 -2.918,3.197 l 1.601,18.352 c 0.154,1.765 1.71,3.197 3.476,3.197 H 2.158 c 1.766,0 3.073,-1.432 2.919,-3.197 L 3.476,3.197 C 3.322,1.432 1.766,0 0,0" /></g><g
           id="g262"><g
             id="g264" /><g
             id="g276"><g
               style="opacity:0.39999402"
               id="g274"
               clip-path="url(#clipPath268)"><g
                 id="g272"
                 transform="translate(360.4408,267.3877)"><path
                   id="path270"
                   style="fill:#ffffff;fill-opacity:1;fill-rule:nonzero;stroke:none"
                   d="m 0,0 h -20.672 c -1.765,0 -3.072,1.432 -2.918,3.197 l 1.601,18.352 c 0.154,1.765 1.71,3.197 3.476,3.197 H 2.158 c 1.766,0 3.073,-1.432 2.919,-3.197 L 3.476,3.197 C 3.322,1.432 1.766,0 0,0" /></g></g></g></g><g
           transform="translate(400.0542,329.2529)"
           id="g278"><path
             id="path280"
             style="fill:#007cff;fill-opacity:1;fill-rule:nonzero;stroke:none"
             d="m 0,0 h -54.889 c -1.766,0 -3.072,1.432 -2.918,3.198 l 1.6,18.352 c 0.154,1.765 1.711,3.197 3.476,3.197 H 2.158 c 1.766,0 3.073,-1.432 2.919,-3.197 L 3.476,3.198 C 3.322,1.432 1.766,0 0,0" /></g><g
           transform="translate(181.1165,302.5039)"
           id="g282"><path
             id="path284"
             style="fill:#007cff;fill-opacity:1;fill-rule:nonzero;stroke:none"
             d="m 0,0 c -8.338,0 -15.288,2.945 -20.213,8.598 -6.331,7.265 -7.287,16.287 -2.491,23.544 7.105,10.754 25.635,16.486 37.829,14.897 0.272,-0.035 0.443,-0.286 0.384,-0.56 -0.059,-0.274 -0.327,-0.462 -0.597,-0.432 -11.886,1.552 -29.913,-3.992 -36.793,-14.403 -5.415,-8.196 -2.284,-16.921 2.451,-22.355 6.61,-7.587 15.628,-8.648 22.03,-8.2 12.191,0.849 25.547,7.816 33.232,17.335 2.15,2.663 5.453,7.768 3.429,12.049 -2.991,6.33 -12.972,5.898 -21.334,4.816 -0.267,-0.038 -0.51,0.158 -0.522,0.432 -0.012,0.273 0.203,0.524 0.48,0.56 5.576,0.721 18.635,2.412 22.292,-5.32 C 42.43,26.198 38.898,20.695 36.592,17.84 28.723,8.094 15.055,0.961 2.582,0.092 1.708,0.03 0.847,0 0,0" /></g><g
           transform="translate(347.9838,272.9043)"
           id="g286"><path
             id="path288"
             style="fill:#ffffff;fill-opacity:1;fill-rule:nonzero;stroke:none"
             d="m 0,0 c -0.029,0 -0.057,0.001 -0.087,0.004 -0.323,0.028 -0.598,0.214 -0.736,0.497 -1.497,3.065 -2.788,5.048 -4.189,6.426 -0.377,0.371 -0.353,1.004 0.054,1.413 0.407,0.411 1.042,0.439 1.419,0.069 1.347,-1.326 2.581,-3.112 3.926,-5.696 3.196,3.318 6.933,6.57 11.129,9.683 0.462,0.345 1.085,0.271 1.39,-0.163 0.306,-0.432 0.178,-1.061 -0.285,-1.404 C 8.09,7.467 4.112,3.944 0.798,0.358 0.588,0.13 0.295,0 0,0" /></g><g
           transform="translate(312.9528,227.125)"
           id="g290"><path
             id="path292"
             style="fill:#007cff;fill-opacity:1;fill-rule:nonzero;stroke:none"
             d="m 0,0 c -5.089,0 -9.591,-4.141 -10.035,-9.229 -0.444,-5.089 3.336,-9.23 8.425,-9.23 5.089,0 9.591,4.141 10.034,9.23 C 8.868,-4.141 5.089,0 0,0 m -1.785,-20.459 c -6.192,0 -10.79,5.037 -10.25,11.23 C -11.495,-3.037 -6.018,2 0.174,2 6.367,2 10.965,-3.037 10.424,-9.229 9.884,-15.422 4.408,-20.459 -1.785,-20.459" /></g><g
           transform="translate(216.8038,289.1123)"
           id="g294"><path
             id="path296"
             style="fill:#007cff;fill-opacity:1;fill-rule:nonzero;stroke:none"
             d="m 0,0 c -5.089,0 -9.591,-4.141 -10.035,-9.229 -0.444,-5.09 3.336,-9.231 8.425,-9.231 5.089,0 9.59,4.141 10.034,9.231 C 8.868,-4.141 5.089,0 0,0 m -1.785,-20.46 c -6.192,0 -10.79,5.038 -10.25,11.231 C -11.494,-3.037 -6.018,2 0.174,2 6.367,2 10.964,-3.037 10.424,-9.229 9.884,-15.422 4.408,-20.46 -1.785,-20.46" /></g></g></g><g
       id="g298"><g
         clip-path="url(#clipPath304)"
         id="g300"><g
           id="g306"><g
             id="g308" /><g
             id="g320"><g
               style="opacity:0.10000598"
               id="g318"
               clip-path="url(#clipPath312)"><g
                 id="g316"
                 transform="translate(234.5378,241.7598)"><path
                   id="path314"
                   style="fill:#000000;fill-opacity:1;fill-rule:nonzero;stroke:none"
                   d="m 0,0 h -103.897 c -4.125,0 -7.205,3.375 -6.845,7.5 0.359,4.125 4.029,7.5 8.154,7.5 H 1.308 C 5.433,15 8.514,11.625 8.154,7.5 7.794,3.375 4.125,0 0,0" /></g></g></g></g><g
           transform="translate(96.3914,265.5928)"
           id="g322"><path
             id="path324"
             style="fill:#ff8c7b;fill-opacity:1;fill-rule:nonzero;stroke:none"
             d="m 0,0 3.899,-1.676 -5.233,-6.405 c 0,0 -1.447,2.441 -2.116,5.054 -0.279,1.091 0.361,2.207 1.45,2.496 z" /></g><g
           transform="translate(102.0831,257.0391)"
           id="g326"><path
             id="path328"
             style="fill:#ff8c7b;fill-opacity:1;fill-rule:nonzero;stroke:none"
             d="m 0,0 -2.34,-2.598 c -0.76,-0.843 -2.111,-0.748 -2.746,0.194 l -1.94,2.877 5.233,6.405 2.107,-5.035 C 0.574,1.22 0.452,0.502 0,0" /></g><g
           transform="translate(239.6379,244.2812)"
           id="g330"><path
             id="path332"
             style="fill:#007cff;fill-opacity:1;fill-rule:nonzero;stroke:none"
             d="m 0,0 -135.243,10.709 c -4.112,0.325 -6.917,3.933 -6.233,8.017 0.685,4.084 4.609,7.158 8.721,6.833 L 2.488,14.851 C 6.6,14.524 9.405,10.917 8.721,6.833 8.037,2.749 4.112,-0.325 0,0" /></g><g
           transform="translate(144.2067,307.3926)"
           id="g334"><path
             id="path336"
             style="fill:#ff8c7b;fill-opacity:1;fill-rule:nonzero;stroke:none"
             d="m 0,0 c 1.69,-3.814 3.423,-7.722 5.176,-11.526 1.747,-3.789 3.553,-7.655 5.495,-10.952 0.479,-0.806 0.969,-1.553 1.373,-2.043 0.599,-0.711 1.266,-1.441 1.954,-2.191 1.388,-1.487 2.874,-2.978 4.36,-4.48 2.986,-2.991 6.031,-6.029 8.99,-9.132 l -3.028,-3.907 c -3.812,2.187 -7.447,4.556 -11.002,7.137 -1.781,1.287 -3.526,2.631 -5.262,4.093 -0.874,0.724 -1.733,1.507 -2.61,2.357 -1.061,1.084 -1.807,2.106 -2.511,3.089 -2.711,3.933 -4.726,7.788 -6.728,11.726 -1.957,3.944 -3.745,7.877 -5.411,11.973 z" /></g><g
           transform="translate(111.1372,307.959)"
           id="g338"><path
             id="path340"
             style="fill:#ff8c7b;fill-opacity:1;fill-rule:nonzero;stroke:none"
             d="m 0,0 c -2.267,-3.71 -4.6,-7.438 -6.927,-11.133 l -6.948,-11.076 -0.848,-1.383 -0.106,-0.173 -0.052,-0.085 -0.008,-0.016 c -0.012,-0.023 -0.028,-0.042 -0.048,-0.062 -0.041,-0.036 -0.075,-0.165 -0.13,-0.24 -0.18,-0.451 -0.353,-1.23 -0.425,-2.081 -0.14,-1.732 -0.039,-3.766 0.172,-5.799 0.436,-4.086 1.24,-8.392 2.099,-12.562 l -4.633,-1.724 c -2.097,4.129 -3.777,8.31 -4.995,12.882 -0.578,2.299 -1.079,4.654 -1.17,7.334 -0.03,1.348 -0.003,2.785 0.426,4.454 0.138,0.44 0.241,0.85 0.437,1.31 l 0.306,0.686 0.129,0.266 0.096,0.188 0.764,1.502 c 2.051,3.99 4.215,7.88 6.446,11.722 2.242,3.843 4.549,7.608 6.995,11.346 z" /></g><g
           transform="translate(137.605,335.6953)"
           id="g342"><path
             id="path344"
             style="fill:#1a2e35;fill-opacity:1;fill-rule:nonzero;stroke:none"
             d="m 0,0 c -0.185,-0.498 -0.076,-1.011 0.245,-1.144 0.32,-0.133 0.73,0.162 0.915,0.66 C 1.346,0.014 1.236,0.526 0.916,0.659 0.595,0.793 0.185,0.498 0,0" /></g><g
           transform="translate(137.4841,334.7031)"
           id="g346"><path
             id="path348"
             style="fill:#ff5551;fill-opacity:1;fill-rule:nonzero;stroke:none"
             d="m 0,0 c 0,0 0.045,-3.337 0.756,-5.235 -1.173,-0.461 -2.508,0.53 -2.508,0.53 z" /></g><g
           transform="translate(139.4298,338.6152)"
           id="g350"><path
             id="path352"
             style="fill:#1a2e35;fill-opacity:1;fill-rule:nonzero;stroke:none"
             d="M 0,0 C -0.061,0.009 -0.119,0.035 -0.167,0.08 -0.202,0.113 -1.043,0.877 -2.351,0.554 -2.516,0.512 -2.687,0.613 -2.729,0.781 -2.77,0.948 -2.668,1.117 -2.501,1.158 -0.852,1.567 0.217,0.576 0.261,0.533 0.386,0.416 0.391,0.22 0.273,0.095 0.201,0.017 0.098,-0.015 0,0" /></g><g
           transform="translate(119.3663,334.7109)"
           id="g354"><path
             id="path356"
             style="fill:#ff8c7b;fill-opacity:1;fill-rule:nonzero;stroke:none"
             d="m 0,0 c -0.623,-5.384 0.402,-12.158 -3.28,-14.859 0,0 0.771,-5.055 9.623,-6.37 9.734,-1.447 5.183,4.168 5.183,4.168 -5.173,2.066 -4.602,6.009 -3.27,9.595 z" /></g><g
           transform="translate(112.9495,316.4658)"
           id="g358"><path
             id="path360"
             style="fill:#1a2e35;fill-opacity:1;fill-rule:nonzero;stroke:none"
             d="M 0,0 C -0.125,2.483 0.011,6.226 1.538,6.766 3.219,7.358 13.152,6.568 18.131,2.059 16.263,-1.473 16.432,-5.204 16.432,-5.204 Z" /></g><g
           transform="translate(80.4639,94.2852)"
           id="g362"><path
             id="path364"
             style="fill:#007cff;fill-opacity:1;fill-rule:nonzero;stroke:none"
             d="M 0,0 C 0.918,-0.402 2.226,-0.725 2.576,-0.437 2.61,-0.409 2.713,-0.324 2.629,-0.036 2.591,0.092 2.509,0.186 2.378,0.25 1.844,0.512 0.687,0.227 0,0 m 2.107,-0.856 c -0.86,0 -2.118,0.496 -2.586,0.739 -0.053,0.028 -0.086,0.086 -0.083,0.147 0.003,0.061 0.042,0.115 0.099,0.137 C -0.378,0.2 1.623,0.969 2.516,0.53 2.727,0.427 2.865,0.266 2.928,0.052 3.046,-0.351 2.909,-0.566 2.774,-0.678 2.62,-0.805 2.384,-0.856 2.107,-0.856" /></g><g
           transform="translate(81.7354,96.4609)"
           id="g366"><path
             id="path368"
             style="fill:#007cff;fill-opacity:1;fill-rule:nonzero;stroke:none"
             d="m 0,0 c -0.083,0 -0.166,-0.021 -0.251,-0.062 -0.52,-0.258 -0.964,-1.237 -1.179,-1.836 0.752,0.333 1.789,1.19 1.814,1.635 0.002,0.045 0.008,0.149 -0.193,0.226 C 0.127,-0.013 0.063,0 0,0 m -1.678,-2.311 c -0.041,0 -0.082,0.017 -0.111,0.048 -0.04,0.04 -0.054,0.099 -0.038,0.153 0.022,0.077 0.566,1.897 1.438,2.327 0.229,0.113 0.462,0.126 0.692,0.037 0.359,-0.139 0.4,-0.394 0.392,-0.533 -0.041,-0.751 -1.609,-1.833 -2.333,-2.026 -0.013,-0.004 -0.026,-0.006 -0.04,-0.006" /></g><g
           transform="translate(131.3125,90.9385)"
           id="g370"><path
             id="path372"
             style="fill:#007cff;fill-opacity:1;fill-rule:nonzero;stroke:none"
             d="M 0,0 C 1.239,-0.175 2.904,-0.152 3.189,0.255 3.214,0.29 3.278,0.383 3.146,0.602 2.745,1.258 0.97,0.509 0,0 m 1.524,-0.417 c -0.786,0 -1.6,0.101 -2.022,0.184 -0.064,0.012 -0.112,0.063 -0.123,0.127 -0.012,0.064 0.018,0.127 0.074,0.161 0.33,0.194 3.252,1.866 3.958,0.709 C 3.609,0.439 3.539,0.211 3.445,0.076 3.182,-0.301 2.369,-0.417 1.524,-0.417" /></g><g
           transform="translate(132.3477,93.3711)"
           id="g374"><path
             id="path376"
             style="fill:#007cff;fill-opacity:1;fill-rule:nonzero;stroke:none"
             d="m 0,0 c -0.198,0 -0.373,-0.066 -0.533,-0.203 -0.531,-0.454 -0.724,-1.522 -0.786,-2.034 0.792,0.481 1.808,1.583 1.731,2.044 C 0.406,-0.154 0.386,-0.034 0.094,-0.005 0.062,-0.002 0.03,0 0,0 m -1.503,-2.669 c -0.031,0 -0.061,0.01 -0.088,0.027 -0.045,0.032 -0.071,0.083 -0.067,0.138 0.004,0.075 0.112,1.846 0.923,2.538 0.248,0.212 0.536,0.299 0.86,0.272 C 0.563,0.262 0.69,0.037 0.721,-0.143 0.847,-0.905 -0.65,-2.295 -1.438,-2.654 -1.459,-2.664 -1.48,-2.669 -1.503,-2.669" /></g><g
           transform="translate(123.6052,90.8584)"
           id="g378"><path
             id="path380"
             style="fill:#ff8c7b;fill-opacity:1;fill-rule:nonzero;stroke:none"
             d="M 0,0 H 6.584 L 6.651,15.246 H 0.067 Z" /></g><g
           transform="translate(72.6133,95.5762)"
           id="g382"><path
             id="path384"
             style="fill:#ff8c7b;fill-opacity:1;fill-rule:nonzero;stroke:none"
             d="m 0,0 6.166,-1.426 5.177,15.082 -6.166,1.425 z" /></g><g
           transform="translate(79.7386,95.1729)"
           id="g386"><path
             id="path388"
             style="fill:#1a2e35;fill-opacity:1;fill-rule:nonzero;stroke:none"
             d="M 0,0 -7.174,1.802 C -7.435,1.867 -7.699,1.74 -7.81,1.498 l -2.468,-5.414 c -0.256,-0.562 0.089,-1.24 0.694,-1.382 2.514,-0.585 3.761,-0.743 6.916,-1.535 1.941,-0.487 5.897,-1.695 8.577,-2.368 2.621,-0.658 3.593,1.915 2.547,2.432 C 3.765,-4.446 2.227,-2.482 0.953,-0.657 0.724,-0.328 0.382,-0.097 0,0" /></g><g
           transform="translate(130.116,91.6211)"
           id="g390"><path
             id="path392"
             style="fill:#1a2e35;fill-opacity:1;fill-rule:nonzero;stroke:none"
             d="m 0,0 h -7.19 c -0.269,0 -0.495,-0.187 -0.543,-0.45 l -1.074,-5.852 c -0.112,-0.606 0.371,-1.181 0.992,-1.171 2.592,0.044 6.334,0.196 9.593,0.196 3.812,0 3.886,-0.208 8.356,-0.208 2.703,0 3.347,2.733 2.207,2.98 C 7.147,-3.378 6.162,-3.258 1.606,-0.514 1.11,-0.215 0.568,0 0,0" /></g><g
           transform="translate(108.3782,320.2998)"
           id="g394"><path
             id="path396"
             style="fill:#007cff;fill-opacity:1;fill-rule:nonzero;stroke:none"
             d="m 0,0 c -6.257,-0.5 -15.088,-16.196 -15.088,-16.196 l 11.335,-10.272 c 0,0 5.359,5.844 9.611,12.642 C 10.313,-6.704 6.398,0.512 0,0" /></g><g
           id="g398"><g
             id="g400" /><g
             id="g412"><g
               style="opacity:0.60000598"
               id="g410"
               clip-path="url(#clipPath404)"><g
                 id="g408"
                 transform="translate(108.3782,320.2998)"><path
                   id="path406"
                   style="fill:#ffffff;fill-opacity:1;fill-rule:nonzero;stroke:none"
                   d="m 0,0 c -6.257,-0.5 -15.088,-16.196 -15.088,-16.196 l 11.335,-10.272 c 0,0 5.359,5.844 9.611,12.642 C 10.313,-6.704 6.398,0.512 0,0" /></g></g></g></g><g
           id="g414"><g
             id="g416" /><g
             id="g428"><g
               style="opacity:0.19999701"
               id="g426"
               clip-path="url(#clipPath420)"><g
                 id="g424"
                 transform="translate(111.5847,308.9785)"><path
                   id="path422"
                   style="fill:#000000;fill-opacity:1;fill-rule:nonzero;stroke:none"
                   d="m 0,0 -7.495,-14.659 0.533,-0.487 c 0,0 2.895,3.167 6.13,7.542 z" /></g></g></g></g><g
           transform="translate(139.7457,285.0986)"
           id="g430"><path
             id="path432"
             style="fill:#007cff;fill-opacity:1;fill-rule:nonzero;stroke:none"
             d="m 0,0 c -1.128,-7.262 -2.911,-16.238 -5.661,-27.3 l -34.837,5.177 c 0.321,4.994 5.65,27.297 4.602,51.222 -0.148,3.367 2.571,6.171 5.94,6.093 1.716,-0.039 3.615,-0.129 5.474,-0.315 4.474,-0.447 10.934,-1.262 14.804,-2.199 5.107,-1.24 9.818,-3.307 9.818,-3.307 0,0 2.5,-3.67 1.154,-18.935 C 1.028,7.422 0.614,3.968 0,0" /></g><g
           id="g434"><g
             id="g436" /><g
             id="g448"><g
               style="opacity:0.60000598"
               id="g446"
               clip-path="url(#clipPath440)"><g
                 id="g444"
                 transform="translate(139.7457,285.0986)"><path
                   id="path442"
                   style="fill:#ffffff;fill-opacity:1;fill-rule:nonzero;stroke:none"
                   d="m 0,0 c -1.128,-7.262 -2.911,-16.238 -5.661,-27.3 l -34.837,5.177 c 0.321,4.994 5.65,27.297 4.602,51.222 -0.148,3.367 2.571,6.171 5.94,6.093 1.716,-0.039 3.615,-0.129 5.474,-0.315 4.474,-0.447 10.934,-1.262 14.804,-2.199 5.107,-1.24 9.818,-3.307 9.818,-3.307 0,0 2.5,-3.67 1.154,-18.935 C 1.028,7.422 0.614,3.968 0,0" /></g></g></g></g><g
           id="g450"><g
             id="g452" /><g
             id="g464"><g
               style="opacity:0.19999701"
               id="g462"
               clip-path="url(#clipPath456)"><g
                 id="g460"
                 transform="translate(139.7457,285.0986)"><path
                   id="path458"
                   style="fill:#000000;fill-opacity:1;fill-rule:nonzero;stroke:none"
                   d="M 0,0 C -2.829,1.787 -5.478,10.017 -4.285,14.333 L 1.294,10.436 C 1.028,7.422 0.614,3.968 0,0" /></g></g></g></g><g
           transform="translate(131.9225,310.0215)"
           id="g466"><path
             id="path468"
             style="fill:#007cff;fill-opacity:1;fill-rule:nonzero;stroke:none"
             d="m 0,0 c -1.799,-6.005 9.096,-23.674 9.096,-23.674 l 13.034,6.806 c 0,0 -2.96,8.899 -7.646,15.752 C 9.25,6.536 2.026,6.764 0,0" /></g><g
           id="g470"><g
             id="g472" /><g
             id="g484"><g
               style="opacity:0.60000598"
               id="g482"
               clip-path="url(#clipPath476)"><g
                 id="g480"
                 transform="translate(131.9225,310.0215)"><path
                   id="path478"
                   style="fill:#ffffff;fill-opacity:1;fill-rule:nonzero;stroke:none"
                   d="m 0,0 c -1.799,-6.005 9.096,-23.674 9.096,-23.674 l 13.034,6.806 c 0,0 -2.96,8.899 -7.646,15.752 C 9.25,6.536 2.026,6.764 0,0" /></g></g></g></g><g
           id="g486"><g
             id="g488" /><g
             id="g500"><g
               style="opacity:0.19999701"
               id="g498"
               clip-path="url(#clipPath492)"><g
                 id="g496"
                 transform="translate(130.2545,106.1006)"><path
                   id="path494"
                   style="fill:#000000;fill-opacity:1;fill-rule:nonzero;stroke:none"
                   d="M 0,0 -0.033,-7.858 H -6.62 L -6.586,0 Z" /></g></g></g></g><g
           id="g502"><g
             id="g504" /><g
             id="g516"><g
               style="opacity:0.19999701"
               id="g514"
               clip-path="url(#clipPath508)"><g
                 id="g512"
                 transform="translate(77.7874,110.6533)"><path
                   id="path510"
                   style="fill:#000000;fill-opacity:1;fill-rule:nonzero;stroke:none"
                   d="M 0,0 6.169,-1.426 3.497,-9.198 -2.672,-7.772 Z" /></g></g></g></g><g
           transform="translate(121.6495,343.5645)"
           id="g518"><path
             id="path520"
             style="fill:#ff8c7b;fill-opacity:1;fill-rule:nonzero;stroke:none"
             d="m 0,0 c -1.907,-6.271 -3.336,-9.832 -1.464,-14.239 2.816,-6.629 11.289,-6.924 14.997,-1.417 3.339,4.956 5.896,14.379 0.91,19.268 C 9.53,8.43 1.907,6.271 0,0" /></g><g
           transform="translate(131.7219,336.667)"
           id="g522"><path
             id="path524"
             style="fill:#1a2e35;fill-opacity:1;fill-rule:nonzero;stroke:none"
             d="m 0,0 c -0.75,-3.209 -2.702,-9 -7.505,-9.667 -2.673,-0.371 -7.134,0.417 -7.55,2.583 -0.417,2.167 1.25,1.866 0.833,3.642 -0.417,1.775 -2.611,7.952 -0.125,12.358 -3.458,-0.291 -1.083,4.834 5.125,6.042 -1.917,0.75 -1,5.968 8.581,3.5 C 3.842,17.304 7.166,15.541 7.57,13.138 11.645,11.416 12.724,7.083 10.195,5.5 7.744,3.966 4.011,5.708 4.011,5.708 4.011,5.708 5.736,-3.5 0,0" /></g><g
           transform="translate(129.1147,337.165)"
           id="g526"><path
             id="path528"
             style="fill:#ff8c7b;fill-opacity:1;fill-rule:nonzero;stroke:none"
             d="M 0,0 C -0.12,-1.524 0.443,-3.012 1.233,-4.018 2.422,-5.53 2.822,-5.55 3.316,-3.859 3.76,-2.338 4.857,1.062 3.267,1.969 1.7,2.863 0.138,1.742 0,0" /></g><g
           transform="translate(121.7268,259.6357)"
           id="g530"><path
             id="path532"
             style="fill:#1a2e35;fill-opacity:1;fill-rule:nonzero;stroke:none"
             d="m 0,0 c 0,0 -5.405,-51.625 -8.779,-70.474 -3.695,-20.641 -28.282,-87.039 -28.282,-87.039 l -11.695,2.938 c 6.021,22.971 14.886,65.833 20.298,82.23 4.08,24.932 0.022,56.265 5.983,75.685 z" /></g><g
           transform="translate(87.449,106.0049)"
           id="g534"><path
             id="path536"
             style="fill:#007cff;fill-opacity:1;fill-rule:nonzero;stroke:none"
             d="m 0,0 c 0.05,-0.013 -2.162,-4.231 -2.162,-4.231 l -13.158,3.304 1.093,3.987 z" /></g><g
           id="g538"><g
             id="g540" /><g
             id="g552"><g
               style="opacity:0.19999701"
               id="g550"
               clip-path="url(#clipPath544)"><g
                 id="g548"
                 transform="translate(118.3865,239.5049)"><path
                   id="path546"
                   style="fill:#000000;fill-opacity:1;fill-rule:nonzero;stroke:none"
                   d="M 0,0 C 0.403,0.08 0.78,0.089 1.138,0.026 -0.6,-15.396 -3.056,-36 -5.001,-47.784 -6.614,-30.658 -8.119,-1.604 0,0" /></g></g></g></g><g
           transform="translate(134.0826,257.7998)"
           id="g554"><path
             id="path556"
             style="fill:#1a2e35;fill-opacity:1;fill-rule:nonzero;stroke:none"
             d="m 0,0 c 0,0 2.731,-55.178 3.126,-75.251 0.412,-20.879 -4.593,-82.785 -4.593,-82.785 H -12.62 c 0,0 -4.213,57.403 -1.938,85.403 -2.691,21.333 -8.338,76.034 -8.338,76.034 z" /></g><g
           transform="translate(174.3494,267.6982)"
           id="g558"><path
             id="path560"
             style="fill:#ff8c7b;fill-opacity:1;fill-rule:nonzero;stroke:none"
             d="m 0,0 c -1.589,0.141 -3.732,-0.082 -5.339,-0.757 l -0.809,-1.338 c -0.69,-1.138 -0.133,-2.623 1.136,-3.028 l 3.909,-1.247 1.909,-0.581 c 0.828,-0.252 1.725,0.053 2.229,0.756 l 0.817,1.141 c 0.597,0.834 0.473,1.986 -0.289,2.673 L 1.8,-0.791 C 1.3,-0.339 0.671,-0.059 0,0" /></g><g
           transform="translate(134.5905,104.2061)"
           id="g562"><path
             id="path564"
             style="fill:#007cff;fill-opacity:1;fill-rule:nonzero;stroke:none"
             d="m 0,0 c 0.051,0 -0.451,-4.63 -0.451,-4.63 h -13.566 l -0.527,4.132 z" /></g></g></g></g></svg>