<?xml version="1.0" encoding="utf-8"?>
<!-- Generator: Adobe Illustrator 24.0.0, SVG Export Plug-In . SVG Version: 6.00 Build 0)  -->
<svg version="1.1" id="Layer_1" xmlns="http://www.w3.org/2000/svg" xmlns:xlink="http://www.w3.org/1999/xlink" x="0px" y="0px"
	 viewBox="0 0 595.3 841.9" style="enable-background:new 0 0 595.3 841.9;" xml:space="preserve">
<style type="text/css">
	.st0{fill-rule:evenodd;clip-rule:evenodd;}
	.st1{fill-rule:evenodd;clip-rule:evenodd;fill:#FFFFFF;}
</style>
<g>
	<path class="st0" d="M97.8,57l7.7,0.6l7.3,0.3l11.3,3.6l9.7,4.8l3.6,3.6l4.9,10l0.9,4l-1,2.6l1.1,0.5l1,7.1l-0.6,3.2l-3.2,6.7
		l-1.5,1.3l0.1,2.8l-1.3,3.3l-3.2,1.5l-4.7,10.4l-5.1,5.2l-1,2.6l-2.9,1.8l-2.8,4.9l-7.3,9.4l-3.7,3l-2.3,3.1l0,2.1l-3.6,4l14.6,0.6
		l12.5,2.3l4,1.2l5,3.1l3.6,5.7l3.7,8.5l0,2.4l-0.8,1.8l-2.1,9.3l-3.2,6.7l-1.8,1.7l-0.2,1.1l-6.1,10.2l-1.3,0.9l0,2.1l-2.2,1.4
		l-1.1,1.9l-4.5,4.5l-1.4,2.6l-3.9,1.9l-2.9,4.2l0.1,0.7l-2.7,0.4l-1.5,1.6l0.2,3.4l-3.4,2.6l-4.6,1.7l-0.7,2.2l-5.2,2.5l-5,1.1
		l-2.6,3.5l-1.6,0.6l-2.1,2l-3.1,2.2l-3.3,0.8l-2,3.1l-1.9,1.3l-1.1-0.2l-1.3,0.9l-3.3-1.6l-4.4,5.1l-2.8,0.1l-0.5-1l-2.8,0.1
		l-2.1,2l0.1,1l-1,0.1l-1.9-1.1l-1.6,0.6l-0.5,3.9l-2.8,0.1l-3.1,2.5l-4.1,2.7l-1.2-0.9l0.4-2.1l1.8,0.8l0.5-3.9l1.6-0.6l0.2-0.7
		l3.3-1.2l-0.3-2.4l1-2.6l3-1.1l0.8-1.5l5.2-4.9l6.8-7.9l2.6-1.4l6.3-6.8l9.7-7.3l5.7-8.8l2.2-1.7l5.2-4.9l5.6-6.7l3.8-2.6l0.1-1.7
		l1.4-0.2l-0.1-1l3.2-3.9l2.9-1.5l2.4-2.8l8.2-10.2l1.1-2.2l-1.7-2.2l-12.5-0.3l-2.3,0.7l-6.1,0.9l-10.5,1.5l-12,3.5l-5.1,2.8
		l-3.4,0.2l-9.6,2.8l-2.8,2.5l-3.5,7.1l-1.4,0.2l-3.1,5l-0.7,2.5l-2.3,5.9l0.4,2.7l-1.7,7.2l-1.2,1.6l-1.6,8.2l0,9.4l-0.9,1.2
		l-0.2,10.8l-2.1,4.8l-0.1,4.2l-3.8,5l-0.4,1.8l-4-1.2l-3.8-0.1l-5.1-3.8l-2.1-14.6l0.6-53.4l-0.8-5.8l1.2-8.1l-1-6.8l0.8-6.7
		l-0.5-1l0.8-4.3l-0.2-3.4l0.6-31.9l-1.8-2.9l-4-3.9l-1-4.7l-1.8-2.5l-0.8-3l2.3-3.4l0.9-3.2l-1.2-0.9l4.5-7.2l2.5-2.1l4.2-6.8
		L35.4,83l2-0.6l7.7-6.3l2.6-1.1l4.9-4.2l13-6l5.3-1.5l1.9-1.3l4.6-1.7l4.1-0.6l2.6-1.1L97.8,57L97.8,57z M92.4,103.8l-8.7,4.4
		l-6.3,4.4l-10.7,9.5l-4.8,2.4l-1.3,7.5l1,2.3l0.9,6.1l-0.7,2.5L61,154.5l6.7-1.7l4.5-2.4l24.7-18.5l5.4-5.6l9.7-9.4l6.9-10l2.1-4.5
		l-0.6-2l-2.3-1.4l-5.3-1l-7.5,1.1L92.4,103.8z"/>
	<path class="st0" d="M421.7,54.8c0,0-0.3,0.4-0.8,1.3c-0.9,0.7-1.9,1.3-3.1,1.8c-1.2,0.5-3,1.6-5.4,3.1l-2.7,0.5
		c-0.1,0.1-0.2,0.2-0.4,0.4c-0.2,0.2-0.3,0.3-0.4,0.4l-0.3,0c-0.1-0.1-0.2-0.1-0.3-0.1c-0.1,0-0.2,0-0.4-0.1c-0.5,0.1-1,0.2-1.4,0.4
		l-0.3,0.5c-0.2-0.1-0.4-0.1-0.6-0.2c-0.2,0-0.5-0.1-0.7-0.1c-0.2,0.1-0.8,0.4-1.6,0.7l-0.7,0.5c-0.4,0.1-0.9,0.1-1.3,0.2
		c-0.4,0.1-0.9,0.2-1.5,0.4l-0.6,0.2l-3.1,0.5c-0.7,0.1-1.2,0.3-1.6,0.4l-0.8,0.1c-0.3,0.4-0.5,1.1-0.6,2c-0.1,0.9-0.2,2.4-0.2,4.4
		c0,2-0.1,4.8-0.3,8.2c-0.1,3.5-0.4,8-0.7,13.6c-0.1,1-0.2,2.6-0.3,4.7c-0.1,2.2-0.2,4.5-0.3,7.1c-0.1,2.5-0.2,5-0.4,7.3
		c-0.2,2.4-0.3,4.2-0.4,5.6c-0.1,0.5-0.2,1.4-0.4,2.8c-0.2,1.4-0.2,2.6-0.1,3.5l0.5,2.7l0.1,0.4c0.1,0.6,0.1,1.8,0,3.6l0.1,0.8
		c-0.2,1-0.4,1.6-0.6,1.9c0,0-0.2,0.2-0.6,0.5c-0.4,0.3-0.8,0.7-1.1,1.1c-0.4,0.4-0.8,0.7-1.1,1c-0.4,0.3-0.6,0.4-0.6,0.4l-0.1,0
		c-0.4,0.4-0.8,0.7-1.3,0.9l-0.4,0.1c-0.1,0.1-0.1,0.2-0.2,0.2l-0.3,0c-0.1-0.2-0.3-0.6-0.6-1.4c-0.3-0.8-0.5-1.6-0.8-2.6
		c-0.2-0.9-0.5-1.8-0.6-2.6c-0.2-0.8-0.3-1.3-0.3-1.5c0.1-0.2,0.1-0.3,0.1-0.5c0-0.1,0-0.3,0.1-0.5c0-0.2-0.1-0.4-0.2-0.6
		c-0.1-0.2-0.2-0.4-0.2-0.6l-0.6-3.6c-0.1-0.5-0.1-1.2-0.1-2c0-0.8,0-1.7-0.1-2.6c-0.1-0.1-0.2-0.3-0.2-0.6
		c-0.2-1.7-0.4-3.3-0.4-4.8c-0.1-1.5-0.2-3.1-0.3-4.7l-0.1-0.8c0-0.3,0.1-0.6,0.1-0.9c0-0.3,0.1-0.7,0.1-1.1c0-0.3-0.1-0.5-0.2-0.6
		c0.1-0.6,0.1-1.3,0.1-1.9c0-0.7-0.1-1.4-0.1-2.3l0.2-0.6c-0.1-0.9-0.1-1.6-0.1-2.3c0-0.7,0-1.4,0.1-2.3c0-0.9,0.1-2,0.1-3.4
		c0.1-1.4,0.1-3.2,0-5.6c0.1-0.5,0.1-1,0.1-1.4c0-0.4,0-1.1,0-2.1c0-1,0.1-2.5,0.2-4.4c0.1-1.9,0.3-4.7,0.7-8.2
		c-0.3,0-0.6-0.3-0.9-1.1c-0.4-0.8-0.6-1.1-0.8-1.1c-0.5-0.9-0.9-1.3-1.3-1.2c-0.4,0.1-1.1,0.1-2.2,0.1c-0.1,0.1-0.3,0.2-0.7,0.3
		l-3.2,0.6c-1.3,0.2-2.9,0.5-4.9,0.7c-2,0.3-4,0.3-6,0.2c-2-0.1-3.9-0.5-5.6-1.3c-1.8-0.8-3.1-2-3.9-3.7c-0.1-0.4,0.2-1,0.9-1.6
		c0.7-0.6,1.3-1,1.8-1.1c0.3,0,0.7,0,1.2,0.2c0.5-0.3,1.2-0.6,2.2-0.9c1-0.3,2.2-0.6,3.6-0.9l2.2-0.4c0.3-0.1,0.7-0.3,1-0.4
		c0.3-0.1,0.7-0.2,1.1-0.4l0.4-0.1c0.4-0.1,0.8-0.2,1-0.3c0.6,0.3,1.1,0.4,1.6,0.4c0.2-0.1,0.5-0.2,0.9-0.3s0.7-0.2,1.1-0.3l5.8-0.6
		c3-0.8,6-1.4,8.9-1.9c1.4-0.2,2.6-0.4,3.8-0.5c1.2-0.1,3-0.3,5.4-0.5l-0.1,0c0.3-0.1,0.8-0.2,1.4-0.4c1.1-0.4,2.5-0.7,4.3-1.1
		c0,0.1,1.2-0.1,3.6-0.5l3.6-0.6c0.2,0,0.6-0.1,1.4-0.2c0.8-0.1,1.8-0.3,3.1-0.4c0.3,0,0.7-0.1,1.2-0.1c0.6,0,1.2,0,1.8,0
		c0.6,0,1.2,0,1.9,0c0.6,0,1.1-0.1,1.4-0.1c0.1,0,0.3,0.1,0.8,0.3c0.4,0.2,0.9,0.5,1.4,0.8c0.5,0.3,0.9,0.5,1.3,0.8
		C421.4,54.5,421.6,54.7,421.7,54.8z"/>
	<path class="st0" d="M511.1,48.1c0,0.3-0.2,1.1-0.6,2.6l-0.5,2.1c-0.3,1.2-0.7,2.6-1.4,4.2c-0.7,1.6-1.4,3.7-2.3,6.1l0.1-0.3
		c-0.1,0-0.3,0.7-0.7,2.2c-0.4,1.5-1.6,4-3.6,7.6c-0.2,0.8-0.5,1.5-0.9,2.1c-0.3,0.6-0.8,1.5-1.5,2.5c-0.6,1-1.4,2.4-2.4,4.1
		c-0.9,1.7-2.1,4-3.5,6.8c-0.5,0.3-1,0.9-1.6,1.8c-0.6,0.9-1.2,1.9-1.9,3c-0.7,1.1-1.4,2.3-2.2,3.5c-0.8,1.2-1.6,2.4-2.4,3.4
		c-0.5,0.4-1.2,1.3-2.3,2.7c-1,1.4-2.8,2.8-5.4,4.4l-1.5,1.5c-0.1,0.1-0.3,0.2-0.7,0.5c-0.4,0.2-0.8,0.5-1.2,0.8
		c-0.4,0.3-0.8,0.5-1.2,0.8c-0.4,0.2-0.6,0.4-0.7,0.3c-0.3,0.2-0.7,0.6-1.4,1c-0.6,0.4-1.3,0.9-2,1.2c-0.7,0.4-1.5,0.7-2.3,1
		c-0.8,0.3-1.5,0.4-2.2,0.3c-0.2-0.1-0.3-0.2-0.4-0.2c-0.1-0.1-0.3-0.2-0.4-0.4c-0.7,0.6-1.8,0.8-3.1,0.8c-1.3,0-2.6-0.2-3.9-0.4
		c-1-0.2-2.3-0.6-3.7-1.4c-1.4-0.8-2.8-1.9-4.2-3.4c-1.4-1.5-2.8-3.3-4.1-5.5c-1.3-2.2-2.4-4.7-3.3-7.7c0-0.2-0.1-0.5-0.2-1.1
		c-0.1-0.6-0.3-1.2-0.5-1.7c-0.2-0.6-0.3-1.1-0.4-1.7c-0.1-0.5-0.1-0.8-0.1-0.9c0-0.2,0-0.5-0.1-1.1c-0.1-0.6-0.1-1.2-0.2-1.8
		c-0.1-0.7-0.2-1.3-0.3-1.9c-0.1-0.6-0.1-1.1-0.1-1.3c-0.1-1.2-0.1-2.5-0.1-3.8c0-1.3,0.2-2.6,0.4-3.9c0-0.2,0.2-0.9,0.5-2.1
		c0.3-1.2,0.7-2.7,1.1-4.5c0.5-1.8,1-3.8,1.7-5.9c0.7-2.1,1.4-4.1,2.3-6c2.4-5.2,4.7-9,6.9-11.5c2.2-2.5,3.7-3.6,4.7-3.4
		c0.3,0.7,0.5,1.1,0.4,1.2l0.4-0.8c0,0.3,0,0.4,0.1,0.4l0.1,0l0-0.4c-0.1,0-0.2,0.1-0.2,0.2c-0.1,0.1-0.1,0.2-0.2,0.3
		c0.1,0,0.2,0.1,0.3,0.3c0.1,0.2,0.1,0.4,0,0.6c0,0.3-0.1,0.5-0.2,0.7c-0.1,0.2-0.2,0.5-0.3,1c0,0.3,0.1,1,0.4,2
		c0,0.3-0.1,0.5-0.1,0.5c0,0,0,0,0.2,0.3c0.2,0.2,0.5,0.8,1.1,1.6c0.6,0.8,1.4,2.3,2.6,4.5c0.2,0.9,0.3,1.8,0.3,2.8c0,1,0,2,0.1,3.1
		l-0.4,2.5l-1,3.1l-0.2,1.6c-0.2,0.3-0.4,1-0.5,1.9c-0.1,0.9-0.3,2-0.6,3.3c-0.1,0.7-0.2,1.4-0.3,2.3c-0.1,0.8-0.2,1.5-0.2,2.1
		c0.1,0.2,0.1,0.7,0.1,1.4c0,0.8,0,1.6-0.1,2.5c-0.1,0.9-0.1,1.7-0.2,2.4c0,0.7,0,1.1,0.1,1.1c0.2,0.1,0.3,0.5,0.5,1.1
		c0.1,0.7,0.3,1.4,0.4,2.2c0.1,0.8,0.3,1.5,0.5,2.2c0.2,0.7,0.5,1,0.8,1c0.1,0,0.2,0.2,0.3,0.7c0.1,0.4,0.2,0.9,0.3,1.4
		c0.1,0.5,0.2,0.9,0.3,1.4c0.1,0.4,0.2,0.7,0.4,0.7l0.3,0c0.3,0.1,0.6,0.6,0.7,1.5c0.1,0.9,0.3,1.3,0.4,1.3c0.2-0.2,0.3-0.4,0.4-0.4
		c0.2,0,0.3,0.2,0.5,0.6c0.1,0.4,0.3,0.6,0.5,0.6l0.1,0.1c0.2,0.1,0.5,0.3,0.9,0.6c0.4,0.3,0.8,0.4,1.3,0.5c0.1,0,0.2,0,0.3,0.1
		c0.1,0,0.2,0.1,0.3,0.1c0.1,0.1,0.3,0.1,0.5,0.2c0.6,0.1,1.3,0.2,2,0.1c0.7,0,1.5-0.4,2.4-1c0.9-0.6,1.9-1.6,3.1-2.9
		c1.1-1.3,2.4-3.2,3.9-5.8c-0.1,0.4,0.2-0.1,1-1.7c0.8-1.6,1.6-3.5,2.6-5.9c1-2.3,1.9-4.8,2.9-7.5c1-2.6,1.5-4.8,1.7-6.6
		c0.1-0.7,0.2-1.3,0.2-1.7c0-0.4-0.1-0.9-0.2-1.3c-0.1-0.4-0.2-1-0.4-1.5c-0.2-0.6-0.4-1.4-0.7-2.5l0-1.8l0.2-0.4
		c0-0.4,0.2-0.6,0.6-0.6l4.1-7.1c-0.1,0,0.2-0.5,1-1.4c0.8-0.9,1.6-1.9,2.5-3c0.9-1.1,1.8-2.2,2.6-3.1c0.8-1,1.1-1.4,1-1.4
		c0.2,0,0.6-0.2,1.3-0.5c0.7-0.3,1.4-0.5,2-0.3c0.1,0.1,0.3,0.1,0.6,0.2c0.3,0.1,0.5,0.1,0.8,0.1c0.3,0,0.5,0,0.7,0.1
		c0.3,0,0.4,0.1,0.5,0.2c0.1,0.1,0.2,0.2,0.2,0.2c0.3,0.1,0.9-0.1,1.7-0.5c0.8-0.5,1.3-0.7,1.5-0.6c0.3,0,0.5,0.3,0.6,0.8
		c0.1,0.5,0.2,0.8,0.3,0.9c0.1,0,0.2,0,0.3-0.1l0.1-0.1c0.2,0,0.3,0.1,0.2,0.3c0-0.1,0-0.1-0.1-0.1l0,0.1c0.4,0.1,0.7,0.5,0.8,1
		C511.2,47.3,511.2,47.7,511.1,48.1z"/>
	<path class="st0" d="M556.7,63.8c-0.2,0.2-0.3,0.5-0.4,1.1c-0.1,0.6-0.3,1.3-0.7,2.1c-0.4,0.8-1.1,1.9-2.1,3.1
		c-1,1.2-2.4,2.5-4.4,4l-0.6,0.6c-0.6,0.5-1.8,1.3-3.4,2.3c-1.6,1.1-3.8,2.4-6.7,4l-1.7,0.7c-0.5,0.3-1.1,0.6-1.7,0.9
		c-0.6,0.3-1.3,0.6-2.2,0.9c-0.8,0.3-1.9,0.6-3.1,1c-1.2,0.4-2.8,0.8-4.7,1.4l-0.9-0.2c0,0.1-0.4,0.5-1.1,1.4
		c-0.7,0.8-1.6,1.7-2.6,2.6c-1,0.9-1.9,1.7-2.9,2.5c-1,0.8-1.7,1.1-2.2,1c-0.2,0.9-0.4,1.7-0.6,2.6c-0.2,0.9-0.5,1.7-0.9,2.6
		c-0.3,0.8-0.5,1.3-0.6,1.6c-0.1,0.3-0.2,0.7-0.3,1.3c-0.2,0.6-0.5,1.4-0.9,2.6c-0.4,1.2-1.2,3.1-2.2,5.6l-0.4,0.9
		c-0.5,0.9-1,1.9-1.5,3c-0.5,1.1-1,2.2-1.5,3.4c-0.1,0-0.3,0.2-0.6,0.7c-0.3,0.5-0.5,0.8-0.6,0.9l-0.3,0c-0.3,0.9-1,1.7-1.9,2.5
		c-1,0.8-1.8,1.1-2.5,0.9c-1-0.8-1.7-1.7-2-2.9c-0.4-1.2-0.6-2.5-0.6-4c0-1.5,0.1-3.2,0.3-5.1c0.3-1.9,0.5-4.1,0.7-6.4
		c0.5-1.9,1.1-4.4,1.9-7.6c0.8-3.2,1.7-6.6,2.7-10.2c1-3.6,2.1-7.3,3.1-11.1c1.1-3.8,2.1-7.2,3.1-10.3c0.1-0.2,0.3-0.6,0.5-1.2
		c0.3-0.6,0.6-1.4,0.9-2.4c0.4-1,0.7-2,1-3.1c0.3-1.1,0.6-2,0.7-2.9c-0.1-0.2-0.1-0.4,0-0.7c0.1-0.3,0.1-0.5,0-0.7l0-1.8
		c-0.1-0.5-0.1-1-0.1-1.3c0-0.4,0-0.7,0.1-0.9l0.2-0.4c-0.2-0.3-0.4-0.8-0.6-1.6c0.2-0.4,0.6-0.9,1.1-1.4c0.5-0.5,1.3-1.1,2.3-1.6
		c0.3-0.2,1-0.6,2-1.2c1.1-0.5,2.3-1.1,3.6-1.7c1.3-0.6,2.8-1,4.3-1.4c1.5-0.3,2.9-0.4,4.1-0.1c0.5,0.2,1.4,0.3,2.7,0.4
		c1.3,0.1,2.2,0.1,2.9,0.2c0.4,0.1,0.9,0.2,1.3,0.3c0.4,0.1,1,0.2,1.6,0.4c0.6,0.2,1.5,0.4,2.4,0.8c1,0.4,2.2,0.9,3.8,1.6
		c1.6,1.1,3,2,4.3,2.7c1.3,0.7,2.4,1.6,3.4,2.6c1,1,1.8,2.3,2.6,3.8c0.7,1.5,1.3,3.6,1.8,6.3c-0.1,0.1-0.1,0.3-0.2,0.5L557,60
		c0,0.2,0,0.3,0,0.5c0,0.2,0,0.4,0,0.7c0,0.5-0.2,1.2-0.4,2.1C556.6,63.4,556.6,63.6,556.7,63.8L556.7,63.8z M548.8,63.7
		c0.2-1.6,0.1-3-0.3-3.9c-0.2-0.4-0.6-1-1.4-1.9c-0.8-0.9-2.3-2.1-4.5-3.8c-1.1-0.7-2.3-1.2-3.6-1.5c-1.3-0.3-2-0.5-2.1-0.5
		c-0.5-0.1-0.9-0.1-1.3-0.1l-2.9-0.2c-0.3,0-0.7-0.1-1.3-0.1c-0.6-0.1-1.2,0-1.9,0.2c-0.7,0.2-1.3,0.7-1.9,1.4
		c-0.6,0.7-1.1,1.9-1.3,3.6c0,0.3-0.1,0.7-0.1,1c-0.1,0.3-0.1,0.8-0.1,1.3c-0.2,0.7-0.4,1.5-0.5,2.4c-0.1,0.9-0.3,1.9-0.5,3
		c-0.2,0.8-0.5,1.5-0.7,2.2c-0.3,0.7-0.6,1.6-0.9,2.7c-0.3,1.1-0.7,2.5-1.1,4.3c-0.4,1.8-1,4.1-1.7,7c0.4,0,1.6-0.2,3.6-0.6
		c2-0.6,3.7-1.1,5.1-1.5c1.3-0.4,2.5-0.9,3.6-1.4c1.1-0.5,2.2-1.1,3.4-1.8c1.2-0.7,2.6-1.7,4.4-2.9l3.2-2.5c0.2-0.2,0.5-0.5,1-0.9
		c0.5-0.4,1-1,1.6-1.6c0.6-0.6,1.1-1.3,1.6-2C548.3,65.1,548.6,64.4,548.8,63.7z"/>
	<path class="st0" d="M587.3,27.1l3.1,2.7l0.5,0.7l-0.1,2.3l-2.5,8l-1.9,4.7l-4.4,9.4l-1.1,0.2l-5.4,11.2l-2.8,7.4l-0.8,0.7
		l-0.3,0.1l0.5,0.6l-0.8,1l0.5,0.7l-0.6,1.4l-0.4,0.6l-0.9,1.4l-0.2,0.8l-2.2,3.1l-1.2,4l-0.4,2.8l-0.7,2.6l-0.7,0l-0.7,2.2
		l-1.5,0.8l-0.6-0.3l-1.1,0.5l-0.8-1.8l-0.3-5.5l0.5-6l2.7-11.2l3-10.5l4.1-11.2l9-18l1.1-3.1l2.3-1.9l2.7-0.7L587.3,27.1
		L587.3,27.1z M559,101.2l0.7,0l0.3-0.2l0-0.7l1.3-0.2l0.4,1.2l0.5,0l0.8,1.5l0.7-0.5l0.4,0.3l0.9,1.9l0.6,1.3l0.3,0l0.4-0.6
		l0.5,0.3l0.3,0.7l1.1,1.5l0.2,0.3l-0.3,0.9l0.5,0.9l-0.5,0l0,0.4l0.3,0l0.3,1.7l-0.3,2.1l-0.4,1.5l-1.8,0.8l-2,0.4l-1.3,1.5
		l-2.3-0.4l-0.5,0l-3.1-1.2l-3.1-2.3l-0.8-1.2l-1.2-0.3l0.3-0.4l-0.7-0.8l0.1-0.9l-2-1.3l-1.3-0.7l0.4-0.8l0-0.7l0.6-0.6l-0.2-0.9
		l0.6-0.5l0.7,0l-0.5-0.9l0.8-0.3l-0.4-1.7l0.5-0.1l0.9,0.2l0.1-0.1l0-0.5l1.1-1.1l1-0.6l1.2-0.7L559,101.2z"/>
	<g>
		<path class="st0" d="M148.1,245.9c49.1-80.9,128.2-75.4,174.8-95.3c23.3-9.9,24.1-22.6,7.9-37.3c-36.8-17.5-23.5-40.6,5.4-56.1
			c21.7-11.3,43.4-22.7,65.1-34C359,34.2,315.2,51,267.9,82.8c-18.8,16.6-12.8,24.2,9.6,25.8c55.6,9,66.5,28.6,6.5,40.8
			C164.7,165.8,109.9,196,148.1,245.9z"/>
		<path class="st0" d="M320.3,17.4c6.2,1.9,8.1,13.6,4.3,26.3c-3.8,12.6-11.9,21.4-18.1,19.5c-6.2-1.9-8.1-13.6-4.3-26.3
			C306,24.3,314.1,15.6,320.3,17.4z"/>
		<path class="st0" d="M346.9,149.8c-23,25.2,8.4,53.7,71.6,84.1C384.5,208.2,357.7,180.8,346.9,149.8z"/>
	</g>
	<path class="st0" d="M189.3,71.8c23.3,0.9,42,21.6,41.8,46.1c-0.2,24.5-19.2,43.6-42.4,42.7c-23.3-0.9-42-21.6-41.8-46.1
		C147,90,166,70.9,189.3,71.8z"/>
	<path class="st1" d="M187.6,79.1c17.3-3.2,34.2,10.2,37.7,29.9c3.5,19.7-7.8,38.2-25.1,41.4c-17.3,3.2-34.2-10.2-37.7-29.9
		C159,100.8,170.3,82.2,187.6,79.1z"/>
	<path class="st0" d="M237.3,61.6c23.3,0.9,42,21.6,41.8,46.1c-0.2,24.5-19.2,43.6-42.4,42.7c-23.3-0.9-42-21.6-41.8-46.1
		C195.1,79.8,214.1,60.6,237.3,61.6z"/>
	<path class="st1" d="M235.4,68.2c17.9-3.3,35.4,10.5,39,30.9c3.6,20.4-8,39.6-26,42.9c-17.9,3.3-35.4-10.5-39-30.9
		C205.8,90.7,217.4,71.5,235.4,68.2z"/>
	<g>
		<path class="st0" d="M240.3,73.7c-40.7,2.8-31.3,74.7,16.7,61C217.5,140.7,210.6,81.3,240.3,73.7z"/>
		<path class="st0" d="M244.2,84c-22.2-2.8-20.2,48.4,9.9,37.6C233.7,124.1,228.4,87.4,244.2,84z"/>
	</g>
	<path class="st0" d="M192.8,95.4c-22.2-2.8-20.2,48.4,9.9,37.6C182.3,135.5,177.1,98.8,192.8,95.4z"/>
</g>
<path class="st0" d="M140.4,315.2c0,0.2-0.1,0.4-0.2,0.6c-0.2,0.2-0.4,0.3-0.7,0.4c-0.3,0.1-0.8,0.2-1.4,0.3
	c-0.6,0.1-1.3,0.1-2.1,0.1c-0.9,0-1.6,0-2.2-0.1c-0.6-0.1-1-0.2-1.4-0.3c-0.3-0.1-0.6-0.3-0.7-0.4c-0.2-0.2-0.2-0.4-0.2-0.6v-17.9
	h-16.6v17.9c0,0.2-0.1,0.4-0.2,0.6c-0.1,0.2-0.4,0.3-0.7,0.4c-0.3,0.1-0.8,0.2-1.4,0.3c-0.6,0.1-1.3,0.1-2.2,0.1
	c-0.9,0-1.6,0-2.2-0.1c-0.6-0.1-1-0.2-1.4-0.3c-0.3-0.1-0.6-0.3-0.7-0.4c-0.2-0.2-0.2-0.4-0.2-0.6v-41.9c0-0.2,0.1-0.4,0.2-0.6
	c0.2-0.2,0.4-0.3,0.7-0.4c0.3-0.1,0.8-0.2,1.4-0.3c0.6-0.1,1.3-0.1,2.2-0.1c0.9,0,1.6,0,2.2,0.1c0.6,0.1,1,0.2,1.4,0.3
	c0.3,0.1,0.6,0.3,0.7,0.4c0.1,0.2,0.2,0.4,0.2,0.6v16.3h16.6v-16.3c0-0.2,0.1-0.4,0.2-0.6c0.2-0.2,0.4-0.3,0.7-0.4
	c0.3-0.1,0.8-0.2,1.4-0.3c0.6-0.1,1.3-0.1,2.2-0.1c0.9,0,1.6,0,2.1,0.1c0.6,0.1,1,0.2,1.4,0.3c0.3,0.1,0.6,0.3,0.7,0.4
	c0.2,0.2,0.2,0.4,0.2,0.6V315.2L140.4,315.2z M177.2,312.9c0,0.7,0,1.2-0.1,1.7c-0.1,0.4-0.1,0.8-0.3,1.1c-0.1,0.3-0.3,0.5-0.4,0.6
	c-0.2,0.1-0.4,0.2-0.6,0.2h-22.3c-0.7,0-1.4-0.2-1.9-0.7c-0.5-0.4-0.8-1.2-0.8-2.2v-38.7c0-1,0.3-1.7,0.8-2.2
	c0.5-0.4,1.1-0.7,1.9-0.7h22.1c0.2,0,0.4,0.1,0.6,0.2c0.2,0.1,0.3,0.3,0.4,0.6c0.1,0.3,0.2,0.7,0.3,1.1c0.1,0.5,0.1,1,0.1,1.7
	c0,0.6,0,1.2-0.1,1.6c-0.1,0.4-0.1,0.8-0.3,1.1c-0.1,0.3-0.3,0.5-0.4,0.6c-0.2,0.1-0.4,0.2-0.6,0.2h-15.8v10.8h13.3
	c0.2,0,0.4,0.1,0.6,0.2c0.2,0.1,0.3,0.3,0.4,0.6c0.1,0.3,0.2,0.6,0.3,1.1c0.1,0.4,0.1,1,0.1,1.6c0,0.7,0,1.2-0.1,1.6
	c-0.1,0.4-0.1,0.8-0.3,1c-0.1,0.3-0.3,0.5-0.4,0.6c-0.2,0.1-0.4,0.2-0.6,0.2h-13.3v12.5h15.9c0.2,0,0.4,0.1,0.6,0.2
	c0.2,0.1,0.3,0.3,0.4,0.6c0.1,0.3,0.2,0.6,0.3,1.1C177.2,311.6,177.2,312.2,177.2,312.9L177.2,312.9z M222.2,313
	c0.3,0.8,0.4,1.5,0.5,2c0.1,0.5,0,0.8-0.3,1.1c-0.3,0.2-0.7,0.4-1.3,0.4c-0.6,0.1-1.5,0.1-2.6,0.1c-1.2,0-2.1,0-2.7,0
	c-0.7,0-1.1-0.1-1.5-0.2c-0.3-0.1-0.6-0.2-0.7-0.4c-0.1-0.2-0.3-0.4-0.3-0.7l-2.9-8.9h-16.7l-2.8,8.7c-0.1,0.3-0.2,0.6-0.4,0.8
	c-0.1,0.2-0.4,0.4-0.7,0.5c-0.3,0.1-0.8,0.2-1.4,0.3c-0.6,0-1.4,0.1-2.4,0.1c-1.1,0-1.9,0-2.5-0.1c-0.6-0.1-1-0.2-1.2-0.5
	c-0.2-0.3-0.3-0.6-0.2-1.1c0.1-0.5,0.2-1.1,0.5-1.9l13.7-39.4c0.1-0.4,0.3-0.7,0.5-0.9c0.2-0.2,0.5-0.4,0.9-0.6
	c0.4-0.1,1-0.2,1.7-0.2c0.7,0,1.6,0,2.8,0c1.3,0,2.4,0,3.2,0c0.8,0,1.4,0.1,1.9,0.2c0.4,0.1,0.8,0.3,1,0.6c0.2,0.3,0.4,0.6,0.5,1
	L222.2,313L222.2,313z M201.8,280.5L201.8,280.5l-6.2,18.9h12.4L201.8,280.5L201.8,280.5z M252.2,312.6c0,0.7,0,1.3-0.1,1.7
	c-0.1,0.5-0.2,0.9-0.3,1.2c-0.1,0.3-0.3,0.5-0.4,0.7c-0.2,0.1-0.4,0.2-0.6,0.2h-20.3c-0.7,0-1.4-0.2-1.9-0.7
	c-0.5-0.4-0.8-1.2-0.8-2.2v-40.3c0-0.2,0.1-0.4,0.2-0.6c0.2-0.2,0.4-0.3,0.7-0.4c0.3-0.1,0.8-0.2,1.4-0.3c0.6-0.1,1.3-0.1,2.2-0.1
	c0.9,0,1.6,0,2.2,0.1c0.6,0.1,1,0.2,1.4,0.3c0.3,0.1,0.6,0.3,0.7,0.4c0.2,0.2,0.2,0.4,0.2,0.6V309h13.9c0.2,0,0.4,0.1,0.6,0.2
	c0.2,0.1,0.3,0.3,0.4,0.6c0.1,0.3,0.2,0.7,0.3,1.1C252.2,311.4,252.2,311.9,252.2,312.6L252.2,312.6z M283.1,275.7
	c0-0.7,0-1.3-0.1-1.7c-0.1-0.5-0.1-0.9-0.3-1.1c-0.1-0.3-0.3-0.5-0.4-0.6c-0.2-0.1-0.4-0.2-0.6-0.2h-31.2c-0.2,0-0.4,0.1-0.6,0.2
	c-0.2,0.1-0.3,0.3-0.4,0.6c-0.1,0.3-0.2,0.7-0.3,1.1c-0.1,0.5-0.1,1.1-0.1,1.7c0,0.7,0,1.2,0.1,1.7c0.1,0.5,0.2,0.8,0.3,1.1
	c0.1,0.3,0.3,0.5,0.4,0.6c0.2,0.1,0.4,0.2,0.6,0.2h11.1v35.8c0,0.2,0.1,0.4,0.2,0.6c0.2,0.2,0.4,0.3,0.7,0.4
	c0.3,0.1,0.8,0.2,1.4,0.3c0.6,0.1,1.3,0.1,2.2,0.1c0.9,0,1.6,0,2.2-0.1c0.6-0.1,1.1-0.2,1.4-0.3c0.3-0.1,0.6-0.3,0.7-0.4
	c0.2-0.2,0.2-0.4,0.2-0.6v-35.8h11.1c0.2,0,0.4-0.1,0.6-0.2c0.2-0.1,0.3-0.3,0.4-0.6c0.1-0.3,0.2-0.7,0.3-1.1
	C283.1,277,283.1,276.4,283.1,275.7L283.1,275.7z M323.9,315.2c0,0.2-0.1,0.4-0.2,0.6c-0.2,0.2-0.4,0.3-0.7,0.4
	c-0.3,0.1-0.8,0.2-1.4,0.3c-0.6,0.1-1.3,0.1-2.1,0.1c-0.9,0-1.6,0-2.2-0.1c-0.6-0.1-1-0.2-1.4-0.3c-0.3-0.1-0.6-0.3-0.7-0.4
	c-0.2-0.2-0.2-0.4-0.2-0.6v-17.9h-16.6v17.9c0,0.2-0.1,0.4-0.2,0.6c-0.1,0.2-0.4,0.3-0.7,0.4c-0.3,0.1-0.8,0.2-1.4,0.3
	c-0.6,0.1-1.3,0.1-2.2,0.1c-0.9,0-1.6,0-2.2-0.1c-0.6-0.1-1-0.2-1.4-0.3c-0.3-0.1-0.6-0.3-0.7-0.4c-0.2-0.2-0.2-0.4-0.2-0.6v-41.9
	c0-0.2,0.1-0.4,0.2-0.6c0.2-0.2,0.4-0.3,0.7-0.4c0.3-0.1,0.8-0.2,1.4-0.3c0.6-0.1,1.3-0.1,2.2-0.1c0.9,0,1.6,0,2.2,0.1
	c0.6,0.1,1,0.2,1.4,0.3c0.3,0.1,0.6,0.3,0.7,0.4c0.1,0.2,0.2,0.4,0.2,0.6v16.3h16.6v-16.3c0-0.2,0.1-0.4,0.2-0.6
	c0.2-0.2,0.4-0.3,0.7-0.4c0.3-0.1,0.8-0.2,1.4-0.3c0.6-0.1,1.3-0.1,2.2-0.1c0.9,0,1.6,0,2.1,0.1c0.6,0.1,1,0.2,1.4,0.3
	c0.3,0.1,0.6,0.3,0.7,0.4c0.2,0.2,0.2,0.4,0.2,0.6V315.2L323.9,315.2z M380.9,309.7c0,0.6,0,1.1,0,1.5c0,0.4-0.1,0.7-0.2,1
	c-0.1,0.3-0.2,0.5-0.3,0.7c-0.1,0.2-0.3,0.4-0.5,0.7c-0.2,0.3-0.7,0.6-1.5,1c-0.7,0.4-1.6,0.8-2.6,1.2c-1,0.4-2.2,0.7-3.6,0.9
	c-1.3,0.2-2.8,0.4-4.3,0.4c-3,0-5.8-0.5-8.2-1.4c-2.4-0.9-4.5-2.3-6.2-4.2c-1.7-1.9-3-4.2-3.9-7c-0.9-2.8-1.4-6-1.4-9.7
	c0-3.8,0.5-7.1,1.5-10c1-2.9,2.4-5.4,4.2-7.4c1.8-2,4-3.5,6.5-4.5c2.5-1,5.3-1.5,8.3-1.5c1.2,0,2.4,0.1,3.6,0.3
	c1.1,0.2,2.2,0.5,3.2,0.8c1,0.3,1.8,0.7,2.6,1.1c0.8,0.4,1.3,0.8,1.6,1.1c0.3,0.3,0.5,0.6,0.6,0.8c0.1,0.2,0.2,0.5,0.3,0.8
	c0.1,0.3,0.1,0.7,0.2,1.1c0,0.4,0,1,0,1.6c0,0.7,0,1.3-0.1,1.7c0,0.5-0.1,0.9-0.2,1.2c-0.1,0.3-0.3,0.5-0.4,0.6
	c-0.2,0.1-0.4,0.2-0.5,0.2c-0.3,0-0.8-0.2-1.3-0.6c-0.5-0.4-1.2-0.8-2-1.3c-0.8-0.5-1.8-0.9-3-1.3c-1.1-0.4-2.5-0.6-4.1-0.6
	c-1.8,0-3.3,0.4-4.7,1.1c-1.4,0.7-2.6,1.7-3.5,3.1c-1,1.3-1.7,3-2.2,4.9c-0.5,1.9-0.7,4-0.7,6.4c0,2.6,0.3,4.9,0.8,6.8
	c0.5,1.9,1.3,3.5,2.3,4.7c1,1.2,2.2,2.2,3.6,2.8c1.4,0.6,3,0.9,4.7,0.9c1.6,0,3-0.2,4.1-0.6c1.2-0.4,2.2-0.8,3-1.2
	c0.8-0.5,1.5-0.9,2.1-1.2c0.5-0.4,0.9-0.6,1.3-0.6c0.2,0,0.4,0,0.5,0.1c0.1,0.1,0.3,0.3,0.4,0.5c0.1,0.3,0.2,0.7,0.2,1.1
	C380.9,308.2,380.9,308.9,380.9,309.7L380.9,309.7z M413.5,312.6c0,0.7,0,1.3-0.1,1.7c-0.1,0.5-0.2,0.9-0.3,1.2
	c-0.1,0.3-0.3,0.5-0.4,0.7c-0.2,0.1-0.4,0.2-0.6,0.2h-20.3c-0.7,0-1.4-0.2-1.9-0.7c-0.5-0.4-0.8-1.2-0.8-2.2v-40.3
	c0-0.2,0.1-0.4,0.2-0.6c0.2-0.2,0.4-0.3,0.7-0.4c0.3-0.1,0.8-0.2,1.4-0.3c0.6-0.1,1.3-0.1,2.2-0.1c0.9,0,1.6,0,2.2,0.1
	c0.6,0.1,1,0.2,1.4,0.3c0.3,0.1,0.6,0.3,0.7,0.4c0.2,0.2,0.2,0.4,0.2,0.6V309h13.9c0.2,0,0.4,0.1,0.6,0.2c0.2,0.1,0.3,0.3,0.4,0.6
	c0.1,0.3,0.2,0.7,0.3,1.1C413.4,311.4,413.5,311.9,413.5,312.6L413.5,312.6z M454.7,299.9c0,2.7-0.4,5.1-1.2,7.3
	c-0.8,2.2-2,4-3.5,5.5c-1.6,1.5-3.5,2.6-5.8,3.4c-2.3,0.8-4.9,1.2-7.9,1.2c-2.8,0-5.3-0.4-7.5-1c-2.2-0.7-4.1-1.8-5.6-3.2
	c-1.5-1.4-2.7-3.2-3.5-5.3c-0.8-2.1-1.2-4.6-1.2-7.4v-27c0-0.2,0.1-0.4,0.2-0.6c0.1-0.2,0.4-0.3,0.7-0.4c0.4-0.1,0.8-0.2,1.4-0.3
	c0.6-0.1,1.3-0.1,2.2-0.1c0.9,0,1.6,0,2.1,0.1c0.6,0.1,1,0.2,1.4,0.3c0.3,0.1,0.6,0.3,0.7,0.4c0.2,0.2,0.2,0.4,0.2,0.6v26.2
	c0,1.8,0.2,3.3,0.7,4.6c0.4,1.3,1.1,2.4,1.9,3.2c0.8,0.8,1.8,1.5,2.9,1.9c1.1,0.4,2.4,0.6,3.8,0.6c1.4,0,2.7-0.2,3.8-0.7
	c1.1-0.4,2.1-1.1,2.9-1.9c0.8-0.8,1.4-1.9,1.8-3.1c0.4-1.2,0.6-2.6,0.6-4.2v-26.7c0-0.2,0.1-0.4,0.2-0.6c0.1-0.2,0.4-0.3,0.7-0.4
	c0.3-0.1,0.8-0.2,1.4-0.3c0.6-0.1,1.3-0.1,2.2-0.1c0.9,0,1.6,0,2.1,0.1c0.6,0.1,1,0.2,1.4,0.3c0.3,0.1,0.6,0.3,0.7,0.4
	c0.1,0.2,0.2,0.4,0.2,0.6V299.9L454.7,299.9z M497,303.1c0,1.6-0.2,3-0.7,4.3c-0.4,1.3-1,2.4-1.8,3.4c-0.8,1-1.7,1.8-2.7,2.5
	c-1.1,0.7-2.2,1.3-3.5,1.8c-1.3,0.5-2.6,0.8-4.1,1c-1.5,0.2-3.1,0.3-4.8,0.3h-11.8c-0.7,0-1.4-0.2-1.9-0.7c-0.5-0.4-0.8-1.2-0.8-2.2
	v-38.7c0-1,0.3-1.7,0.8-2.2c0.5-0.4,1.1-0.7,1.9-0.7h11.1c2.7,0,5,0.2,6.9,0.7c1.9,0.5,3.5,1.1,4.7,2.1c1.3,0.9,2.3,2.1,3,3.5
	c0.7,1.4,1,3.1,1,5c0,1.1-0.1,2.1-0.4,3c-0.3,0.9-0.7,1.8-1.2,2.6c-0.5,0.8-1.2,1.5-1.9,2.1c-0.8,0.6-1.6,1.1-2.6,1.4
	c1.3,0.2,2.4,0.6,3.5,1.2c1.1,0.6,2,1.3,2.8,2.2c0.8,0.9,1.4,2,1.9,3.2C496.8,300.2,497,301.6,497,303.1L497,303.1z M485.4,284.4
	c0-0.9-0.1-1.7-0.4-2.4c-0.3-0.7-0.7-1.3-1.2-1.8c-0.5-0.5-1.2-0.8-2.1-1.1c-0.8-0.2-1.9-0.4-3.3-0.4h-4.5v11.5h5
	c1.3,0,2.3-0.2,3.1-0.5c0.8-0.3,1.4-0.7,1.9-1.3c0.5-0.5,0.9-1.2,1.1-1.9C485.3,285.9,485.4,285.2,485.4,284.4L485.4,284.4z
	 M487.7,303.4c0-1-0.2-2-0.5-2.8c-0.3-0.8-0.8-1.5-1.5-2c-0.7-0.5-1.5-1-2.5-1.3c-1-0.3-2.4-0.4-4-0.4h-5.3v12.6h6.5
	c1.3,0,2.3-0.1,3.2-0.4c0.9-0.3,1.6-0.7,2.2-1.2c0.6-0.5,1.1-1.1,1.5-1.9C487.5,305.3,487.7,304.4,487.7,303.4z"/>
</svg>
