<?xml version="1.0" encoding="UTF-8" standalone="no"?>
<!DOCTYPE svg PUBLIC "-//W3C//DTD SVG 1.1//EN" "http://www.w3.org/Graphics/SVG/1.1/DTD/svg11.dtd">
<svg width="100%" height="100%" viewBox="0 0 294 38" version="1.1" xmlns="http://www.w3.org/2000/svg" xmlns:xlink="http://www.w3.org/1999/xlink" xml:space="preserve" xmlns:serif="http://www.serif.com/" style="fill-rule:evenodd;clip-rule:evenodd;stroke-linejoin:round;stroke-miterlimit:2;">
    <g id="Artboard1" transform="matrix(1.09294,0,0,1,0,0)">
        <rect x="0" y="0" width="269" height="38" style="fill:none;"/>
        <g transform="matrix(0.883193,0,0,0.965274,3.64481,0.660593)">
            <g id="Layer_2" transform="matrix(1,0,0,1,2.60453,6.50729e-06)">
                <g id="Layer_1-2">
                    <path d="M9.4,18.68L5.07,23.13L5.07,30.13L0,30.13L0,2.81L5.07,2.81L5.07,16.81L18.56,2.81L24.26,2.81L12.79,15L25,30.11L19,30.11L9.4,18.68Z" style="fill:rgb(29,29,27);fill-rule:nonzero;"/>
                    <path d="M70.36,11.35C71.94,12.88 72.73,15.16 72.73,18.17L72.73,30.11L67.86,30.11L67.86,18.8C67.97,17.313 67.508,15.839 66.57,14.68C65.605,13.717 64.271,13.214 62.91,13.3C61.329,13.216 59.784,13.805 58.66,14.92C57.546,16.206 56.985,17.882 57.1,19.58L57.1,30.11L52.22,30.11L52.22,9.28L56.86,9.28L56.86,12C57.665,11.038 58.696,10.289 59.86,9.82C61.178,9.299 62.583,9.038 64,9.05C66.342,8.928 68.638,9.758 70.36,11.35Z" style="fill:rgb(29,29,27);fill-rule:nonzero;"/>
                    <path d="M91.45,29C90.832,29.471 90.124,29.811 89.37,30C88.523,30.235 87.649,30.353 86.77,30.35C84.838,30.471 82.933,29.828 81.47,28.56C80.143,27.156 79.464,25.257 79.6,23.33L79.6,13.33L76.17,13.33L76.17,9.44L79.6,9.44L79.6,4.68L84.47,4.68L84.47,9.44L90.05,9.44L90.05,13.34L84.47,13.34L84.47,23.24C84.412,24.079 84.677,24.909 85.21,25.56C85.777,26.125 86.562,26.417 87.36,26.36C88.34,26.396 89.304,26.096 90.09,25.51L91.45,29Z" style="fill:rgb(29,29,27);fill-rule:nonzero;"/>
                    <path d="M95.71,5C95.12,4.468 94.792,3.704 94.81,2.91C94.794,2.119 95.123,1.36 95.71,0.83C96.311,0.27 97.11,-0.028 97.93,0C98.744,-0.022 99.537,0.264 100.15,0.8C100.733,1.298 101.064,2.033 101.05,2.8C101.083,3.625 100.763,4.426 100.17,5C99.579,5.593 98.766,5.912 97.93,5.88C97.103,5.895 96.303,5.578 95.71,5ZM95.47,9.27L100.35,9.27L100.35,30.11L95.47,30.11L95.47,9.27Z" style="fill:rgb(29,29,27);fill-rule:nonzero;"/>
                    <path d="M127.41,9.28L127.41,27C127.41,34.333 123.667,38 116.18,38C114.258,38.007 112.343,37.752 110.49,37.24C108.854,36.814 107.324,36.051 106,35L108.18,31.34C109.208,32.157 110.382,32.771 111.64,33.15C113.005,33.598 114.433,33.827 115.87,33.83C118.15,33.83 119.817,33.31 120.87,32.27C122.028,30.972 122.607,29.255 122.47,27.52L122.47,26.4C121.639,27.308 120.613,28.015 119.47,28.47C118.212,28.949 116.876,29.187 115.53,29.17C113.662,29.199 111.817,28.762 110.16,27.9C108.593,27.089 107.283,25.856 106.38,24.34C105.444,22.744 104.967,20.92 105,19.07C104.965,17.229 105.443,15.415 106.38,13.83C107.282,12.32 108.592,11.096 110.16,10.3C111.82,9.449 113.665,9.02 115.53,9.05C116.935,9.033 118.33,9.284 119.64,9.79C120.851,10.263 121.919,11.042 122.74,12.05L122.74,9.28L127.41,9.28ZM120.84,23.38C122.028,22.269 122.677,20.696 122.62,19.07C122.673,17.463 122.023,15.91 120.84,14.82C119.597,13.706 117.968,13.117 116.3,13.18C114.616,13.113 112.97,13.701 111.71,14.82C110.53,15.911 109.883,17.464 109.94,19.07C109.879,20.694 110.525,22.268 111.71,23.38C112.969,24.499 114.618,25.081 116.3,25C117.967,25.076 119.598,24.493 120.84,23.38Z" style="fill:rgb(29,29,27);fill-rule:nonzero;"/>
                    <path d="M153.31,21.25L137,21.25C137.237,22.714 138.042,24.026 139.24,24.9C140.551,25.831 142.133,26.306 143.74,26.25C145.847,26.315 147.888,25.499 149.37,24L152,27C151.048,28.128 149.827,28.998 148.45,29.53C144.905,30.83 140.981,30.65 137.57,29.03C135.9,28.168 134.512,26.846 133.57,25.22C132.611,23.54 132.121,21.634 132.15,19.7C132.12,17.786 132.6,15.898 133.54,14.23C134.436,12.624 135.767,11.303 137.38,10.42C139.078,9.496 140.987,9.028 142.92,9.06C144.818,9.03 146.693,9.491 148.36,10.4C149.901,11.297 151.161,12.607 152,14.18C152.926,15.909 153.392,17.849 153.35,19.81C153.39,20.15 153.36,20.63 153.31,21.25ZM138.9,14.33C137.797,15.268 137.084,16.584 136.9,18.02L148.71,18.02C148.555,16.601 147.873,15.291 146.8,14.35C145.69,13.398 144.261,12.897 142.8,12.95C141.376,12.922 139.99,13.413 138.9,14.33Z" style="fill:rgb(29,29,27);fill-rule:nonzero;"/>
                    <path d="M176.2,11.35C177.79,12.88 178.58,15.16 178.58,18.17L178.58,30.11L173.7,30.11L173.7,18.8C173.813,17.314 173.355,15.84 172.42,14.68C171.452,13.716 170.114,13.213 168.75,13.3C167.169,13.218 165.625,13.807 164.5,14.92C163.386,16.206 162.825,17.882 162.94,19.58L162.94,30.11L158.07,30.11L158.07,9.28L162.71,9.28L162.71,12C163.513,11.036 164.545,10.286 165.71,9.82C167.026,9.311 168.429,9.059 169.84,9.08C172.179,8.947 174.474,9.767 176.2,11.35Z" style="fill:rgb(29,29,27);fill-rule:nonzero;"/>
                    <path d="M188.72,29C187.056,28.131 185.669,26.81 184.72,25.19C183.746,23.516 183.248,21.607 183.28,19.67C183.247,17.743 183.746,15.843 184.72,14.18C185.675,12.569 187.06,11.257 188.72,10.39C190.52,9.459 192.524,8.991 194.55,9.03C196.426,8.986 198.284,9.416 199.95,10.28C201.464,11.073 202.686,12.327 203.44,13.86L199.7,16.05C199.155,15.141 198.378,14.392 197.45,13.88C194.986,12.642 191.991,13.092 190,15C188.77,16.258 188.117,17.973 188.2,19.73C188.129,21.477 188.781,23.177 190,24.43C192.014,26.323 195.019,26.749 197.48,25.49C198.408,24.978 199.185,24.229 199.73,23.32L203.47,25.51C202.693,27.045 201.459,28.303 199.94,29.11C198.29,29.981 196.445,30.418 194.58,30.38C192.542,30.418 190.527,29.943 188.72,29Z" style="fill:rgb(29,29,27);fill-rule:nonzero;"/>
                    <path d="M226.82,21.25L210.48,21.25C210.721,22.712 211.525,24.023 212.72,24.9C214.034,25.833 215.62,26.307 217.23,26.25C219.344,26.323 221.395,25.506 222.88,24L225.5,27C224.561,28.118 223.358,28.984 222,29.52C218.455,30.82 214.531,30.64 211.12,29.02C209.448,28.161 208.059,26.838 207.12,25.21C206.156,23.532 205.666,21.624 205.7,19.69C205.648,17.784 206.096,15.898 207,14.22C207.896,12.614 209.227,11.293 210.84,10.41C212.539,9.487 214.447,9.019 216.38,9.05C218.278,9.02 220.153,9.481 221.82,10.39C223.403,11.27 224.702,12.585 225.56,14.18C226.486,15.909 226.952,17.849 226.91,19.81C226.9,20.15 226.87,20.63 226.82,21.25ZM212.41,14.33C211.311,15.271 210.598,16.586 210.41,18.02L222.23,18.02C221.889,15.089 219.319,12.887 216.37,13C214.932,12.946 213.523,13.419 212.41,14.33Z" style="fill:rgb(29,29,27);fill-rule:nonzero;"/>
                    <path d="M46.49,19C46.463,24.889 41.609,29.72 35.72,29.72C33.908,29.718 32.291,28.549 31.72,26.83C31.586,26.41 31.519,25.971 31.52,25.53C31.513,24.203 32.147,22.951 33.22,22.17C33.331,22.312 33.432,22.463 33.52,22.62C33.883,23.253 34.072,23.97 34.07,24.7C34.071,25.264 33.956,25.823 33.73,26.34C33.735,26.376 33.735,26.414 33.73,26.45L33.84,26.4C35.261,25.699 36.163,24.245 36.16,22.66C36.164,22.381 36.137,22.103 36.08,21.83C36.287,21.719 36.487,21.595 36.68,21.46C38.442,20.224 39.492,18.202 39.49,16.05C39.494,15.786 39.477,15.522 39.44,15.26C39.158,15.22 38.874,15.2 38.59,15.2C36.444,15.202 34.428,16.247 33.19,18C33.05,18.2 32.92,18.4 32.8,18.61C32.52,18.554 32.235,18.524 31.95,18.52C30.377,18.519 28.931,19.407 28.22,20.81L28.15,20.95L28.3,20.89C29.499,20.394 30.862,20.479 31.99,21.12C32.17,21.222 32.341,21.339 32.5,21.47C32.352,21.663 32.185,21.841 32,22C31.817,22.17 31.619,22.324 31.41,22.46C30.741,22.876 29.968,23.098 29.18,23.1C28.72,23.102 28.263,23.024 27.83,22.87C27.377,22.724 26.956,22.493 26.59,22.19C25.607,21.421 25.022,20.248 25,19C25,13.092 29.862,8.23 35.77,8.23C41.678,8.23 46.54,13.092 46.54,19L46.49,19ZM35.64,17.81L35.63,17.81C35.01,17.81 34.5,18.32 34.5,18.94C34.5,19.56 35.01,20.07 35.63,20.07C36.25,20.07 36.76,19.56 36.76,18.94L36.76,18.93C36.76,18.316 36.254,17.81 35.64,17.81Z" style="fill:url(#_Linear1);fill-rule:nonzero;"/>
                    <path d="M40.86,23.52L41.49,23.13L42.12,23.52L41.95,22.8L42.51,22.32L41.78,22.26L41.49,21.58L41.21,22.26L40.47,22.32L41.03,22.8L40.86,23.52Z" style="fill:rgb(237,237,237);fill-rule:nonzero;"/>
                    <path d="M31.49,14.6L31.73,14.45L31.98,14.6L31.91,14.32L32.13,14.14L31.84,14.12L31.73,13.85L31.62,14.12L31.34,14.14L31.55,14.32L31.49,14.6Z" style="fill:rgb(237,237,237);fill-rule:nonzero;"/>
                    <path d="M44.32,19.7L44.57,19.55L44.81,19.7L44.74,19.42L44.96,19.24L44.68,19.21L44.57,18.95L44.46,19.21L44.17,19.24L44.39,19.42L44.32,19.7Z" style="fill:rgb(237,237,237);fill-rule:nonzero;"/>
                    <path d="M27.1,15.75L27.39,15.57L27.67,15.75L27.59,15.42L27.85,15.2L27.52,15.17L27.39,14.86L27.25,15.17L26.92,15.2L27.17,15.42L27.1,15.75Z" style="fill:rgb(237,237,237);fill-rule:nonzero;"/>
                    <path d="M36.47,14.29L36.76,14.12L37.05,14.29L36.97,13.96L37.23,13.74L36.89,13.72L36.76,13.4L36.63,13.72L36.29,13.74L36.55,13.96L36.47,14.29Z" style="fill:rgb(237,237,237);fill-rule:nonzero;"/>
                    <path d="M38.08,26.32L38.37,26.14L38.66,26.32L38.58,25.99L38.84,25.77L38.5,25.74L38.37,25.43L38.24,25.74L37.9,25.77L38.16,25.99L38.08,26.32Z" style="fill:rgb(237,237,237);fill-rule:nonzero;"/>
                    <path d="M35.05,9.46L35.33,9.28L35.62,9.46L35.55,9.13L35.8,8.91L35.46,8.88L35.33,8.57L35.2,8.88L34.87,8.91L35.12,9.13L35.05,9.46Z" style="fill:rgb(237,237,237);fill-rule:nonzero;"/>
                    <path d="M42.6,17.31L42.74,17.23L42.88,17.31L42.84,17.15L42.97,17.04L42.8,17.03L42.74,16.87L42.67,17.03L42.51,17.04L42.63,17.15L42.6,17.31Z" style="fill:rgb(237,237,237);fill-rule:nonzero;"/>
                    <path d="M40.97,12.96L41.17,12.84L41.37,12.96L41.31,12.73L41.49,12.58L41.26,12.56L41.17,12.34L41.08,12.56L40.84,12.58L41.02,12.73L40.97,12.96Z" style="fill:rgb(237,237,237);fill-rule:nonzero;"/>
                </g>
            </g>
            <g transform="matrix(1.09549,0,0,1.09549,150.634,-2.82888)">
                <text x="80.819px" y="29.725px" style="font-family:'Montserrat-SemiBold', 'Montserrat';font-weight:600;font-size:34.269px;fill:rgb(29,29,27);">2<tspan x="101.106px 109.057px " y="29.725px 29.725px ">.0</tspan></text>
            </g>
        </g>
    </g>
    <defs>
        <linearGradient id="_Linear1" x1="0" y1="0" x2="1" y2="0" gradientUnits="userSpaceOnUse" gradientTransform="matrix(21.9209,-21.88,21.88,21.9209,24.0197,30.11)"><stop offset="0" style="stop-color:rgb(85,164,255);stop-opacity:1"/><stop offset="1" style="stop-color:rgb(152,100,255);stop-opacity:1"/></linearGradient>
    </defs>
</svg>
