<?xml version="1.0" encoding="UTF-8" standalone="no"?>
<!DOCTYPE svg PUBLIC "-//W3C//DTD SVG 1.1//EN" "http://www.w3.org/Graphics/SVG/1.1/DTD/svg11.dtd">
<svg width="100%" height="100%" viewBox="0 0 38 38" version="1.1" xmlns="http://www.w3.org/2000/svg" xmlns:xlink="http://www.w3.org/1999/xlink" xml:space="preserve" xmlns:serif="http://www.serif.com/" style="fill-rule:evenodd;clip-rule:evenodd;stroke-linejoin:round;stroke-miterlimit:2;">
    <g id="Artboard1" transform="matrix(1,0,0,1,-232,0)">
        <rect x="232" y="0" width="38" height="38" style="fill:none;"/>
        <clipPath id="_clip1">
            <rect x="232" y="0" width="38" height="38"/>
        </clipPath>
        <g clip-path="url(#_clip1)">
            <g>
                <clipPath id="_clip2">
                    <circle cx="251" cy="19" r="19"/>
                </clipPath>
                <g clip-path="url(#_clip2)">
                    <g transform="matrix(1,0,0,1,232,0)">
                        <path d="M0,0L38,0L38,19.222L37.91,19.165L38,19.222L38,38L19.085,37.999C19.028,38 18.97,38 18.912,38C15.715,37.996 12.862,35.846 11.855,32.813C11.619,32.072 11.501,31.298 11.502,30.52C11.49,28.179 12.608,25.97 14.501,24.592C14.697,24.843 14.875,25.109 15.031,25.386C15.671,26.503 16.004,27.768 16.001,29.056C16.003,30.051 15.8,31.037 15.401,31.949C15.41,32.012 15.41,32.079 15.401,32.143L15.595,32.055C18.102,30.818 19.693,28.253 19.688,25.457C19.695,24.965 19.647,24.474 19.547,23.993C19.912,23.797 20.265,23.578 20.605,23.34C23.714,21.159 25.566,17.592 25.563,13.796C25.57,13.33 25.54,12.864 25.474,12.402C24.977,12.331 24.476,12.296 23.975,12.296C20.189,12.3 16.632,14.143 14.448,17.236C14.201,17.589 13.972,17.942 13.76,18.312C13.266,18.213 12.764,18.16 12.261,18.153C9.486,18.151 6.935,19.718 5.681,22.193L5.557,22.44L5.822,22.334C7.937,21.459 10.342,21.609 12.331,22.74C12.649,22.92 12.951,23.126 13.231,23.357C12.97,23.698 12.675,24.012 12.349,24.292C12.026,24.592 11.677,24.864 11.308,25.104C10.128,25.838 8.764,26.23 7.374,26.233C6.563,26.237 5.756,26.099 4.993,25.827C4.193,25.57 3.451,25.162 2.805,24.628C1.071,23.271 0.039,21.202 0,19L0,0ZM18.771,16.901L18.753,16.901C17.659,16.901 16.76,17.8 16.76,18.894C16.76,19.988 17.659,20.888 18.753,20.888C19.847,20.888 20.747,19.988 20.747,18.894L20.747,18.877C20.747,17.793 19.854,16.901 18.771,16.901Z" style="fill:url(#_Linear3);"/>
                    </g>
                    <g transform="matrix(1.76416,0,0,1.76416,187.896,-14.519)">
                        <path d="M40.86,23.52L41.49,23.13L42.12,23.52L41.95,22.8L42.51,22.32L41.78,22.26L41.49,21.58L41.21,22.26L40.47,22.32L41.03,22.8L40.86,23.52Z" style="fill:rgb(237,237,237);fill-rule:nonzero;"/>
                    </g>
                    <g transform="matrix(1.76416,0,0,1.76416,187.896,-14.519)">
                        <path d="M31.49,14.6L31.73,14.45L31.98,14.6L31.91,14.32L32.13,14.14L31.84,14.12L31.73,13.85L31.62,14.12L31.34,14.14L31.55,14.32L31.49,14.6Z" style="fill:rgb(237,237,237);fill-rule:nonzero;"/>
                    </g>
                    <g transform="matrix(1.76416,0,0,1.76416,187.896,-14.519)">
                        <path d="M44.32,19.7L44.57,19.55L44.81,19.7L44.74,19.42L44.96,19.24L44.68,19.21L44.57,18.95L44.46,19.21L44.17,19.24L44.39,19.42L44.32,19.7Z" style="fill:rgb(237,237,237);fill-rule:nonzero;"/>
                    </g>
                    <g transform="matrix(1.76416,0,0,1.76416,187.896,-14.519)">
                        <path d="M27.1,15.75L27.39,15.57L27.67,15.75L27.59,15.42L27.85,15.2L27.52,15.17L27.39,14.86L27.25,15.17L26.92,15.2L27.17,15.42L27.1,15.75Z" style="fill:rgb(237,237,237);fill-rule:nonzero;"/>
                    </g>
                    <g transform="matrix(1.76416,0,0,1.76416,187.896,-14.519)">
                        <path d="M36.47,14.29L36.76,14.12L37.05,14.29L36.97,13.96L37.23,13.74L36.89,13.72L36.76,13.4L36.63,13.72L36.29,13.74L36.55,13.96L36.47,14.29Z" style="fill:rgb(237,237,237);fill-rule:nonzero;"/>
                    </g>
                    <g transform="matrix(1.76416,0,0,1.76416,187.896,-14.519)">
                        <path d="M38.08,26.32L38.37,26.14L38.66,26.32L38.58,25.99L38.84,25.77L38.5,25.74L38.37,25.43L38.24,25.74L37.9,25.77L38.16,25.99L38.08,26.32Z" style="fill:rgb(237,237,237);fill-rule:nonzero;"/>
                    </g>
                    <g transform="matrix(1.76416,0,0,1.76416,187.896,-14.519)">
                        <path d="M35.05,9.46L35.33,9.28L35.62,9.46L35.55,9.13L35.8,8.91L35.46,8.88L35.33,8.57L35.2,8.88L34.87,8.91L35.12,9.13L35.05,9.46Z" style="fill:rgb(237,237,237);fill-rule:nonzero;"/>
                    </g>
                    <g transform="matrix(1.76416,0,0,1.76416,187.896,-14.519)">
                        <path d="M42.6,17.31L42.74,17.23L42.88,17.31L42.84,17.15L42.97,17.04L42.8,17.03L42.74,16.87L42.67,17.03L42.51,17.04L42.63,17.15L42.6,17.31Z" style="fill:rgb(237,237,237);fill-rule:nonzero;"/>
                    </g>
                    <g transform="matrix(1.76416,0,0,1.76416,187.896,-14.519)">
                        <path d="M40.97,12.96L41.17,12.84L41.37,12.96L41.31,12.73L41.49,12.58L41.26,12.56L41.17,12.34L41.08,12.56L40.84,12.58L41.02,12.73L40.97,12.96Z" style="fill:rgb(237,237,237);fill-rule:nonzero;"/>
                    </g>
                </g>
            </g>
        </g>
    </g>
    <defs>
        <linearGradient id="_Linear3" x1="0" y1="0" x2="1" y2="0" gradientUnits="userSpaceOnUse" gradientTransform="matrix(36.5158,-38.2387,38.3725,36.6435,-2,38.1329)"><stop offset="0" style="stop-color:rgb(85,164,255);stop-opacity:1"/><stop offset="1" style="stop-color:rgb(140,111,255);stop-opacity:1"/></linearGradient>
    </defs>
</svg>
