<?xml version="1.0" encoding="utf-8"?>
<!-- Generator: Adobe Illustrator 24.0.0, SVG Export Plug-In . SVG Version: 6.00 Build 0)  -->
<svg version="1.1" id="Layer_1" xmlns="http://www.w3.org/2000/svg" xmlns:xlink="http://www.w3.org/1999/xlink" x="0px" y="0px"
	 viewBox="0 0 512 512" style="enable-background:new 0 0 512 512;" xml:space="preserve">
<style type="text/css">
	.st0{fill-rule:evenodd;clip-rule:evenodd;fill:#FF5A58;}
	.st1{fill-rule:evenodd;clip-rule:evenodd;fill:#FFFFFF;}
	.st2{fill-rule:evenodd;clip-rule:evenodd;fill:#60A4FF;}
	.st3{fill-rule:evenodd;clip-rule:evenodd;fill:#1F499D;}
	.st4{fill-rule:evenodd;clip-rule:evenodd;fill:#7c7cfc;}
</style>
<g>
	<g>
		<path class="st0" d="M207.2,251.5L67.7,10H10l155.2,268.9c2.7-2.3,5.8-3.9,9.3-4.7l13.8-4.6l9.4-11.4
			C200.3,255,203.6,252.8,207.2,251.5L207.2,251.5z"/>
		<path class="st1" d="M67.7,10l139.4,241.5c3.2-1.1,6.5-1.5,9.9-1.2l15.9,1.1l12.9-6.9c4.4-2.3,9.2-3,13.8-2.3L125.5,10L67.7,10z"
			/>
		<path class="st2" d="M125.5,10l134.1,232.3c2.3,0.4,4.6,1.2,6.7,2.3l14.4,7.2l14.7-1.5c7.4-0.7,14.2,2.3,18.7,7.6l10.7,12.4
			l10.6,3.2l-21.6-37.4l-28.9-50l-28.9-50L183.2,10L125.5,10z"/>
		<path class="st0" d="M328.8,10L256,136.1l28.9,50L386.5,10L328.8,10z"/>
		<path class="st1" d="M386.5,10L284.9,186.1l28.9,50L444.3,10L386.5,10z"/>
		<path class="st2" d="M444.3,10L313.7,236.1l21.6,37.4l3.5,1.1c3,0.9,5.7,2.4,7.9,4.3L502,10L444.3,10z"/>
		<path class="st3" d="M335.3,273.5l-10.6-3.2L314,257.9c-4.5-5.2-11.3-8.3-18.7-7.6l-14.7,1.5l-14.4-7.2c-2.1-1.1-4.4-1.9-6.7-2.3
			c-4.6-0.8-9.4-0.1-13.8,2.3l-12.9,6.9l-15.9-1.1c-3.3-0.4-6.7,0-9.9,1.2c-3.6,1.3-6.9,3.5-9.4,6.7l-9.4,11.4l-13.8,4.6
			c-3.4,0.8-6.6,2.4-9.3,4.7c-3.1,2.6-5.4,6.1-6.7,10.2l-4.3,14.1L141.9,314c-5.2,4.5-8.3,11.3-7.6,18.7l1.5,14.7l-7.2,14.4
			c-3.3,6.2-3.6,13.8,0,20.5l6.9,12.9l-1.1,15.9c-0.8,7.1,1.9,14.4,7.8,19.3l11.4,9.4l4.6,13.8c1.7,7.3,7.2,13.6,14.9,15.9l14.1,4.3
			l10.7,12.4c4.5,5.2,11.3,8.3,18.7,7.6l14.7-1.5l14.4,7.2c6.2,3.3,13.8,3.6,20.5,0l12.9-6.9l15.9,1.1c7.1,0.8,14.4-1.9,19.3-7.8
			l9.4-11.4l13.8-4.6c7.3-1.7,13.6-7.2,15.9-14.9l4.3-14.1l12.4-10.7c5.2-4.5,8.3-11.3,7.6-18.7l-1.5-14.7l7.2-14.4
			c3.3-6.2,3.6-13.8,0-20.5l-6.9-12.9l1.1-15.9c0.8-7.1-1.9-14.4-7.8-19.3l-11.4-9.4l-4.6-13.8c-1-4.5-3.5-8.6-7-11.6
			c-2.2-1.9-4.9-3.4-7.9-4.3L335.3,273.5z M256,292c44.2,0,80,35.8,80,80s-35.8,80-80,80s-80-35.8-80-80S211.8,292,256,292z"/>
		<ellipse class="st4" cx="255.9" cy="372" rx="80" ry="80"/>
	</g>
	<g>
		<path d="M256,282c-49.6,0-90,40.4-90,90s40.4,90,90,90c49.6,0,90-40.4,90-90S305.6,282,256,282z M256,442c-38.6,0-70-31.4-70-70
			s31.4-70,70-70c38.6,0,70,31.4,70,70S294.6,442,256,442z"/>
		<path d="M510.7,5c-1.8-3.1-5.1-5-8.7-5H328.8c-3.6,0-6.9,1.9-8.7,5L256,116.1L191.9,5c-1.8-3.1-5.1-5-8.7-5H10
			C6.4,0,3.1,1.9,1.3,5s-1.8,6.9,0,10L153,277.8c-1.7,2.6-3.1,5.4-4,8.5l-3.4,11.4l-10.1,8.8c-7.9,6.7-12.1,16.9-11,27.3l1.2,11.8
			l-5.8,11.7c-5,9.3-5,20.5,0,29.8l5.5,10.3l-0.9,12.8c-1.1,10.7,3.1,21.1,11.5,27.9l9.2,7.5l3.5,10.7c2.7,10.8,11,19.5,21.7,22.7
			l11.4,3.4l8.8,10.2c6.7,7.9,16.9,12.1,27.3,11l11.8-1.2l11.7,5.8c4.7,2.5,9.8,3.7,14.9,3.7c5.1,0,10.3-1.2,14.9-3.7l10.3-5.5
			l12.8,0.9c10.7,1.1,21.1-3.1,27.9-11.5l7.5-9.2l10.7-3.5c10.8-2.7,19.5-11,22.7-21.7l3.4-11.4l10.1-8.8c7.9-6.7,12.1-16.9,11-27.3
			l-1.2-11.8l5.8-11.7c5-9.3,5-20.5,0-29.8l-5.5-10.3l0.9-12.8c1.1-10.7-3.2-21.1-11.5-27.9l-9.2-7.5l-3.5-10.7
			c-0.9-3.6-2.4-7-4.5-10L510.7,15C512.4,11.9,512.4,8.1,510.7,5L510.7,5z M296.4,186.1L392.3,20h34.6L313.7,216.1L296.4,186.1z
			 M334.6,20h34.6l-84.3,146.1l-17.3-30L334.6,20z M305.1,241.2c-3.5-0.9-7.1-1.2-10.8-0.8l-11.8,1.2l-11.7-5.8
			c-1.5-0.8-3.1-1.5-4.7-2L142.8,20h34.6L305.1,241.2z M62,20l44.3,76.8c1.9,3.2,5.2,5,8.7,5c1.7,0,3.4-0.4,5-1.3
			c4.8-2.8,6.4-8.9,3.7-13.7L85.1,20h34.6l123.9,214.6c-0.8,0.4-1.7,0.7-2.5,1.2l-10.3,5.5l-12.8-0.9c-1.9-0.2-3.8-0.2-5.7-0.1
			l-43.6-75.6c-2.8-4.8-8.9-6.4-13.7-3.7c-4.8,2.8-6.4,8.9-3.7,13.7l42.3,73.3c-1.3,1.1-2.5,2.4-3.7,3.8l-7.5,9.2l-10.7,3.5
			c-0.9,0.2-1.8,0.5-2.7,0.8L27.3,20L62,20z M363.5,321.4c3.1,2.5,4.7,6.4,4.2,10.5c0,0.1,0,0.3,0,0.4l-1.1,15.9
			c-0.1,1.9,0.3,3.8,1.2,5.4l6.9,12.9c1.8,3.5,1.8,7.6,0,11.1c0,0.1-0.1,0.2-0.1,0.2l-7.2,14.4c-0.8,1.7-1.2,3.6-1,5.5l1.5,14.7
			c0.4,3.8-1.2,7.6-4.2,10.1l-12.4,10.7c-1.4,1.2-2.5,2.9-3,4.7l-4.3,14.1c-1.2,4-4.5,7.1-8.6,8.1c-0.3,0.1-0.6,0.2-0.9,0.2
			l-13.8,4.6c-1.8,0.6-3.4,1.7-4.6,3.2l-9.4,11.4c-2.5,3.1-6.5,4.7-10.5,4.2c-0.1,0-0.3,0-0.4,0l-15.9-1.1c-1.9-0.1-3.8,0.3-5.4,1.2
			l-12.9,6.9c-3.5,1.8-7.6,1.8-11.1,0c-0.1,0-0.2-0.1-0.2-0.1l-14.4-7.2c-1.4-0.7-2.9-1.1-4.5-1.1c-0.3,0-0.7,0-1,0l-14.7,1.5
			c-3.8,0.4-7.6-1.2-10.2-4.2l-10.7-12.4c-1.2-1.4-2.9-2.5-4.7-3l-14.1-4.3c-4-1.2-7.1-4.5-8.1-8.6c-0.1-0.3-0.2-0.6-0.2-0.9
			l-4.6-13.8c-0.6-1.8-1.7-3.4-3.2-4.6l-11.5-9.4c-3.1-2.5-4.7-6.4-4.2-10.5c0-0.1,0-0.3,0-0.4l1.1-15.9c0.1-1.9-0.3-3.8-1.2-5.4
			l-6.9-12.9c-1.8-3.5-1.8-7.6,0-11.1c0-0.1,0.1-0.2,0.1-0.2l7.2-14.4c0.8-1.7,1.2-3.6,1-5.5l-1.5-14.7c-0.4-3.8,1.2-7.6,4.2-10.2
			l12.4-10.7c1.4-1.2,2.5-2.9,3-4.7l4.3-14.1c1.2-4,4.5-7.1,8.6-8.1c0.3-0.1,0.6-0.2,0.9-0.2l13.8-4.6c1.8-0.6,3.4-1.7,4.6-3.2
			l9.4-11.5c2.5-3.1,6.4-4.7,10.4-4.2c0.1,0,0.3,0,0.4,0l15.9,1.1c1.9,0.1,3.8-0.3,5.4-1.2l12.9-6.9c3.5-1.8,7.6-1.8,11.1,0
			c0.1,0,0.2,0.1,0.2,0.1l14.4,7.2c1.7,0.8,3.6,1.2,5.5,1l14.7-1.5c3.8-0.4,7.6,1.2,10.2,4.2l10.7,12.4c1.2,1.4,2.9,2.5,4.7,3
			l14.1,4.3c4,1.2,7.1,4.5,8.1,8.6c0.1,0.3,0.2,0.6,0.2,0.9l4.6,13.8c0.6,1.8,1.7,3.4,3.2,4.6L363.5,321.4z M343,265.4
			c-0.3-0.1-0.6-0.2-1-0.3l-16.7-29L450,20h34.6L343,265.4z"/>
		<path d="M137.4,120.7L137.4,120.7c-5.5,0-10,4.5-10,10s4.5,10,10,10s10-4.5,10-10S143,120.7,137.4,120.7z"/>
	</g>
</g>
</svg>
