<?xml version="1.0" encoding="utf-8"?>
<!-- Generator: Adobe Illustrator 24.0.0, SVG Export Plug-In . SVG Version: 6.00 Build 0)  -->
<svg version="1.1" id="Layer_1" xmlns="http://www.w3.org/2000/svg" xmlns:xlink="http://www.w3.org/1999/xlink" x="0px" y="0px"
	 viewBox="0 0 129.1 32" style="enable-background:new 0 0 129.1 32;" xml:space="preserve">
<style type="text/css">
	.st0{fill:#1E1E1E;}
	.st1{fill:none;}
	.st2{fill:none;stroke:#1E1E1E;}
	.st3{enable-background:new    ;}
	.st4{fill:#FFFFFF;}
</style>
<rect id="Rectangle_3" y="0" class="st0" width="96.6" height="32"/>
<g id="Rectangle_4" transform="translate(126 86)">
	<rect x="-31" y="-86" class="st1" width="34.1" height="32"/>
	<rect x="-30.5" y="-85.5" class="st2" width="33.1" height="31"/>
</g>
<g class="st3">
	<path class="st4" d="M13.6,9.8h1.9l6.1,9.9V9.8h1.6V22h-1.9l-6.2-9.8V22h-1.6V9.8z"/>
	<path class="st4" d="M37.9,9.8h1.9L44.2,22h-1.8l-1.2-3.7h-4.8L35,22h-1.7L37.9,9.8z M40.6,17l-1.9-5.4l-2,5.4H40.6z"/>
	<path class="st4" d="M54.6,9.8h1.7V22h-1.7V9.8z"/>
	<path class="st4" d="M67.4,9.8h1.7v10.7h6.1V22h-7.8V9.8z"/>
</g>
<g class="st3">
	<path class="st0" d="M106.7,9.8h1.7V22h-1.7V9.8z"/>
	<path class="st0" d="M111,9.8h5.3c1.4,0,2.5,0.4,3.1,1.3c0.4,0.5,0.5,1.1,0.5,1.7c0,0.8-0.2,1.4-0.7,1.9c-0.2,0.3-0.6,0.5-1,0.7
		c0.6,0.2,1.1,0.5,1.4,0.8c0.5,0.5,0.8,1.3,0.8,2.2c0,0.8-0.2,1.5-0.7,2.1c-0.7,1-1.9,1.4-3.5,1.4H111V9.8z M115.6,15
		c0.7,0,1.3-0.1,1.6-0.3c0.6-0.3,0.9-0.9,0.9-1.6c0-0.8-0.3-1.3-1-1.6c-0.4-0.2-0.9-0.2-1.6-0.2h-3V15H115.6z M116.2,20.6
		c1,0,1.8-0.3,2.2-0.9c0.3-0.4,0.4-0.8,0.4-1.3c0-0.9-0.4-1.5-1.2-1.8c-0.4-0.2-1-0.3-1.7-0.3h-3.3v4.3H116.2z"/>
</g>
</svg>
