<?xml version="1.0" encoding="utf-8"?>
<!-- Generator: Adobe Illustrator 24.0.0, SVG Export Plug-In . SVG Version: 6.00 Build 0)  -->
<svg version="1.1" id="Layer_1" xmlns="http://www.w3.org/2000/svg" xmlns:xlink="http://www.w3.org/1999/xlink" x="0px" y="0px"
	 viewBox="0 0 792 612" style="enable-background:new 0 0 792 612;" xml:space="preserve">
<style type="text/css">
	.st0{fill-rule:evenodd;clip-rule:evenodd;fill:#1E1E1E;}
	.st1{fill-rule:evenodd;clip-rule:evenodd;fill:#FFFFFF;}
	.st2{fill:none;stroke:#FFFFFF;stroke-width:1.5001;stroke-miterlimit:22.9256;}
</style>
<path class="st0" d="M46.1,97h699.6v448H46.1V97L46.1,97z M55.9,107.5v426.8h679.9V107.5H55.9z"/>
<path class="st0" d="M59.7,111.6h672.4v418.7H59.7V111.6L59.7,111.6z M62.1,114.2v413.4h667.5V114.2H62.1z"/>
<rect x="62.1" y="114.2" class="st0" width="667.5" height="413.4"/>
<path class="st1" d="M89.9,496v12.6h-4.5v-32.7h6.4c1.6,0,3.4,0.2,4.9,0.7c1.5,0.6,2.5,1.9,3.2,3.3c1,1.9,1.3,4,1.3,6
	c0,1.9-0.3,3.8-1,5.6c-0.6,1.4-1.5,2.6-2.8,3.4c-1.5,0.9-3.7,1-5.4,1h-2.1V496z M705.7,483.5l-3.9,1.7l-0.1-0.2
	c-0.3-1.2-0.8-2.7-1.6-3.7c-0.7-0.8-1.6-1.2-2.6-1.2s-1.8,0.4-2.4,1.2c-0.6,0.8-0.9,1.7-0.9,2.7s0.2,2,0.9,2.7c0.9,1,2.8,1.9,4,2.5
	c1.3,0.7,2.8,1.4,4,2.4c1,0.8,1.8,1.9,2.3,3.1c0.6,1.4,0.9,3,0.9,4.5c0,2.6-0.7,5-2.3,7c-1.6,2.1-3.8,2.9-6.4,2.9
	c-5.5,0-7.9-4.1-8.8-9.2v-0.2l4.1-1.5v0.2c0.5,2.8,1.6,5.8,4.9,5.8c1.1,0,2.2-0.3,2.9-1.3c0.7-0.9,1-2,1-3.2c0-0.9-0.2-1.8-0.7-2.6
	c-0.6-1.1-2.4-2-3.5-2.6c-1.4-0.7-3.1-1.5-4.4-2.5c-1-0.8-1.8-1.9-2.3-3.1c-0.7-1.4-1-3-1-4.6c0-2.4,0.6-4.7,2.1-6.6
	c1.5-1.8,3.4-2.7,5.7-2.7c4.8,0,7,3.5,8,8L705.7,483.5L705.7,483.5z M682.3,498.3v-22.4h3.8v32.7h-4.2l-8.9-24.9v24.9h-3.8v-32.7
	h5.2L682.3,498.3L682.3,498.3z M665.7,492.3c0,4-0.4,9-2.3,12.6c-1.5,2.8-3.7,4.3-6.8,4.3s-5.4-1.6-6.9-4.3c-2-3.6-2.4-8.6-2.4-12.6
	s0.4-9,2.3-12.6c1.5-2.8,3.8-4.3,6.9-4.3c3.1,0,5.3,1.6,6.8,4.3C665.3,483.2,665.7,488.3,665.7,492.3L665.7,492.3z M639.2,475.9h4.5
	v32.7h-4.5V475.9L639.2,475.9z M632.1,480.9v27.7h-4.5v-27.7H622V476h15.7v4.9H632.1L632.1,480.9z M604.4,475.9h4.4v20.3
	c0,1.6,0,3.4,0.3,4.9c0.2,0.9,0.5,1.8,1.2,2.4c0.7,0.7,1.6,0.9,2.5,0.9c0.8,0,1.7-0.2,2.3-0.7s1-1.3,1.2-2.1c0.4-1.5,0.4-4,0.4-5.5
	v-20.2h4.1v19.9c0,2.3-0.1,5-0.5,7.3c-0.4,1.7-1.2,3.2-2.5,4.3c-1.5,1.3-3.3,1.7-5.2,1.7c-1.5,0-3.1-0.3-4.4-1.1
	c-1.4-0.8-2.3-2-2.9-3.5c-0.9-2.2-0.9-6.1-0.9-8.5L604.4,475.9L604.4,475.9z M597.5,480.9v27.7H593v-27.7h-5.6V476h15.7v4.9H597.5
	L597.5,480.9z M581.5,475.9h4.5v32.7h-4.5V475.9L581.5,475.9z M574.4,480.9v27.7h-4.5v-27.7h-5.6V476H580v4.9H574.4L574.4,480.9z
	 M562.9,483.5l-3.9,1.7V485c-0.3-1.2-0.8-2.7-1.6-3.7c-0.7-0.8-1.6-1.2-2.6-1.2s-1.8,0.4-2.4,1.2c-0.6,0.8-0.9,1.7-0.9,2.7
	s0.2,2,0.9,2.7c0.9,1,2.8,1.9,4,2.5c1.3,0.7,2.8,1.4,4,2.4c1,0.8,1.8,1.9,2.3,3.1c0.6,1.4,0.9,3,0.9,4.5c0,2.6-0.7,5-2.3,7
	c-1.6,2.1-3.8,2.9-6.4,2.9c-5.5,0-7.9-4.1-8.8-9.2v-0.2l4.1-1.5v0.2c0.5,2.8,1.6,5.8,4.9,5.8c1.1,0,2.2-0.3,2.9-1.3
	c0.7-0.9,1-2,1-3.2c0-0.9-0.2-1.8-0.7-2.6c-0.6-1.1-2.4-2-3.5-2.6c-1.4-0.7-3.1-1.5-4.4-2.5c-1-0.8-1.8-1.9-2.3-3.1
	c-0.7-1.4-1-3-1-4.6c0-2.4,0.6-4.7,2.1-6.6c1.5-1.8,3.4-2.7,5.7-2.7c4.8,0,7,3.5,8,8V483.5L562.9,483.5z M539.5,498.3v-22.4h3.8
	v32.7h-4.2l-8.9-24.9v24.9h-3.8v-32.7h5.2L539.5,498.3L539.5,498.3z M517.5,475.9h4.5v32.7h-4.5V475.9L517.5,475.9z M499,480.6v9.3
	h7.8v4.6H499v14.1h-4.5v-32.7h14.3v4.7H499L499,480.6z M490.9,492.3c0,4-0.4,9-2.3,12.6c-1.5,2.8-3.7,4.3-6.8,4.3
	c-3.1,0-5.4-1.6-6.9-4.3c-2-3.6-2.4-8.6-2.4-12.6s0.4-9,2.3-12.6c1.5-2.8,3.8-4.3,6.9-4.3s5.3,1.6,6.8,4.3
	C490.5,483.2,490.9,488.3,490.9,492.3L490.9,492.3z M452.2,496v12.6h-4.5v-32.7h6.4c1.6,0,3.4,0.2,4.9,0.7c1.5,0.6,2.5,1.9,3.2,3.3
	c1,1.9,1.3,4,1.3,6c0,1.9-0.3,3.8-1,5.6c-0.6,1.4-1.5,2.6-2.8,3.4c-1.5,0.9-3.7,1-5.4,1h-2.1V496z M427,475.9h4.4v20.3
	c0,1.6,0,3.4,0.3,4.9c0.2,0.9,0.5,1.8,1.2,2.4c0.7,0.7,1.6,0.9,2.5,0.9c0.8,0,1.7-0.2,2.3-0.7c0.6-0.5,1-1.3,1.2-2.1
	c0.4-1.5,0.4-4,0.4-5.5v-20.2h4.1v19.9c0,2.3-0.1,5-0.5,7.3c-0.4,1.7-1.2,3.2-2.5,4.3c-1.5,1.3-3.3,1.7-5.2,1.7
	c-1.5,0-3.1-0.3-4.4-1.1c-1.4-0.8-2.3-2-2.9-3.5c-0.9-2.2-0.9-6.1-0.9-8.5V475.9L427,475.9z M423.6,492.3c0,4-0.4,9-2.3,12.6
	c-1.5,2.8-3.7,4.3-6.8,4.3c-3.1,0-5.4-1.6-6.9-4.3c-2-3.6-2.4-8.6-2.4-12.6s0.4-9,2.3-12.6c1.5-2.8,3.8-4.3,6.9-4.3s5.3,1.6,6.8,4.3
	C423.2,483.2,423.6,488.3,423.6,492.3L423.6,492.3z M398.6,493.9l4.8,14.7h-4.9l-3.9-13.5H391v13.5h-4.5v-32.7h7.7
	c2.3,0,4.6,0.6,6.2,2.5s2,4.5,2,7C402.4,488.8,401.5,492,398.6,493.9L398.6,493.9z M379.6,505.2c-1.2,2.4-3.1,4-5.9,4
	c-3.1,0-5.3-1.8-6.7-4.5c-1.9-3.5-2.4-8-2.4-12c0-4.1,0.5-8.9,2.4-12.6c1.6-3.1,4-4.7,7.4-4.7c5.7,0,7.6,5.1,8.3,10v0.2l-4.1,1.3
	v-0.2c-0.2-1.4-0.7-4.2-1.7-5.3c-0.7-0.8-1.5-1.2-2.5-1.2c-4.8,0-4.9,8.9-4.9,12.1c0,3.3,0.1,12.2,5,12.2c3.8,0,4.1-5.3,4.1-8.1
	h-4.5v-4.6h8.8V509h-2.6L379.6,505.2L379.6,505.2z M345.6,480.6v8.9h8v4.7h-8v9.7H356v4.7h-15v-32.7h14.8v4.7L345.6,480.6
	L345.6,480.6z M333.3,493.9l4.8,14.7h-4.9l-3.9-13.5h-3.6v13.5h-4.5v-32.7h7.7c2.3,0,4.6,0.6,6.2,2.5s2,4.5,2,7
	C337.1,488.8,336.2,492,333.3,493.9L333.3,493.9z M312.9,500.5h-7l-1.6,8.1H300l7.3-32.7h5l6.8,32.7h-4.6L312.9,500.5L312.9,500.5z
	 M286.6,489.4h7V476h4.5v32.7h-4.5v-14.4h-7v14.4h-4.5V476h4.5V489.4L286.6,489.4z M271.5,500.8l4.6-24.9h4.1l-6.7,32.7l-4.9-0.1
	l-6.5-32.7h4.8L271.5,500.8L271.5,500.8z M255.8,475.9h4.5v32.7h-4.5L255.8,475.9L255.8,475.9z M239.8,489.4h7V476h4.5v32.7h-4.5
	v-14.4h-7v14.4h-4.5V476h4.5V489.4L239.8,489.4z M231.4,483.5l-3.9,1.7l-0.1-0.2c-0.3-1.2-0.8-2.7-1.6-3.7c-0.7-0.8-1.6-1.2-2.6-1.2
	s-1.8,0.4-2.4,1.2c-0.6,0.8-0.9,1.7-0.9,2.7s0.2,2,0.9,2.7c0.9,1,2.8,1.9,4,2.5c1.3,0.7,2.8,1.4,4,2.4c1,0.8,1.8,1.9,2.3,3.1
	c0.6,1.4,0.9,3,0.9,4.5c0,2.6-0.7,5-2.3,7c-1.6,2.1-3.8,2.9-6.4,2.9c-5.5,0-7.9-4.1-8.8-9.2v-0.2l4.1-1.5v0.2
	c0.5,2.8,1.6,5.8,4.9,5.8c1.1,0,2.2-0.3,2.9-1.3c0.7-0.9,1-2,1-3.2c0-0.9-0.2-1.8-0.7-2.6c-0.6-1.1-2.4-2-3.5-2.6
	c-1.4-0.7-3.1-1.5-4.4-2.5c-1-0.8-1.8-1.9-2.3-3.1c-0.7-1.4-1-3-1-4.6c0-2.4,0.6-4.7,2.1-6.6c1.5-1.8,3.4-2.7,5.7-2.7
	c4.8,0,7,3.5,8,8L231.4,483.5L231.4,483.5z M193.4,498.5l5-22.6h6.3v32.7h-4.3v-26l-5.6,26h-3.3l-5.5-25.9v25.9h-3.8v-32.7h6.5
	L193.4,498.5L193.4,498.5z M173.9,500.5h-7l-1.6,8.1h-4.4l7.3-32.7h5l6.8,32.7h-4.6L173.9,500.5L173.9,500.5z M155.8,493.9l4.8,14.7
	h-4.9l-3.9-13.5h-3.6v13.5h-4.5v-32.7h7.7c2.3,0,4.6,0.6,6.2,2.5c1.6,1.9,2,4.5,2,7C159.6,488.8,158.7,492,155.8,493.9L155.8,493.9z
	 M134.7,475.9h4.5v32.7h-4.5V475.9L134.7,475.9z M127.7,480.9v27.7h-4.5v-27.7h-5.6V476h15.7v4.9H127.7L127.7,480.9z M113.3,500.5
	l1.6,8.1h4.6l-6.8-32.7h-5l-7.3,32.7h4.4l1.6-8.1H113.3L113.3,500.5z M89.9,480.4v10.9h1.9c1.2,0,2.8-0.2,3.7-1.3
	c0.9-1.1,1-2.9,1-4.2c0-1.2-0.1-2.5-0.7-3.5c-0.3-0.6-0.8-1.4-1.4-1.6c-0.7-0.3-1.8-0.3-2.6-0.3H89.9L89.9,480.4z M661,492.3
	c0-2.9-0.2-6.2-1-9c-0.5-1.7-1.5-3.2-3.4-3.2s-2.9,1.4-3.4,3.2c-0.9,2.8-1,6.1-1,9s0.2,6.2,1,8.9c0.5,1.8,1.5,3.2,3.5,3.2
	c1.9,0,2.8-1.5,3.4-3.1C660.8,498.6,661,495.1,661,492.3L661,492.3z M486.1,492.3c0-2.9-0.2-6.2-1-9c-0.5-1.7-1.5-3.2-3.4-3.2
	s-2.9,1.4-3.4,3.2c-0.9,2.8-1,6.1-1,9s0.2,6.2,1,8.9c0.5,1.8,1.5,3.2,3.5,3.2c1.9,0,2.8-1.5,3.4-3.1
	C486,498.6,486.1,495.1,486.1,492.3L486.1,492.3z M452.2,480.4v10.9h1.9c1.2,0,2.8-0.2,3.7-1.3c0.9-1.1,1-2.9,1-4.2
	c0-1.2-0.1-2.5-0.7-3.5c-0.3-0.6-0.8-1.4-1.4-1.6c-0.7-0.3-1.8-0.3-2.6-0.3H452.2L452.2,480.4z M418.9,492.3c0-2.9-0.2-6.2-1-9
	c-0.5-1.7-1.5-3.2-3.4-3.2s-2.9,1.4-3.4,3.2c-0.9,2.8-1,6.1-1,9s0.2,6.2,1,8.9c0.5,1.8,1.5,3.2,3.5,3.2c1.9,0,2.8-1.5,3.4-3.1
	C418.7,498.6,418.9,495.1,418.9,492.3L418.9,492.3z M391,480.4v10.2h3c1.2,0,2.3-0.4,3-1.4c0.7-1.1,1-2.5,1-3.9
	c0-2.8-0.9-4.9-3.9-4.9L391,480.4L391,480.4z M325.7,480.4v10.2h3c1.2,0,2.3-0.4,3-1.4c0.7-1.1,1-2.5,1-3.9c0-2.8-0.9-4.9-3.9-4.9
	L325.7,480.4L325.7,480.4z M312,495.9l-2.6-13.6l-2.6,13.6H312L312,495.9z M173,495.9l-2.6-13.6l-2.6,13.6H173L173,495.9z
	 M148.2,480.4v10.2h3c1.2,0,2.3-0.4,3-1.4c0.7-1.1,1-2.5,1-3.9c0-2.8-0.9-4.9-3.9-4.9L148.2,480.4L148.2,480.4z M112.4,495.9h-5.2
	l2.6-13.6L112.4,495.9z"/>
<path class="st1" d="M153.1,321.2v118.6h15.4v7.9H88.1v-7.9h15.4V159.2H88.1v-7.9h86.2c19.7,0,37.4,3.9,52.4,12.7
	c13.7,8.1,21.7,18.1,21.7,30.6v83.2c0,12.5-8,22.6-21.7,30.6c-15,8.8-32.8,12.7-52.5,12.7h-21.1V321.2z M418.1,406.5
	c0,12.3-7.1,22.4-20.4,30.6c-14.2,8.8-31.3,12.7-50.4,12.7s-36.4-3.8-50.8-12.7c-13.2-8.2-20.4-18.4-20.4-30.7v-47.9h49.6V425
	c0,10.2,5.9,16.8,21.5,16.8s21.1-6.8,21.1-16.8v-51.5c0-13.2-4.3-25.7-14.7-36.9L292,270.7c-10.8-11.6-15.9-24.4-15.9-38.1v-40.3
	c0-12.3,7.1-22.4,20.4-30.6c14.3-8.9,31.6-12.7,50.8-12.7c19.1,0,36.1,3.8,50.4,12.7c13.2,8.2,20.4,18.4,20.4,30.7v47.9h-49.6v-66.5
	c0-10-5.6-16.8-21.1-16.8c-15.6,0-21.5,6.6-21.5,16.8v49.6c0,13.1,4.4,25.6,14.7,36.7l61.6,65.9c10.8,11.6,15.9,24.5,15.9,38.3
	V406.5L418.1,406.5z M550.7,295h-24.6v-7.9h74.2v119.3c0,12.5-8,22.6-21.7,30.6c-15,8.8-32.7,12.7-52.3,12.7
	c-19.6,0-37.2-4-52.2-12.7c-13.7-8-21.8-18.1-21.8-30.6v-214c0-12.5,8.1-22.5,21.8-30.6c15-8.7,32.6-12.7,52.2-12.7
	c19.6,0,37.4,3.9,52.3,12.7c13.7,8.1,21.7,18.1,21.7,30.6v47.9h-49.6v-66.5c0-4.6-2.4-8.6-7.1-11.9c-4.8-3.3-10.6-4.9-17.3-4.9
	s-12.5,1.6-17.3,4.9c-4.8,3.3-7.1,7.3-7.1,11.9v251.3c0,4.6,2.4,8.6,7.1,11.9c4.8,3.3,10.6,4.9,17.3,4.9s12.5-1.6,17.3-4.9
	s7.1-7.3,7.1-11.9L550.7,295L550.7,295z M644.1,439.8V241h-15.4v-7.9H709v7.9h-15.4v198.8H709v7.9h-80.3v-7.9H644.1L644.1,439.8z
	 M153.1,159.2v154.1h21.2c6.7,0,12.5-1.6,17.3-4.9s7.2-7.3,7.2-12V176c0-4.7-2.4-8.7-7.2-12s-10.6-4.9-17.3-4.9L153.1,159.2
	L153.1,159.2z"/>
<path class="st1" d="M668.8,154.9c16.9,0,30.6,14.8,30.6,33c0,12.1-6,22.6-15,28.4c0.2-0.1,0.4-0.3,0.6-0.4
	c-1.8-2.2-3.5-4.4-5.1-6.6c5.5-4.3,9.7-9.9,11-15.9c-3.5,6.2-7.8,10.8-12.3,14.1c-2.7-3.7-5.1-7.4-7.4-11.2
	c8.8-5.7,16.1-14.1,17-22.3c-4.4,9.2-11.2,15.8-18.3,20.2c-2.5-4.4-4.8-8.8-7-13.3c7-4,12.7-10.5,13.7-17.6
	c-4.3,7.7-9.5,12.6-14.6,15.6c-2.9-6.3-5.5-12.9-8-19.8C658.4,156.3,663.4,154.9,668.8,154.9L668.8,154.9z M709,205.6
	c-2.4-3.2-5.7-5.8-9.3-7c-0.4,1.3-0.8,2.5-1.3,3.7L709,205.6L709,205.6z M703.4,216.2c-1.6-3.8-4.1-7.2-7.3-9.3
	c-0.7,1.1-1.4,2.2-2.2,3.2L703.4,216.2L703.4,216.2z M652.3,144.4c-0.4,4.1,0.2,8.4,1.9,12c1.1-0.6,2.2-1.1,3.4-1.6L652.3,144.4
	L652.3,144.4z M663.3,141.3l2.6,11.6c-0.4,0-0.7,0.1-1.1,0.1c-0.9,0.1-1.9,0.3-2.8,0.5c-0.8-3.9-0.4-8.3,0.9-12.2l0.1,0.5
	C663.1,141.7,663.2,141.5,663.3,141.3L663.3,141.3z M674.6,141.3l-0.2,11.9c-1.2-0.2-2.4-0.4-3.7-0.5
	C670.9,148.8,672.3,144.7,674.6,141.3L674.6,141.3z M685.5,144.5c-3,2.6-5.4,6.1-6.5,10c1.2,0.4,2.3,0.9,3.4,1.5L685.5,144.5
	L685.5,144.5z M695.3,150.6c-3.5,1.6-6.7,4.4-8.7,7.8c1,0.7,2,1.5,3,2.4L695.3,150.6L695.3,150.6z M703.3,159.3
	c-3.8,0.6-7.5,2.4-10.2,5.1c0.8,1,1.6,2,2.3,3.1L703.3,159.3L703.3,159.3z M708.9,169.8c-3.8-0.5-7.8,0.3-11.1,2.1
	c0.6,1.2,1,2.4,1.5,3.6L708.9,169.8L708.9,169.8z M711.9,181.6l-10.7,2.9c0-0.3-0.1-0.7-0.1-1c-0.1-1-0.3-2-0.5-2.9
	C704.3,179.7,708.3,180.1,711.9,181.6L711.9,181.6z M711.9,193.8l-11-0.2c0.2-1.3,0.3-2.6,0.4-4C705,189.8,708.8,191.4,711.9,193.8
	L711.9,193.8z M694.7,225.5c-0.5-4.1-2.1-8.1-4.6-11.1c-0.9,0.9-1.9,1.7-2.9,2.4L694.7,225.5L694.7,225.5z M683.2,216.9
	c-1.8-2.1-3.5-4.2-5.2-6.4c-2.4,1.7-5,3-7.6,4.1c2.2,1.8,4.5,3.4,7,4.9C679.4,218.8,681.3,218,683.2,216.9L683.2,216.9z
	 M676.4,219.8c-2.9-0.7-5.7-2.2-8.5-4.3c-6.4,2-12.9,1.8-17.9-1.6c5.2,4.4,11.7,6.9,18.8,6.9C671.4,220.8,674,220.4,676.4,219.8
	L676.4,219.8z M650,213.9c2.7,1.4,8.8,1.8,15.7-0.2c-3.4-3-6.6-6.8-9.3-11.1c-6.7,1.5-12.8,0.7-16.3-3.5
	C642,205,645.5,210.1,650,213.9L650,213.9z M640.1,199.1c2.3,2.1,8,2.6,14.8,1.1c-2.9-5-5.3-10.4-6.7-15.6c-3.3-0.2-6.3-1.3-8.7-3.4
	c1.8,0.9,4.7,1.6,8.2,1.6c-2-8.7-1.5-16.7,3.1-21.4c-2.4,3.2-2.7,11.5-0.2,21.2c2.7-0.3,5.7-1.1,8.7-2.4c-3-6.2-5.6-12.7-7.9-19.4
	c-8,5.9-13.2,15.9-13.2,27.1C638.2,191.8,638.9,195.6,640.1,199.1L640.1,199.1z M651.5,160.7c0.2-0.1,0.4-0.3,0.6-0.4
	C651.8,160.4,651.7,160.5,651.5,160.7L651.5,160.7z M652.1,160.2c0.1-0.1,0.3-0.2,0.4-0.3C652.4,160,652.2,160.1,652.1,160.2
	L652.1,160.2z M676.6,208.8c-2.7-3.6-5.3-7.4-7.7-11.2c-3.2,1.8-6.5,3.3-9.8,4.3c2.5,3.9,5.6,7.7,9.2,11
	C671,211.9,673.9,210.5,676.6,208.8L676.6,208.8z M667.6,195.4c-2.6-4.3-5.1-8.8-7.3-13.3c-3,1.3-6.1,2.2-9.1,2.5
	c1.4,4.9,3.6,10,6.5,15C660.8,198.6,664.2,197.2,667.6,195.4z"/>
<rect x="59.5" y="110" class="st2" width="672.6" height="421.9"/>
</svg>
