<?xml version="1.0" encoding="utf-8"?>
<!-- Generator: Adobe Illustrator 24.0.0, SVG Export Plug-In . SVG Version: 6.00 Build 0)  -->
<svg version="1.1" id="Layer_1" xmlns="http://www.w3.org/2000/svg" xmlns:xlink="http://www.w3.org/1999/xlink" x="0px" y="0px"
	 viewBox="0 0 500 500" style="enable-background:new 0 0 500 500;" xml:space="preserve">
<style type="text/css">
	.st0{fill:#F5F5F5;}
	.st1{fill:#E0E0E0;}
	.st2{fill:#EBEBEB;}
	.st3{fill:#FFFFFF;}
	.st4{fill:#7c7cfc;}
	.st5{fill:#263238;}
	.st6{fill:#455A64;}
	.st7{opacity:0.2;}
	.st8{fill:#FFBE9D;}
	.st9{fill:#EB996E;}
	.st10{opacity:0.6;}
	.st11{opacity:0.3;}
	.st12{fill:#FAFAFA;}
</style>
<g id="background-complete--inject-57">
	<path class="st0" d="M51.2,424.5v26.6h-4.4v2.8h4.4v17.8h83.1v-16.2h-6.1v-3.5h6.1v-5.3h2.7v-2.4h-3.2v-19.9H51.2z"/>
	<polygon class="st1" points="112.2,424.6 112.2,471.5 134.3,471.5 134.3,455.4 128.1,455.4 128.1,452.1 134.3,452.2 134.3,446.9 
		137.1,446.9 137,444.2 133.8,444.1 133.8,424.5 	"/>
	<path class="st1" d="M113.8,453.7c0,0.2-15,0.3-33.6,0.3s-33.6-0.1-33.6-0.3s15-0.3,33.6-0.3S113.8,453.5,113.8,453.7z"/>
	<path class="st1" d="M113.8,451c0,0.2-15,0.3-33.6,0.3s-33.6-0.1-33.6-0.3s15-0.3,33.6-0.3S113.8,450.8,113.8,451z"/>
	<path class="st1" d="M118.1,443.7c0,0.2-15,0.3-33.6,0.3S51,443.8,51,443.7s15-0.3,33.6-0.3S118.1,443.5,118.1,443.7z"/>
	<path class="st1" d="M118.5,463.5c0,0.2-15,0.3-33.6,0.3s-33.6-0.1-33.6-0.3s15-0.3,33.6-0.3S118.5,463.3,118.5,463.5z"/>
	<path class="st0" d="M37.1,382.7v26.6h-4.4v2.9h4.4V430h83.1v-16.2H114v-3.5h6.2V405h2.7v-2.4h-3.2v-19.9H37.1z"/>
	<polygon class="st1" points="98.1,382.8 98.1,429.7 120.2,429.7 120.2,413.5 114,413.5 114,410.3 120.2,410.4 120.2,405.1 
		122.9,405.1 122.9,402.4 119.6,402.3 119.6,382.7 	"/>
	<path class="st1" d="M99.7,411.8c0,0.2-15,0.3-33.6,0.3s-33.6-0.1-33.6-0.3s15-0.3,33.6-0.3S99.7,411.7,99.7,411.8z"/>
	<path class="st1" d="M99.7,409.1c0,0.2-15,0.3-33.6,0.3s-33.6-0.1-33.6-0.3s15-0.3,33.6-0.3S99.7,409,99.7,409.1z"/>
	<path class="st1" d="M104,401.8c0,0.2-15,0.3-33.6,0.3s-33.6-0.1-33.6-0.3s15-0.3,33.6-0.3S104,401.7,104,401.8z"/>
	<path class="st1" d="M104.4,421.7c0,0.2-15,0.3-33.6,0.3s-33.6-0.1-33.6-0.3s15-0.3,33.6-0.3S104.4,421.5,104.4,421.7z"/>
	<path class="st0" d="M369.4,424v26.6H365v2.9h4.4v17.8h83v-16.2h-6.1v-3.5h6.1v-5.3h2.7v-2.4H452V424H369.4z"/>
	<polygon class="st1" points="430.4,424.1 430.4,471.1 452.5,471.1 452.5,454.9 446.3,454.9 446.3,451.6 452.5,451.7 452.5,446.4 
		455.3,446.4 455.2,443.7 452,443.6 452,424 	"/>
	<path class="st1" d="M432,453.2c0,0.2-15,0.3-33.6,0.3s-33.6-0.1-33.6-0.3s15-0.3,33.6-0.3S432,453,432,453.2z"/>
	<path class="st1" d="M432,450.5c0,0.2-15,0.3-33.6,0.3s-33.6-0.1-33.6-0.3s15-0.3,33.6-0.3S432,450.3,432,450.5z"/>
	<path class="st1" d="M436.3,443.2c0,0.2-15,0.3-33.6,0.3s-33.6-0.1-33.6-0.3s15-0.3,33.6-0.3S436.3,443,436.3,443.2z"/>
	<path class="st1" d="M436.7,463c0,0.2-15,0.3-33.6,0.3s-33.6-0.1-33.6-0.3s15-0.3,33.6-0.3S436.7,462.9,436.7,463z"/>
	<path class="st0" d="M363.7,376.7v26.6h-4.5v2.9h4.5V424h83v-16.2h-6.1v-3.5h6.1V399h2.7v-2.4h-3.2v-19.9H363.7z"/>
	<polygon class="st1" points="424.7,376.8 424.7,423.8 446.8,423.8 446.8,407.5 440.6,407.5 440.6,404.3 446.8,404.4 446.8,399.1 
		449.6,399.1 449.5,396.4 446.3,396.3 446.3,376.7 	"/>
	<path class="st1" d="M426.3,405.9c0,0.2-15,0.3-33.6,0.3s-33.6-0.1-33.6-0.3s15-0.3,33.6-0.3S426.3,405.7,426.3,405.9z"/>
	<path class="st1" d="M426.3,403.1c0,0.2-15,0.3-33.6,0.3s-33.6-0.1-33.6-0.3s15-0.3,33.6-0.3S426.3,403,426.3,403.1z"/>
	<path class="st1" d="M430.6,395.9c0,0.2-15,0.3-33.6,0.3s-33.6-0.1-33.6-0.3s15-0.3,33.6-0.3S430.6,395.7,430.6,395.9z"/>
	<path class="st1" d="M431,415.7c0,0.2-15,0.3-33.6,0.3s-33.6-0.1-33.6-0.3s15-0.3,33.6-0.3S431,415.5,431,415.7z"/>
	<path class="st0" d="M476.2,172.1c1.6-15.6-9.1-29.2-23.9-30.5c-2.7-0.2-5.5,0-8.1,0.6c0.8,1.5,1.8,3.5,2.8,5.5l0.6-0.1
		c1.1-0.1,2.3-0.2,3.4-0.1c1.1,0.1,2.3,0.2,3.4,0.5c1.1,0.2,2.1,0.6,3.2,1c1,0.4,1.9,0.9,2.8,1.5c0.9,0.5,1.7,1.1,2.5,1.8
		c1.5,1.2,2.7,2.7,3.8,4.3c0.9,1.4,1.7,2.9,2.3,4.5c0.8,2.3,1.3,4.8,1.2,7.2c0.1,0.9,0,1.8-0.3,2.7l0,0l-0.1,0.7
		c-1.2,11.6-10.9,20.3-21.9,19.7l-3,6.5c0.5,0.1,1,0.1,1.5,0.2C461.3,199.2,474.6,187.6,476.2,172.1z"/>
	<path class="st2" d="M447.4,172.4l0.6,0.7v-0.4L447.4,172.4z"/>
	<path class="st2" d="M448.8,164.4l-1.6,2.6c0.4,0.3,0.9,0.6,1.3,0.8L448.8,164.4z"/>
	<path class="st2" d="M453.3,176.2c0.1-1.2-0.8-1.9-2.1-2.5l-0.2,2.4l1.5,1.6C453,177.3,453.3,176.7,453.3,176.2z"/>
	<path class="st2" d="M469.6,168.2c-0.2-2.3-0.8-4.6-1.7-6.8c-0.6-1.5-1.4-2.9-2.3-4.1c-1-1.5-2.3-2.8-3.6-3.9
		c-0.7-0.6-1.5-1.2-2.3-1.6c-1.7-1-3.6-1.8-5.6-2.2c-1-0.2-2-0.4-3.1-0.4c-1-0.1-2.1,0-3.1,0.1l2.9,5.7l2.2,0.2l-0.3,3.7
		c2.3,0.3,4.4,1.2,6.3,2.5l-2,4c-1.4-1-3-1.7-4.7-2.1l-0.5,5.7c3.5,1.1,7.2,2.6,6.8,7.4c-0.3,3.1-2.5,5.7-6.6,6.4l-3.9,8.7
		c11,0.5,20.8-8.2,21.9-19.8c0-0.2,0-0.6,0-0.9C469.8,170.1,469.8,169.3,469.6,168.2z"/>
	<path class="st1" d="M447.8,149.1c1.1-0.1,2.1-0.1,3.2-0.1c1.1,0.1,2.1,0.2,3.1,0.4c2,0.4,3.9,1.2,5.6,2.2c0.8,0.5,1.6,1,2.3,1.6
		c1.4,1.1,2.6,2.5,3.6,3.9c0.9,1.3,1.7,2.7,2.3,4.1c0.9,2.2,1.5,4.5,1.7,6.8c0,0.9,0.1,1.8,0.3,2.6l0,0c0.3-0.9,0.4-1.8,0.3-2.7
		c0-2.5-0.4-4.9-1.2-7.2c-0.6-1.6-1.3-3.1-2.3-4.5c-1.1-1.6-2.3-3-3.8-4.3c-0.8-0.7-1.6-1.3-2.5-1.8c-0.9-0.6-1.9-1.1-2.8-1.5
		c-1-0.4-2.1-0.8-3.2-1c-1.1-0.2-2.2-0.4-3.4-0.5c-1.3-0.1-2.7,0-4,0.2l0,0L447.8,149.1z"/>
	<path class="st2" d="M458.5,176.1c0.4-4.7-3.4-6.2-6.8-7.4l0.5-5.7c1.7,0.4,3.3,1.1,4.7,2.1l2-4c-1.8-1.3-4-2.2-6.3-2.5l-3.7,5.8
		l-0.3,3.3c-0.5-0.2-0.9-0.4-1.3-0.8l-2,3.1l2.2,2.3l0.7,0.2v0.4l2.9,3l0.2-2.4c1.3,0.6,2.2,1.3,2.1,2.5c0,0.6-0.3,1.1-0.8,1.5
		l1.1,1.1l-1.7,3.8C456,181.9,458.2,179.3,458.5,176.1z"/>
	<path class="st2" d="M450.7,154.8c1.1,2.2,1.9,3.8,1.9,3.8l0.3-3.7L450.7,154.8z"/>
	<path class="st0" d="M445.1,191.4h-1c-1.1-0.1-2.3-0.2-3.4-0.4c-2.1-0.5-4.1-1.2-6-2.3c-1.7-1-3.3-2.2-4.6-3.6
		c-1.2-1.2-2.2-2.5-3.1-4c-1.3-2.1-2.1-4.4-2.5-6.9c-0.2-0.9-0.3-1.8-0.1-2.7l0,0c0-0.2,0-0.5-0.1-0.7c-0.9-11.7,7.6-21.9,19.3-23.2
		l-0.3-0.6l-3-5.7c-14,3-23.5,15.8-22.5,30.1c0.8,13.5,11.3,24.5,24.9,25.9l0.3-0.6L445.1,191.4z"/>
	<path class="st2" d="M424.2,170.9l0.2,0.8c0.1,0.4,0.3,1.2,0.6,2.3c0.6,2.3,1.6,4.4,2.9,6.4c0.9,1.3,1.9,2.6,3.1,3.7
		c1.3,1.3,2.8,2.3,4.4,3.2c0.9,0.5,1.8,0.9,2.7,1.2c2,0.7,4,1.1,6.1,1.2h0.9l1.2-0.8c2.4-5.1,4.5-9.9,4.5-9.9l-0.2-0.2
		c-1,0.5-2.1,0.9-3.2,1.2l0.3,3.7l-3.3,0.3l-0.3-3.6c-2.4,0.1-4.7-0.4-6.8-1.4l1.3-4.3c1.6,0.8,3.4,1.2,5.2,1.2l-0.4-4.4l-1.1-1.1
		l-0.2-0.2l0.1-0.1c-3.4-0.6-6.8-1.6-7.2-5.9c-0.3-3.5,2-6.7,7-7.9l-0.3-3.8l3.3-0.3l0.3,3.6c0.9,0,1.8,0,2.7,0.1l-4.6-8.5
		C431.8,148.9,423.3,159.2,424.2,170.9z"/>
	<path class="st2" d="M447.2,175.5l-0.3-0.3v0.4L447.2,175.5z"/>
	<path class="st2" d="M440.3,163.4c0.1,1.2,1.1,1.7,2.6,2.1l-0.4-4.6C440.8,161.3,440.2,162.3,440.3,163.4z"/>
	<path class="st2" d="M446,164.3l2.4-3.7c-0.9-0.2-1.8-0.3-2.8-0.3L446,164.3z"/>
	<path class="st1" d="M441,189.4c-1-0.2-2-0.5-3-0.8c-0.9-0.3-1.8-0.7-2.7-1.2c-1.6-0.9-3.1-2-4.4-3.2c-1.2-1.1-2.2-2.3-3.1-3.7
		c-1.3-2-2.3-4.2-2.9-6.4c-0.2-0.9-0.4-1.7-0.7-2.5l0,0c-0.1,0.9-0.1,1.8,0.1,2.7c0.4,2.4,1.3,4.8,2.5,6.9c0.9,1.5,1.9,2.8,3.1,4
		c1.4,1.4,2.9,2.6,4.6,3.6c1.9,1.1,3.9,1.8,6,2.3c1.1,0.2,2.3,0.4,3.4,0.4h1l0.5-1.2l0.2-0.5c-0.6,0-1.1,0-1.7,0
		C443.1,189.7,442,189.6,441,189.4z"/>
	<path class="st2" d="M438.5,174.8l-1.3,4.3c2.1,1,4.5,1.5,6.8,1.4l0.3,3.6l3.3-0.3l-0.3-3.7c1.1-0.2,2.2-0.6,3.2-1.2l-2.2-2.3
		l-1.1-1.1l-0.2,0.1v-0.4l-2.2-2.2l-1.4-1.4l0.4,4.4C441.9,176,440.2,175.6,438.5,174.8z"/>
	<path class="st2" d="M445,152.3l-3.3,0.3l0.3,3.8c-5.1,1.1-7.3,4.4-7,7.9c0.4,4.3,3.8,5.4,7.2,5.9l2.9-4.2l1.1-1.6l-0.3-4
		c0.9,0,1.9,0.1,2.8,0.3l1.1-1.7l-0.5-0.9l-0.7-1.3l-0.3-0.6c-0.9-0.1-1.8-0.1-2.7-0.1L445,152.3z M440.2,163.3
		c-0.1-1.1,0.5-2,2.2-2.6l0.4,4.6C441.4,165.1,440.4,164.5,440.2,163.3L440.2,163.3z"/>
	<path class="st0" d="M112.4,240c-12.3-20.2-37.6-26.9-56.6-14.9c-3.5,2.2-6.6,4.9-9.2,8.1c2.4,1.1,5.3,2.5,8.3,4l0.7-0.7
		c2.5-2.4,5.4-4.3,8.5-5.8c1.5-0.7,3.1-1.2,4.7-1.7c1.6-0.4,3.2-0.7,4.8-0.8c1.5-0.2,3.1-0.2,4.7-0.1c2.9,0.2,5.7,0.7,8.5,1.7
		c2.4,0.8,4.7,2,6.8,3.4c3.1,2,5.9,4.6,8.1,7.6c1.6,2.1,2.2,3.5,2,3.5l0,0c0.2,0.3,0.4,0.6,0.6,0.9c9.1,15,5.4,34.4-8.3,43.7
		l2.4,10.5c0.7-0.4,1.3-0.7,1.9-1.1C119.2,286.3,124.7,260.2,112.4,240z"/>
	<path class="st2" d="M78,266.7l1.4,0.2l-0.3-0.5L78,266.7z"/>
	<path class="st2" d="M72.5,255.8l0.3,4.6c0.8,0,1.5-0.1,2.3-0.3L72.5,255.8z"/>
	<path class="st2" d="M88.6,265.9c-0.9-1.5-2.6-1.6-4.8-1.1l1.9,3.1l3.2,0.5C89.2,267.5,89,266.6,88.6,265.9z"/>
	<path class="st2" d="M100.9,241.4c-2.4-2.6-5.2-4.9-8.2-6.7c-2.1-1.2-4.3-2.2-6.6-2.9c-2.6-0.8-5.3-1.3-8-1.4
		c-1.4-0.1-2.9,0-4.3,0.2c-1.5,0.2-3,0.4-4.4,0.8c-1.5,0.4-2.9,0.9-4.3,1.6c-1.4,0.7-2.8,1.4-4.2,2.3c-1.3,0.9-2.5,1.9-3.7,3
		c3.1,1.5,6.2,3.1,8.7,4.3l2.8-1.8l2.9,4.7c3-1.7,6.4-2.6,9.8-2.7l1.3,6.6c-2.6,0.1-5.2,0.7-7.6,1.8l4.6,7.3
		c5.2-1.8,11.1-3.4,14.9,2.7c2.5,4,2.2,9.2-2.1,13.8l3.2,14c13.8-9.4,17.5-28.8,8.3-43.9l-0.8-1
		C102.9,243.6,102.1,242.6,100.9,241.4z"/>
	<path class="st1" d="M57.2,238.3c1.2-1.1,2.4-2.1,3.7-3c1.3-0.9,2.7-1.6,4.2-2.3c1.4-0.6,2.9-1.2,4.4-1.6c1.4-0.4,2.9-0.7,4.4-0.8
		c1.4-0.2,2.9-0.2,4.3-0.2c2.7,0.1,5.4,0.6,8,1.4c2.3,0.7,4.5,1.7,6.6,2.9c3.1,1.8,5.8,4,8.2,6.7c1.7,1.8,2.5,2.9,2.7,2.9l0,0
		c0.1-0.1-0.5-1.4-2-3.5c-2.2-3-5-5.5-8.1-7.6c-2.1-1.4-4.4-2.5-6.8-3.4c-2.7-1-5.6-1.5-8.5-1.7c-1.5-0.1-3.1-0.1-4.7,0.1
		c-1.6,0.1-3.2,0.4-4.8,0.8c-1.6,0.4-3.2,1-4.7,1.7c-1.6,0.7-3.1,1.6-4.5,2.5c-1.7,1.2-3.3,2.5-4.7,3.9l0,0L57.2,238.3z"/>
	<path class="st2" d="M94.7,261.1c-3.8-6.1-9.7-4.5-14.9-2.7l-4.6-7.3c2.4-1.1,5-1.7,7.6-1.8l-1.3-6.6c-3.5,0.1-6.8,1-9.8,2.7
		l0.8,10.3l2.6,4.2c-0.7,0.2-1.5,0.3-2.3,0.3l0.4,5.6l4.8,0.7l1-0.3l0.3,0.5l6.3,1l-1.9-3.1c2.1-0.5,3.8-0.4,4.8,1.1
		c0.5,0.7,0.6,1.6,0.4,2.5l2.3,0.4l1.4,6.2C97,270.3,97.3,265.2,94.7,261.1z"/>
	<path class="st2" d="M65.9,242.6l5.8,2.9l-2.9-4.7L65.9,242.6z"/>
	<path class="st0" d="M92.7,291.7c-0.4,0.3-0.8,0.6-1.3,0.9c-1.4,1-2.9,1.8-4.5,2.6c-1.5,0.7-3.1,1.3-4.7,1.8
		c-1.5,0.5-3.1,0.8-4.7,1c-2.9,0.4-5.9,0.4-8.8-0.1c-2.5-0.4-5-1-7.4-2c-3.5-1.4-6.6-3.4-9.3-6c-1.9-1.8-2.7-3-2.6-3.1l0,0
		c-0.2-0.2-0.5-0.5-0.7-0.8c-11.7-13.4-10.8-33.7,2-45.6l-1-0.4l-8.8-4c-13.9,15.8-14,40.2,0.4,56.7c13.4,15.5,36,19.1,53.5,8.5
		c-0.1-0.3-0.1-0.6-0.2-0.9C94,297.7,93.3,294.7,92.7,291.7z"/>
	<path class="st2" d="M48.8,286.1l1,0.8c0.5,0.4,1.4,1.1,2.8,2.2c2.8,2.2,6,3.9,9.3,5.1c2.3,0.8,4.7,1.4,7.1,1.6
		c2.7,0.3,5.5,0.2,8.2-0.2c1.5-0.2,2.9-0.6,4.3-1c1.5-0.4,2.9-1,4.3-1.7c1.4-0.7,2.8-1.5,4.2-2.4c0.3-0.2,0.7-0.5,1-0.8
		c0.3-0.8,0.5-1.3,0.7-2.1c-1.8-8.3-3.6-16.1-3.6-16.1l-0.4-0.1c-0.7,1.6-1.6,3.1-2.8,4.4l3.8,4.2l-3.7,3.4l-3.7-4.1
		c-2.8,2.3-6,3.8-9.5,4.5l-2.3-6.3c2.6-0.6,5.2-1.7,7.4-3.2l-4.5-5l-2.4-0.3h-0.3v-0.3c-4.6,2.5-9.7,4.2-14-0.6
		c-3.5-3.9-3.8-9.9,1.3-15.9l-3.8-4.2l3.7-3.4l3.7,4.1c1.1-0.9,2.2-1.6,3.3-2.4l-13.2-6.1C37.8,252.4,36.9,272.7,48.8,286.1z"/>
	<path class="st2" d="M80.7,270.6l-0.6-0.1l0.4,0.4L80.7,270.6z"/>
	<path class="st2" d="M61.2,262.4c1.2,1.3,2.9,1,5,0.2l-4.7-5.2C60,259.4,60.1,261.1,61.2,262.4z"/>
	<path class="st2" d="M69,258.2l-0.4-6.6c-1.3,0.6-2.5,1.3-3.6,2.2L69,258.2z"/>
	<path class="st1" d="M85.8,293c-1.4,0.7-2.8,1.2-4.3,1.7c-1.4,0.4-2.9,0.8-4.3,1c-2.7,0.4-5.5,0.5-8.2,0.2
		c-2.4-0.3-4.8-0.8-7.1-1.6c-3.4-1.2-6.5-2.9-9.3-5.1c-2-1.5-3-2.5-3.2-2.4l0,0c-0.1,0.1,0.7,1.3,2.6,3.1c2.7,2.6,5.9,4.6,9.4,6
		c2.4,1,4.9,1.6,7.4,2c2.9,0.4,5.9,0.4,8.8,0.1c1.6-0.2,3.1-0.5,4.7-1c1.6-0.5,3.2-1,4.7-1.8c1.6-0.7,3.1-1.6,4.5-2.6
		c0.4-0.3,0.9-0.6,1.3-0.9l-0.4-1.9l-0.2-0.8c-0.7,0.6-1.4,1.1-2.1,1.6C88.7,291.5,87.3,292.3,85.8,293z"/>
	<path class="st2" d="M69.6,277.7l2.4,6.3c3.5-0.7,6.7-2.3,9.5-4.6l3.7,4.1l3.7-3.4L85,276c1.1-1.3,2.1-2.8,2.8-4.4l-4.8-0.6
		l-2.4-0.3l-0.2,0.3l-0.4-0.4l-4.7-0.6l-3-0.4l4.5,5C74.7,276.1,72.2,277.2,69.6,277.7z"/>
	<path class="st2" d="M56.8,244.7l-3.7,3.4l3.8,4.2c-5.1,6-4.8,12-1.3,15.9c4.3,4.8,9.4,3,14,0.6l-0.5-7.6l-0.2-3l-4-4.5
		c1.1-0.8,2.3-1.6,3.6-2.2l-0.2-3.1l-1.5-0.7l-2.1-0.9l-1-0.4c-1.2,0.7-2.3,1.5-3.3,2.4L56.8,244.7z M61.2,262.4
		c-1.1-1.2-1.2-2.9,0.3-5l4.7,5.2C64.1,263.4,62.4,263.7,61.2,262.4z"/>
	<path class="st0" d="M468.5,95.6c12-22.1,4.5-49-16.7-60.1c-3.9-2-8.1-3.4-12.4-4.1c0.3,2.8,0.5,6.3,0.8,9.8c0.3,0.1,0.6,0.2,1,0.3
		c1.8,0.5,3.5,1.2,5.1,1.9c1.6,0.8,3.2,1.7,4.7,2.8c1.5,1,2.8,2.2,4.1,3.4c1.2,1.2,2.3,2.5,3.3,3.9c1,1.3,1.8,2.8,2.6,4.2
		c1.4,2.8,2.4,5.7,3,8.7c0.5,2.7,0.7,5.4,0.6,8.1c-0.2,4-1.1,7.9-2.6,11.5c-1.1,2.6-2,3.8-2.2,3.8s0,0,0,0c-0.2,0.3-0.3,0.7-0.5,1
		c-8.9,16.5-28.7,23.4-44.7,15.9l-8.4,7.8c0.7,0.4,1.4,0.8,2.1,1.2C429.6,126.8,456.5,117.8,468.5,95.6z"/>
	<path class="st2" d="M425.4,78.4l0.5,1.4l0.3-0.6L425.4,78.4z"/>
	<path class="st2" d="M432.5,67.4l-4,2.8c0.4,0.7,0.9,1.4,1.5,1.9L432.5,67.4z"/>
	<path class="st2" d="M431.8,87.6c0.9-1.7,0-3.3-1.6-5l-1.8,3.4l1.3,3.2C430.7,89.1,431.4,88.5,431.8,87.6z"/>
	<path class="st2" d="M461.1,85.8c1.1-3.6,1.7-7.4,1.7-11.1c0-2.6-0.3-5.1-0.9-7.6c-0.6-2.8-1.6-5.5-3-8.1c-1.5-2.8-3.4-5.3-5.6-7.5
		c-1.2-1.2-2.4-2.2-3.8-3.2c-2.8-2-5.9-3.4-9.2-4.4c0.3,3.7,0.5,7.3,0.7,10.3l3.2,1.6l-2.7,5.2c3.2,1.8,5.9,4.5,7.8,7.6l-5.4,4.8
		c-1.5-2.4-3.4-4.4-5.7-6l-4.2,8.2c4.4,3.8,9.1,8.4,5.6,15.1c-2.3,4.5-7.2,7-13.8,5.5l-11.1,10.4c16,7.6,35.9,0.6,44.8-16
		c0.1-0.3,0.3-0.9,0.5-1.3C460,88.8,460.5,87.6,461.1,85.8z"/>
	<path class="st1" d="M440.3,44c3.3,0.9,6.3,2.4,9.1,4.4c1.3,1,2.6,2,3.8,3.2c2.2,2.2,4.1,4.7,5.6,7.5c1.4,2.5,2.4,5.2,3,8.1
		c0.6,2.5,0.9,5,0.9,7.6c0,3.8-0.6,7.5-1.7,11.1c-0.8,2.5-1.4,3.9-1.2,4.1l0,0c0,0,1-1.2,2.2-3.8c1.5-3.6,2.4-7.5,2.6-11.5
		c0.1-2.7-0.1-5.4-0.6-8.1c-0.6-3-1.6-6-3-8.7c-0.7-1.5-1.6-2.9-2.6-4.2c-1-1.4-2.1-2.7-3.3-3.9c-1.2-1.2-2.6-2.4-4-3.4
		c-1.5-1.1-3.1-2-4.7-2.8c-2-0.9-4-1.7-6.1-2.2l0,0L440.3,44z"/>
	<path class="st2" d="M439.5,90.8c3.5-6.8-1.1-11.3-5.5-15.1l4.3-8.2c2.3,1.6,4.2,3.6,5.7,6l5.4-4.8c-1.9-3.1-4.6-5.7-7.8-7.6
		l-9.1,6.3l-2.5,4.7c-0.6-0.6-1.1-1.2-1.5-1.9l-4.9,3.4l1.9,4.8l0.9,0.8l-0.3,0.6l2.5,6.3l1.8-3.4c1.6,1.7,2.5,3.3,1.6,5
		c-0.4,0.8-1.2,1.5-2.1,1.7l0.9,2.3l-4.9,4.6C432.3,97.8,437.2,95.2,439.5,90.8z"/>
	<path class="st2" d="M441.1,54.3c0.3,4,0.5,6.8,0.5,6.8l2.7-5.2L441.1,54.3z"/>
	<path class="st0" d="M410.3,105.3c-0.5-0.2-1-0.4-1.5-0.7c-3.3-1.5-6.3-3.6-8.9-6.1c-1.2-1.2-2.4-2.4-3.4-3.8
		c-3.6-4.7-6-10.2-6.8-16c-0.6-3.9-0.4-7.9,0.5-11.8c0.6-2.7,1.3-4.1,1.5-4.1s0,0,0,0c0.1-0.4,0.2-0.7,0.3-1.1
		c6-18,25.1-28,42.9-22.7l-0.1-1.1l-1-10.3c-22-4.2-44.6,8.7-52,30.9c-7.1,20.6,1.8,43.4,21,53.7l0.7-0.7L410.3,105.3z"/>
	<path class="st2" d="M391.9,62l-0.2,1.3c0,0.6-0.3,1.9-0.5,3.8c-0.5,3.8-0.3,7.6,0.4,11.3c0.5,2.5,1.3,5,2.3,7.4
		c1.2,2.7,2.7,5.2,4.6,7.5c2,2.5,4.4,4.7,7.1,6.5c1.4,1,2.9,1.8,4.4,2.5l1.3,0.6l2.3-0.4l12.9-11.9l-0.2-0.4
		c-1.8,0.2-3.7,0.1-5.5-0.2l-1.8,5.7l-5.1-1.6l1.8-5.6c-3.6-1.3-6.8-3.5-9.3-6.3l4.5-5.6c1.9,2.1,4.3,3.8,6.9,5l2.2-6.8l-1-2.4
		l-0.1-0.3l0.2-0.2c-4.7-2.9-9.1-6.6-7-13.2c1.7-5.4,7-8.8,15.3-7.4l1.8-5.8l5.1,1.5l-1.8,5.6c1.4,0.5,2.7,1.1,4,1.8l-1.6-15.4
		C417,33.7,397.8,43.9,391.9,62z"/>
	<path class="st2" d="M423.2,83l-0.2-0.6l-0.2,0.6L423.2,83z"/>
	<path class="st2" d="M420.4,60.6c-0.6,1.8,0.6,3.2,2.5,4.7l2.3-7.1C422.4,57.9,420.9,58.9,420.4,60.6z"/>
	<path class="st2" d="M428.4,65.6l5.9-4c-1.2-0.8-2.6-1.6-3.9-2.1L428.4,65.6z"/>
	<path class="st1" d="M405.5,99.7c-2.7-1.8-5.1-4-7.1-6.5c-1.8-2.3-3.4-4.8-4.6-7.5c-1-2.4-1.8-4.8-2.3-7.4
		c-0.7-3.7-0.8-7.5-0.4-11.3c0.3-2.6,0.6-4.1,0.5-4.2l0,0c0,0-0.8,1.4-1.5,4.1c-0.9,3.9-1,7.9-0.5,11.8c0.8,5.8,3.2,11.3,6.8,16
		c1,1.3,2.2,2.6,3.4,3.8c2.6,2.5,5.6,4.6,8.9,6.1c0.5,0.2,1,0.5,1.5,0.7l1.5-1.4l0.6-0.6c-0.9-0.3-1.7-0.7-2.6-1.1
		C408.4,101.5,406.9,100.7,405.5,99.7z"/>
	<path class="st2" d="M410.8,76.5l-4.5,5.6c2.6,2.8,5.7,5,9.3,6.3l-1.8,5.6l5.1,1.5l1.8-5.7c1.8,0.4,3.7,0.4,5.5,0.2l-2-4.7l-1-2.3
		h-0.4l0.2-0.6l-1.9-4.6l-1.2-3l-2.2,6.8C415,80.4,412.7,78.7,410.8,76.5z"/>
	<path class="st2" d="M434.2,47.1l-5.1-1.5l-1.8,5.8c-8.3-1.4-13.6,2-15.3,7.4c-2.1,6.6,2.3,10.3,7,13.2l6.8-4.6l2.6-1.8l2-6.1
		c1.4,0.6,2.7,1.3,3.9,2.1l2.7-1.8l-0.2-1.7l-0.2-2.4l-0.1-1.2c-1.3-0.7-2.6-1.3-4-1.8L434.2,47.1z M420.4,60.6
		c0.5-1.7,2.1-2.7,4.8-2.5l-2.3,7.1C421,63.8,419.8,62.4,420.4,60.6z"/>
</g>
<g id="Chart--inject-57">
	<rect x="91.4" y="43.7" class="st3" width="312.8" height="203"/>
	<path class="st1" d="M404.7,247.2H90.9v-204h313.8V247.2z M91.9,246.2h311.8v-202H91.9L91.9,246.2z"/>
	<path class="st1" d="M143.8,246.7c-0.1,0-0.3-45.6-0.3-101.9s0.1-101.9,0.3-101.9s0.3,45.6,0.3,101.9S143.9,246.7,143.8,246.7z"/>
	<path class="st1" d="M196.2,246.7c-0.1,0-0.3-45.4-0.3-101.5s0.1-101.5,0.3-101.5s0.3,45.4,0.3,101.5S196.3,246.7,196.2,246.7z"/>
	<path class="st1" d="M247.8,246.7c-0.1,0-0.3-45.4-0.3-101.5s0.1-101.5,0.3-101.5s0.3,45.4,0.3,101.5S248,246.7,247.8,246.7z"/>
	<path class="st1" d="M299.5,246.7c-0.1,0-0.3-45.4-0.3-101.5s0.1-101.5,0.3-101.5s0.3,45.4,0.3,101.5S299.6,246.7,299.5,246.7z"/>
	<path class="st1" d="M351.1,246.7c-0.1,0-0.3-45.4-0.3-101.5s0.1-101.5,0.3-101.5s0.3,45.4,0.3,101.5S351.3,246.7,351.1,246.7z"/>
	<path class="st1" d="M404.2,76.2c0,0.1-70,0.3-156.4,0.3S91.5,76.3,91.5,76.2s70-0.3,156.4-0.3S404.2,76.1,404.2,76.2z"/>
	<path class="st1" d="M404.2,111c0,0.2-70,0.3-156.4,0.3S91.5,111.2,91.5,111s70-0.3,156.4-0.3S404.2,110.9,404.2,111z"/>
	<path class="st1" d="M404.2,145.8c0,0.1-70,0.3-156.4,0.3S91.5,146,91.5,145.8s70-0.3,156.4-0.3S404.2,145.7,404.2,145.8z"/>
	<path class="st1" d="M404.2,180.6c0,0.1-70,0.3-156.4,0.3s-156.4-0.1-156.4-0.3s70-0.3,156.4-0.3S404.2,180.5,404.2,180.6z"/>
	<path class="st1" d="M404.2,215.4c0,0.1-70,0.3-156.4,0.3s-156.4-0.1-156.4-0.3s70-0.3,156.4-0.3S404.2,215.3,404.2,215.4z"/>
	<path class="st4" d="M368.7,207.1c0.7,0,0.7,11.3-0.1,25.4c0,0.7-0.6,1.3-1.4,1.2c0,0,0,0,0,0c-0.1,0-0.2,0-0.3,0l-0.8-0.2
		c-13.9-3.8-25.1-7.4-24.9-8.1s11.7,1.8,25.6,5.6l0.8,0.2l-1.7,1.1C366.8,218.3,368,207.1,368.7,207.1z"/>
</g>
<g id="Plant--inject-57">
	<rect x="364.9" y="411.9" class="st5" width="70.8" height="9.7"/>
	<path class="st5" d="M435.9,421.8h-71.1v-10h71L435.9,421.8z M365,421.5h70.6V412H365V421.5z"/>
	<polygon class="st5" points="371.5,418.4 381.7,468.7 419.4,468.7 429.2,421.6 	"/>
	<polygon class="st6" points="371.5,463.9 376.9,471.4 422.8,471.4 429.2,463.9 	"/>
	<path class="st5" d="M397.7,419.9c-0.1,0-0.3-23.3-0.4-52s0-52,0.1-52s0.3,23.3,0.4,52S397.8,419.9,397.7,419.9z"/>
	<path class="st5" d="M413.4,361.6c0,0.2-0.1,0.4-0.2,0.5c-0.2,0.4-0.4,0.9-0.6,1.5c-0.1,0.3-0.3,0.7-0.5,1.1s-0.3,0.9-0.5,1.3
		l-0.5,1.5c-0.2,0.5-0.3,1.1-0.5,1.7c-0.8,2.8-1.5,5.7-2,8.7c-0.5,3.6-0.9,7.2-1.1,10.9c-0.3,6.6-0.1,13.2,0.6,19.8
		c0.2,2.5,0.5,4.6,0.6,6c0.1,0.7,0.1,1.2,0.2,1.6c0,0.2,0,0.4,0,0.6c-0.1-0.2-0.1-0.4-0.1-0.6l-0.3-1.6c-0.2-1.4-0.5-3.5-0.8-6
		c-0.7-6.6-1-13.2-0.7-19.9c0.2-3.6,0.6-7.3,1.1-10.9c0.5-2.9,1.2-5.9,2.1-8.7c0.2-0.6,0.4-1.2,0.6-1.7s0.4-1,0.6-1.5
		s0.4-0.9,0.5-1.3s0.4-0.8,0.5-1.1l0.7-1.5C413.2,361.9,413.3,361.7,413.4,361.6z"/>
	<path class="st5" d="M411.6,342.8c-0.1,0.3-0.1,0.5-0.2,0.8c-0.2,0.5-0.4,1.3-0.7,2.2c-0.2,0.5-0.4,1-0.5,1.6s-0.4,1.2-0.6,1.9
		c-0.4,1.4-0.9,2.9-1.3,4.6c-0.2,0.9-0.5,1.8-0.7,2.7s-0.4,1.9-0.7,3c-0.5,2-0.9,4.2-1.3,6.5c-0.8,4.6-1.5,9.7-1.9,15.1
		s-0.6,10.5-0.7,15.2s0,8.9,0.2,12.5c0.1,1.8,0.2,3.4,0.3,4.8s0.2,2.6,0.3,3.6s0.1,1.7,0.2,2.3c0,0.3,0,0.5,0,0.8
		c-0.1-0.3-0.1-0.5-0.1-0.8c-0.1-0.6-0.2-1.3-0.3-2.3s-0.2-2.2-0.4-3.6s-0.2-3-0.3-4.8c-0.2-3.5-0.3-7.8-0.4-12.5s0.2-9.9,0.7-15.3
		s1.2-10.5,2-15.2c0.5-2.3,0.9-4.5,1.4-6.5c0.2-1,0.5-2,0.7-3s0.5-1.8,0.7-2.7c0.5-1.7,1-3.2,1.4-4.6c0.2-0.7,0.4-1.3,0.6-1.9
		s0.4-1.1,0.6-1.5c0.4-0.9,0.6-1.6,0.8-2.1C411.4,343.2,411.5,343,411.6,342.8z"/>
	<path class="st5" d="M393.2,424c0-0.1,0-0.2,0-0.3c0-0.2,0-0.5-0.1-0.8l-0.2-3.1c-0.2-2.7-0.4-6.6-0.7-11.4
		c-0.6-9.6-1.5-22.8-3.1-37.4c-0.8-7.3-1.8-14.2-2.8-20.5c-0.5-3.1-1-6.1-1.5-8.9s-1-5.4-1.5-7.7s-1-4.5-1.4-6.3s-0.8-3.5-1.1-4.8
		s-0.6-2.3-0.7-3c-0.1-0.3-0.1-0.6-0.2-0.8c0-0.1,0-0.2,0-0.3c0,0.1,0.1,0.2,0.1,0.3l0.2,0.8c0.2,0.7,0.5,1.7,0.8,3s0.8,2.9,1.2,4.7
		s1,4,1.5,6.3s1.1,4.9,1.6,7.7s1,5.7,1.6,8.9c1,6.3,2,13.2,2.8,20.5c1.6,14.6,2.4,27.8,3,37.4c0.3,4.8,0.4,8.7,0.5,11.4
		c0,1.3,0.1,2.3,0.1,3.1c0,0.3,0,0.6,0,0.8S393.2,424,393.2,424z"/>
	<path class="st4" d="M397.1,327c-0.3-3.3-3.6-5.8-7-5.8s-6.4,2-8.4,4.6c-1.9,2.7-3.3,5.8-4.1,9c-2.2,7.8-3.5,16-2.5,24
		s4.2,15.9,10,21.6c0.9,0.9,2.1,1.8,3.4,1.6c0.7-0.2,1.3-0.6,1.8-1.1c11.4-10.5,17.8-25.3,17.4-40.8c-0.1-3.1-0.5-6.2-2.2-8.8
		S400,326,397.1,327"/>
	<path class="st4" d="M372.3,300.6c-1.6,2.8-3.1,5.6-4.7,8.5c-0.1,0.2-0.2,0.4-0.5,0.4s-0.4-0.2-0.6-0.4
		c-4.1-6.3-8.2-12.6-12.3-18.9l2.8-1.6L372.3,300.6z"/>
	<g class="st7">
		<path d="M372.3,300.6c-1.6,2.8-3.1,5.6-4.7,8.5c-0.1,0.2-0.2,0.4-0.5,0.4s-0.4-0.2-0.6-0.4c-4.1-6.3-8.2-12.6-12.3-18.9l2.8-1.6
			L372.3,300.6z"/>
	</g>
	<path class="st4" d="M397.4,315.8L355.3,291c-0.4-0.2-0.8-0.6-1-1c-0.2-0.6,0.3-1.2,0.8-1.7c5.9-6.1,14.1-9.3,22.5-8.8
		c8.4,0.6,16.1,5.3,20.3,12.6C401.9,299.4,402,309,397.4,315.8"/>
	<path class="st5" d="M361.3,283.1c0.2,0,0.4-0.1,0.5-0.1c0.4,0,0.9-0.1,1.6-0.1c2,0,3.9,0.1,5.9,0.5c13.1,2.2,23.7,11.8,27.2,24.6
		c0.5,1.9,0.9,3.8,1,5.8c0.1,0.7,0,0.9,0.1,1.2c0,0.3-0.1,0.6-0.3,0.9c0.1-0.7,0.1-1.4,0.1-2.1c-1.7-15.1-13.2-27.4-28.2-30.1
		c-1.9-0.4-3.8-0.6-5.8-0.6C362.1,283.1,361.3,283.1,361.3,283.1z"/>
	<path class="st5" d="M391.7,298.7c-0.7,0.4-1.4,0.8-2.1,1c-1.4,0.5-3.2,1.2-5.3,1.9s-4,1.2-5.4,1.5c-0.7,0.2-1.5,0.4-2.3,0.4
		c0.7-0.3,1.4-0.6,2.2-0.8l5.4-1.7l5.4-1.7C390.2,299.1,390.9,298.8,391.7,298.7z"/>
	<path class="st5" d="M385,280.9c0.4,1.5,0.5,3.1,0.5,4.7c0.1,1.6,0,3.2-0.3,4.7c-0.2-1.6-0.3-3.1-0.2-4.7
		C384.9,284,384.9,282.4,385,280.9z"/>
	<path class="st5" d="M354.9,290.5c1-0.4,2-0.8,3-1.1c1.9-0.6,4.6-1.3,7.5-2.1s5.7-1.3,7.6-1.6c1.1-0.2,2.1-0.4,3.2-0.4
		c-1,0.3-2.1,0.6-3.1,0.8c-2,0.4-4.6,1-7.6,1.8s-5.6,1.4-7.6,1.9C357,290.1,356,290.4,354.9,290.5z"/>
	<path class="st4" d="M379.6,319.9c-3.6-2.7-7.4-3.3-12-3.1c-4.5,0.3-9,1.4-13.1,3.4c-7.1,3.1-13.8,7.7-18,14.2s-5.7,15.1-2.5,22.1
		c0.2,0.7,0.8,1.4,1.4,1.8c0.8,0.2,1.6,0.2,2.4-0.2c8.1-2.6,16.2-5.3,23.6-9.4s14.2-9.9,18.2-17.4c1-1.8,1.7-3.7,1.9-5.8
		C381.7,323.4,381,321.4,379.6,319.9"/>
	<path class="st5" d="M379.7,319c-0.2,0.1-0.4,0.2-0.6,0.2l-1.7,0.6l-1.2,0.4c-0.5,0.2-0.9,0.4-1.4,0.5c-1,0.4-2.2,0.8-3.5,1.4
		l-2,0.9c-0.7,0.3-1.4,0.7-2.1,1.1c-1.5,0.7-2.9,1.6-4.5,2.6c-6.8,4.2-12.8,9.5-17.8,15.7c-1.1,1.5-2.2,2.8-3.1,4.2
		c-0.5,0.7-0.9,1.3-1.3,1.9l-1.1,1.9c-0.8,1.2-1.3,2.3-1.9,3.2c-0.3,0.5-0.5,0.9-0.7,1.4l-0.6,1.2c-0.3,0.7-0.6,1.2-0.8,1.6
		c-0.1,0.2-0.2,0.4-0.3,0.5c0-0.2,0.1-0.4,0.2-0.6l0.7-1.6l0.5-1.2c0.2-0.4,0.5-0.9,0.7-1.4c0.5-1,1.1-2.1,1.8-3.3l1.1-1.9
		c0.4-0.6,0.9-1.3,1.3-2c0.9-1.4,2-2.8,3.1-4.2c5-6.3,11.1-11.6,17.9-15.8c1.6-0.9,3.1-1.8,4.6-2.5c0.7-0.4,1.4-0.7,2.1-1l2-0.9
		c1.3-0.6,2.5-1,3.5-1.4c0.5-0.2,1-0.4,1.5-0.5l1.2-0.4l1.7-0.5C379.3,319.1,379.5,319,379.7,319z"/>
	<path class="st5" d="M351.4,334.3c-2.9,1.1-5.8,2-8.8,2.8c-2.9,0.9-5.9,1.7-9,2.4c2.9-1.1,5.8-2.1,8.8-2.8
		C345.4,335.7,348.4,335,351.4,334.3z"/>
	<path class="st5" d="M351,353.8c-0.2-0.9-0.2-1.8-0.2-2.7c0-1.7,0-4,0-6.6s0.2-4.9,0.4-6.6c0-0.9,0.1-1.8,0.4-2.7
		c0.1,0.9,0.1,1.8,0,2.7c-0.1,1.9-0.1,4.1-0.2,6.6s-0.1,4.8-0.2,6.6C351.2,351.9,351.1,352.9,351,353.8z"/>
	<path class="st5" d="M367.7,345.3c-0.1,0-0.6-4.8-1-10.6s-0.6-10.7-0.5-10.7s0.6,4.8,1,10.6S367.8,345.3,367.7,345.3z"/>
	<path class="st5" d="M347,323.5c0.9-0.1,1.9-0.1,2.8-0.1c1.7,0,4.1,0.1,6.8,0.1s5.1,0.2,6.8,0.3c0.9,0,1.9,0.1,2.8,0.3
		c-0.9,0.1-1.9,0.1-2.8,0.1c-1.7,0-4.1-0.1-6.8-0.1s-5.1-0.2-6.8-0.3C348.9,323.8,347.9,323.7,347,323.5z"/>
	<path class="st5" d="M386.9,381.5c0-0.2-0.1-0.4-0.1-0.6c0-0.4,0-1-0.1-1.6c-0.1-1.4-0.1-3.5,0-6s0.2-5.5,0.5-8.8s0.8-7,1.5-10.7
		s1.5-7.4,2.4-10.6s1.8-6.1,2.6-8.5s1.6-4.3,2.1-5.6l0.6-1.5c0.1-0.2,0.1-0.3,0.2-0.5c0,0.2-0.1,0.4-0.2,0.5
		c-0.1,0.4-0.3,0.9-0.5,1.5c-0.5,1.3-1.2,3.2-2,5.6s-1.7,5.3-2.5,8.5s-1.6,6.8-2.3,10.5s-1.2,7.4-1.5,10.7s-0.5,6.3-0.6,8.8
		s-0.1,4.5-0.1,6c0,0.7,0,1.2,0,1.6C387,381.1,387,381.3,386.9,381.5z"/>
	<path class="st5" d="M389.1,353.9c-0.5,0.7-1.1,1.3-1.7,1.8c-1.1,1.1-2.6,2.5-4.4,4.1s-3.4,2.9-4.6,3.8c-0.6,0.5-1.3,1-2,1.4
		c0.6-0.6,1.2-1.2,1.8-1.7c1.3-1.1,2.8-2.5,4.5-3.9s3.2-2.8,4.5-4C387.8,354.9,388.5,354.4,389.1,353.9z"/>
	<path class="st5" d="M402.5,364.7c-0.7-0.8-1.3-1.6-1.8-2.5l-4.2-6.1c-1.6-2.3-3.1-4.3-4.2-6c-0.6-0.8-1.2-1.6-1.7-2.5
		c0.7,0.7,1.4,1.5,2,2.3c1.2,1.5,2.7,3.6,4.4,5.9s3.1,4.5,4,6.2C401.5,362.8,402,363.7,402.5,364.7z"/>
	<path class="st5" d="M395.5,330.9c0.1,0.1-4.4,3.1-9.9,6.6s-10.1,6.4-10.2,6.2s4.4-3.1,9.9-6.6S395.4,330.8,395.5,330.9z"/>
	<path class="st5" d="M408,344.4c-2.3-1.9-4.6-4-6.7-6.2c-2.2-2.1-4.4-4.3-6.4-6.5c2.3,1.9,4.6,4,6.7,6.2
		C403.9,339.9,406,342.1,408,344.4z"/>
	<path class="st4" d="M411.1,344.1l3.8-0.3c2.7-0.2,5.3-1,7.7-2.4c1.2-0.7,2.3-1.3,3.6-1.8c4.7-1.9,9.9-1.5,15-1.8
		c8.3-0.4,16.4-2.5,23.9-6.1c0.4-0.2,0.8-0.5,1-0.9c0.8-1.4-0.7-2.7-1.9-3.5c-6.4-4-12.9-7.9-20.2-9.9s-15.5-1.6-21.7,2.6
		C414.9,325.1,412.3,335.4,411.1,344.1"/>
	<path class="st5" d="M466.1,330.3c-0.2-0.1-0.4-0.2-0.6-0.3l-1.8-0.9c-1.6-0.8-3.8-2-6.6-3.4c-3.3-1.6-6.8-3-10.3-4
		c-4.3-1.2-8.9-1.6-13.4-1.1c-4.5,0.5-8.7,2.3-12.2,5.2c-2.7,2.5-4.9,5.5-6.3,8.9c-1.3,2.9-2.1,5.3-2.8,6.9l-0.7,1.9
		c-0.1,0.2-0.2,0.5-0.3,0.7c0-0.2,0.1-0.5,0.2-0.7c0.1-0.5,0.4-1.1,0.6-2c0.7-2.4,1.6-4.7,2.6-7c1.5-3.4,3.6-6.5,6.4-9.1
		c3.5-3,7.8-4.9,12.4-5.4c4.5-0.5,9.1-0.2,13.5,1.1c3.6,1,7,2.4,10.3,4.1c2.8,1.4,5.1,2.7,6.6,3.5l1.8,1
		C465.7,330,465.9,330.2,466.1,330.3z"/>
	<path class="st5" d="M457,335.2c-0.1,0.1-5-3.1-11.1-7.2s-10.9-7.5-10.8-7.6s5,3.1,11.1,7.2S457.1,335.1,457,335.2z"/>
	<path class="st5" d="M451.7,320.2c-2.4,0.7-4.9,0.9-7.3,0.6c1.2-0.2,2.4-0.3,3.6-0.4C449.3,320.3,450.5,320.2,451.7,320.2z"/>
	<path class="st5" d="M430,317.4c-0.4,0.9-1,1.8-1.6,2.5c-0.6,0.9-1.3,1.7-2.1,2.4c0.4-0.9,1-1.8,1.6-2.5
		C428.5,318.8,429.2,318,430,317.4z"/>
	<path class="st5" d="M434.4,338.2c-0.8-0.3-1.6-0.8-2.4-1.3c-1.4-0.9-3.4-2.1-5.4-3.6s-3.9-2.9-5.2-4c-0.7-0.5-1.4-1.1-2.1-1.8
		c0.8,0.4,1.6,0.9,2.3,1.5l5.3,3.9c2.1,1.5,4,2.8,5.4,3.8C433,337,433.7,337.6,434.4,338.2z"/>
	<path class="st4" d="M416.7,360.2c-3.6-1-8,2.6-8.7,6.2s0.6,7.4,2.2,10.8c3.5,7.6,8.6,14.3,15,19.6c6.5,5.2,14.6,8.5,22.9,8.4
		c-1.5-7.1,0.4-14.5-0.5-21.8c-1.5-13.1-12-23.4-25.1-24.8C420.3,358.5,417.6,358.1,416.7,360.2"/>
	<path class="st5" d="M448.2,405.4c-0.2-0.1-0.4-0.1-0.5-0.2c-0.5-0.3-0.9-0.6-1.4-0.9c-1.5-1.3-2.7-3-3.6-4.8
		c-0.6-1.1-1.2-2.3-1.9-3.7s-1.3-2.8-2-4.3c-0.7-1.6-1.5-3.1-2.4-4.6c-1-1.6-2.1-3.1-3.3-4.5c-2.5-2.9-5.1-5.4-7.5-7.9
		c-2.1-2.1-4-4.4-5.7-6.8c-1.1-1.6-2.1-3.4-2.8-5.3c-0.2-0.7-0.4-1.2-0.5-1.5c-0.1-0.2-0.1-0.4-0.1-0.6c0,0,0.2,0.7,0.8,2
		c0.8,1.8,1.7,3.6,2.9,5.2c1.7,2.4,3.6,4.6,5.7,6.7c2.3,2.4,5,4.9,7.5,7.8c1.2,1.4,2.3,2.9,3.3,4.5c0.9,1.5,1.7,3.1,2.4,4.7
		c0.7,1.5,1.3,3,1.9,4.3c0.6,1.3,1.2,2.6,1.8,3.7c0.8,1.8,1.9,3.4,3.4,4.8C447.5,405,448.2,405.3,448.2,405.4z"/>
	<path class="st5" d="M429.4,399.4c0-0.8,0.1-1.6,0.3-2.4c0.3-1.5,0.8-3.5,1.4-5.8s1.3-4.2,1.8-5.6c0.2-0.8,0.6-1.5,1-2.2
		c-0.1,0.8-0.4,1.6-0.6,2.4c-0.5,1.4-1.1,3.4-1.7,5.7s-1.1,4.2-1.5,5.7C430,397.9,429.7,398.7,429.4,399.4z"/>
	<path class="st5" d="M447.5,382c-0.9-0.1-1.7-0.3-2.5-0.6c-1.6-0.4-3.7-1-6.1-1.5s-4.6-1-6.2-1.3c-0.9-0.1-1.7-0.3-2.6-0.6
		c0.9,0,1.8,0,2.6,0.2c1.6,0.2,3.8,0.6,6.2,1.1s4.6,1.2,6.1,1.7C445.9,381.3,446.7,381.6,447.5,382z"/>
	<path class="st5" d="M416,387c0-1,0.2-1.9,0.4-2.8c0.3-1.7,0.8-4.1,1.5-6.7s1.4-4.9,2-6.6c0.2-0.9,0.6-1.8,1-2.7
		c-0.2,0.9-0.4,1.9-0.7,2.8c-0.5,1.7-1.1,4-1.8,6.6s-1.2,5-1.6,6.7C416.6,385.2,416.3,386.1,416,387z"/>
	<path class="st5" d="M439.2,366.8c0,0.1-4.5-0.2-10.1-0.8s-10.1-1.2-10.1-1.3s4.5,0.2,10.1,0.8S439.2,366.6,439.2,366.8z"/>
	<path class="st6" d="M435.9,421.6c0,0.1-15.9,0.3-35.5,0.3s-35.5-0.1-35.5-0.3s15.9-0.2,35.5-0.2S435.9,421.5,435.9,421.6z"/>
	<path class="st6" d="M424.8,442.1c0,0.1-10.7,0.2-23.9,0.2s-23.9-0.1-23.9-0.2s10.7-0.2,23.9-0.2S424.8,441.9,424.8,442.1z"/>
	<path class="st6" d="M424.4,445c0,0.1-10.5,0.2-23.5,0.2s-23.5-0.1-23.5-0.2s10.5-0.2,23.5-0.2S424.4,444.9,424.4,445z"/>
	<path class="st6" d="M425.2,439.7c0,0.1-11.1,0.2-24.8,0.2s-24.8-0.1-24.8-0.2s11.1-0.2,24.8-0.2S425.2,439.5,425.2,439.7z"/>
</g>
<g id="Floor--inject-57">
	<path class="st5" d="M468.7,471.4c0,0.1-97.2,0.3-217.2,0.3s-217.2-0.1-217.2-0.3s97.2-0.3,217.2-0.3S468.7,471.3,468.7,471.4z"/>
</g>
<g id="Character--inject-57">
	<polygon class="st1" points="221.8,361.4 223.6,471.1 229.7,471.1 229.7,361.4 	"/>
	<polygon class="st1" points="298.5,359.2 298.5,471.1 304.5,471.1 304.5,359.2 	"/>
	<rect x="223.7" y="382.1" class="st1" width="75.6" height="6.7"/>
	<path class="st6" d="M209.7,343.6h106.6c2.1,0,3.8,1.7,3.8,3.8v11.4c0,2.1-1.7,3.8-3.8,3.8H209.7c-2.1,0-3.8-1.7-3.8-3.8v-11.4
		C206,345.2,207.6,343.6,209.7,343.6z"/>
	<path class="st8" d="M166.3,244.9l0.6-30l9.3-20.9c0,0,1.2-2.2,2.2-1.1s-0.2,2.5-0.2,2.5s2.1-0.4,1.8,1.6s-1,4.7-1,4.7
		s0.4,2.4-1.8,6.6s-2.4,6.1-2.4,6.1s2.8,4,5.1,4.9c2,0.9,4.3,0.4,5.8-1.3c1.7-1.4,3.6-2.6,5.6-3.5l2.8,3.4c0,0-4.3,4.7-5.1,6.3
		s-3.2,7.7-5.7,9.8s-3.1,9.3-3.1,9.3S178.9,251,166.3,244.9z"/>
	<path class="st9" d="M169.2,216.5c0.3-1,0.6-2,1-3c0.7-1.8,1.7-4.3,2.8-7.1l1.6-3.9c0.2-0.6,0.6-1.1,1-1.6c0.4-0.4,0.9-0.7,1.5-0.9
		c0.5-0.1,1,0,1.4,0.3c0.3,0.2,0.5,0.5,0.6,0.8c0.2,0.6-0.1,0.9-0.1,0.9c0-0.3,0-0.5-0.1-0.8c-0.3-0.7-1-1-1.7-0.8
		c-0.5,0.1-0.9,0.4-1.2,0.8c-0.4,0.5-0.7,1-0.9,1.5c-0.5,1.2-1,2.5-1.6,3.9c-1.1,2.7-2.1,5.2-2.9,7
		C170.1,214.6,169.7,215.6,169.2,216.5z"/>
	<path class="st9" d="M177.2,195.7c0.1,0.1-0.7,1-1.7,2.6c-1.2,2.2-2.2,4.5-3,6.9c-0.8,2.4-1.8,4.8-3.1,7c-0.4,0.7-0.8,1.3-1.3,1.9
		c-0.4,0.4-0.6,0.6-0.6,0.6s0.7-1,1.6-2.7c1.1-2.3,2.1-4.6,2.9-7c0.8-2.4,1.9-4.8,3.2-7c0.2-0.4,0.5-0.7,0.8-1.1
		c0.2-0.3,0.4-0.5,0.6-0.8C176.9,195.9,177.1,195.7,177.2,195.7z"/>
	<path class="st9" d="M178.1,229.9c-0.3-0.5-0.5-1.1-0.5-1.7c-0.3-2.9,1-5.8,3.4-7.5c0.5-0.4,1-0.6,1.6-0.8c0,0.1-0.6,0.4-1.4,1.1
		c-2.2,1.7-3.4,4.4-3.2,7.2C178,229.2,178.2,229.9,178.1,229.9z"/>
	<path class="st9" d="M177.2,235.3c0-0.3,0-0.5,0-0.8c-0.1-0.7-0.3-1.4-0.6-2.1c-0.6-1.8-1.5-4.1-2.3-6.9c-0.4-1.3-0.7-2.6-0.9-3.9
		c0-0.6,0-1.2,0.2-1.8c0.2-0.5,0.3-1,0.4-1.4c0.2-0.7,0.3-1.4,0.2-2.1c-0.1-0.5-0.2-0.8-0.2-0.8c0.2,0.2,0.3,0.5,0.4,0.7
		c0.2,0.7,0.2,1.5,0,2.2c-0.1,0.5-0.3,0.9-0.4,1.5c-0.2,0.5-0.2,1.1-0.2,1.6c0.2,1.3,0.5,2.6,0.9,3.8c0.9,2.7,1.7,5.1,2.2,6.9
		c0.2,0.7,0.3,1.4,0.4,2.2C177.4,235.1,177.2,235.4,177.2,235.3z"/>
	<path class="st4" d="M159.9,430.2l1.8,27.6c0,0-27.4,9.1-27.6,14.2l53.6,0.4l-1.1-43.1L159.9,430.2z"/>
	<g class="st10">
		<path class="st3" d="M178.2,455c1.1,0.3,1.8,1.3,1.6,2.5c-0.2,1.1-1.3,1.8-2.4,1.6c-1.1-0.3-1.9-1.4-1.7-2.6
			c0.4-1.1,1.6-1.7,2.7-1.4"/>
	</g>
	<g class="st10">
		<path class="st3" d="M187.8,472.4l-0.1-4.3l-51.8,1.4c-1.1,0.6-1.9,1.7-2,2.9H187.8z"/>
	</g>
	<path class="st5" d="M160.9,457.6c0,0.3,1.3,0.3,2.6,1.1s2,1.9,2.3,1.8s-0.2-1.6-1.8-2.5S160.8,457.3,160.9,457.6z"/>
	<path class="st5" d="M155.3,460.1c0,0.3,1.1,0.7,2,1.8s1.2,2.2,1.5,2.2s0.4-1.5-0.8-2.8S155.3,459.8,155.3,460.1z"/>
	<path class="st5" d="M152.3,466.9c0.2,0,0.6-1.3-0.1-2.7s-2-1.9-2.1-1.7s0.7,1,1.2,2.1S152.1,466.9,152.3,466.9z"/>
	<path class="st5" d="M161.1,451.2c0.1,0.2,1.3-0.2,2.8-0.1s2.6,0.5,2.8,0.3s-1-1.1-2.8-1.2S161,451,161.1,451.2z"/>
	<g class="st11">
		<polygon points="160.3,435.7 160.6,440.6 186.9,439.6 186.8,435.1 		"/>
	</g>
	<path class="st5" d="M160.9,445.7c0.9,0.2,1.8,0.2,2.7-0.1c1-0.2,1.9-0.5,2.8-1c0.5-0.3,1-0.5,1.5-0.9c0.3-0.2,0.6-0.4,0.8-0.6
		c0.3-0.4,0.4-1,0.1-1.4c-0.3-0.4-0.7-0.6-1.2-0.6c-0.3,0-0.7,0.1-1,0.2c-0.6,0.2-1.1,0.4-1.6,0.6c-0.9,0.4-1.7,1-2.4,1.7
		c-1.2,1.2-1.6,2.2-1.5,2.2s0.7-0.8,1.9-1.8c1.1-0.9,2.5-1.6,3.9-1.9c0.6-0.2,1-0.2,1.2,0.1s0.1,0.1-0.1,0.3
		c-0.2,0.2-0.4,0.3-0.6,0.5c-0.4,0.3-0.9,0.6-1.4,0.9c-0.8,0.4-1.7,0.8-2.6,1.1C162.6,445.1,161.7,445.4,160.9,445.7z"/>
	<path class="st5" d="M161.2,446c0.5-0.8,0.7-1.7,0.6-2.6c0-1.6-0.4-3.2-1.2-4.5c-0.3-0.7-1-1.2-1.8-1.3c-0.5,0-0.9,0.3-1.1,0.8
		c-0.1,0.3-0.2,0.7-0.2,1c-0.1,0.6-0.1,1.2,0.1,1.8c0.2,1,0.6,1.9,1.2,2.7c1.1,1.4,2.2,1.6,2.2,1.5s-0.9-0.6-1.7-1.9
		c-0.5-0.8-0.8-1.6-0.9-2.5c-0.1-0.5-0.1-1,0-1.5c0.1-0.6,0.3-1,0.5-1s0.7,0.4,1,0.9c0.3,0.5,0.5,0.9,0.7,1.4
		c0.3,0.9,0.5,1.7,0.6,2.7C161.3,445,161.1,446,161.2,446z"/>
	<path class="st5" d="M154.3,438.1c0,0-2.1-94.2-0.2-105s8.9-22.4,15.6-23.4s66.1-5.3,66.1-5.3H280l-11.3,43l-54,0.5l-16.8,0.4
		l-5.4,89.9L154.3,438.1z"/>
	<path class="st6" d="M196.8,334c0.4,0.6,0.6,1.2,0.8,1.9c1,3.2,1.3,6.5,1,9.8c0,0.7-0.1,1.4-0.4,2c-0.2,0,0.3-3.1-0.1-6.9
		S196.6,334,196.8,334z"/>
	<path class="st6" d="M180.6,342c0,0,0.2-0.2,0.7-0.4c0.6-0.3,1.3-0.5,2-0.8c1-0.3,2.1-0.5,3.1-0.5c1.3,0.1,2.6,0.6,3.7,1.3
		c2.3,1.5,4.3,2.9,5.7,3.9c0.8,0.5,1.6,1.1,2.3,1.8c-0.9-0.4-1.7-0.9-2.5-1.5c-1.5-1-3.6-2.3-5.8-3.8c-1-0.7-2.2-1.2-3.4-1.3
		c-1,0-2,0.1-3,0.3C181.6,341.7,180.6,342.1,180.6,342z"/>
	<path class="st6" d="M165.8,436.6c-0.1,0-0.3-21.4-0.3-47.8s0.1-47.8,0.3-47.8s0.3,21.4,0.3,47.8S165.9,436.6,165.8,436.6z"/>
	<path class="st6" d="M188.8,314.1c0,0.1-1.9,0.1-4.7,0.9c-7.6,1.9-13.7,7.4-16.5,14.7c-1.1,2.8-1.3,4.6-1.4,4.6
		c0-0.4,0-0.9,0.1-1.3c0.2-1.2,0.5-2.3,0.9-3.4c2.7-7.5,9-13.2,16.8-14.9c1.1-0.3,2.3-0.4,3.5-0.5C187.9,314,188.3,314,188.8,314.1z
		"/>
	<path class="st6" d="M210.5,311.7c-2.7,0.6-5.4,1-8.1,1.3c-2.7,0.4-5.5,0.7-8.2,0.8c2.7-0.6,5.4-1,8.1-1.3
		C205,312,207.8,311.8,210.5,311.7z"/>
	<path class="st4" d="M261.9,430.7l-2.6,31.5l-9.3,24.3c-0.6,1.7,0.2,3.5,1.9,4.2c0.1,0,0.2,0.1,0.2,0.1l0,0c1,0.3,2.1,0.1,2.9-0.5
		c5.3-4.1,24.7-19.3,24.7-21.6c0.1-2.7,4.9-33.1,4.9-33.1L261.9,430.7z"/>
	<g class="st10">
		<path class="st3" d="M252.1,490.8l27.9-24.2l-0.1,1.3c-0.1,1.1-0.6,2.2-1.5,3c-2.2,2.1-8.6,7.9-23.2,19.4
			C254.3,490.9,253.2,491.1,252.1,490.8L252.1,490.8z"/>
	</g>
	<g class="st10">
		<path class="st3" d="M274.6,455.7c-0.9,0.5-1.2,1.6-0.8,2.5c0.5,0.9,1.6,1.2,2.5,0.8c0.9-0.5,1.3-1.7,0.8-2.6
			c-0.6-0.8-1.8-1.1-2.6-0.6"/>
	</g>
	<path class="st5" d="M260.8,477.8c-0.2,0.1-0.7-1.6-2.5-2.7s-3.5-0.9-3.6-1.1s0.4-0.3,1.2-0.3c1,0,1.9,0.3,2.8,0.8
		c0.8,0.5,1.5,1.3,1.9,2.2C260.8,477.3,260.8,477.8,260.8,477.8z"/>
	<path class="st5" d="M258.1,481.8c-0.2,0.1-1.1-1-2.6-1.6s-3-0.5-3-0.7s1.5-0.7,3.3,0.1S258.2,481.7,258.1,481.8z"/>
	<path class="st5" d="M265.5,472.8c-0.2,0.1-1.5-1.6-3.9-2.8s-4.6-1.4-4.5-1.6s2.4-0.4,4.9,1S265.6,472.8,265.5,472.8z"/>
	<path class="st5" d="M267.1,463.3c-0.1,0.2-1.8-0.7-4-1s-4.1,0-4.1-0.2s1.8-0.9,4.2-0.5S267.2,463.2,267.1,463.3z"/>
	<path class="st5" d="M268.1,454.1c-0.1,0.2-1.8-1.1-4.1-1.2s-4.2,0.8-4.3,0.6s0.3-0.4,1.1-0.8c2.1-0.9,4.4-0.7,6.3,0.5
		C267.8,453.6,268.1,454,268.1,454.1z"/>
	<path class="st5" d="M264.2,451.1c-0.1-0.4,0-0.8,0.1-1.2c0.2-1.1,0.7-2.1,1.3-3c0.4-0.7,1-1.3,1.8-1.6c0.5-0.2,1.1,0,1.4,0.4
		c0.3,0.4,0.4,1,0.4,1.5c-0.4,2.2-2.2,3.8-4.4,3.8c-2.2,0-4.1-1.3-4.9-3.3c-0.2-0.5-0.2-1.1,0.1-1.5c0.3-0.5,0.9-0.7,1.4-0.5
		c0.8,0.3,1.4,0.7,2,1.3c0.8,0.8,1.4,1.7,1.9,2.7c0.2,0.3,0.3,0.7,0.4,1.1c-0.7-1.3-1.6-2.4-2.6-3.5c-0.5-0.5-1.1-0.9-1.7-1.1
		c-0.3-0.1-0.6,0-0.8,0.3c-0.1,0.3-0.1,0.7,0,1c0.7,1.7,2.4,2.8,4.3,2.8c1.8,0,3.4-1.4,3.8-3.2c0-0.3,0-0.7-0.2-1
		c-0.2-0.2-0.5-0.3-0.8-0.3c-0.6,0.3-1.1,0.7-1.5,1.3C265.1,448.4,264.5,449.7,264.2,451.1z"/>
	<polygon class="st4" points="247.6,206.1 232,200.8 205.4,210.6 203.4,214.3 230.2,211.4 	"/>
	<path class="st5" d="M294.5,320.4c0,0-27.1,2.4-31.5,7s-6.2,15.4-7.4,22.5s-2.9,91-2.9,91l39,1.1l5.7-90.9c0,0,18.1-1.1,21.1-13.3
		s-4.5-33.4-4.5-33.4l-20.5,4.6L294.5,320.4z"/>
	<path class="st6" d="M297.7,335.7c0.1,2.9,0.1,5.8-0.1,8.7c0,2.9-0.3,5.8-0.6,8.7c-0.1-2.9-0.1-5.8,0.1-8.7
		C297.1,341.5,297.3,338.6,297.7,335.7z"/>
	<path class="st6" d="M304.7,335.9c0.1,0.8,0.1,1.7,0,2.5c-0.4,4.1-2.2,7.9-4.9,11c-0.5,0.7-1.2,1.2-1.9,1.7
		C301.8,347,304.2,341.6,304.7,335.9L304.7,335.9z"/>
	<path class="st6" d="M253.9,390.2c0-0.2,0-0.5,0-0.7v-1.9c0-1.7,0-4.1,0.1-7.1c0.1-6,0-14.2,0.6-23.3s2.2-17.3,4.6-22.8
		c0.5-1.2,1.1-2.5,1.8-3.6c0.5-0.9,1-1.8,1.6-2.6c0.5-0.6,0.8-1.2,1.1-1.6c0.1-0.2,0.3-0.4,0.4-0.5c-0.1,0.2-0.2,0.4-0.3,0.6l-1,1.6
		c-0.6,0.8-1.1,1.7-1.5,2.6c-0.6,1.2-1.2,2.4-1.7,3.6c-2.3,5.5-3.8,13.6-4.4,22.7s-0.6,17.3-0.8,23.3c-0.1,3-0.1,5.4-0.2,7.1
		c0,0.8-0.1,1.4-0.1,1.9C253.9,389.7,253.9,389.9,253.9,390.2z"/>
	<path class="st6" d="M269.9,434.9c0-0.1,0-0.2,0-0.3c0-0.2,0-0.5,0-0.8c0-0.8,0-1.8-0.1-3.1c-0.1-2.7-0.1-6.6-0.1-11.4
		c0-9.6,0.4-22.9,1.5-37.6s2.6-27.9,4-37.4c0.7-4.8,1.3-8.6,1.7-11.3c0.2-1.3,0.4-2.3,0.5-3l0.1-0.8c0-0.1,0-0.2,0.1-0.3
		c0,0.1,0,0.2,0,0.3c0,0.2-0.1,0.5-0.1,0.8c-0.1,0.7-0.2,1.8-0.4,3.1c-0.4,2.7-0.9,6.5-1.6,11.3c-1.3,9.5-2.8,22.7-3.8,37.4
		s-1.5,27.9-1.6,37.5c-0.1,4.8-0.1,8.7-0.1,11.4c0,1.3,0,2.4,0,3.1v0.8C269.9,434.8,269.9,434.9,269.9,434.9z"/>
	<path class="st8" d="M231.1,312.2c0,0-13.2,6.8-16.2,9.4c-4.5,4.1-8.8,8.4-12.8,13l-7.7,15.2c0,0,0.2,8.3,0.7,10.4s3.6,2.5,3.6,0.1
		s0.2-7.9,0.2-7.9l3.6-5.3l-1.9,5.1c0,0-0.5,11,1.5,11.7s2.9-0.2,2.9-2.5s0.2-8.8,0.2-8.8l3.6-6l-0.7,6.9c0,0-0.9,8.5,0.2,9.8
		s3-0.9,3-0.9s2.6,4.9,3.6,0.2s1.7-9.6,1.7-9.6l5.8-14.6l5.6-8.9l9.4-3.4C237.3,326,239.2,314.1,231.1,312.2z"/>
	<path class="st9" d="M214.5,345.7c-0.2,0.8-0.5,1.6-0.8,2.4c-1.3,3.8-2.1,7.8-2.4,11.9c0,0.8-0.1,1.7-0.2,2.5
		c-0.2-0.8-0.2-1.7-0.1-2.5c0.1-4.1,0.9-8.2,2.4-12C213.7,347.2,214,346.4,214.5,345.7z"/>
	<path class="st4" d="M240.2,206.3c0,0,21-1.6,29.2,1.3s21,7.6,23.1,18.4c0,0,11,33.6,12.1,39.9s5.2,26.8,5.2,26.8s6.6,5.5,6.6,11
		l-39.9,8.9c0,0-30.5,1-40.7-8.4v-6.6c-1.5-1.7-2.7-3.8-3.4-6l-1.6-6.3c0,0-20.2-16.5-22.9-21.8s-18.9-31-18.9-31s0.8-11,11-16.3
		S240.2,206.3,240.2,206.3z"/>
	<path class="st4" d="M207.9,263.6c0,0-0.1,0.5-0.4,1.4c-1.9,7.3-10.5,39.6-15.5,41.8c-5.6,2.5-17.4,5.9-25.5-4.7
		s-4.2-58.6-4.2-58.6l19.4-0.4l0.6,18.2l6.7-28.8l20.8,25.1L207.9,263.6z"/>
	<path class="st5" d="M246.9,205.9c0.1,0.4,0.1,0.9,0.1,1.3c0,0.9,0,2.2,0.1,3.7l0,0c-1.3,4.7-3.6,12.3-6.3,21
		c-1.7,5.4-3.2,10.3-4.4,14.5l-0.3,0.9l-0.1-0.9c-0.3-1.6-1-3-2.1-4.2c-0.8-0.9-1.9-1.6-3-2.1c-1-0.4-2-0.6-3.1-0.7
		c0.3,0,0.6,0,0.9,0c0.8,0,1.6,0.2,2.4,0.5c1.2,0.5,2.3,1.2,3.1,2.1c1.2,1.2,2,2.7,2.3,4.4h-0.4c1.2-4.1,2.7-9.1,4.3-14.5
		c2.7-8.6,5-16.1,6.5-20.9l0,0c0-1.6,0.1-2.8,0.1-3.7C246.8,206.8,246.8,206.3,246.9,205.9z"/>
	<path class="st5" d="M240,207.8c-0.1,0.4-0.3,0.8-0.4,1.2c-0.4,0.9-0.8,2-1.4,3.4c-1.1,2.8-2.7,6.7-4.3,11.1l-4.1,11.2l-1.3,3.4
		c-0.1,0.4-0.3,0.8-0.5,1.2c0.1-0.4,0.2-0.9,0.3-1.3c0.3-0.9,0.7-2.1,1.1-3.4c1-2.9,2.3-6.9,3.9-11.2s3.2-8.3,4.4-11.1
		c0.6-1.4,1.1-2.5,1.5-3.3C239.5,208.6,239.7,208.2,240,207.8z"/>
	<path class="st5" d="M205.7,225.5c0.1,0-0.3,0.5-0.6,1.5c-0.4,1.4-0.3,2.9,0.1,4.3c0.7,2,1.8,3.9,3.4,5.4c1.9,1.8,3.9,3.5,6.1,5.1
		c3.3,2.4,6.7,4.5,10.3,6.4l-0.3,0.2c-0.3-2,0-4.1,0.9-6c0.2-0.5,0.5-1,0.9-1.5c0.1-0.2,0.2-0.3,0.4-0.5c0.1,0-0.5,0.7-1,2
		c-0.8,1.9-1,3.9-0.7,5.9l0.1,0.4l-0.4-0.2c-3.6-1.8-7.1-3.9-10.4-6.4c-2.2-1.6-4.2-3.3-6.1-5.2c-1.6-1.5-2.8-3.5-3.4-5.6
		c-0.4-1.4-0.4-3,0.1-4.4c0.1-0.4,0.3-0.8,0.5-1.1C205.6,225.6,205.7,225.5,205.7,225.5z"/>
	<path class="st5" d="M248.1,280c-0.2,0-0.3-0.1-0.5-0.1c-0.4-0.1-0.8-0.3-1.2-0.5c-1.5-0.8-2.7-1.9-3.6-3.3c-1.4-2-2.4-4.3-3-6.6
		c-0.7-2.9-1.5-5.7-2.6-8.4c-1.2-2.7-2.7-5.2-4.3-7.7c-1.3-2-2.5-4.2-3.5-6.4c-0.7-1.5-1.2-3.1-1.5-4.7c-0.1-0.4-0.1-0.9-0.2-1.3
		c0-0.2,0-0.3,0-0.5c0.2,0.6,0.3,1.2,0.4,1.7c0.4,1.6,0.9,3.1,1.7,4.6c1.1,2.2,2.3,4.2,3.6,6.2c1.7,2.5,3.1,5.1,4.4,7.7
		c1.1,2.8,1.9,5.6,2.6,8.5c0.6,2.3,1.5,4.5,2.8,6.5c0.9,1.3,2.1,2.5,3.4,3.3C247.5,279.8,248.1,280,248.1,280z"/>
	<path class="st5" d="M275.6,281.1c-0.5,0.2-1,0.4-1.5,0.5c-1,0.3-2.5,0.7-4.3,1.1c-4.8,1.1-9.6,1.9-14.4,2.4
		c-4.9,0.5-9.8,0.7-14.6,0.5c-1.9,0-3.4-0.1-4.4-0.2c-0.5,0-1.1-0.1-1.6-0.2c0.5,0,1.1,0,1.6,0c1.1,0,2.6,0.1,4.4,0.1
		c4.9,0,9.7-0.2,14.6-0.7c4.8-0.5,9.7-1.2,14.4-2.2c1.8-0.4,3.3-0.7,4.3-1C274.5,281.3,275.1,281.1,275.6,281.1z"/>
	<path class="st5" d="M280.6,298c-0.5,0.1-1,0.2-1.5,0.2c-0.9,0.1-2.3,0.2-4,0.3c-3.4,0.2-8,0.3-13.1,0.2s-9.8-0.5-13.1-0.8
		c-1.7-0.2-3-0.3-3.9-0.5c-0.5,0-1-0.1-1.4-0.3c0.5,0,1,0,1.5,0.1l4,0.3c3.3,0.3,8,0.5,13.1,0.7s9.8,0,13.1-0.1l4-0.1
		C279.7,298,280.1,298,280.6,298z"/>
	<path class="st5" d="M257.8,299.2c-0.7-0.3-1.4-0.8-1.9-1.4c-2.7-2.8-3.8-6.9-2.7-10.7c0.2-0.8,0.5-1.5,1-2.1
		c0.1,0-0.3,0.8-0.6,2.2c-0.9,3.7,0.1,7.5,2.6,10.3C257.1,298.6,257.9,299.1,257.8,299.2z"/>
	<path class="st5" d="M230.7,285.4c0,0-0.2-0.1-0.5-0.3l-1.3-0.9l-2-1.5c-0.8-0.6-1.6-1.3-2.6-2.1c-5-4.1-9.6-8.5-13.9-13.4
		c-4.3-4.8-8.1-10-11.3-15.6c-1.2-2.1-2.1-3.9-2.7-5.2c-0.3-0.6-0.5-1.1-0.6-1.5c-0.1-0.2-0.1-0.3-0.2-0.5c0.1,0.1,0.2,0.3,0.3,0.5
		l0.7,1.4c0.6,1.2,1.6,3,2.8,5.1c3.3,5.5,7.1,10.7,11.4,15.5c4.3,4.8,8.9,9.3,13.7,13.4l2.5,2.1l2,1.6c0.5,0.4,0.9,0.8,1.2,1
		C230.5,285.1,230.6,285.3,230.7,285.4z"/>
	<path class="st5" d="M186.9,300.6c0,0,0.2-0.8,0.4-2.2c0.4-2,0.6-4.1,0.6-6.2c0-3.1-0.3-6.1-0.8-9.2c-0.6-3.4-1.4-7.1-2.4-11
		c-1.1-3.6-1.9-7.3-2.4-11.1c-0.4-3.5-0.5-6.6-0.6-9.2s0-4.8,0-6.2c0-0.7,0-1.2,0-1.7c0-0.2,0-0.4,0.1-0.6c0,0.2,0.1,0.4,0.1,0.6
		c0,0.4,0,1,0,1.7c0.1,1.5,0.1,3.6,0.2,6.2s0.2,5.8,0.7,9.2c0.6,3.7,1.4,7.4,2.5,11c1,3.9,1.8,7.6,2.4,11.1c0.5,3.1,0.7,6.1,0.7,9.2
		c0,2.1-0.3,4.2-0.8,6.2c-0.1,0.7-0.3,1.3-0.4,1.6C187,300.3,186.9,300.5,186.9,300.6z"/>
	<path class="st5" d="M180.9,257.4c0,0-0.2,0.2-0.7,0.4c-0.6,0.3-1.3,0.5-1.9,0.7c-2.2,0.6-4.4,0.9-6.7,0.8
		c-2.3-0.1-4.5-0.5-6.6-1.2c-0.6-0.2-1.3-0.5-1.9-0.8c-0.4-0.2-0.7-0.4-0.6-0.4s1,0.4,2.6,0.9c4.2,1.3,8.8,1.4,13.1,0.4
		C179.8,257.7,180.8,257.3,180.9,257.4z"/>
	<path class="st4" d="M266.1,251.4l5.6,45.5l-52,17.4l8.7,18.7c0,0,66.3-9.1,68.5-14c1.9-4,3.4-14,3.4-14l-0.8-56.7
		c0,0-11.7-37-21.3-33.6S264.2,235.9,266.1,251.4z"/>
	<path class="st5" d="M285,307.4c-0.5-1.6-1.3-3-2.3-4.3c-1.2-1.4-2.7-2.6-4.3-3.5c-2.1-1.2-4.4-1.9-6.9-2.1h0.1
		c-5.1,1.5-11.1,3.3-17.4,5.7c-9.4,3.4-18.2,5.9-24.4,7.9c-3.1,1-5.6,1.8-7.4,2.4l-2,0.7c-0.2,0.1-0.5,0.2-0.7,0.2
		c0.2-0.1,0.4-0.2,0.7-0.3c0.4-0.2,1.1-0.5,2-0.8c1.7-0.6,4.2-1.5,7.3-2.6c6.2-2.1,14.9-4.7,24.3-8c6.3-2.4,12.4-4.1,17.5-5.6h0.1
		c2.5,0.2,4.9,1,7,2.3c1.7,0.9,3.1,2.2,4.4,3.6c0.8,0.9,1.4,2,1.8,3.2c0.1,0.3,0.2,0.6,0.2,0.9C285,307.1,285,307.2,285,307.4z"/>
	<path class="st5" d="M265.8,240.6c0.1,0,1.5,12.6,3.1,28.3s2.8,28.3,2.6,28.4s-1.5-12.6-3.1-28.3S265.6,240.6,265.8,240.6z"/>
	<path class="st5" d="M296.8,241.4c0.1,0.2,0.2,0.5,0.2,0.8l0.5,2.2c0.2,0.9,0.5,2.1,0.8,3.5s0.6,2.9,0.9,4.6
		c0.6,3.4,1.2,7.5,1.7,12.1s0.8,9.7,0.9,15s-0.1,10.4-0.5,15s-0.9,8.7-1.4,12.2c-0.2,1.7-0.5,3.3-0.8,4.6s-0.5,2.5-0.7,3.5
		s-0.4,1.6-0.5,2.2c0,0.3-0.1,0.5-0.2,0.8c0-0.3,0.1-0.5,0.1-0.8c0.1-0.5,0.2-1.3,0.4-2.2s0.4-2.1,0.6-3.5s0.5-2.9,0.7-4.6
		c0.5-3.5,0.9-7.6,1.3-12.2s0.5-9.7,0.4-15s-0.4-10.4-0.9-15s-1-8.7-1.6-12.1c-0.3-1.7-0.6-3.3-0.8-4.6s-0.5-2.5-0.7-3.5
		s-0.3-1.6-0.5-2.2C296.9,241.9,296.8,241.6,296.8,241.4z"/>
	<path class="st5" d="M240.6,331c-0.1,0,0.1-1.2,0.1-3.3c0-1.2-0.1-2.4-0.3-3.5c-0.5-2.8-1.5-5.5-3-8c-0.6-1-1.3-2-2.1-2.9
		c-1.3-1.5-2.2-2.4-2.2-2.4s0.3,0.1,0.7,0.5c0.6,0.5,1.2,1.1,1.8,1.7c0.8,0.9,1.5,1.8,2.2,2.9c1.6,2.5,2.6,5.3,3.1,8.2
		c0.2,1.2,0.3,2.4,0.2,3.6c0,0.8-0.1,1.6-0.2,2.4C240.8,330.5,240.8,330.7,240.6,331z"/>
	<path class="st5" d="M281.4,218.6c0,0.1-1.3,0.1-3.2,0.7c-1.1,0.3-2.3,0.7-3.3,1.2c-1.3,0.6-2.5,1.4-3.7,2.2
		c-1.1,0.9-2.2,1.9-3.1,3c-0.8,0.9-1.4,1.9-2,2.9c-1,1.8-1.4,3-1.5,2.9c0-0.3,0.1-0.6,0.2-0.9c0.1-0.3,0.2-0.7,0.4-1
		c0.2-0.4,0.4-0.9,0.6-1.3c0.6-1.1,1.2-2.1,2-3c1-1.1,2-2.2,3.2-3.1c1.2-0.9,2.5-1.6,3.8-2.3c1.1-0.5,2.3-0.9,3.4-1.1
		c0.5-0.1,0.9-0.2,1.4-0.2c0.3-0.1,0.7-0.1,1-0.1C280.8,218.5,281.1,218.5,281.4,218.6z"/>
	<path class="st5" d="M259,308.3c-0.8-3-0.1-6.3,1.8-8.8c0.1,0.1-0.9,1.9-1.4,4.3S259.1,308.2,259,308.3z"/>
	<path class="st12" d="M288.4,224.9h-0.2l-0.6-0.1c-0.5-0.1-1.3-0.2-2.3-0.3c-2.5-0.3-5-0.2-7.5,0.1c-2.5,0.4-4.9,1-7.3,2
		c-0.9,0.4-1.6,0.7-2.1,0.9l-0.6,0.3c-0.1,0.1-0.2,0.1-0.2,0.1c0.1,0,0.1-0.1,0.2-0.1l0.5-0.3c0.7-0.4,1.4-0.7,2.1-1
		c4.7-2,9.8-2.7,14.9-2.1c1,0.1,1.8,0.2,2.3,0.4l0.6,0.1C288.3,224.9,288.4,224.9,288.4,224.9z"/>
	<path class="st12" d="M297.1,244.1h-0.3l-0.9-0.1c-0.8-0.1-1.9-0.3-3.2-0.5c-7.2-0.9-14.4-0.7-21.6,0.4c-1.4,0.2-2.5,0.4-3.2,0.6
		l-0.9,0.2l-0.3,0.1c0.1,0,0.2-0.1,0.3-0.1l0.9-0.2c0.8-0.2,1.9-0.4,3.2-0.6c3.6-0.6,7.2-0.9,10.8-1c3.6-0.1,7.2,0.1,10.8,0.6
		c1.4,0.2,2.5,0.4,3.2,0.5l0.9,0.2C296.9,244.1,297,244.1,297.1,244.1z"/>
	<path class="st12" d="M300.6,261.7c-0.1,0-0.2,0-0.3,0l-0.9-0.1c-0.8-0.1-2-0.3-3.4-0.4c-3.8-0.4-7.6-0.6-11.4-0.6
		c-3.8,0-7.6,0.3-11.4,0.8c-1.5,0.2-2.6,0.4-3.4,0.5l-0.9,0.1c-0.1,0-0.2,0-0.3,0l0.3-0.1l0.9-0.2c0.8-0.2,2-0.4,3.4-0.6
		c3.8-0.5,7.6-0.8,11.4-0.9c3.8,0,7.6,0.2,11.4,0.6c1.5,0.2,2.6,0.4,3.4,0.5l0.9,0.2L300.6,261.7z"/>
	<path class="st12" d="M301.6,275.2h-0.3l-0.9-0.1c-0.8,0-2-0.1-3.5-0.2c-2.9-0.1-7-0.2-11.5,0s-8.5,0.7-11.4,1.1
		c-1.5,0.2-2.6,0.4-3.4,0.5l-0.9,0.2h-0.3c0.1,0,0.2-0.1,0.3-0.1l0.9-0.2c0.8-0.2,2-0.4,3.4-0.6c7.6-1.2,15.2-1.6,22.9-1.2
		c1.5,0.1,2.6,0.2,3.5,0.2l0.9,0.1C301.4,275.1,301.5,275.2,301.6,275.2z"/>
	<path class="st12" d="M301.1,293.1c-0.1,0-0.2,0-0.3-0.1l-0.9-0.2c-0.7-0.2-1.8-0.4-3.1-0.7c-3.5-0.7-7-1.2-10.5-1.5
		c-3.5-0.3-7.1-0.3-10.6-0.1c-1.4,0.1-2.5,0.2-3.2,0.2l-0.9,0.1c-0.1,0-0.2,0-0.3,0l0.3,0l0.9-0.1c0.8-0.1,1.9-0.2,3.2-0.3
		c7.1-0.5,14.2,0,21.2,1.5c1.3,0.3,2.4,0.6,3.1,0.8l0.9,0.2L301.1,293.1z"/>
	<path class="st12" d="M296,319.6c0,0,0-0.1-0.1-0.3s-0.2-0.6-0.3-1c-0.1-0.5-0.3-1-0.5-1.5c-0.2-0.6-0.5-1.3-0.8-2
		c-0.3-0.8-0.7-1.6-1.2-2.3c-0.4-0.8-1-1.7-1.5-2.6c-1.3-1.9-2.8-3.6-4.4-5.2c-1.7-1.6-3.5-3-5.4-4.2c-0.9-0.5-1.8-1.1-2.6-1.5
		c-0.8-0.4-1.6-0.8-2.4-1.1c-0.7-0.3-1.4-0.5-2-0.7s-1.1-0.4-1.6-0.5l-1-0.3l-0.4-0.1c0.1,0,0.2,0,0.4,0.1l1,0.2
		c0.5,0.1,1.1,0.2,1.6,0.4c0.6,0.2,1.3,0.4,2,0.7c0.8,0.3,1.6,0.7,2.4,1c0.9,0.4,1.7,0.9,2.6,1.5c1.9,1.2,3.8,2.6,5.5,4.2
		c1.6,1.6,3.1,3.4,4.4,5.3c0.6,0.9,1.1,1.7,1.5,2.6c0.4,0.8,0.8,1.6,1.1,2.4c0.4,0.7,0.6,1.4,0.8,2c0.2,0.5,0.4,1,0.5,1.6l0.3,1
		C295.9,319.5,296,319.6,296,319.6z"/>
	<path class="st12" d="M272.2,325.9c0-0.1,0-0.2,0-0.3c0-0.2,0-0.5-0.1-0.8c-0.1-0.7-0.2-1.7-0.4-2.9c-0.5-3.2-1.3-6.3-2.4-9.2
		c-1.1-3-2.5-5.9-4.2-8.6c-0.6-1-1.2-1.9-1.6-2.4c-0.2-0.2-0.3-0.5-0.5-0.6c-0.1-0.1-0.1-0.2-0.1-0.2c0.1,0.1,0.1,0.1,0.2,0.2
		l0.5,0.6c0.4,0.5,1,1.4,1.6,2.4c3.5,5.4,5.7,11.5,6.7,17.9c0.2,1.2,0.3,2.2,0.3,2.9c0,0.3,0,0.5,0,0.8
		C272.2,325.7,272.2,325.8,272.2,325.9z"/>
	<path class="st12" d="M254.3,329v-0.2V328c0-0.6,0.1-1.5,0-2.7c-0.1-2.9-0.5-5.8-1.2-8.7c-0.7-2.9-1.6-5.6-2.9-8.3
		c-0.5-1-0.9-1.8-1.2-2.4l-0.4-0.6c0-0.1-0.1-0.2-0.1-0.2c0.1,0.1,0.1,0.1,0.1,0.2l0.4,0.6c0.5,0.8,0.9,1.6,1.3,2.4
		c1.3,2.7,2.3,5.4,2.9,8.3c0.7,2.9,1.1,5.8,1.1,8.8c0,0.9,0,1.8-0.1,2.7c0,0.3,0,0.5-0.1,0.7C254.3,328.8,254.3,328.9,254.3,329z"/>
	<path class="st12" d="M293.3,311.7c-3,1.5-6.1,2.9-9.2,4.1c-7.6,2.9-15.3,5.5-23.1,7.6c-9.2,2.5-17.6,4.4-23.8,5.5s-10,1.5-10,1.5
		l0.7-0.1l2-0.3c1.7-0.3,4.2-0.6,7.3-1.2c6.1-1.1,14.6-3,23.7-5.5c7.8-2.1,15.6-4.6,23.1-7.5c1.5-0.6,2.8-1.1,3.9-1.6
		s2.1-0.9,2.9-1.3l1.8-0.9L293.3,311.7z"/>
	<path class="st12" d="M284.5,220c0,0,1.5,5,3.4,13.1c1,4.1,1.9,9,2.9,14.4s1.8,11.5,2.5,17.9s1.1,12.5,1.3,18s0.2,10.5,0,14.7
		c0,1-0.1,2-0.1,3s-0.1,1.8-0.2,2.7c-0.1,1.7-0.2,3.1-0.4,4.3s-0.2,2-0.3,2.7s-0.1,0.9-0.1,0.9s0-0.3,0.1-0.9s0.1-1.6,0.2-2.7
		s0.2-2.6,0.3-4.3c0-0.8,0.1-1.7,0.2-2.7s0.1-1.9,0.1-3c0.2-4.2,0.1-9.2-0.1-14.7s-0.7-11.6-1.3-18s-1.6-12.4-2.5-17.9
		s-1.9-10.4-2.8-14.4c-0.4-2-0.9-3.9-1.3-5.5s-0.7-3-1-4.1s-0.5-2-0.7-2.6S284.5,220,284.5,220z"/>
	<path class="st12" d="M277.6,299.7c-0.2,0.1-0.3,0.2-0.5,0.3l-1.5,0.8c-1.3,0.6-3.3,1.6-5.7,2.6c-4.9,2.1-11.7,4.9-19.3,7.8
		s-14.5,5.3-19.5,7.1l-6,2l-1.6,0.5l-0.6,0.2l0.6-0.2l1.6-0.6l5.9-2.1c5-1.8,11.9-4.3,19.5-7.1c7.6-2.9,14.4-5.6,19.3-7.7
		c2.5-1,4.4-1.9,5.8-2.6l1.5-0.7L277.6,299.7z"/>
	<path class="st12" d="M271.1,222.4c0.1,0,2.3,17.6,5,39.2s4.8,39.2,4.8,39.2s-2.3-17.5-5-39.2S271,222.4,271.1,222.4z"/>
	<path class="st12" d="M234.9,332.1c0-0.1,0-0.1-0.1-0.2c0-0.2-0.1-0.4-0.1-0.6c-0.1-0.5-0.3-1.3-0.5-2.3c-1.1-5-3-9.8-5.5-14.2
		c-0.5-0.9-0.9-1.5-1.2-2l-0.3-0.5c0-0.1-0.1-0.1-0.1-0.2c0.1,0.1,0.1,0.1,0.1,0.2c0.1,0.2,0.2,0.3,0.4,0.5c0.3,0.5,0.7,1.1,1.2,2
		c2.6,4.4,4.5,9.2,5.5,14.3c0.2,1,0.3,1.8,0.4,2.3l0.1,0.6C234.9,332,234.9,332,234.9,332.1z"/>
	<path class="st12" d="M237.6,261.8h-0.3h-1c-0.8,0-2,0.1-3.5,0.1c-3,0-7.1,0-11.6-0.4s-8.6-0.9-11.6-1.3c-1.5-0.2-2.7-0.4-3.5-0.6
		l-0.9-0.2l-0.3-0.1c0.1,0,0.2,0,0.3,0l0.9,0.1l3.5,0.5c3,0.4,7,0.9,11.6,1.3s8.7,0.4,11.6,0.4h3.5L237.6,261.8L237.6,261.8z"/>
	<path class="st12" d="M267.4,257.6l-0.3,0.1l-0.8,0.2c-0.7,0.2-1.8,0.5-3,0.8c-2.6,0.6-6.1,1.3-10.1,1.9s-7.6,0.9-10.3,1
		c-1.3,0.1-2.4,0.1-3.1,0.1h-1.1h0.3l0.9,0l3.1-0.2c2.6-0.2,6.3-0.5,10.3-1.1s7.6-1.3,10.1-1.8l3-0.7l0.8-0.2L267.4,257.6z"/>
	<path class="st12" d="M230.6,250.7c-0.1,0-0.2,0-0.4,0h-1c-0.9,0-2.1,0-3.7,0c-4.1-0.1-8.1-0.6-12.2-1.3c-4-0.7-8-1.7-11.9-3
		c-1.5-0.5-2.7-0.9-3.5-1.3l-0.9-0.4l-0.3-0.1l0.3,0.1l0.9,0.3c0.8,0.3,2,0.7,3.5,1.2c7.8,2.5,15.8,4,24,4.3
		c1.6,0.1,2.8,0.1,3.7,0.1h1H230.6z"/>
	<path class="st12" d="M265.4,242.4c0,0-7.2,1.8-16,3.9s-16,3.8-16.1,3.7s7.2-1.8,16-3.9S265.3,242.3,265.4,242.4z"/>
	<path class="st12" d="M264.9,227.7h-0.2l-0.7,0.1l-2.4,0.3c-2,0.3-4.9,0.7-8,1.3s-5.9,1.4-7.9,2l-2.4,0.7l-0.6,0.2
		c-0.1,0-0.1,0-0.2,0.1c0,0,0.1,0,0.2-0.1l0.6-0.2c0.6-0.2,1.3-0.5,2.3-0.8c2-0.6,4.8-1.4,7.9-2c3.1-0.6,5.9-1,8-1.3
		c1-0.1,1.9-0.2,2.5-0.2h0.7C264.7,227.7,264.8,227.7,264.9,227.7z"/>
	<path class="st12" d="M275.6,218.7c-0.1,0-0.2,0-0.3-0.1l-0.8-0.2c-0.7-0.2-1.8-0.5-3.1-0.8c-2.6-0.7-6.3-1.5-10.4-2.1
		s-7.8-0.9-10.5-1c-1.4-0.1-2.4-0.1-3.2-0.1h-0.9c-0.1,0-0.2,0-0.3,0h0.3h0.9c0.8,0,1.9,0,3.2,0c3.5,0.1,7.1,0.4,10.5,0.9
		c3.5,0.5,7,1.2,10.4,2.1c1.3,0.4,2.4,0.6,3.1,0.9l0.8,0.3L275.6,218.7z"/>
	<path class="st12" d="M239.6,232.6c0,0-0.4-0.4-1.1-0.9c-1.8-1.4-4-2.2-6.3-2.2c-0.9,0-1.4,0.1-1.4,0c0.1,0,0.2-0.1,0.4-0.1
		c0.3-0.1,0.7-0.1,1-0.1c1.2,0,2.3,0.2,3.4,0.5c1.1,0.4,2.1,1,3,1.7c0.3,0.2,0.5,0.5,0.8,0.7C239.4,232.4,239.5,232.5,239.6,232.6z"
		/>
	<path class="st12" d="M244,220.9c0,0-0.3-0.5-0.7-1.2c-0.6-0.9-1.4-1.7-2.3-2.4c-0.9-0.7-1.9-1.2-2.9-1.5c-0.8-0.3-1.3-0.3-1.3-0.4
		s0.1,0,0.4,0c0.3,0,0.7,0.1,1,0.2c2.2,0.7,4.1,2.1,5.3,4c0.2,0.3,0.4,0.6,0.5,0.9C243.9,220.7,244,220.8,244,220.9z"/>
	<path class="st12" d="M242.9,207.1c0.1,0-2.2,7.2-5.1,16.1s-5.2,16.1-5.3,16s2.2-7.2,5.1-16.1S242.8,207.1,242.9,207.1z"/>
	<path class="st12" d="M215.3,241.9c0,0,0-0.1-0.1-0.3c-0.1-0.3-0.1-0.6-0.1-0.9c0-2.1,1-4.1,2.6-5.4c0.2-0.2,0.5-0.4,0.8-0.5
		c0.1-0.1,0.2-0.1,0.3-0.1c0,0-0.4,0.3-1,0.8c-1.5,1.3-2.4,3.2-2.6,5.3C215.2,241.4,215.3,241.9,215.3,241.9z"/>
	<path class="st12" d="M206.9,234.8c0,0,0-0.1-0.1-0.4c-0.1-0.3-0.1-0.7-0.1-1c0-2.3,1.2-4.4,3.1-5.6c0.3-0.2,0.6-0.3,0.9-0.5
		c0.2-0.1,0.4-0.1,0.4-0.1s-0.5,0.2-1.2,0.7c-0.9,0.6-1.6,1.4-2.2,2.4c-0.5,1-0.8,2-0.9,3.1C206.8,234.3,206.9,234.8,206.9,234.8z"
		/>
	<path class="st12" d="M225.3,243.6c0,0-0.1,0-0.2-0.1l-0.7-0.4l-2.5-1.6c-2.1-1.4-5.1-3.3-8.3-5.5c-1.5-1-2.9-2.2-4.2-3.5
		c-1-1.1-1.9-2.3-2.5-3.7c-0.4-0.9-0.7-1.9-0.8-2.9c0-0.4,0-0.7,0-1.1c0,0,0,0.4,0.1,1.1c0.1,1,0.4,2,0.8,2.9
		c0.6,1.3,1.5,2.6,2.5,3.6c1.3,1.3,2.7,2.5,4.2,3.5l8.3,5.5l2.5,1.7l0.7,0.5L225.3,243.6z"/>
	<path class="st12" d="M241.2,275.6c-0.1,0-0.1,0-0.2,0h-0.6c-0.5,0-1.3,0-2.2,0.1c-1.9,0-4.5,0-7.4-0.1s-5.5-0.3-7.4-0.5
		c-0.9-0.1-1.7-0.2-2.2-0.2l-0.6-0.1h-0.2c0.1,0,0.1,0,0.2,0h0.6l2.2,0.2c1.9,0.1,4.5,0.3,7.4,0.5s5.5,0.2,7.4,0.2L241.2,275.6
		L241.2,275.6z"/>
	<path class="st12" d="M268,275.9c-0.1,0-0.2,0.1-0.2,0.1l-0.7,0.1c-0.6,0.1-1.5,0.2-2.6,0.4c-2.2,0.3-5.2,0.6-8.6,0.7
		s-6.4,0-8.7-0.1c-1.1-0.1-2-0.1-2.6-0.2l-0.7-0.1h-0.2c0.1,0,0.2,0,0.2,0h0.7l2.6,0.1c2.2,0.1,5.3,0.1,8.6,0
		c3.4-0.1,6.4-0.4,8.6-0.6l2.6-0.3l0.7-0.1L268,275.9z"/>
	<path class="st12" d="M253.4,293.2h-0.2l-0.6,0.1c-0.5,0.1-1.2,0.1-2.1,0.2c-2.4,0.2-4.7,0.2-7.1,0.1c-2.4-0.1-4.7-0.4-7.1-0.8
		c-0.9-0.2-1.6-0.3-2.1-0.4l-0.6-0.1l-0.2-0.1h0.2l0.6,0.1c0.5,0.1,1.2,0.2,2.1,0.3c2.3,0.4,4.7,0.6,7,0.7c2.4,0.1,4.7,0.1,7.1-0.1
		l2.1-0.2l0.6,0L253.4,293.2z"/>
	<path class="st12" d="M268,291.8c0,0.1-2.9,0.3-6.4,0.6s-6.4,0.4-6.4,0.4s2.9-0.3,6.4-0.6S268,291.7,268,291.8z"/>
	<path class="st12" d="M249.2,304.4c-0.2,0-0.4,0-0.5,0c-0.3,0-0.8-0.1-1.4-0.1c-1.6-0.2-3.1-0.5-4.7-1c-1.5-0.5-3-1-4.5-1.7
		c-0.6-0.3-1-0.5-1.3-0.7c-0.2-0.1-0.3-0.2-0.4-0.3l0.5,0.2l1.3,0.6c1.5,0.6,2.9,1.2,4.5,1.6c1.5,0.5,3.1,0.8,4.6,1.1l1.4,0.2
		C248.8,304.4,249,304.4,249.2,304.4z"/>
	<path class="st12" d="M260.5,283.9c0,0-0.3-1.1-0.8-3.1s-1.2-4.9-1.9-8.5c-1.5-7.2-3.4-17.2-5.2-28.3c-0.4-2.7-0.6-5.4-0.6-8.2
		c0.1-2.6,0.5-5.1,1.2-7.6c1.3-4.1,3.3-8,5.8-11.5c1.7-2.4,3.5-4.6,5.5-6.8c1.4-1.5,2.2-2.3,2.2-2.3s-0.2,0.2-0.5,0.6l-1.6,1.8
		c-1.9,2.2-3.7,4.5-5.4,6.8c-2.5,3.5-4.5,7.4-5.7,11.5c-0.7,2.4-1.1,5-1.2,7.5c0,2.7,0.2,5.5,0.6,8.1c1.8,11.1,3.6,21.1,5.1,28.3
		c0.7,3.6,1.4,6.5,1.9,8.5c0.2,1,0.4,1.7,0.5,2.3L260.5,283.9z"/>
	<path class="st12" d="M260.4,296.9c-0.1-0.1-0.2-0.2-0.4-0.4c-0.3-0.3-0.6-0.7-0.9-1.1c-1.7-2.5-2.5-5.5-2.3-8.5
		c0-0.5,0.1-0.9,0.2-1.4c0-0.2,0.1-0.3,0.1-0.5c0,0-0.1,0.7-0.2,1.8c-0.2,3,0.6,5.9,2.2,8.4C260,296.3,260.5,296.8,260.4,296.9z"/>
	<path class="st12" d="M250.4,305.3c-0.2-0.3-0.4-0.6-0.5-1c-0.4-0.9-0.6-1.7-0.8-2.6c-0.2-0.9-0.2-1.8-0.1-2.8
		c0-0.4,0.1-0.8,0.2-1.1c0,0.4,0,0.8,0,1.1c0,0.9,0.1,1.8,0.2,2.7c0.1,0.9,0.4,1.8,0.7,2.6C250.2,304.6,250.3,304.9,250.4,305.3z"/>
	<path class="st12" d="M240,297.5c-0.1-0.1-0.2-0.3-0.3-0.4c-0.2-0.4-0.4-0.8-0.6-1.2c-0.5-1.4-0.9-2.9-1-4.3c-0.1-1.5,0-3,0.3-4.5
		c0.1-0.4,0.2-0.9,0.4-1.3c0-0.2,0.1-0.3,0.2-0.5c0,0-0.2,0.7-0.4,1.8c-0.5,2.9-0.3,5.9,0.7,8.7C239.7,296.9,240.1,297.5,240,297.5z
		"/>
	<path class="st12" d="M240.1,307.3c0-0.1-0.1-0.2-0.1-0.4c0-0.2-0.1-0.6-0.1-1c-0.1-0.9-0.2-2.1-0.2-3.5s0-2.6,0.1-3.5
		c0-0.4,0.1-0.8,0.1-1c0-0.1,0-0.3,0.1-0.4c0,0.5,0,1,0,1.4c0,0.9,0,2.1,0,3.5s0.1,2.6,0.2,3.4C240.1,306.4,240.2,306.8,240.1,307.3
		z"/>
	<path class="st12" d="M212.4,242.4c0.1,0,6.1,9.3,13.6,20.9c7.5,11.6,13.5,21,13.4,21s-6.1-9.3-13.6-20.9S212.4,242.4,212.4,242.4z
		"/>
	<path class="st12" d="M236.2,245.8c0,0,0.1,0.1,0.1,0.4l0.4,1.1c0.3,1,0.7,2.5,1.3,4.2c1.1,3.6,2.8,8.5,5,13.8s4.4,10,6.1,13.3
		c0.9,1.7,1.6,3,2.1,3.9c0.2,0.4,0.4,0.8,0.6,1.1s0.2,0.4,0.2,0.4l-0.2-0.4l-0.6-1c-0.5-0.9-1.2-2.2-2.1-3.9c-1.7-3.3-4-8-6.2-13.3
		s-3.8-10.2-4.9-13.8c-0.6-1.8-1-3.2-1.2-4.3l-0.3-1.2C236.2,245.9,236.2,245.8,236.2,245.8z"/>
	<path class="st12" d="M218,273.6c0,0-0.1-0.1-0.4-0.4l-1.2-1.2c-0.5-0.5-1.2-1.2-1.9-2s-1.5-1.7-2.4-2.7s-1.8-2.2-2.7-3.5
		s-1.9-2.6-2.9-4.1c-4.2-6.5-7.5-13.5-9.8-20.8c-0.5-1.7-1-3.3-1.3-4.9s-0.7-3-0.9-4.3s-0.4-2.5-0.6-3.6s-0.3-2-0.3-2.7l-0.2-1.7
		c0-0.4,0-0.6,0-0.6s0,0.2,0.1,0.6s0.1,1,0.2,1.7s0.2,1.6,0.4,2.7s0.3,2.2,0.6,3.6s0.5,2.8,0.9,4.3s0.9,3.1,1.3,4.8
		c1.2,3.7,2.6,7.2,4.2,10.7c1.6,3.5,3.5,6.8,5.6,10c1,1.5,1.9,2.9,2.9,4.1s1.8,2.4,2.7,3.5s1.6,1.9,2.3,2.8s1.3,1.5,1.9,2l1.2,1.2
		L218,273.6z"/>
	<path class="st12" d="M206.8,235.9c-0.2,0-0.5-0.1-0.7-0.1l-1.9-0.4c-1.6-0.3-3.8-0.7-6.2-1.1s-4.7-0.7-6.3-0.8l-1.9-0.2l-0.7-0.1
		c0.2,0,0.5,0,0.7,0l1.9,0.1c1.6,0.1,3.8,0.4,6.3,0.8s4.6,0.8,6.2,1.2c0.8,0.2,1.4,0.3,1.9,0.4C206.3,235.8,206.6,235.8,206.8,235.9
		z"/>
	<path class="st12" d="M204.6,259.9l-0.2,0.5c-0.1,0.4-0.3,0.8-0.5,1.4c-0.4,1.2-1,3-1.7,5.2c-1.3,4.4-2.6,10.6-4.3,17.4
		c-1.3,5.9-3.2,11.6-5.7,17c-0.8,1.6-1.7,3.2-2.7,4.7c-0.7,1.1-1.1,1.6-1.1,1.6l0.3-0.4c0.2-0.3,0.5-0.7,0.8-1.2
		c1-1.5,1.8-3.1,2.6-4.8c2.5-5.5,4.4-11.1,5.6-17c1.6-6.8,3-13,4.3-17.4C202.8,264.5,203.7,262.2,204.6,259.9z"/>
	<path class="st12" d="M195.8,246.5c0.1,0-2.1,6.8-4.9,15.2c-2.8,8.4-5,15.2-5.1,15.2s2.1-6.8,4.9-15.2S195.7,246.5,195.8,246.5z"/>
	<path class="st12" d="M204.9,274.9c-0.1-0.1-0.1-0.2-0.2-0.3l-0.4-0.8c-0.4-0.7-0.9-1.7-1.6-2.8c-3.8-6.2-8.7-11.5-14.6-15.7
		c-1.1-0.8-2.1-1.4-2.7-1.8l-0.8-0.5c-0.2-0.1-0.3-0.2-0.2-0.2c0.1,0,0.2,0.1,0.3,0.1l0.8,0.4c0.7,0.4,1.6,1,2.8,1.8
		c6,4.1,11,9.5,14.7,15.7c0.7,1.2,1.2,2.2,1.6,2.9c0.1,0.3,0.3,0.6,0.4,0.8C204.8,274.7,204.9,274.8,204.9,274.9z"/>
	<path class="st12" d="M198.3,294.5c0-0.1,0-0.2,0-0.3c0-0.2,0-0.5,0-0.8s0-0.7-0.1-1.2s-0.1-1-0.2-1.6c-0.2-1.4-0.6-2.7-1.1-4.1
		c-1.1-3.3-2.9-6.2-5.2-8.8c-0.9-1-1.9-2-3-2.9c-0.5-0.4-0.9-0.7-1.3-1c-0.3-0.2-0.7-0.5-1-0.7l-0.6-0.4l-0.2-0.1
		c1.2,0.6,2.3,1.3,3.3,2.1c1.1,0.9,2.2,1.8,3.1,2.9c2.3,2.6,4.1,5.6,5.2,8.9c0.5,1.3,0.8,2.7,1,4.1
		C198.3,291.9,198.4,293.2,198.3,294.5z"/>
	<path class="st12" d="M185.1,309.7l0.1-0.2l0.2-0.5c0.2-0.4,0.4-1.1,0.7-1.9c0.8-2.1,1.4-4.2,1.9-6.4c0.5-2.2,0.8-4.4,1-6.6
		c0.1-0.9,0.1-1.5,0.1-2l0.1-0.5c0-0.1,0-0.2,0-0.2s0,0.1,0,0.2v0.5c0,0.5,0,1.2-0.1,2c-0.2,2.2-0.5,4.5-1,6.6
		c-0.5,2.2-1.1,4.3-1.9,6.4c-0.3,0.8-0.6,1.4-0.8,1.9l-0.2,0.5C185.1,309.7,185.1,309.8,185.1,309.7z"/>
	<path class="st12" d="M172.2,259.1c0,0,0.1,0.7,0.3,2s0.4,3.2,0.6,5.6c0.4,4.8,0.4,11.4,1.2,18.6c0.4,3.4,1,6.8,1.9,10
		c0.7,2.7,1.7,5.3,3,7.8c0.9,1.7,1.9,3.2,3.1,4.7c0.4,0.5,0.8,0.9,1,1.2s0.3,0.4,0.3,0.4s-0.5-0.5-1.4-1.5c-1.2-1.5-2.2-3-3.1-4.7
		c-1.3-2.5-2.3-5.1-3.1-7.8c-0.9-3.3-1.6-6.7-1.9-10.1c-0.8-7.2-0.8-13.8-1.1-18.6c-0.1-2.4-0.3-4.3-0.5-5.6
		c-0.1-0.6-0.1-1.1-0.2-1.5S172.2,259.1,172.2,259.1z"/>
	<path class="st12" d="M170.9,244.6c0.1,0.2,0.1,0.3,0.2,0.5c0.1,0.4,0.2,0.9,0.3,1.5c0.3,1.6,0.5,3.3,0.6,4.9c0.1,1.7,0.1,3.3,0,5
		c0,0.6-0.1,1.1-0.1,1.5c0,0.2,0,0.4-0.1,0.5c0-0.2,0-0.4,0-0.5c0-0.5,0-1,0.1-1.5c0-1.3,0-3-0.1-4.9s-0.4-3.7-0.6-4.9
		c-0.1-0.5-0.2-1-0.3-1.5C170.9,245,170.9,244.8,170.9,244.6z"/>
	<path class="st12" d="M183.2,266.2c-0.9,0.6-1.9,1.2-3,1.6c-1.1,0.5-2.3,0.8-3.5,1.1c-3,0.6-6,0.6-8.9-0.2
		c-1.2-0.3-2.4-0.7-3.5-1.2c-1-0.5-2-1-2.9-1.7c0,0,0.1,0,0.2,0.1l0.6,0.3c0.3,0.2,0.6,0.4,0.9,0.5c0.4,0.2,0.8,0.4,1.3,0.6
		c1.1,0.5,2.3,0.9,3.4,1.2c1.5,0.3,2.9,0.5,4.4,0.6c1.5,0,3-0.1,4.4-0.4c1.2-0.2,2.4-0.6,3.5-1c0.5-0.2,0.9-0.4,1.3-0.6
		c0.3-0.1,0.6-0.3,0.9-0.5l0.6-0.3L183.2,266.2z"/>
	<path class="st12" d="M186.4,279c-0.2,0.3-0.4,0.5-0.6,0.8c-0.6,0.7-1.3,1.3-2,1.9c-2.5,1.7-5.5,2.7-8.5,2.9c-3,0.2-6,0-9-0.6
		c-1.1-0.2-2.1-0.4-2.7-0.5l-0.7-0.2l-0.2-0.1c0.1,0,0.2,0,0.3,0l0.7,0.1l2.7,0.5c3,0.6,6,0.8,9,0.6c3-0.2,5.9-1.2,8.4-2.9
		c0.8-0.5,1.4-1.1,2.1-1.8C186.1,279.2,186.4,278.9,186.4,279z"/>
	<path class="st12" d="M187.5,291.2c-0.1,0.3-0.2,0.6-0.3,0.9c-0.4,0.8-0.8,1.6-1.4,2.3c-1.9,2.3-4.5,3.9-7.4,4.7
		c-2.9,0.7-5.8,1-8.8,0.7c-1.1-0.1-2-0.2-2.7-0.3l-0.7-0.1c-0.1,0-0.2,0-0.2,0c0.1,0,0.2,0,0.3,0l0.7,0.1c0.6,0.1,1.5,0.1,2.6,0.2
		c2.9,0.2,5.9,0,8.7-0.8c2.8-0.8,5.4-2.4,7.3-4.6c0.6-0.7,1-1.4,1.4-2.2C187.4,291.5,187.5,291.2,187.5,291.2z"/>
	<path class="st12" d="M312.6,296.5c0,0.1-2.7,1.2-6,2.5s-6.1,2.4-6.1,2.3s2.7-1.2,6-2.5S312.6,296.4,312.6,296.5z"/>
	<path class="st12" d="M307.2,281.9c-0.2,0.2-0.4,0.4-0.7,0.5c-0.6,0.4-1.2,0.7-1.9,1c-0.7,0.2-1.4,0.4-2.1,0.5c-0.3,0-0.6,0-0.9,0
		c1-0.2,1.9-0.4,2.9-0.7C305.4,282.8,306.3,282.4,307.2,281.9z"/>
	<path class="st12" d="M304.8,267c-0.5,0.2-1,0.2-1.5,0.2c-0.5,0.1-1,0.1-1.6,0c0.5-0.2,1-0.2,1.5-0.2
		C303.7,266.9,304.2,266.9,304.8,267z"/>
	<path class="st12" d="M301.9,257.6c-0.4-0.1-0.7-0.3-1-0.5c-0.3-0.2-0.6-0.4-0.9-0.7c0.4,0.1,0.7,0.3,1,0.5
		C301.4,257.1,301.7,257.3,301.9,257.6z"/>
	<path class="st12" d="M298.9,248.2c0,0,0.1,0.2,0.1,0.6s0.2,1,0.4,1.6c0.3,1.4,0.8,3.5,1.2,6.1c1.2,6.7,1.8,13.5,2,20.3
		c0,3.8,0.3,7.5,0.9,11.2c0.3,1.6,0.8,3.2,1.4,4.7c0.6,1.4,1.3,2.7,1.9,3.8c1,1.8,1.6,3.9,1.6,6c0,0.6-0.1,1.1-0.2,1.7
		c0,0.2-0.1,0.4-0.2,0.6c0,0,0.1-0.2,0.1-0.6c0.1-0.5,0.2-1.1,0.2-1.7c-0.1-2.1-0.6-4.1-1.6-5.9c-0.6-1.2-1.3-2.4-1.9-3.8
		c-0.7-1.5-1.1-3.1-1.5-4.7c-0.6-3.7-1-7.5-0.9-11.2c-0.2-6.8-0.9-13.6-2-20.3c-0.4-2.6-0.8-4.7-1.1-6.1c-0.1-0.7-0.3-1.2-0.4-1.6
		S298.9,248.2,298.9,248.2z"/>
	<g class="st11">
		<path d="M182.9,264.4c2.6,3.5,4.8,7.2,6.7,11.1c1.9,3.9,2.9,8.2,3,12.5c0,3.5-1.1,7.2-4,9.2c-0.3-11-2.2-22-5.7-32.5"/>
	</g>
	<g class="st11">
		<path d="M206.2,233.3c0,3.4,2.6,6.2,5.1,8.6c4.8,4.7,10,9.6,16.6,10.9c0.1-2.8,0.2-5.5,0.3-8.3c2.5,2.2,4.7,4.8,6.5,7.7
			c3.2-4.4,5.5-9.4,6.6-14.8c1.2-5.3,1.9-10.7,2.3-16.1l-7.8,24.8c-0.4-2.1-1.5-4-3.1-5.3c-0.9-0.9-2.2-1.4-3.4-1.4
			c-2,0.2-3.6,1.5-4.3,3.4c-0.6,1.8-0.8,3.8-0.6,5.7c-6.7-4-12.8-8.9-18.1-14.7"/>
	</g>
	<g class="st11">
		<path d="M239.9,307.1c3.2-2.3,6.8-3.9,10.7-4.9c2.9-0.8,5.9-1.2,8.3-2.8c2.3-1.5,3.9-3.9,5.4-6.1c1.5-2,2.6-4.3,3.4-6.7
			c0.4-2,0.4-4,0.2-5.9c-0.5-5.3-1.7-10.5-2.3-15.9S265,254,266.8,249c1.4,16.1,3.3,32.2,4.7,48.3c-10.3,3.3-21.1,6.5-31.4,9.8"/>
	</g>
	<path class="st8" d="M217.9,177.4c0.1-0.2,6.2-6.5,10.2,1.1s-4.4,10-4.5,9.8S217.9,177.4,217.9,177.4z"/>
	<path class="st9" d="M224.3,184.2c0,0,0.2,0,0.5,0c0.4,0,0.7-0.2,1-0.5c0.6-0.7,0.6-2.3,0-3.7c-0.3-0.7-0.8-1.2-1.4-1.7
		c-0.4-0.4-1-0.6-1.5-0.5c-0.4,0.1-0.6,0.4-0.6,0.8c0,0.3,0.1,0.4,0.1,0.4s-0.2,0-0.3-0.4c-0.1-0.2-0.1-0.4,0-0.6
		c0.1-0.3,0.3-0.5,0.6-0.6c0.7-0.2,1.5,0,2,0.4c0.7,0.5,1.2,1.1,1.6,1.9c0.8,1.6,0.7,3.4-0.2,4.3c-0.3,0.3-0.8,0.5-1.3,0.4
		C224.4,184.4,224.3,184.2,224.3,184.2z"/>
	<path class="st5" d="M183.9,162.5c-3.7,2.2-7.5,4.5-10.6,9.8c-2,3.3-2.3,6.8-2.1,10.7c0.2,3.1,1.3,6.1,3,8.7
		c1.7,2.4,2.8,4.2,5.2,5.9"/>
	<path class="st8" d="M238.5,211l-22.2-39.6c-6.1-10.8-19.6-14.9-30.6-9.2l0,0c-11.3,5.8-15.7,19.7-9.8,31c0.1,0.1,0.1,0.2,0.2,0.3
		c5.1,9.4,10.7,19.5,13.8,24.4c6.7,10.5,18.3,5.6,18.3,5.6s1.7,3.3,3.8,7.4l15.9,8.8L238.5,211z"/>
	<path class="st9" d="M208.2,223.5c4.8-3,8.7-7.4,11.1-12.5c0,0,1.5,9.7-9.7,15.3L208.2,223.5z"/>
	<path class="st5" d="M184.6,198.4c0.5,0.8,1.5,1.1,2.4,0.6c0.8-0.4,1.2-1.5,0.7-2.3c0,0,0,0,0,0c-0.5-0.8-1.6-1.1-2.4-0.6
		C184.5,196.5,184.2,197.5,184.6,198.4C184.6,198.4,184.6,198.4,184.6,198.4z"/>
	<path class="st5" d="M181,195.7c0.3,0.1,0.9-1.5,2.6-2.5s3.3-0.9,3.4-1.2c0-0.1-0.4-0.4-1.1-0.4c-1-0.1-2,0.2-2.9,0.8
		c-0.8,0.5-1.5,1.3-1.9,2.2C180.8,195.2,180.8,195.6,181,195.7z"/>
	<path class="st5" d="M200.6,188.4c0.5,0.8,1.6,1.1,2.4,0.6c0,0,0,0,0,0c0.8-0.4,1.2-1.5,0.7-2.3c0,0,0,0,0,0
		c-0.5-0.8-1.6-1.1-2.4-0.6C200.5,186.5,200.1,187.5,200.6,188.4C200.5,188.3,200.5,188.3,200.6,188.4z"/>
	<path class="st5" d="M197.2,186c0.3,0.1,0.9-1.5,2.6-2.5s3.3-0.9,3.4-1.2c0-0.1-0.4-0.4-1.1-0.4c-1-0.1-2,0.2-2.9,0.8
		c-0.8,0.5-1.5,1.3-1.9,2.2C197,185.6,197,186,197.2,186z"/>
	<path class="st5" d="M198.8,201.8c-1,0.3-2,0.7-2.9,1.2c-0.4,0.2-0.9,0.4-1.1,0.1c-0.3-0.4-0.5-0.9-0.5-1.4
		c-0.2-1.2-0.5-2.6-0.7-3.9c-1.1-5.6-2.2-10-2.4-10s0.5,4.6,1.6,10.2c0.3,1.4,0.5,2.7,0.8,3.9c0.1,0.7,0.3,1.3,0.8,1.8
		c0.3,0.2,0.7,0.3,1.1,0.2c0.3-0.1,0.5-0.2,0.8-0.3C197,203,197.9,202.5,198.8,201.8z"/>
	<path class="st5" d="M203.2,207.5c0.3-0.1-0.6-2,0.3-4.1s3-2.9,2.9-3.2s-0.6-0.1-1.5,0.2c-1.1,0.5-2,1.4-2.5,2.5
		c-0.5,1.1-0.5,2.3-0.1,3.4C202.7,207.2,203.1,207.6,203.2,207.5z"/>
	<path class="st5" d="M201,176.4c-0.4-0.4-2,0.9-4,1.8s-3.9,1.3-4,1.9c0,0.3,0.5,0.5,1.4,0.6c2.3,0.1,4.6-1,6.1-2.8
		C201,177.1,201.2,176.5,201,176.4z"/>
	<path class="st5" d="M182,186.6c-0.5,0-1.1,1.2-2.1,2.5s-2.1,2-2,2.6c0.1,0.2,0.5,0.4,1.2,0.2c0.9-0.3,1.7-0.8,2.3-1.5
		c0.6-0.7,0.9-1.6,1-2.5C182.5,187,182.2,186.6,182,186.6z"/>
	<path class="st5" d="M218.5,174.7c0,0,1.1,2.4,1.7,3.6c0.2,0.4,2.6,5.3,1.7,6.2s-3.2,1.1-5.2-0.3s-6.3-4.9-7.4-7
		c-1.4-3-3.2-5.7-5.3-8.2c-2.2-2.5-5.1-4.1-8.4-4.6c-3.3-0.5-6.6,1-8.5,3.7c-1.1,1.7-1.4,3.8-2.2,5.6c-0.7,1.7-2,3-3.7,3.8
		c-1.7,0.8-3.7,0.5-5.1-0.7c-1.4-1.5-1.8-3.6-1.1-5.5c0.8-1.8,2-3.5,3.5-4.7c4-3.8,9-6.4,14.5-7.5c5.5-1.1,11.1,0,15.7,3.1
		C213.9,165.8,215.8,168.9,218.5,174.7"/>
	<path class="st5" d="M175.7,176.2c-0.4-0.5-0.4-0.9-0.9-0.9s-0.8,1-0.9,1.5c0,0.1-0.5,0-0.6,0c-0.2-0.2-0.5-0.4-0.6-0.6
		c-0.2-0.4,0.4-0.9,0.5-1.3c0.1-0.4,0.4-0.8,0.7-1.2c0.2-0.3,0.6-0.5,1-0.5c0.3,0.1,0.5,0.3,0.7,0.6c0.2,0.3,0.3,0.5,0.3,0.8
		c0,0.3,0,0.6-0.2,0.9"/>
	<path class="st9" d="M195.7,223.3c0,0-0.1,0-0.3-0.1c-0.3-0.1-0.6-0.3-0.9-0.5c-1.1-0.7-2-1.5-2.9-2.4c-2.2-2.3-4.5-6-6.8-10.2
		s-4.4-8-5.9-10.8l-1.7-3.3c-0.2-0.4-0.4-0.8-0.6-1.2c0.3,0.4,0.5,0.7,0.8,1.1c0.5,0.8,1.1,1.9,1.9,3.2c1.6,2.7,3.7,6.5,6,10.7
		s4.5,7.9,6.6,10.2C193,221.3,194.3,222.4,195.7,223.3z"/>
</g>
<g id="thought-bubble--inject-57">
	<circle class="st3" cx="82.6" cy="152.2" r="40.7"/>
	<path class="st5" d="M125.8,181.8c0,0-0.4,0.1-1.2,0.4c-1,0.4-1.9,1.2-2.5,2.1c-0.4,0.6-0.7,1.4-0.8,2.1c-0.1,0.9,0.1,1.7,0.4,2.5
		c1.1,2.5,4,3.6,6.4,2.5c1.3-0.6,2.3-1.7,2.7-3.1c0.3-0.8,0.3-1.7,0.1-2.5c-0.2-0.7-0.5-1.4-1-2c-0.7-0.9-1.6-1.5-2.7-1.8
		c-0.8-0.2-1.2-0.2-1.2-0.2s0.1,0,0.3,0c0.1,0,0.3,0,0.4,0c0.2,0,0.3,0,0.5,0.1c1.1,0.3,2.1,0.9,2.9,1.8c0.5,0.6,0.9,1.3,1.1,2.1
		c0.2,0.9,0.2,1.9-0.1,2.7c-0.3,1-0.9,1.8-1.7,2.5c-1.7,1.5-4.2,1.7-6.1,0.4c-0.9-0.6-1.6-1.3-2-2.3c-0.4-0.8-0.6-1.8-0.4-2.7
		c0.3-2,1.6-3.6,3.5-4.3c0.2-0.1,0.3-0.1,0.5-0.1c0.1,0,0.3-0.1,0.4-0.1C125.6,181.8,125.7,181.8,125.8,181.8z"/>
	<path class="st5" d="M138.7,194.7c0,0-0.3,0.1-0.7,0.2c-0.6,0.3-1.2,0.8-1.5,1.3c-0.6,0.8-0.6,1.9-0.2,2.8c0.6,1.5,2.4,2.2,3.9,1.6
		c0.8-0.4,1.5-1.1,1.7-1.9c0.3-1,0.1-2-0.5-2.8c-0.4-0.5-1-0.9-1.7-1.1c-0.5-0.1-0.8-0.1-0.8-0.2c0.3-0.1,0.5-0.1,0.8,0
		c1.2,0.3,2.2,1.2,2.6,2.5c0.2,0.6,0.1,1.2-0.1,1.8c-0.5,1.8-2.4,2.8-4.2,2.3c-1-0.3-1.7-1-2.1-1.9c-0.3-0.5-0.4-1.1-0.3-1.7
		c0.1-0.5,0.3-1,0.6-1.4c0.4-0.6,1-1.1,1.7-1.3C138.2,194.7,138.5,194.7,138.7,194.7z"/>
	<path class="st5" d="M123.7,155.5c0,0,0-0.2,0-0.7s0-1.1,0-2c0-0.4,0-0.9,0-1.4c0-0.5-0.1-1.1-0.1-1.7s-0.1-1.3-0.2-2
		c0-0.4-0.1-0.7-0.2-1.1c-0.1-0.4-0.1-0.8-0.2-1.2c-0.6-3.9-1.9-7.7-3.7-11.2c-2.3-4.7-5.5-8.9-9.5-12.4l-1.7-1.4
		c-0.6-0.5-1.2-0.9-1.8-1.3l-0.9-0.7c-0.3-0.2-0.7-0.4-1-0.6l-2-1.2l-1-0.6l-1.1-0.5l-2.2-1c-0.8-0.3-1.6-0.6-2.4-0.8l-1.2-0.4
		c-0.2-0.1-0.4-0.1-0.6-0.2l-0.6-0.2c-1.7-0.4-3.4-0.8-5.1-1c-0.9-0.1-1.8-0.3-2.7-0.3l-2.7-0.1c-0.5,0-0.9-0.1-1.4,0l-1.4,0.1
		c-0.9,0.1-1.8,0.1-2.8,0.2c-1.9,0.3-3.7,0.7-5.6,1.2l-1.4,0.4l-0.7,0.2l-0.7,0.3l-2.7,1.1c-0.9,0.4-1.8,0.9-2.7,1.3
		c-0.4,0.2-0.9,0.4-1.3,0.7l-1.2,0.8c-1.7,1.1-3.4,2.3-4.9,3.6l-2.3,2.1l-0.6,0.5c-0.2,0.2-0.3,0.4-0.5,0.6l-1,1.2l-1,1.2l-0.9,1.3
		l-0.9,1.3l-0.5,0.6c-0.2,0.2-0.3,0.5-0.4,0.7l-1.6,2.8l-1.4,2.9c-3.5,8.1-4.2,17.2-2,25.8l0.9,3.1c0.4,1,0.8,2,1.2,3l0.3,0.7
		l0.4,0.7l0.7,1.4l0.7,1.4l0.8,1.3l0.8,1.3l0.4,0.6l0.5,0.6l1.9,2.4c1.3,1.5,2.8,3,4.3,4.3l1.1,1c0.4,0.3,0.8,0.6,1.2,0.9
		c0.8,0.6,1.6,1.2,2.4,1.7l2.5,1.5l0.6,0.4c0.2,0.1,0.4,0.2,0.7,0.3l1.3,0.6c1.7,0.8,3.5,1.5,5.3,2c0.9,0.3,1.8,0.4,2.7,0.7l1.3,0.3
		c0.4,0.1,0.9,0.1,1.4,0.2l2.7,0.4c0.9,0.1,1.8,0.1,2.7,0.1c1.7,0.1,3.5,0,5.2-0.2l0.6-0.1c0.2,0,0.4-0.1,0.6-0.1l1.2-0.2
		c0.8-0.2,1.7-0.3,2.5-0.5l2.4-0.7l1.2-0.3l1.1-0.4l2.2-0.9c0.3-0.1,0.7-0.3,1-0.5l1-0.5c0.7-0.4,1.4-0.7,2-1l1.9-1.2
		c4.4-2.8,8.2-6.5,11.3-10.8c0.3-0.5,0.7-0.9,1-1.4l0.8-1.4l0.8-1.4c0.1-0.2,0.3-0.4,0.4-0.7s0.2-0.5,0.3-0.7
		c0.4-0.9,0.8-1.8,1.2-2.6s0.6-1.7,0.9-2.4l0.4-1.1c0.1-0.3,0.2-0.7,0.3-1.1c0.2-0.7,0.3-1.4,0.5-2s0.3-1.2,0.4-1.7s0.1-1,0.2-1.4
		c0.1-0.8,0.2-1.5,0.3-1.9S123.6,155.5,123.7,155.5c-0.1,0-0.1,0.2-0.1,0.7s-0.1,1.1-0.2,1.9c0,0.4-0.1,0.9-0.2,1.4
		s-0.2,1.1-0.4,1.7l-0.4,2c-0.1,0.4-0.2,0.7-0.3,1.1c-0.1,0.4-0.2,0.8-0.4,1.1c-0.3,0.8-0.5,1.6-0.9,2.4s-0.8,1.7-1.2,2.6l-0.3,0.7
		c-0.1,0.2-0.2,0.4-0.4,0.7l-0.8,1.4l-0.8,1.4c-0.3,0.5-0.7,0.9-1,1.4c-3,4.3-6.8,8-11.2,10.9l-1.9,1.2c-0.7,0.4-1.3,0.7-2,1l-1,0.5
		c-0.3,0.2-0.7,0.3-1.1,0.5l-2.2,0.9l-1.1,0.4l-1.2,0.3l-2.4,0.7c-0.8,0.2-1.6,0.3-2.5,0.5l-1.3,0.2c-0.2,0-0.4,0.1-0.6,0.1
		l-0.7,0.1c-1.7,0.2-3.5,0.3-5.2,0.2c-0.9,0-1.8,0-2.7-0.1l-2.8-0.3c-0.4-0.1-0.9-0.1-1.4-0.2l-1.3-0.3c-0.9-0.2-1.8-0.4-2.7-0.7
		c-1.8-0.5-3.6-1.2-5.4-2l-1.3-0.6c-0.2-0.1-0.5-0.2-0.7-0.3l-0.6-0.4l-2.6-1.5c-0.8-0.5-1.6-1.1-2.5-1.7c-0.4-0.3-0.8-0.6-1.2-0.9
		l-1.1-1c-1.5-1.3-3-2.8-4.4-4.3l-1.9-2.5l-0.5-0.6l-0.4-0.7l-0.8-1.3l-0.8-1.3l-0.8-1.4l-0.7-1.4l-0.4-0.7l-0.3-0.8l-1.2-3
		c-0.3-1-0.6-2.1-0.9-3.1c-2.2-8.7-1.5-17.8,2-26c0.5-1,0.9-2,1.4-3s1.1-1.9,1.6-2.8l0.4-0.7l0.5-0.6l0.9-1.3l0.9-1.3l1-1.2l1-1.2
		c0.2-0.2,0.3-0.4,0.5-0.6l0.6-0.5l2.3-2.1c1.6-1.3,3.3-2.5,5-3.6l1.3-0.8c0.4-0.3,0.9-0.5,1.3-0.7c0.9-0.4,1.8-0.9,2.7-1.3l2.8-1.1
		l0.7-0.3c0.2-0.1,0.5-0.1,0.7-0.2l1.4-0.4c1.8-0.5,3.7-0.9,5.6-1.2c0.9-0.1,1.9-0.2,2.8-0.2l1.4-0.1c0.5,0,0.9,0,1.4,0l2.7,0.1
		c0.9,0.1,1.8,0.2,2.7,0.3c1.7,0.2,3.5,0.6,5.2,1l0.6,0.2l0.6,0.2l1.2,0.4c0.8,0.3,1.6,0.5,2.4,0.8l2.2,1l1.1,0.5
		c0.3,0.2,0.7,0.4,1,0.6l2,1.2c0.3,0.2,0.7,0.4,1,0.6l0.9,0.7c0.6,0.5,1.2,0.9,1.8,1.3l1.7,1.5c4,3.5,7.3,7.8,9.7,12.6
		c1.8,3.6,3,7.4,3.6,11.3c0.1,0.4,0.1,0.8,0.2,1.2c0.1,0.4,0.1,0.7,0.1,1.1c0,0.7,0.1,1.4,0.1,2s0.1,1.2,0.1,1.7s0,1,0,1.4
		c0,0.9-0.1,1.5-0.1,2S123.7,155.5,123.7,155.5z"/>
</g>
<g>
	<path class="st4" d="M80.1,154.2c1.2-1.7,3-3.6,5.3-5.7c1.8-1.6,3.1-2.9,3.9-4.1c0.9-1.2,1.3-2.5,1.3-3.9c0-2.1-0.8-3.7-2.5-5
		c-1.7-1.3-3.9-1.9-6.7-1.9c-5.3,0-9.3,1.9-12,5.7l-7.1-4.6c2.1-2.9,4.8-5.1,8.2-6.7c3.3-1.5,7.3-2.3,11.8-2.3
		c5.5,0,9.9,1.2,13.1,3.6c3.3,2.4,4.9,5.7,4.9,9.8c0,2-0.3,3.8-1,5.3c-0.7,1.5-1.5,2.8-2.4,3.9c-0.9,1.1-2.2,2.3-3.7,3.6
		c-1.9,1.7-3.3,3.1-4.2,4.4c-0.9,1.3-1.4,2.8-1.4,4.6h-9.3C78.3,158.1,78.9,155.9,80.1,154.2z M78.8,176.7c-1.1-1.1-1.7-2.5-1.7-4.1
		c0-1.6,0.6-3,1.7-4c1.1-1.1,2.5-1.6,4.2-1.6c1.7,0,3.1,0.5,4.2,1.6c1.1,1.1,1.7,2.4,1.7,4c0,1.6-0.6,3-1.7,4.1
		c-1.1,1.1-2.5,1.7-4.2,1.7C81.3,178.3,79.9,177.8,78.8,176.7z"/>
</g>
</svg>
