<?xml version="1.0" encoding="utf-8"?>
<!-- Generator: Adobe Illustrator 24.0.0, SVG Export Plug-In . SVG Version: 6.00 Build 0)  -->
<svg version="1.1" id="Layer_1" xmlns="http://www.w3.org/2000/svg" xmlns:xlink="http://www.w3.org/1999/xlink" x="0px" y="0px"
	 viewBox="0 0 500 307.5" style="enable-background:new 0 0 500 307.5;" xml:space="preserve">
<style type="text/css">
	.st0{fill:#F5F5F5;}
	.st1{fill:#E0E0E0;}
	.st2{fill:#EBEBEB;}
	.st3{fill:#708bfc;}
	.st4{opacity:0.2;}
	.st5{opacity:0.3;}
	.st6{fill:#FFFFFF;}
	.st7{fill:#FAFAFA;}
	.st8{fill:#263238;}
	.st9{fill:#455A64;}
	.st10{opacity:0.4;}
	.st11{opacity:0.8;}
	.st12{fill:#FFBE9D;}
	.st13{opacity:0.6;}
	.st14{fill:#D79870;}
</style>
<title>Events</title>
<g id="Windows">
	<path class="st0" d="M97.7,282.7c0.3-2.5-3.1-4.5-5.7-4.7c-1.2,0-2.5-0.1-3.7-0.3c-2.5-0.9-3.6-4.2-6-5.2c-1.9-0.8-4-0.1-5.8,0.8
		s-3.6,2-5.6,2.2c-1.7,0.1-3.6-0.5-5.2,0.3c-1.1,0.6-1.7,1.9-2.8,2.7c-1.1,0.7-2.4,1-3.6,1c-1.3,0-2.6,0.2-3.8,0.6
		c-1.2,0.5-2,1.7-1.9,3L97.7,282.7z"/>
	<path class="st0" d="M452.1,66.4c0.6-4-5.1-7.3-9.4-7.7c-2-0.2-4.2,0.1-6.1-0.5c-4.2-1.5-5.8-6.8-9.9-8.6c-3-1.3-6.6-0.1-9.5,1.3
		c-3,1.5-5.9,3.4-9.1,3.6c-2.9,0.2-6-0.9-8.5,0.5c-1.9,1-2.9,3.2-4.6,4.5c-1.8,1.1-3.9,1.7-6,1.6c-2.1,0-4.2,0.3-6.2,1
		c-1.9,0.9-3.4,2.9-3.1,5L452.1,66.4z"/>
	<path class="st0" d="M33.3,167.1l18.3-2.8c1.5,10.1-5.4,19.5-15.5,21s-19.5-5.4-21-15.5c-1.5-10,5.4-19.4,15.4-21
		c1.6-0.2,3.2-0.3,4.8-0.1L33.3,167.1z"/>
	<path class="st1" d="M39.2,148.9L37,163l13.9-2.6C50.9,160.4,48.8,152.5,39.2,148.9z"/>
	<path class="st2" d="M380,221.5c1.6,0,3.2,0.3,4.7,0.7l3.1-3.2l6.3,3.8l-1.4,4.2c1.1,1.2,2.1,2.5,2.8,3.9l4.4-0.1l1.7,7.1l-4,2
		c0,1.6-0.3,3.2-0.7,4.7l3.2,3.1l-3.8,6.2l-4.2-1.4c-1.1,1.1-2.4,2.1-3.8,2.8l0.1,4.4l-7.1,1.7l-2-4c-1.6,0-3.2-0.3-4.7-0.7
		l-3.1,3.2l-6.3-3.8l1.4-4.2c-1.1-1.2-2.1-2.5-2.8-3.9l-4.4,0.1l-1.7-7.1l4-2c0-1.6,0.3-3.2,0.7-4.7l-3.2-3.1l3.8-6.3l4.2,1.4
		c1.2-1.1,2.5-2.1,3.9-2.8l-0.1-4.4l7.1-1.7L380,221.5L380,221.5z M378.1,231.8c-4.2,1-6.8,5.3-5.7,9.5c1,4.2,5.3,6.8,9.5,5.7
		c4.2-1,6.8-5.3,5.8-9.5C386.6,233.4,382.3,230.8,378.1,231.8L378.1,231.8L378.1,231.8z"/>
	<path class="st2" d="M378.1,231.8c0.6-0.2,1.3-0.3,1.9-0.3c3.1,0,5.9,1.8,7.3,4.6c0.6,1.3,0.8,2.8,0.7,4.2
		c-0.2,1.6-0.8,3.1-1.8,4.3c-2.2,2.7-6,3.7-9.3,2.3c-0.8-0.3-1.4-0.7-2.1-1.3c-0.6-0.5-1.1-1.1-1.6-1.7c-1.5-2.3-1.8-5.2-0.6-7.7
		c0.7-1.7,2-3,3.6-3.8C376.8,232.1,377.4,231.9,378.1,231.8c-0.6,0.2-1.2,0.4-1.8,0.7c-1.5,0.9-2.7,2.2-3.4,3.8
		c-1,2.4-0.8,5.1,0.7,7.3c0.4,0.6,0.9,1.2,1.5,1.6c0.6,0.5,1.3,0.9,2,1.1c3.1,1.3,6.6,0.4,8.8-2.1c0.5-0.6,0.9-1.2,1.2-2
		c0.3-0.7,0.5-1.4,0.6-2.1c0.3-2.6-0.7-5.2-2.8-6.8c-1.4-1.1-3-1.7-4.8-1.8C378.8,231.7,378.1,231.9,378.1,231.8z"/>
	<path class="st2" d="M204.5,245.8c-0.1-0.5-0.2-1-0.2-1.5c0-0.6-0.1-1.2-0.2-1.7c-0.1-0.8-0.3-1.6-0.5-2.4
		c-0.5-2.1-1.3-4.2-2.4-6.1c-5.4-9.4-16.6-13.6-26.8-10.1c-2,0.7-4,1.7-5.7,2.9c-0.9,0.6-1.8,1.3-2.6,2.1s-1.6,1.7-2.3,2.5
		c-6,7.7-6.2,18.4-0.6,26.4c0.6,0.9,1.4,1.8,2.1,2.6c0.8,0.8,1.6,1.5,2.5,2.2c1.7,1.3,3.6,2.4,5.6,3.2c7.1,2.8,15.1,1.8,21.3-2.6
		c2.4-1.7,4.4-3.8,5.9-6.2c1.2-1.8,2.1-3.8,2.7-5.9c0.2-0.7,0.4-1.5,0.6-2.3c0.1-0.6,0.2-1.2,0.3-1.7
		C204.3,246.8,204.4,246.3,204.5,245.8c0,0.5,0,1,0,1.5c0,0.6-0.1,1.2-0.2,1.8c-0.1,0.8-0.3,1.6-0.5,2.4c-0.5,2.2-1.4,4.3-2.6,6.2
		c-1.6,2.6-3.6,4.8-6,6.5c-6.4,4.7-14.8,5.9-22.3,3c-2.1-0.8-4.1-1.9-5.9-3.3c-0.9-0.7-1.8-1.5-2.6-2.3c-0.8-0.9-1.6-1.8-2.3-2.8
		c-5.9-8.4-5.7-19.7,0.7-27.9c0.7-0.9,1.5-1.8,2.4-2.7c0.9-0.8,1.8-1.5,2.7-2.2c1.8-1.3,3.9-2.3,6.1-3c7.6-2.5,15.9-1,22.1,4
		c2.3,1.9,4.3,4.2,5.7,6.8c1.1,2,1.9,4.1,2.3,6.3c0.2,0.8,0.3,1.6,0.4,2.4c0.1,0.6,0.1,1.2,0.1,1.8
		C204.6,244.8,204.6,245.3,204.5,245.8z"/>
	<path class="st2" d="M199.9,231.4c0,0.1-0.4,0.4-1.1,1l-1.5,1.1c-0.3,0.2-0.6,0.4-0.9,0.6l-1.1,0.6c-4.1,2.3-8.8,3.5-13.5,3.4
		l-2-0.1l-2-0.3l-1-0.2l-0.9-0.2c-0.6-0.2-1.2-0.3-1.8-0.5c-2-0.7-3.9-1.6-5.7-2.6c-3.1-1.9-4.6-3.6-4.5-3.7
		c0.1-0.1,1.8,1.3,4.9,2.9c1.8,0.9,3.7,1.7,5.6,2.3c0.5,0.2,1.1,0.3,1.7,0.4l0.9,0.2l0.9,0.1l1.9,0.3l1.9,0.1
		c4.5,0.1,9-0.9,13.1-2.9l1.1-0.5c0.4-0.2,0.7-0.4,1-0.5l1.6-0.9C199.4,231.6,199.9,231.3,199.9,231.4z"/>
	<path class="st2" d="M163.2,259.3c0-0.1,0.4-0.4,1.1-1l1.5-1.1c0.3-0.2,0.6-0.4,0.9-0.6l1.1-0.6c4.1-2.4,8.8-3.5,13.5-3.4l2.1,0.1
		l2,0.3c0.3,0,0.7,0.1,1,0.2l0.9,0.2c0.6,0.2,1.1,0.3,1.8,0.5c2,0.7,3.9,1.6,5.7,2.6c3.1,1.9,4.6,3.6,4.5,3.7s-1.8-1.3-4.9-2.9
		c-1.8-0.9-3.7-1.7-5.7-2.3c-0.5-0.2-1.1-0.3-1.7-0.4l-0.9-0.2l-0.9-0.1l-1.9-0.3l-2-0.1c-4.5-0.1-9,0.9-13.1,2.9l-1.1,0.5
		c-0.3,0.2-0.7,0.4-1,0.5l-1.6,0.9C163.7,259.2,163.3,259.4,163.2,259.3z"/>
	<path class="st2" d="M204.5,246.3c0,0.4-10.3,0.4-23,0.1c-12.7-0.3-23-0.8-23-1.1s10.3-0.4,23-0.1
		C194.3,245.5,204.5,245.9,204.5,246.3z"/>
	<path class="st2" d="M180.5,268.2c-0.4,0-0.4-10.3-0.1-23c0.3-12.7,0.8-23,1.1-22.9s0.4,10.3,0.1,23
		C181.3,258,180.8,268.2,180.5,268.2z"/>
	<path class="st2" d="M180.5,268.1c-0.1,0.1-2.6-1.6-5.5-5.5c-1.7-2.3-3.1-4.8-4.1-7.5c-1.2-3.3-1.8-6.8-1.8-10.3
		c0.1-3.5,0.9-7,2.3-10.2c1.2-2.6,2.7-5,4.5-7.2c3.1-3.7,5.7-5.4,5.7-5.3s-2.2,2-5,5.8c-1.7,2.2-3,4.6-4.1,7.1
		c-1.3,3.1-2,6.4-2.1,9.7c-0.1,3.4,0.5,6.7,1.6,9.9c0.9,2.6,2.2,5.1,3.7,7.3C178.3,266,180.6,268,180.5,268.1z"/>
	<path class="st2" d="M182.1,222.2c0.1-0.1,2.6,1.6,5.5,5.5c1.7,2.3,3.1,4.8,4.1,7.5c1.2,3.3,1.8,6.8,1.8,10.3
		c-0.1,3.5-0.9,7-2.3,10.2c-1.2,2.6-2.7,5-4.5,7.2c-3.1,3.7-5.7,5.4-5.7,5.3s2.2-2,5-5.8c1.7-2.2,3-4.6,4.1-7.1
		c1.3-3.1,2-6.4,2.1-9.7c0.1-3.4-0.5-6.7-1.6-9.9c-0.9-2.6-2.2-5.1-3.7-7.3C184.2,224.3,182,222.4,182.1,222.2z"/>
	
		<rect x="111.9" y="115.6" transform="matrix(0.9961 -8.854413e-02 8.854413e-02 0.9961 -10.8675 12.1133)" class="st0" width="38.4" height="25.9"/>
	<path class="st1" d="M149.1,114c-0.1,0.1-0.2,0.3-0.3,0.4l-1,1l-3.7,3.7l-12.2,12.3l-0.1,0.1l-0.1-0.1l-0.3-0.2l-14.6-9.7l-4.4-3
		l-1.1-0.8l-0.4-0.3c0.2,0.1,0.3,0.2,0.4,0.3c0.3,0.2,0.7,0.4,1.2,0.8l4.5,2.9l14.7,9.6l0.3,0.2h-0.2l12.3-12.2l3.7-3.7l1-1
		C148.8,114.2,148.9,114.1,149.1,114z"/>
	<path class="st1" d="M113,143.2c-0.1,0,2.5-3.8,5.7-8.5c3.2-4.6,5.9-8.3,6-8.3c0.1,0.1-2.5,3.8-5.7,8.5S113.1,143.2,113,143.2z"/>
	<path class="st1" d="M137.5,125c0.1,0,3.2,3.2,7,7.3s6.8,7.4,6.8,7.5s-3.2-3.2-7-7.3S137.4,125,137.5,125z"/>
	<path class="st2" d="M148.8,61.8c0.8-6.2-7.8-11.2-14.4-11.7c-3.1-0.3-6.3,0.2-9.3-0.8c-6.4-2.2-8.9-10.5-15.2-13.1
		c-4.7-2-10-0.2-14.5,2.1s-9,5.1-14,5.5c-4.4,0.3-9.1-1.3-13,0.8c-2.9,1.6-4.4,4.9-7,6.8c-2.6,2-5.9,2.3-9.1,2.5s-6.5,0.2-9.4,1.5
		s-5.3,4.4-4.7,7.6L148.8,61.8z"/>
	<path class="st2" d="M291.7,294.3c0.5-3.8-4.9-7-9-7.4c-2-0.2-4,0.1-5.8-0.5c-4-1.4-5.6-6.6-9.5-8.2c-2.9-1.2-6.3-0.1-9.1,1.3
		c-2.8,1.4-5.6,3.2-8.8,3.4c-2.8,0.2-5.7-0.8-8.2,0.5c-1.8,1-2.7,3.1-4.4,4.3c-1.7,1.1-3.7,1.6-5.7,1.6s-4,0.3-5.9,1
		c-1.8,0.8-3.3,2.8-3,4.7L291.7,294.3z"/>
	<path class="st0" d="M280.8,31.4c0.6-4-5.1-7.3-9.4-7.7c-2-0.2-4.2,0.1-6.1-0.5c-4.2-1.5-5.8-6.8-9.9-8.6c-3.1-1.3-6.6-0.1-9.5,1.3
		c-3,1.5-5.9,3.4-9.1,3.6c-2.9,0.2-6-0.9-8.5,0.5c-1.9,1.1-2.9,3.2-4.6,4.5c-1.8,1.1-3.9,1.7-6,1.6s-4.2,0.3-6.2,1
		c-1.9,0.9-3.4,2.9-3.1,5L280.8,31.4z"/>
	<path class="st3" d="M245.5,134.2L221.1,147c-1.7,0.9-3.7,0.3-4.6-1.4l0,0l-17.7-33.7c-0.9-1.7-0.3-3.7,1.4-4.6l0,0l15.5-8.1
		l18.4,6l12.9,24.5C247.8,131.2,247.2,133.3,245.5,134.2L245.5,134.2z"/>
	<path class="st3" d="M215.6,99l5,9.5c0.8,1.6,2.8,2.2,4.3,1.3l9.1-4.8L215.6,99z"/>
	<g class="st4">
		<path d="M221.2,109.3c0.8,1.5,2.5,2.2,4.1,1.7l0.3-0.1c1.3-0.4,9.9-3.1,9.8-3.3L234,105l-9.1,4.8
			C224.9,109.9,222.6,111,221.2,109.3z"/>
	</g>
	<g class="st5">
		<path class="st6" d="M215.6,99l5,9.5c0.8,1.6,2.8,2.2,4.3,1.3l9.1-4.8L215.6,99z"/>
	</g>
	<path class="st7" d="M218.4,109.2c-1.7,1.2-3.6,2.3-5.5,3.2c-1.8,1.1-3.8,2-5.8,2.8c1.8-1.2,3.6-2.3,5.5-3.2
		C214.4,110.9,216.4,110,218.4,109.2z"/>
	<path class="st7" d="M228.5,110.8c0,0.1-4,2.4-9.1,5.1s-9.3,4.8-9.4,4.7c-0.1-0.1,4-2.4,9.1-5.1
		C224.2,112.7,228.4,110.6,228.5,110.8z"/>
	<path class="st7" d="M232.5,114.4c0,0.1-4.4,2.6-10,5.5s-10.2,5.2-10.3,5.1s4.4-2.6,10-5.5S232.4,114.2,232.5,114.4z"/>
	<path class="st7" d="M234.7,118.6c0.1,0.1-4.4,2.6-10,5.5s-10.2,5.2-10.3,5.1s4.4-2.6,10-5.5C230,120.7,234.7,118.5,234.7,118.6z"
		/>
	<path class="st7" d="M236.9,122.8c0,0.1-4.4,2.6-10,5.5c-5.6,2.9-10.2,5.2-10.3,5.1c-0.1-0.1,4.4-2.6,10-5.5
		C232.2,125,236.9,122.7,236.9,122.8z"/>
	<path class="st7" d="M239.2,127.1c0.1,0.1-4.4,2.6-10,5.5s-10.2,5.2-10.3,5.1c-0.1-0.1,4.4-2.6,10-5.5
		C234.5,129.2,239.1,126.9,239.2,127.1z"/>
	
		<rect x="152.8" y="160.5" transform="matrix(0.4482 -0.8939 0.8939 0.4482 -60.1671 227.3248)" class="st8" width="2.5" height="3.8"/>
	<path class="st9" d="M154.6,159.9l-2.3,4.6l-3.7-1.9c0.3-1.7,1.1-3.3,2.3-4.6L154.6,159.9z"/>
	<path class="st8" d="M152.7,163.7c-1.4-0.5-2.7-1.1-3.9-1.9C150.2,162.2,151.5,162.9,152.7,163.7z"/>
	<path class="st8" d="M153.1,162.8c-0.7-0.2-1.4-0.5-2-0.9c-0.7-0.3-1.3-0.7-1.9-1.1c0.7,0.2,1.4,0.5,2,0.9
		C151.9,161.9,152.5,162.3,153.1,162.8z"/>
	<path class="st8" d="M153.7,161.6c-0.7-0.2-1.4-0.5-2-0.9c-0.7-0.3-1.3-0.7-1.9-1.1c0.7,0.2,1.4,0.5,2,0.9
		C152.5,160.8,153.1,161.2,153.7,161.6z"/>
	<path class="st8" d="M154.2,160.6c-0.7-0.2-1.4-0.5-2-0.8c-0.7-0.3-1.3-0.7-1.9-1.1C151.7,159.1,153,159.7,154.2,160.6L154.2,160.6
		z"/>
	
		<rect x="180.6" y="149.8" transform="matrix(0.4008 -0.9162 0.9162 0.4008 -29.0615 257.7095)" class="st8" width="3.8" height="2.5"/>
	<path class="st9" d="M185.2,151.4l-4.7-2l1.7-3.8c1.7,0.2,3.3,1,4.7,2L185.2,151.4z"/>
	<path class="st8" d="M181.3,149.7c0.1-0.7,0.4-1.4,0.7-2c0.2-0.7,0.6-1.3,1-1.9c-0.2,0.7-0.4,1.4-0.7,2
		C182,148.5,181.7,149.1,181.3,149.7z"/>
	<path class="st8" d="M182.2,150.1c0.2-0.7,0.4-1.4,0.8-2.1c0.3-0.7,0.6-1.3,1-2c-0.1,0.7-0.4,1.4-0.8,2.1
		C183,148.8,182.6,149.5,182.2,150.1z"/>
	<path class="st8" d="M183.3,150.6c0.2-0.7,0.5-1.4,0.8-2.1c0.3-0.7,0.7-1.4,1.1-2c-0.2,0.7-0.4,1.4-0.8,2.1
		C184.2,149.4,183.8,150,183.3,150.6z"/>
	<path class="st8" d="M184.4,151.1c0.4-1.4,1-2.7,1.8-4c-0.2,0.7-0.4,1.4-0.7,2C185.2,149.8,184.9,150.5,184.4,151.1z"/>
	
		<rect x="164.7" y="148.4" transform="matrix(0.9227 -0.3854 0.3854 0.9227 -45.2433 75.6791)" class="st8" width="2.9" height="4.6"/>
	<path class="st3" d="M168.6,148.7L163,151l-1.9-4.6c1.6-1.2,3.5-2,5.5-2.3L168.6,148.7z"/>
	<path class="st8" d="M166.7,144.1c-0.6,0.9-1.5,1.5-2.5,1.9c-1,0.5-2.1,0.6-3.1,0.5c1-0.2,2-0.4,3-0.8
		C165,145.3,165.9,144.8,166.7,144.1z"/>
	<path class="st8" d="M164.9,150.2c-0.4-0.6-0.7-1.2-0.9-1.9c-0.3-0.6-0.5-1.3-0.7-2c0.4,0.6,0.7,1.2,1,1.9
		C164.5,148.8,164.7,149.5,164.9,150.2z"/>
	<path class="st8" d="M165.9,149.8c-0.4-0.6-0.7-1.2-0.9-1.9c-0.3-0.6-0.5-1.3-0.7-2C165,147.1,165.6,148.4,165.9,149.8L165.9,149.8
		z"/>
	<path class="st8" d="M167,149.3c-0.7-1.2-1.3-2.5-1.6-3.9C166.1,146.7,166.6,148,167,149.3z"/>
	<path class="st8" d="M167.8,149c-0.4-0.6-0.8-1.3-1-2.1c-0.3-0.7-0.6-1.4-0.7-2.2c0.4,0.6,0.8,1.3,1,2.1
		C167.4,147.5,167.7,148.2,167.8,149z"/>
	<path class="st8" d="M163.8,150.6c-0.4-0.6-0.8-1.3-1-2.1c-0.3-0.7-0.6-1.4-0.7-2.2c0.4,0.6,0.8,1.3,1,2.1
		C163.4,149.1,163.7,149.9,163.8,150.6z"/>
	<circle class="st3" cx="174.3" cy="171.2" r="21.3"/>
	<ellipse class="st7" cx="174.2" cy="171.1" rx="17.9" ry="17.9"/>
	<path class="st8" d="M190.7,164.2c0,0-0.1-0.1-0.1-0.3l-0.4-0.8l-0.3-0.6c-0.1-0.2-0.3-0.4-0.4-0.6c-0.3-0.5-0.7-1.1-1.1-1.6
		c-1-1.4-2.3-2.6-3.6-3.6c-4.1-3-9.3-4.1-14.3-3.1c-0.7,0.2-1.5,0.4-2.2,0.6c-0.4,0.1-0.7,0.3-1.1,0.4l-1.1,0.5l-0.5,0.3l-0.5,0.3
		c-0.3,0.2-0.7,0.4-1,0.6c-0.7,0.5-1.3,1-1.9,1.6c-0.6,0.6-1.2,1.2-1.7,1.8c-0.3,0.3-0.5,0.7-0.8,1c-0.3,0.4-0.5,0.7-0.7,1.1
		c-0.4,0.8-0.8,1.5-1.1,2.3s-0.6,1.7-0.8,2.6c-0.4,1.8-0.6,3.6-0.5,5.5c0.2,1.9,0.6,3.7,1.3,5.5c0.8,1.7,1.8,3.4,3,4.8
		c1.2,1.4,2.6,2.6,4.2,3.5c0.8,0.5,1.6,0.9,2.4,1.2c0.8,0.3,1.7,0.6,2.5,0.8c0.4,0.1,0.8,0.2,1.3,0.3c0.4,0.1,0.9,0.1,1.3,0.2
		c0.8,0.1,1.7,0.1,2.5,0c0.8,0,1.6-0.1,2.4-0.3c0.4-0.1,0.8-0.2,1.1-0.3l0.6-0.1c0.2-0.1,0.4-0.1,0.6-0.2l1.1-0.4
		c0.4-0.1,0.7-0.3,1.1-0.5c0.7-0.3,1.3-0.7,2-1.1c2.3-1.5,4.2-3.5,5.6-5.9c1.1-2,1.9-4.1,2.2-6.4c0.3-1.7,0.3-3.4,0-5.1
		c-0.1-0.6-0.2-1.2-0.4-1.8c-0.1-0.3-0.1-0.5-0.2-0.7l-0.2-0.6L190.7,164.2C190.8,164.3,190.8,164.2,190.7,164.2c0,0,0,0,0.1,0.2
		l0.3,0.8c0.1,0.2,0.1,0.4,0.2,0.6c0.1,0.2,0.1,0.5,0.2,0.7c0.2,0.6,0.3,1.2,0.4,1.8c0.3,1.7,0.3,3.5,0,5.2
		c-0.7,5.1-3.6,9.7-7.9,12.5c-0.6,0.4-1.3,0.8-2,1.1c-0.3,0.2-0.7,0.4-1.1,0.5l-1.1,0.4c-0.2,0.1-0.4,0.1-0.6,0.2l-0.6,0.1
		c-0.4,0.1-0.8,0.2-1.2,0.3c-0.8,0.2-1.6,0.2-2.5,0.3s-1.7,0.1-2.6,0c-0.4,0-0.9-0.1-1.3-0.2c-0.4-0.1-0.9-0.2-1.3-0.3
		c-0.9-0.2-1.7-0.5-2.6-0.8c-0.8-0.4-1.7-0.8-2.4-1.2c-1.6-0.9-3.1-2.2-4.3-3.6c-2.6-2.9-4.1-6.6-4.4-10.5c-0.1-1.9,0-3.8,0.5-5.6
		c0.2-0.9,0.5-1.8,0.8-2.6s0.8-1.6,1.2-2.4c0.2-0.4,0.5-0.8,0.7-1.1c0.3-0.4,0.5-0.7,0.8-1.1c0.6-0.7,1.1-1.3,1.8-1.8
		c0.6-0.6,1.3-1.1,2-1.6c0.3-0.2,0.7-0.4,1-0.6l0.5-0.3c0.2-0.1,0.4-0.2,0.5-0.3l1.1-0.5c0.4-0.2,0.7-0.3,1.1-0.4
		c0.7-0.3,1.5-0.5,2.2-0.6c5-1,10.3,0.1,14.4,3.2c1.4,1,2.6,2.3,3.6,3.7c0.4,0.5,0.7,1,1,1.6c0.1,0.2,0.3,0.4,0.4,0.7l0.3,0.6
		l0.4,0.8L190.7,164.2z"/>
	<path class="st8" d="M188.2,164.9c-0.9,0.5-1.8,0.8-2.8,1c0.8-0.6,1.6-1.1,2.6-1.5c1.5-0.7,2.7-1.1,2.8-1
		C190.9,163.6,189.7,164.3,188.2,164.9z"/>
	<path class="st8" d="M188.5,176.5c-1-0.3-1.9-0.7-2.7-1.3c1,0.1,2,0.4,2.9,0.7c1.5,0.5,2.7,1.1,2.7,1.3
		C190.4,177.3,189.4,177,188.5,176.5z"/>
	<path class="st8" d="M180.6,185c-0.5-0.9-0.8-1.8-1-2.8c0.6,0.8,1.1,1.6,1.5,2.5c0.5,0.8,0.9,1.8,1,2.8
		C181.9,187.6,181.2,186.5,180.6,185z"/>
	<path class="st8" d="M169,185.4c0.3-1,0.7-1.9,1.2-2.7c-0.1,1-0.3,2-0.7,2.9c-0.5,1.6-1.1,2.8-1.2,2.7
		C168.3,187.3,168.5,186.3,169,185.4z"/>
	<path class="st8" d="M160.4,177.5c0.9-0.5,1.8-0.8,2.8-1.1c-0.8,0.6-1.6,1.2-2.5,1.6c-0.8,0.6-1.8,0.9-2.8,1
		C157.8,178.9,159,178.2,160.4,177.5z"/>
	<path class="st8" d="M159.9,166c1,0.3,1.9,0.7,2.7,1.2c-1-0.1-2-0.3-2.9-0.7c-1.6-0.5-2.8-1-2.7-1.2C158,165.3,159,165.6,159.9,166
		z"/>
	<path class="st8" d="M167.7,157.3c0.5,0.9,0.9,1.8,1.1,2.8c-0.6-0.8-1.2-1.6-1.6-2.5c-0.8-1.4-1.2-2.7-1.1-2.8
		C166.3,154.7,167,155.9,167.7,157.3z"/>
	<path class="st8" d="M179.2,156.7c-0.2,1-0.6,1.9-1.1,2.7c0.1-1,0.3-2,0.6-2.9c0.5-1.6,1-2.8,1.1-2.7
		C179.9,154.8,179.7,155.8,179.2,156.7z"/>
	<path class="st8" d="M187.9,164.3c-0.9,0.5-1.8,0.9-2.8,1.1c0.7-0.6,1.6-1.2,2.5-1.6c1.4-0.8,2.7-1.3,2.8-1.1
		S189.4,163.6,187.9,164.3z"/>
	<path class="st6" d="M160.4,155.9c-0.2,0.3-0.5,0.5-0.7,0.7c-0.6,0.7-1.2,1.4-1.8,2.1c-3.7,4.9-5,11.2-3.6,17.2
		c0.2,0.9,0.5,1.7,0.9,2.6c0.1,0.3,0.2,0.6,0.3,0.9c0,0-0.1-0.1-0.1-0.2c-0.1-0.2-0.2-0.4-0.3-0.7c-0.4-0.9-0.7-1.7-0.9-2.6
		c-1.6-6-0.2-12.5,3.6-17.4c0.6-0.7,1.2-1.4,1.9-2.1c0.2-0.2,0.4-0.4,0.6-0.5H160.4z"/>
	<path class="st6" d="M165.5,152.6c-0.6,0.4-1.2,0.8-1.8,1.1c-0.6,0.4-1.2,0.7-1.9,1c0.5-0.5,1.1-0.9,1.7-1.3
		C164.1,153.1,164.8,152.8,165.5,152.6z"/>
	<g class="st10">
		<path d="M165.2,186.5c0,0,14.2,9.9,24.5-2.5c10.8-13-3.7-26.3-3.7-26.3s12,10.4,2.1,24.6c-2.2,3-5.4,5.1-9,5.9
			C174.4,189.5,169.5,188.9,165.2,186.5z"/>
	</g>
	<path class="st1" d="M175.2,160.4c1.1,2.4,2,4.8,2.8,7.3c0.3,0.9,0.5,1.8,0.6,2.8c0,1-0.3,1.9-0.9,2.6c-0.7,0.7-1.7,0.9-2.6,0.5
		L175.2,160.4z"/>
	<polygon class="st3" points="173.4,169.9 175.1,157.4 176.3,170.2 174.7,171.6 	"/>
	<g class="st10">
		<polygon points="175.1,157.4 175,169.5 176.3,170.2 		"/>
	</g>
	<path class="st7" d="M176.6,170.8c0.4,1.1-0.1,2.3-1.1,2.7c-1.1,0.4-2.3-0.1-2.7-1.1c-0.4-1.1,0.1-2.3,1.1-2.7
		C174.9,169.2,176.1,169.7,176.6,170.8C176.6,170.7,176.6,170.8,176.6,170.8z"/>
	<path class="st8" d="M176.6,170.8c0,0-0.1-0.2-0.3-0.4c-0.3-0.4-0.7-0.6-1.1-0.7c-0.7-0.2-1.3,0-1.8,0.5c-0.8,0.7-0.9,1.9-0.2,2.8
		c0.4,0.5,1,0.7,1.6,0.7c0.7,0,1.3-0.4,1.6-0.9c0.2-0.4,0.3-0.8,0.3-1.3C176.7,171,176.5,170.8,176.6,170.8c0.1,0.2,0.1,0.4,0.2,0.5
		c0.1,0.5,0,1-0.2,1.4c-0.4,0.7-1,1.1-1.8,1.1c-1.2,0.1-2.3-0.9-2.3-2.1c0-0.7,0.2-1.3,0.7-1.8c0.6-0.5,1.3-0.7,2.1-0.5
		c0.5,0.1,0.9,0.4,1.1,0.8C176.5,170.5,176.5,170.6,176.6,170.8z"/>
	<path class="st9" d="M176.1,171c0.3,0.8,0,1.7-0.8,2s-1.7,0-2-0.8s0-1.7,0.8-2C174.8,169.8,175.8,170.2,176.1,171
		C176.1,170.9,176.1,171,176.1,171z"/>
	<path class="st3" d="M146.6,223.8c0.4-0.1,0.7-0.3,0.9-0.6c0.3-0.4,0.5-0.8,0.5-1.3c0-0.3-0.1-0.6-0.1-0.9c-0.1-0.3-0.2-0.7-0.3-1
		c-0.7-2.8-1.7-6.8-2.9-11.9c-0.3-1.2-0.6-2.6-1-3.9l-0.5-2.1c-0.1-0.3-0.2-0.7-0.3-1c-0.2-0.3-0.4-0.6-0.7-0.8s-0.6-0.3-1-0.2
		s-0.8,0.1-1.1,0.3l-2.3,0.6l-4.8,1.3l-21.5,5.5c-0.9,0.3-1.4,1.1-1.3,2c0.2,0.9,0.5,1.9,0.7,2.8c0.4,1.9,0.9,3.7,1.3,5.5
		c0.9,3.6,1.7,7.1,2.5,10.4c0.1,0.4,0.2,0.8,0.3,1.2c0.1,0.4,0.3,0.7,0.5,1c0.3,0.3,0.6,0.4,1,0.5c0.4,0,0.8,0,1.1-0.2l4.6-1.1
		l8.2-2.1l11.9-3l3.2-0.8l0.8-0.2H146.6l-0.3,0.1l-0.8,0.2l-3.2,0.9l-11.8,3.1l-8.2,2.1l-4.6,1.1c-0.4,0.1-0.8,0.2-1.3,0.2
		c-0.5-0.1-0.9-0.3-1.2-0.6c-0.3-0.3-0.5-0.7-0.6-1.1c-0.1-0.4-0.2-0.8-0.3-1.2c-0.8-3.3-1.7-6.8-2.5-10.4c-0.4-1.8-0.9-3.6-1.3-5.5
		c-0.2-0.9-0.4-1.9-0.7-2.8c-0.2-1.1,0.5-2.2,1.6-2.5l21.5-5.5l4.8-1.2l2.3-0.6c0.4-0.1,0.8-0.2,1.1-0.3c0.4,0,0.8,0.1,1.1,0.3
		s0.6,0.5,0.8,0.9c0.1,0.4,0.2,0.8,0.3,1.1c0.2,0.7,0.3,1.4,0.5,2.1c0.3,1.4,0.7,2.7,0.9,3.9l2.8,11.9l0.2,1
		c0.1,0.3,0.1,0.6,0.1,0.9c0,0.5-0.2,1-0.5,1.3c-0.2,0.2-0.4,0.4-0.7,0.5C146.7,223.8,146.7,223.8,146.6,223.8z"/>
	<polygon class="st3" points="129.7,213.4 134.3,214.7 130.9,218.2 127.4,221.6 126.3,216.8 125.1,212 	"/>
	
		<rect x="62.8" y="180.5" transform="matrix(0.9678 -0.2519 0.2519 0.9678 -45.5451 25.1099)" class="st2" width="25" height="19.9"/>
	<path class="st8" d="M84.8,177.6L84.8,177.6l-0.4,0.1l-1.3,0.4l-4.9,1.3L60.7,184v-0.1c1.5,5.7,3.2,12.3,5,19.3l0,0h-0.1l24.1-6.3
		v0.1c-1.5-5.8-2.7-10.6-3.6-14c-0.4-1.7-0.8-3-1-3.9c-0.1-0.4-0.2-0.8-0.3-1L84.8,177.6l0.1,0.4c0,0.2,0.1,0.6,0.3,1l1,3.9l3.7,14
		l0,0l0,0l-24.1,6.3h-0.1v-0.1l0,0c-1.8-7-3.5-13.6-5-19.3v-0.1h0.1l17.5-4.5l4.9-1.3l1.3-0.3L84.8,177.6L84.8,177.6z"/>
	
		<rect x="63.7" y="181.7" transform="matrix(0.9678 -0.2519 0.2519 0.9678 -45.5322 25.1045)" class="st3" width="23.2" height="17.4"/>
	<polygon class="st3" points="66.2,201.8 71.3,189.3 77.9,194.6 80.3,190.2 88.7,196 	"/>
	<path class="st3" d="M77.9,186.2c0.2,1-0.4,2-1.3,2.2c-1,0.2-2-0.4-2.2-1.3c-0.2-1,0.3-1.9,1.3-2.2
		C76.6,184.6,77.6,185.2,77.9,186.2C77.9,186.1,77.9,186.2,77.9,186.2z"/>
	<g class="st4">
		<polygon points="66.2,201.8 71.3,189.3 77.9,194.6 80.3,190.2 88.7,196 		"/>
	</g>
	<g class="st4">
		<path d="M77.9,186.2c0.2,1-0.4,2-1.3,2.2c-1,0.2-2-0.4-2.2-1.3c-0.2-1,0.3-1.9,1.3-2.2C76.6,184.6,77.6,185.2,77.9,186.2
			C77.9,186.1,77.9,186.2,77.9,186.2z"/>
	</g>
	
		<rect x="73.9" y="163" transform="matrix(0.9976 -6.982627e-02 6.982627e-02 0.9976 -12.21 6.9147)" class="st2" width="37.8" height="30.2"/>
	<path class="st8" d="M110.3,161h-0.2h-0.5l-2,0.2l-7.7,0.6l-27.2,2l0.1-0.1c0.6,9,1.4,19.2,2.1,30.1l0,0l-0.1-0.1l37.6-2.6
		l-0.1,0.1c-0.6-9.1-1.1-16.6-1.5-21.8c-0.2-2.6-0.3-4.7-0.4-6.1l-0.1-1.6L110.3,161c0,0,0,0.2,0,0.5c0,0.4,0.1,0.9,0.1,1.6
		c0.1,1.4,0.3,3.4,0.5,6.1c0.4,5.3,0.9,12.8,1.6,21.9v0.1h-0.1l-37.6,2.7h-0.1v-0.1l0,0c-0.8-10.9-1.5-21.1-2.1-30.1v-0.1h0.1
		l27.2-1.9l7.7-0.5l2-0.1h0.5L110.3,161z"/>
	
		<rect x="75" y="164.1" transform="matrix(0.9975 -7.028072e-02 7.028072e-02 0.9975 -12.228 6.9423)" class="st3" width="35.1" height="26.3"/>
	<polygon class="st3" points="76,191.7 87,174.5 95.3,184.2 100.1,178.3 110.9,189.2 	"/>
	<path class="st3" d="M97.7,171.7c0.1,1.5-1,2.8-2.6,3c-1.5,0.1-2.8-1-3-2.6c-0.1-1.5,1-2.8,2.6-3l0,0
		C96.3,169,97.6,170.2,97.7,171.7z"/>
	<g class="st4">
		<polygon points="76,191.7 87,174.5 95.3,184.2 100.1,178.3 110.9,189.2 		"/>
	</g>
	<g class="st4">
		<path d="M97.7,171.7c0.1,1.5-1,2.8-2.6,3c-1.5,0.1-2.8-1-3-2.6c-0.1-1.5,1-2.8,2.6-3l0,0C96.3,169,97.6,170.2,97.7,171.7z"/>
	</g>
	<path class="st3" d="M38.4,207c-1.8-5.9-8.1-9.2-14-7.4s-9.2,8.1-7.4,14c1.3,4.2,4.9,7.2,9.2,7.8c0.4,1.3,0.8,2.7,0.8,2.7l9.4-2.9
		c0,0-0.4-1.5-0.8-2.9C38.6,215.3,39.7,211,38.4,207z"/>
	<path class="st8" d="M33,222.2V222l-0.1-0.4c-0.1-0.4-0.2-0.9-0.3-1.5c-0.1-0.7-0.2-1.5-0.3-2.5c-0.1-1.1-0.1-2.2,0-3.3
		c0.1-0.6,0.2-1.3,0.4-1.9c0.1-0.3,0.3-0.6,0.5-0.9c0.3-0.3,0.7-0.4,1-0.3c0.2,0,0.4,0.1,0.5,0.3s0.2,0.4,0.1,0.6
		c-0.1,0.4-0.3,0.7-0.6,1c-0.7,0.5-1.5,0.7-2.3,0.5c-0.8-0.1-1.6-0.6-2.1-1.3c-0.3-0.4-0.4-0.8-0.4-1.2c0-0.5,0.3-0.9,0.7-1
		c0.2,0,0.5,0,0.7,0.2s0.3,0.4,0.3,0.6c0,0.5-0.1,0.9-0.4,1.3c-0.5,0.8-1.3,1.4-2.3,1.5c-0.9,0.1-1.9-0.2-2.5-0.9
		c-0.3-0.3-0.5-0.8-0.5-1.3c0-0.2,0.1-0.5,0.3-0.6c0.2-0.2,0.4-0.2,0.7-0.1c0.2,0,0.4,0.2,0.6,0.3c0.2,0.2,0.3,0.4,0.4,0.6
		c0.5,1.2,0.2,2.6-0.7,3.5c-0.6,0.6-1.3,0.9-2.1,1c-0.4,0.1-0.8,0-1.1-0.2c-0.4-0.2-0.5-0.6-0.4-1c0.1-0.2,0.2-0.3,0.4-0.4
		c0.2-0.1,0.4-0.1,0.5-0.1c0.3,0.1,0.7,0.3,0.9,0.5c0.4,0.5,0.8,1,1.2,1.5c1.5,1.9,2.7,3.4,3.4,4.6l0.9,1.3l0.2,0.3l0.1,0.1
		l-0.1-0.1l-0.2-0.3l-0.9-1.3c-0.8-1.1-2-2.7-3.5-4.6c-0.4-0.5-0.8-1-1.2-1.4c-0.2-0.3-0.5-0.4-0.8-0.5s-0.7,0.1-0.8,0.4
		c-0.1,0.3,0,0.7,0.3,0.9s0.7,0.2,1.1,0.2c0.8-0.1,1.5-0.4,2-1c0.6-0.6,0.9-1.4,0.9-2.2c0-0.4-0.1-0.8-0.2-1.2s-0.4-0.7-0.8-0.8
		c-0.2-0.1-0.4,0-0.6,0.1s-0.3,0.3-0.3,0.5c0,0.4,0.1,0.8,0.4,1.1c0.6,0.7,1.5,1,2.4,0.9c0.9-0.2,1.7-0.7,2.2-1.4
		c0.3-0.4,0.4-0.8,0.4-1.2c0-0.2-0.1-0.4-0.3-0.5c-0.1-0.1-0.3-0.2-0.5-0.2s-0.4,0.2-0.5,0.3c-0.1,0.2-0.2,0.4-0.1,0.6
		c0,0.4,0.2,0.8,0.4,1.1c0.9,1.3,2.7,1.7,4.1,0.8c0,0,0,0,0.1,0c0.3-0.2,0.5-0.5,0.6-0.9c0.1-0.3-0.2-0.7-0.5-0.8s-0.7,0-0.9,0.3
		c-0.2,0.2-0.4,0.5-0.5,0.8c-0.2,0.6-0.3,1.2-0.4,1.8c-0.1,1.1-0.1,2.2-0.1,3.3c0.1,1,0.2,1.8,0.3,2.4l0.2,1.6v0.4
		C32.9,222,33,222.1,33,222.2z"/>
	<path class="st8" d="M36.2,223.1l-8,2.5c-0.3,0.1-0.7-0.1-0.8-0.4l0,0l0,0c-0.1-0.3,0.1-0.7,0.4-0.8l8-2.5c0.3-0.1,0.7,0.1,0.8,0.4
		l0,0l0,0C36.8,222.6,36.6,223,36.2,223.1z"/>
	<path class="st8" d="M36.4,223.6l-8,2.5c-0.3,0.1-0.5,0.5-0.4,0.8l0,0c0.1,0.3,0.5,0.5,0.8,0.4l0.9-0.3l1.9,1.9
		c0.2,0.2,0.5,0.3,0.8,0.2l2.9-0.9c0.3-0.1,0.5-0.3,0.5-0.6l0.4-2.6l0.6-0.2c0.3-0.1,0.5-0.5,0.4-0.8
		C37.1,223.7,36.8,223.5,36.4,223.6L36.4,223.6L36.4,223.6z"/>
	<g class="st4">
		<path class="st6" d="M18.8,205.6c0.4-0.8,1-1.5,1.7-2.1c0.4-0.4,0.9-0.7,1.5-1c0.4-0.2,0.6-0.2,0.7-0.1s-0.6,0.7-1.5,1.8
			c-1.1,1.4-1.8,3-2.1,4.7c-0.2,1.7,0.1,3.5,0.8,5.1c0.6,1.3,1.1,2,1,2.1c-0.2,0.1-0.3,0-0.6-0.3c-0.4-0.4-0.8-0.8-1.1-1.3
			c-0.5-0.7-0.9-1.6-1.1-2.5c-0.3-1.1-0.4-2.2-0.2-3.3"/>
	</g>
	<g class="st4">
		<path class="st6" d="M25.4,202.1c-0.7,0.2-1.3,0.2-1.5-0.1c-0.1-0.2,0-0.4,0.1-0.6c0.3-0.3,0.6-0.5,0.9-0.6c0.4-0.1,0.8-0.1,1.1,0
			c0.3,0.1,0.5,0.2,0.5,0.4"/>
	</g>
	<path class="st9" d="M35.6,227.8c0,0-0.2,0-0.6,0c-0.5,0-1,0.1-1.4,0.3c-0.5,0.2-0.9,0.4-1.3,0.7c-0.3,0.2-0.5,0.4-0.5,0.4
		c0.1-0.2,0.3-0.3,0.4-0.5c0.4-0.3,0.8-0.6,1.3-0.7c0.5-0.2,1-0.2,1.5-0.2C35.2,227.7,35.4,227.8,35.6,227.8z"/>
	<path class="st9" d="M36.2,225.1c0,0-1.4,0.5-3.2,1.1s-3.3,1-3.3,0.9c0,0,1.4-0.5,3.2-1.1C34.7,225.5,36.2,225,36.2,225.1z"/>
	<path class="st9" d="M36,226.2c-0.2,0.1-0.5,0.2-0.8,0.3c-0.5,0.2-1.1,0.4-1.9,0.7c-0.8,0.2-1.4,0.4-1.9,0.6
		c-0.3,0.1-0.5,0.2-0.8,0.2l0.8-0.3l1.9-0.6l1.9-0.6C35.5,226.3,35.7,226.2,36,226.2z"/>
	<path class="st3" d="M276.8,156.9c-8.3-7.7-23-6.8-30.3,1.9c-2.9,3.4-4.8,7.9-8.8,10c-6.1,3.2-13.4-0.8-20.2-0.3
		c-8,0.7-14.6,8.8-13.6,16.8c0.5,3.6,2.2,7.4,0.5,10.6c-2.2,4.1-8.4,4.2-11,8c-2.4,3.4-0.5,8.5,2.9,10.9s7.9,2.7,12,2.5
		c4.2-0.2,8.4-0.8,12.5,0.2c4.5,1,8.3,3.8,12.6,5.5c10.3,4.1,22.3,1.8,31.7-3.8c9.5-5.6,16.8-14.3,23.3-23.3"/>
	<g class="st11">
		<path class="st6" d="M276.8,156.9c-8.3-7.7-23-6.8-30.3,1.9c-2.9,3.4-4.8,7.9-8.8,10c-6.1,3.2-13.4-0.8-20.2-0.3
			c-8,0.7-14.6,8.8-13.6,16.8c0.5,3.6,2.2,7.4,0.5,10.6c-2.2,4.1-8.4,4.2-11,8c-2.4,3.4-0.5,8.5,2.9,10.9s7.9,2.7,12,2.5
			c4.2-0.2,8.4-0.8,12.5,0.2c4.5,1,8.3,3.8,12.6,5.5c10.3,4.1,22.3,1.8,31.7-3.8c9.5-5.6,16.8-14.3,23.3-23.3"/>
	</g>
	<path class="st3" d="M274.8,167.4c-6.8-6.6-19.3-5.7-25,1.9c-3.5,4.6-5.5,11.7-11.2,12.4c-3.9,0.5-7.6-2.4-11.5-2.1
		c-5.2,0.4-8.4,6.7-7,11.8s5.8,8.7,10.4,11.1c16.1,8.2,37.7,3.9,49.4-9.9"/>
	<polyline class="st12" points="428.7,184.3 419.9,171.9 431.3,163.8 439.3,180 429.2,184.2 	"/>
	<path class="st3" d="M438.8,177.8L445,189c0,0,13.4-2.5,14.8-0.6l-21.2,12.8l-10.4-17L438.8,177.8z"/>
	<g class="st13">
		<path class="st6" d="M437.9,192c-0.3,0.4-0.3,1,0,1.3c0.4,0.4,1,0.4,1.3,0c0.4-0.4,0.4-1,0-1.4C438.8,191.6,438.2,191.6,437.9,192
			"/>
	</g>
	<g class="st13">
		<path class="st6" d="M438.5,201.1l-1-1.7l20.7-11.6c0,0,1.1-0.2,1.5,0.6L438.5,201.1z"/>
	</g>
	<path class="st8" d="M445.2,188.6c0.1,0.1-0.4,0.5-0.7,1.1c-0.3,0.7-0.3,1.2-0.4,1.3s-0.3-0.7,0.1-1.4
		C444.5,188.8,445.2,188.5,445.2,188.6z"/>
	<path class="st8" d="M448,188.2c0.1,0.1-0.3,0.5-0.3,1.1s0.1,1.1,0,1.2c-0.1,0.1-0.5-0.5-0.4-1.3C447.4,188.5,448,188.1,448,188.2z
		"/>
	<path class="st8" d="M450.9,190.1c-0.1,0.1-0.5-0.4-0.6-1.1c-0.1-0.7,0.3-1.2,0.4-1.1c0.1,0.1,0,0.5,0,1.1
		C450.7,189.6,450.9,190,450.9,190.1z"/>
	<path class="st8" d="M443.6,186.2c0,0.1-0.5,0.3-1.1,0.7s-0.9,0.9-1,0.8c-0.1-0.1,0.1-0.7,0.8-1.1S443.6,186.1,443.6,186.2z"/>
	<path class="st8" d="M442.3,184c0,0-0.3,0.4-1.1,0.6c-0.4,0.2-0.9,0.3-1.3,0.3c-0.3,0-0.5,0-0.8,0c-0.2,0-0.3,0-0.5-0.1
		s-0.4-0.3-0.4-0.5s0.1-0.4,0.3-0.5c0.1-0.1,0.3-0.1,0.4-0.2c0.3-0.1,0.5-0.1,0.8-0.2c0.5-0.1,0.9,0,1.4,0.1
		C441.9,183.7,442.3,184,442.3,184c0,0.1-0.5-0.1-1.1-0.1c-0.4-0.1-0.9-0.1-1.3,0c-0.2,0-0.5,0.1-0.7,0.2c-0.3,0.1-0.4,0.2-0.4,0.3
		s0,0.1,0.1,0.1s0.2,0,0.3,0c0.3,0,0.5,0,0.8,0c0.4,0,0.9-0.1,1.3-0.2C441.5,184.2,441.9,184.1,442.3,184z"/>
	<path class="st8" d="M442.2,184.3c0,0-0.4-0.2-0.9-0.9c-0.3-0.4-0.4-0.8-0.6-1.3c-0.1-0.3-0.1-0.5-0.1-0.8
		c-0.1-0.4,0.1-0.7,0.4-0.9c0.2-0.1,0.4-0.1,0.6,0c0.1,0.1,0.3,0.2,0.4,0.3c0.2,0.2,0.3,0.5,0.4,0.7c0.2,0.4,0.3,0.9,0.2,1.4
		c0,0.4-0.2,0.8-0.5,1.1c0.1-0.4,0.1-0.8,0.2-1.1c0-0.4-0.1-0.8-0.3-1.2c-0.1-0.2-0.2-0.4-0.4-0.6c-0.2-0.2-0.4-0.3-0.4-0.3
		c-0.1,0.2-0.2,0.4-0.2,0.6c0,0.2,0,0.5,0.1,0.7c0.1,0.4,0.2,0.8,0.4,1.1C441.9,183.9,442.3,184.2,442.2,184.3z"/>
	<polyline class="st8" points="396.3,140.2 423.4,182.9 438.3,172.8 413.3,121.4 	"/>
	<path class="st9" d="M398.5,130.9c0.1,0-0.7,1.8-1.1,4.1s-0.2,4.2-0.4,4.2C396.5,136.3,397,133.4,398.5,130.9z"/>
	<path class="st9" d="M395.7,131c0.1,0,0,1.9,0.3,4.1c0.3,2.3,0.9,4,0.8,4.1C395.6,136.6,395.2,133.8,395.7,131z"/>
	<path class="st8" d="M290.4,140.1l-18.6-5.7c-22.5,28.6-21,60,15.2,78.6l20.1-22.5L290.4,140.1z"/>
	<path class="st1" d="M292.3,135.6c-11.9,6.9-17.8,21.6-16.4,35.9c1.6,15.7,12,31.1,31,35.3L435,181.2c21.1-4.3,34.7-24.8,30.5-45.9
		c-0.2-1.1-0.5-2.1-0.8-3.2l0,0c-5.8-20-26.3-31.8-46.5-27L292.3,135.6z"/>
	<path class="st8" d="M292.3,135.6l1.1-0.3l3.5-0.9l13.5-3.3l49.6-12l34.2-8.3l19.1-4.6l4.9-1.1l2.5-0.5l1.3-0.2l1.3-0.1
		c0.9-0.1,1.7-0.2,2.6-0.2h2.6c0.9,0,1.8,0.1,2.6,0.2l1.3,0.1l0.7,0.1l0.7,0.1l2.6,0.5c0.9,0.2,1.7,0.5,2.6,0.8
		c0.4,0.1,0.9,0.3,1.3,0.4l1.3,0.5l1.3,0.5c0.4,0.2,0.8,0.3,1.2,0.6l2.4,1.3c0.8,0.4,1.6,1,2.4,1.5c0.4,0.3,0.8,0.5,1.1,0.8l1.1,0.9
		l1.1,0.9l0.5,0.4l0.5,0.5c16.1,14.4,17.4,39.1,3,55.2c-2.2,2.4-4.6,4.5-7.3,6.4c-2.9,1.9-6,3.5-9.3,4.6c-3.3,1-6.6,1.8-9.9,2.3
		l-19.6,3.9l-37.5,7.5L307,207h-0.1c-3.4-0.8-6.6-1.9-9.7-3.4c-2.9-1.5-5.6-3.4-8.1-5.5c-2.3-2.1-4.4-4.4-6.2-7
		c-1.6-2.4-3-5-4.1-7.7c-0.3-0.7-0.5-1.3-0.7-2s-0.5-1.3-0.6-2l-0.5-2l-0.4-1.9c-0.2-0.6-0.3-1.3-0.3-1.9c-0.1-0.6-0.2-1.3-0.3-1.9
		s-0.1-1.3-0.1-1.9c-0.1-0.6-0.1-1.2-0.1-1.8c-0.1-4.5,0.5-8.9,1.8-13.2c1.1-3.4,2.6-6.6,4.6-9.6c1.4-2.2,3.1-4.2,5.1-5.9
		c0.4-0.4,0.8-0.7,1.1-1l1-0.8l0.9-0.7l0.8-0.5C291.8,135.8,292.3,135.6,292.3,135.6l-1.3,0.9l-0.8,0.5l-0.9,0.7l-1,0.8
		c-0.4,0.3-0.7,0.7-1.1,1c-1.9,1.8-3.6,3.8-5,5.9c-1.9,3-3.5,6.2-4.5,9.6c-1.3,4.2-1.9,8.6-1.8,13c0,0.6,0,1.2,0.1,1.8
		c0,0.6,0.1,1.2,0.1,1.9c0.1,0.6,0.2,1.3,0.3,1.9c0.1,0.6,0.2,1.3,0.3,1.9l0.4,1.9l0.5,1.9c0.2,0.7,0.4,1.3,0.6,2
		c0.2,0.6,0.5,1.3,0.7,2c1.1,2.7,2.6,5.2,4.2,7.6c1.8,2.5,3.8,4.8,6.1,6.8c2.5,2.1,5.2,3.9,8.1,5.4c3.1,1.5,6.3,2.6,9.7,3.4h-0.1
		l65.8-13.2l37.5-7.5l19.6-3.9c3.3-0.5,6.7-1.3,9.9-2.3c3.2-1.1,6.3-2.6,9.1-4.6c6.7-4.6,11.9-11.1,14.7-18.7
		c2.7-7.4,3.1-15.5,1.1-23.1c-1.9-7.4-6-14-11.6-19.1l-0.5-0.5l-0.5-0.4l-1.1-0.9l-1.1-0.9c-0.4-0.3-0.8-0.5-1.1-0.8
		c-0.8-0.5-1.5-1-2.3-1.5l-2.3-1.2c-0.4-0.2-0.8-0.4-1.2-0.5l-1.3-0.5l-1.2-0.5c-0.4-0.1-0.9-0.3-1.3-0.4c-0.9-0.2-1.7-0.5-2.6-0.7
		l-2.6-0.5l-0.7-0.1l-0.7-0.1l-1.3-0.1c-0.9-0.1-1.7-0.2-2.6-0.2H426c-0.9,0-1.7,0.1-2.6,0.2l-1.3,0.1l-1.3,0.2l-2.5,0.5l-5,1.1
		l-19.1,4.6l-34.2,8.2l-49.6,11.9l-13.5,3.2l-3.5,0.8L292.3,135.6z"/>
	<path class="st3" d="M306.9,206.8L290,245.2c0,0,79.7-7.7,76.3-50.2L306.9,206.8z"/>
	<path class="st3" d="M352.6,121c0,0-38.3-37.2-87-21.5l26.7,36.1L352.6,121z"/>
	<path class="st3" d="M422.5,104.7C439,116.8,449,164,441.1,179c46.6-13.6,56.4-53.7,56.4-53.7C463.8,94.1,422.5,104.7,422.5,104.7z
		"/>
	<path class="st9" d="M282.9,189.2c0.1,0.1-2.5,3.1-5.7,6.8s-5.9,6.7-6,6.6s2.5-3.1,5.7-6.8C280.2,192.1,282.9,189.1,282.9,189.2z"
		/>
	<path class="st8" d="M497.5,125.4l-0.3,0.5l-0.9,1.5l-1.4,2.4l-0.9,1.5l-1.1,1.7c-0.8,1.1-1.7,2.5-2.8,3.9l-3.6,4.4
		c-0.7,0.8-1.4,1.5-2.1,2.3s-1.5,1.7-2.3,2.4c-1.7,1.6-3.4,3.3-5.4,4.9c-4.3,3.6-9,6.7-14,9.2c-2.8,1.4-5.6,2.6-8.6,3.7
		c-1.5,0.5-3.1,1-4.6,1.6c-1.6,0.5-3.2,0.9-4.9,1.2c-13.2,2.9-27.8,5.9-43,9.1c-30.6,6.3-58.2,12-78.3,16l-23.7,4.8l-6.5,1.3
		l-1.7,0.3l-0.6,0.1l0.6-0.1l1.7-0.4l6.5-1.3l23.7-4.9l78.3-16.1c15.3-3.2,29.8-6.2,43-9.1c1.6-0.3,3.2-0.7,4.8-1.2
		c1.6-0.6,3.1-1,4.6-1.6c2.9-1,5.8-2.2,8.6-3.6c5-2.5,9.6-5.6,13.9-9.1c2-1.6,3.7-3.3,5.4-4.9c0.8-0.8,1.6-1.6,2.3-2.4
		s1.5-1.6,2.1-2.3l3.6-4.4c1-1.4,1.9-2.7,2.8-3.9l1.1-1.7l0.9-1.5l1.5-2.4l0.9-1.4C497.4,125.5,497.5,125.4,497.5,125.4z"/>
	<path class="st8" d="M376.2,193c0,0,0,0-0.1-0.1l-0.4-0.5c-0.3-0.4-0.8-1.1-1.4-1.8l-1-1.3c-0.4-0.5-0.7-1.1-1.1-1.6
		c-0.8-1.1-1.7-2.5-2.6-4.1l-1.4-2.4c-0.5-0.8-0.9-1.8-1.4-2.7c-1-1.8-1.8-3.9-2.8-6.1c-1.9-4.7-3.4-9.6-4.6-14.6
		c-1.1-5-1.8-10.1-2-15.1c-0.1-2.4-0.2-4.6,0-6.7c0-1.1,0-2.1,0.1-3c0.1-1,0.2-1.9,0.2-2.8c0.1-1.8,0.4-3.4,0.6-4.8
		c0.1-0.7,0.2-1.3,0.3-1.9l0.3-1.6c0.2-0.9,0.4-1.7,0.5-2.3l0.1-0.6c0-0.1,0-0.1,0.1-0.2c0,0,0,0.1,0,0.2s-0.1,0.4-0.1,0.6
		c-0.1,0.5-0.2,1.3-0.4,2.3c-0.1,0.5-0.2,1-0.3,1.6c-0.1,0.6-0.2,1.3-0.3,2c-0.2,1.4-0.4,3-0.5,4.7c-0.1,0.9-0.1,1.8-0.2,2.8
		s-0.1,2-0.1,3c-0.1,2.1,0,4.3,0.1,6.6c0.5,10.2,2.7,20.2,6.6,29.6c0.9,2.1,1.8,4.2,2.7,6.1c0.5,0.9,0.9,1.8,1.4,2.7
		c0.5,0.8,0.9,1.6,1.4,2.4c0.8,1.6,1.8,2.9,2.5,4.1c0.4,0.6,0.7,1.1,1.1,1.6l1,1.3l1.3,1.9l0.3,0.5L376.2,193z"/>
	<path class="st3" d="M340.2,153.4L259.9,170c0,0-0.4,7.8,1.6,7.9c1.7,0.1,61.4-10.7,80.7-14.2c2.8-0.5,4.7-3.2,4.2-6.1
		c0-0.3-0.1-0.5-0.2-0.8l0,0C345.4,154.3,342.8,152.8,340.2,153.4z"/>
	
		<ellipse transform="matrix(1.396294e-03 -1 1 1.396294e-03 255.1438 547.471)" class="st7" cx="401.7" cy="146" rx="17.8" ry="19.2"/>
	<path class="st8" d="M420.9,146c0-0.1,0-0.2,0-0.3c0-0.2,0-0.5-0.1-0.9c0-0.2,0-0.4,0-0.6l-0.1-0.8l-0.2-0.9
		c-0.1-0.3-0.2-0.7-0.3-1c-0.2-0.8-0.5-1.5-0.8-2.3c-1.4-3-3.6-5.6-6.4-7.5c-3-2.1-6.5-3.2-10.2-3.4c-0.4,0-0.8,0-1.2,0h-1.2h-0.6
		l-0.6,0.1l-1.2,0.2l-1.2,0.3l-0.6,0.1l-0.6,0.2c-3.5,1.1-6.5,3.2-8.8,6c-5.2,6.2-5.2,15.2,0,21.3c2.3,2.8,5.4,4.9,8.8,6l0.6,0.2
		l0.6,0.1l1.2,0.3l1.2,0.2l0.6,0.1h0.6l1.2,0.1c0.4,0,0.8,0,1.2,0c0.8,0,1.5-0.1,2.3-0.2c2.8-0.4,5.5-1.5,7.9-3.1c2-1.3,3.6-3,5-4.9
		c0.5-0.8,1-1.6,1.4-2.5c0.3-0.7,0.6-1.5,0.8-2.3c0.1-0.4,0.2-0.7,0.3-1c0.1-0.3,0.1-0.6,0.1-0.9s0.1-0.5,0.1-0.8c0-0.2,0-0.4,0-0.6
		c0-0.4,0.1-0.7,0.1-0.9C420.9,146.1,420.9,146,420.9,146v0.3c0,0.2,0,0.5,0,0.9v0.7c0,0.2-0.1,0.5-0.1,0.8s-0.1,0.6-0.1,0.9
		s-0.2,0.7-0.3,1c-0.2,0.8-0.5,1.5-0.8,2.3c-0.4,0.9-0.9,1.7-1.4,2.6c-1.3,2-3,3.7-5,5.1c-2.4,1.7-5.1,2.8-8,3.2
		c-0.8,0.1-1.6,0.2-2.4,0.3c-0.4,0-0.8,0-1.2,0h-1.2h-0.6l-0.6-0.1l-1.3-0.2l-1.3-0.3l-0.6-0.1l-0.6-0.2c-3.5-1.1-6.7-3.2-9-6.1
		c-5.3-6.3-5.3-15.5,0-21.8c2.4-2.8,5.5-5,9-6.1l0.6-0.2l0.6-0.1l1.3-0.3l1.3-0.2l0.6-0.1h0.6h1.2c0.4,0,0.8,0,1.2,0
		c0.8,0,1.6,0.1,2.4,0.3c2.9,0.5,5.6,1.6,8,3.2c2,1.4,3.7,3.1,5,5.1c0.5,0.8,1,1.7,1.4,2.6c0.3,0.7,0.6,1.5,0.8,2.3
		c0.1,0.4,0.2,0.7,0.3,1c0.1,0.3,0.1,0.6,0.1,0.9c0,0.3,0.1,0.5,0.1,0.8c0,0.2,0,0.5,0,0.7C420.9,145.6,420.9,145.9,420.9,146
		L420.9,146z"/>
	<path class="st3" d="M174.7,210.4c-2.3,0.8-4.8,1-7.2,0.6s-4.8-0.5-7.2-0.2c-3.7,0.7-6.9,3.5-10.7,3.3c-5.2-0.3-8.3-5.9-12.9-8.3
		c-5.6-3-13.1-1.1-17.6-6.7c-2.8-3.4-3.2-8.1-1.1-11.9c3.3-5.9,10.8-6.8,16.7-4.7c5.1,1.8,9.2,5.5,13.2,9.1c1.3,1.2,2.7,2.5,4.1,3.7
		c4.5,3.9,10.4,5.7,16.3,5.1l0,0c2.8-0.3,5.7,0.5,7.9,2.3c0.6,0.5,1.1,1.1,1.4,1.8l0,0c0.3,0.7,0.4,1.4,0.4,2.2
		C177.7,208.6,176.5,209.6,174.7,210.4z"/>
	<g class="st11">
		<path class="st6" d="M174.7,210.4c-2.3,0.8-4.8,1-7.2,0.6s-4.8-0.5-7.2-0.2c-3.7,0.7-6.9,3.5-10.7,3.3c-5.2-0.3-8.3-5.9-12.9-8.3
			c-5.6-3-13.1-1.1-17.6-6.7c-2.8-3.4-3.2-8.1-1.1-11.9c3.3-5.9,10.8-6.8,16.7-4.7c5.1,1.8,9.2,5.5,13.2,9.1
			c1.3,1.2,2.7,2.5,4.1,3.7c4.5,3.9,10.4,5.7,16.3,5.1l0,0c2.8-0.3,5.7,0.5,7.9,2.3c0.6,0.5,1.1,1.1,1.4,1.8l0,0
			c0.3,0.7,0.4,1.4,0.4,2.2C177.7,208.6,176.5,209.6,174.7,210.4z"/>
	</g>
	<path class="st3" d="M89.2,207.9c-1.5-2.6-6.1-2.7-8.8-1.3c-2.7,1.3-4.6,3.9-6.4,6.3s-3.9,4.8-6.8,5.8c-3.1,1.1-6.4,0.2-9.7,0.2
		c-3.2,0-7,1.6-7.5,4.8c-0.3,1.9,0.3,3.8,1.6,5.1c1.3,1.2,2.8,2.2,4.5,2.9c4.3,1.7,9,2.7,13.6,2.7c6.1-0.1,11.7-3,15.4-7.8
		C88.6,221.7,93.4,213.3,89.2,207.9"/>
	<g class="st11">
		<path class="st6" d="M89.2,207.9c-1.5-2.6-6.1-2.7-8.8-1.3c-2.7,1.3-4.6,3.9-6.4,6.3s-3.9,4.8-6.8,5.8c-3.1,1.1-6.4,0.2-9.7,0.2
			c-3.2,0-7,1.6-7.5,4.8c-0.3,1.9,0.3,3.8,1.6,5.1c1.3,1.2,2.8,2.2,4.5,2.9c4.3,1.7,9,2.7,13.6,2.7c6.1-0.1,11.7-3,15.4-7.8
			C88.6,221.7,93.4,213.3,89.2,207.9"/>
	</g>
	<path class="st3" d="M6.8,223.3c-1.4,0.5-2.6,1.3-3.5,2.4c-1,1.1-1.3,2.6-0.9,4c0.5,1.4,2,2.2,3.4,1.8c0.7-0.2,1.3-0.8,2-1
		c1.1-0.2,2.3,0.8,3.4,1c1.8,0.1,3.3-1.2,3.4-3c0-0.1,0-0.2,0-0.2c0-1.8-1.5-3.2-2.9-4.2C10.4,223.1,8.5,222.8,6.8,223.3"/>
	<g class="st11">
		<path class="st6" d="M6.8,223.3c-1.4,0.5-2.6,1.3-3.5,2.4c-1,1.1-1.3,2.6-0.9,4c0.5,1.4,2,2.2,3.4,1.8c0.7-0.2,1.3-0.8,2-1
			c1.1-0.2,2.3,0.8,3.4,1c1.8,0.1,3.3-1.2,3.4-3c0-0.1,0-0.2,0-0.2c0-1.8-1.5-3.2-2.9-4.2C10.4,223.1,8.5,222.8,6.8,223.3"/>
	</g>
	<path class="st9" d="M336.7,100c-6.2-0.3-9.2,4.3-12.7,5.3c-3.4,1.1-7.1,1-10.5-0.2c-4.3-1.7-7.2-5.7-11-8.4
		c-7.9-5.4-18.4-5.1-26,0.7c-0.2,4.1,3.4,7.4,6.8,9.7c3.4,2.3,12.9,5.6,14.1,9.6c0.9,2.9-5.5,5.4-3.9,8.1s6.8,2.4,9.8,1.9
		c18.4-3.2,12,2.5,17.7,1.9c0,0,12-3,21.3-4.6"/>
	<polyline class="st12" points="398.9,208.6 392.9,194.7 405.7,189.2 410.1,206.7 399.4,208.6 	"/>
	<path class="st3" d="M410.1,204.4l3.7,12.2c0,0,13.7,0.3,14.6,2.5l-23.4,8.1l-6.6-18.8L410.1,204.4z"/>
	<g class="st13">
		<path class="st6" d="M406.3,218.1c-0.4,0.3-0.5,0.9-0.3,1.3c0.3,0.4,0.9,0.6,1.3,0.3s0.6-0.9,0.3-1.4
			C407.2,217.9,406.6,217.8,406.3,218.1"/>
	</g>
	<g class="st13">
		<path class="st6" d="M405,227.2l-0.6-1.9l22.6-7.1c0,0,1.2,0.1,1.3,0.9L405,227.2z"/>
	</g>
	<path class="st8" d="M414.2,216.3c0,0.1-0.5,0.4-0.9,0.9c-0.4,0.6-0.6,1.1-0.7,1.1s-0.2-0.7,0.4-1.4
		C413.4,216.3,414.2,216.2,414.2,216.3z"/>
	<path class="st8" d="M417,216.5c0.1,0.1-0.4,0.5-0.6,1.1s-0.2,1.1-0.3,1.2s-0.4-0.6-0.1-1.4C416.3,216.7,417,216.4,417,216.5z"/>
	<path class="st8" d="M419.4,218.9c-0.1,0.1-0.5-0.5-0.4-1.1s0.5-1.1,0.6-1.1s-0.1,0.5-0.2,1.1S419.5,218.9,419.4,218.9z"/>
	<path class="st8" d="M413,213.6c0,0.1-0.6,0.1-1.2,0.4c-0.6,0.3-1.1,0.7-1.1,0.6c-0.1-0.1,0.3-0.7,1-1S413,213.5,413,213.6z"/>
	<path class="st8" d="M412.2,211.2c-0.3,0.2-0.7,0.4-1.1,0.4c-0.4,0.1-0.9,0.1-1.3,0c-0.3,0-0.5-0.1-0.8-0.1c-0.2,0-0.3-0.1-0.5-0.1
		c-0.2-0.1-0.3-0.4-0.3-0.6c0.1-0.2,0.2-0.4,0.4-0.4c0.2-0.1,0.3-0.1,0.5-0.1c0.3,0,0.5,0,0.8,0c0.5,0,0.9,0.1,1.3,0.3
		C412,210.9,412.3,211.2,412.2,211.2c0,0.1-0.4-0.2-1.1-0.4c-0.4-0.1-0.8-0.2-1.2-0.2c-0.3,0-0.5,0-0.8,0s-0.5,0.1-0.5,0.2
		s0,0.1,0.1,0.1c0.1,0.1,0.2,0.1,0.3,0.1l0.7,0.1c0.4,0,0.9,0,1.3,0C411.4,211.2,411.8,211.2,412.2,211.2z"/>
	<path class="st8" d="M412.1,211.4c0,0-0.4-0.3-0.7-1c-0.3-0.7-0.4-1.4-0.2-2.2c0-0.4,0.2-0.7,0.5-0.8c0.2-0.1,0.4,0,0.6,0.2
		c0.1,0.1,0.2,0.2,0.3,0.4c0.1,0.3,0.2,0.5,0.3,0.8c0.1,0.5,0.1,0.9-0.1,1.4c-0.3,0.8-0.7,1.1-0.7,1c0.2-0.4,0.3-0.8,0.4-1.1
		c0.1-0.4,0.1-0.8,0-1.2c-0.1-0.2-0.1-0.5-0.3-0.7c-0.1-0.2-0.3-0.4-0.4-0.4c-0.2,0.1-0.3,0.3-0.3,0.5s-0.1,0.5-0.1,0.7
		c0,0.4,0.1,0.8,0.2,1.2C411.9,211,412.2,211.4,412.1,211.4z"/>
	<path class="st8" d="M337.7,100.5c0,0-11.1,21.9-3.6,27.1c7.5,5.1,42.2,31.3,42.2,31.3l17.7,47.3l16.6-6.8L396.8,144l-34.9-31.4
		L337.7,100.5z"/>
	<path class="st9" d="M380.4,150.2c0.1,0.1-1.1,1.6-1.9,3.8s-1.1,4.1-1.2,4c0-1.4,0.3-2.9,0.8-4.2
		C378.6,152.4,379.4,151.2,380.4,150.2z"/>
	<path class="st9" d="M377.6,149.7c0.1,0-0.4,1.8-0.5,4.1s0,4.1-0.1,4.2C376.4,155.2,376.6,152.3,377.6,149.7z"/>
	<path class="st9" d="M395.7,205.5c0-0.1-0.1-0.2-0.1-0.2c-0.1-0.2-0.2-0.4-0.3-0.7c-0.3-0.6-0.6-1.6-1.1-2.7
		c-0.9-2.4-2.2-5.9-3.8-10.2c-1.6-4.3-3.5-9.5-5.5-15.4c-0.5-1.5-1-3-1.5-4.6c-0.4-1.6-1-3.2-1.6-4.7c-1.3-3.2-2.8-6.3-4.4-9.6l0,0
		c-1.9-1.6-3.8-3.2-5.9-4.9c-1.6-1.3-3.2-2.6-4.7-3.8l-4.7-3.6c-3.1-2.3-6-4.6-8.9-6.6c-2.9-2.1-5.7-3.8-8.3-5.6
		c-2.4-1.6-4.7-3.4-6.8-5.5c-0.9-0.9-1.7-1.9-2.4-3c-0.6-1-1.1-2-1.3-3.2c-0.4-1.8-0.4-3.7-0.1-5.5c0.2-1.1,0.6-2.2,1-3.3
		c0.1-0.4,0.3-0.6,0.3-0.8c0-0.1,0.1-0.2,0.1-0.3c0,0.1,0,0.2-0.1,0.3c-0.1,0.2-0.2,0.5-0.3,0.8c-0.4,1.1-0.7,2.2-0.9,3.3
		c-0.3,1.8-0.3,3.6,0.1,5.4c0.3,1.1,0.7,2.1,1.3,3.1c0.7,1.1,1.5,2,2.4,2.9c2.1,2,4.4,3.8,6.8,5.4c2.6,1.8,5.5,3.6,8.3,5.6
		c2.9,2.1,5.9,4.3,8.9,6.6l4.7,3.6c1.6,1.2,3.2,2.5,4.7,3.8c2,1.7,4,3.3,5.9,4.9l0,0l0,0c1.7,3.2,3.2,6.4,4.4,9.6
		c0.6,1.6,1.1,3.1,1.6,4.7c0.5,1.6,1,3.1,1.5,4.6c2,5.9,3.8,11.1,5.4,15.4c1.6,4.4,2.9,7.8,3.7,10.3l1,2.8c0.1,0.3,0.2,0.5,0.3,0.7
		S395.7,205.5,395.7,205.5z"/>
	<polygon class="st8" points="351.4,107.5 372.8,110.6 383.8,113.4 368.7,118.8 	"/>
	<path class="st8" d="M325.1,106c0,0-0.1,0.2-0.4,0.5c-0.4,0.4-0.9,0.8-1.4,1.2c-1.6,1.3-3.3,2.3-5.2,3.1c-1.9,0.8-3.9,1.3-5.9,1.5
		c-0.6,0.1-1.2,0.1-1.8,0.1c-0.2,0-0.5,0-0.7,0c0-0.1,1-0.1,2.5-0.3c4-0.6,7.8-2.2,11-4.6C324.4,106.6,325.1,105.9,325.1,106z"/>
	<path class="st3" d="M340.5,74.7l-4.1,31.1c0,0,13.7-0.9,23.4,2.3c9.7,3.2,15.6,3.1,15.6,3.1l-2-19.3l7.2-15.8l3.2,18.6l14.8,15.3
		l9.7-2.2l-10-16.8l-7-34.2l0,0c-0.6-2.9-2.1-5.4-4.4-7.3l-0.3-0.2l-14.5-8.1l-4.9,0.1c-4.1,0.1-8.3,0.5-12.3,1.3
		c-2.5,0.5-4.9,1.7-6.7,3.6l0,0c-1.6,1.8-2.8,4-3.4,6.4L340.5,74.7z"/>
	<path class="st8" d="M386.8,61.6c-0.1,0.3-0.2,0.7-0.4,1l-1.1,2.7c-0.9,2.3-2.3,5.3-3.8,8.7s-2.8,6.4-3.9,8.7l-1.2,2.6
		c-0.3,0.6-0.4,0.9-0.5,0.9c0.1-0.3,0.2-0.7,0.3-1c0.2-0.6,0.6-1.6,1.1-2.7c0.9-2.3,2.3-5.3,3.8-8.7s2.9-6.5,3.9-8.7l1.2-2.6
		C386.4,62.2,386.6,61.9,386.8,61.6z"/>
	<path class="st3" d="M345.7,56.2c2.8,7.9,8.3,26,11,33c0.8,2.1,2.2,4,4,5.4l29.5,20.8l6.8-8.8l-22.1-21.3l-12-35.3
		c-1.7-4.7-8.6-7.3-13-4.7l0,0C346.6,47.2,344.4,52.6,345.7,56.2z"/>
	<path class="st8" d="M363.4,51.5c0,0,0.1,0.2,0.2,0.6l0.6,1.8c0.5,1.6,1.3,3.9,2.4,6.8l8.3,24.5v-0.1l22.1,21.3l0.1,0.1l-0.1,0.1
		l-4.9,6.4l-1.9,2.5l-0.1,0.1l-0.1-0.1l-22.6-16.3l-5.1-3.7l-1.2-0.9c-0.4-0.3-0.8-0.6-1.1-0.9c-0.7-0.7-1.4-1.4-1.9-2.3
		c-0.5-0.8-0.9-1.6-1.2-2.5l-1-2.5c-0.6-1.6-1.2-3.2-1.7-4.7c-2.2-6.1-3.8-11-4.9-14.4l-1.2-3.9c-0.1-0.4-0.2-0.8-0.3-1
		s-0.1-0.4-0.1-0.4c0.1,0.1,0.1,0.2,0.1,0.3c0.1,0.2,0.2,0.6,0.3,1c0.3,0.9,0.7,2.3,1.3,3.9c1.1,3.4,2.8,8.3,5,14.4
		c0.6,1.5,1.2,3.1,1.8,4.7c0.3,0.8,0.7,1.6,1,2.5s0.7,1.7,1.2,2.5s1.1,1.5,1.8,2.2c0.4,0.3,0.7,0.6,1.1,0.9l1.2,0.9l5.1,3.6
		l22.6,16.3h-0.3l1.9-2.5l4.9-6.4v0.3l-22.1-21.3l0,0l0,0c-3.4-10.2-6.2-18.6-8.2-24.6c-1-2.9-1.7-5.3-2.3-6.8l-0.6-1.8
		C363.5,51.7,363.4,51.5,363.4,51.5z"/>
	<path class="st8" d="M360.6,47.2c0,0-0.5-0.5-1.5-1.1c-2.5-1.6-5.7-1.7-8.4-0.4c-1,0.5-1.6,1-1.6,0.9c0.4-0.5,0.9-0.9,1.5-1.1
		c2.7-1.5,6.1-1.4,8.7,0.4C359.8,46.2,360.2,46.6,360.6,47.2z"/>
	<path class="st8" d="M399,91.2c0,0.1-1.4,0-3,0.4s-2.8,1.1-2.9,1.1C394.7,91.3,396.9,90.7,399,91.2z"/>
	<path class="st7" d="M349.5,68.1l-0.3,0.1c-0.2,0-0.5,0.1-0.8,0.1c-0.9,0.1-1.8,0-2.7-0.2c-1.2-0.3-2.2-0.9-3.1-1.6
		c-0.1-0.1-0.2-0.1-0.2-0.2c1,0.8,2.2,1.3,3.4,1.7C347,68.2,348.2,68.3,349.5,68.1z"/>
	<path class="st7" d="M351.8,74.9c-0.4-0.3-0.9-0.6-1.4-0.8c-1.2-0.6-2.5-0.9-3.8-1s-2.6-0.1-3.9,0.1l-1.1,0.1h-0.4
		c0.1,0,0.3-0.1,0.4-0.1l1.1-0.2c1.3-0.2,2.6-0.2,3.9-0.1s2.6,0.4,3.8,1c0.4,0.2,0.7,0.4,1,0.6C351.6,74.6,351.7,74.7,351.8,74.9z"
		/>
	<g class="st10">
		<path d="M348,63.4c0,0,0.8,11.8,1.6,17.3c0.8,5.5,2.6,11,6.5,14.9s9.5,5.7,15,6.8c-1.8-1.3-3.5-2.7-5.2-4.1
			c-2.2-1.8-5.4-3.6-7.1-5.8c-3.4-4.3-4.1-9.7-5.9-14.9C351.3,72.8,349.6,68.2,348,63.4"/>
	</g>
	<path class="st7" d="M368.5,68.1c-0.2,0.1-0.4,0.2-0.6,0.3c-0.6,0.2-1.2,0.3-1.9,0.3c-1.6,0-3.8-0.8-6.2-0.5
		c-2.1,0.2-4.1,0.8-5.9,1.9c-0.5,0.3-1.1,0.7-1.6,1.1l-0.4,0.3l-0.1,0.1c0.6-0.6,1.3-1.2,2-1.6c1.8-1.1,3.8-1.8,5.9-1.9
		c2.5-0.2,4.6,0.6,6.2,0.6c0.6,0,1.3,0,1.9-0.2C368.3,68.2,368.5,68,368.5,68.1z"/>
	<path class="st7" d="M366.3,62.3l-0.1,0.1l-0.4,0.3c-0.4,0.2-0.9,0.5-1.6,0.8c-1.8,0.9-3.7,1.5-5.7,2s-4,0.7-6,0.8
		c-0.8,0-1.4,0-1.8,0H350h-0.2h0.6c0.4,0,1.1,0,1.8,0c4-0.2,8-1.1,11.7-2.8c0.7-0.3,1.3-0.6,1.7-0.8l0.5-0.2
		C366.3,62.3,366.3,62.3,366.3,62.3z"/>
	<path class="st7" d="M383,68.5h-0.2c-0.2-0.1-0.4-0.1-0.6-0.2c-0.7-0.3-1.3-0.7-1.8-1.2c-1.4-1.2-2.8-3.5-5-5.3
		c-1.9-1.5-4.1-2.6-6.5-3.2c-0.7-0.2-1.4-0.3-2.2-0.4h-0.6H366c1,0,2,0.1,3,0.4c2.4,0.5,4.6,1.6,6.5,3.2c1,0.9,2,1.8,2.8,2.9
		c0.7,0.9,1.4,1.7,2.2,2.4c0.5,0.5,1.1,0.9,1.8,1.2C382.8,68.4,383.1,68.5,383,68.5z"/>
	<path class="st7" d="M382.2,72.1c-0.2,0-0.4-0.1-0.6-0.2c-0.5-0.2-1.1-0.5-1.5-0.9c-0.7-0.6-1.3-1.2-1.9-1.9
		c-0.7-0.8-1.5-1.6-2.3-2.3c-0.8-0.7-1.8-1.1-2.9-1.2c-0.9-0.1-1.7-0.1-2.6,0c-0.8,0-1.4,0.1-1.8,0.2h-0.5c-0.1,0-0.2,0-0.2,0h0.2
		l0.5-0.1c0.4-0.1,1-0.2,1.8-0.3c0.9-0.1,1.8-0.1,2.6,0c1.1,0.1,2.1,0.6,3,1.3c0.8,0.7,1.6,1.5,2.3,2.3c0.6,0.7,1.2,1.3,1.8,1.9
		c0.4,0.4,0.9,0.7,1.5,1C381.9,72,382.2,72.1,382.2,72.1z"/>
	<path class="st7" d="M393.7,69.7c-0.5-0.2-1.1-0.2-1.7-0.2c-0.6,0.1-1.2,0.2-1.8,0.4c-0.7,0.2-1.3,0.6-2.1,0.9
		c-0.7,0.3-1.4,0.6-2.1,0.8c-0.6,0.1-1.2,0.2-1.9,0.1c-0.4-0.1-0.8-0.2-1.1-0.4c-0.1-0.1-0.3-0.2-0.4-0.3c0.5,0.3,1,0.5,1.6,0.5
		c0.6,0.1,1.2,0,1.8-0.1c0.7-0.2,1.4-0.5,2.1-0.8s1.4-0.7,2.1-0.9c0.6-0.2,1.2-0.3,1.8-0.4c0.4,0,0.8,0,1.3,0.1
		C393.5,69.6,393.6,69.6,393.7,69.7z"/>
	<path class="st7" d="M394.9,73.8c-0.6-0.4-1.3-0.7-2.1-0.7c-0.8,0-1.6,0.1-2.4,0.5c-0.9,0.4-1.8,0.9-2.6,1.5
		c-0.8,0.6-1.7,1.1-2.6,1.6c-0.7,0.4-1.6,0.6-2.4,0.6c-0.6,0-1.1-0.1-1.6-0.3c-0.2-0.1-0.4-0.2-0.5-0.3c0.7,0.3,1.4,0.5,2.2,0.4
		c0.8-0.1,1.6-0.3,2.3-0.7c0.9-0.5,1.7-1,2.5-1.6s1.7-1.1,2.6-1.5c0.8-0.3,1.6-0.4,2.4-0.4c0.6,0,1.1,0.2,1.6,0.5
		C394.6,73.5,394.8,73.6,394.9,73.8z"/>
	<g class="st10">
		<path d="M382.4,86c1.5-6.2,1.8-12.9,2.1-19.2c-0.5,2.2-1.9,4.2-2.8,6.3c-0.4,1-1.1,2.9-1.1,2.9L382.4,86"/>
	</g>
	<path class="st8" d="M372.4,13.2c-0.2,1.2-1,2.1-2.1,2.5c-0.6,0.2-1.3,0.2-1.9,0.4c-0.7,0.2-1.1,0.8-1,1.5c0.1,0.5,0.5,0.8,0.9,1.1
		s0.7,0.8,0.5,1.3c-0.2,0.4-0.9,0.5-1.3,0.9c-0.3,0.5-0.3,1.1,0.1,1.6c0.4,0.4,0.8,0.8,1.3,1c0.5,0.3,0.9,0.8,1,1.3"/>
	<path class="st8" d="M394.8,23c1.7-3.5,0.4-7.9-2.1-10.8c-2.6-2.9-6.3-4.6-10-5.6c-0.5-0.1-1.1-0.3-1.6,0.1c-0.3,0.4-0.2,1,0.1,1.3
		c0.4,0.3,0.8,0.6,1.2,0.7c-1.5-0.8-3.2-1.2-4.9-1.3c-0.6,0-1.2,0.1-1.7,0.4s-0.8,0.9-0.7,1.5c0.1,0.5,0.7,0.8,1.1,0.6
		c0.1,0,0.2-0.1,0.3-0.1c-1.6-0.2-3.2,0.2-4.6,1.1c-1.1,0.5-1.7,1.6-1.6,2.8c0.2,0.6,0.5,1.2,0.9,1.8c0.4,1.1-0.2,2.4-0.6,3.6
		c-0.8,1.8-1,3.7-0.8,5.6s1.3,3.7,3,4.7"/>
	<path class="st12" d="M371.6,52.6c-4.1-1.1-6.6-5.4-5.5-9.5c0-0.1,0-0.1,0.1-0.2l6.9-23.5c1.6-5.9,7.7-9.4,13.6-7.9
		c0.1,0,0.2,0.1,0.3,0.1l0.5,0.2c5.5,2,8.5,7.8,7,13.4c-1.4,5.2-3.1,11-4.1,13.7c-2.1,5.6-8.1,4.4-8.1,4.4l-1.5,4.2
		C379.6,51.5,375.5,53.7,371.6,52.6L371.6,52.6z"/>
	<path class="st14" d="M382.5,43.4c-2.6-0.9-4.9-2.5-6.6-4.7c0,0,0.3,4.7,6.1,6.2L382.5,43.4z"/>
	<path class="st8" d="M381.4,15.1c-0.5-1-1-3.2-1.8-4s-2.1-0.5-3.1-0.2c-1.1,0.3-2,1.2-2.4,2.3c-1.5,4.1-1.7,7.9-2.8,11.9
		c-0.1,0.3-0.1,0.5-0.1,0.8c0.2,0.7,0.9,0.9,1.7,1c1.7,0.3,2.6-1,3.4-2.5c0.3-0.9,0.5-1.9,0.6-2.8c0.2-2.7,1.8-5.1,4.2-6.3
		L381.4,15.1z"/>
	<path class="st12" d="M374.1,22.7c-0.1-0.1-3.4-2.5-4.7,1.4s2.9,4.4,2.9,4.3S374.1,22.7,374.1,22.7z"/>
	<path class="st14" d="M371.6,26.5c0,0-0.1,0-0.2,0c-0.2,0-0.4,0-0.5-0.1c-0.4-0.5-0.5-1.2-0.3-1.8c0.1-0.3,0.3-0.6,0.5-0.9
		c0.1-0.2,0.4-0.4,0.7-0.4c0.2,0,0.3,0.1,0.3,0.3c0,0.1,0,0.2,0,0.2s0.1,0,0.1-0.2c0-0.1,0-0.2-0.1-0.3c-0.1-0.1-0.2-0.2-0.4-0.2
		c-0.3,0-0.7,0.1-0.9,0.4c-0.3,0.3-0.5,0.6-0.6,1c-0.3,0.7-0.1,1.5,0.4,2c0.2,0.1,0.4,0.2,0.7,0.1C371.6,26.6,371.7,26.5,371.6,26.5
		z"/>
	<path class="st8" d="M379.9,16c1.6-1,3.7-1,5.2,0.1c1.3,0.8,2.4,1.8,3.8,2.6c1.5,1.2,3.8,0.9,5-0.6c0.5-0.7,0.8-1.5,0.7-2.4
		c0.2-2.2-0.5-4.4-2-6c-0.4-0.4-0.9-0.8-1.5-0.6s-0.5,1.2-0.3,1.9c0,0-6.6-2.4-10.6-1C376.3,11.3,379.9,16,379.9,16z"/>
	<path class="st9" d="M382.3,6.5c0,0,0.1,0.3,0.3,0.7c0.3,0.7,0.7,1.2,1.2,1.7c0.8,0.7,1.6,1.4,2.6,1.8c0.6,0.3,1.2,0.5,1.8,0.6
		c0.7,0.1,1.3,0.2,2,0.4s1.3,0.5,1.9,1c0.5,0.4,0.9,1,1.1,1.6s0.3,1.2,0.2,1.8c-0.2,1.3-1.1,2.4-2.3,2.8c-0.2,0.1-0.4,0.1-0.6,0.1
		h-0.2c0,0,0.3,0,0.8-0.2c1.1-0.4,1.9-1.5,2.1-2.7c0-0.6,0-1.1-0.3-1.6c-0.2-0.6-0.6-1.1-1.1-1.5s-1.1-0.7-1.8-0.9
		c-0.7-0.2-1.4-0.3-2-0.4c-0.6-0.1-1.3-0.3-1.8-0.6c-1-0.5-1.9-1.1-2.6-1.9c-0.5-0.5-1-1.2-1.3-1.9c-0.1-0.2-0.1-0.4-0.1-0.6
		C382.3,6.6,382.3,6.5,382.3,6.5z"/>
	<path class="st9" d="M378,7.7c0,0,0.1,0.3,0.3,0.8c0.3,0.7,0.8,1.3,1.3,1.8c0.8,0.7,1.8,1.3,2.9,1.6c1.3,0.4,2.7,0.7,4,0.9
		c1.4,0.2,2.8,0.6,4,1.1c0.6,0.3,1,0.8,1.3,1.3c0.2,0.5,0.2,1.1,0.1,1.6c-0.2,0.8-0.7,1.4-1.4,1.8c-0.2,0.1-0.4,0.2-0.6,0.3
		c-0.1,0.1-0.2,0.1-0.2,0.1s0.3-0.1,0.7-0.5c0.6-0.4,1-1.1,1.2-1.8c0.1-0.5,0.1-1-0.1-1.5s-0.6-0.9-1.1-1.1c-1.3-0.5-2.6-0.9-4-1.1
		c-1.4-0.2-2.7-0.5-4.1-1c-1.1-0.4-2.1-1-2.9-1.8c-0.6-0.5-1-1.2-1.3-1.9c-0.1-0.2-0.1-0.4-0.2-0.6C378,7.8,378,7.8,378,7.7z"/>
	<path class="st8" d="M390.8,28.1c-0.2,0.5-0.7,0.7-1.1,0.6c-0.5-0.1-0.8-0.6-0.6-1.1c0,0,0,0,0-0.1c0.2-0.5,0.7-0.7,1.1-0.6
		C390.6,27,390.9,27.5,390.8,28.1C390.8,28,390.8,28,390.8,28.1z"/>
	<path class="st8" d="M392.5,27.6c-0.1,0.1-0.6-0.7-1.6-1c-0.9-0.3-1.8-0.1-1.9-0.2s0.1-0.2,0.5-0.4c0.5-0.2,1-0.2,1.5,0
		s0.9,0.5,1.2,0.9C392.5,27.3,392.5,27.5,392.5,27.6z"/>
	<path class="st8" d="M381.5,25.4c-0.2,0.5-0.7,0.7-1.1,0.6c-0.5-0.1-0.8-0.6-0.7-1.1l0,0c0.2-0.5,0.7-0.7,1.1-0.6
		C381.3,24.3,381.6,24.8,381.5,25.4C381.5,25.3,381.5,25.3,381.5,25.4z"/>
	<path class="st8" d="M383.1,24.5c-0.1,0.1-0.6-0.6-1.6-1c-0.9-0.3-1.8-0.1-1.9-0.2s0.1-0.2,0.5-0.4c0.5-0.1,1-0.1,1.5,0.1
		s0.9,0.5,1.2,0.9C383.2,24.2,383.2,24.4,383.1,24.5z"/>
	<path class="st8" d="M384.1,32.7c0.5,0,1.1,0.1,1.6,0.3c0.3,0.1,0.5,0.1,0.6-0.1c0.1-0.2,0.1-0.5,0.1-0.8c0-0.7,0-1.4-0.1-2.1
		c-0.1-1.8-0.1-3.6,0.1-5.4c0.3,1.8,0.4,3.6,0.4,5.4c0,0.7,0,1.4,0,2.1c0,0.3,0,0.7-0.2,1c-0.1,0.2-0.3,0.2-0.5,0.2
		c-0.1,0-0.3,0-0.4-0.1C385.1,33.1,384.6,32.9,384.1,32.7z"/>
	<path class="st8" d="M381.1,32.4c0.2,0-0.2,1.1,0.4,2.1s1.8,1.3,1.7,1.4s-0.3,0.1-0.8,0c-0.6-0.2-1.1-0.6-1.4-1.1s-0.4-1.1-0.3-1.7
		C380.8,32.6,381,32.4,381.1,32.4z"/>
	<path class="st8" d="M384.6,20.9c-0.2,0.2-1.1-0.2-2.3-0.5c-1.2-0.3-2.2-0.3-2.2-0.5c-0.1-0.3,0.2-0.3,0.7-0.4
		c0.6-0.1,1.2-0.1,1.8,0c0.6,0.1,1.1,0.4,1.6,0.8C384.6,20.5,384.7,20.8,384.6,20.9z"/>
	<path class="st8" d="M393.1,24.7c-0.2,0.2-0.8-0.3-1.6-0.6c-0.8-0.3-1.5-0.4-1.6-0.6c-0.1-0.3,0.1-0.3,0.5-0.4c1-0.2,2,0.2,2.5,1
		C393.2,24.4,393.2,24.6,393.1,24.7z"/>
	<path class="st9" d="M375.3,108.5c1.8,0.6,2.8,2.4,2.4,4.3l-5.1,2l-1.1-4.9L375.3,108.5z"/>
	<path class="st9" d="M332.4,108.5c0,0,10.2-1.1,16.6,1.2s14.4,3.9,17.9,3.2c1.9-0.5,3.6-1.5,4.8-3c0,0-10.2-1.2-15-2.8
		c-3.2-1-9.6-8.3-21.4-6.5L332.4,108.5z"/>
	<path class="st9" d="M373.3,112.2c-0.4-0.9-0.9-1.8-1.6-2.5l0.1,0.1c-1.1,0-2.1,0.2-3.2,0.5c-1,0.3-2,0.8-2.7,1.7
		c-0.2,0.3-0.4,0.6-0.4,1c0.1,0.5,0.4,0.9,0.8,1.1c0.9,0.8,2,1.5,3.2,1.9s2.6,0.1,3.4-0.9C373.6,114.2,373.7,113.2,373.3,112.2z"/>
	<path class="st8" d="M365.9,111.8c0.1-0.2,0.2-0.4,0.3-0.6c0.4-0.5,0.9-0.8,1.5-1c0.9-0.3,1.8-0.4,2.7-0.2c1.1,0.2,2.1,0.8,2.7,1.8
		s0.6,2.2-0.1,3.2c-0.3,0.4-0.7,0.7-1.1,0.9c-0.4,0.1-0.8,0.2-1.2,0.1c-0.6-0.1-1.2-0.2-1.8-0.4l-0.5-0.2l-0.1-0.1c0,0,0.1,0,0.2,0
		l0.5,0.2c0.6,0.2,1.1,0.3,1.7,0.4c1.4,0.2,2.7-0.9,2.8-2.3c0.1-0.6-0.1-1.2-0.4-1.7c-0.6-0.9-1.5-1.5-2.6-1.7
		c-0.9-0.1-1.8-0.1-2.6,0.2c-0.6,0.2-1.1,0.5-1.5,0.9C366.2,111.4,366,111.6,365.9,111.8z"/>
	<path class="st7" d="M368.1,112c-0.2-0.2-0.4-0.4-0.6-0.5s-0.5-0.3-0.7-0.4c0.3,0,0.5,0.2,0.8,0.3C367.8,111.6,368,111.8,368.1,112
		z"/>
	<path class="st7" d="M369.8,112.1c0,0-0.2-0.2-0.5-0.5s-0.6-0.4-0.6-0.5c0.2,0.1,0.4,0.2,0.6,0.4
		C369.5,111.7,369.6,111.9,369.8,112.1z"/>
	<path class="st7" d="M370.4,115.6c0,0,0-0.2-0.1-0.4c-0.1-0.3-0.3-0.7-0.5-1s-0.4-0.6-0.7-0.8c-0.2-0.2-0.4-0.3-0.4-0.3
		c0.1,0.1,0.3,0.1,0.4,0.2c0.6,0.4,1,1.1,1.2,1.8C370.4,115.3,370.4,115.4,370.4,115.6z"/>
	<path class="st7" d="M372.1,114.3c0,0,0-0.2,0-0.4c0-0.3,0-0.7-0.1-1s-0.2-0.7-0.3-1c-0.1-0.3-0.2-0.4-0.2-0.4s0,0,0.1,0.1
		s0.1,0.2,0.1,0.3c0.2,0.3,0.3,0.7,0.3,1c0.1,0.4,0.1,0.7,0.1,1.1C372.1,114.1,372.1,114.2,372.1,114.3
		C372.2,114.3,372.1,114.3,372.1,114.3z"/>
	<path class="st8" d="M372.1,111.2c-0.8,0.3-1.6,0.7-2.3,1.1c-0.7,0.5-1.3,1.1-1.9,1.8c0.1-0.2,0.3-0.4,0.4-0.6
		c0.4-0.5,0.8-0.9,1.4-1.3c0.5-0.4,1.1-0.7,1.6-0.9C371.6,111.3,371.9,111.2,372.1,111.2z"/>
	<path class="st8" d="M369.6,110.3c-0.6,0.4-1,1-1.4,1.6c-0.3,0.6-0.5,1.3-0.5,2c0-0.2,0-0.4,0-0.6c0.1-0.5,0.2-1,0.4-1.5
		c0.2-0.4,0.6-0.8,1-1.1C369.2,110.5,369.4,110.4,369.6,110.3z"/>
	<path class="st8" d="M372.4,115.6c0,0,0-0.2-0.2-0.6c-0.2-0.5-0.5-0.9-0.9-1.2c-0.6-0.4-1.2-0.8-1.8-1.2c0.2,0.1,0.4,0.1,0.6,0.3
		c0.5,0.2,0.9,0.5,1.3,0.9c0.4,0.3,0.7,0.8,0.9,1.3C372.4,115.2,372.4,115.4,372.4,115.6z"/>
	<path class="st8" d="M350.9,110.2c-0.3,0-0.7-0.1-1-0.2c-0.6-0.1-1.6-0.3-2.7-0.6c-3-0.6-6-0.9-9.1-1.1c-1.7-0.1-3.3,0-5,0.4
		c-1.3,0.4-2.5,1-3.6,1.8c-1,0.8-1.8,1.7-2.6,2.7c0.1-0.3,0.3-0.6,0.5-0.9c1.3-1.9,3.3-3.3,5.6-4c1.7-0.4,3.4-0.6,5.1-0.4
		c3.1,0.1,6.1,0.5,9.1,1.1c1.1,0.3,2.1,0.5,2.7,0.7C350.3,109.9,350.6,110,350.9,110.2z"/>
	<path class="st8" d="M275.8,100c0.2-0.2,0.3-0.3,0.5-0.4c0.5-0.4,1.1-0.7,1.7-0.9c2.2-0.9,4.6-1.1,6.8-0.5c1.6,0.4,3,1.1,4.3,2.2
		c1.4,1.2,2.6,2.6,3.6,4.2c1.1,1.7,2.3,3.3,3.6,4.9c1.4,1.6,2.9,3.2,4.6,4.6c3.1,2.8,6.7,5,10.6,6.5c1.7,0.6,3.5,0.9,5.3,0.9
		c1.6,0.1,3.1-0.3,4.5-1.1c1.1-0.7,2-1.6,2.8-2.7c0.7-0.9,1.3-1.7,1.7-2.4l1-1.6c0.1-0.2,0.2-0.4,0.4-0.5c-0.1,0.2-0.2,0.4-0.3,0.6
		l-1,1.6c-0.4,0.7-1,1.5-1.7,2.5c-0.8,1.1-1.7,2-2.8,2.8c-1.4,0.8-3,1.3-4.6,1.2c-1.8,0-3.7-0.3-5.4-0.9c-4-1.4-7.6-3.6-10.8-6.5
		c-1.6-1.4-3.2-3-4.6-4.7c-1.3-1.6-2.5-3.2-3.6-4.9c-1-1.5-2.2-2.9-3.5-4.1c-1.2-1.1-2.6-1.8-4.1-2.2c-2.2-0.6-4.6-0.4-6.7,0.4
		C277.3,99.1,276.5,99.5,275.8,100z"/>
	<path class="st7" d="M294.6,93.3h-0.5c-0.5,0-1,0.1-1.4,0.1c-1.6,0.2-3.1,0.6-4.6,1.1c-1.5,0.6-2.9,1.3-4.2,2.3
		c-0.5,0.4-0.9,0.7-1.1,0.9l-0.4,0.3c0.5-0.5,1-0.9,1.5-1.3c2.6-1.9,5.7-3.1,8.9-3.4C293.3,93.3,294,93.2,294.6,93.3z"/>
	<path class="st7" d="M306.8,100.6l-0.6,0.1c-0.4,0-0.9,0.1-1.5,0.3c-3.3,0.7-6.4,2.2-9,4.3c-0.5,0.4-0.9,0.8-1.1,1l-0.4,0.4
		c0.5-0.5,1-1,1.5-1.4c2.6-2.2,5.7-3.7,9-4.3C305.4,100.8,306.1,100.7,306.8,100.6z"/>
	<path class="st7" d="M306.4,117.8c0,0,0-0.2-0.1-0.6c-0.1-0.5-0.1-1.1-0.1-1.6c0.1-1.8,0.7-3.5,1.6-5s1.9-3,3.1-4.3
		c0.9-1,1.5-1.6,1.5-1.6l-0.4,0.4l-1.1,1.1c-1.2,1.3-2.2,2.7-3.1,4.3c-0.9,1.5-1.4,3.2-1.6,5c0,0.5,0,1.1,0,1.6c0,0.2,0,0.3,0.1,0.4
		C306.4,117.7,306.4,117.7,306.4,117.8z"/>
	<path class="st7" d="M319.7,110.2c-0.1-0.2-0.1-0.4-0.2-0.6c-0.1-0.5-0.2-1-0.2-1.5s0-1,0.1-1.5c0-0.2,0.1-0.4,0.2-0.6
		c0,0,0,0.2-0.1,0.6c-0.1,0.5-0.1,1-0.1,1.5s0.1,1,0.2,1.5C319.6,109.8,319.6,110,319.7,110.2z"/>
	<path class="st7" d="M322,119.4c-0.4-0.3-0.8-0.6-1.2-0.9c-0.9-0.8-1.7-1.7-2.4-2.8c-0.6-1-1.1-2.2-1.4-3.4c-0.1-0.5-0.2-1-0.3-1.5
		c0,0.1,0.1,0.3,0.1,0.4c0,0.3,0.1,0.6,0.2,1.1c0.3,1.2,0.8,2.3,1.4,3.3s1.4,2,2.3,2.8c0.3,0.2,0.6,0.5,0.8,0.7L322,119.4z"/>
	<path class="st7" d="M332.2,108.9c0,0-0.4-0.2-1-0.5c-0.8-0.5-1.5-1-2.2-1.5c-0.7-0.6-1.4-1.2-2-1.8c-0.5-0.5-0.7-0.8-0.7-0.8
		l0.2,0.2l0.6,0.6c0.6,0.6,1.3,1.2,2,1.8c0.7,0.6,1.4,1.1,2.2,1.5l0.7,0.4L332.2,108.9z"/>
	<path class="st7" d="M339.5,107.9c0,0,0-0.1,0-0.3v-0.8c0-0.7-0.1-1.6-0.3-2.7s-0.3-2-0.5-2.6c-0.1-0.3-0.1-0.5-0.2-0.8
		s-0.1-0.3-0.1-0.3l0.1,0.3c0.1,0.2,0.1,0.5,0.2,0.8c0.2,0.9,0.4,1.8,0.5,2.6c0.1,0.9,0.2,1.8,0.2,2.7c0,0.3,0,0.6,0,0.8
		C339.5,107.8,339.5,107.9,339.5,107.9z"/>
	<path class="st7" d="M348.9,102.8c0,0,0,0.1,0,0.2s0,0.5-0.1,0.7c-0.1,0.7-0.2,1.5-0.4,2.2c-0.2,0.8-0.4,1.6-0.5,2.1l-0.2,0.6
		c0,0.1-0.1,0.2-0.1,0.2c0-0.1,0-0.2,0-0.2c0.1-0.2,0.1-0.4,0.2-0.6c0.1-0.5,0.3-1.3,0.5-2.2c0.2-0.8,0.3-1.6,0.4-2.2
		c0-0.2,0.1-0.4,0.1-0.7C348.8,103,348.8,102.9,348.9,102.8z"/>
	<path class="st7" d="M355.3,109c0,0,0.1-0.6,0.2-1.2c0.1-0.4,0.2-0.8,0.3-1.2c0,0.4-0.1,0.8-0.2,1.2
		C355.5,108.2,355.4,108.6,355.3,109z"/>
	<path class="st7" d="M365.9,112.5c0,0,0-0.2,0.1-0.5s0.1-0.8,0.1-1.2c0-0.5,0-0.7,0-1.2V109c0,0.2,0.1,0.3,0.1,0.5
		c0,0.3,0,0.8,0,1.2c0,0.4,0,0.8-0.1,1.2C365.9,112.2,365.9,112.4,365.9,112.5z"/>
	<path class="st9" d="M367.9,115c-0.8-3.3-4.2-5.4-7.5-5.9s-6.7,0.2-10.1,0.6s-6.9,0.5-10-1c-1,1.8-1.4,3.8-1.4,5.8h1.8
		c0.6,2.6,2.6,4.6,5.2,5.1c2.2,0.6,4.5,0.5,6.5-0.5c2.5-1.1,5.7-2.7,8.1-3.6c2.4-1,5.1-1.1,7.6-0.5"/>
	<path class="st8" d="M342,109.4c-0.1,0.2-0.2,0.5-0.3,0.7c-0.2,0.6-0.4,1.1-0.6,1.7s-0.3,1.2-0.4,1.8c0,0.3,0,0.5-0.1,0.8
		c0-0.3,0-0.5,0-0.8c0-0.6,0.2-1.2,0.3-1.8c0.2-0.6,0.4-1.2,0.7-1.7C341.7,109.8,341.9,109.6,342,109.4z"/>
	<path class="st8" d="M340.8,113c-0.3,0-0.6,0-0.9-0.1c-0.3,0-0.6-0.1-0.9-0.1c0.3-0.1,0.6-0.1,0.9,0
		C340.2,112.8,340.5,112.8,340.8,113z"/>
	<path class="st8" d="M341.1,110.9c0,0-0.4-0.2-0.8-0.4c-0.5-0.2-0.9-0.2-0.9-0.2c0.3-0.1,0.6,0,0.9,0.1
		C340.7,110.5,341,110.7,341.1,110.9z"/>
	<path class="st8" d="M344.7,109.8h0.5c0.4,0,0.9,0,1.5,0c1.9,0,3.7-0.2,5.5-0.6c2.7-0.6,5.5-0.6,8.3-0.2c1.6,0.3,3.2,0.9,4.6,1.8
		c1.5,1,2.6,2.5,3.1,4.3l0.1,0.2l-0.2-0.1c-0.7-0.3-1.5-0.6-2.3-0.6c-1.9,0-3.8,0.3-5.6,1c-1.7,0.6-3.3,1.3-5,2
		c-0.8,0.4-1.5,0.7-2.3,1c-0.7,0.3-1.5,0.6-2.2,0.8c-1.4,0.3-2.8,0.4-4.2,0.2c-1.2-0.2-2.3-0.6-3.3-1.2c-0.7-0.5-1.4-1.2-1.8-1.9
		c-0.3-0.5-0.5-1-0.7-1.5c-0.1-0.2-0.1-0.4-0.1-0.6c0.2,0.7,0.5,1.4,0.8,2.1c0.5,0.7,1.1,1.4,1.8,1.8c1,0.6,2.1,1,3.2,1.1
		c1.4,0.2,2.8,0.1,4.2-0.2c0.8-0.2,1.5-0.5,2.2-0.8s1.5-0.7,2.3-1c1.6-0.8,3.3-1.5,5-2c1.8-0.7,3.8-1,5.7-1c0.8,0.1,1.6,0.3,2.4,0.6
		l-0.1,0.1c-0.5-1.7-1.6-3.2-3.1-4.2c-1.3-0.9-2.9-1.6-4.5-1.8c-2.7-0.4-5.5-0.3-8.2,0.2c-1.8,0.3-3.7,0.5-5.5,0.5
		C345.4,109.9,344.7,109.8,344.7,109.8z"/>
	<path class="st7" d="M344.5,119c-0.1-0.1-0.1-0.2-0.1-0.3c-0.1-0.3-0.2-0.6-0.3-1c-0.2-1.1-0.3-2.2-0.2-3.3
		c0.1-1.1,0.3-2.2,0.7-3.2c0.1-0.3,0.2-0.6,0.4-0.9c0.1-0.2,0.2-0.3,0.2-0.3s-0.2,0.5-0.5,1.3c-0.3,1-0.5,2.1-0.6,3.2s0,2.2,0.2,3.3
		C344.4,118.5,344.6,119,344.5,119z"/>
	<path class="st7" d="M351.1,114.6c0.1,0.2,0.1,0.4,0.1,0.6c0.1,0.4,0.2,0.9,0.3,1.5c0.3,1.1,0.6,2.1,0.6,2.1
		c-0.1-0.2-0.2-0.4-0.3-0.6c-0.1-0.4-0.3-0.9-0.5-1.5c-0.1-0.5-0.2-1-0.3-1.5C351,115.1,351,114.8,351.1,114.6z"/>
	<path class="st7" d="M350.1,112c0,0,0,0.6,0.1,1.2c0.1,0.4,0.1,0.8,0.1,1.2c-0.2-0.4-0.3-0.8-0.3-1.2
		C350,112.9,350,112.4,350.1,112z"/>
	<path class="st7" d="M351.8,109.4c0,0-0.2,0.5-0.3,1.1c-0.1,0.6-0.1,1.1-0.1,1.1c-0.1-0.4-0.1-0.8,0-1.1
		C351.4,110.1,351.5,109.7,351.8,109.4z"/>
	<path class="st7" d="M357,110.9c-0.3-0.2-0.4-0.6-0.5-0.9s-0.1-0.7,0-1c0,0,0,0.4,0.1,1C356.8,110.5,357,110.8,357,110.9z"/>
	<path class="st7" d="M361,115.1c-0.2-0.2-0.3-0.4-0.4-0.6c-0.3-0.5-0.6-1-0.8-1.6c-0.2-0.5-0.4-1.1-0.6-1.7
		c-0.1-0.2-0.1-0.5-0.1-0.7c0.1,0.2,0.2,0.5,0.2,0.7c0.1,0.4,0.3,1,0.6,1.7s0.6,1.1,0.8,1.6C360.8,114.7,360.9,114.9,361,115.1z"/>
	<path class="st7" d="M362.2,109.6c0,0-0.1,0.2-0.2,0.3c-0.1,0.2-0.2,0.3-0.3,0.3s0-0.2,0.1-0.4
		C361.9,109.7,362.2,109.6,362.2,109.6z"/>
	<path class="st7" d="M368.1,115.3l-0.2-0.2c-0.1-0.1-0.4-0.3-0.7-0.5c-0.9-0.5-1.8-0.9-2.9-1c-1.5-0.2-3,0-4.5,0.5
		c-1.7,0.6-3.5,1.3-5.1,2.1c-1.7,0.8-3.5,1.3-5.3,1.5c-2.5,0.2-5.1-0.3-7.4-1.5c-0.2-0.1-0.5-0.3-0.7-0.4l-0.2-0.2l0.2,0.1
		c0.2,0.1,0.5,0.3,0.7,0.4c0.9,0.5,1.8,0.9,2.8,1.1c1.5,0.4,3,0.5,4.5,0.4c1.8-0.2,3.6-0.7,5.3-1.5c1.7-0.8,3.4-1.5,5.1-2.1
		c1.4-0.5,3-0.6,4.5-0.5c1,0.1,2,0.5,2.9,1C367.6,114.8,367.9,115,368.1,115.3z"/>
	<path class="st7" d="M355.5,111.7l-0.5,0.2c-0.3,0.1-0.9,0.3-1.5,0.6c-1.7,0.6-3.4,0.9-5.1,0.9c-1.8-0.1-3.5-0.3-5.2-0.9
		c-1.3-0.4-2.1-0.7-2.1-0.7l0.6,0.2l1.5,0.4c1.7,0.5,3.4,0.8,5.1,0.8s3.5-0.3,5.1-0.8c0.6-0.2,1.1-0.4,1.5-0.5L355.5,111.7z"/>
	<path class="st7" d="M363.2,110.9l-0.2-0.1c-0.1-0.1-0.3-0.2-0.5-0.3c-0.7-0.4-1.4-0.6-2.2-0.7c-1.1-0.2-2.3-0.2-3.4-0.1
		c-1.3,0.1-2.7,0.4-4.1,0.7c-2.5,0.5-5.1,0.6-7.6,0.2c-1-0.1-2.1-0.3-3.1-0.6l0.8,0.2c0.5,0.1,1.3,0.2,2.3,0.4
		c2.5,0.3,5.1,0.3,7.5-0.2c1.5-0.3,2.8-0.6,4.1-0.7c1.1-0.1,2.3-0.1,3.4,0.1c0.8,0.1,1.5,0.4,2.2,0.8
		C362.8,110.6,363,110.7,363.2,110.9z"/>
	<path class="st8" d="M368,114.9c-0.6-0.8-1.3-1.6-2.1-2.3c-0.9-0.7-1.9-1.2-2.9-1.6c-1.3-0.4-2.7-0.5-4-0.3
		c-1.3,0.3-2.6,0.8-3.8,1.5c-1.1,0.6-2.1,1.3-3,1.7c-0.7,0.4-1.4,0.6-2.2,0.7c-0.2,0-0.4,0.1-0.6,0.1c-0.1,0-0.2,0-0.2,0
		c1-0.2,2-0.5,2.9-1c0.8-0.4,1.8-1.1,2.9-1.7c1.2-0.8,2.5-1.3,3.9-1.6c1.4-0.2,2.8-0.1,4.2,0.3c1.1,0.4,2.1,0.9,3,1.7
		c0.6,0.5,1.1,1.1,1.5,1.7C367.7,114.4,367.9,114.6,368,114.9z"/>
	<path class="st8" d="M357.5,111c-1.4,0.6-3,1-4.6,1c-1.6,0.2-3.2,0.1-4.7-0.4c0-0.1,2.1,0.2,4.7,0
		C355.5,111.5,357.4,110.9,357.5,111z"/>
	<path class="st7" d="M353.7,108.7l-0.8-0.4c-0.6-0.2-1.4-0.6-2.5-1c-3-1.2-6.3-1.8-9.5-2c-2.2-0.1-4.5,0.2-6.6,0.9
		c-2.5,0.7-4.8,2-6.6,3.8c-2,1.9-3.6,4.3-5.9,6.2c-1.1,1-2.5,1.7-4,2.1c-1.5,0.3-3.1,0.2-4.6-0.3s-2.9-1.3-4.1-2.3s-2.2-2.1-3.1-3.3
		c-1.8-2.4-3.3-4.8-4.9-7c-1.5-2.1-3.3-4-5.2-5.7c-1.7-1.5-3.6-2.7-5.7-3.5c-3-1.3-6.3-1.6-9.5-1c-0.9,0.2-1.7,0.5-2.5,0.8l-0.8,0.4
		l0.8-0.4c0.8-0.4,1.6-0.7,2.5-0.9c3.2-0.7,6.5-0.3,9.6,0.9c2.1,0.9,4,2.1,5.7,3.5c2,1.7,3.7,3.6,5.2,5.7c1.7,2.2,3.1,4.6,4.9,7
		c0.9,1.2,1.9,2.3,3.1,3.3s2.6,1.8,4,2.3c1.5,0.5,3,0.6,4.6,0.3c1.5-0.4,2.8-1.1,3.9-2.1c2.3-1.9,3.9-4.3,5.9-6.2
		c1.9-1.8,4.1-3.1,6.6-3.9c2.2-0.7,4.4-0.9,6.7-0.9c3.3,0.2,6.5,0.8,9.5,2C352.6,108.1,353.7,108.7,353.7,108.7z"/>
	<path class="st7" d="M316.7,110.9c-0.4,0-0.8,0-1.2,0c-1.1-0.2-2.1-0.6-3-1.2c-1.3-0.9-2.4-2.1-3.3-3.4c-1.1-1.5-2.1-3.2-3.5-4.8
		c-2.4-2.7-5.2-5-8.4-6.6c-1-0.5-1.9-1-3-1.4l-1.1-0.4c0,0,0.4,0.1,1.1,0.4c1,0.4,2,0.8,3,1.3c3.2,1.7,6,3.9,8.4,6.6
		c1.4,1.6,2.4,3.3,3.5,4.8c0.9,1.3,2,2.5,3.3,3.4c0.9,0.6,1.9,1.1,3,1.3c0.3,0,0.6,0.1,0.9,0.1L316.7,110.9z"/>
	<path class="st7" d="M351.5,104.5l-0.2-0.1c-0.2-0.1-0.4-0.2-0.7-0.4c-0.8-0.4-1.6-0.8-2.5-1.1c-5.7-2.3-12.2-2.1-17.7,0.5
		c-0.8,0.4-1.6,0.8-2.4,1.3c-0.3,0.2-0.5,0.3-0.6,0.4l-0.2,0.1c0,0,0.3-0.2,0.8-0.6c0.8-0.5,1.6-1,2.4-1.4c2.8-1.3,5.8-2.1,8.8-2.2
		c3.1-0.1,6.1,0.5,9,1.6c0.9,0.4,1.7,0.8,2.5,1.2C351.1,104.3,351.5,104.5,351.5,104.5z"/>
	<path class="st7" d="M336.1,107.9l-0.1-0.3l-0.3-0.8c-0.3-0.9-0.7-1.7-1.1-2.6c-0.4-0.8-0.9-1.6-1.4-2.4l-0.5-0.7
		c-0.1-0.2-0.2-0.3-0.2-0.3s0.3,0.3,0.7,0.9c1.1,1.5,1.9,3.2,2.5,5C335.9,107.1,336,107.5,336.1,107.9z"/>
	<path class="st7" d="M344.1,100.9c0,0.4,0.1,0.8,0.1,1.1c0,1.8-0.2,3.6-0.8,5.3c-0.1,0.4-0.2,0.7-0.4,1c0,0,0-0.1,0.1-0.3l0.2-0.8
		c0.2-0.9,0.4-1.7,0.5-2.6s0.2-1.8,0.2-2.6L344.1,100.9L344.1,100.9z"/>
	<path class="st7" d="M326.7,113.7c-0.3-0.2-0.6-0.4-0.9-0.6c-0.7-0.5-1.3-1-1.9-1.6s-1.1-1.3-1.6-1.9c-0.2-0.3-0.4-0.6-0.5-0.9
		l0.2,0.2c0.1,0.1,0.3,0.4,0.4,0.6c0.5,0.7,1,1.3,1.6,1.9s1.2,1.1,1.9,1.6l0.6,0.4L326.7,113.7z"/>
	<path class="st7" d="M315.1,111.3c-0.1-0.3-0.1-0.5-0.2-0.8c-0.2-1.3-0.2-2.6,0.2-3.9c0.1-0.3,0.2-0.5,0.3-0.8c0,0,0,0.1-0.1,0.2
		c-0.1,0.2-0.1,0.4-0.2,0.6c-0.2,0.6-0.3,1.3-0.3,1.9s0,1.3,0.1,1.9c0,0.3,0.1,0.4,0.1,0.6C315,111.2,315.1,111.3,315.1,111.3z"/>
	<path class="st7" d="M315,121.1c-0.2-0.4-0.4-0.8-0.6-1.2c-0.4-1-0.7-2.1-0.9-3.1c-0.2-1.1-0.3-2.1-0.4-3.2c0-0.4,0-0.9,0-1.3v0.4
		c0,0.2,0,0.6,0,1c0,1.1,0.2,2.2,0.4,3.2c0.2,1.1,0.5,2.1,0.9,3.1c0.1,0.4,0.3,0.7,0.4,0.9C314.9,121,315,121.1,315,121.1z"/>
	<path class="st7" d="M323.9,105.4c0,0.2,0.1,0.4,0.1,0.6c0.1,0.3,0.3,0.5,0.3,0.5C324,106.2,323.8,105.8,323.9,105.4L323.9,105.4z"
		/>
	<path class="st7" d="M309.2,102.6l-0.5,0.3c-0.3,0.2-0.8,0.4-1.3,0.8c-2.9,1.7-5.4,4-7.4,6.7c-0.4,0.5-0.7,0.9-0.9,1.2l-0.3,0.5
		c0.3-0.6,0.7-1.2,1.1-1.7c1-1.4,2.2-2.6,3.4-3.7c1.3-1.1,2.6-2.1,4.1-3C307.9,103.2,308.5,102.8,309.2,102.6z"/>
	<path class="st7" d="M300.1,95l-0.5,0.1l-1.3,0.3c-1.4,0.4-2.8,0.9-4.1,1.5c-1.3,0.6-2.6,1.3-3.8,2.1c-0.5,0.3-0.8,0.6-1.1,0.8
		l-0.4,0.3c0,0,0.5-0.4,1.4-1.1c1.2-0.8,2.5-1.6,3.8-2.2s2.7-1.1,4.1-1.5C299.4,95.1,300.1,95,300.1,95z"/>
	<path class="st7" d="M361.7,108.3c0,0.2,0,0.3-0.1,0.5c0,0.2-0.1,0.3-0.1,0.4c0-0.2,0-0.3,0.1-0.5
		C361.6,108.6,361.6,108.4,361.7,108.3z"/>
	<path class="st12" d="M396,107.9c0,0,3.4,0.7,4.9,1c0.5,0.1,1,0,1.4,0.1c2.1,0.3,4.2,0.3,6.3-0.1c1.4-0.5,1.5,1.3-0.1,2.1
		c-0.8,0.4-1.6,0.7-2.5,0.9l3.8,3c0.2,0.2,0.3,0.4,0.4,0.6l1,6.6c0.1,0.6-0.2,1.1-0.7,1.3c-0.3,0.1-0.6,0-0.7-0.3l0.1,0.9
		c0.1,0.6-0.3,1.2-0.9,1.3c-0.6,0.1-1.2-0.3-1.3-0.9l0,0l0,0l-1.3,0.7c0,0-0.9,0.9-1.8-0.3c-0.8-1.1-3.1-5.2-3.1-5.2
		s-10-4.2-9.8-5.9L396,107.9z"/>
	<path class="st14" d="M407.5,124.6c-0.1-0.5-0.2-1.1-0.3-1.6c-0.1-1-0.4-2.4-0.6-3.9c-0.1-0.7-0.3-1.5-0.5-2.1
		c-0.1-0.3-0.3-0.5-0.5-0.6l-0.7-0.4c-0.5-0.3-0.9-0.6-1.3-1c0.5,0.2,1,0.4,1.5,0.7l0.7,0.4c0.3,0.2,0.6,0.4,0.7,0.8
		c0.2,0.7,0.4,1.4,0.5,2.1c0.2,1.5,0.4,2.9,0.5,3.9C407.6,123.5,407.6,124,407.5,124.6z"/>
	<path class="st14" d="M409.7,123.3c-0.2,0-0.4-2.4-1-5.3c-0.1-0.7-0.3-1.3-0.6-1.9c-0.4-0.4-0.8-0.8-1.2-1.1
		c-0.3-0.2-0.6-0.5-0.9-0.7c-0.2-0.1-0.4-0.2-0.4-0.2s0.2,0,0.4,0c0.4,0.1,0.7,0.3,1,0.6c0.5,0.3,0.9,0.7,1.3,1.1
		c0.4,0.6,0.7,1.3,0.8,2c0.3,1.2,0.5,2.5,0.6,3.8C409.7,122.2,409.7,122.8,409.7,123.3z"/>
	<path class="st14" d="M401.5,117c0.5,0.1,0.9,0.4,1.3,0.6l0.6,0.4c0.3,0.1,0.5,0.3,0.7,0.5c0.2,0.3,0.4,0.6,0.4,0.9
		c0.1,0.3,0.2,0.6,0.3,0.9c0.5,1.5,1,3.1,1.2,4.7c-0.7-1.5-1.2-3-1.6-4.6l-0.3-0.9c-0.1-0.3-0.2-0.5-0.3-0.8
		c-0.2-0.2-0.4-0.4-0.6-0.5l-0.6-0.4C402.3,117.7,401.9,117.4,401.5,117z"/>
	<path class="st14" d="M401.8,109.8c1.1,0.2,2.1,0.7,3,1.3c1,0.5,1.9,1.1,2.7,2c-1-0.5-1.9-1-2.9-1.6l-2-1.1
		C402.3,110.2,402,110,401.8,109.8z"/>
</g>
</svg>
