<svg xmlns="http://www.w3.org/2000/svg" viewBox="0 0 500 500"><defs><style>.cls-1{fill:#f5f5f5;}.cls-2{fill:#e0e0e0;}.cls-3{fill:#3e4950;}.cls-18,.cls-4,.cls-7{fill:#fff;}.cls-5{fill:#455a64;}.cls-12,.cls-19,.cls-6,.cls-9{fill:#708bfc;}.cls-6,.cls-8{opacity:0.3;}.cls-10,.cls-12,.cls-7{opacity:0.5;}.cls-11{fill:#fafafa;}.cls-13{fill:#9f6668;}.cls-14{fill:#263238;}.cls-15{opacity:0.4;}.cls-16{opacity:0.2;}.cls-17{fill:#884b4e;}.cls-18{opacity:0.75;}.cls-19,.cls-20{opacity:0.1;}</style></defs><title>Events</title><g id="Windows"><ellipse id="Floor" class="cls-1" cx="248.69" cy="338.36" rx="231.15" ry="133.46"/><path id="Shadow" class="cls-2" d="M427.74,362.39l-60.66-35a1.32,1.32,0,0,1,0-2.5l39-22.49a4.81,4.81,0,0,1,4.34,0l60.66,35a1.31,1.31,0,0,1,0,2.49l-39,22.49A4.81,4.81,0,0,1,427.74,362.39Z"/><ellipse id="Shadow-2" data-name="Shadow" class="cls-2" cx="165.02" cy="370.13" rx="101.93" ry="58.85"/><ellipse id="Shadow-3" data-name="Shadow" class="cls-2" cx="261.23" cy="358.22" rx="66.39" ry="38.33"/><g id="Plants"><path class="cls-3" d="M63.67,320.24l.82-13s-.77-16.61-17.23-31.94c-10-9.3-18.28-4.29-20.34.78s-.35,12.76,9.37,19.94c15.22,11.26,28,29.07,29.66,41.69Z"/><path class="cls-4" d="M63.19,316.57a.57.57,0,0,1-.62-.4c-7.5-24.8-29-39.68-29.27-39.83a.58.58,0,0,1-.15-.8.56.56,0,0,1,.79-.15c.22.15,22.11,15.25,29.73,40.44a.58.58,0,0,1-.39.72Z"/><path class="cls-5" d="M64.32,320.68a6.82,6.82,0,0,0-1.5-3.89c-1.61-1.86-4.41-2.45-5.75-4.5a16.2,16.2,0,0,1-1.28-3.2,10.29,10.29,0,0,0-5.24-5.37,13.76,13.76,0,0,0-7.5-1.05c-1.93.25-3.81.83-5.73,1.11-6.33.9-12.2-4.9-18.49-1-3.78,2.36-3.52,6.48-1.43,9.94a19.23,19.23,0,0,0,4.09,4.63c1.7,1.43,3.49,2.3,3.66,4.81.13,1.82-.44,3.63-.42,5.45a10.45,10.45,0,0,0,4,7.74,18,18,0,0,0,8.18,3.52c2.18.41,4.71.75,5.92,2.62a10.83,10.83,0,0,1,1,3.25A13.28,13.28,0,0,0,51,353.07a20.19,20.19,0,0,0,11,1.68,16.79,16.79,0,0,0,8.93-3.33c4.28-3.49,1.82-10.1-1-13.79-1.22-1.62-2.74-3-3.88-4.69-2.26-3.35-1.88-6.24-1.67-10.07A13.37,13.37,0,0,0,64.32,320.68Z"/><path class="cls-4" d="M67.67,345.32a.46.46,0,0,1-.5-.24c-15.31-27.53-39.88-35.26-40.12-35.33a.47.47,0,1,1,.27-.91c.25.08,25.17,7.9,40.68,35.78a.49.49,0,0,1-.19.65Z"/><path class="cls-4" d="M53.07,326.37H53c-6.73-.29-16.91,2.42-17,2.44a.47.47,0,1,1-.24-.91c.42-.12,10.43-2.77,17.3-2.48a.48.48,0,0,1,.07.94Z"/><path class="cls-4" d="M48.19,321.79h0a.47.47,0,0,1-.53-.41,36.57,36.57,0,0,1,.26-10.22.48.48,0,0,1,.56-.38.49.49,0,0,1,.38.56,35.66,35.66,0,0,0-.26,9.91A.47.47,0,0,1,48.19,321.79Z"/></g><g id="Screen"><path class="cls-6" d="M459.4,128.07,274.49,21.33c-2.79-1.61-5-.3-5,2.91V170.68a11.13,11.13,0,0,0,5,8.73L459.4,286.15c2.78,1.61,5,.31,5-2.91V136.8A11.16,11.16,0,0,0,459.4,128.07Z"/><path class="cls-7" d="M459.4,128.07,274.49,21.33c-2.79-1.61-5-.3-5,2.91V170.68a11.13,11.13,0,0,0,5,8.73L459.4,286.15c2.78,1.61,5,.31,5-2.91V136.8A11.16,11.16,0,0,0,459.4,128.07Z"/><path class="cls-6" d="M460.37,258.59V239.83l-12.18-7v14.07l-4.06-2.34V221.06L436,216.37v9.38l-4.06-2.34v18.76l-8.12-4.69V223.41l-4.07-2.35v-4.69L415.69,214v-4.69L411.63,207v4.69l-4.06-2.34V214l-4.07-2.35v4.69l-8.13-4.69V197.61l-12.18-7V214l-4.07-2.35V197.61L371,192.92V207L367,204.65V200l-8.13-4.69v-9.39l-8.12-4.69v4.7l-4.06-2.37v14.09l-4.07-2.34V176.5l-4.06-2.34v-4.69l-4.06-2.35v-4.69l-4.06-2.34v4.69l-4.06-2.35v4.69l-4.07-2.34v23.45l-4.06-2.35V176.5l-12.05-7v4.77l-8.26-4.77v-9.38l-4.06-2.35v-4.69l-4.06-2.34V146l-4.07-2.35v4.69L281.64,146v4.69l-4.06-2.35v9.38l-8.13-4.69v17.63a11.13,11.13,0,0,0,5,8.73L459.4,286.15c2.78,1.61,5,.31,5-2.91V260.93Z"/><g class="cls-8"><path class="cls-9" d="M272.24,21.64a3.59,3.59,0,0,1,1.75.56L458.9,128.94a10.2,10.2,0,0,1,4.54,7.86V283.24c0,.78-.18,2.6-1.79,2.6a3.61,3.61,0,0,1-1.75-.55L275,178.54a10.2,10.2,0,0,1-4.54-7.86V24.24c0-.78.17-2.6,1.79-2.6m0-1c-1.66,0-2.79,1.32-2.79,3.6V170.68a11.13,11.13,0,0,0,5,8.73L459.4,286.15a4.54,4.54,0,0,0,2.25.69c1.65,0,2.79-1.32,2.79-3.6V136.8a11.16,11.16,0,0,0-5-8.73L274.49,21.33a4.57,4.57,0,0,0-2.25-.69Z"/></g><path class="cls-7" d="M322.8,97.08,403,143.36c4.78,2.76,8.66,9.48,8.66,15v22.22c0,5.52-3.88,7.76-8.66,5L322.8,139.29c-4.78-2.76-8.66-9.48-8.66-15V102.08C314.14,96.55,318,94.31,322.8,97.08Z"/><g class="cls-10"><path class="cls-9" d="M406.84,187.26a8.37,8.37,0,0,1-4.12-1.25l-80.17-46.29c-4.91-2.83-8.91-9.76-8.91-15.43V102.08c0-2.86,1-5,2.79-6s4.15-.82,6.62.6l80.17,46.29c4.91,2.84,8.91,9.76,8.91,15.43v22.22c0,2.85-1,5-2.79,6A5,5,0,0,1,406.84,187.26ZM318.93,96.39a4,4,0,0,0-2,.51c-1.48.85-2.29,2.69-2.29,5.18v22.21c0,5.35,3.77,11.89,8.41,14.57l80.17,46.28c2.15,1.24,4.15,1.46,5.62.61s2.29-2.69,2.29-5.17V158.36c0-5.35-3.77-11.89-8.41-14.57L322.55,97.51A7.43,7.43,0,0,0,318.93,96.39Z"/></g><g class="cls-10"><path class="cls-9" d="M335.57,115.27a9.11,9.11,0,0,1,2.2,1.81,14.14,14.14,0,0,1,1.74,2.37,12.94,12.94,0,0,1,1.14,2.51,7.33,7.33,0,0,1,.43,2.18.51.51,0,0,1-.12.38.2.2,0,0,1-.27,0l-2.46-1.42a1.48,1.48,0,0,1-.42-.36,3.06,3.06,0,0,1-.33-.53c0-.08-.1-.21-.18-.4a4.39,4.39,0,0,0-.34-.61,4,4,0,0,0-.57-.7,3.59,3.59,0,0,0-.82-.64,4.19,4.19,0,0,0-.69-.32,1.47,1.47,0,0,0-.58-.11.55.55,0,0,0-.41.21,1,1,0,0,0-.16.63,2,2,0,0,0,.18.83,4,4,0,0,0,.6.88,14.31,14.31,0,0,0,1.11,1.12l1.73,1.54a16.34,16.34,0,0,1,1.8,1.85,10.76,10.76,0,0,1,1.29,2,9.09,9.09,0,0,1,.76,2.18,11.4,11.4,0,0,1,.26,2.49,5.66,5.66,0,0,1-.43,2.38,2.61,2.61,0,0,1-1.21,1.28,3,3,0,0,1-1.84.2,7,7,0,0,1-2.32-.91,10,10,0,0,1-2.32-1.86,13.44,13.44,0,0,1-1.81-2.41,12.64,12.64,0,0,1-1.19-2.61,8.17,8.17,0,0,1-.45-2.43.52.52,0,0,1,.12-.38.23.23,0,0,1,.27,0l2.46,1.42a1.58,1.58,0,0,1,.41.34,3.35,3.35,0,0,1,.3.48c.05.1.13.27.22.5a6.6,6.6,0,0,0,.41.77,5.73,5.73,0,0,0,.64.85,3.71,3.71,0,0,0,.94.74,4.08,4.08,0,0,0,1.66.63c.45,0,.67-.24.67-.81a1.7,1.7,0,0,0-.25-.87,5.16,5.16,0,0,0-.73-.95c-.32-.35-.74-.75-1.24-1.2s-1.11-1-1.8-1.61a11.57,11.57,0,0,1-2.82-3.75,11,11,0,0,1-.89-4.49,5.66,5.66,0,0,1,.37-2.15,2.83,2.83,0,0,1,1.06-1.38,2.64,2.64,0,0,1,1.68-.41A5.29,5.29,0,0,1,335.57,115.27Z"/><path class="cls-9" d="M354.25,126.34a1,1,0,0,1,.35.44,1.46,1.46,0,0,1,.15.64v3.06a.62.62,0,0,1-.15.46.27.27,0,0,1-.35,0l-3.3-1.9v14.81a.61.61,0,0,1-.15.46.27.27,0,0,1-.36,0L348,142.94a1,1,0,0,1-.35-.44,1.45,1.45,0,0,1-.15-.63V127.05l-3.3-1.9a1,1,0,0,1-.36-.44,1.45,1.45,0,0,1-.15-.63V121a.63.63,0,0,1,.15-.47.28.28,0,0,1,.36,0Z"/><path class="cls-9" d="M363.47,131.67a1.42,1.42,0,0,1,.58.65,3.9,3.9,0,0,1,.27.79l4.09,20.55a2.35,2.35,0,0,1,.07.48.52.52,0,0,1-.12.38.24.24,0,0,1-.29,0l-2.36-1.37a1.3,1.3,0,0,1-.54-.55A2.21,2.21,0,0,1,365,152l-.53-2.7-5-2.88-.52,2.09a.65.65,0,0,1-.2.36c-.11.11-.29.08-.54-.06l-2.36-1.36a.84.84,0,0,1-.29-.36,1.2,1.2,0,0,1-.12-.52,1.46,1.46,0,0,1,.07-.39l4.09-15.83a1.15,1.15,0,0,1,.27-.48c.14-.13.33-.13.58,0Zm-3,10.86,3,1.76L362,136.48Z"/><path class="cls-9" d="M377,139.48a10.48,10.48,0,0,1,2.21,1.68,10.07,10.07,0,0,1,1.66,2.17,10.54,10.54,0,0,1,1.05,2.67,13.19,13.19,0,0,1,.36,3.14,7.11,7.11,0,0,1-.58,3.26,2.12,2.12,0,0,1-1.65,1.23l2.33,8.21a1.27,1.27,0,0,1,.05.35.51.51,0,0,1-.12.38.21.21,0,0,1-.29,0l-2.55-1.47a1.26,1.26,0,0,1-.53-.57,6.5,6.5,0,0,1-.26-.67l-2.08-7.38-1.72-1v6.18a.62.62,0,0,1-.15.46.28.28,0,0,1-.36,0l-2.46-1.42a1,1,0,0,1-.35-.43,1.5,1.5,0,0,1-.15-.64V137a.61.61,0,0,1,.15-.46.26.26,0,0,1,.35,0ZM374.88,147l2.12,1.23a1.67,1.67,0,0,0,1.3.29q.51-.17.51-1.38a3.45,3.45,0,0,0-.51-2A4.09,4.09,0,0,0,377,144l-2.12-1.22Z"/><path class="cls-9" d="M395.37,150.09a.93.93,0,0,1,.36.43,1.53,1.53,0,0,1,.15.64v3.06a.61.61,0,0,1-.15.46.27.27,0,0,1-.36,0l-3.3-1.91v14.81a.63.63,0,0,1-.15.47.27.27,0,0,1-.35,0l-2.46-1.42a1,1,0,0,1-.36-.43,1.5,1.5,0,0,1-.15-.64V150.8l-3.3-1.91a1,1,0,0,1-.35-.43,1.5,1.5,0,0,1-.15-.64v-3.06a.62.62,0,0,1,.15-.46.26.26,0,0,1,.35,0Z"/></g><path class="cls-6" d="M287.74,37.86a13.48,13.48,0,0,1,6.09,10.55c0,3.89-2.73,5.46-6.09,3.52a13.46,13.46,0,0,1-6.1-10.55C281.64,37.49,284.37,35.92,287.74,37.86Z"/><path class="cls-11" d="M291.26,45.79a5.23,5.23,0,0,0-.43-2h0a3.43,3.43,0,0,0-1.29-1.64c-.87-.52-1.61.53-1.72,1.77-.11-1.37-.83-3.28-1.7-3.79a1,1,0,0,0-1.3.13h0a2.27,2.27,0,0,0-.44,1.5c0,2.1,1.25,4,2.3,6l1.11,2.1,1.13-.78C290,48.3,291.25,47.88,291.26,45.79Z"/><path class="cls-6" d="M306,48.41A13.48,13.48,0,0,1,312.11,59c0,3.88-2.73,5.46-6.1,3.51a13.46,13.46,0,0,1-6.09-10.55C299.92,48,302.65,46.47,306,48.41Z"/><path class="cls-11" d="M309.46,56.36a5.22,5.22,0,0,0-.43-2h0v0a3.61,3.61,0,0,0-1.29-1.64c-.88-.52-1.61.53-1.73,1.77-.1-1.37-.82-3.27-1.7-3.78a1,1,0,0,0-1.29.12h0a2.3,2.3,0,0,0-.44,1.51c0,2.09,1.25,4,2.31,6l1.11,2.1,1.12-.79C308.18,58.87,309.45,58.46,309.46,56.36Z"/><path class="cls-6" d="M324.29,59a13.44,13.44,0,0,1,6.1,10.55c0,3.88-2.73,5.46-6.1,3.52a13.49,13.49,0,0,1-6.09-10.56C318.2,58.6,320.93,57,324.29,59Z"/><path class="cls-11" d="M327.74,66.92a5.23,5.23,0,0,0-.43-2h0A3.56,3.56,0,0,0,326,63.24c-.88-.51-1.61.54-1.73,1.78-.1-1.37-.82-3.28-1.7-3.79a1,1,0,0,0-1.29.13h0a2.27,2.27,0,0,0-.44,1.5c0,2.09,1.25,4,2.31,6l1.11,2.1,1.12-.78C326.46,69.43,327.73,69,327.74,66.92Z"/><path class="cls-11" d="M342.19,70.68l85.21,49.2a9.29,9.29,0,0,1,4.33,7.19c0,2.59-1.94,3.57-4.33,2.19l-85.21-49.2a9.29,9.29,0,0,1-4.33-7.19C337.86,70.28,339.8,69.3,342.19,70.68Z"/><path class="cls-12" d="M340.25,74.24a4.64,4.64,0,0,0,2.17,3.59l85.6,49.5c1.2.69,2.17.2,2.17-1.1a4.64,4.64,0,0,0-2.17-3.59l-85.6-49.5C341.22,72.45,340.25,72.94,340.25,74.24Z"/><g class="cls-8"><path class="cls-9" d="M436.19,127.82a.7.7,0,0,1-.05-.31.29.29,0,0,1,.1-.19l1.94-1.17.17-.09a.27.27,0,0,1,.24,0l1.1.63a.46.46,0,0,1,.17.21.67.67,0,0,1,.07.31v9a.29.29,0,0,1-.07.22.13.13,0,0,1-.17,0l-1.18-.68a.46.46,0,0,1-.17-.21.67.67,0,0,1-.07-.31v-6.05l-1.07.63a.16.16,0,0,1-.18,0,.48.48,0,0,1-.16-.24Z"/><path class="cls-9" d="M444.3,129.24a4.23,4.23,0,0,1,1.16,1,6.3,6.3,0,0,1,.81,1.28,6.81,6.81,0,0,1,.47,1.47,9.25,9.25,0,0,1,.19,1.54c0,.41,0,.83,0,1.26s0,.84,0,1.21a5.92,5.92,0,0,1-.19,1.33,2,2,0,0,1-.47.92,1.21,1.21,0,0,1-.81.36,2.28,2.28,0,0,1-1.16-.37,4.23,4.23,0,0,1-1.16-1,5.33,5.33,0,0,1-.81-1.28,6.47,6.47,0,0,1-.47-1.47,9.13,9.13,0,0,1-.19-1.54c0-.39,0-.8,0-1.23s0-.85,0-1.24a5.92,5.92,0,0,1,.19-1.33,2.05,2.05,0,0,1,.47-.92,1.12,1.12,0,0,1,.81-.35A2.16,2.16,0,0,1,444.3,129.24Zm1,6.71c0-.77,0-1.55,0-2.33a4.74,4.74,0,0,0-.07-.67,2.63,2.63,0,0,0-.15-.6,2.58,2.58,0,0,0-.29-.51,1.52,1.52,0,0,0-.45-.38.85.85,0,0,0-.45-.14.43.43,0,0,0-.29.18,1,1,0,0,0-.16.41,2.64,2.64,0,0,0-.06.6c0,.75,0,1.53,0,2.33a4.8,4.8,0,0,0,.05.67,3,3,0,0,0,.17.6,1.83,1.83,0,0,0,.29.51,1.52,1.52,0,0,0,.45.38.77.77,0,0,0,.45.14A.42.42,0,0,0,445,137a.9.9,0,0,0,.16-.42A2.64,2.64,0,0,0,445.26,136Z"/><path class="cls-9" d="M453.52,137.82a4.43,4.43,0,0,1,0,.75,2.25,2.25,0,0,1-.19.62,1.7,1.7,0,0,1-.34.5,2.32,2.32,0,0,1-.51.4l-1.27.74,2.26,1.3a.48.48,0,0,1,.18.21.87.87,0,0,1,.07.31v1.47a.34.34,0,0,1-.07.22.15.15,0,0,1-.18,0l-4.75-2.74a.54.54,0,0,1-.17-.21.73.73,0,0,1-.07-.31V139.9a1.35,1.35,0,0,1,.06-.41.39.39,0,0,1,.2-.26l2.69-1.41a.82.82,0,0,0,.4-.43,1.84,1.84,0,0,0,.08-.53c0-.06,0-.16,0-.28a1.94,1.94,0,0,0-.11-.41,1.8,1.8,0,0,0-.23-.43,1.14,1.14,0,0,0-.4-.35.6.6,0,0,0-.41-.11.45.45,0,0,0-.24.16.84.84,0,0,0-.13.27c0,.1,0,.17-.05.22s-.08.17-.14.18a.46.46,0,0,1-.23-.07l-1.1-.64a.35.35,0,0,1-.14-.17.54.54,0,0,1-.06-.25,3.93,3.93,0,0,1,.16-1.06,1.74,1.74,0,0,1,.47-.78,1.14,1.14,0,0,1,.77-.31,2,2,0,0,1,1.09.34,3.81,3.81,0,0,1,1.05.87,6.08,6.08,0,0,1,1.38,3.78Z"/><path class="cls-9" d="M456.72,143.37c0,.11.09.22.14.34a2.53,2.53,0,0,0,.18.37,2.63,2.63,0,0,0,.26.35,1.7,1.7,0,0,0,.36.29,1,1,0,0,0,.36.13.46.46,0,0,0,.31,0,.53.53,0,0,0,.21-.25,1.28,1.28,0,0,0,.08-.49,1.84,1.84,0,0,0-.24-.9,1.77,1.77,0,0,0-.65-.68.67.67,0,0,0-.24-.08.74.74,0,0,0-.21,0l-.17,0a.29.29,0,0,1-.14,0l-1.4-.81a.38.38,0,0,1-.18-.21.69.69,0,0,1-.07-.3l.27-4.79a.32.32,0,0,1,.08-.22.12.12,0,0,1,.17,0l3.85,2.23a.42.42,0,0,1,.17.21.66.66,0,0,1,.07.3v1.47a.29.29,0,0,1-.07.22.12.12,0,0,1-.17,0L457.07,139l-.06,1.2a.75.75,0,0,1,.37,0,1.37,1.37,0,0,1,.46.17,4.16,4.16,0,0,1,1,.78,5.08,5.08,0,0,1,.77,1.09,6,6,0,0,1,.52,1.32,6.16,6.16,0,0,1,.18,1.5,4,4,0,0,1-.2,1.36,1.58,1.58,0,0,1-.56.75,1.28,1.28,0,0,1-.83.18,2.66,2.66,0,0,1-1-.38,4.54,4.54,0,0,1-1.09-.87,5.79,5.79,0,0,1-.81-1.12,5.35,5.35,0,0,1-.52-1.24,4.89,4.89,0,0,1-.19-1.21.24.24,0,0,1,.06-.18.11.11,0,0,1,.14,0l1.14.66a.64.64,0,0,1,.22.21A1.07,1.07,0,0,1,456.72,143.37Z"/></g></g><g id="Character-2" data-name="Character"><path class="cls-13" d="M242.91,347.13c-.08-.17-5.57-9.69-5.57-9.69s1.17.7,6.7-2.41a34.77,34.77,0,0,0,5.74-4.4l3.65,7.06c2.34,2.48,7.23-.22,12.79-2.37.94-.37,1.89-.79,2.84-1.22l.06,0c3.05-1,6.65.07,4.11,3.55s-7.58,5.88-12.25,8C255.37,348.27,245.49,352.7,242.91,347.13Z"/><path class="cls-14" d="M283.86,335.46a6.25,6.25,0,0,1,1.25,3c.19,1.18-1.62,5.79-6,9.47s-10.51,5.45-13.18,7-4.89,3.93-8.08,5.65-6.44,3-10.45,1.69c-.88-.81-2.16-2.87-2-3.14C245.78,358.48,283.86,335.46,283.86,335.46Z"/><path class="cls-9" d="M254.59,338.46c2.6.94,6.87-1.3,11.63-3.14,4.5-1.74,9.29-4.73,12.72-4.46s7,3.29,4,9.15c-.87,1.69-2.84,4.79-4.73,6.08-4.79,3.28-9.5,4.67-12.68,6.4-4.14,2.25-6.05,4.84-10,6.38-5.14,2-8.85,1.52-10.14.34s-5.11-12.36-2.78-12.72c0,0,1.92,3.44,9.64-2.4C255.62,341.54,255,339.25,254.59,338.46Z"/><path class="cls-15" d="M254.59,338.46c2.6.94,6.87-1.3,11.63-3.14,4.5-1.74,9.29-4.73,12.72-4.46s7,3.29,4,9.15c-.87,1.69-2.84,4.79-4.73,6.08-4.79,3.28-9.5,4.67-12.68,6.4-4.14,2.25-6.05,4.84-10,6.38-5.14,2-8.85,1.52-10.14.34s-5.11-12.36-2.78-12.72c0,0,1.92,3.44,9.64-2.4C255.62,341.54,255,339.25,254.59,338.46Z"/><path class="cls-11" d="M270.88,340.74s-1.75-4.69-5.65-5a1.92,1.92,0,0,0-1.89.77s3.43-.39,6,5c0,0,.27.33.95,0C270.51,341.36,271,341.13,270.88,340.74Z"/><path class="cls-11" d="M260.4,337.64s0-.15.76-.53a1.54,1.54,0,0,1,1-.15s3,.46,4.77,5.36a.94.94,0,0,1-.62,1,.76.76,0,0,1-1.08-.24S263.3,337.91,260.4,337.64Z"/><path class="cls-11" d="M257.58,338.49s.07-.34.69-.5c.79-.2,1.06.06,1.06.06s2.39,1.44,3.51,5.64c0,0,.27.7-.71,1s-1-.51-1-.51S259.35,338.93,257.58,338.49Z"/><path class="cls-3" d="M221,278.33c7.74,11.9,31,53.79,31,53.79s-5.73,8.68-14.65,7.74l-34-50.85Z"/><path class="cls-13" d="M275.45,364.61c-1.17-1.15-6.4-9.73-6.4-9.73s3.93,1.31,9.69-1.35c2.93-1.35,5.13-5.27,5.13-5.27l4.37,8.38c2.12,2.65,6.86.68,12.59-1,1-.29,1.94-.63,2.92-1l.06,0c3.12-.72,6.62.61,3.81,3.88s-8,5.24-12.86,7C289,367.66,279.82,368.93,275.45,364.61Z"/><path class="cls-14" d="M320.6,355.24a6.68,6.68,0,0,1,1.08,3.36c.1,1.27-2.25,6-7.25,9.61s-11.72,4.91-14.72,6.38-5.58,3.78-9.14,5.34-7.17,2.69-11.33.89c-.87-.94-2.07-3.25-1.89-3.53C277.83,376.54,320.6,355.24,320.6,355.24Z"/><path class="cls-9" d="M289.06,355.78a11.59,11.59,0,0,0,1.24.46,3.19,3.19,0,0,0,1.27,0,17.34,17.34,0,0,0,2.95-.51c2.44-.62,4.81-1.48,7.22-2.19,5-1.47,10.35-4.25,14-3.66s7.57,4.05,3.84,10.06a24.15,24.15,0,0,1-5.4,6.12c-5.17,3.49-11.11,4.23-14.67,5.8-4.63,2-6.9,4.65-11.28,5.95-5.68,1.69-9.6.85-10.88-.52-.71-.77-1-5.42-2.46-8.79-1.23-2.91-1.48-5-.36-5.08a5.79,5.79,0,0,0,1.06.9,4.07,4.07,0,0,0,1.48.75,10.61,10.61,0,0,0,2.32.3,13.05,13.05,0,0,0,4.14-.26,2,2,0,0,0,1-.57,2.37,2.37,0,0,0,.36-1.49c0-.47,0-.93,0-1.4a1.85,1.85,0,0,1,.1-.74,2,2,0,0,1,.58-.69,6.08,6.08,0,0,0,1.86-2.12,5.26,5.26,0,0,0,.23-2.2.47.47,0,0,1,.08-.37c.13-.17.4-.11.6,0Z"/><path class="cls-15" d="M289.06,355.78a11.59,11.59,0,0,0,1.24.46,3.19,3.19,0,0,0,1.27,0,17.34,17.34,0,0,0,2.95-.51c2.44-.62,4.81-1.48,7.22-2.19,5-1.47,10.35-4.25,14-3.66s7.57,4.05,3.84,10.06a24.15,24.15,0,0,1-5.4,6.12c-5.17,3.49-11.11,4.23-14.67,5.8-4.63,2-6.9,4.65-11.28,5.95-5.68,1.69-9.6.85-10.88-.52-.71-.77-1-5.42-2.46-8.79-1.23-2.91-1.48-5-.36-5.08a5.79,5.79,0,0,0,1.06.9,4.07,4.07,0,0,0,1.48.75,10.61,10.61,0,0,0,2.32.3,13.05,13.05,0,0,0,4.14-.26,2,2,0,0,0,1-.57,2.37,2.37,0,0,0,.36-1.49c0-.47,0-.93,0-1.4a1.85,1.85,0,0,1,.1-.74,2,2,0,0,1,.58-.69,6.08,6.08,0,0,0,1.86-2.12,5.26,5.26,0,0,0,.23-2.2.47.47,0,0,1,.08-.37c.13-.17.4-.11.6,0Z"/><path class="cls-11" d="M306.25,359.75s-1.47-5.17-5.6-5.88a2.07,2.07,0,0,0-2.1.66s3.71-.11,6,5.86c0,0,.26.37,1,.09C305.8,360.39,306.36,360.18,306.25,359.75Z"/><path class="cls-11" d="M295.3,355.52s0-.17.86-.51a1.62,1.62,0,0,1,1.08-.07s3.13.75,4.64,6.16a1,1,0,0,1-.75,1,.8.8,0,0,1-1.13-.35S298.39,356.06,295.3,355.52Z"/><path class="cls-11" d="M292.21,356.18s.1-.36.79-.48c.86-.14,1.12.15,1.12.15s2.44,1.76,3.27,6.36c0,0,.22.76-.85,1s-1.07-.64-1.07-.64S294.07,356.81,292.21,356.18Z"/><path class="cls-5" d="M258.46,295.43c5.6,9.95,19.51,39.71,26.68,54.48A22.64,22.64,0,0,1,270.78,358l-37.59-51.73,11.2-9.44Z"/><path class="cls-3" d="M130.27,285.2s45.43-13.71,53.32-15.87,22.39-5.05,26.82-3.07,6.92,5.49,9.63,9.75c2.8,4.41,4.85,8.45,4.85,8.45s-29.75,8.13-47.74,8.13S130.27,285.2,130.27,285.2Z"/><path class="cls-5" d="M133.45,267.35c-2.85,9.72-6.55,27.07,6.55,39.72,5.12,4.94,34.43,20.65,52.43,15.14,20.1-6.17,44.11-18.06,44.11-18.06s12.14.71,16.09-1.57,6.36-6.06,5.83-7.15C252.2,282.48,247,275.68,233.4,277c-16.59,1.66-44.25,6.69-44.25,6.69Z"/><path class="cls-5" d="M201,196.89c-8.6-7.54-20.68-4.1-27.38,2.43-10.29,10-16.38,22.7-14.13,29C162.14,235.52,201,196.89,201,196.89Z"/><path class="cls-5" d="M302.63,240.93c.17-1.25-.84-2.66-2.88-3.7L276,225.06a17,17,0,0,0-11.57-.81l-21.76,7.51c-1.91.65-2.94,1.57-3,2.47,0,.66-.39,3.22-.42,4s.46,1.28,1.46,1.79c2.45,1.25,7.92,1.66,12.22.92l5.52-.95c4.3-.73,9.76-.33,12.18.91a7.08,7.08,0,0,1,3.35,3.4l-1.29,4.43a3.53,3.53,0,0,0,0,2.5l-.41,1.4c-.48,1.68-.64,3.43,3.52,5.27a8.67,8.67,0,0,0,8.35-.34L301,246.56a2.5,2.5,0,0,0,1.24-1.74C302.3,244.12,302.54,241.58,302.63,240.93Z"/><path class="cls-14" d="M275,247.23l.09-11.53-7.18-1.89-.65,6.09a11.65,11.65,0,0,1,3.3.95,7.08,7.08,0,0,1,3.35,3.4l-.52,1.8Z"/><path class="cls-5" d="M301.31,238.26c2.17,2,2.33,2.59,1.73,10.46s-2.39,8.09-4.41,6.74-3.4-5.09-5.88-3.57Z"/><path class="cls-9" d="M241.08,236.07c2.45,1.25,7.92,1.66,12.22.92l5.52-.94c4.3-.74,9.75-.34,12.18.9s4,3.59,3.52,5.27l-1.88,6.46c-.48,1.68-.64,3.43,3.52,5.27a8.67,8.67,0,0,0,8.35-.34l16.88-11c2.19-1.42,1.46-3.85-1.64-5.43L276,225.06a17,17,0,0,0-11.57-.81l-21.76,7.51C239.33,232.89,238.64,234.83,241.08,236.07Z"/><path class="cls-16" d="M241.08,236.07c2.45,1.25,7.92,1.66,12.22.92l5.52-.94c4.3-.74,9.75-.34,12.18.9s4,3.59,3.52,5.27l-1.88,6.46c-.48,1.68-.64,3.43,3.52,5.27a8.67,8.67,0,0,0,8.35-.34l16.88-11c2.19-1.42,1.46-3.85-1.64-5.43L276,225.06a17,17,0,0,0-11.57-.81l-21.76,7.51C239.33,232.89,238.64,234.83,241.08,236.07Z"/><path class="cls-14" d="M294,237.17c0-.21-.16-.42-.47-.59a3.52,3.52,0,0,0-2.69-.12c-.42.17-.64.41-.65.66s-.09.77-.1.94.14.44.47.63a3.54,3.54,0,0,0,2.7.12c.4-.17.61-.4.64-.63S294,237.35,294,237.17Z"/><path class="cls-3" d="M288.22,239.54c0-.21-.15-.43-.48-.61a3.52,3.52,0,0,0-2.69-.12c-.4.17-.62.39-.65.63s-.09.8-.1,1,.15.44.47.62a3.55,3.55,0,0,0,2.7.12c.4-.17.61-.39.64-.63S288.21,239.72,288.22,239.54Z"/><path class="cls-14" d="M288.56,237c0-.22-.14-.44-.47-.63a3.54,3.54,0,0,0-2.7-.11c-.4.16-.61.39-.64.62s-.09.79-.1,1,.13.46.47.64a3.5,3.5,0,0,0,2.7.12c.41-.17.62-.4.64-.64S288.55,237.14,288.56,237Z"/><path class="cls-3" d="M293.61,239.79c0-.22-.14-.44-.47-.63a3.54,3.54,0,0,0-2.7-.12c-.4.17-.61.39-.64.63s-.08.78-.1.94.12.47.47.66a3.54,3.54,0,0,0,2.7.12c.39-.16.61-.39.64-.63S293.6,240,293.61,239.79Z"/><path class="cls-5" d="M290.8,236.46c-.8.33-.88.9-.18,1.29a3.5,3.5,0,0,0,2.7.12c.79-.32.87-.9.17-1.29A3.52,3.52,0,0,0,290.8,236.46Z"/><path class="cls-5" d="M285.05,238.81c-.8.33-.88.91-.18,1.29a3.5,3.5,0,0,0,2.7.12c.79-.32.87-.9.18-1.29A3.55,3.55,0,0,0,285.05,238.81Z"/><path class="cls-5" d="M285.39,236.23c-.79.32-.87.9-.17,1.29a3.54,3.54,0,0,0,2.7.12c.79-.33.87-.91.17-1.3A3.54,3.54,0,0,0,285.39,236.23Z"/><path class="cls-5" d="M290.44,239c-.79.33-.87.91-.17,1.3a3.5,3.5,0,0,0,2.7.11c.79-.32.87-.9.17-1.29A3.54,3.54,0,0,0,290.44,239Z"/><polygon class="cls-3" points="272.3 226.64 269.78 225.23 266.9 226.41 264.38 225 261.5 226.17 261.39 227.24 262.86 228.06 261.15 228.76 261.04 229.83 263.56 231.24 266.44 230.06 268.97 231.47 271.84 230.29 271.95 229.23 270.48 228.41 272.19 227.71 272.3 226.64"/><polygon class="cls-5" points="269.78 225.23 266.9 226.41 264.38 225 261.5 226.17 264.03 227.59 261.15 228.76 263.68 230.17 266.55 228.99 269.08 230.4 271.95 229.23 269.43 227.82 272.3 226.64 269.78 225.23"/><polygon class="cls-14" points="266.55 228.99 266.44 230.06 263.56 231.24 263.68 230.17 266.55 228.99"/><polygon class="cls-14" points="269.43 227.82 270.48 228.41 272.19 227.71 272.3 226.64 269.43 227.82"/><polygon class="cls-14" points="271.95 229.23 271.84 230.29 268.97 231.47 269.08 230.4 271.95 229.23"/><polygon class="cls-14" points="264.03 227.59 261.5 226.17 261.38 227.3 262.86 228.06 264.03 227.59"/><path class="cls-13" d="M242.41,224.36c6-1.36,9.56-.32,14.68-.52,1.64-.06,3.05-1,3.85-.8,1.56.3,1.44,1.9.44,3s-2.16,2.12-6.58,2.81c-3.78.59-3.94.17-8.36,1.53l-4.85,2.28-1.7-4.17Z"/><path class="cls-13" d="M253.15,223.84A17.74,17.74,0,0,0,243,222.67c-4.89,1.17-3.14,6.17-3.14,6.17Z"/><polygon class="cls-13" points="229.05 198.43 214.55 211.4 195.4 204.68 209.07 185.68 229.05 198.43"/><path class="cls-17" d="M243.45,173.56s4.87,7.38,4.31,8.1-4.13,1.38-4.13,1.38Z"/><path class="cls-13" d="M230,153.14c9.84,2.08,12.68,6.41,13.61,22,1,16.34-.7,21.47-2.85,23.67-1.45,1.49-9.5,1.75-13.56.63-5.08-1.4-16.57-5.47-22-13.69-6.33-9.66-8-22.77-1.21-28.14C213.52,150.08,225.94,152.3,230,153.14Z"/><path class="cls-17" d="M227.6,199.6c4.24,1.06,10.72.62,12.66-.44a14.35,14.35,0,0,1-7.14-.42,23.43,23.43,0,0,1-6.49-3Z"/><path class="cls-14" d="M245.74,159.89l0,0c-2.8,1.84-6.18,2.56-9.51,3,.2,2.65-.69,5.25-1.57,7.76-.61,1.73-2.79,7.18-5,4.11-1.57-2.21-3-4.23-6.1-3.77-5.13.77-5.82,7.3-2.59,11.26s6.24,2.45,6.24,2.45.31,7.05-3.52,11.93a16.69,16.69,0,0,1-13.32.54c-4.87-1.73-11.8-8.07-14.3-13-6.87-13.44-6.62-26.17,2.17-29.88,1-6.35,5.95-9.2,11.65-10.51,7.9-1.81,15.94,3.3,23.61.22,1.61-.64,3.11-1.58,4.76-2.14a3.2,3.2,0,0,1,2.82.08,3.4,3.4,0,0,1,1.16,2.18,6.09,6.09,0,0,1-.4,4.53,13.22,13.22,0,0,1,3.6-1.23,4.46,4.46,0,0,1,3.58.89,4.63,4.63,0,0,1,1.38,3.18C250.64,154.88,248.53,158.05,245.74,159.89Z"/><path class="cls-14" d="M198.1,156.47,192.21,153a3.42,3.42,0,0,1,5.89,3.47Z"/><path class="cls-9" d="M201,196.89c-10.85-3.25-19.77-1.61-33.93,11.89-15.53,14.78-26.95,39.8-30.93,66.84,0,0,.53,12.49,15,20.79,15.36,8.82,39.08,6.66,48.61-9.2,0,0,2-14.13,8.33-21.69,4.1-4.89,13.57-15.71,20.57-23.44,6.1-6.73,12.46-23.14,2.88-30.87-2.8-2.26-5.57-4-9.45-6.57C212.12,206.41,199.25,200.49,201,196.89Z"/><path class="cls-18" d="M201,196.89c-10.85-3.25-19.77-1.61-33.93,11.89-15.53,14.78-26.95,39.8-30.93,66.84,0,0,.53,12.49,15,20.79,15.36,8.82,39.08,6.66,48.61-9.2,0,0,2-14.13,8.33-21.69,4.1-4.89,13.57-15.71,20.57-23.44,6.1-6.73,12.46-23.14,2.88-30.87-2.8-2.26-5.57-4-9.45-6.57C212.12,206.41,199.25,200.49,201,196.89Z"/><path class="cls-19" d="M229.55,241.05c.16-.2.32-.4.47-.61l.21-.28c.18-.24.35-.49.52-.74l.14-.19c.22-.33.44-.67.65-1l.06-.1c.2-.32.39-.65.58-1l.13-.23q.25-.47.51-1a1.62,1.62,0,0,1,.1-.18,36.3,36.3,0,0,0,1.66-3.8l0-.07a27.6,27.6,0,0,0,1.85-9.77A53.23,53.23,0,0,1,224,236.21c-6.34,5-13.78,8.51-19.76,13.91-6.34,5.72-11.36,13-16.91,19.46-2.23,2.59-5.5,7.72-8.91,7.46-4.14-.33-7.35-5.91-9.08-9.69-2.78-6-4.85-13.36-8.59-18.84-3.27-4.79-8.49-11.07-14.14-9.39a140.94,140.94,0,0,0-10.45,36.5s.53,12.49,15,20.79a37.48,37.48,0,0,0,4,2c.42.07.83.15,1.24.26,2.07.54,4,1.54,6.14,2,.25.06.5.1.76.15l.86.16.92.14.78.11,1,.11.7.07,1.08.08.64,0,1.11,0h1.72l.7,0,1,0,.78-.05.92-.09.86-.1.83-.11,1-.15.64-.12c.43-.08.86-.17,1.28-.27l.26-.05c7.87-1.85,15.13-6.25,19.38-13.32,0,0,.1-.67.31-1.81.06-.32.13-.69.22-1.08.16-.79.36-1.71.62-2.71a55.38,55.38,0,0,1,3.62-10.4,31.89,31.89,0,0,1,1.89-3.4c.35-.54.71-1.06,1.09-1.56.19-.25.38-.49.58-.73l.83-1c3.85-4.55,10.93-12.64,17-19.44l2.72-3c.23-.25.45-.51.67-.78Z"/><path class="cls-13" d="M293.32,257c-3.35,5.34-4,8.69-18.5,9.82,0,0-27.18,17.05-35.91,20.18s-11.88-1.77-13.7-9.68-6.6-37.73-6.6-37.73-3.79-18.42,11.67-28.88c6.55,5,10,10.12,11.1,18.92,1.29,10.53,3.17,35.26,3.17,35.26s22.93-10,26.4-13.44a26.07,26.07,0,0,0,2.74-3.49c1.46-2,3.53-4.19,4.11-6.82.91-4.17,2.82-3.59,3.52-1.3a16.68,16.68,0,0,1-.08,9s7.1,5.56,10.58,3.7l.93-.61h0a2,2,0,0,1,2.59.23C295.53,253.08,295.37,253.69,293.32,257Z"/><path class="cls-5" d="M228.55,209c8.72,4.1,12.95,10.68,13.9,20.61s2.11,27.22,2.11,27.22-.55,6.3-8.88,9.23a16,16,0,0,1-14.37-1.67l-3.45-22.49S213,217.47,228.55,209Z"/></g><g id="Puff"><path class="cls-9" d="M165.22,281.74C151,264.27,137.68,243.32,126.7,237c-19.76-11.39-59.9,13.62-64.29,70.7s37.69,89.05,78.48,97.8c20.85,4.47,48.25-.07,59-3.78,32.76-11.35,51.12-27.24,59-49.18,8.61-24.06,2.1-38.53-9.1-44.69a26,26,0,0,0-16.49-2.73C193.45,311.39,176.26,295.25,165.22,281.74Z"/><path class="cls-16" d="M215,395.68l1.81-.84c2.86-14,1.25-27.13-4.86-39.26-5.95-11.85-16.18-23-31.27-34-22.26-16.23-31-31.63-39.42-46.53-3.09-5.46-6-10.61-9.54-15.7C123.84,248,116,242.06,107,240.62a30,30,0,0,0-11,.37q-1.86,1.22-3.69,2.64a30.67,30.67,0,0,1,14.38-1.42c8.51,1.36,16,7.12,23.62,18.1,3.49,5,6.39,10.15,9.47,15.58,8.52,15,17.33,30.6,39.87,47C199.18,337.11,223.06,359.68,215,395.68Z"/><path class="cls-20" d="M140.89,405.5c20.85,4.47,48.25-.07,59-3.78,32.76-11.35,51.12-27.24,59-49.18.21-.6.4-1.17.59-1.75-.16-.06-.32-.13-.49-.18-8.39-2.73-17.4.54-25.72,3.49-20.89,7.42-44.51,12.91-64.74,3.83-13.33-6-27.05-15.33-34.14-28.09s-10.34-27.37-15.49-41c-2.32-6.15-4.48-14.1-9.7-20.09-4.88-5.6-11.34-9.68-18.77-9.66-6.1,0-11.73,1.83-17,8.06-5.68,10.9-9.77,24.46-11,40.58C58,364.78,100.1,396.75,140.89,405.5Z"/></g><g id="Console"><path class="cls-3" d="M432.6,358.06,461,341.67a5.64,5.64,0,0,0,2.55-4.42l0,.33a5.65,5.65,0,0,0-2.55-4.42l-57.11-33a5.59,5.59,0,0,0-5.1,0l-28.4,16.39a5.64,5.64,0,0,0-2.55,4.42l0-.33a5.65,5.65,0,0,0,2.55,4.42l57.11,33A5.59,5.59,0,0,0,432.6,358.06Z"/><path class="cls-14" d="M430.07,315.29,461,333.16a5.65,5.65,0,0,1,2.55,4.42l0-.33a5.64,5.64,0,0,1-2.55,4.42l-28.4,16.39a5.15,5.15,0,0,1-2.55.61Z"/><path class="cls-5" d="M461,336.1l-28.4,16.4a5.66,5.66,0,0,1-5.1,0l-57.11-33c-1.41-.82-1.41-2.13,0-2.95l28.4-16.39a5.59,5.59,0,0,1,5.1,0l57.11,33C462.42,334,462.42,335.29,461,336.1Z"/><path class="cls-9" d="M461,330.72v2.71l-29.48,17a2.74,2.74,0,0,1-1.06.37,2.9,2.9,0,0,1-1.88-.37l-58.19-33.59v-2.81l57.11,33.06a5.63,5.63,0,0,0,5.1,0Z"/><path class="cls-16" d="M461,330.72v2.71l-29.48,17a2.74,2.74,0,0,1-1.06.37l-.42,0v-3.12a5.21,5.21,0,0,0,2.56-.61Z"/><path class="cls-3" d="M432.62,347.11l28.4-16.4a5.65,5.65,0,0,0,2.55-4.41V321a5.65,5.65,0,0,0-2.55-4.41l-57.11-33a5.66,5.66,0,0,0-5.1,0l-28.4,16.4a5.63,5.63,0,0,0-2.55,4.42v5.25a5.48,5.48,0,0,0,2.55,4.33l57.11,33.06A5.66,5.66,0,0,0,432.62,347.11Z"/><path class="cls-14" d="M430.07,298.76,461,316.63a5.65,5.65,0,0,1,2.55,4.41v5.26a5.65,5.65,0,0,1-2.55,4.41l-28.4,16.4a5.2,5.2,0,0,1-2.55.61Z"/><path class="cls-5" d="M461,319.57,432.62,336a5.66,5.66,0,0,1-5.1,0l-57.11-33c-1.41-.82-1.41-2.14,0-2.95l28.4-16.4a5.66,5.66,0,0,1,5.1,0l57.11,33C462.42,317.44,462.42,318.76,461,319.57Z"/><path class="cls-9" d="M421.41,306.54c3.14,1.82,3.14,4.75,0,6.55a12.69,12.69,0,0,1-11.39,0c-3.15-1.8-3.15-4.73,0-6.55A12.62,12.62,0,0,1,421.41,306.54Z"/><path class="cls-9" d="M375,308.46a2.19,2.19,0,0,1,1,1.73c0,.65-.44.92-1,.61a2.21,2.21,0,0,1-1-1.74C374,308.42,374.49,308.15,375,308.46Z"/><path class="cls-9" d="M375,312.31a2.19,2.19,0,0,1,1,1.73c0,.65-.44.92-1,.61a2.2,2.2,0,0,1-1-1.74C374,312.27,374.49,312,375,312.31Z"/></g><g id="Speach_Bubble" data-name="Speach Bubble"><path class="cls-9" d="M117.21,143.06v-15l12.67-1.1a.92.92,0,0,1,.53.1c.49.27,10.7,6.14,10.85,6.24a.92.92,0,0,1,.21,1.42L128,149.27Z"/><path class="cls-9" d="M128,149.27l13.43-14.56a.93.93,0,0,0-.76-1.55L128,134.27Z"/><path class="cls-9" d="M117.22,128.05,128,134.27l12.67-1.11a.91.91,0,0,1,.44.07c-1-.6-10.28-5.93-10.74-6.17a.85.85,0,0,0-.53-.11Z"/><path class="cls-7" d="M117.22,128.05,128,134.27l12.67-1.11a.91.91,0,0,1,.44.07c-1-.6-10.28-5.93-10.74-6.17a.85.85,0,0,0-.53-.11Z"/><g id="Speach_Bubble-2" data-name="Speach Bubble"><path class="cls-9" d="M128,116.1a6.93,6.93,0,0,0-3.14-5.45l-2.56-1.48a7,7,0,0,0-6.29,0L76.79,131.88a6.94,6.94,0,0,0-3.15,5.45v43.2A6.94,6.94,0,0,0,76.79,186l2.56,1.48a7,7,0,0,0,6.29,0l39.26-22.71A6.93,6.93,0,0,0,128,159.3Z"/><path class="cls-16" d="M73.64,180.53A6.94,6.94,0,0,0,76.79,186l2.56,1.48a7,7,0,0,0,5.75.26c-1.48.56-2.61-.28-2.61-2.07v-43.2a6.38,6.38,0,0,1,.92-3.1l-8.85-5.11a6.41,6.41,0,0,0-.92,3.1Z"/><path class="cls-7" d="M127.94,115.2c-.37-1.33-1.58-1.76-3-.92L85.63,137a6.28,6.28,0,0,0-2.21,2.35l-8.85-5.1a6.38,6.38,0,0,1,2.22-2.35L116,109.17a7.05,7.05,0,0,1,6.3,0l2.56,1.49A6.9,6.9,0,0,1,127.94,115.2Z"/></g><polygon id="Heart" class="cls-4" points="96.81 140.25 100.37 138.19 100.37 140.81 103.92 138.76 103.92 144.35 107.48 142.3 107.48 136.71 111.04 134.66 111.04 132.03 114.59 129.98 114.59 132.6 118.15 130.55 118.15 136.14 121.71 134.09 121.71 142.3 118.15 144.35 118.15 148.46 114.59 150.51 114.59 154.62 111.04 156.67 111.04 160.78 107.48 162.83 107.48 166.94 103.92 168.99 103.92 164.88 100.37 166.94 100.37 162.83 96.81 164.88 96.81 160.78 93.26 162.83 93.26 158.72 89.7 160.78 89.7 152.56 93.25 150.51 93.26 144.92 96.81 142.87 96.81 140.25"/></g></g></svg>