<svg xmlns="http://www.w3.org/2000/svg" viewBox="0 0 500 500"><defs><style>.cls-1{fill:#e0e0e0;}.cls-2{fill:#ebebeb;}.cls-3{fill:#fafafa;}.cls-4{fill:#fff;}.cls-5{fill:#f5f5f5;}.cls-6{fill:#4d88cf;}.cls-7{fill:#263238;}.cls-8{fill:#455a64;}.cls-9{fill:#273489;}.cls-10{fill:#708bfc;}.cls-11{fill:#599de1;}.cls-12{fill:#29499b;}.cls-13{opacity:0.6;}.cls-14{opacity:0.3;}.cls-15{fill:#ffbe9d;}.cls-16{fill:#d79870;}</style></defs><title>Events</title><g id="Windows"><path class="cls-1" d="M388.51,79c0-3.61,1.89-5.75,4.51-5.75s4.52,2.14,4.52,5.75-1.91,5.75-4.52,5.75S388.51,82.63,388.51,79Zm7.84,0c0-3-1.36-4.69-3.33-4.69S389.69,76,389.69,79,391,83.71,393,83.71,396.35,82.05,396.35,79Z"/><path class="cls-1" d="M399.2,79c0-3.61,1.89-5.75,4.51-5.75s4.52,2.14,4.52,5.75-1.9,5.75-4.52,5.75S399.2,82.63,399.2,79ZM407,79c0-3-1.36-4.69-3.33-4.69S400.38,76,400.38,79s1.36,4.68,3.33,4.68S407,82.05,407,79Z"/><path class="cls-1" d="M413,73.37V84.68h-1.17V74.41h-2.66v-1Z"/><path class="cls-1" d="M415.69,79c0-3.61,1.89-5.75,4.51-5.75s4.52,2.14,4.52,5.75-1.9,5.75-4.52,5.75S415.69,82.63,415.69,79Zm7.84,0c0-3-1.36-4.69-3.33-4.69S416.87,76,416.87,79s1.36,4.68,3.33,4.68S423.53,82.05,423.53,79Z"/><path class="cls-1" d="M429.49,73.37V84.68h-1.17V74.41h-2.66v-1Z"/><path class="cls-1" d="M377.38,95.07c0-3.6,1.89-5.75,4.5-5.75s4.53,2.15,4.53,5.75-1.91,5.76-4.53,5.76S377.38,98.68,377.38,95.07Zm7.83,0c0-3-1.35-4.68-3.33-4.68s-3.32,1.66-3.32,4.68,1.35,4.69,3.32,4.69S385.21,98.1,385.21,95.07Z"/><path class="cls-1" d="M388.07,95.07c0-3.6,1.89-5.75,4.51-5.75s4.52,2.15,4.52,5.75-1.91,5.76-4.52,5.76S388.07,98.68,388.07,95.07Zm7.84,0c0-3-1.36-4.68-3.33-4.68s-3.33,1.66-3.33,4.68,1.36,4.69,3.33,4.69S395.91,98.1,395.91,95.07Z"/><path class="cls-1" d="M401.86,89.42v11.31H400.7V90.45H398v-1Z"/><path class="cls-1" d="M404.56,95.07c0-3.6,1.89-5.75,4.51-5.75s4.52,2.15,4.52,5.75-1.9,5.76-4.52,5.76S404.56,98.68,404.56,95.07Zm7.84,0c0-3-1.36-4.68-3.33-4.68s-3.33,1.66-3.33,4.68,1.36,4.69,3.33,4.69S412.4,98.1,412.4,95.07Z"/><path class="cls-1" d="M418.36,89.42v11.31h-1.17V90.45h-2.66v-1Z"/><path class="cls-1" d="M424.19,89.42v11.31H423V90.45h-2.66v-1Z"/><path class="cls-1" d="M426.88,95.07c0-3.6,1.89-5.75,4.51-5.75s4.52,2.15,4.52,5.75-1.9,5.76-4.52,5.76S426.88,98.68,426.88,95.07Zm7.84,0c0-3-1.36-4.68-3.33-4.68s-3.33,1.66-3.33,4.68,1.36,4.69,3.33,4.69S434.72,98.1,434.72,95.07Z"/><path class="cls-1" d="M440.68,89.42v11.31h-1.17V90.45h-2.66v-1Z"/><path class="cls-1" d="M388.51,110.59c0-3.6,1.89-5.75,4.51-5.75s4.52,2.15,4.52,5.75-1.9,5.75-4.52,5.75S388.51,114.2,388.51,110.59Zm7.84,0c0-3-1.36-4.68-3.33-4.68s-3.33,1.66-3.33,4.68,1.36,4.69,3.33,4.69S396.35,113.61,396.35,110.59Z"/><path class="cls-1" d="M402.31,104.94v11.31h-1.17V106h-2.66v-1Z"/><path class="cls-1" d="M408.14,104.94v11.31H407V106h-2.66v-1Z"/><path class="cls-1" d="M414,104.94v11.31H412.8V106h-2.66v-1Z"/><path class="cls-1" d="M416.66,110.59c0-3.6,1.89-5.75,4.51-5.75s4.52,2.15,4.52,5.75-1.9,5.75-4.52,5.75S416.66,114.2,416.66,110.59Zm7.84,0c0-3-1.36-4.68-3.33-4.68s-3.33,1.66-3.33,4.68,1.36,4.69,3.33,4.69S424.5,113.61,424.5,110.59Z"/><path class="cls-1" d="M430.46,104.94v11.31h-1.17V106h-2.66v-1Z"/><path class="cls-1" d="M133.61,198.78c0,.09-12.88.16-28.77.16s-28.77-.07-28.77-.16,12.88-.17,28.77-.17S133.61,198.69,133.61,198.78Z"/><path class="cls-1" d="M133.61,203.88c0,.09-12.88.16-28.77.16s-28.77-.07-28.77-.16,12.88-.17,28.77-.17S133.61,203.78,133.61,203.88Z"/><path class="cls-1" d="M113.11,209a1.82,1.82,0,0,1-.37,0l-1.08,0-4,.05-13.1,0-13.1,0-4-.05-1.08,0a1.88,1.88,0,0,1-.38,0s.13,0,.38,0l1.08,0,4,0,13.1-.05,13.1.05,4,0,1.08,0C113,209,113.11,209,113.11,209Z"/><path class="cls-1" d="M139,222.27c0-.13.41-.24.92-.24s.92.11.92.24-.41.24-.92.24S139,222.4,139,222.27Z"/><path class="cls-1" d="M135.25,222.27c0-.13.41-.24.92-.24s.93.11.93.24-.41.24-.93.24S135.25,222.4,135.25,222.27Z"/><path class="cls-1" d="M131.55,222.27c0-.13.42-.24.93-.24s.92.11.92.24-.41.24-.92.24S131.55,222.4,131.55,222.27Z"/><path class="cls-1" d="M127.86,222.27c0-.13.41-.24.92-.24s.93.11.93.24-.42.24-.93.24S127.86,222.4,127.86,222.27Z"/><path class="cls-1" d="M124.16,222.27c0-.13.42-.24.93-.24s.92.11.92.24-.41.24-.92.24S124.16,222.4,124.16,222.27Z"/><path class="cls-1" d="M120.47,222.27c0-.13.41-.24.92-.24s.93.11.93.24-.42.24-.93.24S120.47,222.4,120.47,222.27Z"/><path class="cls-1" d="M116.77,222.27c0-.13.42-.24.93-.24s.92.11.92.24-.41.24-.92.24S116.77,222.4,116.77,222.27Z"/><path class="cls-1" d="M113.08,222.27c0-.13.41-.24.92-.24s.92.11.92.24-.41.24-.92.24S113.08,222.4,113.08,222.27Z"/><path class="cls-1" d="M109.38,222.27c0-.13.41-.24.92-.24s.93.11.93.24-.42.24-.93.24S109.38,222.4,109.38,222.27Z"/><path class="cls-1" d="M105.68,222.27c0-.13.42-.24.93-.24s.92.11.92.24-.41.24-.92.24S105.68,222.4,105.68,222.27Z"/><path class="cls-1" d="M102,222.27c0-.13.41-.24.92-.24s.93.11.93.24-.42.24-.93.24S102,222.4,102,222.27Z"/><path class="cls-1" d="M98.29,222.27c0-.13.42-.24.93-.24s.92.11.92.24-.41.24-.92.24S98.29,222.4,98.29,222.27Z"/><path class="cls-1" d="M94.6,222.27c0-.13.41-.24.92-.24s.92.11.92.24-.41.24-.92.24S94.6,222.4,94.6,222.27Z"/><path class="cls-1" d="M90.9,222.27c0-.13.41-.24.92-.24s.93.11.93.24-.42.24-.93.24S90.9,222.4,90.9,222.27Z"/><path class="cls-1" d="M87.2,222.27c0-.13.42-.24.93-.24s.92.11.92.24-.41.24-.92.24S87.2,222.4,87.2,222.27Z"/><path class="cls-1" d="M83.51,222.27c0-.13.41-.24.92-.24s.93.11.93.24-.42.24-.93.24S83.51,222.4,83.51,222.27Z"/><path class="cls-1" d="M79.81,222.27c0-.13.42-.24.93-.24s.92.11.92.24-.41.24-.92.24S79.81,222.4,79.81,222.27Z"/><path class="cls-1" d="M76.12,222.27c0-.13.41-.24.92-.24s.93.11.93.24-.42.24-.93.24S76.12,222.4,76.12,222.27Z"/><path class="cls-1" d="M72.42,222.27c0-.13.42-.24.93-.24s.92.11.92.24-.41.24-.92.24S72.42,222.4,72.42,222.27Z"/><path class="cls-1" d="M68.73,222.27c0-.13.41-.24.92-.24s.92.11.92.24-.41.24-.92.24S68.73,222.4,68.73,222.27Z"/><path class="cls-1" d="M65,222.27c0-.13.41-.24.92-.24s.93.11.93.24-.42.24-.93.24S65,222.4,65,222.27Z"/><path class="cls-1" d="M61.33,222.27c0-.13.42-.24.93-.24s.92.11.92.24-.41.24-.92.24S61.33,222.4,61.33,222.27Z"/><path class="cls-1" d="M57.64,222.27c0-.13.41-.24.92-.24s.93.11.93.24-.42.24-.93.24S57.64,222.4,57.64,222.27Z"/><path class="cls-1" d="M53.94,222.27c0-.13.42-.24.93-.24s.92.11.92.24-.41.24-.92.24S53.94,222.4,53.94,222.27Z"/><path class="cls-1" d="M50.25,222.27c0-.13.41-.24.92-.24s.92.11.92.24-.41.24-.92.24S50.25,222.4,50.25,222.27Z"/><path class="cls-1" d="M46.55,222.27c0-.13.41-.24.92-.24s.93.11.93.24-.42.24-.93.24S46.55,222.4,46.55,222.27Z"/><path class="cls-1" d="M42.85,222.27c0-.13.42-.24.93-.24s.92.11.92.24-.41.24-.92.24S42.85,222.4,42.85,222.27Z"/><path class="cls-1" d="M39.16,222.27c0-.13.41-.24.92-.24s.93.11.93.24-.42.24-.93.24S39.16,222.4,39.16,222.27Z"/><path class="cls-1" d="M37.15,220.59c.13,0,.24.41.24.92a2.18,2.18,0,0,1-.11.76l-.13-.14c.1,0,.16.09.16.14s-.06.1-.16.14l-.08,0-.06-.16a2.49,2.49,0,0,1-.1-.76C36.91,221,37,220.59,37.15,220.59Z"/><path class="cls-1" d="M37.15,216.89c.13,0,.24.41.24.92s-.11.93-.24.93-.24-.42-.24-.93S37,216.89,37.15,216.89Z"/><path class="cls-1" d="M37.15,213.19c.13,0,.24.42.24.93s-.11.92-.24.92-.24-.41-.24-.92S37,213.19,37.15,213.19Z"/><path class="cls-1" d="M37.15,209.5c.13,0,.24.41.24.92s-.11.93-.24.93-.24-.42-.24-.93S37,209.5,37.15,209.5Z"/><path class="cls-1" d="M37.15,205.8c.13,0,.24.42.24.93s-.11.92-.24.92-.24-.41-.24-.92S37,205.8,37.15,205.8Z"/><path class="cls-1" d="M37.15,202.11c.13,0,.24.41.24.92s-.11.92-.24.92-.24-.41-.24-.92S37,202.11,37.15,202.11Z"/><path class="cls-1" d="M37.15,198.41c.13,0,.24.41.24.92s-.11.93-.24.93-.24-.42-.24-.93S37,198.41,37.15,198.41Z"/><path class="cls-1" d="M37.15,194.71c.13,0,.24.42.24.93s-.11.92-.24.92-.24-.41-.24-.92S37,194.71,37.15,194.71Z"/><path class="cls-1" d="M37.15,191c.13,0,.24.41.24.92s-.11.93-.24.93-.24-.42-.24-.93S37,191,37.15,191Z"/><path class="cls-1" d="M37.15,187.32c.13,0,.24.42.24.93s-.11.92-.24.92-.24-.41-.24-.92S37,187.32,37.15,187.32Z"/><path class="cls-1" d="M37.15,183.63c.13,0,.24.41.24.92s-.11.92-.24.92-.24-.41-.24-.92S37,183.63,37.15,183.63Z"/><path class="cls-1" d="M38,180.74c0,.12-.35.22-.8.23l.24-.23v.11c0,.52-.11.93-.24.93s-.24-.41-.24-.93v-.36h.24C37.6,180.51,38,180.61,38,180.74Z"/><path class="cls-1" d="M41.65,180.74c0,.13-.42.24-.93.24s-.92-.11-.92-.24.41-.25.92-.25S41.65,180.6,41.65,180.74Z"/><path class="cls-1" d="M45.34,180.74c0,.13-.41.24-.92.24s-.92-.11-.92-.24.41-.25.92-.25S45.34,180.6,45.34,180.74Z"/><path class="cls-1" d="M49,180.74c0,.13-.41.24-.92.24s-.93-.11-.93-.24.42-.25.93-.25S49,180.6,49,180.74Z"/><path class="cls-1" d="M52.74,180.74c0,.13-.42.24-.93.24s-.92-.11-.92-.24.41-.25.92-.25S52.74,180.6,52.74,180.74Z"/><path class="cls-1" d="M56.43,180.74c0,.13-.41.24-.92.24s-.93-.11-.93-.24.42-.25.93-.25S56.43,180.6,56.43,180.74Z"/><path class="cls-1" d="M60.13,180.74c0,.13-.42.24-.93.24s-.92-.11-.92-.24.41-.25.92-.25S60.13,180.6,60.13,180.74Z"/><path class="cls-1" d="M63.82,180.74c0,.13-.41.24-.92.24s-.93-.11-.93-.24.42-.25.93-.25S63.82,180.6,63.82,180.74Z"/><path class="cls-1" d="M67.52,180.74c0,.13-.42.24-.93.24s-.92-.11-.92-.24.41-.25.92-.25S67.52,180.6,67.52,180.74Z"/><path class="cls-1" d="M71.21,180.74c0,.13-.41.24-.92.24s-.92-.11-.92-.24.41-.25.92-.25S71.21,180.6,71.21,180.74Z"/><path class="cls-1" d="M74.91,180.74c0,.13-.41.24-.92.24s-.93-.11-.93-.24.42-.25.93-.25S74.91,180.6,74.91,180.74Z"/><path class="cls-1" d="M78.61,180.74c0,.13-.42.24-.93.24s-.92-.11-.92-.24.41-.25.92-.25S78.61,180.6,78.61,180.74Z"/><path class="cls-1" d="M82.3,180.74c0,.13-.41.24-.92.24s-.93-.11-.93-.24.42-.25.93-.25S82.3,180.6,82.3,180.74Z"/><path class="cls-1" d="M86,180.74c0,.13-.42.24-.93.24s-.92-.11-.92-.24.41-.25.92-.25S86,180.6,86,180.74Z"/><path class="cls-1" d="M89.69,180.74c0,.13-.41.24-.92.24s-.92-.11-.92-.24.41-.25.92-.25S89.69,180.6,89.69,180.74Z"/><path class="cls-1" d="M93.39,180.74c0,.13-.41.24-.92.24s-.93-.11-.93-.24.42-.25.93-.25S93.39,180.6,93.39,180.74Z"/><path class="cls-1" d="M97.09,180.74c0,.13-.42.24-.93.24s-.92-.11-.92-.24.41-.25.92-.25S97.09,180.6,97.09,180.74Z"/><path class="cls-1" d="M100.78,180.74c0,.13-.41.24-.92.24s-.93-.11-.93-.24.42-.25.93-.25S100.78,180.6,100.78,180.74Z"/><path class="cls-1" d="M104.48,180.74c0,.13-.42.24-.93.24s-.92-.11-.92-.24.41-.25.92-.25S104.48,180.6,104.48,180.74Z"/><path class="cls-1" d="M108.17,180.74c0,.13-.41.24-.92.24s-.93-.11-.93-.24.42-.25.93-.25S108.17,180.6,108.17,180.74Z"/><path class="cls-1" d="M111.87,180.74c0,.13-.42.24-.93.24s-.92-.11-.92-.24.41-.25.92-.25S111.87,180.6,111.87,180.74Z"/><path class="cls-1" d="M115.56,180.74c0,.13-.41.24-.92.24s-.92-.11-.92-.24.41-.25.92-.25S115.56,180.6,115.56,180.74Z"/><path class="cls-1" d="M119.26,180.74c0,.13-.41.24-.92.24s-.93-.11-.93-.24.42-.25.93-.25S119.26,180.6,119.26,180.74Z"/><path class="cls-1" d="M123,180.74c0,.13-.42.24-.93.24s-.92-.11-.92-.24.41-.25.92-.25S123,180.6,123,180.74Z"/><path class="cls-1" d="M126.65,180.74c0,.13-.41.24-.92.24s-.93-.11-.93-.24.42-.25.93-.25S126.65,180.6,126.65,180.74Z"/><path class="cls-1" d="M130.35,180.74c0,.13-.42.24-.93.24s-.92-.11-.92-.24.41-.25.92-.25S130.35,180.6,130.35,180.74Z"/><path class="cls-1" d="M134,180.74c0,.13-.41.24-.92.24s-.92-.11-.92-.24.41-.25.92-.25S134,180.6,134,180.74Z"/><path class="cls-1" d="M137.74,180.74c0,.13-.41.24-.92.24s-.93-.11-.93-.24.42-.25.93-.25S137.74,180.6,137.74,180.74Z"/><path class="cls-1" d="M140.79,181.38c-.1,0-.19-.27-.22-.64l.22.22-.28,0c-.51,0-.92-.11-.92-.24s.41-.25.92-.25l.28,0,.25,0,0,.21C141,181.11,140.9,181.38,140.79,181.38Z"/><path class="cls-1" d="M140.79,185.07c-.13,0-.24-.41-.24-.92s.11-.93.24-.93.25.42.25.93S140.93,185.07,140.79,185.07Z"/><path class="cls-1" d="M140.79,188.77c-.13,0-.24-.42-.24-.93s.11-.92.24-.92.25.41.25.92S140.93,188.77,140.79,188.77Z"/><path class="cls-1" d="M140.79,192.46c-.13,0-.24-.41-.24-.92s.11-.92.24-.92.25.41.25.92S140.93,192.46,140.79,192.46Z"/><path class="cls-1" d="M140.79,196.16c-.13,0-.24-.41-.24-.92s.11-.93.24-.93.25.42.25.93S140.93,196.16,140.79,196.16Z"/><path class="cls-1" d="M140.79,199.86c-.13,0-.24-.42-.24-.93s.11-.92.24-.92.25.41.25.92S140.93,199.86,140.79,199.86Z"/><path class="cls-1" d="M140.79,203.55c-.13,0-.24-.41-.24-.92s.11-.93.24-.93.25.42.25.93S140.93,203.55,140.79,203.55Z"/><path class="cls-1" d="M140.79,207.25c-.13,0-.24-.42-.24-.93s.11-.92.24-.92.25.41.25.92S140.93,207.25,140.79,207.25Z"/><path class="cls-1" d="M140.79,210.94c-.13,0-.24-.41-.24-.92s.11-.92.24-.92.25.41.25.92S140.93,210.94,140.79,210.94Z"/><path class="cls-1" d="M140.79,214.64c-.13,0-.24-.41-.24-.92s.11-.93.24-.93.25.41.25.93S140.93,214.64,140.79,214.64Z"/><path class="cls-1" d="M140.79,218.33c-.13,0-.24-.41-.24-.92s.11-.92.24-.92.25.41.25.92S140.93,218.33,140.79,218.33Z"/><path class="cls-1" d="M140.79,222c-.13,0-.24-.41-.24-.92s.11-.93.24-.93.25.42.25.93S140.93,222,140.79,222Z"/><path class="cls-1" d="M71.41,215c0-.14.41-.25.92-.25-.48.49-.13.14-.24.25h0v-.16l0-.17a2.34,2.34,0,0,1,0-.3c0-.17.1-.27.17-.27s.13.1.17.27a2.34,2.34,0,0,1,0,.3l0,.17v.16h0c-.11.1.24-.24-.24.24C71.82,215.21,71.41,215.1,71.41,215Z"/><path class="cls-1" d="M68,215c0-.14.38-.25.86-.25s.86.11.86.25-.39.24-.86.24S68,215.1,68,215Z"/><path class="cls-1" d="M64.5,215c0-.14.39-.25.87-.25s.86.11.86.25-.39.24-.86.24S64.5,215.1,64.5,215Z"/><path class="cls-1" d="M61.05,215c0-.14.39-.25.87-.25s.86.11.86.25-.39.24-.86.24S61.05,215.1,61.05,215Z"/><path class="cls-1" d="M57.6,215c0-.14.39-.25.86-.25s.87.11.87.25-.39.24-.87.24S57.6,215.1,57.6,215Z"/><path class="cls-1" d="M54.15,215c0-.14.39-.25.86-.25s.87.11.87.25-.39.24-.87.24S54.15,215.1,54.15,215Z"/><path class="cls-1" d="M50.7,215c0-.14.39-.25.86-.25s.87.11.87.25-.39.24-.87.24S50.7,215.1,50.7,215Z"/><path class="cls-1" d="M47.25,215c0-.14.39-.25.86-.25s.86.11.86.25-.38.24-.86.24S47.25,215.1,47.25,215Z"/><path class="cls-1" d="M44.6,214c.13,0,.24.41.24.93l-.24-.25H45a1.84,1.84,0,0,1,.29.06c.17,0,.27.1.27.17s-.1.12-.27.17l-.29.05H44.6l-.24-.24C44.36,214.45,44.47,214,44.6,214Z"/><path class="cls-1" d="M44.6,210.32c.13,0,.24.42.24.93s-.11.93-.24.93-.24-.41-.24-.93S44.47,210.32,44.6,210.32Z"/><path class="cls-1" d="M44.6,206.6c.13,0,.24.42.24.93s-.11.93-.24.93-.24-.41-.24-.93S44.47,206.6,44.6,206.6Z"/><path class="cls-1" d="M44.6,202.88c.13,0,.24.42.24.93s-.11.93-.24.93-.24-.41-.24-.93S44.47,202.88,44.6,202.88Z"/><path class="cls-1" d="M44.6,199.16c.13,0,.24.42.24.93s-.11.93-.24.93-.24-.41-.24-.93S44.47,199.16,44.6,199.16Z"/><path class="cls-1" d="M44.6,195.44c.13,0,.24.42.24.93s-.11.93-.24.93-.24-.41-.24-.93S44.47,195.44,44.6,195.44Z"/><path class="cls-1" d="M44.6,191.72c.13,0,.24.42.24.93s-.11.93-.24.93-.24-.41-.24-.93S44.47,191.72,44.6,191.72Z"/><path class="cls-1" d="M45.52,188.94c0,.13-.41.24-.92.24l.24-.24h0v.16l0,.18a1.92,1.92,0,0,1,0,.29c0,.17-.1.27-.17.27s-.13-.1-.17-.27a1.92,1.92,0,0,1,0-.29l0-.18V189h0l.24-.24C45.11,188.7,45.52,188.81,45.52,188.94Z"/><path class="cls-1" d="M49,188.94c0,.13-.38.24-.86.24s-.86-.11-.86-.24.39-.24.86-.24S49,188.81,49,188.94Z"/><path class="cls-1" d="M52.43,188.94c0,.13-.39.24-.87.24s-.86-.11-.86-.24.39-.24.86-.24S52.43,188.81,52.43,188.94Z"/><path class="cls-1" d="M55.88,188.94c0,.13-.39.24-.87.24s-.86-.11-.86-.24.39-.24.86-.24S55.88,188.81,55.88,188.94Z"/><path class="cls-1" d="M59.33,188.94c0,.13-.39.24-.87.24s-.86-.11-.86-.24.39-.24.86-.24S59.33,188.81,59.33,188.94Z"/><path class="cls-1" d="M62.78,188.94c0,.13-.39.24-.86.24s-.87-.11-.87-.24.39-.24.87-.24S62.78,188.81,62.78,188.94Z"/><path class="cls-1" d="M66.23,188.94c0,.13-.39.24-.86.24s-.87-.11-.87-.24.39-.24.87-.24S66.23,188.81,66.23,188.94Z"/><path class="cls-1" d="M69.68,188.94c0,.13-.39.24-.86.24s-.86-.11-.86-.24.38-.24.86-.24S69.68,188.81,69.68,188.94Z"/><path class="cls-1" d="M72.33,189.86c-.13,0-.24-.41-.24-.92l.24.24H72l-.29,0c-.17,0-.27-.1-.27-.17s.1-.13.27-.17l.29-.05.17,0h.19l.24.24C72.57,189.45,72.46,189.86,72.33,189.86Z"/><path class="cls-1" d="M72.33,193.58c-.13,0-.24-.41-.24-.93s.11-.93.24-.93.24.42.24.93S72.46,193.58,72.33,193.58Z"/><path class="cls-1" d="M72.33,197.3c-.13,0-.24-.41-.24-.93s.11-.93.24-.93.24.42.24.93S72.46,197.3,72.33,197.3Z"/><path class="cls-1" d="M72.33,201c-.13,0-.24-.41-.24-.93s.11-.93.24-.93.24.42.24.93S72.46,201,72.33,201Z"/><path class="cls-1" d="M72.33,204.74c-.13,0-.24-.41-.24-.93s.11-.93.24-.93.24.42.24.93S72.46,204.74,72.33,204.74Z"/><path class="cls-1" d="M72.33,208.46c-.13,0-.24-.41-.24-.93s.11-.93.24-.93.24.42.24.93S72.46,208.46,72.33,208.46Z"/><path class="cls-1" d="M72.33,212.18c-.13,0-.24-.41-.24-.93s.11-.93.24-.93.24.42.24.93S72.46,212.18,72.33,212.18Z"/><rect class="cls-1" x="43.94" y="214.3" width="1.32" height="1.32"/><rect class="cls-1" x="43.94" y="188.28" width="1.32" height="1.32"/><rect class="cls-1" x="71.67" y="188.28" width="1.32" height="1.32"/><rect class="cls-1" x="71.67" y="213.64" width="1.32" height="1.32"/><rect class="cls-1" x="57.14" y="214.3" width="1.32" height="1.32"/><rect class="cls-1" x="57.8" y="188.28" width="1.32" height="1.32"/><rect class="cls-1" x="43.94" y="201.95" width="1.32" height="1.32"/><rect class="cls-1" x="71.01" y="201.29" width="1.32" height="1.32"/><path class="cls-1" d="M212,96.42s0-.32,0-.94,0-1.55,0-2.73c0-2.39,0-5.88,0-10.33,0-8.89-.06-21.59-.1-36.91l.18.18-62.48,0h0l.22-.21c0,18.4,0,35.79,0,50.91l-.2-.19,45.13.1,12.79,0,3.39,0H212l-.28,0h-.86l-3.35,0-12.75,0-45.25.1h-.19v-.2c0-15.12,0-32.51,0-50.91v-.22h.22l62.48,0h.18v.18c0,15.36-.07,28.11-.09,37,0,4.42,0,7.9,0,10.28,0,1.17,0,2.07,0,2.7S212,96.42,212,96.42Z"/><path class="cls-1" d="M212.53,53.06c0,.12-14.1.22-31.5.22s-31.5-.1-31.5-.22,14.1-.22,31.5-.22S212.53,52.94,212.53,53.06Z"/><path class="cls-1" d="M154.65,49.35a.84.84,0,1,1-1.68,0,.84.84,0,1,1,1.68,0Z"/><path class="cls-1" d="M157.72,49.35a.84.84,0,1,1-.84-.85A.85.85,0,0,1,157.72,49.35Z"/><path class="cls-1" d="M160.79,49.35a.85.85,0,1,1-.84-.85A.85.85,0,0,1,160.79,49.35Z"/><path class="cls-1" d="M165.59,70.57a3,3,0,0,1,1.75,2.79,3.08,3.08,0,0,1-.49,1.74,3.2,3.2,0,0,1-1.33,1.16,4.24,4.24,0,0,1-1.9.42,4,4,0,0,1-3.26-1.37,5.82,5.82,0,0,1-1.15-3.87,6.64,6.64,0,0,1,.62-3,4.41,4.41,0,0,1,1.74-1.88,5.25,5.25,0,0,1,2.61-.63,6.63,6.63,0,0,1,1.44.15,4.14,4.14,0,0,1,1.17.46l-.57,1.17a3.6,3.6,0,0,0-2-.49,3.3,3.3,0,0,0-2.57,1,4.21,4.21,0,0,0-.93,3,3.26,3.26,0,0,0,0,.37,2.89,2.89,0,0,1,1.23-1,4.42,4.42,0,0,1,1.78-.35A4.22,4.22,0,0,1,165.59,70.57Zm-.35,4.34a1.87,1.87,0,0,0,.65-1.49,1.83,1.83,0,0,0-.66-1.48,2.62,2.62,0,0,0-1.74-.54,2.84,2.84,0,0,0-1.26.27,2.1,2.1,0,0,0-.85.73,1.82,1.82,0,0,0-.31,1,1.89,1.89,0,0,0,.29,1,2.08,2.08,0,0,0,.86.73,2.91,2.91,0,0,0,1.34.28A2.48,2.48,0,0,0,165.24,74.91Z"/><path class="cls-1" d="M174.85,70.57a3,3,0,0,1,1.75,2.79,3.16,3.16,0,0,1-.49,1.74,3.23,3.23,0,0,1-1.34,1.16,4.17,4.17,0,0,1-1.89.42,4.05,4.05,0,0,1-3.27-1.37,5.88,5.88,0,0,1-1.14-3.87,6.51,6.51,0,0,1,.62-3,4.29,4.29,0,0,1,1.74-1.88,5.19,5.19,0,0,1,2.6-.63,6.63,6.63,0,0,1,1.44.15,4.14,4.14,0,0,1,1.17.46l-.57,1.17a3.6,3.6,0,0,0-2-.49,3.28,3.28,0,0,0-2.56,1,4.21,4.21,0,0,0-.93,3c0,.16,0,.28,0,.37a2.86,2.86,0,0,1,1.24-1,4.38,4.38,0,0,1,1.78-.35A4.25,4.25,0,0,1,174.85,70.57Zm-.35,4.34a2,2,0,0,0,0-3,2.67,2.67,0,0,0-1.75-.54,2.77,2.77,0,0,0-1.25.27,2.13,2.13,0,0,0-.86.73,1.89,1.89,0,0,0-.3,1,1.8,1.8,0,0,0,.29,1,2,2,0,0,0,.85.73,3,3,0,0,0,1.35.28A2.48,2.48,0,0,0,174.5,74.91Z"/><path class="cls-1" d="M179.8,76a4.26,4.26,0,0,1-1.52-1.85,7.69,7.69,0,0,1,0-5.76,4.29,4.29,0,0,1,1.52-1.86,4.17,4.17,0,0,1,4.41,0,4.36,4.36,0,0,1,1.52,1.86,7.69,7.69,0,0,1,0,5.76A4.33,4.33,0,0,1,184.21,76a4.12,4.12,0,0,1-4.41,0ZM184,74.31a6.3,6.3,0,0,0,0-6,2.49,2.49,0,0,0-4.05,0,6.3,6.3,0,0,0,0,6,2.51,2.51,0,0,0,4.05,0Z"/><path class="cls-1" d="M195.06,75.25v1.31h-7.54v-1l4.27-4.13a5,5,0,0,0,1.05-1.3,2.45,2.45,0,0,0,.27-1.1,1.52,1.52,0,0,0-.58-1.28,2.55,2.55,0,0,0-1.65-.46,3.3,3.3,0,0,0-2.69,1.14l-1-.88a4.12,4.12,0,0,1,1.61-1.17,5.72,5.72,0,0,1,2.23-.42,4.1,4.1,0,0,1,2.63.78,2.61,2.61,0,0,1,1,2.14,3.63,3.63,0,0,1-.36,1.59,6.32,6.32,0,0,1-1.36,1.71l-3.21,3.09Z"/><rect class="cls-2" x="248.85" y="280.17" width="63.56" height="51"/><path class="cls-3" d="M313,287.73c0,.18-8.15.32-28.07.32s-36.08-.14-36.08-.32,16.15-.31,36.08-.31S313,287.56,313,287.73Z"/><path class="cls-4" d="M254.69,284a1,1,0,1,1-1-.84A.91.91,0,0,1,254.69,284Z"/><path class="cls-4" d="M258.21,284a.92.92,0,0,1-1,.85.85.85,0,1,1,1-.85Z"/><path class="cls-4" d="M261.72,284a1,1,0,1,1-1-.84A.91.91,0,0,1,261.72,284Z"/><path class="cls-4" d="M289.71,316.56a3.8,3.8,0,0,1,.63-.72l1.83-1.84c1.57-1.55,3.74-3.66,6.17-6l.05,0v.31c-2.45-2.27-4.64-4.34-6.21-5.85l-1.85-1.8a4.61,4.61,0,0,1-.63-.71,4.72,4.72,0,0,1,.75.58l1.93,1.71c1.63,1.46,3.85,3.49,6.29,5.76l.17.15-.16.16-.06,0c-2.42,2.31-4.63,4.39-6.25,5.88L290.45,316A4.1,4.1,0,0,1,289.71,316.56Z"/><path class="cls-4" d="M270.86,299.93a4.35,4.35,0,0,1-.63.72l-1.84,1.84c-1.56,1.55-3.74,3.66-6.16,6l-.05.05v-.31c2.45,2.27,4.64,4.34,6.21,5.85l1.84,1.8a4.43,4.43,0,0,1,.64.71,4.72,4.72,0,0,1-.75-.58c-.52-.47-1.17-1-1.94-1.71-1.62-1.46-3.84-3.49-6.29-5.76l-.16-.15.16-.16.06-.05c2.42-2.31,4.63-4.39,6.25-5.88l1.92-1.74A4.32,4.32,0,0,1,270.86,299.93Z"/><path class="cls-4" d="M275.7,320.47c-.11,0,1.87-5.6,4.42-12.41s4.7-12.32,4.81-12.27-1.86,5.6-4.42,12.42S275.81,320.52,275.7,320.47Z"/><path class="cls-2" d="M111,390.55a19.54,19.54,0,0,1,12.15-1.48c2.2.37,4.5,1,6,2.68s1.78,4.57.06,6a5.68,5.68,0,0,1-3.78,1c-3.22,0-6.78-.6-9.34,1.33-1.47,1.11-2.44,2.94-4.19,3.48a4.15,4.15,0,0,1-4.56-2,7.13,7.13,0,0,1-.51-5.22A8,8,0,0,1,111,390.55Z"/><path class="cls-2" d="M102.49,374.2c2.26,3.23,6.65,2.16,8.69.19s2.9-4.82,3.68-7.55c1.79-6.22,3.59-12.74,2.26-19.08a10.58,10.58,0,0,0-2.43-5.19,5.54,5.54,0,0,0-5.25-1.74c-2.22.58-3.59,2.75-4.59,4.81a45.53,45.53,0,0,0-4.49,19.53c0,3.14.36,6.44,2.13,9"/><path class="cls-2" d="M96.28,378.83c2.46-2.91,2.92-7.15,1.83-10.8a20.87,20.87,0,0,0-6.4-9.29A34.43,34.43,0,0,0,80.25,352a12.41,12.41,0,0,0-5.16-.88,5.39,5.39,0,0,0-4.32,2.62c-1.21,2.3,0,5.09,1.2,7.37a86.06,86.06,0,0,0,7.53,11.46c2.25,2.91,4.84,5.78,8.28,7.1s7,1.16,8.83-1.23"/><path class="cls-1" d="M102.34,422.89a7.22,7.22,0,0,0,.2-1.47c.11-1.06.24-2.4.39-4a58.26,58.26,0,0,1,.9-5.87,45.31,45.31,0,0,1,2.14-6.93,25.61,25.61,0,0,1,3.53-6.27,13.36,13.36,0,0,1,4.48-3.72,12.35,12.35,0,0,1,3.76-1.17,7.54,7.54,0,0,0,1.46-.21,6.75,6.75,0,0,0-1.48,0,11.29,11.29,0,0,0-3.93,1,13.21,13.21,0,0,0-4.72,3.75,24.88,24.88,0,0,0-3.67,6.4,42.82,42.82,0,0,0-2.12,7,51.87,51.87,0,0,0-.78,5.94c-.12,1.7-.17,3.08-.19,4A6.32,6.32,0,0,0,102.34,422.89Z"/><path class="cls-1" d="M102.61,419.81a2.54,2.54,0,0,0,0-.68v-1.95c0-1.68,0-4.13.08-7.15.15-6,.67-12.53,1.68-21.69,1-8.61,2.22-18.63,3.57-25.15.29-1.48.58-2.81.85-4s.49-2.18.7-3,.34-1.39.46-1.89a3.5,3.5,0,0,0,.12-.67,2.73,2.73,0,0,0-.24.64l-.57,1.86c-.25.81-.5,1.82-.8,3s-.62,2.49-.94,4a223.37,223.37,0,0,0-3.76,23.34c-1,9.18-1.45,17.53-1.49,23.59,0,3,0,5.47.1,7.16,0,.79.09,1.43.12,1.95A2.75,2.75,0,0,0,102.61,419.81Z"/><path class="cls-1" d="M102.65,403.69a11.27,11.27,0,0,0,0-2c-.08-1.31-.26-3.19-.62-5.51a74.51,74.51,0,0,0-1.79-8,67.9,67.9,0,0,0-3.36-9.5A50.47,50.47,0,0,0,87,363.29a25.57,25.57,0,0,0-2.32-2.15c-.36-.31-.67-.61-1-.84l-.9-.62a15.35,15.35,0,0,0-1.71-1.1,61.91,61.91,0,0,1,5.61,5,53.27,53.27,0,0,1,9.6,15.29,74.68,74.68,0,0,1,3.38,9.4,80.8,80.8,0,0,1,1.9,8c.42,2.29.67,4.16.81,5.45A12.73,12.73,0,0,0,102.65,403.69Z"/><polygon class="cls-1" points="87.08 432.12 88.69 454.25 117.11 454.25 118.73 432.12 87.08 432.12"/><rect class="cls-1" x="84.33" y="423.4" width="37.79" height="8.72"/><polygon class="cls-2" points="84.33 453.4 84.33 455.82 86.11 455.82 121.5 455.82 121.5 453.4 84.33 453.4"/><polygon class="cls-1" points="87.85 460.07 86.11 455.82 120.14 455.82 118.11 460.07 87.85 460.07"/><path class="cls-5" d="M118.2,439.36a1.08,1.08,0,0,1-.13.2l-.43.56L116,442.24l-.08.1-.07-.1-4.06-5.63H112l-4,5.67-.12.18-.14-.17L103,436.64h.27L103,437l-4.25,5.32-.14.18-.13-.19-4-5.67h.24l-4.94,5.63-.08.1-.07-.12-1.55-2.59-.39-.69a.92.92,0,0,1-.12-.25,2.53,2.53,0,0,1,.16.22c.12.17.26.39.44.66l1.62,2.55h-.15l4.85-5.69.13-.14.11.15,4,5.64h-.27c1.34-1.7,2.76-3.49,4.23-5.33l.27-.33.13-.17.14.16,4.74,5.67h-.27l4-5.65.12-.16.12.16,4,5.69h-.14l1.72-2.07.46-.53C118.14,439.41,118.19,439.35,118.2,439.36Z"/><path class="cls-5" d="M119.12,432c0,.1-7.12.18-15.9.18s-15.91-.08-15.91-.18,7.12-.18,15.91-.18S119.12,431.88,119.12,432Z"/><path class="cls-5" d="M120.56,456.06c0,.1-7.74.18-17.29.18S86,456.16,86,456.06s7.73-.18,17.28-.18S120.56,456,120.56,456.06Z"/><path class="cls-6" d="M369.47,371.35a31.7,31.7,0,0,0-13.55-4.67c-2.21-.22-4.63-.16-6.41,1.18a1.35,1.35,0,0,0-.66,1.17,1.45,1.45,0,0,0,.63.8,19.37,19.37,0,0,0,20,1.52"/><path class="cls-6" d="M369.12,371a65.44,65.44,0,0,1-8.75-7.7,22,22,0,0,1-5.48-10.14,4.09,4.09,0,0,1,.43-3.4c7,5.45,12.45,12.5,13.8,21.24"/><path class="cls-6" d="M369.4,371.29a31.41,31.41,0,0,1,.16-11.48,15.45,15.45,0,0,1,6.12-9.48c1.2,2.81.69,6.06-.16,9a43.91,43.91,0,0,1-6.07,12.78"/><path class="cls-6" d="M376.23,383.55c-4.15.5-7.76,2.69-10.86,5.49a20.63,20.63,0,0,0-6.22,10.67c4.08-.25,7.53-3.12,10-6.34s4.25-6.75,7-9.76"/><path class="cls-6" d="M377.72,385.5a26.81,26.81,0,0,1,3.09-25.34c2.37,8.41,1.5,17.91-3.09,25.34"/><path class="cls-6" d="M386.75,396.26a19.39,19.39,0,0,0-18.52,10.67c-.23.46-.44,1-.13,1.45a1.37,1.37,0,0,0,1.23.36c3.65-.24,6.89-2.43,9.56-4.93s5-5.4,7.94-7.56"/><path class="cls-6" d="M386.46,395.68a34.55,34.55,0,0,1-.34-19.28c.68-2.48,1.82-5.09,4.11-6.26a.89.89,0,0,1,.63-.11.86.86,0,0,1,.4.46,11.64,11.64,0,0,1,1,5.53,34.32,34.32,0,0,1-.87,5.6c-.72,3.42-1.1,7.1-3,10.05a20.42,20.42,0,0,0-1.19,2.21c-.36.75-.36,1-.69,1.61"/><path class="cls-6" d="M410.38,399.24c-1.77-6.74.11-14.91,4.35-20.44.32-.4.73-.84,1.24-.79.78.07,1,1.11.95,1.9a36.93,36.93,0,0,1-6.54,19.33"/><path class="cls-6" d="M412.53,400.71a29.72,29.72,0,0,0,24.39-5,19.76,19.76,0,0,0-13.2-1.62c-4.41,1-8.44,3-11.19,6.58"/><path class="cls-6" d="M414.35,396.23c4.59-7.48,13.38-12.36,22.14-12.8-1,3.56-3.94,6.33-7.24,8a40.51,40.51,0,0,1-10.63,3.11c-1.41.27-3.35.57-4.27,1.69"/><path class="cls-6" d="M410.83,374.45a63.56,63.56,0,0,0,2.83-13,21.5,21.5,0,0,0-2.58-12.83c-4.28,8.29-4.71,18-.37,26.24"/><path class="cls-6" d="M425.25,367.16c5-9.1,15.23-16.37,25.57-17.39-4,9.93-14.86,17.61-25.57,17.39"/><path class="cls-6" d="M422.1,369c7.47,1.13,13.84,5.91,20.82,8.8a9.31,9.31,0,0,0,4.71.9,3.68,3.68,0,0,0,2.3-6.52,10,10,0,0,0-3.42-2.07c-7.6-3.17-15.75-3.25-23.76-1.33"/><path class="cls-6" d="M417.78,374.19c1.69.48,2.27,1.36,3.61,2.5a38.91,38.91,0,0,0,15.78,8.11c.61.15,1.4.21,1.7-.34s-.07-1-.41-1.48a21.84,21.84,0,0,0-9.53-6.47c-3.65-1.35-6.8-3-11.15-2.64"/><path class="cls-6" d="M412.9,342.54a29.88,29.88,0,0,0,22.91,7.79,1.54,1.54,0,0,0,1-.37c.57-.63-.12-1.6-.79-2.12-6.73-5.25-14.89-7.43-23.16-5.3"/><path class="cls-6" d="M418.69,340.42a31.93,31.93,0,0,1,28.58-4.71,22.73,22.73,0,0,1-13.62,6,43.15,43.15,0,0,1-15-1.27"/><path class="cls-6" d="M416.39,325.88c-.66-6.72-.23-12-.7-18.78,0-.54-.15-1.19-.66-1.38-.7-.27-1.29.59-1.52,1.31a21.5,21.5,0,0,0,2.87,18.7"/><path class="cls-6" d="M415.9,326.62A39.3,39.3,0,0,0,427,315.8c2.2-3,4-6.61,3.55-10.3a10.65,10.65,0,0,0-8,4,22.33,22.33,0,0,0-4.09,8.23c-.9,3-1.52,6-2.57,8.9"/><path class="cls-6" d="M426.84,323.59a89.74,89.74,0,0,0,27.4-16.16c-3.27-1.32-7-.53-10.29.79a32.46,32.46,0,0,0-17.25,15.29"/><path class="cls-6" d="M419,330.3a56.15,56.15,0,0,0,15.21.08c4.94-.83,9.6-2.78,14.21-4.72a1.68,1.68,0,0,0,1-.74,1.11,1.11,0,0,0-.34-1.21,3,3,0,0,0-1.22-.57c-5-1.4-10.41-.74-15.34.92A71.35,71.35,0,0,0,419,330.3"/><path class="cls-6" d="M390.1,342.77c-3.45-7-3.23-15.09-.25-22.27,2.1,3.19,2.36,7.27,2,11.07s-1.54,7.72-1.61,11.55"/><path class="cls-6" d="M376.31,335.82a31,31,0,0,0-23.08,9.83,21.53,21.53,0,0,0,12.64-2.34,64.16,64.16,0,0,0,10.83-7.25"/><path class="cls-6" d="M367,332.72c-4.21-.34-8.27-.87-12.32.38a14.78,14.78,0,0,0-9.39,8,22.27,22.27,0,0,0,11.55-2.18A66.57,66.57,0,0,0,367,332.72"/><path class="cls-6" d="M380.77,332.86c-3.79-2.48-7.69-5-12.1-6s-9.53-.27-12.61,3.06c3.57,2.09,7.91,2.34,12.05,2.34s9.22-.05,13.13,1.33"/><path class="cls-6" d="M380.79,333.06c-6.48-6.37-8.94-17.8-6.33-26.5a40.38,40.38,0,0,1,6.33,26.5"/><path class="cls-6" d="M398.61,315c1.23-2.84,2.09-5.82,3.18-8.71a25,25,0,0,1,4.54-8,11.89,11.89,0,0,1,8-4.16,32.32,32.32,0,0,1-15.58,21"/><path class="cls-6" d="M395.39,318.78c-2-2.78-4.36-6.56-7.11-8.64s-6.31-3.34-9.66-2.54a22.5,22.5,0,0,0,16.77,11.18"/><path class="cls-6" d="M396,315.26a48.11,48.11,0,0,1-3.19-10.36,16.14,16.14,0,0,1,1.62-10.53c3.56,6.73,4.7,13.95,1.76,21"/><path class="cls-6" d="M398.65,294.37c2-6.67,8.12-11.58,14.71-13.83a5.59,5.59,0,0,1,2.58-.39,2.24,2.24,0,0,1,1.9,1.59c.24,1.13-.7,2.15-1.58,2.9a50.09,50.09,0,0,1-17.61,9.73"/><path class="cls-6" d="M398.72,288.92c.26-4.3.52-8.66,1.92-12.74s4.1-7.89,8-9.67c.66,4.34-1.25,8.66-3.56,12.39s-5.1,7.27-6.49,11.44"/><path class="cls-6" d="M398.61,291.88c-1.66-4.86-1.83-11-4.74-15.27-2-3-5.29-5-7.05-8.11a12.36,12.36,0,0,0,.41,9.21,26.64,26.64,0,0,0,5.39,7.7c2.15,2.3,4,4,6,6.47"/><path class="cls-7" d="M398.65,435c-.13,0-.24-32.41-.25-72.39s.09-72.41.21-72.41.25,32.41.26,72.41S398.78,435,398.65,435Z"/><path class="cls-7" d="M427,337.88a7.59,7.59,0,0,1-1.22.46l-3.36,1.13c-2.83,1-6.71,2.36-10.93,4.08s-8.11,3.25-10.35,5.19A7.52,7.52,0,0,0,399,351.5c-.33.76-.38,1.22-.43,1.21a1.09,1.09,0,0,1,0-.34,5.14,5.14,0,0,1,.24-.94,7.25,7.25,0,0,1,2-2.93,17.93,17.93,0,0,1,4.49-2.8c1.8-.83,3.79-1.71,5.9-2.58,4.23-1.73,8.15-3.08,11-4,1.43-.44,2.6-.77,3.4-1A7,7,0,0,1,427,337.88Z"/><path class="cls-7" d="M436.26,315.07a2.08,2.08,0,0,1-.34.36l-1,1L431,319.94l-12.93,11.51c-5,4.49-9.4,8.78-12.43,12-1.51,1.62-2.7,3-3.51,3.89l-.94,1.07a2.19,2.19,0,0,1-.35.35s.08-.15.27-.41.49-.65.88-1.13c.77-1,1.92-2.35,3.41-4a162.89,162.89,0,0,1,12.36-12.14c5.06-4.48,9.67-8.51,13-11.41l4-3.41,1.1-.92A2.15,2.15,0,0,1,436.26,315.07Z"/><path class="cls-7" d="M412.62,336c-.13-.05.93-2.49,2-5.57s1.56-5.67,1.69-5.65a19.18,19.18,0,0,1-1.25,5.8,37.55,37.55,0,0,1-1.57,3.9A5.78,5.78,0,0,1,412.62,336Z"/><path class="cls-7" d="M398.68,355.64a5.37,5.37,0,0,1-.78-.91l-2-2.55c-1.68-2.16-4-5.15-6.58-8.42s-5-6.19-6.7-8.31l-2-2.52a5.82,5.82,0,0,1-.7-1,5.66,5.66,0,0,1,.84.84c.52.56,1.25,1.39,2.15,2.42,1.79,2.07,4.22,5,6.82,8.24s4.87,6.3,6.47,8.51c.81,1.11,1.45,2,1.88,2.65A6.21,6.21,0,0,1,398.68,355.64Z"/><path class="cls-7" d="M392.47,347.66a11.34,11.34,0,0,1-2.61-4.87,13.88,13.88,0,0,1-.59-4.91l.21,0c-.09.37-.16.57-.2.56s0-.21,0-.6l.21,0a22.94,22.94,0,0,0,.83,4.78A35.43,35.43,0,0,0,392.47,347.66Z"/><path class="cls-7" d="M384.45,337.57a9.1,9.1,0,0,0-1.82-1.05,12.15,12.15,0,0,0-5-.4,30.8,30.8,0,0,0-5.08.82,14.46,14.46,0,0,1-2.09.5,6.74,6.74,0,0,1,2-.82,23.21,23.21,0,0,1,5.13-1,11,11,0,0,1,5.2.56A3.27,3.27,0,0,1,384.45,337.57Z"/><path class="cls-7" d="M382.55,335.13c0,.07-1.06-.42-2.79-1a28,28,0,0,0-6.94-1.43,28.38,28.38,0,0,0-7.09.36c-1.79.32-2.88.65-2.9.58a2.75,2.75,0,0,1,.74-.32,18.36,18.36,0,0,1,2.1-.59,24.92,24.92,0,0,1,7.18-.5,24.58,24.58,0,0,1,7,1.59,16.71,16.71,0,0,1,2,.9A2.61,2.61,0,0,1,382.55,335.13Z"/><path class="cls-7" d="M398.61,324.79a59.51,59.51,0,0,1-2-7.05,56.93,56.93,0,0,1-1.57-7.17,60.07,60.07,0,0,1,2,7.06A57,57,0,0,1,398.61,324.79Z"/><path class="cls-7" d="M398.74,324.79a34.06,34.06,0,0,0-2.25-4.22,18.64,18.64,0,0,0-3.31-3.42,3.14,3.14,0,0,1,1.28.66,10.29,10.29,0,0,1,2.42,2.49A9.28,9.28,0,0,1,398.74,324.79Z"/><path class="cls-7" d="M398.65,417.7s-.15-.78-.51-2.15a32,32,0,0,0-2.17-5.62,78.09,78.09,0,0,0-11.49-16.19c-2.57-2.93-5.06-5.7-7.17-8.34a58.65,58.65,0,0,1-5.13-7.4,36.09,36.09,0,0,1-2.59-5.48c-.23-.68-.41-1.21-.5-1.57a2.9,2.9,0,0,1-.14-.56s.28.74.81,2.06a41.34,41.34,0,0,0,2.71,5.39,61.94,61.94,0,0,0,5.17,7.29c2.12,2.62,4.62,5.37,7.19,8.3,5.19,5.83,9.26,11.71,11.44,16.36a28.36,28.36,0,0,1,2,5.71c.15.71.25,1.25.29,1.63A3,3,0,0,1,398.65,417.7Z"/><path class="cls-7" d="M424.25,388.79a14.38,14.38,0,0,1-1.35.75,30.6,30.6,0,0,0-3.48,2.3,41,41,0,0,0-4.57,4.17c-1.6,1.7-3.25,3.66-4.94,5.77-3.37,4.23-6.52,8-8.41,11-1,1.49-1.66,2.74-2.11,3.61a10.89,10.89,0,0,1-.74,1.35s0-.13.12-.38.24-.6.45-1.05a34.57,34.57,0,0,1,2-3.7,118.87,118.87,0,0,1,8.33-11.08c1.69-2.11,3.36-4.09,5-5.78a37.28,37.28,0,0,1,4.69-4.13,24.94,24.94,0,0,1,3.59-2.2c.44-.22.81-.36,1.05-.46S424.24,388.77,424.25,388.79Z"/><path class="cls-7" d="M424.75,398.17a19.49,19.49,0,0,1-2.84.41,37.36,37.36,0,0,0-6.72,1.33,20,20,0,0,0-6,3.16c-1.38,1.07-2,2-2.1,1.9s.11-.25.42-.65a10.43,10.43,0,0,1,1.47-1.51,18.32,18.32,0,0,1,6.09-3.35,30,30,0,0,1,6.84-1.21A15.4,15.4,0,0,1,424.75,398.17Z"/><path class="cls-7" d="M407.89,403.94c-.15-.08,1.13-2,2.12-4.66s1.14-5,1.31-4.94a4.38,4.38,0,0,1-.05,1.52,16.26,16.26,0,0,1-.82,3.58,17.53,17.53,0,0,1-1.65,3.29C408.3,403.52,407.94,404,407.89,403.94Z"/><path class="cls-7" d="M432.54,363.61a3.54,3.54,0,0,1-.46.24l-1.33.6c-.58.25-1.29.57-2.09,1s-1.74.84-2.71,1.43l-1.55.88c-.53.3-1.06.67-1.63,1-1.14.7-2.28,1.55-3.5,2.42a64.51,64.51,0,0,0-7.31,6.43,66.12,66.12,0,0,0-6.18,7.53c-.83,1.24-1.64,2.41-2.29,3.58-.34.57-.68,1.12-1,1.66l-.83,1.58c-.55,1-.94,1.94-1.33,2.76s-.69,1.53-.92,2.12-.41,1-.56,1.35a2.19,2.19,0,0,1-.22.46,1.9,1.9,0,0,1,.13-.49c.13-.37.29-.82.48-1.39s.48-1.33.85-2.16.74-1.79,1.27-2.8l.81-1.6c.28-.55.62-1.1.95-1.69.65-1.18,1.45-2.37,2.28-3.63a62.91,62.91,0,0,1,6.19-7.61,64.26,64.26,0,0,1,7.39-6.45c1.24-.87,2.4-1.71,3.55-2.39.58-.35,1.12-.71,1.66-1l1.57-.85c1-.57,1.94-1,2.76-1.37a21.75,21.75,0,0,1,2.13-.92l1.37-.53A1.48,1.48,0,0,1,432.54,363.61Z"/><path class="cls-7" d="M412.28,377.18a3.25,3.25,0,0,1,1.11-1.66,7.07,7.07,0,0,1,4.49-1.72,12.37,12.37,0,0,1,4.72.92,6.89,6.89,0,0,1,1.79.87,10.47,10.47,0,0,1-1.9-.55,14.05,14.05,0,0,0-4.6-.77,7.26,7.26,0,0,0-4.28,1.5A13,13,0,0,0,412.28,377.18Z"/><path class="cls-7" d="M409.25,380.31a17.27,17.27,0,0,0,1.27-4.15,16.89,16.89,0,0,0-.28-4.33,2.83,2.83,0,0,1,.52,1.21,8.34,8.34,0,0,1,.23,3.17,8.45,8.45,0,0,1-.95,3C409.64,380,409.29,380.34,409.25,380.31Z"/><path class="cls-8" d="M376.26,422.35c.7,12.39,4.43,25,10.17,37.72h25c5.48-12.61,9-25.19,9.57-37.72Z"/><path class="cls-3" d="M416.92,442.4c0,.12-8.22.23-18.36.23s-18.36-.11-18.36-.23,8.22-.24,18.36-.24S416.92,442.27,416.92,442.4Z"/><path class="cls-3" d="M416.37,446.88c0,.13-7.71.24-17.22.24s-17.21-.11-17.21-.24,7.7-.23,17.21-.23S416.37,446.75,416.37,446.88Z"/><path class="cls-9" d="M247.06,135c0-2.41,1.26-3.85,3-3.85s3,1.44,3,3.85-1.28,3.86-3,3.86S247.06,137.45,247.06,135Zm5.25,0c0-2-.91-3.14-2.23-3.14s-2.23,1.12-2.23,3.14.91,3.15,2.23,3.15S252.31,137.06,252.31,135Z"/><path class="cls-9" d="M254.23,135c0-2.41,1.27-3.85,3-3.85s3,1.44,3,3.85-1.27,3.86-3,3.86S254.23,137.45,254.23,135Zm5.25,0c0-2-.91-3.14-2.23-3.14S255,133,255,135s.91,3.15,2.23,3.15S259.48,137.06,259.48,135Z"/><path class="cls-9" d="M263.48,131.24v7.59h-.78v-6.89h-1.79v-.7Z"/><path class="cls-9" d="M265.29,135c0-2.41,1.27-3.85,3-3.85s3,1.44,3,3.85-1.28,3.86-3,3.86S265.29,137.45,265.29,135Zm5.25,0c0-2-.91-3.14-2.23-3.14s-2.23,1.12-2.23,3.14.91,3.15,2.23,3.15S270.54,137.06,270.54,135Z"/><path class="cls-9" d="M274.54,131.24v7.59h-.78v-6.89H272v-.7Z"/><path class="cls-9" d="M239.59,145.8c0-2.42,1.27-3.86,3-3.86s3,1.44,3,3.86-1.28,3.85-3,3.85S239.59,148.21,239.59,145.8Zm5.25,0c0-2-.91-3.14-2.23-3.14s-2.23,1.11-2.23,3.14.91,3.14,2.23,3.14S244.84,147.82,244.84,145.8Z"/><path class="cls-9" d="M246.76,145.8c0-2.42,1.27-3.86,3-3.86s3,1.44,3,3.86-1.28,3.85-3,3.85S246.76,148.21,246.76,145.8Zm5.25,0c0-2-.91-3.14-2.23-3.14s-2.23,1.11-2.23,3.14.91,3.14,2.23,3.14S252,147.82,252,145.8Z"/><path class="cls-9" d="M256,142v7.58h-.78V142.7h-1.78V142Z"/><path class="cls-9" d="M257.82,145.8c0-2.42,1.27-3.86,3-3.86s3,1.44,3,3.86-1.28,3.85-3,3.85S257.82,148.21,257.82,145.8Zm5.26,0c0-2-.91-3.14-2.23-3.14s-2.24,1.11-2.24,3.14.91,3.14,2.24,3.14S263.08,147.82,263.08,145.8Z"/><path class="cls-9" d="M267.08,142v7.58h-.78V142.7h-1.79V142Z"/><path class="cls-9" d="M271,142v7.58h-.78V142.7h-1.79V142Z"/><path class="cls-9" d="M272.8,145.8c0-2.42,1.26-3.86,3-3.86s3,1.44,3,3.86-1.28,3.85-3,3.85S272.8,148.21,272.8,145.8Zm5.25,0c0-2-.91-3.14-2.23-3.14s-2.23,1.11-2.23,3.14.91,3.14,2.23,3.14S278.05,147.82,278.05,145.8Z"/><path class="cls-9" d="M282.05,142v7.58h-.78V142.7h-1.79V142Z"/><path class="cls-9" d="M247.06,156.21c0-2.42,1.26-3.86,3-3.86s3,1.44,3,3.86-1.28,3.85-3,3.85S247.06,158.62,247.06,156.21Zm5.25,0c0-2-.91-3.14-2.23-3.14s-2.23,1.11-2.23,3.14.91,3.14,2.23,3.14S252.31,158.23,252.31,156.21Z"/><path class="cls-9" d="M256.31,152.42V160h-.78v-6.89h-1.79v-.69Z"/><path class="cls-9" d="M260.22,152.42V160h-.78v-6.89h-1.79v-.69Z"/><path class="cls-9" d="M264.13,152.42V160h-.78v-6.89h-1.79v-.69Z"/><path class="cls-9" d="M265.94,156.21c0-2.42,1.27-3.86,3-3.86s3,1.44,3,3.86-1.28,3.85-3,3.85S265.94,158.62,265.94,156.21Zm5.26,0c0-2-.91-3.14-2.24-3.14s-2.23,1.11-2.23,3.14.91,3.14,2.23,3.14S271.2,158.23,271.2,156.21Z"/><path class="cls-9" d="M275.19,152.42V160h-.78v-6.89h-1.78v-.69Z"/><path class="cls-8" d="M276.16,55.64h.51l1.49,0c.33,0,.69,0,1.1.05l1.31.19,1.53.22,1.71.43a29.58,29.58,0,0,1,3.94,1.3l2.14,1c.74.37,1.45.85,2.21,1.3a29.85,29.85,0,0,1,8.59,8.34,30.19,30.19,0,0,1,4.89,13.62,31.42,31.42,0,0,1,.09,4c0,.68,0,1.37-.12,2s-.21,1.37-.31,2.06a29.07,29.07,0,0,1-2.75,8.17,29.23,29.23,0,0,1-12.93,12.91c-.73.33-1.44.73-2.2,1l-2.3.84c-.78.23-1.59.42-2.38.63s-1.63.28-2.45.43c-.41,0-.82.15-1.24.17l-1.25.06c-.84,0-1.68.1-2.52.07a30.92,30.92,0,0,1-5.06-.6,29.71,29.71,0,0,1-8.18-3h.24l-9.85,4.68-.45.22.09-.49q1.06-5.59,2.06-10.88l.06.21a29.51,29.51,0,0,1-7-25.44,28.85,28.85,0,0,1,4.4-10.64,29.58,29.58,0,0,1,6.8-7.15,30.67,30.67,0,0,1,3.57-2.34c.59-.32,1.19-.58,1.76-.86a13.47,13.47,0,0,1,1.68-.72,24.67,24.67,0,0,1,3.11-1,20,20,0,0,1,2.66-.57c.81-.11,1.53-.23,2.15-.29l1.57-.06,1,0h.32l-.32,0-1,.07-1.57.09c-.62.08-1.33.21-2.13.34a19.87,19.87,0,0,0-2.64.6,22.6,22.6,0,0,0-3.07,1,12,12,0,0,0-1.66.73c-.56.28-1.15.54-1.74.86a32.51,32.51,0,0,0-3.52,2.34,30,30,0,0,0-6.68,7.12,28.81,28.81,0,0,0-4.29,10.51,29,29,0,0,0,6.92,25l.08.09,0,.12q-1,5.28-2.05,10.88l-.36-.28,9.85-4.69.12-.06.11.06a29.14,29.14,0,0,0,8,3,29.84,29.84,0,0,0,5,.59c.83,0,1.66,0,2.48-.07l1.23-.06c.41,0,.81-.11,1.22-.16a21.53,21.53,0,0,0,2.4-.43c.79-.2,1.57-.39,2.35-.61l2.26-.82c.74-.29,1.44-.68,2.16-1a28.81,28.81,0,0,0,12.73-12.67,28.79,28.79,0,0,0,2.73-8c.1-.68.21-1.36.31-2s.08-1.35.13-2a30.53,30.53,0,0,0-.08-4A29.1,29.1,0,0,0,292,60.44c-.76-.44-1.46-.93-2.19-1.3l-2.11-1a31.18,31.18,0,0,0-3.89-1.34l-1.69-.45-1.52-.24-1.31-.21c-.4,0-.76,0-1.09-.08l-1.48-.1Z"/><path class="cls-10" d="M283.87,92.43a4.52,4.52,0,0,1,.52-.58l1.5-1.51c1.28-1.26,3.06-3,5-4.88l.05,0v.25c-2-1.85-3.79-3.54-5.08-4.78l-1.51-1.48a4.16,4.16,0,0,1-.52-.57,2.77,2.77,0,0,1,.61.47l1.59,1.4c1.33,1.19,3.15,2.85,5.14,4.71l.14.12-.13.13-.05,0c-2,1.89-3.79,3.59-5.11,4.81L284.48,92A3,3,0,0,1,283.87,92.43Z"/><path class="cls-10" d="M283.86,92.7a.24.24,0,0,1-.17-.09c-.19-.2-.07-.33.52-.94l1.5-1.51c1.27-1.25,3-2.87,4.77-4.61-1.81-1.68-3.48-3.26-4.75-4.48l-1.51-1.48c-.6-.6-.72-.72-.53-.93s.33-.07,1,.46l1.58,1.4c1.38,1.24,3.21,2.91,5.15,4.71l.14.13a.25.25,0,0,1,.08.18.23.23,0,0,1-.08.18l-.13.13c-1.95,1.85-3.76,3.56-5.16,4.85l-1.58,1.43C284.2,92.52,284,92.7,283.86,92.7Z"/><path class="cls-10" d="M268.46,78.84a4.52,4.52,0,0,1-.52.58l-1.5,1.51c-1.28,1.26-3.06,3-5,4.88l0,0V85.6c2,1.85,3.79,3.54,5.08,4.78l1.51,1.48a4.16,4.16,0,0,1,.52.57,2.94,2.94,0,0,1-.62-.47l-1.58-1.4c-1.33-1.19-3.15-2.85-5.15-4.71l-.13-.12.13-.13.05,0c2-1.89,3.79-3.59,5.11-4.81l1.58-1.43A2.67,2.67,0,0,1,268.46,78.84Z"/><path class="cls-10" d="M268.47,92.7c-.15,0-.34-.17-.79-.55l-1.59-1.4c-1.4-1.26-3.22-2.93-5.15-4.71l-.13-.13a.25.25,0,0,1-.08-.18.23.23,0,0,1,.08-.18l.13-.13c2-1.88,3.79-3.59,5.16-4.85l1.58-1.43c.64-.56.77-.68,1-.48s.06.33-.52.94l-1.5,1.51c-1.27,1.25-2.95,2.87-4.77,4.61,1.81,1.68,3.48,3.26,4.75,4.48l1.51,1.48c.6.6.72.72.53.93A.24.24,0,0,1,268.47,92.7Z"/><path class="cls-10" d="M272.41,95.64c-.09,0,1.53-4.58,3.62-10.16s3.85-10.07,3.94-10S278.44,80,276.35,85.6,272.5,95.67,272.41,95.64Z"/><path class="cls-10" d="M272.45,95.9l-.12,0h0c-.29-.11-.4-.15,3.46-10.48,3.76-10,4-10.13,4.07-10.17a.27.27,0,0,1,.2,0c.28.11.39.15-3.47,10.48-1,2.7-2,5.23-2.72,7.12C272.82,95.48,272.65,95.9,272.45,95.9Z"/><rect class="cls-4" x="339.55" y="185.12" width="86.66" height="35.2"/><path class="cls-7" d="M426.21,220.32s0-.22,0-.63,0-1,0-1.83c0-1.6,0-4,0-7,0-6.08,0-14.87-.05-25.74l.09.09-86.65,0h0l.14-.14v35.2l-.14-.13,62.14.06,18,0h4.86l-4.8,0-18,0-62.23.06h-.13V185h.14l86.65,0h.1v.1c0,10.9,0,19.71-.05,25.8,0,3,0,5.38,0,7,0,.79,0,1.4,0,1.81S426.21,220.32,426.21,220.32Z"/><rect class="cls-11" x="346.92" y="193.18" width="20.93" height="20.93"/><path class="cls-11" d="M420.22,201.2c0,.07-10.77.13-24.06.13s-24.05-.06-24.05-.13,10.76-.14,24.05-.14S420.22,201.12,420.22,201.2Z"/><path class="cls-11" d="M420.22,205.46c0,.08-10.77.14-24.06.14s-24.05-.06-24.05-.14,10.76-.14,24.05-.14S420.22,205.38,420.22,205.46Z"/><path class="cls-11" d="M403.08,209.72l-.32,0-.9,0-3.32,0-11,0-10.95,0-3.32,0-.9,0a1.2,1.2,0,0,1-.31,0l.31,0,.9,0,3.32,0,10.95,0,11,0,3.32,0,.9,0Z"/><rect class="cls-3" x="310.74" y="114.09" width="91.43" height="60.33"/><path class="cls-7" d="M402.17,174.42s0-.38,0-1.11,0-1.79,0-3.18c0-2.8,0-6.9-.05-12.14,0-10.48-.06-25.53-.11-43.9l.21.21-91.42,0h0l.26-.26c0,21.47,0,41.89,0,60.33l-.24-.24,65.82.12,18.84.06,5,0,1.3,0h0l-1.27,0-5,0-18.78.06-66,.12h-.24v-.24c0-18.44,0-38.86,0-60.33v-.26h.27l91.42,0h.21v.21c-.05,18.42-.09,33.52-.11,44,0,5.22,0,9.3-.06,12.09,0,1.37,0,2.42,0,3.15S402.17,174.42,402.17,174.42Z"/><path class="cls-7" d="M402.59,120.24c0,.15-20.42.26-45.61.26s-45.6-.11-45.6-.26S331.79,120,357,120,402.59,120.1,402.59,120.24Z"/><rect class="cls-10" x="318.7" y="128.93" width="29.13" height="38.4"/><path class="cls-10" d="M394.21,130.72c0,.15-9.14.26-20.41.26s-20.43-.11-20.43-.26,9.15-.26,20.43-.26S394.21,130.58,394.21,130.72Z"/><path class="cls-10" d="M394.21,135.53c0,.14-9.14.26-20.41.26s-20.43-.12-20.43-.26,9.15-.26,20.43-.26S394.21,135.38,394.21,135.53Z"/><path class="cls-10" d="M394.21,140.33c0,.15-9.14.26-20.41.26s-20.43-.11-20.43-.26,9.15-.26,20.43-.26S394.21,140.19,394.21,140.33Z"/><path class="cls-10" d="M394.21,145.14c0,.14-9.14.26-20.41.26s-20.43-.12-20.43-.26,9.15-.26,20.43-.26S394.21,145,394.21,145.14Z"/><rect class="cls-10" x="376.53" y="149.12" width="16.42" height="18.21"/><path class="cls-10" d="M373.84,149.94a93.82,93.82,0,0,1-10,.26,93.78,93.78,0,0,1-10-.26,97.08,97.08,0,0,1,10-.26A97.12,97.12,0,0,1,373.84,149.94Z"/><path class="cls-10" d="M373.84,154.75a97.12,97.12,0,0,1-10,.26,97.08,97.08,0,0,1-10-.26,97.08,97.08,0,0,1,10-.26A97.12,97.12,0,0,1,373.84,154.75Z"/><path class="cls-10" d="M373.84,160.32a97.12,97.12,0,0,1-10,.26,97.08,97.08,0,0,1-10-.26,97.08,97.08,0,0,1,10-.26A97.12,97.12,0,0,1,373.84,160.32Z"/><path class="cls-10" d="M373.33,166a97.24,97.24,0,0,1-10,.26,97.24,97.24,0,0,1-10-.26,97.24,97.24,0,0,1,10-.26A97.24,97.24,0,0,1,373.33,166Z"/><path class="cls-10" d="M164.13,145.39a3.06,3.06,0,0,1,0-.39c0-.28,0-.64,0-1.1,0-1,0-2.39-.05-4.16,0-3.59-.06-8.66-.1-14.77l.19.19-25.49,0,.23-.23h0v10.68c0,3.42,0,6.68,0,9.72l-.21-.2,18.36.1,5.24.06,1.39,0,.5,0a2.42,2.42,0,0,1-.45,0l-1.36,0-5.18.06-18.5.1h-.2v-.21c0-3,0-6.3,0-9.72,0-1.71,0-3.47,0-5.25V125h0l.23-.23,25.49,0h.19V125c0,6.16-.07,11.28-.1,14.89,0,1.75,0,3.13-.05,4.11,0,.45,0,.8,0,1.07A2.06,2.06,0,0,1,164.13,145.39Z"/><path class="cls-10" d="M160.87,137.94a12.07,12.07,0,0,1-1.59-1.38c-1-.91-2.36-2.21-4-3.78h.3l-4.05,4.62-.16.19-.15.17-.17-.15-2.5-2.07h.29c-2.2,2-4.13,3.66-5.51,4.85l-1.63,1.38a2.78,2.78,0,0,1-.63.46,3,3,0,0,1,.52-.57l1.55-1.48c1.33-1.25,3.22-3,5.4-5l.15-.13.14.12,2.51,2.06-.32,0,.17-.18,4.08-4.59.14-.17.16.16c1.6,1.59,2.94,2.94,3.87,3.9A13.25,13.25,0,0,1,160.87,137.94Z"/><path class="cls-10" d="M147.51,130.93s-.14-.15-.4-.38a2.25,2.25,0,0,0-1.29-.57,2.08,2.08,0,0,0-1.83.76,2.05,2.05,0,0,0,1.92,3.33,2.12,2.12,0,0,0,1.58-1.2,2.28,2.28,0,0,0,.15-1.41,3.75,3.75,0,0,1-.13-.53s.17.13.3.48a2.24,2.24,0,0,1,0,1.58,2.4,2.4,0,0,1-1.8,1.5,2.48,2.48,0,0,1-2.59-1.19,2.45,2.45,0,0,1,.27-2.83,2.4,2.4,0,0,1,2.19-.82,2.31,2.31,0,0,1,1.38.77C147.48,130.71,147.54,130.92,147.51,130.93Z"/><path class="cls-10" d="M135.68,139.83s-.14-.15-.4-.38a2.28,2.28,0,0,0-1.29-.57,2.06,2.06,0,1,0,1.66,2.89,2.2,2.2,0,0,0,.16-1.4,3.67,3.67,0,0,1-.13-.54s.17.13.3.49a2.27,2.27,0,0,1,0,1.57,2.44,2.44,0,0,1-1.81,1.5,2.49,2.49,0,0,1-2.59-1.19,2.47,2.47,0,0,1,.27-2.83,2.39,2.39,0,0,1,2.2-.81,2.28,2.28,0,0,1,1.38.76C135.64,139.61,135.7,139.82,135.68,139.83Z"/><path class="cls-10" d="M151.39,146.29a3,3,0,0,1,0,.44c0,.33,0,.74,0,1.26,0,1.16,0,2.76.07,4.75v.14h-.14c-5.27.06-13.56.09-22.85.09h-1.41v-.23c0-7.25.05-13.82.06-18.78v-.17h.17l6.84.08,1.86,0a4.66,4.66,0,0,1,.65.05,3.26,3.26,0,0,1-.65,0l-1.86.05-6.84.07.17-.17c0,5,0,11.53.06,18.78l-.23-.23h1.18c9.29,0,17.58,0,22.85.09l-.15.14c0-2,0-3.59.07-4.75,0-.52,0-.93,0-1.26A1.38,1.38,0,0,1,151.39,146.29Z"/><path class="cls-10" d="M137.28,144.14a36.08,36.08,0,0,1-3.69,3.49,33.7,33.7,0,0,1-3.86,3.3,23.56,23.56,0,0,1,3.55-3.64A23.05,23.05,0,0,1,137.28,144.14Z"/><path class="cls-10" d="M142.42,149.26c-.07.1-.77-.34-1.43-1.09s-1-1.49-.91-1.56.62.53,1.25,1.25S142.51,149.16,142.42,149.26Z"/><path class="cls-7" d="M172.35,164s0-.33,0-.94,0-1.54,0-2.73c0-2.4,0-5.91,0-10.41,0-9-.06-22-.1-37.87l.18.18-87.08.06h0l.23-.24c0,18.4,0,36,0,52l-.21-.21,62.63.1,18,.06,4.8,0H172l-1.22,0L166,164,148,164.1l-62.77.1h-.22V164c0-16,0-33.55,0-51.95v-.23h.23l87.08.06h.18V112c0,15.94-.07,29-.09,38,0,4.48,0,8-.05,10.37,0,1.17,0,2.07,0,2.69S172.35,164,172.35,164Z"/><rect class="cls-10" x="92.32" y="124.21" width="26.53" height="1.94"/><path class="cls-10" d="M117.78,133.79c0,.13-5.79.23-12.93.23s-12.93-.1-12.93-.23,5.79-.23,12.93-.23S117.78,133.67,117.78,133.79Z"/><path class="cls-10" d="M117.78,138.09c0,.13-5.79.23-12.93.23s-12.93-.1-12.93-.23,5.79-.23,12.93-.23S117.78,138,117.78,138.09Z"/><path class="cls-10" d="M117.78,142.39c0,.13-5.79.23-12.93.23s-12.93-.1-12.93-.23,5.79-.23,12.93-.23S117.78,142.26,117.78,142.39Z"/><path class="cls-10" d="M117.78,146.69c0,.12-5.79.23-12.93.23s-12.93-.11-12.93-.23,5.79-.23,12.93-.23S117.78,146.56,117.78,146.69Z"/><path class="cls-10" d="M103.56,150.9a36.64,36.64,0,0,1-5.82.23,36.64,36.64,0,0,1-5.82-.23,36.64,36.64,0,0,1,5.82-.23A36.64,36.64,0,0,1,103.56,150.9Z"/><path class="cls-10" d="M359.27,245.67c0,.07-11.31.14-25.26.14s-25.27-.07-25.27-.14,11.31-.15,25.27-.15S359.27,245.59,359.27,245.67Z"/><path class="cls-10" d="M359.27,250.14c0,.08-11.31.15-25.26.15s-25.27-.07-25.27-.15S320.05,250,334,250,359.27,250.06,359.27,250.14Z"/><path class="cls-10" d="M341.27,254.62l-.33,0-.95,0-3.48,0-11.5.05-11.5-.05-3.49,0-.95,0-.33,0,.33,0,.95,0,3.49,0,11.5,0,11.5,0,3.48,0,.95,0Z"/><path class="cls-10" d="M364,266.29c0-.11.37-.21.81-.21s.82.1.82.21-.37.22-.82.22S364,266.41,364,266.29Z"/><path class="cls-10" d="M360.71,266.29c0-.11.36-.21.81-.21s.81.1.81.21-.36.22-.81.22S360.71,266.41,360.71,266.29Z"/><path class="cls-10" d="M357.46,266.29c0-.11.37-.21.81-.21s.82.1.82.21-.37.22-.82.22S357.46,266.41,357.46,266.29Z"/><path class="cls-10" d="M354.22,266.29c0-.11.36-.21.81-.21s.81.1.81.21-.36.22-.81.22S354.22,266.41,354.22,266.29Z"/><path class="cls-10" d="M351,266.29c0-.11.37-.21.81-.21s.81.1.81.21-.36.22-.81.22S351,266.41,351,266.29Z"/><path class="cls-10" d="M347.73,266.29c0-.11.36-.21.81-.21s.81.1.81.21-.36.22-.81.22S347.73,266.41,347.73,266.29Z"/><path class="cls-10" d="M344.48,266.29c0-.11.36-.21.81-.21s.81.1.81.21-.36.22-.81.22S344.48,266.41,344.48,266.29Z"/><path class="cls-10" d="M341.24,266.29c0-.11.36-.21.81-.21s.81.1.81.21-.36.22-.81.22S341.24,266.41,341.24,266.29Z"/><path class="cls-10" d="M338,266.29c0-.11.36-.21.81-.21s.81.1.81.21-.36.22-.81.22S338,266.41,338,266.29Z"/><path class="cls-10" d="M334.75,266.29c0-.11.36-.21.81-.21s.81.1.81.21-.36.22-.81.22S334.75,266.41,334.75,266.29Z"/><path class="cls-10" d="M331.5,266.29c0-.11.36-.21.81-.21s.81.1.81.21-.36.22-.81.22S331.5,266.41,331.5,266.29Z"/><path class="cls-10" d="M328.26,266.29c0-.11.36-.21.81-.21s.81.1.81.21-.36.22-.81.22S328.26,266.41,328.26,266.29Z"/><path class="cls-10" d="M325,266.29c0-.11.36-.21.81-.21s.81.1.81.21-.36.22-.81.22S325,266.41,325,266.29Z"/><path class="cls-10" d="M321.77,266.29c0-.11.36-.21.81-.21s.81.1.81.21-.37.22-.81.22S321.77,266.41,321.77,266.29Z"/><path class="cls-10" d="M318.52,266.29c0-.11.36-.21.81-.21s.81.1.81.21-.36.22-.81.22S318.52,266.41,318.52,266.29Z"/><path class="cls-10" d="M315.27,266.29c0-.11.37-.21.82-.21s.81.1.81.21-.37.22-.81.22S315.27,266.41,315.27,266.29Z"/><path class="cls-10" d="M312,266.29c0-.11.36-.21.81-.21s.81.1.81.21-.36.22-.81.22S312,266.41,312,266.29Z"/><path class="cls-10" d="M308.78,266.29c0-.11.37-.21.82-.21s.81.1.81.21-.37.22-.81.22S308.78,266.41,308.78,266.29Z"/><path class="cls-10" d="M305.54,266.29c0-.11.36-.21.81-.21s.81.1.81.21-.36.22-.81.22S305.54,266.41,305.54,266.29Z"/><path class="cls-10" d="M302.29,266.29c0-.11.37-.21.82-.21s.81.1.81.21-.37.22-.81.22S302.29,266.41,302.29,266.29Z"/><path class="cls-10" d="M299.05,266.29c0-.11.36-.21.81-.21s.81.1.81.21-.36.22-.81.22S299.05,266.41,299.05,266.29Z"/><path class="cls-10" d="M295.8,266.29c0-.11.37-.21.81-.21s.82.1.82.21-.37.22-.82.22S295.8,266.41,295.8,266.29Z"/><path class="cls-10" d="M292.56,266.29c0-.11.36-.21.81-.21s.81.1.81.21-.36.22-.81.22S292.56,266.41,292.56,266.29Z"/><path class="cls-10" d="M289.31,266.29c0-.11.37-.21.81-.21s.82.1.82.21-.37.22-.82.22S289.31,266.41,289.31,266.29Z"/><path class="cls-10" d="M286.07,266.29c0-.11.36-.21.81-.21s.81.1.81.21-.36.22-.81.22S286.07,266.41,286.07,266.29Z"/><path class="cls-10" d="M282.82,266.29c0-.11.37-.21.81-.21s.82.1.82.21-.37.22-.82.22S282.82,266.41,282.82,266.29Z"/><path class="cls-10" d="M279.58,266.29c0-.11.36-.21.81-.21s.81.1.81.21-.36.22-.81.22S279.58,266.41,279.58,266.29Z"/><path class="cls-10" d="M276.33,266.29c0-.11.37-.21.81-.21s.81.1.81.21-.36.22-.81.22S276.33,266.41,276.33,266.29Z"/><path class="cls-10" d="M274.57,264.82c.11,0,.21.36.21.81a2.18,2.18,0,0,1-.09.66l-.12-.12c.09,0,.14.08.14.12s0,.09-.14.12l-.07,0-.05-.15a1.87,1.87,0,0,1-.1-.66C274.35,265.18,274.45,264.82,274.57,264.82Z"/><ellipse class="cls-10" cx="274.57" cy="262.38" rx="0.21" ry="0.81"/><ellipse class="cls-10" cx="274.57" cy="259.14" rx="0.21" ry="0.81"/><ellipse class="cls-10" cx="274.57" cy="255.89" rx="0.21" ry="0.81"/><ellipse class="cls-10" cx="274.57" cy="252.65" rx="0.21" ry="0.81"/><ellipse class="cls-10" cx="274.57" cy="249.4" rx="0.21" ry="0.81"/><ellipse class="cls-10" cx="274.57" cy="246.16" rx="0.21" ry="0.81"/><path class="cls-10" d="M274.57,242.1c.11,0,.21.36.21.81s-.1.81-.21.81-.22-.36-.22-.81S274.45,242.1,274.57,242.1Z"/><ellipse class="cls-10" cx="274.57" cy="239.66" rx="0.21" ry="0.81"/><ellipse class="cls-10" cx="274.57" cy="236.42" rx="0.21" ry="0.81"/><ellipse class="cls-10" cx="274.57" cy="233.17" rx="0.21" ry="0.81"/><path class="cls-10" d="M275.27,229.82c0,.11-.31.2-.7.21l.2-.21v.11c0,.45-.1.81-.21.81s-.22-.36-.22-.81v-.32h.21C275,229.63,275.27,229.72,275.27,229.82Z"/><path class="cls-10" d="M278.52,229.82c0,.12-.37.22-.81.22s-.82-.1-.82-.22.37-.21.82-.21S278.52,229.71,278.52,229.82Z"/><path class="cls-10" d="M281.76,229.82c0,.12-.36.22-.81.22s-.81-.1-.81-.22.36-.21.81-.21S281.76,229.71,281.76,229.82Z"/><path class="cls-10" d="M285,229.82c0,.12-.37.22-.81.22s-.81-.1-.81-.22.36-.21.81-.21S285,229.71,285,229.82Z"/><path class="cls-10" d="M288.25,229.82c0,.12-.36.22-.81.22s-.81-.1-.81-.22.36-.21.81-.21S288.25,229.71,288.25,229.82Z"/><path class="cls-10" d="M291.5,229.82c0,.12-.36.22-.81.22s-.81-.1-.81-.22.36-.21.81-.21S291.5,229.71,291.5,229.82Z"/><path class="cls-10" d="M294.74,229.82c0,.12-.36.22-.81.22s-.81-.1-.81-.22.36-.21.81-.21S294.74,229.71,294.74,229.82Z"/><path class="cls-10" d="M298,229.82c0,.12-.36.22-.81.22s-.81-.1-.81-.22.36-.21.81-.21S298,229.71,298,229.82Z"/><path class="cls-10" d="M301.23,229.82c0,.12-.36.22-.81.22s-.81-.1-.81-.22.36-.21.81-.21S301.23,229.71,301.23,229.82Z"/><path class="cls-10" d="M304.48,229.82c0,.12-.36.22-.81.22s-.81-.1-.81-.22.36-.21.81-.21S304.48,229.71,304.48,229.82Z"/><path class="cls-10" d="M307.72,229.82c0,.12-.36.22-.81.22s-.81-.1-.81-.22.37-.21.81-.21S307.72,229.71,307.72,229.82Z"/><path class="cls-10" d="M311,229.82c0,.12-.36.22-.81.22s-.81-.1-.81-.22.36-.21.81-.21S311,229.71,311,229.82Z"/><path class="cls-10" d="M314.21,229.82c0,.12-.36.22-.81.22s-.81-.1-.81-.22.37-.21.81-.21S314.21,229.71,314.21,229.82Z"/><path class="cls-10" d="M317.46,229.82c0,.12-.36.22-.81.22s-.81-.1-.81-.22.36-.21.81-.21S317.46,229.71,317.46,229.82Z"/><path class="cls-10" d="M320.71,229.82c0,.12-.37.22-.82.22s-.81-.1-.81-.22.37-.21.81-.21S320.71,229.71,320.71,229.82Z"/><path class="cls-10" d="M324,229.82c0,.12-.36.22-.81.22s-.81-.1-.81-.22.36-.21.81-.21S324,229.71,324,229.82Z"/><path class="cls-10" d="M327.2,229.82c0,.12-.37.22-.82.22s-.81-.1-.81-.22.37-.21.81-.21S327.2,229.71,327.2,229.82Z"/><path class="cls-10" d="M330.44,229.82c0,.12-.36.22-.81.22s-.81-.1-.81-.22.36-.21.81-.21S330.44,229.71,330.44,229.82Z"/><path class="cls-10" d="M333.69,229.82c0,.12-.37.22-.82.22s-.81-.1-.81-.22.37-.21.81-.21S333.69,229.71,333.69,229.82Z"/><path class="cls-10" d="M336.93,229.82c0,.12-.36.22-.81.22s-.81-.1-.81-.22.36-.21.81-.21S336.93,229.71,336.93,229.82Z"/><path class="cls-10" d="M340.18,229.82c0,.12-.37.22-.81.22s-.82-.1-.82-.22.37-.21.82-.21S340.18,229.71,340.18,229.82Z"/><path class="cls-10" d="M343.42,229.82c0,.12-.36.22-.81.22s-.81-.1-.81-.22.36-.21.81-.21S343.42,229.71,343.42,229.82Z"/><path class="cls-10" d="M346.67,229.82c0,.12-.37.22-.81.22s-.82-.1-.82-.22.37-.21.82-.21S346.67,229.71,346.67,229.82Z"/><path class="cls-10" d="M349.91,229.82c0,.12-.36.22-.81.22s-.81-.1-.81-.22.36-.21.81-.21S349.91,229.71,349.91,229.82Z"/><path class="cls-10" d="M353.16,229.82c0,.12-.37.22-.81.22s-.82-.1-.82-.22.37-.21.82-.21S353.16,229.71,353.16,229.82Z"/><path class="cls-10" d="M356.4,229.82c0,.12-.36.22-.81.22s-.81-.1-.81-.22.36-.21.81-.21S356.4,229.71,356.4,229.82Z"/><path class="cls-10" d="M359.65,229.82c0,.12-.37.22-.81.22s-.81-.1-.81-.22.36-.21.81-.21S359.65,229.71,359.65,229.82Z"/><path class="cls-10" d="M362.89,229.82c0,.12-.36.22-.81.22s-.81-.1-.81-.22.36-.21.81-.21S362.89,229.71,362.89,229.82Z"/><path class="cls-10" d="M365.58,230.39c-.1,0-.18-.24-.21-.57l.21.21h-.25c-.45,0-.81-.1-.81-.22s.36-.21.81-.21h.25l.21,0v.18C365.75,230.15,365.67,230.39,365.58,230.39Z"/><path class="cls-10" d="M365.58,233.63c-.12,0-.22-.36-.22-.81s.1-.81.22-.81.21.36.21.81S365.69,233.63,365.58,233.63Z"/><path class="cls-10" d="M365.58,236.88c-.12,0-.22-.37-.22-.81s.1-.81.22-.81.21.36.21.81S365.69,236.88,365.58,236.88Z"/><path class="cls-10" d="M365.58,240.12c-.12,0-.22-.36-.22-.81s.1-.81.22-.81.21.36.21.81S365.69,240.12,365.58,240.12Z"/><path class="cls-10" d="M365.58,243.37c-.12,0-.22-.36-.22-.81s.1-.81.22-.81.21.36.21.81S365.69,243.37,365.58,243.37Z"/><path class="cls-10" d="M365.58,246.61c-.12,0-.22-.36-.22-.81s.1-.81.22-.81.21.36.21.81S365.69,246.61,365.58,246.61Z"/><path class="cls-10" d="M365.58,249.86c-.12,0-.22-.36-.22-.81s.1-.81.22-.81.21.36.21.81S365.69,249.86,365.58,249.86Z"/><path class="cls-10" d="M365.58,253.1c-.12,0-.22-.36-.22-.81s.1-.81.22-.81.21.36.21.81S365.69,253.1,365.58,253.1Z"/><path class="cls-10" d="M365.58,256.35c-.12,0-.22-.36-.22-.81s.1-.81.22-.81.21.36.21.81S365.69,256.35,365.58,256.35Z"/><path class="cls-10" d="M365.58,259.59c-.12,0-.22-.36-.22-.81s.1-.81.22-.81.21.37.21.81S365.69,259.59,365.58,259.59Z"/><path class="cls-10" d="M365.58,262.84c-.12,0-.22-.36-.22-.81s.1-.81.22-.81.21.36.21.81S365.69,262.84,365.58,262.84Z"/><path class="cls-10" d="M365.58,266.08c-.12,0-.22-.36-.22-.81s.1-.81.22-.81.21.37.21.81S365.69,266.08,365.58,266.08Z"/><path class="cls-10" d="M304.65,259.88c0-.12.36-.21.81-.21l-.21.21h0v-.29c0-.1,0-.19.05-.26s.09-.24.15-.24.11.09.15.24a1.59,1.59,0,0,1,0,.26l0,.15v.14h0l-.21.21C305,260.09,304.65,260,304.65,259.88Z"/><path class="cls-10" d="M301.62,259.88c0-.12.34-.21.76-.21s.75.09.75.21-.34.21-.75.21S301.62,260,301.62,259.88Z"/><path class="cls-10" d="M298.59,259.88c0-.12.34-.21.75-.21s.76.09.76.21-.34.21-.76.21S298.59,260,298.59,259.88Z"/><path class="cls-10" d="M295.56,259.88c0-.12.34-.21.75-.21s.76.09.76.21-.34.21-.76.21S295.56,260,295.56,259.88Z"/><path class="cls-10" d="M292.53,259.88c0-.12.34-.21.75-.21s.76.09.76.21-.34.21-.76.21S292.53,260,292.53,259.88Z"/><path class="cls-10" d="M289.5,259.88c0-.12.34-.21.75-.21s.76.09.76.21-.34.21-.76.21S289.5,260,289.5,259.88Z"/><path class="cls-10" d="M286.47,259.88c0-.12.34-.21.75-.21s.76.09.76.21-.34.21-.76.21S286.47,260,286.47,259.88Z"/><path class="cls-10" d="M283.44,259.88c0-.12.34-.21.75-.21s.76.09.76.21-.34.21-.76.21S283.44,260,283.44,259.88Z"/><path class="cls-10" d="M281.11,259.07c.12,0,.21.36.21.81l-.21-.21h.16l.16,0,.25,0c.15,0,.24.09.24.15s-.09.11-.24.15l-.25.05h-.32l-.21-.21C280.9,259.43,281,259.07,281.11,259.07Z"/><path class="cls-10" d="M281.11,255.8c.12,0,.21.37.21.82s-.09.82-.21.82-.21-.37-.21-.82S281,255.8,281.11,255.8Z"/><path class="cls-10" d="M281.11,252.54c.12,0,.21.36.21.81s-.09.82-.21.82-.21-.37-.21-.82S281,252.54,281.11,252.54Z"/><path class="cls-10" d="M281.11,249.27c.12,0,.21.37.21.82s-.09.81-.21.81-.21-.36-.21-.81S281,249.27,281.11,249.27Z"/><path class="cls-10" d="M281.11,246c.12,0,.21.37.21.82s-.09.82-.21.82-.21-.37-.21-.82S281,246,281.11,246Z"/><path class="cls-10" d="M281.11,242.74c.12,0,.21.36.21.81s-.09.82-.21.82-.21-.36-.21-.82S281,242.74,281.11,242.74Z"/><path class="cls-10" d="M281.11,239.47c.12,0,.21.37.21.82s-.09.82-.21.82-.21-.37-.21-.82S281,239.47,281.11,239.47Z"/><path class="cls-10" d="M281.92,237c0,.11-.36.21-.81.21l.21-.21h0v.14l0,.15a1.59,1.59,0,0,1,0,.26c0,.15-.09.24-.15.24s-.11-.09-.15-.24,0-.16,0-.26v-.29h0l.21-.21C281.56,236.82,281.92,236.91,281.92,237Z"/><path class="cls-10" d="M285,237c0,.11-.34.21-.76.21s-.75-.1-.75-.21.33-.21.75-.21S285,236.91,285,237Z"/><path class="cls-10" d="M288,237c0,.11-.34.21-.76.21s-.75-.1-.75-.21.34-.21.75-.21S288,236.91,288,237Z"/><path class="cls-10" d="M291,237c0,.11-.34.21-.76.21s-.75-.1-.75-.21.34-.21.75-.21S291,236.91,291,237Z"/><path class="cls-10" d="M294,237c0,.11-.34.21-.76.21s-.75-.1-.75-.21.34-.21.75-.21S294,236.91,294,237Z"/><path class="cls-10" d="M297.07,237c0,.11-.34.21-.76.21s-.75-.1-.75-.21.34-.21.75-.21S297.07,236.91,297.07,237Z"/><path class="cls-10" d="M300.1,237c0,.11-.34.21-.76.21s-.75-.1-.75-.21.34-.21.75-.21S300.1,236.91,300.1,237Z"/><path class="cls-10" d="M303.13,237c0,.11-.34.21-.75.21s-.76-.1-.76-.21.34-.21.76-.21S303.13,236.91,303.13,237Z"/><path class="cls-10" d="M305.46,237.84c-.12,0-.21-.36-.21-.81l.21.21h-.32l-.25,0c-.15,0-.24-.09-.24-.15s.09-.11.24-.15l.25,0h.32l.21.21C305.67,237.48,305.58,237.84,305.46,237.84Z"/><path class="cls-10" d="M305.46,241.11c-.12,0-.21-.37-.21-.82s.09-.82.21-.82.21.37.21.82S305.58,241.11,305.46,241.11Z"/><path class="cls-10" d="M305.46,244.37c-.12,0-.21-.36-.21-.82s.09-.81.21-.81.21.36.21.81S305.58,244.37,305.46,244.37Z"/><path class="cls-10" d="M305.46,247.64c-.12,0-.21-.37-.21-.82s.09-.82.21-.82.21.37.21.82S305.58,247.64,305.46,247.64Z"/><path class="cls-10" d="M305.46,250.9c-.12,0-.21-.36-.21-.81s.09-.82.21-.82.21.37.21.82S305.58,250.9,305.46,250.9Z"/><path class="cls-10" d="M305.46,254.17c-.12,0-.21-.37-.21-.82s.09-.81.21-.81.21.36.21.81S305.58,254.17,305.46,254.17Z"/><path class="cls-10" d="M305.46,257.44c-.12,0-.21-.37-.21-.82s.09-.82.21-.82.21.37.21.82S305.58,257.44,305.46,257.44Z"/><rect class="cls-10" x="280.53" y="259.3" width="1.16" height="1.16"/><rect class="cls-10" x="280.53" y="236.45" width="1.16" height="1.16"/><rect class="cls-10" x="304.88" y="236.45" width="1.16" height="1.16"/><rect class="cls-10" x="304.88" y="258.72" width="1.16" height="1.16"/><rect class="cls-10" x="292.12" y="259.3" width="1.16" height="1.16"/><rect class="cls-10" x="292.7" y="236.45" width="1.16" height="1.16"/><rect class="cls-10" x="280.53" y="248.45" width="1.16" height="1.16"/><rect class="cls-10" x="304.3" y="247.87" width="1.16" height="1.16"/><path class="cls-7" d="M254.74,213.68h56.38a2.25,2.25,0,0,0,1.65-.72l21.15-23.23a2.25,2.25,0,0,0,.58-1.5V145.82a2.23,2.23,0,0,0-2.23-2.23H278.32a2.23,2.23,0,0,0-2.23,2.23V186.4a2.22,2.22,0,0,1-.67,1.59l-22.24,21.88A2.22,2.22,0,0,0,254.74,213.68Z"/><rect class="cls-5" x="278.14" y="146.25" width="54.41" height="38.72"/><path class="cls-8" d="M333.78,187.67c0,.15-12.66.27-28.28.27s-28.29-.12-28.29-.27,12.66-.26,28.29-.26S333.78,187.53,333.78,187.67Z"/><path class="cls-7" d="M328.36,182.11a7.35,7.35,0,0,1,1.74-.1h.26l-.1.1a5.69,5.69,0,0,1,.1-1.48,6.27,6.27,0,0,1,.1,1.48v.1h-.36A7,7,0,0,1,328.36,182.11Z"/><path class="cls-7" d="M324.36,182.11a5,5,0,0,1,2,0,4.6,4.6,0,0,1-2,0Z"/><path class="cls-7" d="M320.36,182.11a5,5,0,0,1,2,0,4.6,4.6,0,0,1-2,0Z"/><path class="cls-7" d="M316.36,182.11a5,5,0,0,1,2,0,4.6,4.6,0,0,1-2,0Z"/><path class="cls-7" d="M312.36,182.11a5,5,0,0,1,2,0,4.6,4.6,0,0,1-2,0Z"/><path class="cls-7" d="M308.36,182.11a5,5,0,0,1,2,0,4.6,4.6,0,0,1-2,0Z"/><path class="cls-7" d="M304.36,182.11a5,5,0,0,1,2,0,4.6,4.6,0,0,1-2,0Z"/><path class="cls-7" d="M300.36,182.11a5,5,0,0,1,2,0,4.6,4.6,0,0,1-2,0Z"/><path class="cls-7" d="M296.36,182.11a5,5,0,0,1,2,0,4.6,4.6,0,0,1-2,0Z"/><path class="cls-7" d="M292.36,182.11a5,5,0,0,1,2,0,4.6,4.6,0,0,1-2,0Z"/><path class="cls-7" d="M288.36,182.11a5,5,0,0,1,2,0,4.6,4.6,0,0,1-2,0Z"/><path class="cls-7" d="M284.36,182.11a5,5,0,0,1,2,0,4.6,4.6,0,0,1-2,0Z"/><path class="cls-7" d="M280.36,182.11a5,5,0,0,1,2,0,4.6,4.6,0,0,1-2,0Z"/><path class="cls-7" d="M280.33,178.14a5,5,0,0,1,0,2,5.05,5.05,0,0,1,0-2Z"/><path class="cls-7" d="M280.33,174.14a5,5,0,0,1,0,2,5.05,5.05,0,0,1,0-2Z"/><path class="cls-7" d="M280.33,170.14a5,5,0,0,1,0,2,5.05,5.05,0,0,1,0-2Z"/><path class="cls-7" d="M280.33,166.14a5,5,0,0,1,0,2,5.05,5.05,0,0,1,0-2Z"/><path class="cls-7" d="M280.33,162.14a5,5,0,0,1,0,2,5.05,5.05,0,0,1,0-2Z"/><path class="cls-7" d="M280.33,158.14a5,5,0,0,1,0,2,5.05,5.05,0,0,1,0-2Z"/><path class="cls-7" d="M283.59,157.4a5,5,0,0,1-2,0,5.05,5.05,0,0,1,2,0Z"/><path class="cls-7" d="M287.59,157.4a5,5,0,0,1-2,0,5.05,5.05,0,0,1,2,0Z"/><path class="cls-7" d="M291.59,157.4a5,5,0,0,1-2,0,5.05,5.05,0,0,1,2,0Z"/><path class="cls-7" d="M295.59,157.4a5,5,0,0,1-2,0,5.05,5.05,0,0,1,2,0Z"/><path class="cls-7" d="M299.59,157.4a5,5,0,0,1-2,0,5.05,5.05,0,0,1,2,0Z"/><path class="cls-7" d="M303.59,157.4a5,5,0,0,1-2,0,5.05,5.05,0,0,1,2,0Z"/><path class="cls-7" d="M307.59,157.4a5,5,0,0,1-2,0,5.05,5.05,0,0,1,2,0Z"/><path class="cls-7" d="M311.59,157.4a5,5,0,0,1-2,0,5.05,5.05,0,0,1,2,0Z"/><path class="cls-7" d="M315.59,157.4a5,5,0,0,1-2,0,5.05,5.05,0,0,1,2,0Z"/><path class="cls-7" d="M319.59,157.4a5,5,0,0,1-2,0,5.05,5.05,0,0,1,2,0Z"/><path class="cls-7" d="M323.59,157.4a5,5,0,0,1-2,0,5.05,5.05,0,0,1,2,0Z"/><path class="cls-7" d="M327.59,157.4a5,5,0,0,1-2,0,5.05,5.05,0,0,1,2,0Z"/><path class="cls-7" d="M330.36,158.63a2.39,2.39,0,0,1-.11-1v-.23l.1.1a1.75,1.75,0,0,1-.77-.1,1.75,1.75,0,0,1,.77-.1h.1v.33A2.49,2.49,0,0,1,330.36,158.63Z"/><path class="cls-7" d="M330.36,162.63a4.6,4.6,0,0,1,0-2,5.05,5.05,0,0,1,0,2Z"/><path class="cls-7" d="M330.36,166.63a4.6,4.6,0,0,1,0-2,5.05,5.05,0,0,1,0,2Z"/><path class="cls-7" d="M330.36,170.63a4.6,4.6,0,0,1,0-2,5.05,5.05,0,0,1,0,2Z"/><path class="cls-7" d="M330.36,174.63a4.6,4.6,0,0,1,0-2,5.05,5.05,0,0,1,0,2Z"/><path class="cls-7" d="M330.36,178.63a4.6,4.6,0,0,1,0-2,5.05,5.05,0,0,1,0,2Z"/><rect class="cls-7" x="280.33" y="148.29" width="50.03" height="7.21"/><polygon class="cls-8" points="317.71 202.25 329.52 189.37 278.68 189.37 265.66 201.86 317.71 202.25"/><polygon class="cls-12" points="153.57 436.49 147.72 458.1 166.72 459.83 170.71 439.26 153.57 436.49"/><path class="cls-7" d="M167.27,458.07a13.16,13.16,0,0,1-2.78-.09c-1.71-.14-4.07-.4-6.66-.73l-6.65-.89a15.28,15.28,0,0,1-2.74-.48,13.81,13.81,0,0,1,2.79.1c1.71.15,4.07.41,6.66.74l6.64.89A16.18,16.18,0,0,1,167.27,458.07Z"/><g class="cls-13"><polyline class="cls-4" points="147.72 458.1 166.72 459.83 167.03 458.25 148.27 455.87 147.74 457.89"/></g><path class="cls-7" d="M157.16,457.14a80,80,0,0,1,1.81-8.28,81.1,81.1,0,0,1,2.24-8.18A80.5,80.5,0,0,1,159.4,449,81.34,81.34,0,0,1,157.16,457.14Z"/><path class="cls-7" d="M166.22,457.93a8.94,8.94,0,0,0,.05-4,7.9,7.9,0,0,0-2.08-3.76,7.81,7.81,0,0,0-4.73-2.18,8.14,8.14,0,0,0-5.09,1.16,8.82,8.82,0,0,0-3,3.14,11.28,11.28,0,0,0-1.2,3.86.94.94,0,0,1,0-.29,5.22,5.22,0,0,1,0-.82,8.82,8.82,0,0,1,.9-2.9,9,9,0,0,1,3-3.34,8.38,8.38,0,0,1,5.35-1.25,7.83,7.83,0,0,1,7.07,6.31,7.43,7.43,0,0,1,0,3,5.41,5.41,0,0,1-.23.79C166.28,457.85,166.24,457.94,166.22,457.93Z"/><path class="cls-12" d="M232,430.69l-1.27,19.2s19.11,6.34,19.22,9.91l-37.34.27.75-30Z"/><g class="cls-13"><path class="cls-4" d="M219.25,447.92a1.54,1.54,0,0,0-1.11,1.71,1.45,1.45,0,0,0,1.68,1.11,1.61,1.61,0,0,0,1.17-1.81,1.51,1.51,0,0,0-1.88-1"/></g><g class="cls-13"><path class="cls-4" d="M212.62,460.07l.08-3,36.06,1a2.56,2.56,0,0,1,1.39,2Z"/></g><path class="cls-7" d="M231.35,449.72c0,.18-.93.24-1.84.79s-1.41,1.31-1.58,1.24.14-1.12,1.26-1.78S231.39,449.55,231.35,449.72Z"/><path class="cls-7" d="M235.22,451.46c0,.17-.77.46-1.41,1.21s-.84,1.56-1,1.55-.26-1.05.55-2S235.22,451.28,235.22,451.46Z"/><path class="cls-7" d="M237.3,456.21c-.17,0-.4-.89.1-1.87s1.36-1.36,1.44-1.2-.47.67-.87,1.48S237.48,456.2,237.3,456.21Z"/><path class="cls-7" d="M231.15,445.31c-.08.16-.91-.11-1.94-.07s-1.84.34-1.93.18.7-.79,1.91-.82S231.25,445.17,231.15,445.31Z"/><g class="cls-14"><polygon points="231.75 434.49 231.53 437.91 213.19 437.19 213.26 434.1 231.75 434.49"/></g><path class="cls-7" d="M231.34,441.43a3.43,3.43,0,0,1-1.87-.06,8.91,8.91,0,0,1-1.94-.66,8.13,8.13,0,0,1-1.05-.61,2.14,2.14,0,0,1-.55-.45.8.8,0,0,1-.06-1,1,1,0,0,1,.81-.39,2.32,2.32,0,0,1,.7.12,6.52,6.52,0,0,1,1.15.43,6.78,6.78,0,0,1,1.69,1.19c.84.83,1.12,1.52,1.05,1.55s-.49-.53-1.35-1.22a7.72,7.72,0,0,0-1.63-1,7.89,7.89,0,0,0-1.07-.36c-.39-.11-.73-.13-.83.05s0,.09,0,.21a1.89,1.89,0,0,0,.41.33,10.06,10.06,0,0,0,1,.59,9.38,9.38,0,0,0,1.78.75A12.56,12.56,0,0,1,231.34,441.43Z"/><path class="cls-7" d="M231.09,441.69a3.08,3.08,0,0,1-.43-1.82,5.83,5.83,0,0,1,.31-2,6.94,6.94,0,0,1,.51-1.12,1.53,1.53,0,0,1,1.22-.91.88.88,0,0,1,.77.54,3,3,0,0,1,.17.69,4,4,0,0,1,0,1.26,4.27,4.27,0,0,1-.85,1.91c-.76.95-1.53,1.14-1.54,1.08s.59-.43,1.17-1.34a4.42,4.42,0,0,0,.65-1.74,3.92,3.92,0,0,0,0-1.08c0-.4-.18-.72-.33-.69s-.51.28-.67.6a5.41,5.41,0,0,0-.5,1,7.19,7.19,0,0,0-.42,1.86C231,441,231.19,441.66,231.09,441.69Z"/><polygon class="cls-7" points="232.01 263.86 175.12 263.44 147.62 444.01 171.24 447.01 201.5 298.53 210.56 447.54 210.58 447.98 236.12 447.54 232.01 263.86"/><path class="cls-8" d="M206.13,278.5a10.45,10.45,0,0,1,1.18-.08l3.42-.12L223,278h.23v.24c0,3.57,0,7.56,0,11.79v.12l-.08.07-2.14,2-6.32,5.79-.16.15-.17-.15-8.42-7.5-.07-.06v-.09c0-3.59.08-6.53.11-8.66,0-1,0-1.74.05-2.33a5.22,5.22,0,0,1,0-.78,6.16,6.16,0,0,1,.05.86c0,.6,0,1.39,0,2.38,0,2.09.06,5,.11,8.53l-.07-.15c2.45,2.14,5.33,4.66,8.48,7.43h-.34l6.3-5.8,2.15-2-.09.19c0-4.23,0-8.22,0-11.79l.24.23-12.16.11h-4.41Z"/><path class="cls-8" d="M179.36,277.72a7.59,7.59,0,0,1,1,0l3.06.25,11.06,1,.23,0,0,.23c-.41,3.49-.89,7.47-1.4,11.72v.1l-.08.07-2.45,1.95-6,4.82-.2.16-.16-.2c-2.44-3.09-4.69-5.92-6.61-8.36l-.06-.07v-.09c.48-3.54.87-6.46,1.16-8.56.14-1,.25-1.73.34-2.32a4,4,0,0,1,.14-.77s0,.31-.06.86-.14,1.4-.24,2.37c-.23,2.09-.55,5-.93,8.47l0-.15,6.68,8.31-.35,0,6-4.83,2.46-2-.1.17c.53-4.24,1-8.21,1.47-11.7l.2.25-10.9-1.21-3.1-.38C179.77,277.79,179.37,277.73,179.36,277.72Z"/><path class="cls-8" d="M214.17,305.12a15.68,15.68,0,0,1-2.58-1.25c-1.57-.82-3.73-1.95-6.14-3.15s-4.62-2.25-6.22-3a17.12,17.12,0,0,1-2.55-1.31,14.88,14.88,0,0,1,2.7,1c1.64.68,3.88,1.68,6.3,2.88s4.56,2.4,6.09,3.3A14.9,14.9,0,0,1,214.17,305.12Z"/><path class="cls-8" d="M213.43,309.51a5.93,5.93,0,0,1-1.94-.73,16.53,16.53,0,0,1-4.05-2.94,16.23,16.23,0,0,1-3-4,5.58,5.58,0,0,1-.76-1.93,22.33,22.33,0,0,0,9.75,9.61Z"/><path class="cls-8" d="M229.5,361.69a3.21,3.21,0,0,1-.26.94,12.68,12.68,0,0,1-1.19,2.39,14.42,14.42,0,0,1-15.33,6.47,12,12,0,0,1-2.54-.82,3.28,3.28,0,0,1-.86-.47,34.06,34.06,0,0,0,3.47.93,14.78,14.78,0,0,0,15-6.31C229,363,229.4,361.65,229.5,361.69Z"/><path class="cls-8" d="M225.76,360.15a7.29,7.29,0,0,1-2.18,1,21.26,21.26,0,0,1-5.66.93,29.75,29.75,0,0,1-5.72-.33,8.56,8.56,0,0,1-2.31-.54c0-.17,3.59.52,8,.35a27,27,0,0,0,5.58-.77A21.13,21.13,0,0,1,225.76,360.15Z"/><path class="cls-8" d="M183.45,361.22a8.64,8.64,0,0,1-2,1.8,23.06,23.06,0,0,1-12,4.45,9.09,9.09,0,0,1-2.67-.06c0-.08,1-.1,2.63-.3a27.07,27.07,0,0,0,11.8-4.39C182.62,361.81,183.4,361.16,183.45,361.22Z"/><path class="cls-8" d="M178.46,361a16.27,16.27,0,0,1-10.3-.82c.05-.15,2.29.52,5.13.73S178.44,360.85,178.46,361Z"/><path class="cls-8" d="M201.16,299.78a11.56,11.56,0,0,1-2.56,1.16,35.93,35.93,0,0,1-6.56,1.7,35.22,35.22,0,0,1-6.77.43,11.29,11.29,0,0,1-2.8-.3,22.33,22.33,0,0,1,2.8-.07,47.2,47.2,0,0,0,6.68-.57,48.65,48.65,0,0,0,6.53-1.54A21.44,21.44,0,0,1,201.16,299.78Z"/><path class="cls-8" d="M199.61,294c.14,0,.26.44.27,1s-.1,1-.25,1-.26-.44-.27-1S199.46,294,199.61,294Z"/><path class="cls-8" d="M199.61,290c.14,0,.26.45.26,1s-.13,1-.27,1-.26-.45-.26-1S199.47,290,199.61,290Z"/><path class="cls-8" d="M199.69,286c.15,0,.25.45.24,1s-.14,1-.29,1-.25-.45-.23-1S199.55,285.94,199.69,286Z"/><path class="cls-8" d="M199.85,282c.15,0,.24.46.22,1s-.16,1-.31,1-.24-.46-.21-1S199.71,281.94,199.85,282Z"/><path class="cls-8" d="M200.09,278c.14,0,.23.46.2,1s-.18,1-.33,1-.23-.46-.19-1S200,278,200.09,278Z"/><path class="cls-8" d="M200.4,274c.15,0,.23.47.18,1s-.2,1-.34,1-.22-.46-.18-1S200.26,274,200.4,274Z"/><path class="cls-8" d="M200.72,270.7c.14,0,.23.32.2.67s-.19.62-.33.61-.23-.31-.19-.66S200.58,270.69,200.72,270.7Z"/><path class="cls-8" d="M168.56,443.05c.14,0,.16.49.05,1s-.31,1-.45.93-.16-.49-.06-1S168.41,443,168.56,443.05Z"/><path class="cls-8" d="M169.34,439.13c.14,0,.17.49.06,1s-.31,1-.45.93-.17-.49-.06-1S169.2,439.1,169.34,439.13Z"/><path class="cls-8" d="M170.12,435.21c.15,0,.17.49.06,1s-.31,1-.45.93-.17-.49-.06-1S170,435.18,170.12,435.21Z"/><path class="cls-8" d="M170.91,431.28c.14,0,.17.49.06,1s-.31.95-.45.93-.17-.49-.06-1S170.77,431.26,170.91,431.28Z"/><path class="cls-8" d="M171.69,427.36c.15,0,.17.49.06,1s-.31,1-.45.93-.17-.49-.06-1S171.55,427.33,171.69,427.36Z"/><path class="cls-8" d="M172.48,423.44c.14,0,.17.49.06,1s-.31,1-.45.93-.17-.49-.06-1S172.34,423.41,172.48,423.44Z"/><path class="cls-8" d="M173.26,419.52c.14,0,.17.49.06,1s-.31,1-.45.93-.17-.49-.06-1S173.12,419.49,173.26,419.52Z"/><path class="cls-8" d="M174.05,415.59c.14,0,.17.5.06,1s-.31.95-.45.93-.17-.49-.06-1S173.91,415.57,174.05,415.59Z"/><path class="cls-8" d="M174.83,411.67c.14,0,.17.49.06,1s-.31,1-.45.93-.17-.49-.06-1S174.69,411.64,174.83,411.67Z"/><path class="cls-8" d="M175.62,407.75c.14,0,.16.49.06,1s-.31,1-.46.93-.16-.49-.05-1S175.48,407.72,175.62,407.75Z"/><path class="cls-8" d="M176.4,403.83c.14,0,.17.49.06,1s-.31,1-.45.93-.17-.49-.06-1S176.26,403.8,176.4,403.83Z"/><path class="cls-8" d="M177.19,399.91c.14,0,.16.49.06,1s-.31,1-.46.93-.16-.49-.06-1S177.05,399.88,177.19,399.91Z"/><path class="cls-8" d="M178,396c.14,0,.17.49.06,1s-.31,1-.45.93-.17-.49-.06-1S177.83,396,178,396Z"/><path class="cls-8" d="M178.76,392.06c.14,0,.16.49.05,1s-.31,1-.45.93-.16-.49-.06-1S178.61,392,178.76,392.06Z"/><path class="cls-8" d="M179.54,388.14c.14,0,.17.49.06,1s-.31,1-.45.93-.17-.49-.06-1S179.4,388.11,179.54,388.14Z"/><path class="cls-8" d="M180.32,384.22c.15,0,.17.49.06,1s-.31,1-.45.93-.16-.49-.06-1S180.18,384.19,180.32,384.22Z"/><path class="cls-8" d="M181.11,380.29c.14,0,.17.49.06,1s-.31.95-.45.93-.17-.49-.06-1S181,380.27,181.11,380.29Z"/><path class="cls-8" d="M181.89,376.37c.15,0,.17.49.06,1s-.31,1-.45.93-.17-.49-.06-1S181.75,376.34,181.89,376.37Z"/><path class="cls-8" d="M182.68,372.45c.14,0,.17.49.06,1s-.31,1-.45.93-.17-.49-.06-1S182.54,372.42,182.68,372.45Z"/><path class="cls-8" d="M183.46,368.53c.14,0,.17.49.06,1s-.31,1-.45.93-.17-.49-.06-1S183.32,368.5,183.46,368.53Z"/><path class="cls-8" d="M184.25,364.61c.14,0,.17.49.06,1s-.31.95-.45.93-.17-.49-.06-1S184.11,364.58,184.25,364.61Z"/><path class="cls-8" d="M185,360.68c.14,0,.17.49.06,1s-.31,1-.45.93-.17-.49-.06-1S184.89,360.65,185,360.68Z"/><path class="cls-8" d="M185.82,356.76c.14,0,.17.49.06,1s-.31,1-.45.93-.17-.49-.06-1S185.68,356.73,185.82,356.76Z"/><path class="cls-8" d="M186.6,352.84c.14,0,.17.49.06,1s-.31,1-.45.93-.17-.49-.06-1S186.46,352.81,186.6,352.84Z"/><path class="cls-8" d="M187.39,348.92c.14,0,.16.49.06,1s-.31,1-.46.93-.16-.49-.05-1S187.25,348.89,187.39,348.92Z"/><path class="cls-8" d="M188.17,345c.14,0,.17.49.06,1s-.31,1-.45.92-.17-.49-.06-1S188,345,188.17,345Z"/><path class="cls-8" d="M189,341.07c.14,0,.16.49.06,1s-.32,1-.46.93-.16-.49-.06-1S188.82,341,189,341.07Z"/><path class="cls-8" d="M189.74,337.15c.14,0,.17.49.06,1s-.31,1-.45.93-.17-.49-.06-1S189.6,337.12,189.74,337.15Z"/><path class="cls-8" d="M190.53,333.23c.14,0,.16.49.05,1s-.31,1-.45.93-.16-.49-.06-1S190.38,333.2,190.53,333.23Z"/><path class="cls-8" d="M191.31,329.3c.14,0,.17.49.06,1s-.31,1-.45.93-.17-.49-.06-1S191.17,329.28,191.31,329.3Z"/><path class="cls-8" d="M192.09,325.38c.15,0,.17.49.06,1s-.31,1-.45.93-.17-.49-.06-1S192,325.35,192.09,325.38Z"/><path class="cls-8" d="M192.88,321.46c.14,0,.17.49.06,1s-.31,1-.45.93-.17-.49-.06-1S192.74,321.43,192.88,321.46Z"/><path class="cls-8" d="M193.66,317.54c.14,0,.17.49.06,1s-.31,1-.45.93-.17-.49-.06-1S193.52,317.51,193.66,317.54Z"/><path class="cls-8" d="M194.45,313.62c.14,0,.17.49.06,1s-.31,1-.45.93-.17-.49-.06-1S194.31,313.59,194.45,313.62Z"/><path class="cls-8" d="M195.23,309.69c.14,0,.17.49.06,1s-.31,1-.45.93-.17-.49-.06-1S195.09,309.66,195.23,309.69Z"/><path class="cls-8" d="M196,305.77c.14,0,.17.49.06,1s-.31,1-.45.93-.17-.49-.06-1S195.88,305.74,196,305.77Z"/><path class="cls-8" d="M196.8,301.85c.14,0,.17.49.06,1s-.31,1-.45.93-.17-.49-.06-1S196.66,301.82,196.8,301.85Z"/><path class="cls-15" d="M275.23,180.89s6.66-10,6.84-10.07h0s6-10.12,8-10.12,1.28,2.05-.78,5.68a14.31,14.31,0,0,0-2,5.16l4.93,3s3.3-1.28,3.44,1.8a22.07,22.07,0,0,1-.57,4.17c-.2,1.09-.7,2.26-1.73,1.85a1.3,1.3,0,0,1-.88-1.24c-.07-1.82.27-2.48,0-2.48s-3.55,9.53-3.55,9.53Z"/><path class="cls-15" d="M288.67,173.05a10.55,10.55,0,0,1,1.59-.94,3.2,3.2,0,0,1,1.8-.28,1.62,1.62,0,0,1,1,.53,1.67,1.67,0,0,1,.19,1.52,5,5,0,0,1-.81,1.36"/><path class="cls-15" d="M286.42,171a9.11,9.11,0,0,1,1.5-.89,3.06,3.06,0,0,1,1.71-.26,1.48,1.48,0,0,1,.94.5,1.51,1.51,0,0,1,.18,1.43,12.88,12.88,0,0,1-1.53,2"/><path class="cls-15" d="M277.55,175.26l-9.62,20.57,10.61,10.84,5.52-15.34s3,.59,4.17-1.37c1.35-2.19,3.12-8.53,3.12-8.53Z"/><path class="cls-16" d="M284.43,174.69a5.67,5.67,0,0,1,2.78-4.31c.5-.27.83-.36.86-.3s-1.15.77-2.09,2.07S284.59,174.76,284.43,174.69Z"/><path class="cls-16" d="M295.1,174.77c-.05.07-.37-.11-.93-.2a3.22,3.22,0,0,0-2.1.32,5,5,0,0,0-1.57,1.55c-.34.48-.57.78-.63.74s0-.39.32-.94a4.24,4.24,0,0,1,1.62-1.81,3.1,3.1,0,0,1,2.45-.22C294.87,174.42,295.14,174.73,295.1,174.77Z"/><path class="cls-16" d="M291.52,171.87a13.46,13.46,0,0,0-2.26,1.33c-1.08,1-1.61,2.07-1.75,2a3.64,3.64,0,0,1,1.4-2.38,4.2,4.2,0,0,1,1.78-.93C291.19,171.77,291.51,171.81,291.52,171.87Z"/><path class="cls-16" d="M293.88,176.32c.14-.06.39.74-.12,1.54s-1.32.92-1.34.78.52-.43.9-1.06S293.73,176.34,293.88,176.32Z"/><path class="cls-15" d="M275.26,180.49s-.34-6.14,1.14-7.53,5.74,0,5.74,0"/><path class="cls-16" d="M282.74,170.09a16.66,16.66,0,0,1-2.2,3.49,16.64,16.64,0,0,1-2.62,3.2,16.14,16.14,0,0,1,2.2-3.5A16.4,16.4,0,0,1,282.74,170.09Z"/><path class="cls-15" d="M179.09,175.68c.15-.82.35-1.78.63-2.9a9,9,0,0,1,1.22-2.7,13.79,13.79,0,0,1,2.35-2.83,1.14,1.14,0,0,0-.5-2.1c-1,0-3.59,1.8-5.35,5s-2.79-2.45-3.2-4.5-2-8.35-2.73-8.73c-1.07-.54-1.85.51-1.39,2.55s1.41,8.26.31,8.43-3-10.33-3-10.33-.06-2.31-1.33-2.16c-2.29.27.61,11.27.92,12.31.21.72-1,.94-1.16.16s-1.72-10.51-4-10.26c-1.8.2,2.3,9.07,1.5,11.26s-2.42-7-4.13-6.79c-.64.09-1.1.25.6,5.42.83,2.51,4,14.25,4,14.25l-1.83,9.62,14.62,3.7Z"/><path class="cls-15" d="M197.57,123.54l-.14,47.91,20.55,1,.6-11.65s7.3,1.45,9.18-5.34c1.2-4.33.9-37.8.9-37.8Z"/><path class="cls-7" d="M231.37,121c-3.24.93-3.94,6.22-3.94,6.22l-5.08,11.22c-2.59-2-6.06-1.91-6.72,2.64-.47,3.28,3.61,3.94,3.61,3.94-2.38,4.05-4,7.32-7.45,11.17-3.75,4.17-5.85,4.59-9.91,4.66H197.4s-2.2-7.12-6.26-24.93c-4.51-19.75,18.85-17.21,23.18-22.25C221.38,105.47,241.57,118.09,231.37,121Z"/><path class="cls-7" d="M191.57,137.79c-3.79-2.54-4.13-9.66-1.92-13.92a13.73,13.73,0,0,1,11.66-7.26,5.56,5.56,0,0,0,1.91-.21,5.27,5.27,0,0,0,2-1.94c3.39-4.4,6.71-8.72,13-8.72a7.17,7.17,0,0,1,4,1,6.29,6.29,0,0,1,2.39,3.15,13.24,13.24,0,0,1,3.69-1.32,4.55,4.55,0,0,1,3.7.9,2.78,2.78,0,0,1,.58,3.54,4.49,4.49,0,0,1,4.47,3.73c.34,2.11-2.68,3.59-3,3.75,0,0,1.65,3.46-2.29,5.54-1.59.83-3.66-.17-3.89-.29"/><path class="cls-8" d="M206.58,142.4a7.26,7.26,0,0,1-.12,3.64,7.12,7.12,0,0,1-1.45,3.33c-.14-.06.52-1.53.94-3.45S206.42,142.4,206.58,142.4Z"/><path class="cls-8" d="M209.06,140.05a8.68,8.68,0,0,1-.19,3.5,8.84,8.84,0,0,1-1.08,3.34,17.34,17.34,0,0,1,.57-3.43A18.34,18.34,0,0,1,209.06,140.05Z"/><path class="cls-8" d="M216.18,132.14c0,.07-.53.49-1.27,1.36a13.35,13.35,0,0,0-2.22,3.82,32,32,0,0,0-1.22,4.31,7.22,7.22,0,0,1-.51,1.81,6.51,6.51,0,0,1,.14-1.88,21.82,21.82,0,0,1,1.11-4.42,11.07,11.07,0,0,1,2.43-3.89A3.86,3.86,0,0,1,216.18,132.14Z"/><path class="cls-8" d="M219.06,126.76c.06,0,.27.46.4,1.29a8.64,8.64,0,0,1-.18,3.28,8.51,8.51,0,0,1-1.39,3c-.5.68-.91,1-1,1a18.2,18.2,0,0,0,1.84-4.05A17.65,17.65,0,0,0,219.06,126.76Z"/><path class="cls-8" d="M194.53,138.72c-.07.13-.7-.09-1.41-.48s-1.22-.82-1.15-.94.7.09,1.41.48S194.6,138.6,194.53,138.72Z"/><path class="cls-8" d="M204.46,133.61a2.92,2.92,0,0,1-.59,2.08c-.63,1.06-1.49,1.6-1.57,1.49s.55-.79,1.13-1.76S204.31,133.58,204.46,133.61Z"/><path class="cls-8" d="M207.51,132a4.13,4.13,0,0,1-.91,2.49c-.83,1.25-1.86,1.92-1.94,1.81s.73-.92,1.5-2.1A22.19,22.19,0,0,1,207.51,132Z"/><path class="cls-8" d="M222.69,111.9s-.39-.29-1.13-.71a7.56,7.56,0,0,0-3.44-.89,9.17,9.17,0,0,0-5.05,1.36,12.45,12.45,0,0,0-4.31,4.79,21.61,21.61,0,0,0-1.74,4.49l-.09.3-.27-.14a10.18,10.18,0,0,0-4.59-1.17,10.77,10.77,0,0,0-3.73.56,16.42,16.42,0,0,0-3.05,1.52,3.47,3.47,0,0,1,.69-.61,9.87,9.87,0,0,1,2.25-1.21,10.69,10.69,0,0,1,3.85-.69,10.48,10.48,0,0,1,4.81,1.16l-.36.15a22,22,0,0,1,1.77-4.61,12.76,12.76,0,0,1,4.52-5,9.42,9.42,0,0,1,5.31-1.31,7.44,7.44,0,0,1,3.54,1.08,6.12,6.12,0,0,1,.79.63C222.62,111.8,222.7,111.89,222.69,111.9Z"/><path class="cls-8" d="M233.5,114.51s.57-.15,1.18.53a2.06,2.06,0,0,1,.47,1.51,2.34,2.34,0,0,1-1.19,1.7,3.42,3.42,0,0,1-2.5.35,7.43,7.43,0,0,1-2.58-1.25,24.31,24.31,0,0,0-2.52-1.73,10.38,10.38,0,0,0-3-1.07,12.78,12.78,0,0,0-6.2.43,16.74,16.74,0,0,0-4.58,2.33,46.91,46.91,0,0,0-3.66,3.09,5.59,5.59,0,0,1,.81-1,19.84,19.84,0,0,1,2.63-2.38,16.6,16.6,0,0,1,4.65-2.49,13,13,0,0,1,6.44-.48,10.9,10.9,0,0,1,3.19,1.13,22.8,22.8,0,0,1,2.55,1.79,6.8,6.8,0,0,0,2.4,1.21,3,3,0,0,0,2.21-.24,2,2,0,0,0,1.09-1.42,1.84,1.84,0,0,0-.34-1.34A1.87,1.87,0,0,0,233.5,114.51Z"/><path class="cls-10" d="M176.68,173.79,151.56,218.7a12.74,12.74,0,0,0,1.94,11.94l-.52-.75a10.72,10.72,0,0,0,8.34,4h.47a10.74,10.74,0,0,0,9.84-6.44l5.89-9Z"/><path class="cls-10" d="M231.08,170.58c-4.93-2.52-9.79-3.09-15.1-3.24-6.18-.18-14.9-1.05-21.56-.34,0,0-20.3-.62-20.39,15.11l2.68,60.4-4.34,25.89,60.83,1.83-.44-30.54c.75-15.89-.85-38.39-.85-38.39.93-8.54,5.61-12.38,6.27-17.94C238.77,178.45,235.49,172.83,231.08,170.58Z"/><path class="cls-7" d="M213.94,243.39a5.16,5.16,0,0,1-.9.85,19.89,19.89,0,0,1-2.77,1.9,22.17,22.17,0,0,1-21.37.37,19.12,19.12,0,0,1-2.84-1.8,5,5,0,0,1-.92-.81c.06-.09,1.41,1,3.93,2.29a22.94,22.94,0,0,0,21-.38C212.57,244.49,213.87,243.31,213.94,243.39Z"/><path class="cls-7" d="M174,182.11a3.69,3.69,0,0,1,.07.6c0,.44.06,1,.1,1.7.07,1.56.17,3.68.29,6.28.23,5.37.53,12.67.87,20.73s.7,15.36.94,20.73c.13,2.6.24,4.72.32,6.28,0,.69,0,1.26.07,1.7a2.52,2.52,0,0,1,0,.6,2.33,2.33,0,0,1-.09-.59c-.05-.44-.1-1-.17-1.7-.15-1.48-.3-3.62-.49-6.27-.36-5.3-.75-12.63-1.09-20.73s-.58-15.42-.71-20.73c-.06-2.61-.1-4.74-.13-6.29,0-.7,0-1.26,0-1.71A2.58,2.58,0,0,1,174,182.11Z"/><path class="cls-10" d="M161.27,187.33s-2.3,6.75-2.71,7.67c0,0-5.68,16.42-7.53,27.51l18.16-32.8C169.35,189.73,161.52,187.4,161.27,187.33Z"/><path class="cls-7" d="M170.22,185.35a2.82,2.82,0,0,1-.21.47l-.69,1.32c-.61,1.13-1.53,2.76-2.7,4.74-2.31,4-5.78,9.34-9.29,15.42-1.75,3-3.24,6-4.53,8.78a16.22,16.22,0,0,0-1.77,7.71,12.42,12.42,0,0,0,1.41,5.16c.6,1.13,1.1,1.65,1.06,1.69a2.47,2.47,0,0,1-.37-.37,8.76,8.76,0,0,1-.86-1.22,11.83,11.83,0,0,1-1.6-5.23,16.12,16.12,0,0,1,1.69-7.93c1.28-2.78,2.75-5.8,4.52-8.85,3.52-6.1,7-11.41,9.43-15.35l2.83-4.65.78-1.27Q170.19,185.33,170.22,185.35Z"/><path class="cls-10" d="M282.11,202.12,268,192.91l-8.89,15.39s-12.31-17.12-17.91-27.15c-5.15-9.23-11.81-11.72-15-12.39a1.43,1.43,0,0,0-1.7,1.56l4.85,33.29c.62,1.73,10.78,16.46,16.45,23.87,9.48,12.37,23.44,4.46,27.28-4.2C276.13,216.41,280.87,206,282.11,202.12Z"/><path class="cls-10" d="M263.2,222.19a10.27,10.27,0,0,1-.27-2.19,43.53,43.53,0,0,0-.68-5.25,17.21,17.21,0,0,0-1.8-4.91c-.66-1.17-1.22-1.81-1.16-1.86a5.29,5.29,0,0,1,1.48,1.67,14.71,14.71,0,0,1,2,5,29.07,29.07,0,0,1,.54,5.34A9.08,9.08,0,0,1,263.2,222.19Z"/><path class="cls-10" d="M267.32,215.31c-.08,0-.15-.71-.5-1.8a10,10,0,0,0-2.25-3.77,5.9,5.9,0,0,0-3.74-2.05A5.35,5.35,0,0,0,259,208c-.05,0,.54-.64,1.79-.68a5.79,5.79,0,0,1,4.11,2.06,8.88,8.88,0,0,1,2.23,4A3.9,3.9,0,0,1,267.32,215.31Z"/><path class="cls-10" d="M225.3,172.88a2.93,2.93,0,0,1-.34.39l-.43.44c-.17.2-.35.41-.54.65a13.77,13.77,0,0,0-2.44,4.73A18.41,18.41,0,0,0,221,187a17.11,17.11,0,0,0,1.21,4.5A46.58,46.58,0,0,0,224.5,196c3.45,6.05,7,11.29,9.56,15.07l3.09,4.44a16.66,16.66,0,0,1,1.12,1.64,2,2,0,0,1-.35-.37c-.22-.26-.54-.64-.93-1.15-.79-1-1.9-2.49-3.23-4.35a177.31,177.31,0,0,1-9.71-15,46.56,46.56,0,0,1-2.29-4.58,17.52,17.52,0,0,1-1.22-4.64,18.55,18.55,0,0,1,.66-8,13.13,13.13,0,0,1,2.63-4.75l.59-.63.47-.41C225.15,173,225.29,172.86,225.3,172.88Z"/><g class="cls-14"><path d="M209.59,246.1c4.49-2,8-6.74,8.16-11.49a4.73,4.73,0,0,0-1.1-3.56c-1.33-1.31-3.57-1.07-5.22-.2-2.72,1.43-4.5,4.11-6.41,6.52s-4.33,4.77-7.39,5.06a19.38,19.38,0,0,1-3.94-.3,6.69,6.69,0,0,0-3.86.47,2.92,2.92,0,0,0-1.59,3.27s5.37,3.34,11,2.94A31.54,31.54,0,0,0,209.59,246.1Z"/></g><path class="cls-7" d="M225.33,261.32s-.14.08-.43.19l-1.26.44c-.55.19-1.23.4-2,.62s-1.69.49-2.71.71a69.28,69.28,0,0,1-7.19,1.32,70.85,70.85,0,0,1-17.86,0,67.51,67.51,0,0,1-7.19-1.28c-1-.21-1.92-.48-2.72-.7s-1.48-.42-2-.6l-1.26-.44c-.29-.1-.44-.16-.43-.18a1.47,1.47,0,0,1,.46.08l1.29.34c.56.16,1.24.34,2,.52s1.71.43,2.73.62c2,.44,4.45.84,7.17,1.16a86.56,86.56,0,0,0,8.87.5,83.28,83.28,0,0,0,8.88-.55c2.71-.34,5.14-.75,7.16-1.2,1-.2,1.92-.44,2.72-.63s1.48-.38,2-.54l1.29-.34A2.65,2.65,0,0,1,225.33,261.32Z"/><path class="cls-7" d="M469.17,460.07c0,.15-97.66.26-218.11.26s-218.13-.11-218.13-.26,97.64-.26,218.13-.26S469.17,459.93,469.17,460.07Z"/></g></svg>