<svg id="Layer_1" data-name="Layer 1" xmlns="http://www.w3.org/2000/svg" viewBox="0 0 543.41 193.35"><defs><style>.cls-1,.cls-2{fill:#1e1e1e;}.cls-1{fill-rule:evenodd;}</style></defs><title>GGS logo</title><polygon class="cls-1" points="0.02 48.43 0 68.56 60.42 33.72 121.2 68.59 121.2 48.05 60.43 13.12 0.02 48.43"/><polygon class="cls-1" points="84.03 0 66.62 10.03 127.09 45.05 127.19 115.19 144.62 105.01 144.59 35.04 84.03 0"/><polygon class="cls-1" points="89.75 143.4 107.14 153.44 167.76 118.24 167.77 48.47 150.36 38.41 150.33 108.17 89.75 143.4"/><polygon class="cls-1" points="46.61 145.44 106.92 179.98 167.85 145.08 167.8 124.99 107.36 160.06 46.61 125.32 46.61 145.44"/><polygon class="cls-1" points="23.2 88.23 23.23 158.36 83.56 193.35 101 183.33 40.67 148.32 40.59 78.22 23.2 88.23"/><polygon class="cls-1" points="0.01 74.86 0.04 144.84 17.43 154.89 17.43 85 78.07 49.77 60.53 39.77 0.01 74.86"/><path class="cls-1" d="M225.89,156.8c-8.45,0-14.26-5.93-14.26-14v-.08a13.92,13.92,0,0,1,14.23-14c4.88,0,7.82,1.31,10.65,3.71L232.75,137a10,10,0,0,0-7.09-2.75c-4.34,0-7.79,3.83-7.79,8.44v.08c0,5,3.41,8.61,8.22,8.61a9.6,9.6,0,0,0,5.62-1.63v-3.88h-6v-5.15h11.78V152.5A17.64,17.64,0,0,1,225.89,156.8Z" transform="translate(-17.67 -10.52)"/><polygon class="cls-1" points="225.55 145.81 225.55 118.69 231.52 118.69 231.52 140.38 245.05 140.38 245.05 145.81 225.55 145.81"/><path class="cls-1" d="M287.05,142.77a8.24,8.24,0,0,0-8.21-8.52,8.11,8.11,0,0,0-8.14,8.45v.07a8.25,8.25,0,0,0,8.22,8.53,8.11,8.11,0,0,0,8.13-8.45v-.08Zm-8.21,14c-8.37,0-14.38-6.24-14.38-14v-.08c0-7.71,6.08-14,14.46-14s14.37,6.23,14.37,13.95v.07C293.29,150.49,287.21,156.8,278.84,156.8Z" transform="translate(-17.67 -10.52)"/><path class="cls-1" d="M315.73,148.08c0-1.81-1.35-2.94-4.42-2.94h-6.89v6h7.09c2.64,0,4.22-.93,4.22-3v-.08Zm-1.51-10.85c0-1.79-1.39-2.79-3.91-2.79h-5.89v5.74h5.5c2.64,0,4.3-.86,4.3-2.87v-.08Zm-2.71,19.1H298.62V129.21H311.2c5.55,0,8.95,2.75,8.95,7v.08a6.31,6.31,0,0,1-3.56,5.86c3.14,1.2,5.07,3,5.07,6.66v.07C321.66,153.86,317.63,156.33,311.51,156.33Z" transform="translate(-17.67 -10.52)"/><path class="cls-1" d="M338.57,136.18,335,145h7.21l-3.6-8.8Zm8.21,20.15-2.48-6.08H332.83l-2.48,6.08h-6.08L335.9,129h5.49L353,156.33Z" transform="translate(-17.67 -10.52)"/><polygon class="cls-1" points="339.55 145.81 339.55 118.69 345.51 118.69 345.51 140.38 359.03 140.38 359.03 145.81 339.55 145.81"/><path class="cls-1" d="M402.49,156.72A17.26,17.26,0,0,1,391,152.38l3.53-4.22a12.39,12.39,0,0,0,8.1,3.29c2.44,0,3.92-1,3.92-2.56v-.07c0-1.51-.93-2.29-5.47-3.45-5.46-1.39-9-2.91-9-8.29V137c0-4.92,3.95-8.18,9.49-8.18a15.73,15.73,0,0,1,10.08,3.45l-3.1,4.5a12.74,12.74,0,0,0-7.06-2.68c-2.29,0-3.49,1.06-3.49,2.37v.07c0,1.79,1.16,2.37,5.86,3.57,5.5,1.43,8.61,3.41,8.61,8.13v.08C412.45,153.7,408.33,156.72,402.49,156.72Z" transform="translate(-17.67 -10.52)"/><path class="cls-1" d="M430.35,156.8a13.69,13.69,0,0,1-13.91-14v-.08a13.78,13.78,0,0,1,14.14-14c5.12,0,8.18,1.7,10.7,4.17l-3.8,4.39a10,10,0,0,0-6.94-3.06c-4.57,0-7.86,3.8-7.86,8.44v.08c0,4.65,3.21,8.53,7.86,8.53,3.1,0,5-1.24,7.13-3.18l3.8,3.84A13.89,13.89,0,0,1,430.35,156.8Z" transform="translate(-17.67 -10.52)"/><polygon class="cls-1" points="445.55 145.81 445.55 134.93 434.54 134.93 434.54 145.81 428.57 145.81 428.57 118.69 434.54 118.69 434.54 129.42 445.55 129.42 445.55 118.69 451.51 118.69 451.51 145.81 445.55 145.81"/><path class="cls-1" d="M497.09,142.77a8.24,8.24,0,0,0-8.22-8.52,8.11,8.11,0,0,0-8.13,8.45v.07A8.24,8.24,0,0,0,489,151.3a8.12,8.12,0,0,0,8.14-8.45v-.08Zm-8.22,14c-8.36,0-14.37-6.24-14.37-14v-.08c0-7.71,6.08-14,14.45-14s14.38,6.23,14.38,13.95v.07C503.33,150.49,497.25,156.8,488.87,156.8Z" transform="translate(-17.67 -10.52)"/><path class="cls-1" d="M530,142.77a8.24,8.24,0,0,0-8.22-8.52,8.11,8.11,0,0,0-8.13,8.45v.07a8.24,8.24,0,0,0,8.21,8.53,8.11,8.11,0,0,0,8.14-8.45v-.08Zm-8.22,14c-8.37,0-14.37-6.24-14.37-14v-.08c0-7.71,6.08-14,14.45-14s14.37,6.23,14.37,13.95v.07C536.27,150.49,530.19,156.8,521.82,156.8Z" transform="translate(-17.67 -10.52)"/><polygon class="cls-1" points="523.92 145.81 523.92 118.69 529.89 118.69 529.89 140.38 543.41 140.38 543.41 145.81 523.92 145.81"/><path class="cls-1" d="M238.7,115.69c-17.13,0-28.91-12-28.91-28.28v-.16c0-15.63,12.18-28.44,28.83-28.44,9.9,0,15.87,2.68,21.6,7.55l-7.61,9.19c-4.25-3.54-8-5.59-14.39-5.59-8.8,0-15.78,7.78-15.78,17.14v.15c0,10.06,6.9,17.45,16.65,17.45a19.31,19.31,0,0,0,11.38-3.3V93.54H238.3V83.09h23.89V107A35.72,35.72,0,0,1,238.7,115.69Z" transform="translate(-17.67 -10.52)"/><polygon class="cls-1" points="256.14 104.23 256.14 49.23 297.62 49.23 297.62 60 268.16 60 268.16 71.15 294.08 71.15 294.08 81.92 268.16 81.92 268.16 93.46 298.01 93.46 298.01 104.23 256.14 104.23"/><polygon class="cls-1" points="347.34 104.23 320.71 69.27 320.71 104.23 308.78 104.23 308.78 49.23 319.93 49.23 345.7 83.09 345.7 49.23 357.63 49.23 357.63 104.23 347.34 104.23"/><polygon class="cls-1" points="370.83 104.23 370.83 49.23 412.31 49.23 412.31 60 382.85 60 382.85 71.15 408.77 71.15 408.77 81.92 382.85 81.92 382.85 93.46 412.7 93.46 412.7 104.23 370.83 104.23"/><path class="cls-1" d="M462.14,115.53a35,35,0,0,1-23.33-8.79L446,98.17c5,4.08,10.13,6.67,16.42,6.67,4.95,0,7.93-2,7.93-5.18v-.15c0-3.07-1.89-4.63-11.08-7C448.16,89.69,441,86.62,441,75.7v-.15c0-10,8-16.58,19.25-16.58a31.82,31.82,0,0,1,20.42,7l-6.28,9.1c-4.87-3.37-9.66-5.41-14.3-5.41S453,71.78,453,74.45v.16c0,3.61,2.34,4.79,11.84,7.23,11.17,2.9,17.45,6.91,17.45,16.49v.16C482.33,109.41,474,115.53,462.14,115.53Z" transform="translate(-17.67 -10.52)"/><rect class="cls-2" x="475.73" y="49.23" width="12.1" height="54.99"/><path class="cls-1" d="M538.81,115.53a35,35,0,0,1-23.33-8.79l7.15-8.57c5,4.08,10.13,6.67,16.41,6.67,5,0,8-2,8-5.18v-.15c0-3.07-1.89-4.63-11.08-7-11.08-2.83-18.23-5.9-18.23-16.82v-.15c0-10,8-16.58,19.25-16.58a31.82,31.82,0,0,1,20.42,7l-6.28,9.1c-4.87-3.37-9.66-5.41-14.31-5.41s-7.06,2.12-7.06,4.79v.16c0,3.61,2.36,4.79,11.86,7.23C552.72,84.74,559,88.75,559,98.33v.16C559,109.41,550.67,115.53,538.81,115.53Z" transform="translate(-17.67 -10.52)"/></svg>