<svg id="Layer_1" data-name="Layer 1" xmlns="http://www.w3.org/2000/svg" viewBox="0 0 168 168"><defs><style>.cls-1,.cls-4{fill:#2d4356;}.cls-2,.cls-5{fill:#7784ff;}.cls-3,.cls-6{fill:none;stroke:#2d4356;}.cls-3,.cls-4,.cls-5{stroke-miterlimit:10;}.cls-3{stroke-width:2px;}.cls-4,.cls-5{stroke:#fff;}.cls-6{stroke-linecap:round;stroke-linejoin:round;stroke-width:0.5px;}</style></defs><title>Icon</title><g id="Photoshop"><g id="Photoshop-2" data-name="Photoshop"><circle class="cls-1" cx="2.81" cy="146.4" r="2"/><path class="cls-1" d="M11.81,144.4h-3a2,2,0,0,0,0,4h3a2,2,0,1,0,0-4Zm149,0h-3a2,2,0,0,0,0,4h3a2,2,0,0,0,0-4Z"/><circle class="cls-1" cx="166.81" cy="146.4" r="2"/><path class="cls-1" d="M136.81,50.4h-104a4,4,0,0,0-4,4v70h4V70.1h104v54.2h4v-70A4,4,0,0,0,136.81,50.4Zm0,15.7h-104V54.4h104Z"/><path class="cls-1" d="M151.51,144.4h-49.7v-4h39a8,8,0,0,0,8-8v-82a8,8,0,0,0-8-8h-112a8,8,0,0,0-8,8v82a8,8,0,0,0,8,8h39v4H18.11a2,2,0,0,0-.6,4h133.9a2.1,2.1,0,0,0,2.3-1.7,2,2,0,0,0-1.7-2.3Zm-126.7-94a4,4,0,0,1,4-4h112a4,4,0,0,1,4,4v78h-120Zm4,86a4,4,0,0,1-4-4h120a4,4,0,0,1-4,4Zm43,8v-4h26v4Zm-2.7-135a3,3,0,0,0,3-3,3,3,0,0,0-6,0A3,3,0,0,0,69.11,9.4Zm0-4.5a1.54,1.54,0,0,1,1.5,1.5,1.5,1.5,0,1,1-3,0A1.54,1.54,0,0,1,69.11,4.9Zm90,65.5a2,2,0,1,0,2,2A2,2,0,0,0,159.11,70.4Zm0,3a1,1,0,1,1,1-1A.94.94,0,0,1,159.11,73.4Zm-152-61a2,2,0,1,0,2,2A2,2,0,0,0,7.11,12.4Zm0,3a1,1,0,0,1,0-2,1,1,0,0,1,0,2Zm141-11a2,2,0,1,0,2,2A2,2,0,0,0,148.11,4.4Zm0,3a.94.94,0,0,1-1-1,1,1,0,0,1,2,0A.94.94,0,0,1,148.11,7.4Zm-117,18a2,2,0,1,0-2,2A2,2,0,0,0,31.11,25.4Zm-3,0a1,1,0,1,1,1,1A1,1,0,0,1,28.11,25.4Z"/><polygon class="cls-2" points="11.71 70.4 13.21 68.5 12.21 67.9 11.31 70.1 11.21 70.1 10.31 67.9 9.31 68.5 10.81 70.4 10.81 70.4 8.51 70.1 8.51 71.2 10.81 70.9 10.81 70.9 9.31 72.8 10.21 73.4 11.21 71.2 11.31 71.2 12.21 73.4 13.21 72.8 11.71 70.9 11.71 70.9 14.01 71.2 14.01 70.1 11.71 70.4"/><polygon class="cls-2" points="52.91 35.5 52.01 36.6 52.51 36.9 53.11 35.6 53.11 35.6 53.71 36.9 54.31 36.6 53.41 35.5 53.41 35.5 54.71 35.6 54.71 35 53.41 35.2 53.41 35.2 54.21 34 53.71 33.7 53.21 35 53.11 35 52.61 33.7 52.01 34.1 52.91 35.2 52.91 35.2 51.51 35 51.51 35.6 52.91 35.4 52.91 35.5"/><polygon class="cls-2" points="167.11 43.1 167.11 42.1 164.81 42.4 164.81 42.3 166.21 40.4 165.31 39.9 164.41 42.1 164.41 42.1 163.41 39.9 162.51 40.5 163.91 42.3 163.91 42.4 161.71 42.1 161.71 43.1 163.91 42.8 163.91 42.9 162.51 44.7 163.31 45.3 164.31 43.1 164.41 43.1 165.31 45.3 166.31 44.7 164.81 42.9 164.81 42.8 167.11 43.1"/><polygon class="cls-2" points="117.51 21 118.81 19.3 118.01 18.9 117.21 20.7 117.21 20.7 116.41 18.9 115.51 19.4 116.81 21 116.81 21 114.81 20.7 114.81 21.6 116.81 21.4 116.81 21.4 115.51 23 116.31 23.5 117.21 21.6 117.21 21.6 118.01 23.5 118.81 23 117.51 21.4 117.51 21.4 119.51 21.6 119.51 20.7 117.51 21"/></g><circle class="cls-3" cx="130.68" cy="60.25" r="3.06"/><circle class="cls-3" cx="121.6" cy="60.25" r="3.06"/><circle class="cls-3" cx="112.51" cy="60.25" r="3.06"/><path class="cls-1" d="M131.36,59.56a.33.33,0,0,0-.45,0l-.23.23-.23-.23a.34.34,0,0,0-.46,0,.32.32,0,0,0,0,.46l.23.23-.23.23a.32.32,0,0,0,0,.46.33.33,0,0,0,.23.09.35.35,0,0,0,.23-.09l.23-.23.23.23a.32.32,0,0,0,.23.09.31.31,0,0,0,.22-.09.32.32,0,0,0,0-.46l-.22-.23.22-.23A.32.32,0,0,0,131.36,59.56Z"/><path class="cls-1" d="M121.6,61a.7.7,0,1,0-.7-.7A.69.69,0,0,0,121.6,61Z"/><path class="cls-4" d="M94.39,78.1H71.63a1.42,1.42,0,0,0-1.42,1.42V103.7a1.42,1.42,0,0,0,1.42,1.43H94.39a1.43,1.43,0,0,0,1.42-1.43V79.52A1.43,1.43,0,0,0,94.39,78.1ZM93,81v5l-6.59,7.57L79.72,91a1.46,1.46,0,0,0-1.48.3l-5.19,4.86V81Zm0,9.31V98H75.23l4.31-4L86.3,96.5a1.43,1.43,0,0,0,1.58-.4Zm-19.92,12v-1.42H93v1.42Z"/><path class="cls-2" d="M99,113.93l6.3,3,1.43,1.43a2,2,0,0,0,.37,2.28l2.41,2.41a.68.68,0,1,0,1-.95L108,119.71a.65.65,0,0,1,0-.91l0,0,6.68-6.68,0,0a.65.65,0,0,1,.91,0l2.41,2.41a.68.68,0,0,0,1,0,.69.69,0,0,0,0-1l-2.41-2.41a2,2,0,0,0-2.28-.37l-1.43-1.43-3-6.3a.68.68,0,0,0-.5-.38l-4.19-.68a22.88,22.88,0,0,1-9-3.55L93.57,96.7a.67.67,0,0,0-.85.08h0a.68.68,0,0,0-.09.85l1.78,2.68a22.82,22.82,0,0,1,3.51,9l.66,4.09a.68.68,0,0,0,.38.5Zm8.6,3.42-1-1,5.72-5.72,1,1Zm-8.31-8.23a23.78,23.78,0,0,0-2.35-7.2l4,4a.66.66,0,0,0,1,0,.68.68,0,0,0,0-1l-4-4a24.45,24.45,0,0,0,7.1,2.32l3.85.63,2.71,5.66-6,6-5.66-2.71Z"/><path class="cls-2" d="M107.09,111.15a2.7,2.7,0,1,0-3.82,0A2.71,2.71,0,0,0,107.09,111.15Zm-2.86-2.86a1.34,1.34,0,1,1,0,1.9A1.33,1.33,0,0,1,104.23,108.29Z"/><path class="cls-5" d="M53.8,90.41H40.27a.85.85,0,0,0-.84.85v14.37a.85.85,0,0,0,.84.84H53.8a.84.84,0,0,0,.84-.84V91.26A.84.84,0,0,0,53.8,90.41ZM53,92.1v3L49,99.56l-4-1.49a.86.86,0,0,0-.88.18l-3.08,2.89v-9Zm0,5.53v4.61H42.41L45,99.84l4,1.51a.85.85,0,0,0,.94-.24Zm-11.83,7.15v-.84H53v.84Z"/><path class="cls-2" d="M118.15,153.13h-8.3a2,2,0,0,0-1.8,2.2,1.93,1.93,0,0,0,1.8,1.8h8.3a2,2,0,0,0,1.8-2.2A2.12,2.12,0,0,0,118.15,153.13Zm-60,0h-8.3a2,2,0,0,0-1.8,2.2,1.93,1.93,0,0,0,1.8,1.8h8.3a2,2,0,0,0,1.8-2.2A2.12,2.12,0,0,0,58.15,153.13Zm45.8,0H64a2,2,0,1,0,0,4h15.9v2H72a2,2,0,1,0,0,4H97a2,2,0,0,0,0-4h-8.9v-2H104a2,2,0,0,0,0-4Z"/><path class="cls-1" d="M39.42,87.41h1.77a.26.26,0,0,0,.27-.25h0v-.67H51.69v.67a.26.26,0,0,0,.26.25h1.78a.25.25,0,0,0,.26-.24h0V85.28a.26.26,0,0,0-.26-.26H53.1V74.32h.63a.26.26,0,0,0,.26-.26V72.18a.25.25,0,0,0-.26-.25H52a.25.25,0,0,0-.27.24h0v.66H41.46v-.66a.26.26,0,0,0-.26-.25H39.42a.24.24,0,0,0-.26.24h0v1.88a.26.26,0,0,0,.26.26h.63V85h-.63a.26.26,0,0,0-.26.26v1.88a.25.25,0,0,0,.25.25Zm14-.52H52.22V85.54h1.24ZM52.22,72.45h1.24V73.8H52.22Zm-12.54,0h1.25V73.8H39.68Zm.89,1.87h.62a.27.27,0,0,0,.27-.26v-.69H51.69v.69a.27.27,0,0,0,.27.26h.62V85H52a.26.26,0,0,0-.27.26V86H41.46v-.69a.26.26,0,0,0-.27-.26h-.62Zm-.89,11.22h1.25v1.35H39.68Z"/><path class="cls-1" d="M44.11,83.08h-.29a.26.26,0,0,0-.26.26.26.26,0,0,0,.26.26h.44l.45,1.65a.27.27,0,0,0,.26.19h3.31a.27.27,0,0,0,.26-.2L49,83.6h.36a.26.26,0,0,0,.27-.26.27.27,0,0,0-.27-.26h-.23l.8-3.08a.31.31,0,0,0,0-.19l-3-5.78a.27.27,0,0,0-.36-.11.38.38,0,0,0-.11.11l-3.06,5.78a.25.25,0,0,0,0,.19Zm4,1.84H45.17L44.8,83.6h3.62Zm-1.51-6.17a.47.47,0,1,1-.46.47h0A.47.47,0,0,1,46.57,78.75Zm-.26-3.54v3.05a1,1,0,1,0,1.22.69,1,1,0,0,0-.69-.69V75.21L49.35,80l-.8,3.12H44.66L43.8,80Z"/><path class="cls-1" d="M51.75,116a4.83,4.83,0,0,0-.23-.45c-.09-.16-.18-.3-.27-.44l-.27-.38a2.12,2.12,0,0,0-.22-.25,1.3,1.3,0,0,0-.55-.32,3.66,3.66,0,0,0-.75-.09H47.93v.81c0,.35,0,.71,0,1.08v4.69c0,.24,0,.46,0,.67a.92.92,0,0,0,.11.45.89.89,0,0,0,.51.36c.22.06.42.11.6.14v.12h-3.9v-.12a2.9,2.9,0,0,0,.6-.12,1.15,1.15,0,0,0,.56-.39.41.41,0,0,0,.09-.2,2.51,2.51,0,0,0,.05-.31c0-.12,0-.24,0-.38s0-.27,0-.4,0-.26,0-.44,0-.39,0-.61v-5.35H45.09a2.59,2.59,0,0,0-.75.11,1.37,1.37,0,0,0-.55.33l-.22.25-.26.37c-.09.13-.18.28-.27.43a2.34,2.34,0,0,0-.19.44l-.11,0,.36-2.28c.18,0,.35.08.51.1s.38,0,.68,0l.81,0h3.67l.7,0h.82a3.58,3.58,0,0,0,.65-.07,3.79,3.79,0,0,0,.53-.14l.39,2.34Z"/><rect class="cls-6" x="40.31" y="110.75" width="13.68" height="13.68"/></g></svg>