<svg id="Layer_1" data-name="Layer 1" xmlns="http://www.w3.org/2000/svg" viewBox="0 0 168 168"><defs><style>.cls-1{fill:#2d4356;}.cls-2{fill:#7784ff;}</style></defs><title>Icon</title><g id="Stocks"><path class="cls-1" d="M22,129H47a2,2,0,0,0,0-4H22a2,2,0,0,0,0,4Zm91-4H88a2,2,0,0,0,0,4h25a2,2,0,0,0,0-4Zm0-16H88a2,2,0,0,0,0,4h25a2,2,0,0,0,0-4Zm0-16H88a2,2,0,0,0,0,4h25a2,2,0,0,0,0-4Zm0-16H88a2,2,0,0,0,0,4h25a2,2,0,0,0,0-4ZM80,133H55a2,2,0,0,0,0,4H80a2,2,0,0,0,0-4Zm0-16H55a2,2,0,0,0,0,4H80a2,2,0,0,0,0-4Zm0-16H55a2,2,0,0,0,0,4H80a2,2,0,0,0,0-4Zm66,32H121a2,2,0,0,0,0,4h25a2,2,0,0,0,0-4Zm0-16H121a2,2,0,0,0,0,4h25a2,2,0,0,0,0-4Zm0-16H121a2,2,0,0,0,0,4h25a2,2,0,0,0,0-4Zm0-16H121a2,2,0,0,0,0,4h25a2,2,0,0,0,0-4Zm0-16H121a2,2,0,0,0,0,4h25a2,2,0,0,0,0-4ZM119,55a2,2,0,0,0,2,2h25a2,2,0,0,0,0-4H121A2,2,0,0,0,119,55Z"/><path class="cls-1" d="M33,121a2,2,0,0,0,2-2,25,25,0,0,1,8-16.5c5.4-4.8,13-6.7,22.5-5.5a1.94,1.94,0,0,0,2.2-1.7v-.2c0-.1.3-12,8.7-18.7,5.5-4.4,13.2-5.5,23-3.5a2.1,2.1,0,0,0,2.4-1.6v-.5c0-.1-.4-12.6,7.9-20.5,4.9-4.6,11.9-6.7,20.9-6.3l-2.5,1.1a2,2,0,0,0,1.6,3.6h0l8-3.6a1.93,1.93,0,0,0,1-2.6,3,3,0,0,0-.5-.7l-7-6.4a2,2,0,1,0-2.7,2.9l1.7,1.6c-9.8-.4-17.7,2.1-23.3,7.4-7.3,6.9-8.8,16.6-9.1,21.1-10-1.6-18-.1-24,4.7-7.6,6-9.5,15.4-10,19.6-9.7-.8-17.6,1.4-23.6,6.7a29,29,0,0,0-9.4,19.5A2.35,2.35,0,0,0,33,121ZM160,21a3,3,0,1,0-3,3A2.95,2.95,0,0,0,160,21Zm-4.5,0a1.5,1.5,0,1,1,1.5,1.5A1.54,1.54,0,0,1,155.5,21ZM55,57a3,3,0,1,0-3-3A2.95,2.95,0,0,0,55,57Zm0-4.5A1.5,1.5,0,1,1,53.5,54,1.54,1.54,0,0,1,55,52.5ZM36,85a3,3,0,1,0-3-3A2.95,2.95,0,0,0,36,85Zm0-4.5A1.5,1.5,0,1,1,34.5,82,1.54,1.54,0,0,1,36,80.5ZM72,12a2,2,0,1,0-2-2A2,2,0,0,0,72,12Zm0-3a.94.94,0,0,1,1,1,1,1,0,0,1-2,0A.94.94,0,0,1,72,9Zm28,42a2,2,0,1,0-2-2A2,2,0,0,0,100,51Zm0-3a1,1,0,1,1-1,1A.94.94,0,0,1,100,48ZM17,37a2,2,0,1,0-2-2A2,2,0,0,0,17,37Zm0-3a1,1,0,1,1-1,1A.94.94,0,0,1,17,34Z"/><circle class="cls-1" cx="2" cy="143" r="2"/><path class="cls-1" d="M11,141H8a2,2,0,0,0,0,4h3a2,2,0,0,0,0-4Zm149,0h-3a2,2,0,0,0,0,4h3a2,2,0,0,0,0-4Z"/><circle class="cls-1" cx="166" cy="143" r="2"/><path class="cls-1" d="M150.7,141H17.3a2,2,0,0,0-.6,4H150.6a2.1,2.1,0,0,0,2.3-1.7,2,2,0,0,0-1.7-2.3Z"/><path class="cls-2" d="M49,135a2,2,0,0,0-2-2H22a2,2,0,0,0,0,4H47A2,2,0,0,0,49,135Zm39,2h25a2,2,0,0,0,0-4H88a2,2,0,0,0,0,4Zm0-16h25a2,2,0,0,0,0-4H88a2,2,0,0,0,0,4Zm0-16h25a2,2,0,0,0,0-4H88a2,2,0,0,0,0,4Zm0-16h25a2,2,0,0,0,0-4H88a2,2,0,0,0,0,4ZM55,129H80a2,2,0,0,0,0-4H55a2,2,0,0,0,0,4Zm0-16H80a2,2,0,0,0,0-4H55a2,2,0,0,0,0,4Zm91,12H121a2,2,0,0,0,0,4h25a2,2,0,0,0,0-4Zm0-16H121a2,2,0,0,0,0,4h25a2,2,0,0,0,0-4Zm0-16H121a2,2,0,0,0,0,4h25a2,2,0,0,0,0-4Zm0-16H121a2,2,0,0,0,0,4h25a2,2,0,0,0,0-4Zm0-16H121a2,2,0,0,0,0,4h25a2,2,0,0,0,0-4Z"/><polygon class="cls-2" points="12.6 76 14.1 74.1 13.1 73.5 12.2 75.7 12.1 75.7 11.2 73.5 10.2 74.1 11.7 76 11.7 76 9.4 75.7 9.4 76.8 11.7 76.5 11.7 76.5 10.2 78.4 11.1 79 12.1 76.8 12.2 76.8 13.1 79 14.1 78.4 12.6 76.5 12.6 76.5 14.9 76.8 14.9 75.7 12.6 76"/><polygon class="cls-2" points="74.8 31.1 73.9 32.2 74.4 32.5 75 31.2 75 31.2 75.6 32.5 76.1 32.2 75.3 31.1 75.3 31.1 76.6 31.2 76.6 30.6 75.3 30.8 75.3 30.8 76.1 29.6 75.6 29.3 75 30.6 75 30.6 74.5 29.3 73.9 29.7 74.8 30.8 74.8 30.8 73.4 30.6 73.4 31.2 74.8 31 74.8 31.1"/><polygon class="cls-2" points="157 54.7 157 53.7 154.7 54 154.7 53.9 156.1 52 155.2 51.5 154.3 53.7 154.3 53.7 153.3 51.5 152.4 52.1 153.8 53.9 153.8 54 151.6 53.7 151.6 54.7 153.8 54.4 153.8 54.5 152.4 56.3 153.2 56.9 154.2 54.7 154.3 54.7 155.2 56.9 156.2 56.3 154.7 54.5 154.7 54.4 157 54.7"/><polygon class="cls-2" points="117.7 27 116.4 28.6 117.2 29.1 118.1 27.2 118.1 27.2 118.9 29.1 119.7 28.6 118.4 27 118.4 27 120.4 27.2 120.4 26.3 118.4 26.6 118.4 26.6 119.7 24.9 118.9 24.5 118.1 26.3 118.1 26.3 117.3 24.5 116.4 25 117.7 26.6 117.7 26.6 115.7 26.3 115.7 27.2 117.7 27"/><path class="cls-2" d="M118.2,150h-8.3a2,2,0,0,0-1.8,2.2,1.93,1.93,0,0,0,1.8,1.8h8.3a2,2,0,0,0,1.8-2.2A2.12,2.12,0,0,0,118.2,150Zm-60,0H49.9a2,2,0,0,0-1.8,2.2,1.93,1.93,0,0,0,1.8,1.8h8.3a2,2,0,0,0,1.8-2.2A2.12,2.12,0,0,0,58.2,150Zm45.8,0H64a2,2,0,0,0,0,4H79.9v2H72a2,2,0,0,0,0,4H97a2,2,0,0,0,0-4H88.1v-2H104a2,2,0,0,0,0-4Z"/></g></svg>