<svg id="Layer_1" data-name="Layer 1" xmlns="http://www.w3.org/2000/svg" viewBox="0 0 168 168"><defs><style>.cls-1{fill:#2d4356;}.cls-2{fill:#7784ff;}</style></defs><title>Icon</title><g id="Startup"><path class="cls-1" d="M27.5,117.6a2.85,2.85,0,0,0,1.3,0c2.7-1,5.8.4,9,1.9.7.3,1.3.6,2,.9,2.8,1.2,6.1,2.6,9.6,2.6a12.42,12.42,0,0,0,6.9-2.1,8.34,8.34,0,0,0,1.2-.8c1.5-1.1,3.3-2.3,4.7-2.4a9.5,9.5,0,0,1,3.3,1.3l.3.2c3,1.5,7,3.6,11,1.3s4.3-7.1,4.2-10.5v-.4a38.66,38.66,0,0,0-.3-4.8c-.1-1-.3-2-.5-3.1-.1-.5-.2-1.1-.3-1.6h6.3c-.1.5-.2,1.1-.3,1.6a28.68,28.68,0,0,0-.5,3.1,38.66,38.66,0,0,0-.3,4.8v.4c-.1,3.4.3,8.2,4.2,10.5s8.1.3,11-1.3l.3-.2a12,12,0,0,1,3.3-1.3h.1c1.5.1,3.2,1.3,4.8,2.4a8.34,8.34,0,0,0,1.2.8,12,12,0,0,0,6.9,2.1c3.5,0,6.7-1.4,9.6-2.6,3.8-1.7,8.6-3.7,12-2.4a2.3,2.3,0,0,0,2.7-1.1c3.7-7.8,6-20.1,6-31.3,0-36.1-28.7-65.5-64-65.5s-64,29.4-64,65.5c0,11.9,2.6,23.5,7,31.1C26.3,117.2,26.9,117.5,27.5,117.6ZM76.5,96a29,29,0,0,0-1.2-2.8l-1.3-3-3.2.6a9.3,9.3,0,0,0-6.3,4.8,15.05,15.05,0,0,0-1.1,2.2,26.56,26.56,0,0,1-.1-8.9c.7-4.2,2.7-7.4,5.5-9l2.3-1.3L70.8,76a48.26,48.26,0,0,1-.2-7.6A37.76,37.76,0,0,1,82.9,42.1,37.76,37.76,0,0,1,95.2,68.4,48.26,48.26,0,0,1,95,76l-.3,2.6L97,79.9c2.9,1.6,4.9,4.9,5.5,9.3a27,27,0,0,1-.2,8.5c-.3-.8-.8-1.6-1.2-2.4-1.3-2.1-3.1-4.2-6.5-4.6l-3-.4-1.2,2.8c-.3.6-.7,1.8-1.2,2.8ZM83,24c33.1,0,60,27.6,60,61.5,0,10-1.9,20.9-5,28.2-4.5-.8-9.3,1.2-13.2,3-5.2,2.3-8.7,3.4-12.7.9a10.54,10.54,0,0,0-1.1-.7c-1.9-1.3-4.2-2.9-6.8-3.1-1.9-.1-4,1-5.4,1.7l-.2.1c-3,1.5-5.3,2.5-7.2,1.4-1.6-1-2.4-3.2-2.3-6.9v-.4a30,30,0,0,1,.3-4.3,25,25,0,0,1,.5-2.9c.1-.8.3-1.6.4-2.3h2.1s1.6-4,2.1-5.3c1.6.2,2.5,1.1,3.6,2.8,1.3,2.1,2.4,5.5,3.1,10.4,0,0,.1,1,.3,2.1.1.6.3.9.5.9s.4-.3.7-.8l.9-2c3.1-6.9,4.2-13.8,3.3-19.7-.8-5.4-3.4-9.9-7.5-12.2a57.19,57.19,0,0,0,.2-8.3A42.27,42.27,0,0,0,84.1,37.4a1.73,1.73,0,0,1-.4-.3.61.61,0,0,0-.8,0l-.4.3A42.27,42.27,0,0,0,67,68.1a45,45,0,0,0,.2,8.2c-4,2.3-6.6,6.6-7.5,11.8-1,5.9,0,13,3.2,20.1,0,0,.4.9.9,2,.2.5.5.8.7.8s.4-.3.5-.9l.3-2.1c.7-4.8,1.7-8.2,3-10.3A5.19,5.19,0,0,1,72,94.8c.6,1.3,2.1,5.3,2.1,5.3h2c.1.8.3,1.6.4,2.4a29.31,29.31,0,0,1,.5,2.9,32.53,32.53,0,0,1,.3,4.4v.4c.1,3.8-.6,6-2.3,6.9-2,1.1-4.2.2-7.2-1.4l-.3-.2c-1.4-.7-3.5-1.8-5.3-1.7-2.6.1-5,1.8-6.8,3.1a6.73,6.73,0,0,1-1.1.7c-4,2.6-7.4,1.4-12.6-.9a15.39,15.39,0,0,0-1.9-.8c-3.3-1.5-6.9-3.2-10.6-2.4-4.3-8.2-5.8-19.7-5.8-27.9C23,51.6,49.9,24,83,24Z"/><path class="cls-1" d="M83,52c-3.4,0-6,3.5-6,8s2.6,8,6,8,6-3.5,6-8S86.4,52,83,52Zm0,12c-.8,0-2-1.6-2-4s1.2-4,2-4,2,1.6,2,4S83.8,64,83,64Zm-5.5,62.7c-3.4,4.1-6,3.1-9.5,1.7a14.91,14.91,0,0,0-5.6-1.4c-3.1.1-5.6,1.5-8,2.7-.5.3-1,.5-1.5.8-5.2,2.6-9.8,1.4-16.2-.8l-.7-.2c-5-1.7-10.2-3.4-15.6-1.8a2,2,0,0,0,1.2,3.8c4.2-1.3,8.6.2,13.2,1.8l.7.2c3.5,1.2,7.3,2.5,11.3,2.5a17.14,17.14,0,0,0,8-1.9c.5-.3,1-.5,1.5-.8,2.1-1.1,4-2.2,6.3-2.3a10.32,10.32,0,0,1,3.9,1.1c3.7,1.5,8.8,3.5,14-2.8a2,2,0,0,0-.3-2.8,1.91,1.91,0,0,0-2.7.2Zm52.5,2.8-.7.2c-6.4,2.2-11.1,3.4-16.2.8a10.93,10.93,0,0,1-1.5-.8c-2.4-1.3-4.9-2.6-8-2.7a14,14,0,0,0-5.6,1.4c-3.5,1.4-6.1,2.4-9.5-1.7a1.94,1.94,0,0,0-2.8-.2,2,2,0,0,0-.3,2.8c5.3,6.3,10.3,4.3,14,2.8a10.86,10.86,0,0,1,3.9-1.1,14.23,14.23,0,0,1,6.3,2.3,10.93,10.93,0,0,0,1.5.8,17.14,17.14,0,0,0,8,1.9c4,0,7.8-1.3,11.3-2.5l.7-.2c4.6-1.6,9-3,13.2-1.8a2,2,0,0,0,1.2-3.8h0C140.2,126.1,135,127.8,130,129.5ZM147,15a3,3,0,1,0-3-3A2.95,2.95,0,0,0,147,15Zm0-4.5a1.5,1.5,0,1,1-1.5,1.5A1.54,1.54,0,0,1,147,10.5ZM84,10a3,3,0,0,0,3-3,3,3,0,0,0-6,0A3,3,0,0,0,84,10Zm0-4.5A1.54,1.54,0,0,1,85.5,7a1.5,1.5,0,0,1-3,0A1.54,1.54,0,0,1,84,5.5ZM146,46a2,2,0,1,0-2-2A2,2,0,0,0,146,46Zm0-3a1,1,0,1,1-1,1A.94.94,0,0,1,146,43ZM49,26a2,2,0,1,0-2-2A2,2,0,0,0,49,26Zm0-3a1,1,0,1,1-1,1A.94.94,0,0,1,49,23ZM21,46a2,2,0,1,0-2-2A2,2,0,0,0,21,46Zm0-3a1,1,0,1,1-1,1A.94.94,0,0,1,21,43Z"/><circle class="cls-1" cx="1" cy="149" r="2"/><path class="cls-1" d="M10,147H7a2,2,0,0,0,0,4h3a2,2,0,0,0,0-4Zm149,0h-3a2,2,0,0,0,0,4h3a2,2,0,0,0,0-4Z"/><circle class="cls-1" cx="165" cy="149" r="2"/><path class="cls-1" d="M149.7,147H125.8a36.76,36.76,0,0,0,4.7-1.5l.7-.2c4.6-1.6,9-3,13.2-1.8a2,2,0,0,0,1.2-3.8h0c-5.4-1.6-10.6.1-15.6,1.8l-.7.2c-6.4,2.2-11.1,3.4-16.2.8a10.93,10.93,0,0,1-1.5-.8c-2.4-1.3-4.9-2.6-8-2.7a14,14,0,0,0-5.6,1.4c-3.5,1.4-6.1,2.4-9.5-1.7a1.94,1.94,0,0,0-2.8-.2,2,2,0,0,0-.3,2.8c5.3,6.3,10.3,4.3,14,2.8a10.86,10.86,0,0,1,3.9-1.1,14.23,14.23,0,0,1,6.3,2.3,10.93,10.93,0,0,0,1.5.8,18.94,18.94,0,0,0,2.1.9H52.5l2.1-.9c.5-.3,1-.5,1.5-.8,2.1-1.1,4-2.2,6.3-2.3a10.32,10.32,0,0,1,3.9,1.1c3.7,1.5,8.8,3.5,14-2.8a2,2,0,1,0-3.1-2.5c-3.4,4.1-6,3.1-9.5,1.7a14.91,14.91,0,0,0-5.6-1.4c-3.1.1-5.6,1.5-8,2.7-.5.3-1,.5-1.5.8-5.2,2.6-9.8,1.4-16.2-.8l-.7-.2c-5-1.7-10.2-3.4-15.6-1.8a2,2,0,1,0,1.2,3.8c4.2-1.3,8.6.2,13.2,1.8l.7.2c1.5.5,3.1,1,4.7,1.5H16a2,2,0,1,0-.6,4H149.3a2.1,2.1,0,0,0,2.3-1.7,2,2,0,0,0-1.7-2.3c.2-.1,0-.1-.2-.1Z"/><path class="cls-2" d="M79,86h8a2,2,0,0,0,0-4H79a2,2,0,0,0,0,4Z"/><polygon class="cls-2" points="7.6 39 9.1 37.1 8.1 36.5 7.2 38.7 7.1 38.7 6.2 36.5 5.2 37.1 6.7 39 6.7 39 4.4 38.7 4.4 39.8 6.7 39.5 6.7 39.5 5.2 41.4 6.1 42 7.1 39.8 7.2 39.8 8.1 42 9.1 41.4 7.6 39.5 7.6 39.5 9.9 39.8 9.9 38.7 7.6 39"/><polygon class="cls-2" points="32.3 4.8 33.1 3.6 32.6 3.3 32 4.6 32 4.6 31.5 3.3 30.9 3.7 31.8 4.8 31.8 4.8 30.4 4.6 30.4 5.2 31.8 5 31.8 5.1 30.9 6.2 31.4 6.5 32 5.2 32 5.2 32.6 6.5 33.1 6.2 32.3 5.1 32.3 5.1 33.6 5.2 33.6 4.6 32.3 4.8"/><polygon class="cls-2" points="113.8 5.5 112.4 7.3 113.2 7.9 114.2 5.7 114.3 5.7 115.2 7.9 116.2 7.3 114.7 5.5 114.7 5.4 117 5.7 117 4.7 114.7 5 114.7 4.9 116.1 3 115.2 2.5 114.3 4.7 114.3 4.7 113.3 2.5 112.4 3.1 113.8 4.9 113.8 5 111.6 4.7 111.6 5.7 113.8 5.4 113.8 5.5"/><polygon class="cls-2" points="112.7 23 111.4 24.6 112.2 25.1 113.1 23.2 113.1 23.2 113.9 25.1 114.7 24.6 113.4 23 113.4 23 115.4 23.2 115.4 22.3 113.4 22.6 113.4 22.6 114.7 20.9 113.9 20.5 113.1 22.3 113.1 22.3 112.3 20.5 111.4 21 112.7 22.6 112.7 22.6 110.7 22.3 110.7 23.2 112.7 23"/><path class="cls-2" d="M117.2,156h-8.3a2,2,0,0,0-1.8,2.2,1.93,1.93,0,0,0,1.8,1.8h8.3a2,2,0,0,0,1.8-2.2A2.12,2.12,0,0,0,117.2,156Zm-60,0H48.9a2,2,0,0,0-1.8,2.2,1.93,1.93,0,0,0,1.8,1.8h8.3a2,2,0,0,0,1.8-2.2A2.12,2.12,0,0,0,57.2,156Zm45.8,0H63a2,2,0,0,0,0,4H78.9v2H71a2,2,0,0,0,0,4H96a2,2,0,0,0,0-4H87.1v-2H103a2,2,0,0,0,0-4Z"/></g></svg>