<svg id="Layer_1" data-name="Layer 1" xmlns="http://www.w3.org/2000/svg" viewBox="0 0 168 168"><defs><style>.cls-1{fill:#2d4356;}.cls-2{fill:#7784ff;}.cls-3,.cls-4,.cls-5{fill:none;stroke-linecap:round;stroke-linejoin:round;}.cls-3,.cls-5{stroke:#2d4356;}.cls-3{stroke-width:4px;}.cls-4{stroke:#7784ff;}.cls-4,.cls-5{stroke-width:3px;}.cls-6{fill:#fff;}</style></defs><title>Icon</title><g id="Politically_Incorrect" data-name="Politically Incorrect"><circle class="cls-1" cx="2.55" cy="145.82" r="2"/><path class="cls-2" d="M117.75,152.82h-8.3a2,2,0,0,0-1.8,2.2,1.93,1.93,0,0,0,1.8,1.8h8.3a2,2,0,0,0,1.8-2.2A2.12,2.12,0,0,0,117.75,152.82Zm-60,0h-8.3a2,2,0,0,0-1.8,2.2,1.93,1.93,0,0,0,1.8,1.8h8.3a2,2,0,0,0,1.8-2.2A2.12,2.12,0,0,0,57.75,152.82Zm45.8,0h-40a2,2,0,0,0,0,4h15.9v2h-7.9a2,2,0,0,0,0,4h25a2,2,0,1,0,0-4h-8.9v-2h15.9a2,2,0,1,0,0-4Z"/><path class="cls-1" d="M10.55,143.82h-3a2,2,0,0,0,0,4h3a2,2,0,1,0,0-4Zm149,0h-3a2,2,0,0,0,0,4h3a2,2,0,0,0,0-4Z"/><circle class="cls-1" cx="165.55" cy="145.82" r="2"/><path class="cls-1" d="M150.25,143.82H16.85a2.1,2.1,0,0,0-2.3,1.7,2,2,0,0,0,1.7,2.3h133.9a2.1,2.1,0,0,0,2.3-1.7,2,2,0,0,0-1.7-2.3Z"/><rect class="cls-3" x="23.34" y="89.39" width="52.5" height="11.02"/><rect class="cls-3" x="91.76" y="89.39" width="52.5" height="11.02"/><path class="cls-4" d="M88.79,77.32q-4.47,14.87-8.93,29.75l7.88.87q-4.47,15.32-8.93,30.63"/><circle class="cls-4" cx="48.73" cy="48.62" r="9.98"/><circle class="cls-4" cx="118.67" cy="48.62" r="9.98"/><path class="cls-3" d="M97.72,100.42l5.63,44.7"/><line class="cls-3" x1="29.48" y1="100.8" x2="35.15" y2="145.82"/><line class="cls-3" x1="69.27" y1="100.81" x2="63.6" y2="145.83"/><line class="cls-3" x1="138.03" y1="100.42" x2="132.36" y2="145.44"/><path class="cls-1" d="M110.78,69.84A11.41,11.41,0,0,0,108.51,68l-17.58-.3a1.5,1.5,0,0,1-.47-.08A5.91,5.91,0,0,1,86.51,61a5.84,5.84,0,0,1,4.81-4.64,1.14,1.14,0,0,1,.26,0H105a19.26,19.26,0,0,1,1.5,1.5c.45.49.85,1,1.2,1.43l-16,.07a2.83,2.83,0,0,0-2.25,2.2,2.87,2.87,0,0,0,1.78,3.08l18,.3.63.15a2.19,2.19,0,0,1,1.22.44,2.66,2.66,0,0,1,.84,1.83,11,11,0,0,1,0,3.87A10,10,0,0,0,110.78,69.84Z"/><path class="cls-5" d="M107.13,73.7,98.88,82v7.44"/><line class="cls-5" x1="129.86" y1="80.23" x2="129.86" y2="88.83"/><path class="cls-1" d="M137.1,90.54a1.51,1.51,0,0,1-1.5-1.48c.29-11.78.25-20.49,0-23.38a6,6,0,0,0-1.15-3.35,5.8,5.8,0,0,0-2.91-1.92,5.74,5.74,0,0,0-2.08-.16L132.21,57a8.86,8.86,0,0,1,4.94,3.17,9.09,9.09,0,0,1,1.49,5.63c0,4.92,0,12.95,0,23.24A1.51,1.51,0,0,1,137.1,90.54Z"/><path class="cls-1" d="M156.21,56.45a1.8,1.8,0,1,0-1.8-1.8A1.79,1.79,0,0,0,156.21,56.45Z"/><path class="cls-6" d="M156.21,53.65a.9.9,0,1,1-.9.9A1,1,0,0,1,156.21,53.65Z"/><path class="cls-1" d="M157.11,11.9a1.8,1.8,0,1,0-1.8-1.8A1.79,1.79,0,0,0,157.11,11.9Z"/><path class="cls-6" d="M157.11,9.1a.9.9,0,1,1-.9.9A1,1,0,0,1,157.11,9.1Z"/><path class="cls-1" d="M62.54,7.66a1.8,1.8,0,1,0-1.8-1.8A1.79,1.79,0,0,0,62.54,7.66Z"/><path class="cls-6" d="M62.54,4.86a.9.9,0,1,1-.9.9A1,1,0,0,1,62.54,4.86Z"/><path class="cls-1" d="M77.08,38.63A2.6,2.6,0,1,0,74.48,36,2.59,2.59,0,0,0,77.08,38.63Z"/><path class="cls-6" d="M77.08,34.59a1.3,1.3,0,1,1-1.3,1.3A1.4,1.4,0,0,1,77.08,34.59Z"/><path class="cls-1" d="M34.15,30.9a1.44,1.44,0,1,0-1.44-1.44A1.44,1.44,0,0,0,34.15,30.9Z"/><path class="cls-6" d="M34.15,28.66a.72.72,0,1,1-.72.72A.77.77,0,0,1,34.15,28.66Z"/><polygon class="cls-2" points="7.85 60.45 6.35 62.25 7.25 62.85 8.25 60.65 8.25 60.65 9.25 62.85 10.15 62.25 8.75 60.45 8.75 60.35 11.05 60.65 11.05 59.65 8.75 59.95 8.75 59.95 10.15 57.95 9.25 57.45 8.35 59.65 8.25 59.65 7.35 57.45 6.35 58.05 7.85 59.85 7.85 59.95 5.55 59.65 5.55 60.65 7.85 60.35 7.85 60.45"/><polygon class="cls-2" points="11.56 9.56 10.55 10.77 11.16 11.18 11.83 9.7 11.83 9.7 12.51 11.18 13.11 10.77 12.17 9.56 12.17 9.49 13.72 9.7 13.72 9.02 12.17 9.22 12.17 9.22 13.11 7.88 12.51 7.54 11.9 9.02 11.83 9.02 11.23 7.54 10.55 7.95 11.56 9.16 11.56 9.22 10.02 9.02 10.02 9.7 11.56 9.49 11.56 9.56"/><polygon class="cls-2" points="100.24 11.5 98.61 13.46 99.59 14.11 100.67 11.72 100.67 11.72 101.76 14.11 102.74 13.46 101.22 11.5 101.22 11.39 103.72 11.72 103.72 10.63 101.22 10.96 101.22 10.96 102.74 8.78 101.76 8.24 100.78 10.63 100.67 10.63 99.7 8.24 98.61 8.89 100.24 10.85 100.24 10.96 97.74 10.63 97.74 11.72 100.24 11.39 100.24 11.5"/><polygon class="cls-2" points="133.13 30.21 131.97 31.6 132.66 32.06 133.43 30.37 133.43 30.37 134.2 32.06 134.9 31.6 133.82 30.21 133.82 30.14 135.59 30.37 135.59 29.6 133.82 29.83 133.82 29.83 134.9 28.29 134.2 27.9 133.51 29.6 133.43 29.6 132.74 27.9 131.97 28.36 133.13 29.75 133.13 29.83 131.35 29.6 131.35 30.37 133.13 30.14 133.13 30.21"/><path class="cls-1" d="M112,76.86l-3.64,4v7.55H112Z"/><path class="cls-1" d="M57.28,69.84A11.73,11.73,0,0,1,59.56,68l17.58-.3a1.44,1.44,0,0,0,.46-.08,5.9,5.9,0,0,0,4-6.53,5.84,5.84,0,0,0-4.82-4.64,1,1,0,0,0-.25,0H63.06a21.18,21.18,0,0,0-1.5,1.5c-.45.49-.84,1-1.2,1.43l16,.07a2.83,2.83,0,0,1,2.26,2.2,2.88,2.88,0,0,1-1.78,3.08l-18,.3-.62.15a2.25,2.25,0,0,0-1.23.44,2.71,2.71,0,0,0-.84,1.83,11.53,11.53,0,0,0,0,3.87A11.66,11.66,0,0,1,57.28,69.84Z"/><path class="cls-5" d="M60.94,73.7,69.19,82v7.44"/><path class="cls-1" d="M31,90.54a1.51,1.51,0,0,0,1.5-1.48c-.3-11.78-.25-20.49,0-23.38a6.06,6.06,0,0,1,1.15-3.35,5.58,5.58,0,0,1,5-2.08c-.91-1.09-1.81-2.18-2.72-3.26a8.89,8.89,0,0,0-4.94,3.17,9.09,9.09,0,0,0-1.49,5.63c0,4.92,0,12.95,0,23.24A1.5,1.5,0,0,0,31,90.54Z"/><path class="cls-1" d="M56,76.86l3.64,4v7.55H56Z"/></g></svg>