<?xml version="1.0" encoding="utf-8"?>
<!-- Generator: Adobe Illustrator 24.0.0, SVG Export Plug-In . SVG Version: 6.00 Build 0)  -->
<svg version="1.1" id="Layer_1" xmlns="http://www.w3.org/2000/svg" xmlns:xlink="http://www.w3.org/1999/xlink" x="0px" y="0px"
	 viewBox="0 0 500 500" style="enable-background:new 0 0 500 500;" xml:space="preserve">
<style type="text/css">
	.st0{fill:#F5F5F5;}
	.st1{fill:#E0E0E0;}
	.st2{fill:#EBEBEB;}
	.st3{fill:#263238;}
	.st4{fill:#7c7cfc;}
	.st5{opacity:0.3;}
	.st6{fill:#FAFAFA;}
	.st7{fill:#B78876;}
	.st8{fill:#AA6550;}
	.st9{opacity:0.2;}
	.st10{fill:#FFFFFF;}
	.st11{fill:none;}
	.st12{enable-background:new    ;}
</style>
<g id="background-complete--inject-94">
	<path class="st0" d="M80.4,95.6c4.2-1,8.7-0.1,12.3,2.2c3.6,2.4,6.6,5.6,8.8,9.3c4.4,7.1,5.9,16.5,6,24.8
		c-9.2-0.5-17-7.8-20.8-11.8C80.8,113.9,74,99,80.4,95.6"/>
	<path class="st0" d="M122.3,137.7c-3.7-3.2-5.5-8.1-4.6-12.9c1-4.8,3.8-8.9,7.9-11.6c1.8-1.2,4.1-2.2,6.2-1.6
		c2,0.7,3.4,2.5,3.7,4.6s0,4.2-0.8,6.1C132.4,129,128.9,135.1,122.3,137.7"/>
	<path class="st1" d="M127.6,157.8c-1-1.5-1.9-3.1-2.6-4.8c-0.8-1.8-1.5-3.7-1.8-5.7c-0.6-2.4-1-4.8-1.2-7.2
		c-0.4-4.5,0.3-9,2.1-13.1c0.5-1.2,1.2-2.4,2-3.5c0.6-0.8,1-1.1,1-1.1s-1.2,1.7-2.4,4.8c-1.5,4.1-2.1,8.5-1.8,12.8
		c0.2,2.4,0.6,4.8,1.1,7.1c0.3,1.9,0.9,3.8,1.6,5.6C126.9,155.8,127.8,157.7,127.6,157.8z"/>
	<path class="st1" d="M86.6,106.4c0.7,0.6,1.4,1.3,1.9,2c1.2,1.3,2.9,3.3,5,5.7c4.2,4.8,9.9,11.6,16,19.2s11.4,14.7,15.1,19.9
		c1.9,2.6,3.4,4.7,4.4,6.2c0.6,0.7,1.1,1.5,1.5,2.4c-0.7-0.7-1.2-1.4-1.8-2.1l-4.6-6c-3.9-5.1-9.3-12.1-15.4-19.7L93,114.6l-4.8-5.9
		C87.7,108,87.1,107.2,86.6,106.4z"/>
	<path class="st0" d="M116,146.7c-8.5-5.8-19.3-7.2-29-3.7c-2.4,0.9-5,2.6-5.1,5.2s2.5,4.4,4.8,5.4c10.3,4.1,21.9,1.5,29.6-6.4"/>
	<path class="st1" d="M93.5,147c0.4-0.2,0.9-0.4,1.4-0.5c0.9-0.2,2.2-0.5,3.9-0.9c4.3-0.8,8.8-0.9,13.2-0.1c2.4,0.5,4.7,1.4,6.8,2.6
		c2.9,1.7,5.3,4.1,7.1,6.9c0.3,0.4,0.5,0.8,0.7,1.3c-0.2,0.1-1.3-1.6-3.7-4c-3.1-3-7-5.1-11.2-5.9c-4.3-0.7-8.6-0.8-12.9-0.1
		C95.5,146.7,93.5,147.1,93.5,147z"/>
	<path class="st2" d="M129.5,349.7c29.8-14.5,41.4-48.3,45.4-79.8c0.7-5.2,2.1-10.7,0.4-15.6s-7.1-9-12.1-7.6
		c-4.2,1.2-6.6,5.4-9.3,8.8c-3.7,4.5-8.6,7.9-14.1,9.8c-3.6,1.2-7.9,1.6-10.9-0.7c-4.1-3.2-3.7-9.5-2.8-14.7l4.8-29
		c0.9-5.2,1.7-10.5,0.9-15.7s-3.7-10.3-8.4-12.5s-11.3-0.3-13.1,4.6c-0.8,2.1-0.7,4.3-1.2,6.4s-1.9,4.4-4,4.6s-4-1.5-5.3-3.3
		c-4.5-6.1-7.1-13.4-9.4-20.7s-4.5-14.7-8.5-21.1s-10-12.1-17.3-13.7s-16,1.7-19.1,8.7s0,15.1,3.7,21.8c5.5,9.9,12.4,18.9,20.5,26.8
		c1.4,1.4,3,3,3.3,5c0.6,3.6-3.2,6.6-6.8,7.1c-4.1,0.7-8.2-0.4-12.3-0.6s-8.8,0.9-10.9,4.5c-3,5,0.6,11.2,4.4,15.6
		c7.6,8.7,16.6,16,26.7,21.6c3.6,2,7.4,3.9,10.1,7s3.8,8.1,1.3,11.5s-7.4,3.8-11.3,2.4s-7.1-4.1-10.7-6.1c-6.7-3.8-16-4.8-21.5,0.6
		c-3.7,3.6-4.8,9.2-4.1,14.3s3.2,9.7,5.8,14.1c9.3,15.2,22.2,28.4,37.9,36.8S112.1,353.1,129.5,349.7"/>
	<path class="st1" d="M125.3,351.3c0.8-12.6,1.4-6-0.7-22.6s-5.9-34.4-10.5-53l-3.5-13.8c-1.2-4.5-2.3-9-3.7-13.3
		c-2.7-8.3-5.8-16.4-9.4-24.3c-3.3-7.6-6.8-14.7-10.1-21.3s-6.4-12.6-9.6-18c-4.9-8.6-10.5-16.8-16.7-24.5c-2.2-2.7-4-4.8-5.2-6.1
		l-1.4-1.6c-0.1-0.2-0.3-0.4-0.5-0.5c0.1,0.2,0.3,0.4,0.4,0.6c0.3,0.4,0.8,0.9,1.3,1.6c1.2,1.4,2.9,3.5,5,6.3
		c6.1,7.8,11.6,16,16.4,24.6c3.1,5.4,6.2,11.5,9.5,18.1s6.7,13.7,10,21.3c3.5,7.9,6.6,16,9.3,24.3c1.4,4.3,2.5,8.7,3.6,13.3
		s2.3,9.1,3.5,13.8c4.6,18.6,8.4,36.5,10.6,52.9s1.7,9.9,0.9,22.4"/>
	<path class="st1" d="M106.7,248.6c0.4-0.7,0.6-1.4,0.9-2.1c0.5-1.4,1.2-3.4,1.9-5.9c1.6-5.1,3.5-12.1,5.6-19.9s4.1-14.8,5.7-19.8
		c0.8-2.5,1.5-4.5,2-5.9c0.3-0.7,0.5-1.5,0.7-2.2c-0.4,0.7-0.7,1.3-1,2.1c-0.6,1.4-1.4,3.4-2.3,5.9c-1.8,5-3.9,12-6,19.8
		s-3.9,14.6-5.3,20c-0.6,2.4-1.2,4.4-1.6,6C107,247.1,106.8,247.8,106.7,248.6z"/>
	<path class="st1" d="M41.9,225.5c0.8,0.3,1.7,0.6,2.6,0.8c1.7,0.4,4.1,1,7.1,1.9c6,1.6,14.2,4.2,23.2,7.4s16.9,6.5,22.6,9
		c2.9,1.2,5.2,2.3,6.7,3c0.8,0.4,1.6,0.8,2.5,1.1c-0.7-0.5-1.5-1-2.3-1.4c-1.5-0.8-3.8-2-6.6-3.3c-5.6-2.7-13.6-6.1-22.6-9.3
		c-7.7-2.8-15.4-5.2-23.3-7.1c-3-0.8-5.5-1.3-7.2-1.6C43.7,225.6,42.8,225.5,41.9,225.5z"/>
	<path class="st1" d="M124,327.4c0,0,0.2-0.2,0.6-0.7l1.5-2.2c1.3-2,3.1-4.8,5.4-8.4c4.4-7.1,10.3-17.2,16.5-28.4s12-21.3,16.3-28.5
		c2.1-3.5,3.8-6.4,5.1-8.5c0.6-0.9,1-1.7,1.4-2.3c0.2-0.3,0.3-0.5,0.4-0.9c0,0-0.2,0.2-0.6,0.7l-1.6,2.2c-1.3,1.9-3.1,4.8-5.4,8.4
		c-4.4,7.2-10.2,17.2-16.5,28.4s-12,21.3-16.3,28.5c-2.1,3.5-3.8,6.4-5.1,8.5l-1.4,2.3C124.2,326.8,124.1,327.1,124,327.4z"/>
	<path class="st1" d="M39.8,284.7c0.2,0.2,0.5,0.4,0.8,0.5l2.4,1.3l9,4.6c7.6,3.9,18.1,9.4,29.6,15.4s22,11.5,29.7,15.2
		c3.8,1.9,7,3.3,9.2,4.3l2.5,1.1c0.3,0.1,0.6,0.3,0.9,0.3c-0.2-0.2-0.5-0.4-0.8-0.5l-2.4-1.3l-9-4.6c-7.6-3.9-18.1-9.4-29.6-15.4
		s-22-11.5-29.7-15.2c-3.8-1.9-7-3.3-9.2-4.3l-2.5-1.1C40.4,284.9,40.1,284.8,39.8,284.7z"/>
</g>
<g id="Floor--inject-94">
	<path class="st3" d="M465.4,435c0,0.1-94.7,0.3-211.4,0.3S42.5,435.1,42.5,435s94.6-0.3,211.4-0.3S465.4,434.9,465.4,435z"/>
</g>
<g id="Plant--inject-94">
	<path class="st4" d="M65.7,269.4c0,0,6.9-4.7,15.5,11.9s11.9,26.1,11.9,26.1s2.3,3.5,4.6,1.2s5.6-8.8,9.7-7.6s5.7,5.9,4.9,12.8
		s-1.8,22.1-1.9,23.5s0.7,3.3,2.6,2s12.6-13.4,18-8s0.2,24.4-0.3,26.4s-0.1,3,0.9,3.5s4.2-3.9,7.4-7.2s7.4-6.6,10.3-3.2
		s3.9,17.5-9.3,40.7l-6.9,10.3l-12.4-0.6c-26.5-2.9-37.4-12-38.4-16.3s4.1-5.8,8.7-6.5s10-0.6,10.2-1.7s-0.3-2-2.3-2.7
		s-20.4-7.7-21.6-15.3s14.9-9.1,17.1-9.9s1-2.5-0.1-3.3s-14.1-8.8-20.1-12.3s-9-7.4-7.4-11.5c1.5-4,8.6-2.8,11.9-3.3
		s1.8-4.4,1.8-4.4s-5.8-8.3-14.1-25s-0.3-19.6-0.3-19.6"/>
	<path class="st3" d="M73.5,284.2c0.1,0.1,0.1,0.2,0.2,0.3l0.5,0.9l1.8,3.4l6.4,12.6c5.4,10.6,13,25.2,21.2,41.4
		s15.8,30.8,21.1,41.5c2.6,5.3,4.8,9.6,6.3,12.6l1.7,3.5l0.4,0.9c0.1,0.2,0.1,0.3,0.1,0.3s-0.1-0.1-0.2-0.3l-0.5-0.9
		c-0.4-0.8-1-2-1.8-3.4c-1.5-3-3.7-7.3-6.4-12.6c-5.4-10.6-12.9-25.3-21.3-41.4s-15.7-30.8-21-41.5l-6.3-12.6
		c-0.7-1.5-1.3-2.6-1.7-3.5c-0.2-0.4-0.3-0.7-0.4-0.9C73.6,284.4,73.5,284.3,73.5,284.2z"/>
	<path class="st3" d="M103.3,310.1c-0.2,1.1-0.4,2.2-0.7,3.3c-0.5,2.1-1.1,4.8-1.8,7.8S99.5,327,99,329c-0.3,1-0.5,1.8-0.7,2.3
		c-0.1,0.3-0.2,0.6-0.3,0.8c0.2-1.1,0.4-2.2,0.7-3.3l1.7-7.8c0.7-3.1,1.4-5.8,1.9-7.8c0.3-1,0.5-1.8,0.7-2.3
		C103.1,310.6,103.2,310.4,103.3,310.1z"/>
	<path class="st3" d="M96.8,332.4c0,0.1-5.7-1.3-12.7-3.3s-12.6-3.6-12.6-3.7s5.7,1.3,12.7,3.3S96.9,332.3,96.8,332.4z"/>
	<path class="st3" d="M112.9,360.2c-0.3,0.1-0.6,0.1-0.9,0.1c-0.6,0.1-1.4,0.1-2.5,0.2c-2.1,0.1-5,0.2-8.2,0.1s-6.1-0.3-8.2-0.5
		c-1-0.1-1.9-0.2-2.5-0.3c-0.3,0-0.6-0.1-0.9-0.2c1.1,0,2.3,0,3.4,0.2c2.1,0.1,5,0.3,8.2,0.4s6.1,0.1,8.2,0.1
		C110.6,360.1,111.8,360.2,112.9,360.2z"/>
	<path class="st3" d="M123.2,341.3c-0.4,1-0.9,1.9-1.4,2.8c-0.9,1.7-2.2,4.1-3.7,6.6s-2.8,4.9-3.8,6.6c-0.5,0.9-1.1,1.8-1.7,2.6
		c0.4-1,0.9-1.9,1.4-2.8c0.9-1.7,2.2-4.1,3.7-6.6s2.8-4.9,3.8-6.6C122,343.1,122.6,342.2,123.2,341.3z"/>
	<path class="st3" d="M140.5,364.1c-0.1,0.4-0.3,0.7-0.4,1l-1.4,2.6c-1.2,2.2-2.9,5.2-4.8,8.5s-3.6,6.3-4.9,8.4
		c-0.6,1-1.1,1.8-1.5,2.5c-0.2,0.3-0.4,0.6-0.6,0.9c0.1-0.3,0.3-0.7,0.4-1l1.4-2.6c1.2-2.2,2.9-5.2,4.8-8.5s3.6-6.2,4.9-8.4l1.5-2.5
		C140,364.7,140.3,364.4,140.5,364.1z"/>
	<path class="st3" d="M127,387.3c-0.4,0.1-0.8,0.1-1.2,0.1c-0.8,0-1.8,0-3.2,0.1c-2.7,0-6.3,0-10.4-0.3s-7.7-0.6-10.4-0.9
		c-1.3-0.1-2.4-0.3-3.1-0.4c-0.4,0-0.8-0.1-1.1-0.2c0.4,0,0.8,0,1.2,0l3.1,0.3c2.7,0.2,6.3,0.5,10.4,0.7s7.7,0.3,10.4,0.4l3.2,0.1
		C126.2,387.1,126.6,387.2,127,387.3z"/>
</g>
<g id="Character--inject-94">
	<path class="st4" d="M452.1,263.9l-33.5,32.6l-30.8,58.9l-34.7,66.5l-42.6-20l-46.1-23.6l29.5-56.3l18.3-63
		c-12.9,8.6-37,20.3-65.7,14.2c-31.1-6.6-16.2-124-16.2-124l34.2-0.9l3.4,82.8l38.6-17.1l0.1,0.1c2.3-1,4.4-2,5.5-2.6
		c21.4-11.7,35.4-13.1,58.4-4.9l0,0l33.1,11C412.2,221.7,443.5,237.1,452.1,263.9"/>
	<path class="st3" d="M335,204.2c0,0-0.8,0.4-2.1,1.4c-1.8,1.3-3.4,2.9-4.8,4.7c-2,2.7-3.6,5.6-4.7,8.8c-1.4,3.9-2.6,7.8-3.5,11.8
		l-5.9,21.6c-0.8,2.7-1.4,4.9-1.9,6.5c-0.2,0.7-0.4,1.3-0.5,1.8c0,0.2-0.1,0.4-0.2,0.6c0-0.2,0.1-0.4,0.1-0.6
		c0.1-0.5,0.2-1.1,0.4-1.8c0.4-1.6,1-3.9,1.7-6.6c1.5-5.6,3.5-13.2,5.7-21.7c1-4,2.2-7.9,3.6-11.8c1.2-3.2,2.8-6.2,4.9-8.8
		c1.4-1.8,3.1-3.4,5-4.7c0.5-0.3,1-0.7,1.6-0.9C334.6,204.4,334.8,204.3,335,204.2z"/>
	<g class="st5">
		<path d="M322.5,220.8c-9.6,25.9-26.8,40.4-51.1,53.4c14.4-1.6,28.2-6.6,40.2-14.7"/>
	</g>
	<g class="st5">
		<path d="M353,202.4c4.1,64.9,8.1,129.8,12.2,194.8l-12,24.7L353,202.4z"/>
	</g>
	<path class="st6" d="M390.7,269.7c-0.1,0.1-1.4-3-3.1-6.7s-3.2-6.6-3.1-6.7c0.5,0.6,0.9,1.2,1.2,1.8c0.7,1.2,1.5,2.8,2.4,4.7
		s1.5,3.6,2,4.8C390.4,268.3,390.6,269,390.7,269.7z"/>
	<path class="st6" d="M417.9,256c-2.1,1.6-4.2,3.1-6.5,4.4c-2.2,1.5-4.4,2.8-6.8,3.9c2.1-1.6,4.2-3,6.5-4.4
		C413.3,258.5,415.6,257.2,417.9,256z"/>
	<path class="st6" d="M406.1,246.2c-0.3-1.7-0.5-3.5-0.5-5.3c-0.2-1.8-0.2-3.6,0-5.4c0.4,1.8,0.5,3.5,0.5,5.3
		C406.3,242.6,406.3,244.4,406.1,246.2z"/>
	<path class="st6" d="M433.3,244.3c-3.4-1.7-6.5-3.6-9.5-5.9c1.7,0.8,3.4,1.7,4.9,2.7C430.3,242,431.8,243.1,433.3,244.3z"/>
	<path class="st6" d="M391.7,298.2c0.7-2.4,1.6-4.7,2.7-6.9c0.9-2.3,2-4.5,3.2-6.7c-0.7,2.4-1.6,4.7-2.7,6.9
		C394,293.8,392.9,296.1,391.7,298.2z"/>
	<path class="st6" d="M379.6,310.5c-1-1.3-1.8-2.8-2.4-4.3c-0.8-1.4-1.5-3-2-4.5c1,1.3,1.8,2.8,2.5,4.3
		C378.4,307.4,379.1,308.9,379.6,310.5z"/>
	<path class="st6" d="M389.7,327c-1.6,0.7-3.4,1.1-5.1,1.3c-1.7,0.3-3.5,0.4-5.3,0.2c0-0.1,2.4-0.3,5.2-0.7S389.7,326.8,389.7,327z"
		/>
	<path class="st6" d="M402.7,308.9c0.4-1.7,1-3.3,1.8-4.9c0.6-1.6,1.3-3.2,2.2-4.6c-0.4,1.7-1,3.3-1.8,4.9
		C404.4,305.9,403.6,307.5,402.7,308.9z"/>
	<path class="st6" d="M371.1,347.1c-0.1,0.1-1.6-2-3.6-4.3s-3.8-4.1-3.7-4.2C366.8,340.9,369.3,343.8,371.1,347.1z"/>
	<path class="st6" d="M365.4,306.1c-0.7,1.7-1.6,3.4-2.6,5c-0.9,1.7-1.9,3.3-3.1,4.8c0.7-1.7,1.6-3.4,2.6-5
		C363.2,309.2,364.2,307.6,365.4,306.1z"/>
	<path class="st6" d="M369.5,292c-1.9-0.2-3.8-0.6-5.6-1.2c-1.9-0.4-3.7-1-5.5-1.7c1.9,0.2,3.8,0.6,5.6,1.2
		C365.9,290.7,367.7,291.3,369.5,292z"/>
	<path class="st6" d="M369.2,263c1.1,1.3,2.1,2.6,3,4.1c1,1.3,2,2.7,2.8,4.2c-1.2-1.2-2.3-2.5-3.2-3.9
		C370.8,266,369.9,264.6,369.2,263z"/>
	<path class="st6" d="M360,261.5c-2.2,2.4-4.6,4.5-7.3,6.3c1-1.2,2.2-2.4,3.5-3.4C357.4,263.4,358.6,262.4,360,261.5z"/>
	<path class="st6" d="M367.3,246.4c-3.4-2.7-6.2-6-8.3-9.7c0.1-0.1,1.8,2.3,4.1,4.9S367.4,246.3,367.3,246.4z"/>
	<path class="st6" d="M392.9,241.7c-1.8,0.8-3.7,1.5-5.6,2c-1.9,0.7-3.8,1.2-5.8,1.5c1.8-0.8,3.7-1.5,5.6-2
		C389,242.5,390.9,242,392.9,241.7z"/>
	<path class="st6" d="M356.9,217.4c-0.1,0-0.1-2.3-0.4-5.1s-1-5-0.8-5C357,210.5,357.4,214,356.9,217.4L356.9,217.4z"/>
	<path class="st6" d="M334.1,289.9c-0.7,0.6-1.5,1.2-2.4,1.7c-1.5,1-3.5,2.5-5.7,4.2s-4.1,3.3-5.4,4.5c-0.7,0.7-1.5,1.3-2.2,1.9
		c0.6-0.8,1.3-1.5,2-2.1c1.7-1.6,3.5-3.2,5.4-4.6c1.9-1.5,3.8-2.8,5.8-4.1C332.4,290.7,333.2,290.3,334.1,289.9z"/>
	<path class="st6" d="M332.8,281.8c-0.1,0.1-1.8-2.5-4.1-5.6s-4.4-5.4-4.3-5.5c0.6,0.4,1.1,0.9,1.5,1.4c1.1,1.2,2.2,2.5,3.2,3.8
		c1.2,1.5,2.1,3,2.8,4.1C332.3,280.6,332.6,281.2,332.8,281.8z"/>
	<path class="st6" d="M338.9,250.2c-3.1,2.1-6.4,3.9-9.8,5.4c1.5-1.1,3.1-2.1,4.8-2.9C335.5,251.7,337.2,250.9,338.9,250.2z"/>
	<path class="st6" d="M332.9,236.4c-0.6-0.4-1.2-0.8-1.7-1.4c-1.3-1.2-2.5-2.5-3.6-3.8c-1.1-1.4-2.1-2.8-3-4.3
		c-0.4-0.6-0.8-1.3-1-1.9c0.1-0.1,1.9,2.8,4.4,5.9S333,236.3,332.9,236.4z"/>
	<path class="st6" d="M343.2,236.1c0.5-1.5,1.1-3,1.8-4.4c0.6-1.5,1.4-2.9,2.3-4.1c-0.4,1.5-1.1,3-1.8,4.4
		C344.9,233.5,344.2,234.8,343.2,236.1z"/>
	<path class="st6" d="M340.5,220.4c-0.2,0,0-3.1-0.6-6.9s-1.7-6.6-1.5-6.7c0.4,0.6,0.7,1.2,0.9,1.9c0.6,1.5,1,3.1,1.2,4.8
		c0.2,1.6,0.4,3.3,0.3,4.9C340.8,219,340.7,219.7,340.5,220.4z"/>
	<path class="st6" d="M343,300c-0.1-1-0.1-2,0-2.9c0.1-1.8,0.1-4.3,0-7s-0.2-5.2-0.4-7c-0.1-1-0.2-1.9-0.2-2.9
		c0.3,0.9,0.5,1.9,0.5,2.9c0.3,2.3,0.5,4.7,0.5,7.1c0.1,2.4,0,4.7-0.2,7.1C343.3,298.1,343.2,299.1,343,300z"/>
	<path class="st6" d="M341.5,324.9c-1.4-1.3-2.9-2.5-4.4-3.6c-1.6-0.9-3.3-1.8-5.1-2.5C335.9,319.5,339.3,321.7,341.5,324.9
		L341.5,324.9z"/>
	<path class="st6" d="M354,340.3c-2.2,1.4-4.5,2.7-6.9,3.9c-2.3,1.3-4.7,2.4-7.1,3.4c2.2-1.4,4.5-2.7,6.9-3.8
		C349.2,342.4,351.6,341.3,354,340.3z"/>
	<path class="st6" d="M318.8,347.1c-1.8-2-3.5-4.2-5.1-6.4c-1.7-2.1-3.2-4.4-4.6-6.8c1.8,2,3.5,4.2,5.1,6.4
		C315.9,342.5,317.4,344.8,318.8,347.1z"/>
	<path class="st6" d="M308,318.7c-0.2-0.7-0.3-1.4-0.2-2c0-1.3-0.1-3,0-5s0.3-3.7,0.4-5c0-0.7,0.2-1.4,0.4-2c0.1,0-0.1,3.1-0.3,7
		S308.1,318.7,308,318.7z"/>
	<path class="st6" d="M296.2,367.2c-2-1.4-4-2.9-5.8-4.5c-1.9-1.5-3.8-3.2-5.5-4.9c2,1.4,4,2.9,5.8,4.5
		C292.7,363.8,294.5,365.5,296.2,367.2z"/>
	<path class="st6" d="M303.3,365.7c-0.3-2.6-0.5-5.2-0.5-7.8c-0.1-2.6-0.1-5.2,0.1-7.9c0.3,2.6,0.5,5.2,0.5,7.8
		C303.5,360.5,303.5,363.1,303.3,365.7z"/>
	<path class="st6" d="M317.2,395.9c0,0.1-1.2-0.4-3.3-1.1c-5.2-1.7-10.7-2.4-16.2-2.2c-2.1,0.1-3.4,0.2-3.4,0.1
		c0.3-0.1,0.6-0.2,0.9-0.2c0.6-0.1,1.4-0.2,2.5-0.3c5.5-0.4,11.1,0.3,16.3,2.2c0.8,0.3,1.6,0.6,2.3,1
		C316.6,395.5,316.9,395.7,317.2,395.9z"/>
	<path class="st6" d="M328.6,401.4c0.8,0.4,1.6,0.9,2.3,1.5c3.5,2.7,6.6,5.9,9.3,9.3c0.6,0.7,1.1,1.4,1.5,2.3
		c-0.7-0.6-1.3-1.3-1.8-2c-1.1-1.3-2.7-3-4.5-4.8s-3.5-3.4-4.8-4.5C329.9,402.6,329.2,402,328.6,401.4z"/>
	<path class="st6" d="M333.6,349.2c-1-1.9-1.9-3.8-2.6-5.8c-0.9-1.9-1.6-3.9-2.1-6c1,1.9,1.9,3.8,2.6,5.8
		C332.4,345.2,333.1,347.2,333.6,349.2z"/>
	<path class="st6" d="M293.4,247.9c-0.4,0.6-0.9,1.2-1.5,1.7c-1.3,1.2-2.8,2.4-4.3,3.4s-3.1,1.9-4.8,2.7c-0.7,0.4-1.4,0.6-2.1,0.8
		c-0.1-0.1,3.1-1.5,6.6-3.9S293.3,247.8,293.4,247.9z"/>
	<path class="st6" d="M296,237.3c-0.2-3-0.1-6,0.4-8.9C296.6,231.4,296.5,234.4,296,237.3z"/>
	<path class="st6" d="M276,246.2c-1.8-0.5-3.5-1.2-5.2-2.1c-1.7-0.7-3.4-1.6-5-2.6c1.8,0.5,3.5,1.2,5.2,2.1
		C272.8,244.3,274.5,245.2,276,246.2z"/>
	<path class="st6" d="M311.6,232.6c-0.1-1.8-0.1-3.7,0.2-5.5c0-1.8,0.3-3.7,0.7-5.5c0.1,1.8,0.1,3.7-0.2,5.5
		C312.3,229,312,230.8,311.6,232.6z"/>
	<path class="st6" d="M265.5,267.4c-2-0.5-4-1.4-5.7-2.5c-1.8-1-3.5-2.3-4.9-3.9c0.1-0.1,2.2,1.7,5.2,3.4S265.5,267.2,265.5,267.4z"
		/>
	<path class="st6" d="M250.6,247.1c-1.3,1.8-2.7,3.4-4.3,5c-1.4,1.7-3,3.3-4.6,4.7C244.4,253.3,247.4,250,250.6,247.1L250.6,247.1z"
		/>
	<path class="st6" d="M249.4,228.8c-1.7-0.6-3.3-1.5-4.7-2.6c-1.5-1-2.8-2.3-3.8-3.7c0.1-0.1,1.8,1.6,4.1,3.3
		S249.4,228.7,249.4,228.8z"/>
	<path class="st6" d="M240,232.6c-0.6,1.1-1.3,2.1-2.1,2.9c-0.7,1-1.6,1.8-2.5,2.6C236.6,236.1,238.2,234.2,240,232.6z"/>
	<path class="st6" d="M260,198.8c-1.2,1.8-2.5,3.6-3.9,5.2c-1.3,1.7-2.7,3.4-4.3,4.9c1.2-1.8,2.5-3.6,3.9-5.2
		C257,201.9,258.4,200.3,260,198.8z"/>
	<path class="st6" d="M242.9,202.6c-1.5-1.4-3-2.9-4.3-4.5c-1.4-1.5-2.7-3.1-3.9-4.8c1.5,1.4,3,2.9,4.3,4.5
		C240.4,199.3,241.7,200.9,242.9,202.6z"/>
	<path class="st6" d="M251.4,180.9c-1.1-1.5-2.2-3.1-3-4.7c-1-1.6-1.8-3.3-2.5-5c1.1,1.5,2.1,3.1,3,4.8
		C249.9,177.5,250.8,179.2,251.4,180.9z"/>
	<path class="st6" d="M251,166.9c-0.1-0.1,1.4-2,2.6-4.7s1.6-5.1,1.8-5C255.1,160.9,253.6,164.3,251,166.9L251,166.9z"/>
	<path class="st6" d="M234.5,166.1c-0.2-2.1,0.3-4.2,1.2-6.1c0.6-1.4,1.4-2.6,2.4-3.7c0.4-0.5,0.9-0.9,1.4-1.2
		c-1.3,1.6-2.4,3.3-3.4,5.1C235.4,162.1,234.9,164.1,234.5,166.1z"/>
	<path class="st3" d="M378.7,142.3c-0.5-4.1-0.5-8.3-0.1-12.5s2-8.2,4.6-11.4c2.7-3.2,6.9-5.2,11.1-4.7c2.6,0.3,5,1.6,7.5,1.5
		c3-0.1,5.6-1.9,8.3-3.2c4.3-1.9,9.1-2.4,13.6-1.4c2.4,0.5,4.7,1.6,6.5,3.3c1.8,1.7,2.6,4.2,2.1,6.7c3-0.1,6,0.1,9,0.8
		c3,0.7,5.5,2.5,7.2,5c1.5,2.6,1.4,6.2-0.8,8.3c2.9-0.4,5.7,1.5,6.4,4.3c0.5,2.9-0.6,5.8-3,7.4c-2.8,1.7-6.1,2.4-9.4,1.9
		c-2.8-0.5-6-1.3-8.2-3"/>
	<path class="st7" d="M376.5,236.5L376.5,236.5c11.5,2.9,23.2-3.9,26.2-15.4c1.7-6.4,3.1-11.8,3.1-11.8s16.7,2.9,22.2-13
		s15-53.2,15-53.2l0,0c-15.7-14.1-37.9-18.5-57.8-11.6l-3,1L361,209.8c-3.2,11.5,3.5,23.4,15,26.6
		C376.2,236.4,376.4,236.5,376.5,236.5z"/>
	<path class="st8" d="M405.9,209.1c-7.4-2.3-13.9-6.8-18.7-12.8c0,0,1.1,13.1,17.4,17L405.9,209.1z"/>
	<path class="st7" d="M378.7,149.7c-0.2-0.2-9.8-6.9-13.1,4.1s8.4,12,8.5,11.7S378.7,149.7,378.7,149.7z"/>
	<path class="st8" d="M372,160.3c0,0-0.2,0.1-0.6,0.1c-0.5,0-1-0.1-1.4-0.4c-1-0.8-1.5-2.9-0.9-4.9c0.3-1,0.7-1.8,1.4-2.6
		c0.4-0.6,1.1-1,1.9-1c0.5,0,0.9,0.4,1,0.9c0.1,0.4-0.1,0.6,0,0.6s0.3-0.1,0.3-0.6c0-0.3-0.1-0.6-0.2-0.8c-0.2-0.3-0.6-0.5-1-0.6
		c-1-0.1-1.9,0.3-2.5,1.1c-0.8,0.8-1.3,1.8-1.6,2.9c-0.6,2.2-0.1,4.6,1.4,5.6c0.5,0.4,1.2,0.4,1.8,0.2
		C371.9,160.6,372.1,160.3,372,160.3z"/>
	<path class="st3" d="M429.6,166.1c-0.4,1.3-1.7,1.9-3,1.6c-1.2-0.3-2-1.6-1.7-2.8c0,0,0,0,0-0.1c0.4-1.2,1.7-1.9,3-1.6
		C429.1,163.5,429.9,164.7,429.6,166.1C429.6,166,429.6,166,429.6,166.1z"/>
	<path class="st3" d="M432.6,164.5c-0.4,0.2-1.7-1.6-4.1-2.5s-4.6-0.2-4.8-0.6c-0.1-0.2,0.4-0.6,1.4-0.9c1.3-0.4,2.7-0.4,4,0.1
		c1.3,0.4,2.4,1.2,3.1,2.3C432.7,163.8,432.8,164.4,432.6,164.5z"/>
	<path class="st3" d="M405.6,158c-0.4,1.2-1.7,1.9-3,1.6c-1.2-0.3-2-1.6-1.7-2.8c0,0,0,0,0-0.1c0.4-1.2,1.7-1.9,3-1.6
		C405.2,155.5,405.9,156.7,405.6,158L405.6,158z"/>
	<path class="st3" d="M408.4,156.9c-0.4,0.2-1.7-1.6-4.1-2.5s-4.6-0.2-4.8-0.6c-0.1-0.2,0.4-0.6,1.4-0.9c1.3-0.4,2.7-0.4,4,0.1
		c1.3,0.4,2.4,1.2,3.2,2.3C408.5,156.2,408.6,156.8,408.4,156.9z"/>
	<path class="st3" d="M411.2,178c0-0.1,1.6,0.1,4.2,0.6c0.6,0.1,1.3,0.2,1.5-0.2c0.3-0.6,0.3-1.3,0.2-2c-0.1-1.7-0.2-3.5-0.2-5.4
		c-0.3-7.6-0.3-13.8,0-13.8s0.8,6.2,1.1,13.8c0.1,1.9,0.1,3.7,0.2,5.4c0.1,0.9,0,1.8-0.5,2.6c-0.3,0.4-0.8,0.6-1.3,0.6
		c-0.4,0-0.8-0.1-1.1-0.2C412.7,178.6,411.2,178.1,411.2,178z"/>
	<path class="st3" d="M403.5,177.3c0.4,0.1-0.5,2.8,1.2,5.4s4.5,3.3,4.5,3.7c0,0.2-0.8,0.3-2-0.1c-1.6-0.5-2.9-1.5-3.8-2.9
		c-0.8-1.3-1.1-2.9-0.8-4.5C402.8,177.8,403.3,177.2,403.5,177.3z"/>
	<path class="st3" d="M433.1,159.9c-0.6,0.4-2.1-0.7-4.1-1.4s-3.9-0.9-4.1-1.6c-0.1-0.3,0.4-0.8,1.3-1.1c2.5-0.6,5.1,0.4,6.6,2.4
		C433.4,159.1,433.4,159.7,433.1,159.9z"/>
	<path class="st3" d="M408.2,147c-0.4,0.2-1-0.1-1.7-0.6c-0.9-0.5-1.9-1-2.9-1.4s-2.1-0.6-3.1-0.8c-0.9-0.2-1.5-0.3-1.7-0.7
		s0.3-1,1.4-1.4c3-0.9,6.2,0.3,7.8,2.9C408.6,146.1,408.6,146.8,408.2,147z"/>
	<path class="st3" d="M442.2,148.3c-8.4-0.5-16.3-3.6-22.8-8.9c-7.2-5.9-16.2-10-18.6-8.8s-4.8,9.4-13.4,10c0,0-3.1,16.1-9.3,14
		s3.4-25.8,3.4-25.8l17.2-4.1l17.7,0.7l15.9,3.6l13.7,7.9L442.2,148.3z"/>
	<rect x="128.6" y="85.4" class="st6" width="224.5" height="349.6"/>
	<path class="st3" d="M353.1,435c0-2.1-0.1-144.1-0.2-349.6l0.2,0.2H128.6l0,0l0.3-0.3c0,132.3,0,254.1-0.1,349.6l-0.2-0.2
		L353.1,435l-224.5,0.2h-0.2V435c0-95.6,0-217.4-0.1-349.6v-0.3h0.3h224.5h0.2v0.2C353.2,290.9,353.1,432.9,353.1,435z"/>
	<path class="st4" d="M188.8,163.2h-28.7c-2,0-3.6-1.6-3.6-3.6v-39.8c0-2,1.6-3.6,3.6-3.6h18.2l14.1,14.5v28.8
		C192.4,161.6,190.8,163.2,188.8,163.2z"/>
	<path class="st4" d="M178.3,116.3v11.2c0,1.8,1.5,3.3,3.3,3.3h10.8L178.3,116.3z"/>
	<g class="st9">
		<path d="M178.4,128.4c0,1.7,1.2,3.2,2.9,3.6l0.4,0.1c1.4,0.2,10.6,1.9,10.6,1.7v-3h-10.8C181.6,130.8,178.9,130.7,178.4,128.4z"/>
	</g>
	<g class="st5">
		<path class="st10" d="M178.3,116.3v11.2c0,1.8,1.5,3.3,3.3,3.3h10.8L178.3,116.3z"/>
	</g>
	<path class="st6" d="M175.9,127c-2.2,0.3-4.4,0.3-6.6,0.3c-2.2,0.1-4.4,0-6.6-0.3c2.2-0.3,4.4-0.3,6.6-0.3
		C171.4,126.7,173.7,126.7,175.9,127z"/>
	<path class="st6" d="M184.4,133.3c0,0.1-4.9,0.3-10.9,0.3s-10.9-0.1-10.9-0.3s4.9-0.3,10.9-0.3S184.4,133.2,184.4,133.3z"/>
	<path class="st6" d="M186.4,138.6c0,0.1-5.3,0.3-11.9,0.3s-11.9-0.1-11.9-0.3s5.3-0.3,11.9-0.3S186.4,138.5,186.4,138.6z"/>
	<path class="st6" d="M186.4,143.6c0,0.1-5.3,0.3-11.9,0.3s-11.9-0.1-11.9-0.3s5.3-0.3,11.9-0.3S186.4,143.5,186.4,143.6z"/>
	<path class="st6" d="M186.4,148.6c0,0.1-5.3,0.3-11.9,0.3s-11.9-0.1-11.9-0.3s5.3-0.3,11.9-0.3S186.4,148.4,186.4,148.6z"/>
	<path class="st6" d="M186.4,153.6c0,0.1-5.3,0.3-11.9,0.3s-11.9-0.1-11.9-0.3s5.3-0.3,11.9-0.3S186.4,153.4,186.4,153.6z"/>
	<path class="st1" d="M220.4,153.5l-2.4,7h-1.1l-1.9-5.6l-1.9,5.6H212l-2.4-7h1l1.9,5.7l2-5.7h0.9l1.9,5.8l1.9-5.8H220.4z"/>
	<path class="st1" d="M225.8,158.2h-4.3c0.1,1,1,1.6,1.9,1.6c0.6,0,1.1-0.2,1.5-0.6l0.5,0.6c-0.5,0.6-1.3,0.9-2.1,0.9
		c-1.5,0.1-2.7-1-2.9-2.5c0-0.1,0-0.2,0-0.3c-0.1-1.4,1.1-2.7,2.5-2.7c0.1,0,0.1,0,0.2,0c1.4,0,2.6,1.1,2.6,2.5c0,0.1,0,0.2,0,0.2
		C225.9,158,225.8,158.1,225.8,158.2z M221.5,157.5h3.4c-0.1-0.9-1-1.6-1.9-1.5C222.2,156.1,221.6,156.7,221.5,157.5z"/>
	<path class="st1" d="M227.2,153.1h1v7.5h-1V153.1z"/>
	<path class="st1" d="M229.5,157.9c0-1.5,1.1-2.7,2.6-2.7c0.1,0,0.1,0,0.2,0c0.9,0,1.7,0.4,2.2,1.1l-0.7,0.5
		c-0.3-0.5-0.9-0.8-1.4-0.8c-1,0.1-1.8,1-1.7,2c0.1,0.9,0.8,1.7,1.7,1.7c0.6,0,1.1-0.3,1.4-0.8l0.7,0.5c-0.5,0.8-1.3,1.2-2.2,1.1
		c-1.5,0.1-2.7-1-2.8-2.5C229.5,158,229.5,158,229.5,157.9z"/>
	<path class="st1" d="M235.2,157.9c0-1.5,1.2-2.8,2.7-2.8s2.8,1.2,2.8,2.7s-1.2,2.8-2.7,2.8l0,0c-1.5,0.1-2.7-1.1-2.8-2.5
		C235.2,158,235.2,158,235.2,157.9z M239.7,157.9c0-1-0.9-1.8-1.9-1.7c-1,0-1.8,0.9-1.7,1.9c0,1,0.8,1.7,1.8,1.7s1.8-0.7,1.8-1.7
		C239.7,158,239.7,158,239.7,157.9L239.7,157.9z"/>
	<path class="st1" d="M250.9,157.5v3.1h-1v-2.9c0-1.1-0.5-1.6-1.4-1.6s-1.6,0.6-1.6,1.8v2.7h-1v-2.9c0-1.1-0.5-1.6-1.4-1.6
		s-1.6,0.6-1.6,1.8v2.7h-1v-5.3h1.1v0.8c0.4-0.6,1.1-0.9,1.8-0.9c0.8,0,1.5,0.3,1.9,1c0.5-0.7,1.2-1,2.1-1c1.1-0.1,2.1,0.7,2.2,1.8
		C250.9,157.2,250.9,157.3,250.9,157.5z"/>
	<path class="st1" d="M257.5,158.2h-4.3c0.1,1,1,1.6,1.9,1.6c0.6,0,1.1-0.2,1.5-0.6l0.5,0.6c-1.1,1.2-3,1.2-4.1,0.1
		c-0.5-0.5-0.8-1.2-0.9-1.9c-0.1-1.4,1.1-2.7,2.5-2.7c0.1,0,0.1,0,0.2,0c1.4,0,2.6,1.1,2.6,2.5c0,0.1,0,0.2,0,0.2
		C257.5,158,257.5,158.1,257.5,158.2z M253.2,157.5h3.4c-0.1-0.9-1-1.6-1.9-1.5C253.9,156.1,253.3,156.7,253.2,157.5z"/>
	<path class="st1" d="M258.6,160c0-0.4,0.3-0.6,0.6-0.6l0,0c0.4,0,0.6,0.3,0.6,0.6c0,0.4-0.3,0.6-0.6,0.6l0,0
		C258.9,160.7,258.7,160.4,258.6,160L258.6,160z M258.7,153.5h1.1l-0.2,4.8h-0.8L258.7,153.5z"/>
	<path class="st1" d="M337.5,106.9h1.2c0.7,0,1.3,0.6,1.3,1.3v290.9c0,0.7-0.6,1.3-1.3,1.3h-1.2c-0.7,0-1.3-0.6-1.3-1.3V108.2
		C336.2,107.5,336.8,106.9,337.5,106.9z"/>
	<path class="st4" d="M337.5,106.9h1.2c0.7,0,1.3,0.6,1.3,1.3v148.7c0,0.7-0.6,1.3-1.3,1.3h-1.2c-0.7,0-1.3-0.6-1.3-1.3V108.2
		C336.2,107.5,336.8,106.9,337.5,106.9z"/>
	<path class="st3" d="M163.8,194.5v7h-1v-6.1h-1.6v-0.9H163.8z"/>
	<path class="st3" d="M165.3,200.9c0-0.4,0.3-0.7,0.7-0.7s0.7,0.3,0.7,0.7s-0.3,0.7-0.7,0.7C165.6,201.6,165.3,201.3,165.3,200.9
		C165.3,201,165.3,200.9,165.3,200.9z"/>
	<path class="st3" d="M166.5,309.9v0.9h-5v-0.7l2.9-2.8c0.8-0.7,0.9-1.2,0.9-1.6c0-0.7-0.5-1.2-1.5-1.2c-0.7,0-1.4,0.2-1.8,0.8
		l-0.7-0.6c0.7-0.7,1.6-1.1,2.6-1.1c1.5,0,2.4,0.8,2.4,2c0,0.9-0.4,1.7-1.1,2.2l-2.2,2.1L166.5,309.9z"/>
	<path class="st3" d="M167.4,310.2c0-0.4,0.3-0.7,0.6-0.7l0,0c0.4,0,0.7,0.3,0.7,0.7s-0.3,0.7-0.7,0.7
		C167.7,310.9,167.4,310.5,167.4,310.2L167.4,310.2z"/>
	<path class="st3" d="M315.2,217.4c0,0.1-34.5,0.3-77.1,0.3s-77.1-0.1-77.1-0.3s34.5-0.3,77.1-0.3S315.2,217.2,315.2,217.4z"/>
	<path class="st3" d="M315.2,229.1c0,0.1-34.5,0.3-77.1,0.3s-77.1-0.1-77.1-0.3s34.5-0.3,77.1-0.3S315.2,228.9,315.2,229.1z"/>
	<path class="st3" d="M315.2,240.7c0,0.1-34.5,0.3-77.1,0.3s-77.1-0.1-77.1-0.3s34.5-0.3,77.1-0.3S315.2,240.6,315.2,240.7z"/>
	<path class="st3" d="M315.2,252.4c0,0.1-34.5,0.3-77.1,0.3s-77.1-0.1-77.1-0.3s34.5-0.3,77.1-0.3S315.2,252.2,315.2,252.4z"/>
	<path class="st3" d="M315.2,264c0,0.1-34.5,0.3-77.1,0.3S161,264.2,161,264s34.5-0.3,77.1-0.3S315.2,263.9,315.2,264z"/>
	<path class="st3" d="M315.2,275.7c0,0.1-34.5,0.3-77.1,0.3s-77.1-0.1-77.1-0.3s34.5-0.3,77.1-0.3S315.2,275.6,315.2,275.7z"/>
	<path class="st3" d="M315.2,320c0,0.1-34.5,0.3-77.1,0.3S161,320.2,161,320s34.5-0.3,77.1-0.3S315.2,319.9,315.2,320z"/>
	<path class="st1" d="M315.2,330c0,0.1-34.5,0.3-77.1,0.3S161,330.2,161,330s34.5-0.3,77.1-0.3S315.2,329.9,315.2,330z"/>
	<path class="st2" d="M315.2,340c0,0.1-34.5,0.3-77.1,0.3S161,340.2,161,340s34.5-0.3,77.1-0.3S315.2,339.8,315.2,340z"/>
	<rect x="244.9" y="369.8" class="st4" width="81.5" height="30.4"/>
	<path class="st10" d="M272.1,386.6h-4l-0.8,1.9h-1.1l3.4-7.5h1.1l3.4,7.5H273L272.1,386.6z M271.7,385.7l-1.6-3.7l-1.6,3.7H271.7z"
		/>
	<path class="st10" d="M274.5,385.6c0-1.6,1.2-2.9,2.8-2.9c0.1,0,0.1,0,0.2,0c0.9-0.1,1.8,0.4,2.3,1.2l-0.8,0.5
		c-0.3-0.5-0.9-0.8-1.5-0.8c-1.1,0-2,0.9-2,2s0.9,2,2,2c0.6,0,1.2-0.3,1.5-0.8l0.8,0.5c-0.5,0.8-1.4,1.3-2.3,1.2
		c-1.6,0.1-2.9-1.1-3-2.7C274.5,385.7,274.4,385.7,274.5,385.6z"/>
	<path class="st10" d="M280.5,385.6c0-1.6,1.2-2.9,2.8-2.9c0.1,0,0.1,0,0.2,0c0.9-0.1,1.8,0.4,2.3,1.2l-0.8,0.5
		c-0.3-0.5-0.9-0.8-1.5-0.8c-1.1,0-2,0.9-2,2s0.9,2,2,2c0.6,0,1.2-0.3,1.5-0.8l0.8,0.5c-0.5,0.8-1.4,1.3-2.3,1.2
		c-1.6,0.1-2.9-1.1-3-2.7C280.5,385.7,280.5,385.7,280.5,385.6z"/>
	<path class="st10" d="M292.3,386h-4.6c0.1,1,1,1.7,2.1,1.7c0.6,0,1.2-0.2,1.6-0.7l0.6,0.7c-0.6,0.6-1.4,1-2.3,0.9
		c-1.6,0.1-2.9-1.1-3.1-2.6c0-0.1,0-0.2,0-0.3c-0.1-1.5,1.1-2.8,2.7-2.9c0.1,0,0.1,0,0.2,0c1.5,0,2.8,1.1,2.8,2.7c0,0.1,0,0.2,0,0.3
		C292.3,385.7,292.3,385.9,292.3,386z M287.6,385.2h3.7c-0.1-1-1-1.7-2-1.6C288.4,383.7,287.7,384.4,287.6,385.2z"/>
	<path class="st10" d="M299.6,385.6c0.1,1.5-1.1,2.8-2.6,2.9c-0.1,0-0.2,0-0.3,0c-0.8,0-1.5-0.3-2-0.9v3h-1v-7.8h1v0.9
		c0.5-0.6,1.2-1,2-1c1.5-0.1,2.8,1.1,2.9,2.6C299.6,385.4,299.6,385.5,299.6,385.6z M298.6,385.6c0-1.1-0.9-1.9-2-1.9
		s-1.9,0.9-1.9,2c0,1,0.9,1.9,1.9,1.9s1.9-0.8,1.9-1.8C298.6,385.7,298.6,385.7,298.6,385.6L298.6,385.6z"/>
	<path class="st10" d="M304.3,388.1c-0.4,0.3-0.8,0.4-1.3,0.4c-0.9,0.1-1.7-0.5-1.8-1.4c0-0.1,0-0.2,0-0.4v-3.1h-1v-0.9h1v-1.2h1
		v1.2h1.6v0.9h-1.6v3.1c-0.1,0.5,0.2,0.9,0.7,1c0.1,0,0.2,0,0.2,0c0.3,0,0.6-0.1,0.8-0.3L304.3,388.1z"/>
	<path class="st4" d="M157.3,400.5c0,0-0.1,0-0.2-0.1l-0.6-0.5l-2.4-1.9l-0.1-0.1h0.1c9.8-3.8,41.9-15.8,81.5-30.5h0.1l0.1,0.1
		l3.2,2.5l0.1,0.1v30.8h-0.3l-58.3-0.1l-17.1-0.1h-4.6h-1.2c-0.1,0-0.3,0-0.4,0h0.4h1.2h4.6l17.1-0.1l58.2-0.1l-0.2,0.2
		c0-7,0-14.4,0-22v-8.4l0.1,0.2l-3.2-2.5h0.2c-39.6,14.7-71.7,26.6-81.6,30.2V398l2.4,2l0.6,0.5H157.3z"/>
	<rect x="154.1" y="367.5" class="st10" width="81.5" height="30.4"/>
	<path class="st4" d="M235.6,397.9c0,0,0-0.2,0-0.5s0-0.9,0-1.6c0-1.4,0-3.4,0-6c0-5.2-0.1-12.8-0.1-22.2l0.2,0.2l-81.5,0.1l0,0
		l0.3-0.3c0,10.6,0,20.9,0,30.4l-0.2-0.2l58.4,0.1l17,0.1h4.6h1.2L235.6,397.9h-0.3h-1.2h-4.5l-16.9,0.1l-58.6,0.1h-0.2v-0.2
		c0-9.5,0-19.8,0-30.4v-0.3h0.3l81.5,0.1h0.2v0.2c0,9.5-0.1,17.1-0.1,22.3c0,2.6,0,4.6,0,6c0,0.7,0,1.2,0,1.5
		S235.6,397.9,235.6,397.9z"/>
	<path class="st4" d="M176.4,380.6h3.2c2.1-0.2,3.9,1.4,4.1,3.5c0.2,2.1-1.4,3.9-3.5,4.1c-0.2,0-0.4,0-0.6,0h-3.2V380.6z
		 M179.6,387.2c1.6,0.1,2.9-1,3.1-2.6c0.1-1.6-1-2.9-2.6-3.1c-0.2,0-0.3,0-0.5,0h-2v5.7H179.6z"/>
	<path class="st4" d="M190.4,385.6h-4.6c0.1,1,1.1,1.8,2.1,1.7c0.6,0,1.2-0.2,1.6-0.7l0.6,0.7c-1.2,1.2-3.2,1.2-4.4,0
		c-0.5-0.5-0.9-1.3-0.9-2c-0.1-1.5,1.1-2.9,2.7-2.9c0.1,0,0.1,0,0.2,0c1.5,0,2.8,1.2,2.8,2.7c0,0.1,0,0.2,0,0.3
		C190.4,385.4,190.4,385.5,190.4,385.6z M185.7,384.9h3.7c-0.1-1-1.1-1.7-2.1-1.6C186.5,383.4,185.8,384,185.7,384.9z"/>
	<path class="st4" d="M191.3,385.3c0-1.6,1.2-2.9,2.8-2.9c0.1,0,0.1,0,0.2,0c0.9-0.1,1.8,0.4,2.3,1.2l-0.8,0.5
		c-0.3-0.5-0.9-0.8-1.6-0.8c-1.1,0-2,0.9-2,2s0.9,2,2,2c0.6,0,1.2-0.3,1.6-0.8l0.8,0.5c-0.5,0.8-1.4,1.3-2.3,1.2
		c-1.6,0.1-2.9-1.1-3-2.7C191.3,385.4,191.3,385.3,191.3,385.3z"/>
	<path class="st4" d="M197.9,380.1h1v8h-1V380.1z"/>
	<path class="st4" d="M200.7,380.6c0-0.4,0.3-0.7,0.7-0.7l0,0c0.4,0,0.7,0.3,0.7,0.7c0,0.4-0.3,0.7-0.7,0.7
		C201,381.3,200.7,381,200.7,380.6z M200.9,382.4h1v5.7h-1V382.4z"/>
	<path class="st4" d="M209.3,384.8v3.3h-1V385c0-1.1-0.6-1.7-1.6-1.7c-0.9-0.1-1.8,0.6-1.8,1.6c0,0.1,0,0.2,0,0.3v3h-1v-5.7h1v0.9
		c0.5-0.6,1.3-1,2.1-0.9c1.2-0.1,2.3,0.9,2.3,2.1C209.3,384.6,209.3,384.7,209.3,384.8z"/>
	<path class="st4" d="M216.4,385.6h-4.6c0.1,1,1,1.7,2.1,1.7c0.6,0,1.2-0.2,1.6-0.7l0.6,0.7c-1.2,1.2-3.2,1.2-4.4,0
		c-0.5-0.5-0.9-1.3-0.9-2c-0.1-1.5,1.1-2.9,2.7-2.9c0.1,0,0.1,0,0.2,0c1.5,0,2.8,1.2,2.8,2.7c0,0.1,0,0.2,0,0.3
		C216.4,385.4,216.4,385.5,216.4,385.6z M211.8,384.9h3.7c-0.1-1-1-1.7-2-1.6C212.6,383.3,211.9,384,211.8,384.9z"/>
	<line class="st11" x1="235.6" y1="397.4" x2="238.8" y2="400.5"/>
	<path class="st4" d="M238.8,400.5c-0.1,0.1-0.9-0.5-1.8-1.3s-1.5-1.6-1.4-1.7s0.9,0.5,1.8,1.3S238.9,400.4,238.8,400.5z"/>
	<path class="st7" d="M355.3,392.9l11.6-5.6l-6.4-18.9l-14.1-3.2c-1.3-0.3-2.8-0.6-4.4-1.1c-1.9-0.5-3.7-1.4-5.3-2.5
		c-2.1-1.3-3.9-2.9-5.6-4.7c-1.3-1.8-4.1-1.1-4.1,0.9s3.5,7.1,9.9,10.7s-4.9,5.3-8.9,6s-16.5,3.5-17.2,4.9c-1.1,2.1,1,3.6,5,2.9
		s16.3-2.4,16.6-0.2v0.1c-2,3.2-1.8,7.3,0.5,10.2c2.3,2.8,5.6,6.4,8.1,5.8C345.8,396.9,355.3,392.9,355.3,392.9z"/>
	<path class="st4" d="M354.6,359.6l10.9,36.9l84.7-25.7c18-5.5,28.1-24.5,22.6-42.5c-0.1-0.2-0.1-0.4-0.2-0.6L451.8,263l-45.1,11.2
		l24.8,59.8L354.6,359.6z"/>
	<path class="st3" d="M452.1,370.1l-0.4,0.1l-1.2,0.4l-4.7,1.5l-17.8,5.4l-61.7,18.7l-0.2,0.1l-0.1-0.2
		c-3.8-11.3-7.4-23.7-11.7-36.4l-0.1-0.2l0.2-0.1l2.1-0.7l74.8-24.8l-0.1,0.3c-6-14.5-10.9-26.4-14.3-34.7c-1.7-4.1-3-7.3-3.9-9.5
		c-0.4-1.1-0.8-1.9-1-2.5s-0.3-0.9-0.3-0.9s0.1,0.3,0.4,0.8l1.1,2.5c0.9,2.2,2.3,5.4,4,9.5c3.4,8.3,8.4,20.1,14.4,34.6l0.1,0.2
		l-0.2,0.1l-74.8,24.9l-2.1,0.7l0.2-0.3c4.2,12.8,7.9,25.1,11.6,36.4l-0.3-0.2l61.7-18.5l17.8-5.3l4.8-1.4l1.2-0.4L452.1,370.1z"/>
	<path class="st3" d="M447.1,344.8c-0.1,0-0.6-0.9-1.8-2.3c-3-3.7-7-6.4-11.5-7.7c-1.7-0.5-2.9-0.6-2.9-0.7c0.3,0,0.5,0,0.8,0
		c0.7,0.1,1.4,0.2,2.1,0.4c2.3,0.6,4.6,1.5,6.6,2.9c2,1.3,3.8,3,5.2,4.9c0.4,0.6,0.8,1.2,1.2,1.8C447,344.2,447.1,344.5,447.1,344.8
		z"/>
	<path class="st6" d="M426.6,277.3c-0.3-1.8-0.3-3.6-0.3-5.5c-0.1-1.8,0-3.7,0.3-5.5C426.9,270,426.9,273.7,426.6,277.3z"/>
	<path class="st6" d="M443.6,278.2c-0.8-1.7-1.4-3.4-1.8-5.2c-0.6-1.8-1.1-3.6-1.3-5.4C441.8,271,442.9,274.6,443.6,278.2z"/>
	<path class="st6" d="M433.1,293.6c-3.5,0-6.9-1-9.9-2.9c0.1-0.1,2.2,0.9,4.9,1.6S433.1,293.4,433.1,293.6z"/>
	<path class="st6" d="M452.3,302c0-1.8,0.3-3.5,0.6-5.2c0.2-1.7,0.6-3.5,1.1-5.1c0,1.8-0.3,3.5-0.6,5.2
		C453.2,298.6,452.9,300.3,452.3,302z"/>
	<path class="st6" d="M445.4,315.8c-1.8-3.1-3.3-6.4-4.5-9.8C442.7,309.1,444.2,312.4,445.4,315.8z"/>
	<path class="st6" d="M442.6,327.8c-1.6-0.5-3.2-1.2-4.8-2c-1.6-0.7-3.1-1.5-4.5-2.5c1.6,0.5,3.2,1.2,4.7,2
		C439.7,326,441.2,326.9,442.6,327.8z"/>
	<path class="st6" d="M464.2,324.6c-0.5,1.6-1.2,3.1-1.9,4.6c-0.6,1.6-1.2,3.1-2,4.5C461,330.5,462.4,327.4,464.2,324.6z"/>
	<path class="st6" d="M458.2,353.7c-0.7-3.7-1.1-7.5-1.1-11.2c0.4,1.8,0.7,3.7,0.8,5.6C458.2,349.9,458.3,351.8,458.2,353.7z"/>
	<path class="st6" d="M442.9,362.9c-1.4-1-2.8-2.1-4-3.3c-1.3-1.1-2.5-2.3-3.6-3.7c1.4,1,2.8,2.1,4,3.3
		C440.6,360.3,441.9,361.5,442.9,362.9z"/>
	<path class="st6" d="M416.5,365.5c-1.9,3.2-4.1,6.2-6.5,8.9c0.9-1.6,1.9-3.2,3.1-4.6C414.1,368.2,415.2,366.8,416.5,365.5z"/>
	<path class="st6" d="M424.9,353.1c-1.5-1-2.9-2.2-4-3.6c-1.3-1.3-2.4-2.7-3.2-4.3c0.1-0.1,1.6,1.8,3.6,4S425,353,424.9,353.1z"/>
	<path class="st6" d="M405,355.9c-1.3,0.5-2.6,0.7-4,0.5c-1.4,0-2.7-0.4-3.9-1.1c0.1-0.1,1.8,0.4,3.9,0.5S405,355.8,405,355.9z"/>
	<path class="st6" d="M392.4,377.8c-0.5-1.4-0.8-2.8-1-4.3c-0.3-1.4-0.5-2.9-0.5-4.4C391.7,371.9,392.2,374.9,392.4,377.8z"/>
	<path class="st6" d="M377.5,385.3c-3.4-1.8-6.7-3.8-9.8-6.2c1.8,0.8,3.5,1.8,5,2.9C374.4,383,376,384.1,377.5,385.3z"/>
	<path class="st6" d="M382.8,358.7c0.1,0.1-1.3,1.8-3,4.1s-2.8,4.1-2.9,4.1c0.6-1.6,1.5-3.1,2.5-4.4
		C380.4,361,381.5,359.8,382.8,358.7z"/>
	<path class="st6" d="M371.3,363.8c-1-0.2-2-0.6-2.9-1.2c-1-0.4-1.9-0.9-2.7-1.6C367.7,361.6,369.6,362.5,371.3,363.8L371.3,363.8z"
		/>
	<g class="st9">
		<path d="M430.8,332.5c4.5,0.5,9,0.9,13.6,1.5c1.6,0.1,3.1,0.5,4.6,1c1.5,0.6,2.7,1.7,3.3,3.2c0.6,1.5,0.1,3.2-1.2,4.2
			c-1.3,0.7-2.9,0.6-4.1-0.2c-1.2-0.8-2.3-1.7-3.4-2.6c-2-1.7-4.4-2.9-6.9-3.6c-1.2-0.2-2.3-0.6-3.3-1.2c-1.1-0.6-1.6-1.8-1.4-3"/>
	</g>
	<rect x="208.2" y="122.3" class="st11" width="135.8" height="24.3"/>
	<g class="st12">
		<path d="M209.4,122.8h1.2v7.4h4.5v1h-5.7V122.8z"/>
		<path d="M222,128.4h-5.2c0.1,0.6,0.3,1,0.7,1.3c0.4,0.3,0.9,0.5,1.6,0.5c0.8,0,1.4-0.3,1.8-0.8l0.6,0.7c-0.3,0.3-0.6,0.6-1.1,0.8
			c-0.4,0.2-0.9,0.3-1.4,0.3c-0.7,0-1.3-0.1-1.8-0.4c-0.5-0.3-0.9-0.7-1.2-1.2c-0.3-0.5-0.4-1.1-0.4-1.7c0-0.6,0.1-1.2,0.4-1.7
			s0.7-0.9,1.1-1.2c0.5-0.3,1-0.4,1.6-0.4s1.1,0.1,1.6,0.4c0.5,0.3,0.8,0.7,1.1,1.2s0.4,1.1,0.4,1.7
			C222.1,128.1,222,128.3,222,128.4z M217.5,126.3c-0.4,0.3-0.6,0.8-0.7,1.3h4.1c-0.1-0.5-0.3-1-0.7-1.3c-0.4-0.3-0.8-0.5-1.4-0.5
			C218.4,125.7,217.9,125.9,217.5,126.3z"/>
		<path d="M227.2,130.8c-0.2,0.1-0.4,0.3-0.6,0.3s-0.5,0.1-0.8,0.1c-0.6,0-1.1-0.2-1.5-0.5c-0.4-0.3-0.5-0.8-0.5-1.5v-3.5h-1.1v-0.9
			h1.1v-1.4h1.2v1.4h1.8v0.9H225v3.4c0,0.3,0.1,0.6,0.3,0.8c0.2,0.2,0.4,0.3,0.7,0.3c0.4,0,0.7-0.1,0.9-0.3L227.2,130.8z"/>
		<path d="M229.5,122.5c0.1,0.2,0.2,0.4,0.2,0.6c0,0.1,0,0.2,0,0.4s-0.1,0.3-0.2,0.5l-0.6,1.7h-0.8l0.4-1.8
			c-0.2-0.1-0.3-0.2-0.4-0.3s-0.1-0.3-0.1-0.5c0-0.2,0.1-0.4,0.2-0.6c0.2-0.2,0.3-0.2,0.6-0.2C229.1,122.2,229.3,122.3,229.5,122.5z
			"/>
		<path d="M231.5,131.1c-0.5-0.1-0.9-0.3-1.1-0.5l0.5-0.9c0.3,0.2,0.6,0.4,1,0.5c0.4,0.1,0.8,0.2,1.2,0.2c1,0,1.5-0.3,1.5-0.9
			c0-0.2-0.1-0.3-0.2-0.5c-0.1-0.1-0.3-0.2-0.5-0.2c-0.2-0.1-0.5-0.1-0.9-0.2c-0.5-0.1-0.9-0.2-1.3-0.3c-0.3-0.1-0.6-0.3-0.8-0.5
			s-0.3-0.6-0.3-1c0-0.6,0.2-1,0.7-1.4c0.5-0.3,1.1-0.5,1.9-0.5c0.4,0,0.8,0.1,1.3,0.2c0.4,0.1,0.8,0.2,1,0.4l-0.5,0.9
			c-0.5-0.3-1.1-0.5-1.8-0.5c-0.5,0-0.9,0.1-1.1,0.2c-0.3,0.2-0.4,0.4-0.4,0.6c0,0.2,0.1,0.4,0.2,0.5s0.3,0.2,0.5,0.3
			c0.2,0.1,0.5,0.1,0.9,0.2c0.5,0.1,0.9,0.2,1.2,0.3c0.3,0.1,0.6,0.3,0.8,0.5c0.2,0.2,0.3,0.6,0.3,1c0,0.6-0.2,1-0.7,1.4
			c-0.5,0.3-1.2,0.5-2,0.5C232.4,131.3,231.9,131.2,231.5,131.1z"/>
		<path d="M246.5,124.8v5.5c0,1.1-0.3,1.9-0.8,2.5c-0.6,0.5-1.4,0.8-2.5,0.8c-0.6,0-1.2-0.1-1.7-0.2c-0.5-0.2-1-0.4-1.3-0.7l0.6-0.9
			c0.3,0.3,0.7,0.5,1.1,0.6c0.4,0.1,0.9,0.2,1.3,0.2c0.7,0,1.3-0.2,1.7-0.5c0.4-0.4,0.5-0.9,0.5-1.6v-0.5c-0.3,0.3-0.6,0.6-1,0.7
			s-0.8,0.2-1.3,0.2c-0.6,0-1.2-0.1-1.6-0.4c-0.5-0.3-0.9-0.6-1.2-1.1c-0.3-0.5-0.4-1-0.4-1.6c0-0.6,0.1-1.1,0.4-1.6
			c0.3-0.5,0.7-0.8,1.2-1.1s1-0.4,1.6-0.4c0.5,0,0.9,0.1,1.3,0.3c0.4,0.2,0.8,0.4,1,0.8v-1H246.5z M244.3,129.7
			c0.3-0.2,0.6-0.4,0.8-0.7c0.2-0.3,0.3-0.7,0.3-1.1c0-0.6-0.2-1.1-0.6-1.5s-0.9-0.6-1.6-0.6c-0.6,0-1.2,0.2-1.6,0.6
			c-0.4,0.4-0.6,0.9-0.6,1.5c0,0.4,0.1,0.8,0.3,1.1c0.2,0.3,0.4,0.6,0.8,0.7s0.7,0.3,1.1,0.3C243.6,129.9,243.9,129.8,244.3,129.7z"
			/>
		<path d="M254.4,128.4h-5.2c0.1,0.6,0.3,1,0.7,1.3c0.4,0.3,0.9,0.5,1.6,0.5c0.8,0,1.4-0.3,1.8-0.8l0.6,0.7
			c-0.3,0.3-0.6,0.6-1.1,0.8c-0.4,0.2-0.9,0.3-1.4,0.3c-0.7,0-1.3-0.1-1.8-0.4c-0.5-0.3-0.9-0.7-1.2-1.2c-0.3-0.5-0.4-1.1-0.4-1.7
			c0-0.6,0.1-1.2,0.4-1.7s0.7-0.9,1.1-1.2c0.5-0.3,1-0.4,1.6-0.4c0.6,0,1.1,0.1,1.6,0.4c0.5,0.3,0.8,0.7,1.1,1.2
			c0.3,0.5,0.4,1.1,0.4,1.7C254.4,128.1,254.4,128.3,254.4,128.4z M249.9,126.3c-0.4,0.3-0.6,0.8-0.7,1.3h4.1
			c-0.1-0.5-0.3-1-0.7-1.3c-0.4-0.3-0.8-0.5-1.4-0.5S250.2,125.9,249.9,126.3z"/>
		<path d="M259.6,130.8c-0.2,0.1-0.4,0.3-0.6,0.3s-0.5,0.1-0.8,0.1c-0.6,0-1.1-0.2-1.5-0.5c-0.4-0.3-0.5-0.8-0.5-1.5v-3.5h-1.1v-0.9
			h1.1v-1.4h1.2v1.4h1.8v0.9h-1.8v3.4c0,0.3,0.1,0.6,0.3,0.8c0.2,0.2,0.4,0.3,0.7,0.3c0.4,0,0.7-0.1,0.9-0.3L259.6,130.8z"/>
		<path d="M269.8,124.8l-3.1,7c-0.3,0.6-0.6,1.1-1,1.4c-0.4,0.3-0.8,0.4-1.3,0.4c-0.3,0-0.6-0.1-0.9-0.2c-0.3-0.1-0.5-0.2-0.7-0.4
			l0.5-0.9c0.3,0.3,0.7,0.5,1.1,0.5c0.3,0,0.5-0.1,0.7-0.2c0.2-0.1,0.4-0.4,0.5-0.8l0.2-0.4l-2.8-6.3h1.2l2.2,5.1l2.2-5.1H269.8z"/>
		<path d="M271.7,130.8c-0.5-0.3-0.9-0.7-1.2-1.2s-0.4-1-0.4-1.7s0.1-1.2,0.4-1.7c0.3-0.5,0.7-0.9,1.2-1.2c0.5-0.3,1.1-0.4,1.7-0.4
			s1.2,0.1,1.7,0.4c0.5,0.3,0.9,0.7,1.2,1.2c0.3,0.5,0.4,1,0.4,1.7s-0.1,1.2-0.4,1.7s-0.7,0.9-1.2,1.2c-0.5,0.3-1.1,0.4-1.7,0.4
			S272.2,131.1,271.7,130.8z M274.5,130c0.3-0.2,0.6-0.5,0.8-0.8c0.2-0.3,0.3-0.7,0.3-1.2c0-0.4-0.1-0.8-0.3-1.2
			c-0.2-0.3-0.4-0.6-0.8-0.8c-0.3-0.2-0.7-0.3-1.1-0.3c-0.4,0-0.8,0.1-1.1,0.3c-0.3,0.2-0.6,0.4-0.8,0.8c-0.2,0.3-0.3,0.7-0.3,1.2
			c0,0.4,0.1,0.8,0.3,1.2c0.2,0.3,0.4,0.6,0.8,0.8c0.3,0.2,0.7,0.3,1.1,0.3C273.9,130.3,274.2,130.2,274.5,130z"/>
		<path d="M284.3,124.8v6.4h-1.1v-1c-0.2,0.3-0.5,0.6-0.9,0.8c-0.4,0.2-0.8,0.3-1.2,0.3c-0.8,0-1.5-0.2-2-0.7
			c-0.5-0.5-0.7-1.2-0.7-2.1v-3.7h1.2v3.5c0,0.6,0.1,1.1,0.4,1.4c0.3,0.3,0.7,0.5,1.3,0.5c0.6,0,1.1-0.2,1.4-0.6
			c0.4-0.4,0.5-0.9,0.5-1.6v-3.3H284.3z"/>
	</g>
	<g class="st12">
		<path d="M211.3,139.5c0.4-0.2,0.9-0.3,1.4-0.3v1.1c-0.1,0-0.2,0-0.3,0c-0.6,0-1.1,0.2-1.5,0.6s-0.5,0.9-0.5,1.6v3.2h-1.2v-6.4h1.1
			v1.1C210.6,139.9,210.9,139.7,211.3,139.5z"/>
		<path d="M219.8,142.8h-5.2c0.1,0.6,0.3,1,0.7,1.3c0.4,0.3,0.9,0.5,1.6,0.5c0.8,0,1.4-0.3,1.8-0.8l0.6,0.7
			c-0.3,0.3-0.6,0.6-1.1,0.8c-0.4,0.2-0.9,0.3-1.4,0.3c-0.7,0-1.3-0.1-1.8-0.4c-0.5-0.3-0.9-0.7-1.2-1.2c-0.3-0.5-0.4-1.1-0.4-1.7
			c0-0.6,0.1-1.2,0.4-1.7s0.7-0.9,1.1-1.2c0.5-0.3,1-0.4,1.6-0.4s1.1,0.1,1.6,0.4c0.5,0.3,0.8,0.7,1.1,1.2s0.4,1.1,0.4,1.7
			C219.8,142.5,219.8,142.7,219.8,142.8z M215.3,140.7c-0.4,0.3-0.6,0.8-0.7,1.3h4.1c-0.1-0.5-0.3-1-0.7-1.3
			c-0.4-0.3-0.8-0.5-1.4-0.5C216.1,140.1,215.6,140.3,215.3,140.7z"/>
		<path d="M227.5,139.2v5.5c0,1.1-0.3,1.9-0.8,2.5c-0.6,0.5-1.4,0.8-2.5,0.8c-0.6,0-1.2-0.1-1.7-0.2c-0.5-0.2-1-0.4-1.3-0.7l0.6-0.9
			c0.3,0.3,0.7,0.5,1.1,0.6c0.4,0.1,0.9,0.2,1.3,0.2c0.7,0,1.3-0.2,1.7-0.5c0.4-0.4,0.5-0.9,0.5-1.6v-0.5c-0.3,0.3-0.6,0.6-1,0.7
			s-0.8,0.2-1.3,0.2c-0.6,0-1.2-0.1-1.6-0.4c-0.5-0.3-0.9-0.6-1.2-1.1c-0.3-0.5-0.4-1-0.4-1.6c0-0.6,0.1-1.1,0.4-1.6
			c0.3-0.5,0.7-0.8,1.2-1.1s1-0.4,1.6-0.4c0.5,0,0.9,0.1,1.3,0.3c0.4,0.2,0.8,0.4,1,0.8v-1H227.5z M225.3,144.1
			c0.3-0.2,0.6-0.4,0.8-0.7c0.2-0.3,0.3-0.7,0.3-1.1c0-0.6-0.2-1.1-0.6-1.5s-0.9-0.6-1.6-0.6c-0.6,0-1.2,0.2-1.6,0.6
			c-0.4,0.4-0.6,0.9-0.6,1.5c0,0.4,0.1,0.8,0.3,1.1c0.2,0.3,0.4,0.6,0.8,0.7s0.7,0.3,1.1,0.3C224.6,144.3,224.9,144.2,225.3,144.1z"
			/>
		<path d="M229.7,137.8c-0.1-0.1-0.2-0.3-0.2-0.5s0.1-0.4,0.2-0.5c0.1-0.1,0.3-0.2,0.6-0.2s0.4,0.1,0.6,0.2c0.1,0.1,0.2,0.3,0.2,0.5
			c0,0.2-0.1,0.4-0.2,0.5c-0.1,0.1-0.3,0.2-0.6,0.2S229.8,137.9,229.7,137.8z M229.7,139.2h1.2v6.4h-1.2V139.2z"/>
		<path d="M233.3,145.5c-0.5-0.1-0.9-0.3-1.1-0.5l0.5-0.9c0.3,0.2,0.6,0.4,1,0.5c0.4,0.1,0.8,0.2,1.2,0.2c1,0,1.5-0.3,1.5-0.9
			c0-0.2-0.1-0.3-0.2-0.5c-0.1-0.1-0.3-0.2-0.5-0.2c-0.2-0.1-0.5-0.1-0.9-0.2c-0.5-0.1-0.9-0.2-1.3-0.3c-0.3-0.1-0.6-0.3-0.8-0.5
			s-0.3-0.6-0.3-1c0-0.6,0.2-1,0.7-1.4c0.5-0.3,1.1-0.5,1.9-0.5c0.4,0,0.8,0.1,1.3,0.2c0.4,0.1,0.8,0.2,1,0.4l-0.5,0.9
			c-0.5-0.3-1.1-0.5-1.8-0.5c-0.5,0-0.9,0.1-1.1,0.2c-0.3,0.2-0.4,0.4-0.4,0.6c0,0.2,0.1,0.4,0.2,0.5s0.3,0.2,0.5,0.3
			c0.2,0.1,0.5,0.1,0.9,0.2c0.5,0.1,0.9,0.2,1.2,0.3c0.3,0.1,0.6,0.3,0.8,0.5c0.2,0.2,0.3,0.6,0.3,1c0,0.6-0.2,1-0.7,1.4
			c-0.5,0.3-1.2,0.5-2,0.5C234.3,145.7,233.8,145.6,233.3,145.5z"/>
		<path d="M242.6,145.2c-0.2,0.1-0.4,0.3-0.6,0.3s-0.5,0.1-0.8,0.1c-0.6,0-1.1-0.2-1.5-0.5c-0.4-0.3-0.5-0.8-0.5-1.5v-3.5h-1.1v-0.9
			h1.1v-1.4h1.2v1.4h1.8v0.9h-1.8v3.4c0,0.3,0.1,0.6,0.3,0.8c0.2,0.2,0.4,0.3,0.7,0.3c0.4,0,0.7-0.1,0.9-0.3L242.6,145.2z"/>
		<path d="M249.5,142.8h-5.2c0.1,0.6,0.3,1,0.7,1.3c0.4,0.3,0.9,0.5,1.6,0.5c0.8,0,1.4-0.3,1.8-0.8l0.6,0.7
			c-0.3,0.3-0.6,0.6-1.1,0.8c-0.4,0.2-0.9,0.3-1.4,0.3c-0.7,0-1.3-0.1-1.8-0.4c-0.5-0.3-0.9-0.7-1.2-1.2c-0.3-0.5-0.4-1.1-0.4-1.7
			c0-0.6,0.1-1.2,0.4-1.7s0.7-0.9,1.1-1.2c0.5-0.3,1-0.4,1.6-0.4s1.1,0.1,1.6,0.4c0.5,0.3,0.8,0.7,1.1,1.2s0.4,1.1,0.4,1.7
			C249.5,142.5,249.5,142.7,249.5,142.8z M245,140.7c-0.4,0.3-0.6,0.8-0.7,1.3h4.1c-0.1-0.5-0.3-1-0.7-1.3c-0.4-0.3-0.8-0.5-1.4-0.5
			C245.8,140.1,245.4,140.3,245,140.7z"/>
		<path d="M253.1,139.5c0.4-0.2,0.9-0.3,1.4-0.3v1.1c-0.1,0-0.2,0-0.3,0c-0.6,0-1.1,0.2-1.5,0.6c-0.4,0.4-0.5,0.9-0.5,1.6v3.2h-1.2
			v-6.4h1.1v1.1C252.4,139.9,252.7,139.7,253.1,139.5z"/>
		<path d="M261.6,142.8h-5.2c0.1,0.6,0.3,1,0.7,1.3c0.4,0.3,0.9,0.5,1.6,0.5c0.8,0,1.4-0.3,1.8-0.8l0.6,0.7
			c-0.3,0.3-0.6,0.6-1.1,0.8c-0.4,0.2-0.9,0.3-1.4,0.3c-0.7,0-1.3-0.1-1.8-0.4c-0.5-0.3-0.9-0.7-1.2-1.2s-0.4-1.1-0.4-1.7
			c0-0.6,0.1-1.2,0.4-1.7c0.3-0.5,0.7-0.9,1.1-1.2c0.5-0.3,1-0.4,1.6-0.4c0.6,0,1.2,0.1,1.6,0.4c0.5,0.3,0.8,0.7,1.1,1.2
			c0.3,0.5,0.4,1.1,0.4,1.7C261.6,142.5,261.6,142.7,261.6,142.8z M257.1,140.7c-0.4,0.3-0.6,0.8-0.7,1.3h4.1
			c-0.1-0.5-0.3-1-0.7-1.3c-0.4-0.3-0.8-0.5-1.4-0.5C257.9,140.1,257.5,140.3,257.1,140.7z"/>
		<path d="M269.2,136.7v8.9h-1.1v-1c-0.3,0.4-0.6,0.6-1,0.8c-0.4,0.2-0.8,0.3-1.3,0.3c-0.6,0-1.2-0.1-1.7-0.4
			c-0.5-0.3-0.9-0.7-1.1-1.1c-0.3-0.5-0.4-1.1-0.4-1.7c0-0.6,0.1-1.2,0.4-1.7c0.3-0.5,0.7-0.9,1.1-1.1c0.5-0.3,1-0.4,1.7-0.4
			c0.5,0,0.9,0.1,1.3,0.3s0.7,0.4,1,0.8v-3.5H269.2z M267.1,144.4c0.3-0.2,0.6-0.5,0.8-0.8c0.2-0.3,0.3-0.7,0.3-1.2
			c0-0.4-0.1-0.8-0.3-1.2c-0.2-0.3-0.4-0.6-0.8-0.8c-0.3-0.2-0.7-0.3-1.1-0.3c-0.4,0-0.8,0.1-1.1,0.3c-0.3,0.2-0.6,0.4-0.8,0.8
			c-0.2,0.3-0.3,0.7-0.3,1.2c0,0.4,0.1,0.8,0.3,1.2c0.2,0.3,0.4,0.6,0.8,0.8c0.3,0.2,0.7,0.3,1.1,0.3
			C266.4,144.7,266.7,144.6,267.1,144.4z"/>
		<path d="M271.4,145.4c-0.2-0.1-0.2-0.3-0.2-0.5s0.1-0.4,0.2-0.5c0.2-0.1,0.3-0.2,0.6-0.2s0.4,0.1,0.6,0.2c0.1,0.1,0.2,0.3,0.2,0.5
			s-0.1,0.4-0.2,0.5c-0.1,0.1-0.3,0.2-0.5,0.2C271.7,145.7,271.5,145.6,271.4,145.4z M271.3,137.2h1.4l-0.2,5.7h-0.9L271.3,137.2z"
			/>
	</g>
	<rect x="173" y="194.2" class="st11" width="135.8" height="8.5"/>
	<g class="st12">
		<path d="M180,194.6v7h-0.8l-4.2-5.2v5.2h-1v-7h0.8l4.2,5.2v-5.2H180z"/>
		<path d="M185.6,196.8c0.4,0.4,0.6,0.9,0.6,1.6v3.2h-0.9v-0.7c-0.2,0.2-0.4,0.4-0.7,0.6c-0.3,0.1-0.6,0.2-1.1,0.2
			c-0.6,0-1.1-0.1-1.4-0.4c-0.4-0.3-0.5-0.7-0.5-1.1s0.2-0.8,0.5-1.1c0.3-0.3,0.9-0.4,1.6-0.4h1.5v-0.2c0-0.4-0.1-0.7-0.4-1
			c-0.2-0.2-0.6-0.3-1.1-0.3c-0.3,0-0.6,0.1-0.9,0.2c-0.3,0.1-0.6,0.2-0.8,0.4l-0.4-0.7c0.3-0.2,0.6-0.4,1-0.5
			c0.4-0.1,0.8-0.2,1.2-0.2C184.6,196.3,185.2,196.4,185.6,196.8z M184.6,200.7c0.3-0.2,0.5-0.4,0.6-0.7v-0.7h-1.5
			c-0.8,0-1.2,0.3-1.2,0.8c0,0.3,0.1,0.5,0.3,0.6c0.2,0.2,0.5,0.2,0.9,0.2C184.1,200.9,184.4,200.8,184.6,200.7z"/>
		<path d="M196.2,196.8c0.4,0.4,0.6,1,0.6,1.7v3h-1v-2.9c0-0.5-0.1-0.9-0.4-1.2c-0.2-0.3-0.6-0.4-1-0.4c-0.5,0-0.9,0.2-1.2,0.5
			c-0.3,0.3-0.4,0.7-0.4,1.3v2.7h-1v-2.9c0-0.5-0.1-0.9-0.4-1.2c-0.2-0.3-0.6-0.4-1-0.4c-0.5,0-0.9,0.2-1.2,0.5
			c-0.3,0.3-0.4,0.7-0.4,1.3v2.7h-1v-5.3h0.9v0.8c0.2-0.3,0.4-0.5,0.8-0.6s0.7-0.2,1.1-0.2c0.4,0,0.8,0.1,1.1,0.2
			c0.3,0.2,0.6,0.4,0.7,0.7c0.2-0.3,0.5-0.5,0.8-0.7c0.4-0.2,0.8-0.3,1.2-0.3C195.3,196.3,195.8,196.4,196.2,196.8z"/>
		<path d="M203.3,199.3H199c0.1,0.5,0.3,0.8,0.6,1.1s0.8,0.4,1.3,0.4c0.6,0,1.1-0.2,1.5-0.6l0.5,0.6c-0.2,0.3-0.5,0.5-0.9,0.6
			c-0.4,0.1-0.8,0.2-1.2,0.2c-0.6,0-1.1-0.1-1.5-0.3c-0.4-0.2-0.8-0.6-1-1s-0.4-0.9-0.4-1.4c0-0.5,0.1-1,0.3-1.4s0.5-0.7,0.9-1
			c0.4-0.2,0.9-0.3,1.4-0.3c0.5,0,1,0.1,1.4,0.3c0.4,0.2,0.7,0.6,0.9,1c0.2,0.4,0.3,0.9,0.3,1.4
			C203.4,199.1,203.3,199.1,203.3,199.3z M199.6,197.5c-0.3,0.3-0.5,0.6-0.5,1.1h3.4c-0.1-0.4-0.2-0.8-0.5-1.1s-0.7-0.4-1.2-0.4
			S199.9,197.2,199.6,197.5z"/>
	</g>
	<rect x="174" y="303.3" class="st11" width="135.8" height="7.8"/>
	<g class="st12">
		<path d="M175,303.7h2.7c0.7,0,1.3,0.1,1.8,0.4c0.5,0.3,0.9,0.6,1.2,1.1c0.3,0.5,0.4,1,0.4,1.6c0,0.6-0.1,1.2-0.4,1.6
			c-0.3,0.5-0.7,0.8-1.2,1.1c-0.5,0.3-1.1,0.4-1.8,0.4H175V303.7z M177.6,309.2c0.5,0,1-0.1,1.3-0.3c0.4-0.2,0.7-0.5,0.9-0.8
			c0.2-0.4,0.3-0.8,0.3-1.2c0-0.5-0.1-0.9-0.3-1.2c-0.2-0.4-0.5-0.6-0.9-0.8c-0.4-0.2-0.8-0.3-1.3-0.3h-1.7v4.7H177.6z"/>
		<path d="M186.6,307.9h-3.9c0.1,0.4,0.2,0.8,0.6,1c0.3,0.3,0.7,0.4,1.2,0.4c0.6,0,1-0.2,1.4-0.6l0.5,0.6c-0.2,0.3-0.5,0.4-0.8,0.6
			c-0.3,0.1-0.7,0.2-1.1,0.2c-0.5,0-1-0.1-1.3-0.3c-0.4-0.2-0.7-0.5-0.9-0.9c-0.2-0.4-0.3-0.8-0.3-1.3c0-0.5,0.1-0.9,0.3-1.3
			s0.5-0.7,0.9-0.9c0.4-0.2,0.8-0.3,1.2-0.3s0.9,0.1,1.2,0.3c0.4,0.2,0.6,0.5,0.8,0.9c0.2,0.4,0.3,0.8,0.3,1.3
			C186.6,307.7,186.6,307.8,186.6,307.9z M183.2,306.3c-0.3,0.3-0.4,0.6-0.5,1h3.1c0-0.4-0.2-0.7-0.5-1c-0.3-0.3-0.6-0.4-1-0.4
			S183.5,306,183.2,306.3z"/>
		<path d="M190.5,309.7c-0.1,0.1-0.3,0.2-0.5,0.2c-0.2,0.1-0.4,0.1-0.6,0.1c-0.5,0-0.9-0.1-1.1-0.4c-0.3-0.3-0.4-0.6-0.4-1.1V306
			h-0.8v-0.7h0.8v-1h0.9v1h1.4v0.7h-1.4v2.6c0,0.3,0.1,0.5,0.2,0.6s0.3,0.2,0.6,0.2c0.3,0,0.5-0.1,0.7-0.2L190.5,309.7z"/>
		<path d="M194.8,305.7c0.4,0.3,0.5,0.8,0.5,1.4v2.9h-0.8v-0.6c-0.1,0.2-0.3,0.4-0.6,0.5c-0.3,0.1-0.6,0.2-0.9,0.2
			c-0.5,0-1-0.1-1.3-0.4c-0.3-0.3-0.5-0.6-0.5-1s0.2-0.8,0.5-1c0.3-0.3,0.8-0.4,1.5-0.4h1.4v-0.2c0-0.4-0.1-0.7-0.3-0.9
			c-0.2-0.2-0.5-0.3-1-0.3c-0.3,0-0.6,0-0.8,0.1c-0.3,0.1-0.5,0.2-0.7,0.4l-0.4-0.6c0.2-0.2,0.5-0.3,0.9-0.5
			c0.3-0.1,0.7-0.2,1.1-0.2C193.9,305.2,194.4,305.4,194.8,305.7z M193.9,309.2c0.2-0.1,0.4-0.4,0.5-0.6v-0.7h-1.3
			c-0.7,0-1.1,0.2-1.1,0.7c0,0.2,0.1,0.4,0.3,0.6c0.2,0.1,0.4,0.2,0.8,0.2S193.7,309.3,193.9,309.2z"/>
		<path d="M196.9,304.2c-0.1-0.1-0.2-0.2-0.2-0.4s0.1-0.3,0.2-0.4s0.3-0.2,0.4-0.2s0.3,0.1,0.4,0.2c0.1,0.1,0.2,0.2,0.2,0.4
			c0,0.2-0.1,0.3-0.2,0.4c-0.1,0.1-0.2,0.2-0.4,0.2S197,304.3,196.9,304.2z M196.9,305.2h0.9v4.8h-0.9V305.2z"/>
		<path d="M199.4,303.3h0.9v6.7h-0.9V303.3z"/>
		<path d="M202.1,309.9c-0.4-0.1-0.6-0.2-0.8-0.4l0.4-0.7c0.2,0.2,0.5,0.3,0.8,0.4c0.3,0.1,0.6,0.1,0.9,0.1c0.8,0,1.1-0.2,1.1-0.6
			c0-0.1-0.1-0.3-0.2-0.3c-0.1-0.1-0.2-0.1-0.4-0.2s-0.4-0.1-0.7-0.1c-0.4-0.1-0.7-0.1-0.9-0.2s-0.5-0.2-0.6-0.4
			c-0.2-0.2-0.3-0.4-0.3-0.8c0-0.4,0.2-0.8,0.5-1c0.4-0.3,0.8-0.4,1.4-0.4c0.3,0,0.6,0,1,0.1c0.3,0.1,0.6,0.2,0.8,0.3l-0.4,0.7
			c-0.4-0.3-0.8-0.4-1.4-0.4c-0.4,0-0.6,0.1-0.8,0.2c-0.2,0.1-0.3,0.3-0.3,0.5c0,0.2,0.1,0.3,0.2,0.4c0.1,0.1,0.2,0.2,0.4,0.2
			c0.2,0,0.4,0.1,0.7,0.1c0.4,0.1,0.7,0.1,0.9,0.2c0.2,0.1,0.4,0.2,0.6,0.4c0.2,0.2,0.3,0.4,0.3,0.8c0,0.4-0.2,0.8-0.6,1
			c-0.4,0.3-0.9,0.4-1.5,0.4C202.9,310.1,202.5,310,202.1,309.9z"/>
	</g>
</g>
</svg>
