<svg xmlns="http://www.w3.org/2000/svg" viewBox="0 0 497.86 484.69"><defs><style>.cls-1{fill:#dedede;}.cls-2{fill:#f4f4f4;}.cls-3{fill:#2e353a;}.cls-4,.cls-7{fill:#fff;}.cls-5{fill:#4d5a64;}.cls-6{fill:#1074c0;}.cls-7{opacity:0.4;}.cls-7,.cls-8{isolation:isolate;}.cls-11,.cls-8{opacity:0.2;}.cls-9{fill:#f9f9f9;}.cls-10{opacity:0.3;}.cls-12{fill:#a98676;}.cls-13{fill:#986552;}.cls-14{fill:none;}.cls-15{opacity:0.5;}.cls-16{opacity:0.7;}.cls-17{fill:#e9e9e9;}</style></defs><title>Vector War</title><g id="Layer_2" data-name="Layer 2"><g id="Windows"><g id="background-complete--inject-306"><path class="cls-1" d="M280.39,71.45a3.19,3.19,0,0,1,1.44-.16h.48l-.16.15c0-.56.09-1,.16-1s.13.39.15,1v.15h-.6A3.19,3.19,0,0,1,280.39,71.45Z"/><path class="cls-1" d="M276.55,71.45c0-.09.42-.16,1-.16s.95.07.95.16-.42.17-.95.17S276.55,71.54,276.55,71.45Z"/><path class="cls-1" d="M272.7,71.45c0-.09.44-.16,1-.16s1,.07,1,.16-.44.17-1,.17S272.7,71.54,272.7,71.45Z"/><path class="cls-1" d="M268.87,71.45c0-.09.42-.16.95-.16s1,.07,1,.16-.42.17-1,.17S268.87,71.54,268.87,71.45Z"/><path class="cls-1" d="M265.05,71.45c0-.09.42-.16.95-.16s1,.07,1,.16-.42.17-1,.17S265.05,71.54,265.05,71.45Z"/><path class="cls-1" d="M261.18,71.45c0-.09.43-.16,1-.16s1,.07,1,.16-.43.17-1,.17S261.18,71.54,261.18,71.45Z"/><path class="cls-1" d="M257.33,71.45c0-.09.44-.16,1-.16s1,.07,1,.16-.43.17-1,.17S257.33,71.54,257.33,71.45Z"/><path class="cls-1" d="M253.5,71.45c0-.09.43-.16.95-.16s1,.07,1,.16-.43.17-1,.17S253.5,71.54,253.5,71.45Z"/><path class="cls-1" d="M249.66,71.45c0-.09.42-.16,1-.16s.95.07.95.16-.42.17-.95.17S249.66,71.54,249.66,71.45Z"/><path class="cls-1" d="M245.81,71.45c0-.09.44-.16,1-.16s1,.07,1,.16-.44.17-1,.17S245.81,71.54,245.81,71.45Z"/><path class="cls-1" d="M242,71.45c0-.09.42-.16,1-.16s1,.07,1,.16-.43.17-1,.17S242,71.54,242,71.45Z"/><path class="cls-1" d="M238.15,71.45c0-.09.42-.16,1-.16s.95.07.95.16-.42.17-.95.17S238.15,71.54,238.15,71.45Z"/><path class="cls-1" d="M234.29,71.45c0-.09.44-.16,1-.16s1,.07,1,.16-.44.17-1,.17S234.29,71.54,234.29,71.45Z"/><path class="cls-1" d="M230.45,71.45c0-.09.43-.16,1-.16s1,.07,1,.16-.43.17-1,.17S230.45,71.54,230.45,71.45Z"/><path class="cls-1" d="M226.61,71.45c0-.09.43-.16.95-.16s1,.07,1,.16-.43.17-1,.17S226.61,71.54,226.61,71.45Z"/><path class="cls-1" d="M222.77,71.45c0-.09.42-.16,1-.16s1,.07,1,.16-.42.17-1,.17S222.77,71.54,222.77,71.45Z"/><path class="cls-1" d="M218.92,71.45c0-.09.44-.16,1-.16s1,.07,1,.16-.44.17-1,.17S218.92,71.54,218.92,71.45Z"/><path class="cls-1" d="M215.09,71.45c0-.09.43-.16.95-.16s1,.07,1,.16-.43.17-1,.17S215.09,71.54,215.09,71.45Z"/><path class="cls-1" d="M213.89,68.81c.09,0,.17.42.17,1s-.08,1-.17,1-.17-.43-.17-1S213.8,68.81,213.89,68.81Z"/><path class="cls-1" d="M213.89,64.94c.09,0,.17.44.17,1s-.08,1-.17,1-.17-.44-.17-1S213.8,64.94,213.89,64.94Z"/><path class="cls-1" d="M213.89,61.13c.09,0,.17.43.17.95s-.08,1-.17,1-.17-.43-.17-1S213.8,61.13,213.89,61.13Z"/><path class="cls-1" d="M213.89,57.29c.09,0,.17.42.17,1s-.08,1-.17,1-.17-.42-.17-1S213.8,57.29,213.89,57.29Z"/><path class="cls-1" d="M213.89,53.44c.09,0,.17.44.17,1s-.08,1-.17,1-.17-.44-.17-1S213.8,53.44,213.89,53.44Z"/><path class="cls-1" d="M213.89,49.6c.09,0,.17.43.17,1s-.08,1-.17,1-.17-.44-.17-1S213.8,49.6,213.89,49.6Z"/><path class="cls-1" d="M213.89,45.76c.09,0,.17.43.17,1s-.08,1-.17,1-.17-.42-.17-1S213.8,45.76,213.89,45.76Z"/><path class="cls-1" d="M213.89,41.92c.09,0,.17.43.17,1s-.08,1-.17,1-.17-.43-.17-1S213.8,41.92,213.89,41.92Z"/><path class="cls-1" d="M213.89,38c.09,0,.17.44.17,1s-.08,1-.17,1-.17-.44-.17-1S213.8,38,213.89,38Z"/><path class="cls-1" d="M213.89,34.24c.09,0,.17.43.17.95s-.08,1-.17,1-.17-.43-.17-1S213.8,34.24,213.89,34.24Z"/><path class="cls-1" d="M213.89,30.4c.09,0,.17.42.17,1s-.08,1-.17,1-.17-.42-.17-1S213.8,30.4,213.89,30.4Z"/><path class="cls-1" d="M213.89,26.55c.09,0,.17.44.17,1s-.08,1-.17,1-.17-.44-.17-1S213.8,26.55,213.89,26.55Z"/><path class="cls-1" d="M213.89,22.72c.09,0,.17.43.17,1s-.08,1-.17,1-.17-.43-.17-1S213.8,22.72,213.89,22.72Z"/><path class="cls-1" d="M213.89,18.88c.09,0,.17.42.17,1s-.08.95-.17.95-.17-.42-.17-.95S213.8,18.88,213.89,18.88Z"/><path class="cls-1" d="M213.89,15c.09,0,.17.43.17,1s-.08,1-.17,1-.17-.43-.17-1S213.8,15,213.89,15Z"/><path class="cls-1" d="M213.89,11.14c.09,0,.17.44.17,1s-.08,1-.17,1-.17-.44-.17-1S213.8,11.14,213.89,11.14Z"/><path class="cls-1" d="M213.89,7.35c.09,0,.17.43.17,1s-.08,1-.17,1-.17-.43-.17-1S213.8,7.35,213.89,7.35Z"/><path class="cls-1" d="M213.89,3.51c.09,0,.17.42.17,1s-.08,1-.17,1-.17-.42-.17-1S213.8,3.51,213.89,3.51Z"/><path class="cls-1" d="M217.25,3c0,.1-.42.16-1,.16s-.95-.06-.95-.16.42-.16.95-.16S217.25,2.94,217.25,3Z"/><path class="cls-1" d="M221.1,3c0,.1-.44.16-1,.16s-1-.06-1-.16.44-.16,1-.16S221.1,2.94,221.1,3Z"/><path class="cls-1" d="M224.93,3c0,.1-.43.16-1,.16s-1-.06-1-.16.43-.16,1-.16S224.93,2.94,224.93,3Z"/><path class="cls-1" d="M228.78,3c0,.1-.43.16-1,.16s-.95-.06-.95-.16.42-.16.95-.16S228.78,2.94,228.78,3Z"/><path class="cls-1" d="M232.62,3c0,.1-.44.16-1,.16s-1-.06-1-.16.44-.16,1-.16S232.62,2.94,232.62,3Z"/><path class="cls-1" d="M236.45,3c0,.1-.42.16-.95.16s-1-.06-1-.16.42-.16,1-.16S236.45,2.94,236.45,3Z"/><path class="cls-1" d="M240.3,3c0,.1-.43.16-1,.16s-1-.06-1-.16.43-.16,1-.16S240.3,2.94,240.3,3Z"/><path class="cls-1" d="M244.14,3c0,.1-.43.16-1,.16s-1-.06-1-.16.44-.16,1-.16S244.14,2.94,244.14,3Z"/><path class="cls-1" d="M248,3c0,.1-.44.16-1,.16s-1-.06-1-.16.44-.16,1-.16S248,2.94,248,3Z"/><path class="cls-1" d="M251.82,3c0,.1-.43.16-.95.16s-1-.06-1-.16.43-.16,1-.16S251.82,2.94,251.82,3Z"/><path class="cls-1" d="M255.66,3c0,.1-.42.16-1,.16s-.95-.06-.95-.16.42-.16.95-.16S255.66,2.94,255.66,3Z"/><path class="cls-1" d="M259.51,3c0,.1-.44.16-1,.16s-1-.06-1-.16.44-.16,1-.16S259.51,2.94,259.51,3Z"/><path class="cls-1" d="M263.34,3c0,.1-.42.16-.95.16s-1-.06-1-.16.42-.16,1-.16S263.34,2.94,263.34,3Z"/><path class="cls-1" d="M267.19,3c0,.1-.43.16-1,.16s-1-.06-1-.16.43-.16,1-.16S267.19,2.94,267.19,3Z"/><path class="cls-1" d="M271,3c0,.1-.44.16-1,.16s-1-.06-1-.16.44-.16,1-.16S271,2.94,271,3Z"/><path class="cls-1" d="M274.86,3c0,.1-.42.16-.95.16s-1-.06-1-.16.42-.16,1-.16S274.86,2.94,274.86,3Z"/><path class="cls-1" d="M278.71,3c0,.1-.43.16-1,.16s-1-.06-1-.16.43-.16,1-.16S278.71,2.94,278.71,3Z"/><path class="cls-1" d="M282.31,3.3a.56.56,0,0,1-.11-.25l.11.11a4.33,4.33,0,0,1-.72,0c-.53,0-1-.07-1-.17s.43-.15,1-.15a3.49,3.49,0,0,1,.72.05h.12V3C282.39,3.18,282.35,3.3,282.31,3.3Z"/><path class="cls-1" d="M282.31,7.12c-.09,0-.17-.43-.17-1s.08-1,.17-1,.17.43.17,1S282.4,7.12,282.31,7.12Z"/><path class="cls-1" d="M282.31,11c-.09,0-.17-.44-.17-1s.08-1,.17-1,.17.44.17,1S282.4,11,282.31,11Z"/><path class="cls-1" d="M282.31,14.8c-.09,0-.17-.43-.17-1s.08-1,.17-1,.17.42.17,1S282.4,14.8,282.31,14.8Z"/><path class="cls-1" d="M282.31,18.64c-.09,0-.17-.43-.17-1s.08-1,.17-1,.17.43.17,1S282.4,18.64,282.31,18.64Z"/><path class="cls-1" d="M282.31,22.48c-.09,0-.17-.42-.17-1s.08-.95.17-.95.17.42.17.95S282.4,22.48,282.31,22.48Z"/><path class="cls-1" d="M282.31,26.33c-.09,0-.17-.44-.17-1s.08-1,.17-1,.17.44.17,1S282.4,26.33,282.31,26.33Z"/><path class="cls-1" d="M282.31,30.2c-.09,0-.17-.43-.17-1s.08-1,.17-1,.17.42.17,1S282.4,30.2,282.31,30.2Z"/><ellipse class="cls-1" cx="282.31" cy="33.04" rx="0.17" ry="0.96"/><path class="cls-1" d="M282.31,37.85c-.09,0-.17-.44-.17-1s.08-1,.17-1,.17.44.17,1S282.4,37.85,282.31,37.85Z"/><path class="cls-1" d="M282.31,41.68c-.09,0-.17-.42-.17-1s.08-1,.17-1,.17.42.17,1S282.4,41.68,282.31,41.68Z"/><ellipse class="cls-1" cx="282.31" cy="44.57" rx="0.17" ry="0.96"/><path class="cls-1" d="M282.31,49.37c-.09,0-.17-.43-.17-1s.08-1,.17-1,.17.43.17,1S282.4,49.37,282.31,49.37Z"/><path class="cls-1" d="M282.31,53.21c-.09,0-.17-.43-.17-1s.08-1,.17-1,.17.43.17,1S282.4,53.21,282.31,53.21Z"/><path class="cls-1" d="M282.31,57.1c-.09,0-.17-.43-.17-1s.08-1,.17-1,.17.43.17,1S282.4,57.1,282.31,57.1Z"/><path class="cls-1" d="M282.31,60.9c-.09,0-.17-.43-.17-1s.08-1,.17-1,.17.43.17,1S282.4,60.9,282.31,60.9Z"/><ellipse class="cls-1" cx="282.31" cy="63.78" rx="0.17" ry="0.96"/><path class="cls-1" d="M282.31,68.57c-.09,0-.17-.42-.17-.95s.08-1,.17-1,.17.42.17,1S282.4,68.57,282.31,68.57Z"/><rect class="cls-1" x="279.77" y="68.23" width="5.07" height="5.07"/><rect class="cls-1" x="211.36" y="68.92" width="5.07" height="5.07"/><rect class="cls-1" x="279.77" width="5.07" height="5.07"/><rect class="cls-1" x="211.36" y="0.49" width="5.07" height="5.07"/><path class="cls-1" d="M151.37,481.53c0-.17.77-.3,1.74-.3s1.75.13,1.75.3-.78.3-1.75.3S151.37,481.7,151.37,481.53Z"/><path class="cls-1" d="M144.38,481.53c0-.17.78-.3,1.74-.3s1.75.13,1.75.3-.78.3-1.75.3S144.38,481.7,144.38,481.53Z"/><path class="cls-1" d="M137.38,481.53c0-.17.79-.3,1.75-.3s1.75.13,1.75.3-.79.3-1.75.3S137.38,481.7,137.38,481.53Z"/><path class="cls-1" d="M130.4,481.53c0-.17.78-.3,1.75-.3s1.75.13,1.75.3-.79.3-1.75.3S130.4,481.7,130.4,481.53Z"/><path class="cls-1" d="M123.4,481.53c0-.17.79-.3,1.75-.3s1.75.13,1.75.3-.78.3-1.75.3S123.4,481.7,123.4,481.53Z"/><path class="cls-1" d="M116.42,481.53c0-.17.79-.3,1.75-.3s1.75.13,1.75.3-.79.3-1.75.3S116.42,481.7,116.42,481.53Z"/><path class="cls-1" d="M109.43,481.53c0-.17.78-.3,1.75-.3s1.74.13,1.74.3-.78.3-1.74.3S109.43,481.7,109.43,481.53Z"/><path class="cls-1" d="M102.44,481.53c0-.17.78-.3,1.74-.3s1.75.13,1.75.3-.77.3-1.75.3S102.44,481.7,102.44,481.53Z"/><path class="cls-1" d="M95.45,481.53c0-.17.78-.3,1.75-.3s1.75.13,1.75.3-.79.3-1.75.3S95.45,481.7,95.45,481.53Z"/><path class="cls-1" d="M88.46,481.53c0-.17.78-.3,1.74-.3s1.75.13,1.75.3-.78.3-1.75.3S88.46,481.7,88.46,481.53Z"/><path class="cls-1" d="M81.47,481.53c0-.17.79-.3,1.75-.3s1.75.13,1.75.3-.78.3-1.75.3S81.47,481.7,81.47,481.53Z"/><path class="cls-1" d="M74.5,481.53c0-.17.79-.3,1.75-.3s1.75.13,1.75.3-.79.3-1.75.3S74.5,481.7,74.5,481.53Z"/><path class="cls-1" d="M69.5,479.52c.17,0,.31.78.31,1.74v.27l-.31-.3c.84,0,1.49.14,1.49.3s-.65.28-1.49.3h-.29v-.57C69.2,480.3,69.33,479.52,69.5,479.52Z"/><path class="cls-1" d="M69.5,472.53c.17,0,.31.78.31,1.75S69.67,476,69.5,476s-.3-.79-.3-1.75S69.33,472.53,69.5,472.53Z"/><path class="cls-1" d="M69.5,465.53c.17,0,.31.79.31,1.75S69.67,469,69.5,469s-.3-.78-.3-1.75S69.33,465.53,69.5,465.53Z"/><path class="cls-1" d="M69.5,458.55c.17,0,.31.79.31,1.75s-.14,1.75-.31,1.75-.3-.79-.3-1.75S69.33,458.55,69.5,458.55Z"/><path class="cls-1" d="M69.5,451.56c.17,0,.31.78.31,1.75s-.14,1.74-.31,1.74-.3-.78-.3-1.74S69.33,451.56,69.5,451.56Z"/><path class="cls-1" d="M69.5,444.57c.17,0,.31.79.31,1.75s-.14,1.75-.31,1.75-.3-.78-.3-1.75S69.33,444.57,69.5,444.57Z"/><path class="cls-1" d="M69.5,437.58c.17,0,.31.78.31,1.75s-.14,1.75-.31,1.75-.3-.79-.3-1.75S69.33,437.58,69.5,437.58Z"/><path class="cls-1" d="M69.5,430.6c.17,0,.31.77.31,1.75s-.14,1.73-.31,1.73-.3-.77-.3-1.73S69.33,430.6,69.5,430.6Z"/><path class="cls-1" d="M69.5,423.61c.17,0,.31.79.31,1.75s-.14,1.75-.31,1.75-.3-.78-.3-1.75S69.33,423.61,69.5,423.61Z"/><path class="cls-1" d="M69.5,416.62c.17,0,.31.77.31,1.74s-.14,1.75-.31,1.75-.3-.78-.3-1.75S69.33,416.62,69.5,416.62Z"/><path class="cls-1" d="M69.5,409.63c.17,0,.31.78.31,1.74s-.14,1.75-.31,1.75-.3-.78-.3-1.75S69.33,409.63,69.5,409.63Z"/><path class="cls-1" d="M69.5,402.63c.17,0,.31.79.31,1.75s-.14,1.75-.31,1.75-.3-.79-.3-1.75S69.33,402.63,69.5,402.63Z"/><path class="cls-1" d="M70,396.16c0,.09-.2.17-.53.23l.21-.21a6.21,6.21,0,0,1,.09,1.22c0,1-.13,1.75-.3,1.75s-.3-.79-.3-1.75a6.21,6.21,0,0,1,.09-1.22v-.25h.18C69.83,396,70,396.09,70,396.16Z"/><path class="cls-1" d="M77,396.16c0,.17-.78.32-1.75.32s-1.74-.15-1.74-.32.78-.3,1.74-.3S77,396,77,396.16Z"/><path class="cls-1" d="M84,396.16c0,.17-.79.32-1.75.32s-1.75-.15-1.75-.32.78-.3,1.75-.3S84,396,84,396.16Z"/><path class="cls-1" d="M91,396.16c0,.17-.77.32-1.75.32s-1.74-.15-1.74-.32.78-.3,1.74-.3S91,396,91,396.16Z"/><path class="cls-1" d="M98,396.16c0,.17-.79.32-1.75.32s-1.75-.15-1.75-.32.79-.3,1.75-.3S98,396,98,396.16Z"/><path class="cls-1" d="M105,396.16c0,.17-.79.32-1.75.32s-1.75-.15-1.75-.32.78-.3,1.75-.3S105,396,105,396.16Z"/><path class="cls-1" d="M112,396.16c0,.17-.78.32-1.75.32s-1.75-.15-1.75-.32.79-.3,1.75-.3S112,396,112,396.16Z"/><path class="cls-1" d="M119,396.16c0,.17-.78.32-1.74.32s-1.75-.15-1.75-.32.78-.3,1.75-.3S119,396,119,396.16Z"/><path class="cls-1" d="M125.94,396.16c0,.17-.79.32-1.75.32s-1.75-.15-1.75-.32.78-.3,1.75-.3S125.94,396,125.94,396.16Z"/><path class="cls-1" d="M132.93,396.16c0,.17-.78.32-1.75.32s-1.75-.15-1.75-.32.79-.3,1.75-.3S132.93,396,132.93,396.16Z"/><path class="cls-1" d="M139.91,396.16c0,.17-.77.32-1.74.32s-1.74-.15-1.74-.32.77-.3,1.74-.3S139.91,396,139.91,396.16Z"/><path class="cls-1" d="M146.91,396.16c0,.17-.79.32-1.75.32s-1.75-.15-1.75-.32.79-.3,1.75-.3S146.91,396,146.91,396.16Z"/><path class="cls-1" d="M153.89,396.16c0,.17-.77.32-1.74.32s-1.74-.15-1.74-.32.77-.3,1.74-.3S153.89,396,153.89,396.16Z"/><path class="cls-1" d="M154.86,402.19c-.17,0-.31-.78-.31-1.74s.14-1.75.31-1.75.3.78.3,1.75S155,402.19,154.86,402.19Z"/><path class="cls-1" d="M154.86,409.19c-.17,0-.31-.79-.31-1.75s.14-1.75.31-1.75.3.79.3,1.75S155,409.19,154.86,409.19Z"/><path class="cls-1" d="M154.86,416.17c-.17,0-.31-.77-.31-1.75s.14-1.73.31-1.73.3.77.3,1.73S155,416.17,154.86,416.17Z"/><path class="cls-1" d="M154.86,423.17c-.17,0-.31-.79-.31-1.75s.14-1.75.31-1.75.3.78.3,1.75S155,423.17,154.86,423.17Z"/><path class="cls-1" d="M154.86,430.15c-.17,0-.31-.77-.31-1.74s.14-1.75.31-1.75.3.79.3,1.75S155,430.15,154.86,430.15Z"/><path class="cls-1" d="M154.86,437.14c-.17,0-.31-.78-.31-1.75s.14-1.74.31-1.74.3.78.3,1.74S155,437.14,154.86,437.14Z"/><path class="cls-1" d="M154.86,444.14c-.17,0-.31-.79-.31-1.75s.14-1.75.31-1.75.3.78.3,1.75S155,444.14,154.86,444.14Z"/><path class="cls-1" d="M154.86,451.12c-.17,0-.31-.78-.31-1.75s.14-1.75.31-1.75.3.79.3,1.75S155,451.12,154.86,451.12Z"/><path class="cls-1" d="M154.86,458.11c-.17,0-.31-.78-.31-1.74s.14-1.75.31-1.75.3.78.3,1.75S155,458.11,154.86,458.11Z"/><path class="cls-1" d="M154.86,465.09c-.17,0-.31-.78-.31-1.75s.14-1.74.31-1.74.3.77.3,1.74S155,465.09,154.86,465.09Z"/><path class="cls-1" d="M154.86,472.09c-.17,0-.31-.78-.31-1.75s.14-1.75.31-1.75.3.79.3,1.75S155,472.09,154.86,472.09Z"/><path class="cls-1" d="M154.86,479.07c-.17,0-.31-.77-.31-1.73s.14-1.75.31-1.75.3.77.3,1.75S155,479.07,154.86,479.07Z"/><rect class="cls-1" x="151.69" y="477.5" width="6.32" height="6.32"/><rect class="cls-1" x="66.34" y="478.37" width="6.32" height="6.32"/><rect class="cls-1" x="151.69" y="392.4" width="6.32" height="6.32"/><rect class="cls-1" x="66.34" y="393.02" width="6.32" height="6.32"/><path class="cls-2" d="M118.33,410.16C142.64,390.52,146.11,357,143,327.22c-.52-5-.34-10.24-3-14.45s-8.4-6.79-12.71-4.38c-3.57,2-4.87,6.41-6.72,10.09a29.15,29.15,0,0,1-10.89,12c-3,1.87-6.89,3.15-10.09,1.63-4.48-2.06-5.38-7.95-5.69-12.9Q93,305.34,92.12,291.5c-.31-4.94-.65-10-2.52-14.57s-5.6-8.71-10.37-9.71-10.42,2.13-11.07,7c-.28,2,.28,4.1.28,6.17s-.79,4.4-2.7,5.11-4-.55-5.61-1.9c-5.43-4.63-9.35-10.82-13-16.95s-7.29-12.5-12.33-17.62-11.73-9-18.84-8.9-14.36,5-15.7,12.07,3.27,13.88,8.09,19.22a110,110,0,0,0,24.52,20.31c1.64,1,3.36,2.07,4.12,3.87,1.32,3.22-1.59,6.72-4.76,8-3.61,1.49-7.63,1.39-11.45,2.11s-7.85,2.72-9.09,6.47c-1.67,5.2,2.92,10.2,7.33,13.38a94.94,94.94,0,0,0,29.14,14.2c3.73,1.12,7.64,2,10.76,4.33s5.19,6.67,3.66,10.28-6,5-9.86,4.6-7.42-2.24-11.14-3.36c-7-2.1-15.69-1-19.67,5.17-2.59,4.07-2.47,9.46-.7,14s5,8.26,8.35,11.7c11.79,12,26.45,21.3,42.6,25.71s30.86,4.81,46.14-2"/><path class="cls-1" d="M114.85,412.57c-1.9-11.73,0-5.86-5.47-20.57a441.45,441.45,0,0,0-20.94-46.49l-6.16-11.9c-2-3.91-4-7.78-6.2-11.44A224.05,224.05,0,0,0,62.3,301.83c-4.7-6.26-9.39-12-13.8-17.38s-8.66-10.27-12.7-14.57A175.15,175.15,0,0,0,15.23,251c-2.6-2-4.66-3.55-6.07-4.55l-1.62-1.12A5.5,5.5,0,0,0,7,245a3.11,3.11,0,0,0,.52.44L9,246.52q2.07,1.57,6,4.69a185.79,185.79,0,0,1,20.32,19c4,4.33,8.19,9.26,12.58,14.57S57,296,61.63,302.24a224.93,224.93,0,0,1,13.68,20.28c2.17,3.66,4.15,7.49,6.16,11.4l6.11,11.91a452.06,452.06,0,0,1,21,46.37c5.49,14.65,3.64,8.71,5.61,20.37"/><path class="cls-1" d="M75.81,322.15a9.18,9.18,0,0,0,.34-2.15c.17-1.38.34-3.36.51-5.88.36-5,.61-11.86.87-19.45s.6-14.46,1-19.41c.21-2.48.4-4.48.55-5.86a8.85,8.85,0,0,0,.12-2.18,11,11,0,0,0-.47,2.12c-.26,1.37-.55,3.36-.84,5.85-.59,5-1,11.84-1.3,19.45s-.44,14.27-.61,19.44c-.07,2.35-.15,4.32-.21,5.9A12.1,12.1,0,0,0,75.81,322.15Z"/><path class="cls-1" d="M11.39,314.71a14,14,0,0,0,2.59.18c1.63,0,4,.07,6.94.2,5.87.23,14,.81,22.87,1.85s16.92,2.37,22.7,3.47c2.89.53,5.21,1,6.82,1.36a14.4,14.4,0,0,0,2.53.44,11.84,11.84,0,0,0-2.45-.78c-1.58-.45-3.9-1.05-6.72-1.66C60.92,318.49,52.88,317.09,44,316a223,223,0,0,0-23-1.58c-2.95-.05-5.32,0-7,.09A12.88,12.88,0,0,0,11.39,314.71Z"/><path class="cls-1" d="M108.46,390.89a3.73,3.73,0,0,0,.38-.81l.93-2.38c.8-2.07,1.87-5.09,3.14-8.84,2.56-7.5,5.78-17.93,9.16-29.57s6.49-22.09,8.89-29.63c1.12-3.68,2.15-6.73,2.87-9,.3-1,.56-1.77.76-2.43a3,3,0,0,0,.21-.88,3.59,3.59,0,0,0-.38.82c-.26.64-.56,1.42-.93,2.37-.79,2.07-1.87,5.08-3.15,8.84-2.55,7.5-5.76,17.93-9.14,29.58s-6.49,22.09-8.89,29.63c-1.19,3.67-2.15,6.73-2.87,9-.32,1-.56,1.78-.78,2.43A3.67,3.67,0,0,0,108.46,390.89Z"/><path class="cls-1" d="M22.05,369.56a3.36,3.36,0,0,0,.89.25l2.51.65,9.26,2.3c7.85,1.94,18.57,4.75,30.47,7.85s22.68,5.84,30.54,7.62c3.92.88,7.12,1.58,9.32,2l2.55.48a4,4,0,0,0,.91.11,3.07,3.07,0,0,0-.87-.29l-2.51-.65-9.26-2.24c-7.84-1.94-18.57-4.76-30.46-7.85S42.71,374,34.86,372.18c-3.93-.89-7.12-1.58-9.33-2l-2.59-.51A3,3,0,0,0,22.05,369.56Z"/><path class="cls-2" d="M482.82,274.54a16.93,16.93,0,0,1,2.76,13,29.64,29.64,0,0,1-5.6,12.33c-5.16,7.14-13.83,12.4-21.92,15.87-3.28-9.22.75-19.84,3.13-25.08,3.77-8.31,15.61-21,21.61-16.11"/><path class="cls-2" d="M458.45,332.56a14.47,14.47,0,0,1,10.81-9.7A19.27,19.27,0,0,1,483.84,326c2,1.32,3.83,3.15,4.05,5.5a6.21,6.21,0,0,1-3,5.51,12.46,12.46,0,0,1-6.3,1.7c-7.53.36-14.88-.67-20.11-6.1"/><path class="cls-1" d="M440.91,345.93a28.35,28.35,0,0,1,3.69-4.49,27.34,27.34,0,0,1,4.86-4.11,58.16,58.16,0,0,1,6.62-4,28.79,28.79,0,0,1,13.7-3.25,19.78,19.78,0,0,1,4.26.59c1,.28,1.49.48,1.47.55a37,37,0,0,0-5.73-.45,31.08,31.08,0,0,0-13.25,3.44,70.18,70.18,0,0,0-6.57,3.91,29.67,29.67,0,0,0-4.87,3.85A42.58,42.58,0,0,1,440.91,345.93Z"/><path class="cls-1" d="M474.65,285.07a15.9,15.9,0,0,1-1.13,2.7c-.81,1.7-2,4.16-3.57,7.18-3.06,6-7.39,14.34-12.39,23.38s-9.77,17.12-13.33,22.88c-1.79,2.88-3.26,5.19-4.31,6.72a17.62,17.62,0,0,1-1.7,2.4,17.5,17.5,0,0,1,1.38-2.6l4-6.92c3.36-5.86,8.07-14,13.07-23s9.31-17.14,12.63-23.24l3.85-7A17.11,17.11,0,0,1,474.65,285.07Z"/><path class="cls-2" d="M447.09,330A33.85,33.85,0,0,0,439,300.19c-1.86-2-4.57-3.89-7.13-2.93s-3.36,4.19-3.36,6.93a28.9,28.9,0,0,0,18.18,26.45"/><path class="cls-1" d="M437.74,308.09a6.92,6.92,0,0,1,1,1.12c.6.74,1.42,2,2.4,3.46a38.31,38.31,0,0,1,5.45,12.88,23.88,23.88,0,0,1,.21,7.73,23.34,23.34,0,0,1-1.79,6.06A23.86,23.86,0,0,1,443,343c-.57.81-.92,1.24-1,1.21s1.13-1.93,2.41-5.17a25.2,25.2,0,0,0,1.53-5.91,24.7,24.7,0,0,0-.27-7.43,42.51,42.51,0,0,0-5-12.65A51.61,51.61,0,0,1,437.74,308.09Z"/><path class="cls-1" d="M487.49,254.16c0-.2.94-.37,2.1-.37s2.09.17,2.09.37-.94.36-2.09.36S487.49,254.37,487.49,254.16Z"/><path class="cls-1" d="M479.13,254.16c0-.2.94-.37,2.09-.37s2.1.17,2.1.37-.94.36-2.1.36S479.13,254.37,479.13,254.16Z"/><path class="cls-1" d="M470.74,254.16c0-.2.95-.37,2.1-.37s2.1.17,2.1.37-.95.36-2.1.36S470.74,254.37,470.74,254.16Z"/><path class="cls-1" d="M462.38,254.16c0-.2.93-.37,2.09-.37s2.09.17,2.09.37-.94.36-2.09.36S462.38,254.37,462.38,254.16Z"/><path class="cls-1" d="M454,254.16c0-.2.93-.37,2.1-.37s2.08.17,2.08.37-.93.36-2.08.36S454,254.37,454,254.16Z"/><path class="cls-1" d="M445.64,254.16c0-.2.94-.37,2.09-.37s2.09.17,2.09.37-.93.36-2.09.36S445.64,254.37,445.64,254.16Z"/><path class="cls-1" d="M437.26,254.16c0-.2.95-.37,2.1-.37s2.1.17,2.1.37-.94.36-2.1.36S437.26,254.37,437.26,254.16Z"/><path class="cls-1" d="M428.89,254.16c0-.2.94-.37,2.1-.37s2.09.17,2.09.37-.94.36-2.09.36S428.89,254.37,428.89,254.16Z"/><path class="cls-1" d="M420.53,254.16c0-.2.93-.37,2.09-.37s2.09.17,2.09.37-.94.36-2.09.36S420.53,254.37,420.53,254.16Z"/><path class="cls-1" d="M412.16,254.16c0-.2.93-.37,2.08-.37s2.1.17,2.1.37-.93.36-2.1.36S412.16,254.37,412.16,254.16Z"/><path class="cls-1" d="M403.78,254.16c0-.2.94-.37,2.1-.37s2.09.17,2.09.37-.93.36-2.09.36S403.78,254.37,403.78,254.16Z"/><path class="cls-1" d="M395.41,254.16c0-.2.94-.37,2.1-.37s2.08.17,2.08.37-.93.36-2.08.36S395.41,254.37,395.41,254.16Z"/><path class="cls-1" d="M389.46,251.75c.2,0,.36.95.36,2.1v.31l-.36-.35c1,0,1.78.16,1.78.35s-.77.33-1.78.36h-.36v-.67C389.09,252.7,389.25,251.75,389.46,251.75Z"/><path class="cls-1" d="M389.46,243.38c.2,0,.36.94.36,2.1s-.16,2.09-.36,2.09-.36-.94-.36-2.09S389.25,243.38,389.46,243.38Z"/><path class="cls-1" d="M389.46,235c.2,0,.36.94.36,2.09s-.16,2.1-.36,2.1-.36-.94-.36-2.1S389.25,235,389.46,235Z"/><path class="cls-1" d="M389.46,226.64c.2,0,.36.94.36,2.09s-.17,2.1-.36,2.1-.36-.94-.36-2.1S389.25,226.64,389.46,226.64Z"/><path class="cls-1" d="M389.46,218.27c.2,0,.36.93.36,2.09s-.16,2.1-.36,2.1-.36-1-.36-2.1S389.25,218.27,389.46,218.27Z"/><path class="cls-1" d="M389.46,209.9c.2,0,.36.93.36,2.1s-.16,2.08-.36,2.08-.36-.93-.36-2.08S389.25,209.9,389.46,209.9Z"/><path class="cls-1" d="M389.46,201.53c.2,0,.36.94.36,2.09s-.16,2.09-.36,2.09-.36-.93-.36-2.09S389.25,201.53,389.46,201.53Z"/><path class="cls-1" d="M389.46,193.16c.2,0,.36.94.36,2.09s-.16,2.1-.36,2.1-.36-.94-.36-2.1S389.25,193.16,389.46,193.16Z"/><path class="cls-1" d="M389.46,184.78c.2,0,.36.94.36,2.1s-.16,2.1-.36,2.1-.36-.95-.36-2.1S389.25,184.78,389.46,184.78Z"/><path class="cls-1" d="M389.46,176.42c.2,0,.36.93.36,2.09s-.16,2.09-.36,2.09-.36-.94-.36-2.09S389.25,176.42,389.46,176.42Z"/><path class="cls-1" d="M389.46,168.06c.2,0,.36.93.36,2.09s-.16,2.09-.36,2.09-.36-.93-.36-2.09S389.25,168.06,389.46,168.06Z"/><path class="cls-1" d="M389.46,159.68c.2,0,.36.94.36,2.09s-.16,2.09-.36,2.09-.36-.93-.36-2.09S389.25,159.68,389.46,159.68Z"/><path class="cls-1" d="M390.08,151.93c0,.1-.25.19-.63.26l.26-.26a10.37,10.37,0,0,1,.1,1.47c0,1.12-.16,2.1-.36,2.1s-.36-.95-.36-2.1a9.08,9.08,0,0,1,.1-1.47v-.29h.21C389.83,151.74,390.08,151.83,390.08,151.93Z"/><path class="cls-1" d="M398.43,151.93c0,.2-.94.36-2.1.36s-2.09-.16-2.09-.36.94-.36,2.09-.36S398.43,151.73,398.43,151.93Z"/><path class="cls-1" d="M406.81,151.93c0,.2-.93.36-2.08.36s-2.1-.16-2.1-.36.94-.36,2.1-.36S406.81,151.73,406.81,151.93Z"/><path class="cls-1" d="M415.24,151.93c0,.2-.93.36-2.08.36s-2.1-.16-2.1-.36.93-.36,2.1-.36S415.24,151.73,415.24,151.93Z"/><path class="cls-1" d="M423.56,151.93c0,.2-.93.36-2.1.36s-2.08-.16-2.08-.36.93-.36,2.08-.36S423.56,151.73,423.56,151.93Z"/><path class="cls-1" d="M431.93,151.93c0,.2-.94.36-2.1.36s-2.08-.16-2.08-.36.93-.36,2.08-.36S431.93,151.73,431.93,151.93Z"/><path class="cls-1" d="M440.3,151.93c0,.2-.94.36-2.09.36s-2.1-.16-2.1-.36.94-.36,2.1-.36S440.3,151.73,440.3,151.93Z"/><path class="cls-1" d="M448.67,151.93c0,.2-.94.36-2.09.36s-2.1-.16-2.1-.36.94-.36,2.1-.36S448.67,151.73,448.67,151.93Z"/><path class="cls-1" d="M457,151.93c0,.2-.93.36-2.09.36s-2.09-.16-2.09-.36.94-.36,2.09-.36S457,151.73,457,151.93Z"/><path class="cls-1" d="M465.41,151.93c0,.2-.93.36-2.09.36s-2.09-.16-2.09-.36.93-.36,2.09-.36S465.41,151.73,465.41,151.93Z"/><path class="cls-1" d="M473.78,151.93c0,.2-.94.36-2.09.36s-2.09-.16-2.09-.36.93-.36,2.09-.36S473.78,151.73,473.78,151.93Z"/><path class="cls-1" d="M482.15,151.93c0,.2-.94.36-2.09.36s-2.1-.16-2.1-.36.94-.36,2.1-.36S482.15,151.73,482.15,151.93Z"/><path class="cls-1" d="M490.53,151.93c0,.2-.94.36-2.1.36s-2.09-.16-2.09-.36.94-.36,2.09-.36S490.53,151.73,490.53,151.93Z"/><path class="cls-1" d="M491.68,159.15c-.2,0-.37-.94-.37-2.1s.17-2.08.37-2.08.36.93.36,2.08S491.87,159.15,491.68,159.15Z"/><path class="cls-1" d="M491.68,167.52c-.2,0-.37-.94-.37-2.09s.17-2.1.37-2.1.36.94.36,2.1S491.87,167.52,491.68,167.52Z"/><path class="cls-1" d="M491.68,175.91c-.2,0-.37-.95-.37-2.1s.17-2.1.37-2.1.36.95.36,2.1S491.87,175.91,491.68,175.91Z"/><path class="cls-1" d="M491.68,184.26c-.2,0-.37-.93-.37-2.09s.17-2.09.37-2.09.36.94.36,2.09S491.87,184.26,491.68,184.26Z"/><path class="cls-1" d="M491.68,192.63c-.2,0-.37-.93-.37-2.09s.17-2.09.37-2.09.36.93.36,2.09S491.87,192.63,491.68,192.63Z"/><path class="cls-1" d="M491.68,201c-.2,0-.37-.93-.37-2.09s.17-2.09.37-2.09.36.93.36,2.09S491.87,201,491.68,201Z"/><path class="cls-1" d="M491.68,209.37c-.2,0-.37-.94-.37-2.09s.17-2.09.37-2.09.36.93.36,2.09S491.87,209.37,491.68,209.37Z"/><path class="cls-1" d="M491.68,217.75c-.2,0-.37-.94-.37-2.1s.17-2.09.37-2.09.36.94.36,2.09S491.87,217.75,491.68,217.75Z"/><path class="cls-1" d="M491.68,226.12c-.2,0-.37-.94-.37-2.1s.17-2.09.37-2.09.36.94.36,2.09S491.87,226.12,491.68,226.12Z"/><path class="cls-1" d="M491.68,234.48c-.2,0-.37-.93-.37-2.08s.17-2.1.37-2.1.36.94.36,2.1S491.87,234.48,491.68,234.48Z"/><path class="cls-1" d="M491.68,242.85c-.2,0-.37-.93-.37-2.08s.17-2.1.37-2.1.36.93.36,2.1S491.87,242.85,491.68,242.85Z"/><path class="cls-1" d="M491.68,251.23c-.2,0-.37-.94-.37-2.1s.17-2.08.37-2.08.36.93.36,2.08S491.87,251.23,491.68,251.23Z"/><rect class="cls-1" x="487.89" y="249.33" width="7.57" height="7.57"/><rect class="cls-1" x="385.66" y="250.38" width="7.57" height="7.57"/><rect class="cls-1" x="487.89" y="147.41" width="7.57" height="7.57"/><rect class="cls-1" x="385.66" y="148.14" width="7.57" height="7.57"/></g><g id="Squares--inject-306"><path class="cls-3" d="M476.79,120.19c0-.14.63-.25,1.42-.25s1.41.11,1.41.25-.64.25-1.41.25S476.79,120.32,476.79,120.19Z"/><path class="cls-3" d="M471.13,120.19c0-.14.63-.25,1.42-.25s1.41.11,1.41.25-.64.25-1.41.25S471.13,120.32,471.13,120.19Z"/><path class="cls-3" d="M465.47,120.19c0-.14.63-.25,1.42-.25s1.41.11,1.41.25-.64.25-1.41.25S465.47,120.32,465.47,120.19Z"/><path class="cls-3" d="M459.8,120.19c0-.14.64-.25,1.43-.25s1.41.11,1.41.25-.64.25-1.41.25S459.8,120.32,459.8,120.19Z"/><path class="cls-3" d="M454.14,120.19c0-.14.64-.25,1.42-.25s1.42.11,1.42.25-.64.25-1.42.25S454.14,120.32,454.14,120.19Z"/><path class="cls-3" d="M448.48,120.19c0-.14.64-.25,1.42-.25s1.42.11,1.42.25-.64.25-1.42.25S448.48,120.32,448.48,120.19Z"/><path class="cls-3" d="M442.82,120.19c0-.14.64-.25,1.42-.25s1.42.11,1.42.25-.64.25-1.42.25S442.82,120.32,442.82,120.19Z"/><path class="cls-3" d="M437.16,120.19c0-.14.63-.25,1.42-.25s1.42.11,1.42.25-.64.25-1.42.25S437.16,120.32,437.16,120.19Z"/><path class="cls-3" d="M431.5,120.19c0-.14.63-.25,1.42-.25s1.41.11,1.41.25-.63.25-1.41.25S431.5,120.32,431.5,120.19Z"/><path class="cls-3" d="M425.84,120.19c0-.14.63-.25,1.42-.25s1.41.11,1.41.25-.63.25-1.41.25S425.84,120.32,425.84,120.19Z"/><path class="cls-3" d="M420.18,120.19c0-.14.63-.25,1.42-.25s1.41.11,1.41.25-.63.25-1.41.25S420.18,120.32,420.18,120.19Z"/><path class="cls-3" d="M414.52,120.19c0-.14.63-.25,1.41-.25s1.42.11,1.42.25-.63.25-1.42.25S414.52,120.32,414.52,120.19Z"/><path class="cls-3" d="M410.49,118.56c.13,0,.24.63.24,1.42v.21l-.23-.25c.68,0,1.2.13,1.2.25s-.52.22-1.2.25h-.25V120C410.24,119.19,410.35,118.56,410.49,118.56Z"/><path class="cls-3" d="M410.49,112.9c.13,0,.24.63.24,1.42s-.11,1.41-.24,1.41-.25-.63-.25-1.41S410.35,112.9,410.49,112.9Z"/><path class="cls-3" d="M410.49,107.24c.13,0,.24.63.24,1.42s-.11,1.41-.24,1.41-.25-.63-.25-1.41S410.35,107.24,410.49,107.24Z"/><path class="cls-3" d="M410.49,101.58c.13,0,.24.63.24,1.41s-.11,1.42-.24,1.42-.25-.63-.25-1.42S410.35,101.58,410.49,101.58Z"/><path class="cls-3" d="M410.49,95.91c.13,0,.24.64.24,1.42s-.11,1.42-.24,1.42-.25-.64-.25-1.42S410.35,95.91,410.49,95.91Z"/><path class="cls-3" d="M410.49,90.25c.13,0,.24.64.24,1.42s-.11,1.42-.24,1.42-.25-.64-.25-1.42S410.35,90.25,410.49,90.25Z"/><path class="cls-3" d="M410.49,84.59c.13,0,.24.64.24,1.42s-.11,1.42-.24,1.42-.25-.64-.25-1.42S410.35,84.59,410.49,84.59Z"/><path class="cls-3" d="M410.49,78.93c.13,0,.24.64.24,1.42s-.11,1.42-.24,1.42-.25-.64-.25-1.42S410.35,78.93,410.49,78.93Z"/><path class="cls-3" d="M410.49,73.27c.13,0,.24.64.24,1.41s-.11,1.43-.24,1.43-.25-.64-.25-1.43S410.35,73.27,410.49,73.27Z"/><path class="cls-3" d="M410.49,67.61c.13,0,.24.64.24,1.41s-.11,1.43-.24,1.43-.25-.64-.25-1.43S410.35,67.61,410.49,67.61Z"/><path class="cls-3" d="M410.49,62c.13,0,.24.64.24,1.41s-.11,1.43-.24,1.43-.25-.64-.25-1.43S410.35,62,410.49,62Z"/><path class="cls-3" d="M410.49,56.29c.13,0,.24.64.24,1.41s-.11,1.42-.24,1.42-.25-.63-.25-1.42S410.35,56.29,410.49,56.29Z"/><path class="cls-3" d="M410.91,51.05c0,.07-.16.13-.42.17l.17-.17a5.5,5.5,0,0,1,.07,1c0,.79-.11,1.41-.24,1.41s-.25-.62-.25-1.41a6.59,6.59,0,0,1,.07-1v-.2h.14C410.76,50.92,410.91,51,410.91,51.05Z"/><path class="cls-3" d="M416.57,51.05c0,.14-.64.25-1.42.25s-1.41-.11-1.41-.25.64-.24,1.41-.24S416.57,50.92,416.57,51.05Z"/><path class="cls-3" d="M422.23,51.05c0,.14-.63.25-1.42.25s-1.41-.11-1.41-.25.64-.24,1.41-.24S422.23,50.92,422.23,51.05Z"/><path class="cls-3" d="M427.89,51.05c0,.14-.63.25-1.41.25s-1.42-.11-1.42-.25.64-.24,1.42-.24S427.89,50.92,427.89,51.05Z"/><path class="cls-3" d="M433.55,51.05c0,.14-.63.25-1.41.25s-1.42-.11-1.42-.25.64-.24,1.42-.24S433.55,50.92,433.55,51.05Z"/><path class="cls-3" d="M439.22,51.05c0,.14-.64.25-1.42.25s-1.42-.11-1.42-.25.64-.24,1.42-.24S439.22,50.92,439.22,51.05Z"/><path class="cls-3" d="M444.88,51.05c0,.14-.64.25-1.42.25s-1.42-.11-1.42-.25.64-.24,1.42-.24S444.88,50.92,444.88,51.05Z"/><path class="cls-3" d="M450.54,51.05c0,.14-.63.25-1.42.25s-1.41-.11-1.41-.25.63-.24,1.41-.24S450.54,50.92,450.54,51.05Z"/><path class="cls-3" d="M456.2,51.05c0,.14-.63.25-1.42.25s-1.41-.11-1.41-.25.63-.24,1.41-.24S456.2,50.92,456.2,51.05Z"/><path class="cls-3" d="M461.86,51.05c0,.14-.63.25-1.42.25s-1.41-.11-1.41-.25.63-.24,1.41-.24S461.86,50.92,461.86,51.05Z"/><path class="cls-3" d="M467.52,51.05c0,.14-.63.25-1.42.25s-1.41-.11-1.41-.25.63-.24,1.41-.24S467.52,50.92,467.52,51.05Z"/><path class="cls-3" d="M473.18,51.05c0,.14-.63.25-1.42.25s-1.41-.11-1.41-.25.63-.24,1.41-.24S473.18,50.92,473.18,51.05Z"/><path class="cls-3" d="M478.84,51.05c0,.14-.63.25-1.42.25s-1.41-.11-1.41-.25.63-.24,1.41-.24S478.84,50.92,478.84,51.05Z"/><path class="cls-3" d="M479.62,56c-.13,0-.24-.63-.24-1.42s.11-1.41.24-1.41.25.63.25,1.41S479.76,56,479.62,56Z"/><path class="cls-3" d="M479.62,61.58c-.13,0-.24-.63-.24-1.41s.11-1.42.24-1.42.25.63.25,1.42S479.76,61.58,479.62,61.58Z"/><path class="cls-3" d="M479.62,67.25c-.13,0-.24-.63-.24-1.41s.11-1.41.24-1.41.25.62.25,1.41S479.76,67.25,479.62,67.25Z"/><path class="cls-3" d="M479.62,72.91c-.13,0-.24-.63-.24-1.41s.11-1.41.24-1.41.25.62.25,1.41S479.76,72.91,479.62,72.91Z"/><path class="cls-3" d="M479.62,78.58c-.13,0-.24-.64-.24-1.42s.11-1.41.24-1.41.25.64.25,1.41S479.76,78.58,479.62,78.58Z"/><path class="cls-3" d="M479.62,84.24c-.13,0-.24-.64-.24-1.42s.11-1.41.24-1.41.25.64.25,1.41S479.76,84.24,479.62,84.24Z"/><path class="cls-3" d="M479.62,89.9c-.13,0-.24-.64-.24-1.42s.11-1.41.24-1.41.25.64.25,1.41S479.76,89.9,479.62,89.9Z"/><path class="cls-3" d="M479.62,95.56c-.13,0-.24-.64-.24-1.42s.11-1.41.24-1.41.25.64.25,1.41S479.76,95.56,479.62,95.56Z"/><path class="cls-3" d="M479.62,101.22c-.13,0-.24-.63-.24-1.41s.11-1.42.24-1.42.25.64.25,1.42S479.76,101.22,479.62,101.22Z"/><path class="cls-3" d="M479.62,106.88c-.13,0-.24-.63-.24-1.41s.11-1.42.24-1.42.25.64.25,1.42S479.76,106.88,479.62,106.88Z"/><path class="cls-3" d="M479.62,112.54c-.13,0-.24-.63-.24-1.41s.11-1.42.24-1.42.25.64.25,1.42S479.76,112.54,479.62,112.54Z"/><path class="cls-3" d="M479.62,118.2c-.13,0-.24-.63-.24-1.41s.11-1.42.24-1.42.25.64.25,1.42S479.76,118.2,479.62,118.2Z"/><rect class="cls-3" x="477.07" y="116.93" width="5.12" height="5.12"/><rect class="cls-3" x="407.92" y="117.63" width="5.12" height="5.12"/><rect class="cls-3" x="477.07" y="47.99" width="5.12" height="5.12"/><rect class="cls-3" x="407.92" y="48.49" width="5.12" height="5.12"/><path class="cls-3" d="M90.32,220.07c0-.14.62-.25,1.41-.25s1.41.11,1.41.25-.63.24-1.41.24S90.32,220.2,90.32,220.07Z"/><path class="cls-3" d="M84.66,220.07c0-.14.62-.25,1.41-.25s1.41.11,1.41.25-.63.24-1.41.24S84.66,220.2,84.66,220.07Z"/><path class="cls-3" d="M79,220.07c0-.14.63-.25,1.42-.25s1.41.11,1.41.25-.63.24-1.41.24S79,220.2,79,220.07Z"/><path class="cls-3" d="M73.38,220.07c0-.14.63-.25,1.41-.25s1.42.11,1.42.25-.63.24-1.42.24S73.38,220.2,73.38,220.07Z"/><path class="cls-3" d="M67.66,220.07c0-.14.64-.25,1.43-.25s1.41.11,1.41.25-.64.24-1.41.24S67.66,220.2,67.66,220.07Z"/><path class="cls-3" d="M62,220.07c0-.14.64-.25,1.43-.25s1.41.11,1.41.25-.64.24-1.41.24S62,220.2,62,220.07Z"/><path class="cls-3" d="M56.34,220.07c0-.14.64-.25,1.43-.25s1.41.11,1.41.25-.64.24-1.41.24S56.34,220.2,56.34,220.07Z"/><path class="cls-3" d="M50.68,220.07c0-.14.64-.25,1.43-.25s1.41.11,1.41.25-.64.24-1.41.24S50.68,220.2,50.68,220.07Z"/><path class="cls-3" d="M45,220.07c0-.14.64-.25,1.42-.25s1.42.11,1.42.25-.64.24-1.42.24S45,220.2,45,220.07Z"/><path class="cls-3" d="M39.36,220.07c0-.14.64-.25,1.42-.25s1.42.11,1.42.25-.64.24-1.42.24S39.36,220.2,39.36,220.07Z"/><path class="cls-3" d="M33.7,220.07c0-.14.64-.25,1.41-.25s1.43.11,1.43.25-.64.24-1.43.24S33.7,220.2,33.7,220.07Z"/><path class="cls-3" d="M28,220.07c0-.14.64-.25,1.41-.25s1.43.11,1.43.25-.64.24-1.43.24S28,220.2,28,220.07Z"/><path class="cls-3" d="M24.06,218.5c.14,0,.25.64.25,1.41v.21l-.25-.23c.69,0,1.2.11,1.2.23s-.51.23-1.2.25h-.23v-.46C23.76,219.08,23.87,218.5,24.06,218.5Z"/><path class="cls-3" d="M24.06,212.78c.14,0,.25.64.25,1.41s-.11,1.43-.25,1.43-.24-.64-.24-1.43S23.87,212.78,24.06,212.78Z"/><path class="cls-3" d="M24.06,207.12c.14,0,.25.63.25,1.41S24.2,210,24.06,210s-.24-.63-.24-1.42S23.87,207.12,24.06,207.12Z"/><path class="cls-3" d="M24.06,201.46c.14,0,.25.63.25,1.41s-.11,1.42-.25,1.42-.24-.63-.24-1.42S23.87,201.46,24.06,201.46Z"/><path class="cls-3" d="M24.06,195.8c.14,0,.25.63.25,1.41s-.11,1.42-.25,1.42-.24-.63-.24-1.42S23.87,195.8,24.06,195.8Z"/><path class="cls-3" d="M24.06,190.14c.14,0,.25.63.25,1.41S24.2,193,24.06,193s-.24-.63-.24-1.42S23.87,190.14,24.06,190.14Z"/><path class="cls-3" d="M24.06,184.48c.14,0,.25.63.25,1.41s-.11,1.42-.25,1.42-.24-.63-.24-1.42S23.87,184.48,24.06,184.48Z"/><path class="cls-3" d="M24.06,178.82c.14,0,.25.63.25,1.41s-.11,1.42-.25,1.42-.24-.63-.24-1.42S23.87,178.82,24.06,178.82Z"/><path class="cls-3" d="M24.06,173.15c.14,0,.25.64.25,1.42S24.2,176,24.06,176s-.24-.63-.24-1.41S23.87,173.15,24.06,173.15Z"/><path class="cls-3" d="M24.06,167.49c.14,0,.25.64.25,1.42a2.6,2.6,0,0,1-.25,1.39,2.83,2.83,0,0,1-.24-1.41C23.82,168.12,23.87,167.49,24.06,167.49Z"/><path class="cls-3" d="M24.06,161.83c.14,0,.25.64.25,1.42a2.93,2.93,0,0,1-.25,1.45,2.83,2.83,0,0,1-.24-1.41C23.82,162.51,23.87,161.83,24.06,161.83Z"/><path class="cls-3" d="M24.06,156.17c.14,0,.25.64.25,1.42S24.2,159,24.06,159s-.24-.64-.24-1.41S23.87,156.17,24.06,156.17Z"/><path class="cls-3" d="M24.43,150.93c0,.07-.17.14-.42.18l.18-.18a5.49,5.49,0,0,1,.06,1c0,.78-.11,1.42-.24,1.42s-.25-.64-.25-1.42a6.59,6.59,0,0,1,.07-1v-.2H24C24.26,150.8,24.43,150.87,24.43,150.93Z"/><path class="cls-3" d="M30.09,150.93c0,.14-.64.25-1.41.25s-1.42-.11-1.42-.25.64-.24,1.42-.24S30.09,150.8,30.09,150.93Z"/><path class="cls-3" d="M35.75,150.93c0,.14-.62.25-1.41.25s-1.41-.11-1.41-.25.63-.24,1.41-.24S35.75,150.8,35.75,150.93Z"/><path class="cls-3" d="M41.41,150.93c0,.14-.62.25-1.41.25s-1.41-.11-1.41-.25.63-.24,1.41-.24S41.41,150.8,41.41,150.93Z"/><path class="cls-3" d="M47.07,150.93c0,.14-.62.25-1.41.25s-1.41-.11-1.41-.25.63-.24,1.41-.24S47.07,150.8,47.07,150.93Z"/><path class="cls-3" d="M52.73,150.93c0,.14-.62.25-1.41.25s-1.41-.11-1.41-.25.63-.24,1.41-.24S52.73,150.8,52.73,150.93Z"/><path class="cls-3" d="M58.39,150.93c0,.14-.62.25-1.41.25s-1.41-.11-1.41-.25.63-.24,1.41-.24S58.39,150.8,58.39,150.93Z"/><path class="cls-3" d="M64.06,150.93c0,.14-.63.25-1.42.25s-1.41-.11-1.41-.25.63-.24,1.41-.24S64.06,150.8,64.06,150.93Z"/><path class="cls-3" d="M69.72,150.93c0,.14-.63.25-1.42.25s-1.41-.11-1.41-.25.63-.24,1.41-.24S69.72,150.8,69.72,150.93Z"/><path class="cls-3" d="M75.39,150.93c0,.14-.64.25-1.43.25s-1.41-.11-1.41-.25.64-.24,1.41-.24S75.39,150.8,75.39,150.93Z"/><path class="cls-3" d="M81.05,150.93c0,.14-.64.25-1.43.25s-1.41-.11-1.41-.25.64-.24,1.41-.24S81.05,150.8,81.05,150.93Z"/><path class="cls-3" d="M86.71,150.93c0,.14-.64.25-1.43.25s-1.41-.11-1.41-.25.64-.24,1.41-.24S86.71,150.8,86.71,150.93Z"/><path class="cls-3" d="M92.37,150.93c0,.14-.64.25-1.43.25s-1.41-.11-1.41-.25.64-.24,1.41-.24S92.37,150.8,92.37,150.93Z"/><path class="cls-3" d="M93.14,155.82c-.13,0-.25-.64-.25-1.42S93,153,93.14,153s.25.64.25,1.42S93.28,155.82,93.14,155.82Z"/><path class="cls-3" d="M93.14,161.48c-.13,0-.25-.64-.25-1.42s.12-1.41.25-1.41.25.63.25,1.41S93.28,161.48,93.14,161.48Z"/><path class="cls-3" d="M93.14,167.14c-.13,0-.25-.64-.25-1.42s.12-1.41.25-1.41.25.63.25,1.41S93.28,167.14,93.14,167.14Z"/><path class="cls-3" d="M93.14,172.8c-.13,0-.25-.64-.25-1.41S93,170,93.14,170s.25.63.25,1.42S93.28,172.8,93.14,172.8Z"/><path class="cls-3" d="M93.14,178.46c-.13,0-.25-.64-.25-1.41s.12-1.42.25-1.42.25.63.25,1.42S93.28,178.46,93.14,178.46Z"/><path class="cls-3" d="M93.14,184.12c-.13,0-.25-.64-.25-1.41s.12-1.42.25-1.42.25.64.25,1.42S93.28,184.12,93.14,184.12Z"/><path class="cls-3" d="M93.14,189.78c-.13,0-.25-.64-.25-1.41S93,187,93.14,187s.25.64.25,1.42S93.28,189.78,93.14,189.78Z"/><path class="cls-3" d="M93.14,195.44c-.13,0-.25-.62-.25-1.41s.12-1.41.25-1.41.25.63.25,1.41S93.28,195.44,93.14,195.44Z"/><path class="cls-3" d="M93.14,201.1c-.13,0-.25-.62-.25-1.41s.12-1.41.25-1.41.25.63.25,1.41S93.28,201.1,93.14,201.1Z"/><path class="cls-3" d="M93.14,206.76c-.13,0-.25-.62-.25-1.41s.12-1.41.25-1.41.25.63.25,1.41S93.28,206.76,93.14,206.76Z"/><path class="cls-3" d="M93.14,212.42c-.13,0-.25-.62-.25-1.41s.12-1.41.25-1.41.25.63.25,1.41S93.28,212.42,93.14,212.42Z"/><path class="cls-3" d="M93.14,218.08c-.13,0-.25-.62-.25-1.41s.12-1.41.25-1.41.25.63.25,1.41S93.28,218.08,93.14,218.08Z"/><rect class="cls-3" x="90.59" y="216.81" width="5.12" height="5.12"/><rect class="cls-3" x="21.45" y="217.51" width="5.12" height="5.12"/><rect class="cls-3" x="90.59" y="147.87" width="5.12" height="5.12"/><rect class="cls-3" x="21.45" y="148.38" width="5.12" height="5.12"/></g><g id="Character--inject-306"><rect class="cls-4" x="116.31" y="171.97" width="308.92" height="288.56"/><rect class="cls-5" x="116.31" y="171.67" width="308.92" height="19.88"/><path class="cls-3" d="M130.6,183.18a2.88,2.88,0,1,1-2.88-3A3,3,0,0,1,130.6,183.18Z"/><path class="cls-3" d="M141,183.18a2.88,2.88,0,1,1-2.88-3A3,3,0,0,1,141,183.18Z"/><path class="cls-3" d="M150.61,181a3.16,3.16,0,0,1,0,4.29,2.77,2.77,0,0,1-3.91.16,1.21,1.21,0,0,1-.16-.16,3.14,3.14,0,0,1,0-4.29,2.79,2.79,0,0,1,3.94-.13A1.59,1.59,0,0,1,150.61,181Z"/><path class="cls-3" d="M425.23,460.23c0-1.51-.08-115.14-.18-288.56l.18.18H116.34l.22-.21V460.2l-.18-.18,308.91.18-308.91.18h-.18v-289H425.51v.18C425.33,345.09,425.23,458.72,425.23,460.23Z"/><rect class="cls-6" x="247.83" y="206.52" width="15.42" height="15.42"/><rect class="cls-6" x="267.49" y="206.52" width="15.42" height="15.42"/><rect class="cls-6" x="287.14" y="206.52" width="15.42" height="15.42"/><rect class="cls-7" x="287.14" y="206.52" width="15.42" height="15.42"/><rect class="cls-8" x="247.83" y="206.52" width="15.42" height="15.42"/><path class="cls-6" d="M343.74,312.86v1.36c0,.9,0,2.24-.13,3.93a70.22,70.22,0,0,1-2.75,14.73c-.53,1.54-1,3.2-1.69,4.84-.34.84-.67,1.7-1,2.57s-.82,1.72-1.24,2.6c-.8,1.79-1.87,3.54-2.92,5.39-.53.92-1.18,1.8-1.77,2.71a31.19,31.19,0,0,1-1.94,2.75,65.91,65.91,0,0,1-9.9,10.61A68.93,68.93,0,0,1,307,373.46l.13-.21c-.15,5.77-.31,11.87-.48,18.21v.24H246.62V374.29l.17.25c-2-1.05-4.21-2.07-6.26-3.36a68,68,0,0,1-11.62-107.6,71.82,71.82,0,0,1,8.89-7.14,74.75,74.75,0,0,1,8.84-5,68.78,68.78,0,0,1,15.42-5.12,73.06,73.06,0,0,1,10.2-1.26h3.59s-.3,0-.91.06l-2.66.1a75.5,75.5,0,0,0-10.17,1.35,69.56,69.56,0,0,0-15.32,5.2,72.69,72.69,0,0,0-8.78,5,69.26,69.26,0,0,0-8.81,7.14,68,68,0,0,0-15,21.07,67.72,67.72,0,0,0,26.61,85.77,69,69,0,0,0,6.19,3.36l.17.09v17.24l-.29-.3h59.53l-.26.25c.18-6.33.35-12.43.52-18.19v-.15l.12-.05a69,69,0,0,0,13.29-9A65.13,65.13,0,0,0,330,353.52c.71-.88,1.34-1.81,1.95-2.72s1.24-1.78,1.77-2.7c1.05-1.84,2.12-3.56,2.92-5.34.43-.89.89-1.73,1.25-2.59s.7-1.72,1-2.55c.74-1.62,1.18-3.28,1.71-4.81a71.76,71.76,0,0,0,2.89-14.67c.12-1.72.14-3.05.2-3.93S343.74,312.86,343.74,312.86Z"/><path class="cls-6" d="M284.89,391.17a7.91,7.91,0,0,1,.06-.85c.07-.58.16-1.4.27-2.44.27-2.15.65-5.32,1.26-9.4s1.4-9.05,2.7-14.76a100.28,100.28,0,0,1,6.13-18.9,64.91,64.91,0,0,1,5.6-10.17,12.49,12.49,0,0,1,4.64-4.17,7,7,0,0,1,6.45.22,4.55,4.55,0,0,1,2.15,2.69,4.77,4.77,0,0,1-.28,3.48,9.7,9.7,0,0,1-5.25,4.49,18.61,18.61,0,0,1-14.12-1A18.86,18.86,0,0,1,284.91,329a14.08,14.08,0,0,1-.39-7.85,6.08,6.08,0,0,1,6.16-4.72,4.35,4.35,0,0,1,3.46,2.39,6.15,6.15,0,0,1,.54,4.19c-.65,2.84-2.69,4.95-4.77,6.73a20.29,20.29,0,0,1-15.83,4.59,17.65,17.65,0,0,1-13.14-9.8,10.28,10.28,0,0,1-.46-8.22,5.24,5.24,0,0,1,3-3,5.11,5.11,0,0,1,4.18.4,6.72,6.72,0,0,1,2.87,3,10.59,10.59,0,0,1,1,3.91,19.66,19.66,0,0,1-1,7.76,20.17,20.17,0,0,1-9.58,11.38,20.57,20.57,0,0,1-14,2,10.72,10.72,0,0,1-6.11-3.25,5.25,5.25,0,0,1-.38-6.53,4.34,4.34,0,0,1,3.05-1.49,6.5,6.5,0,0,1,3.25.62,9.92,9.92,0,0,1,4.15,4.67c1.71,3.67,3.08,7.26,4.48,10.68,5.42,13.68,9.28,25,11.86,32.77,1.29,3.91,2.24,7,2.88,9l.7,2.36c.16.53.23.81.23.81a5.82,5.82,0,0,1-.3-.79l-.79-2.33-3-9c-2.68-7.79-6.62-19.06-12.11-32.68-1.4-3.36-2.8-7-4.48-10.6a9.2,9.2,0,0,0-3.87-4.35c-1.74-.86-4.17-.85-5.47.7a4.56,4.56,0,0,0,.39,5.6,10.13,10.13,0,0,0,5.73,3,19.87,19.87,0,0,0,13.47-1.88,19.55,19.55,0,0,0,9.18-11,18.62,18.62,0,0,0,1-7.44c-.18-2.48-1.21-5.07-3.48-6.24a4.12,4.12,0,0,0-5.65,1.44,4.48,4.48,0,0,0-.37.8,9.47,9.47,0,0,0,.46,7.57,16.83,16.83,0,0,0,12.51,9.3,19.46,19.46,0,0,0,15.17-4.4c2-1.73,3.93-3.78,4.48-6.29a5.23,5.23,0,0,0-.46-3.62,3.55,3.55,0,0,0-2.81-2,4.78,4.78,0,0,0-3.36,1.12,5.85,5.85,0,0,0-1.94,3,13.53,13.53,0,0,0,.38,7.38,17.93,17.93,0,0,0,22.68,11.88,8.94,8.94,0,0,0,4.87-4.14,4,4,0,0,0-1.57-5.27,6.36,6.36,0,0,0-5.82-.21,12,12,0,0,0-4.4,3.95,64.42,64.42,0,0,0-5.61,10,101,101,0,0,0-6.24,18.76c-1.33,5.69-2.19,10.64-2.84,14.71s-1.12,7.18-1.4,9.37c-.14,1-.27,1.85-.36,2.43A3.75,3.75,0,0,0,284.89,391.17Z"/><path class="cls-6" d="M303.45,402.46a2.66,2.66,0,0,0,1.21-.42,2.27,2.27,0,0,0,.84-1.24,12.86,12.86,0,0,0,0-2.15v-1.29a2.52,2.52,0,0,0-.25-1.32,2.16,2.16,0,0,0-1.06-.94,4,4,0,0,0-1.61-.13h-7.84l-45.64.08a1.94,1.94,0,0,0-1.92,1.79v3.26a1.94,1.94,0,0,0,1.6,2H264l20.51.06,13.84.09,3.76.06h0l-3.76.06-13.84.08-20.51.06H248.69a2.53,2.53,0,0,1-2.09-2.59v-3.29a2.51,2.51,0,0,1,2.5-2.33l45.64.08h7.84a4.57,4.57,0,0,1,1.72.2,2.38,2.38,0,0,1,1.2,1.12,2.65,2.65,0,0,1,.26,1.44v1.29a14,14,0,0,1-.12,2.24,2.17,2.17,0,0,1-.95,1.29,2.23,2.23,0,0,1-.93.34A.87.87,0,0,1,303.45,402.46Z"/><path class="cls-6" d="M301.82,405.82a2.82,2.82,0,0,1,1.12.1,3.9,3.9,0,0,1,2.86,4.17,4,4,0,0,1-1.21,2.46,4.09,4.09,0,0,1-3,1.12h-3.56l.15-.1-5,9.94-1.45,2.84-.75,1.47a5.11,5.11,0,0,1-4.35,2.72H283c-4.86,0-10,.06-15.43,0a5.26,5.26,0,0,1-3.65-2.09c-.38-.6-.72-1.22-1-1.85l-.95-1.86-4-7.58-1.85-3.53.26.15H251a4.44,4.44,0,0,1-1.83-.31,4.11,4.11,0,0,1,1.19-7.91h9.7l21.84.05,14.53.07,4,.06h0l-4,.05-14.57.23-21.85.06h-9.58a3.58,3.58,0,0,0-2.6,1.51,3.53,3.53,0,0,0,1.57,5.31,4,4,0,0,0,1.61.27h5.52l.08.15,1.86,3.54,4,7.57,1,1.86a17,17,0,0,0,1,1.77,4.65,4.65,0,0,0,3.24,1.89c5.33.05,10.54,0,15.37,0h3.57a4.68,4.68,0,0,0,3-1.2,8.82,8.82,0,0,0,1.74-2.69c.49-1,1-1.91,1.45-2.83,1.9-3.67,3.61-7,5.13-9.91v-.08H298c2.45-.13,4.93.5,6.34-1a3.72,3.72,0,0,0,.79-4.42,3.85,3.85,0,0,0-2.25-1.9A9.12,9.12,0,0,0,301.82,405.82Z"/><rect class="cls-6" x="305.18" y="372.75" width="3.13" height="3.13"/><rect class="cls-6" x="304.86" y="389.38" width="3.13" height="3.13"/><rect class="cls-6" x="245.32" y="389.38" width="3.13" height="3.13"/><rect class="cls-6" x="245.32" y="372.75" width="3.13" height="3.13"/><rect class="cls-6" x="274.26" y="243.38" width="3.13" height="3.13"/><rect class="cls-6" x="342.17" y="311.31" width="3.13" height="3.13"/><path class="cls-6" d="M301.36,244.52c0,.16-11.87.3-26.5.3s-26.49-.14-26.49-.3,11.86-.29,26.49-.29S301.36,244.36,301.36,244.52Z"/><path class="cls-6" d="M302,244.52a.93.93,0,1,1-.93-.93h0A.93.93,0,0,1,302,244.52Z"/><circle class="cls-6" cx="248.37" cy="244.52" r="0.93"/><path class="cls-6" d="M345.88,276.09c-.07.15-15.57-6.79-34.61-15.51s-34.43-15.91-34.37-16.06,15.56,6.8,34.62,15.52S346,275.94,345.88,276.09Z"/><path class="cls-9" d="M211.25,133.39c0,.11-1.67-.42-4.4-.79a32,32,0,0,0-4.8-.26,35,35,0,0,0-5.85.68,35.4,35.4,0,0,0-5.6,1.78,31,31,0,0,0-4.27,2.25c-2.33,1.44-3.61,2.61-3.68,2.52s.27-.34.84-.86a10.29,10.29,0,0,1,1.12-.91c.47-.33.93-.74,1.53-1.12a27.08,27.08,0,0,1,4.28-2.37,29.72,29.72,0,0,1,11.67-2.5,28.4,28.4,0,0,1,4.87.39,18.78,18.78,0,0,1,1.84.39,9.49,9.49,0,0,1,1.36.38A5.34,5.34,0,0,1,211.25,133.39Z"/><path class="cls-6" d="M353.22,103.11,322,92.73h0C300.33,85,288.25,87,267.56,97c-1.35.65-3.66,1.66-5.85,2.63L225.2,115.74l-26.1,11.4c-17.59,7.66-26.8,25.16-27.64,44.33l86,.08,113.28-.06,19.68-34.75C385.64,112.54,361.25,106.9,353.22,103.11Z"/><path class="cls-6" d="M376.2,114.47l71.24,65.42a28.21,28.21,0,0,1-1,42.45l-37.17,31-26.2-14.84,30.69-39.7-43-27.28Z"/><path class="cls-3" d="M282.7,171a1.61,1.61,0,0,1,0-.31,4,4,0,0,0-.08-.9c0-.85-.12-2-.21-3.5-.17-3.08-.41-7.45-.7-12.84l.17.2A355,355,0,0,1,245,143.31c-7.33-2.43-14.12-5.32-20.51-7.19a51.1,51.1,0,0,0-9.25-1.88,31.65,31.65,0,0,0-8.19.22,24.08,24.08,0,0,0-10.88,4.48,21.55,21.55,0,0,0-2.39,2.19l-.56.62q-.19.23-.21.21a14.75,14.75,0,0,1,3-3.2A23.82,23.82,0,0,1,207,134a31.7,31.7,0,0,1,8.31-.29,50.39,50.39,0,0,1,9.35,1.84c6.45,1.86,13.23,4.73,20.55,7.16,14.07,4.8,27.14,8.27,36.8,10.52h.16v.22c.21,5.39.38,9.77.5,12.86,0,1.47.08,2.65.1,3.49v.91A1.36,1.36,0,0,1,282.7,171Z"/><path class="cls-3" d="M267.58,149.91c-.16,0-.1-5.44.14-12.16s.57-12.16.72-12.16.1,5.46-.13,12.17S267.75,149.92,267.58,149.91Z"/><path class="cls-3" d="M370.41,172a5.24,5.24,0,0,1,0-1.37c0-1,.09-2.25.14-3.73.11-3.13.18-7.47.21-12.32s.13-9.15.28-12.33c.08-1.57.16-2.85.24-3.73a6.26,6.26,0,0,1,.18-1.36,6.36,6.36,0,0,1,.06,1.38c0,1,0,2.24-.06,3.72,0,3.27-.07,7.55-.11,12.33s-.17,9.15-.39,12.33c-.11,1.57-.22,2.84-.33,3.72A6.23,6.23,0,0,1,370.41,172Z"/><path class="cls-3" d="M318.16,116.4a14.43,14.43,0,0,1-2.32,1.55,15.38,15.38,0,0,1-2.29,1.56c-.13-.12.65-1.13,2-2.06A4.72,4.72,0,0,1,318.16,116.4Z"/><path class="cls-3" d="M321.54,126.59a5,5,0,0,1,.71-3.14c.83-1.62,2-2.56,2.12-2.43s-.83,1.12-1.59,2.7S321.71,126.59,321.54,126.59Z"/><path class="cls-3" d="M333,128.33a8.45,8.45,0,0,1,.33-5.61,10.1,10.1,0,0,1,0,2.8A10.24,10.24,0,0,1,333,128.33Z"/><path class="cls-3" d="M345.1,126.59a24.74,24.74,0,0,1-.9-3.16,24.21,24.21,0,0,1-1-3.13,8.84,8.84,0,0,1,1.89,6.29Z"/><path class="cls-3" d="M352.88,118.2c-.16.07-.71-.87-1.52-1.92s-1.56-1.84-1.45-2,1.12.5,1.92,1.62A4.32,4.32,0,0,1,352.88,118.2Z"/><path class="cls-3" d="M358,111.46c-.15.09-1-1.12-2.47-2.14s-2.89-1.4-2.86-1.57a4.8,4.8,0,0,1,3.2,1.12A4.71,4.71,0,0,1,358,111.46Z"/><path class="cls-3" d="M313.88,108.66c0,.16-1.12.39-2.24,1s-2,1.36-2.15,1.25.56-1.12,1.88-1.78A3.32,3.32,0,0,1,313.88,108.66Z"/><path class="cls-3" d="M312.64,101.69c-.09.14-1-.28-2.09-.48s-2.09-.1-2.13-.27,1-.52,2.24-.3S312.74,101.57,312.64,101.69Z"/><path class="cls-3" d="M282.37,166.52a14.78,14.78,0,0,1-4.09.3,15.21,15.21,0,0,1-4.09-.31,15.2,15.2,0,0,1,4.09-.29A15.59,15.59,0,0,1,282.37,166.52Z"/><path class="cls-3" d="M282.14,160.91a13.38,13.38,0,0,1-3.88.45,12.77,12.77,0,0,1-3.9-.15,26.71,26.71,0,0,1,7.78-.3Z"/><path class="cls-3" d="M281.86,156.13a13.36,13.36,0,0,1-4,.15,13.64,13.64,0,0,1-4-.44,13.69,13.69,0,0,1,4-.14A14,14,0,0,1,281.86,156.13Z"/><path class="cls-3" d="M433.32,202.81c-.08.06-.9-.8-2.48-1.89a20.18,20.18,0,0,0-2.91-1.62,19.14,19.14,0,0,0-7.94-1.65,19.94,19.94,0,0,0-3.36.34c-1.87.37-3,.84-3,.74s.25-.18.74-.41a11.53,11.53,0,0,1,2.19-.74,16.59,16.59,0,0,1,3.36-.47,19.56,19.56,0,0,1,4.19.37,18.46,18.46,0,0,1,4,1.34,16.87,16.87,0,0,1,2.94,1.77,13.23,13.23,0,0,1,1.72,1.54C433.17,202.55,433.35,202.81,433.32,202.81Z"/><path class="cls-3" d="M409.64,245.13a17,17,0,0,1-2.25,3.15,15.35,15.35,0,0,1-2.55,2.91,11.25,11.25,0,0,1,2.09-3.27A10.89,10.89,0,0,1,409.64,245.13Z"/><path class="cls-3" d="M402.25,239.31a26.35,26.35,0,0,1-5.66,7.11,23,23,0,0,1,2.68-3.67A21.71,21.71,0,0,1,402.25,239.31Z"/><path class="cls-3" d="M395.63,234.59a21,21,0,0,1-3.19,3.73,21.7,21.7,0,0,1-3.61,3.36A20.69,20.69,0,0,1,392,238,21.29,21.29,0,0,1,395.63,234.59Z"/><g class="cls-10"><path d="M413.2,198.58a20.09,20.09,0,0,1,16.71-4.07c2,.44,4.19,1.4,4.93,3.36a2.52,2.52,0,0,1-1,3.21c-1.12.48-2.4-.32-3.46-1a18.69,18.69,0,0,0-16.5-1.42l1.7-.31"/></g><g class="cls-11"><path d="M202.28,135.86c5.37-4.49,12.75-5.92,19.71-5.3s13.6,3.11,20.06,5.76c4.48,1.85,9,3.79,13.58,5.29a24.82,24.82,0,0,1,11,7.22l.95,1.12c-17.63-5.54-20-6.47-37.64-12a79,79,0,0,0-14.24-3.51,26.39,26.39,0,0,0-14.36,1.93"/></g><path class="cls-9" d="M363,107.25a1,1,0,0,1-.06.27l-.22.78a25,25,0,0,1-1.05,2.89,36.69,36.69,0,0,1-5.92,9.65,33.23,33.23,0,0,1-13.63,9.67,31.5,31.5,0,0,1-20.36.73,28.75,28.75,0,0,1-15.87-12.67,25,25,0,0,1-3.12-8.45,25.76,25.76,0,0,1-.12-7.84,24.55,24.55,0,0,1,4-10.55,16.27,16.27,0,0,1,2.67-3.18,1.12,1.12,0,0,1-.16.22l-.52.62a8.57,8.57,0,0,0-.79,1,14.55,14.55,0,0,0-1,1.45,24.86,24.86,0,0,0-3.78,10.48,25.3,25.3,0,0,0,.19,7.72,24.83,24.83,0,0,0,3.1,8.26A28.34,28.34,0,0,0,322,130.64a31.11,31.11,0,0,0,20-.67,33.26,33.26,0,0,0,13.51-9.44,38.7,38.7,0,0,0,6-9.48c.53-1.21.91-2.24,1.12-2.84.11-.31.21-.55.28-.75A2.39,2.39,0,0,1,363,107.25Z"/><path class="cls-9" d="M398.24,135.15a1.86,1.86,0,0,1-.08.41,3.91,3.91,0,0,1-.58,1.06,5.36,5.36,0,0,1-4.17,1.83,10.45,10.45,0,0,1-3.37-.61c-1.17-.37-2.4-.89-3.75-1.3a28.94,28.94,0,0,0-9.53-1.12,51.06,51.06,0,0,0-11.51,2c-4.07,1.12-8.32,2.61-12.88,4a87.35,87.35,0,0,1-14.57,3.14,58.94,58.94,0,0,1-16-.14,45.48,45.48,0,0,1-15.2-5.08,38.27,38.27,0,0,1-6.28-4.36,44.63,44.63,0,0,1-5.13-5.25c-3.06-3.67-5.54-7.45-8-10.88a69.91,69.91,0,0,0-7.41-9.06A30.67,30.67,0,0,0,272,104a22.58,22.58,0,0,0-6.88-2.24,17.64,17.64,0,0,0-4.59-.12c-1.05.1-1.59.23-1.6.2a9.53,9.53,0,0,1,1.59-.32,17.09,17.09,0,0,1,4.63,0,22.22,22.22,0,0,1,7,2.24,30.4,30.4,0,0,1,7.84,5.71,69.28,69.28,0,0,1,7.51,9.07c2.48,3.43,5,7.2,8,10.82a39,39,0,0,0,11.27,9.46,45.52,45.52,0,0,0,15,5,59,59,0,0,0,15.87.15,86.65,86.65,0,0,0,14.52-3.09c4.55-1.35,8.81-2.85,12.91-3.93a50.91,50.91,0,0,1,11.62-1.9,29.57,29.57,0,0,1,9.63,1.21c1.38.43,2.6,1,3.76,1.35a10.73,10.73,0,0,0,3.22.65,5.38,5.38,0,0,0,4.08-1.67A4.2,4.2,0,0,0,398.24,135.15Z"/><path class="cls-9" d="M267.22,140.2a1.4,1.4,0,0,1-.5,0,9.76,9.76,0,0,1-1.44-.16,13.29,13.29,0,0,1-4.9-2.07,24.63,24.63,0,0,1-5.7-5.46c-1.86-2.31-3.63-5-5.85-7.59a26.13,26.13,0,0,0-7.41-5.89,27.77,27.77,0,0,0-7.29-2.63,36.56,36.56,0,0,0-7.16-.59,1.44,1.44,0,0,1,.51-.09c.32,0,.8-.1,1.43-.12a24.15,24.15,0,0,1,5.3.4,26.32,26.32,0,0,1,15,8.54c2.25,2.59,4,5.33,5.84,7.64a25.65,25.65,0,0,0,5.51,5.45,13.73,13.73,0,0,0,4.72,2.18C266.53,140.13,267.22,140.14,267.22,140.2Z"/><path class="cls-9" d="M369,171.15s0-.07-.15-.24l-.37-.74a12.37,12.37,0,0,0-.64-1.19,15.77,15.77,0,0,0-1-1.57,29,29,0,0,0-8.34-8.13,36.63,36.63,0,0,0-7.2-3.65,43.87,43.87,0,0,0-9-2.24,90.33,90.33,0,0,0-21.3-.11c-7.55.66-14.77,1.51-21.37,1.5a56.14,56.14,0,0,1-17.37-2.41,35.57,35.57,0,0,1-10.54-5.27,21.07,21.07,0,0,1-3.25-2.86s.09,0,.23.17l.63.54c.27.24.62.54,1,.86s.91.72,1.48,1.12A36.36,36.36,0,0,0,282.5,152a56.46,56.46,0,0,0,17.19,2.24c6.58,0,13.77-.88,21.3-1.55a89.33,89.33,0,0,1,21.43.17,44.57,44.57,0,0,1,9.08,2.35,36.74,36.74,0,0,1,7.26,3.76,28.2,28.2,0,0,1,8.29,8.35A18.65,18.65,0,0,1,369,171.15Z"/><path class="cls-9" d="M414.47,150.13c0,.13-2.58.32-6.57,1.53l-1.55.5c-.55.17-1.12.41-1.65.63-1.12.42-2.32,1-3.55,1.61a42.26,42.26,0,0,0-13.7,11.26c-.81,1.12-1.63,2.13-2.24,3.17-.32.53-.66,1-.94,1.51s-.54,1-.78,1.42c-1.95,3.68-2.65,6.2-2.78,6.15a12.1,12.1,0,0,1,.49-1.76,16,16,0,0,1,.74-2,27.26,27.26,0,0,1,1.18-2.58l.76-1.46c.27-.51.6-1,.93-1.53a38.06,38.06,0,0,1,2.24-3.24,40.27,40.27,0,0,1,13.88-11.41,35.37,35.37,0,0,1,3.62-1.58c.58-.22,1.12-.45,1.68-.62l1.58-.47a26.31,26.31,0,0,1,2.76-.65,16.41,16.41,0,0,1,2.1-.34A9.93,9.93,0,0,1,414.47,150.13Z"/><path class="cls-9" d="M435,169.73a7.89,7.89,0,0,1-1.58.44c-1,.23-2.51.61-4.32,1.12a55.09,55.09,0,0,0-6.22,2.24,70.51,70.51,0,0,0-7.26,3.54,72.87,72.87,0,0,0-6.73,4.42c-2,1.49-3.69,2.92-5.08,4.2s-2.47,2.34-3.2,3.11a9.73,9.73,0,0,1-1.19,1.12,8.12,8.12,0,0,1,1-1.3,43,43,0,0,1,3.09-3.24,55.37,55.37,0,0,1,5-4.32,65.39,65.39,0,0,1,6.8-4.48,66.07,66.07,0,0,1,7.35-3.52A58.38,58.38,0,0,1,429,171c1.83-.49,3.36-.82,4.37-1A10.1,10.1,0,0,1,435,169.73Z"/><path class="cls-9" d="M456.21,208.13a11.2,11.2,0,0,1-1.66.74,17.59,17.59,0,0,1-2,.71,27.79,27.79,0,0,1-2.71.74l-1.6.34c-.56.13-1.12.18-1.75.27a36.63,36.63,0,0,1-3.91.35,43.47,43.47,0,0,1-9-.66A44.17,44.17,0,0,1,425,208c-1.26-.59-2.46-1.12-3.51-1.74-.54-.3-1.07-.57-1.55-.89l-1.37-.89c-.77-.52-1.52-1.09-2.24-1.68a14.12,14.12,0,0,1-1.61-1.38,9.68,9.68,0,0,1-1.27-1.29c.09-.1,1.91,1.75,5.37,4l1.37.86c.48.29,1,.55,1.53.84a34.57,34.57,0,0,0,3.5,1.67,41.88,41.88,0,0,0,17.3,3.23,35.62,35.62,0,0,0,3.85-.29c.61-.08,1.19-.12,1.74-.22l1.59-.32C453.8,209.06,456.15,208,456.21,208.13Z"/><path class="cls-9" d="M417.13,245.17a7.2,7.2,0,0,1-.34-1.31c-.22-1-.49-2.17-.79-3.61a52.53,52.53,0,0,0-3.72-11.52,23.89,23.89,0,0,0-7.62-9.18,27.16,27.16,0,0,0-4.48-2.32,4.67,4.67,0,0,1,1.32.34,14.91,14.91,0,0,1,3.36,1.63,23.18,23.18,0,0,1,7.93,9.27,47.48,47.48,0,0,1,3.57,11.71c.28,1.53.48,2.78.61,3.64A6.15,6.15,0,0,1,417.13,245.17Z"/><path class="cls-9" d="M249.45,171.61a3.49,3.49,0,0,1-.14-1,21.8,21.8,0,0,1,0-2.8,31,31,0,0,1,6.24-17.19,19.59,19.59,0,0,1,1.82-2.14,4.34,4.34,0,0,1,.76-.7s-.91,1.12-2.24,3.07a35.07,35.07,0,0,0-6.18,17C249.5,170.16,249.56,171.61,249.45,171.61Z"/><path class="cls-9" d="M206.62,171.42a7.49,7.49,0,0,1,0-1.64,15.22,15.22,0,0,1,.13-1.92c.09-.74.16-1.6.35-2.52s.36-2,.66-3,.64-2.24,1-3.36a45.41,45.41,0,0,1,3.46-7.37,46,46,0,0,1,4.85-6.53c.86-.91,1.67-1.79,2.51-2.52a26.5,26.5,0,0,1,2.35-2A23,23,0,0,1,224,139a15.4,15.4,0,0,1,1.63-1,10,10,0,0,1,1.44-.78c.07.12-2,1.25-4.87,3.64a22.76,22.76,0,0,0-2.24,2c-.74.78-1.59,1.61-2.44,2.52a43.28,43.28,0,0,0-8.2,13.72c-.4,1.12-.81,2.24-1.12,3.36s-.53,2.06-.72,3C206.76,169.06,206.76,171.42,206.62,171.42Z"/><path class="cls-3" d="M314.36,96c-.11.12-1-.59-2.17-1.12A9.87,9.87,0,0,1,310,93.78a3.51,3.51,0,0,1,2.5.54C313.71,94.9,314.45,95.86,314.36,96Z"/><path class="cls-3" d="M325.65,33.74A60.07,60.07,0,0,1,324.76,22a20.15,20.15,0,0,1,3.66-11,12.15,12.15,0,0,1,10.09-5c2.42.15,4.77,1.2,7.19,1,2.8-.26,5.14-2.14,7.61-3.46a20.47,20.47,0,0,1,12.76-2.16,12.25,12.25,0,0,1,6.26,2.67,6.87,6.87,0,0,1,2.38,6.18,32.9,32.9,0,0,1,8.47.2,11,11,0,0,1,7.08,4.33,6.71,6.71,0,0,1-.21,7.9,5.43,5.43,0,0,1,6.25,3.7,7,7,0,0,1-2.36,7.18,13,13,0,0,1-8.66,2.38c-2.66-.34-5.71-.87-7.94-2.35"/><path class="cls-12" d="M329.23,122.56h0a20.35,20.35,0,0,0,23.78-16c1.21-6.13,2.19-11.2,2.19-11.2S371.11,97,375.37,81.78s11-51,11-51h0a54.91,54.91,0,0,0-55.15-7.58l-2.73,1.12L313.09,98.4a20.35,20.35,0,0,0,15.75,24.09Z"/><path class="cls-13" d="M355.29,95a36.75,36.75,0,0,1-18.41-11S338.65,96.31,354.27,99Z"/><path class="cls-12" d="M326.14,40.66c-.23-.17-9.67-5.89-12.11,4.63s8.62,10.82,8.71,10.53S326.14,40.66,326.14,40.66Z"/><path class="cls-13" d="M320.45,51.08a2.73,2.73,0,0,1-.56.15,1.8,1.8,0,0,1-1.37-.29c-1-.66-1.54-2.64-1.12-4.56a6.13,6.13,0,0,1,1.12-2.51,2.24,2.24,0,0,1,1.71-1.12,1,1,0,0,1,1,.76,1.07,1.07,0,0,1,0,.55s.27-.12.29-.57a1.22,1.22,0,0,0-.27-.76,1.37,1.37,0,0,0-.95-.51,2.68,2.68,0,0,0-2.3,1.19,6.36,6.36,0,0,0-1.35,2.83c-.43,2.12.19,4.37,1.61,5.16a2,2,0,0,0,1.75.09C320.37,51.32,320.48,51.11,320.45,51.08Z"/><path class="cls-3" d="M375.15,55.2a2.25,2.25,0,0,1-2.69,1.65,2.17,2.17,0,0,1-1.73-2.54v0a2.23,2.23,0,0,1,2.69-1.64,2.14,2.14,0,0,1,1.74,2.49S375.15,55.18,375.15,55.2Z"/><path class="cls-3" d="M377.71,51.49c-.34.21-1.67-1.46-4-2.07s-4.38.1-4.56-.26c-.09-.16.32-.6,1.22-.95a6.13,6.13,0,0,1,3.74-.14,6,6,0,0,1,3.11,2C377.77,50.76,377.88,51.35,377.71,51.49Z"/><path class="cls-3" d="M351.18,49.12a2.23,2.23,0,0,1-2.69,1.63,2.15,2.15,0,0,1-1.74-2.5l0-.06a2.24,2.24,0,0,1,2.69-1.64,2.16,2.16,0,0,1,1.73,2.52Z"/><path class="cls-3" d="M354.52,45.72c-.34.21-1.68-1.45-4-2.07s-4.38.1-4.56-.26c-.09-.16.32-.6,1.22-.94a6.13,6.13,0,0,1,3.74-.15,5.89,5.89,0,0,1,3.11,2C354.58,45.05,354.71,45.63,354.52,45.72Z"/><path class="cls-3" d="M358.4,65.4a15.72,15.72,0,0,1,4,.33c.62.1,1.22.13,1.44-.25a3.26,3.26,0,0,0,.06-1.88c-.18-1.61-.35-3.29-.55-5.05-.74-7.15-1.12-13-.8-13s1.12,5.75,1.85,12.91c.15,1.76.32,3.44.47,5a3.59,3.59,0,0,1-.32,2.43,1.58,1.58,0,0,1-1.22.62,4.15,4.15,0,0,1-1.05-.14A16.13,16.13,0,0,1,358.4,65.4Z"/><path class="cls-3" d="M351.06,65.18c.39.08-.28,2.63,1.41,5S357,73,356.89,73.39c0,.17-.74.34-1.9,0a6.5,6.5,0,0,1-3.72-2.52,5.75,5.75,0,0,1-1-4.16C350.43,65.67,350.89,65.12,351.06,65.18Z"/><path class="cls-3" d="M378,47.08c-.56.41-2-.56-4-1.13s-3.68-.59-3.92-1.25c-.09-.31.31-.79,1.12-1.12a5.94,5.94,0,0,1,6.34,1.9C378.12,46.25,378.25,46.86,378,47.08Z"/><path class="cls-3" d="M353.73,36.43c-.34.21-.91-.07-1.65-.43a18.68,18.68,0,0,0-2.79-1.12,17.72,17.72,0,0,0-3-.58c-.82-.11-1.45-.2-1.62-.57s.26-.95,1.26-1.4a6.35,6.35,0,0,1,7.51,2.24C354.05,35.5,354.05,36.23,353.73,36.43Z"/><path class="cls-3" d="M385.84,35.61a37.15,37.15,0,0,1-22-7.07c-7.12-5.07-15.87-8.43-18.11-7.21s-3.95,9.13-12,10.22c0,0-1.92,15.3-7.91,13.78s1.62-24.46,1.62-24.46l16-4.85,16.7-.4,15.16,2.45,13.4,6.52Z"/><path class="cls-12" d="M404.6,250.68s-16.81,25.78-20.69,26.16c-1,.11-1.94.87-4.35,1.33-.5.09-2.51-.48-3.07-.41-9,1.12-22.12,2.41-22.41-.28-.46-4.13,3.83-4.38,7.56-5q3.56-.66,7-1.67a4,4,0,0,0,2.84-3.37c.53-3.91,1.51-11.15,1.82-12.86.44-2.37,11.53-11.6,11.53-11.6Z"/><path class="cls-3" d="M357.1,269.35l36.75-9.13a2.85,2.85,0,0,1,3.46,2h0a2.87,2.87,0,0,1-2,3.52h-.06l-36.56,9.42a2,2,0,0,1-2.46-1.37l-.58-1.84a2,2,0,0,1,1.31-2.57Z"/><path class="cls-12" d="M378.44,264.05s-9.48,3.36-16.81,6.49a6.86,6.86,0,0,1-3,.59,2.91,2.91,0,0,1-2.55-1.48c-.63-1.31,1-1.9,2.15-2.81s2.85-2.17,4.28-3.29a8.57,8.57,0,0,0,3.2-4.76c2.05-8.3,10.8-17.78,19.12-15.78l2.06-2.35,17.7,10"/><path class="cls-6" d="M351.71,269.55l-6,5.82.14.48,5.67-1.73a.66.66,0,0,1,1.28-.26.65.65,0,0,1-1.2.5l-5.67,1.73.14.47,8.46,1.5a3.36,3.36,0,0,1,1.87-3.88l-.8-2.67C352.9,272.3,351.71,269.55,351.71,269.55Z"/><path class="cls-13" d="M380.16,274.37a1.23,1.23,0,0,1-.28.87A6.81,6.81,0,0,1,378.1,277a5.67,5.67,0,0,1-1.55.83,14.52,14.52,0,0,1-1.94.4c-1.37.21-2.87.26-4.48.38-3.15.19-6,.32-8.06.4a21.07,21.07,0,0,1-3.37,0,19.17,19.17,0,0,1,3.37-.42c2.05-.17,4.89-.38,8-.57,1.57-.11,3.08-.15,4.41-.32a13,13,0,0,0,1.86-.34,5.58,5.58,0,0,0,1.46-.69,8.09,8.09,0,0,0,1.82-1.53C380.06,274.68,380.1,274.36,380.16,274.37Z"/><path class="cls-13" d="M385.59,273.9a3.79,3.79,0,0,1-.75,1.37,8.19,8.19,0,0,1-2.83,2.5,5.73,5.73,0,0,1-3.75.55,4.49,4.49,0,0,1-1.12-.33c-.24-.11-.37-.18-.36-.22s.17,0,.43,0a8.36,8.36,0,0,0,1.12.14,6.28,6.28,0,0,0,3.43-.66,9.73,9.73,0,0,0,2.78-2.24C385.15,274.31,385.53,273.86,385.59,273.9Z"/><path class="cls-13" d="M378.79,263.5a15.9,15.9,0,0,1-2.77,1.38c-1.72.78-4.13,1.83-6.82,2.92s-5.15,2-6.95,2.65a7.89,7.89,0,0,1-3.05.73s.28-.09.77-.28,1.21-.45,2.1-.8l6.87-2.79c2.69-1.12,5.12-2.08,6.89-2.77A17,17,0,0,1,378.79,263.5Z"/><path class="cls-12" d="M282.14,155.24s39.52-.14,44.73,16.24l-44,.14Z"/></g><g id="tools-tabs--inject-306"><rect class="cls-4" x="359.33" y="343.26" width="138.27" height="53.74"/><rect class="cls-6" x="359.33" y="343.26" width="138.27" height="11.52"/><rect class="cls-4" x="367.12" y="369.15" width="13.66" height="13.66"/><path class="cls-3" d="M380.79,382.82a6.05,6.05,0,0,1-.06-1c0-.72,0-1.65-.07-2.8,0-2.46-.08-5.83-.13-9.83l.26.26H367.12c-.07.07.55-.55.29-.28h0v13.63l-.25-.25,9.81.13,2.82.06c.65,0,1,0,1,.06a4.82,4.82,0,0,1-.93,0l-2.75.07c-2.39,0-5.83.11-10,.13h-.25V369.07h0c-.26.26.36-.36.29-.3h13.91V369c0,4.16-.08,7.61-.12,10,0,1.13-.06,2-.07,2.75A7.81,7.81,0,0,1,380.79,382.82Z"/><line class="cls-14" x1="380.79" y1="369.15" x2="367.12" y2="382.82"/><path class="cls-6" d="M367.12,382.82a161.29,161.29,0,0,1,13.67-13.67,80.22,80.22,0,0,1-6.63,7A80.22,80.22,0,0,1,367.12,382.82Z"/><rect class="cls-3" x="384.9" y="369.15" width="13.66" height="13.66"/><rect class="cls-5" x="402.68" y="369.15" width="13.66" height="13.66"/><rect class="cls-6" x="420.45" y="369.15" width="13.66" height="13.66"/><rect class="cls-6" x="438.23" y="369.15" width="13.66" height="13.66"/><g class="cls-15"><rect class="cls-4" x="438.23" y="369.15" width="13.66" height="13.66"/></g><rect class="cls-6" x="455.99" y="369.15" width="13.66" height="13.66"/><g class="cls-10"><rect x="455.99" y="369.15" width="13.66" height="13.66"/></g><rect class="cls-6" x="473.77" y="369.15" width="13.66" height="13.66"/><g class="cls-16"><rect x="473.77" y="369.15" width="13.66" height="13.66"/></g><path class="cls-3" d="M497.59,397v-3.75c0-2.45,0-6-.06-10.68,0-9.26-.06-22.67-.11-39.33l.2.2-138.24.09h0l.29-.29v53.8l-.28-.28,99.06.12,28.79.08h.13l-28.73.08-99.25.14h-.28V342.82h.3l138.25.09h.2v.2c0,16.72-.08,30.17-.1,39.46,0,4.62,0,8.19-.06,10.64V396A4.75,4.75,0,0,1,497.59,397Z"/><rect class="cls-4" x="46.65" y="31.72" width="128.37" height="93.75"/><rect class="cls-6" x="46.65" y="31.72" width="128.37" height="11.71"/><path class="cls-4" d="M53.62,37.91a1.35,1.35,0,0,1-2.68.24,1,1,0,0,1,0-.24,1.35,1.35,0,0,1,2.68-.25A1,1,0,0,1,53.62,37.91Z"/><path class="cls-4" d="M59.06,37.91a1.35,1.35,0,1,1-1.37-1.47,1.41,1.41,0,0,1,1.37,1.45Z"/><path class="cls-4" d="M64.48,37.91a1.35,1.35,0,0,1-2.68.24,1,1,0,0,1,0-.24,1.35,1.35,0,0,1,2.68-.25A1,1,0,0,1,64.48,37.91Z"/><rect class="cls-6" x="58.85" y="54.91" width="18.29" height="46.02"/><rect class="cls-17" x="87.07" y="54.91" width="18.29" height="46.02"/><rect class="cls-9" x="115.28" y="54.91" width="18.29" height="46.02"/><rect class="cls-1" x="143.49" y="55.27" width="18.29" height="46.02"/><rect class="cls-6" x="56.74" y="106.02" width="110.89" height="10.51"/><polygon class="cls-3" points="159.19 114.38 161.58 127.05 163.54 123.51 167.75 129.82 169.85 128.41 165.65 122.09 169.52 121.5 159.19 114.38"/><path class="cls-3" d="M175,125.47v-6.69c0-4.37,0-10.76-.07-18.93,0-16.34-.07-39.74-.12-68.12l.23.24L46.7,32h0l.3-.29v93.74l-.27-.26,92.59.13,26.35.07h.11l-26.28.07-92.77.13h-.26V31.43h.3l128.36.05h.25v.24c-.06,28.45-.1,51.91-.14,68.26,0,8.15,0,14.57-.05,18.87v4.94A6.4,6.4,0,0,1,175,125.47Z"/><rect class="cls-4" x="48.23" y="396.1" width="130.71" height="50.82"/><rect class="cls-6" x="48.23" y="396.1" width="130.71" height="10.89"/><rect class="cls-6" x="63.76" y="415.29" width="12.83" height="12.83"/><rect class="cls-6" x="71.54" y="423.07" width="12.83" height="12.83"/><rect class="cls-6" x="94.36" y="415.29" width="12.83" height="12.83"/><rect class="cls-4" x="102.14" y="423.07" width="12.83" height="12.83"/><path class="cls-6" d="M115,435.94a5.24,5.24,0,0,1,0-1c0-.69,0-1.57-.07-2.64,0-2.24-.1-5.42-.14-9.22l.26.26H102.2l.29-.29h0v12.77l-.25-.24c3.79,0,7,.08,9.23.12l2.63.07h1a4.3,4.3,0,0,1-.88.07l-2.58.05c-2.24.06-5.48.11-9.38.14H102v-13h0l.3-.29h13.09V423c0,3.91-.08,7.15-.13,9.4,0,1,0,1.89-.06,2.57A5.69,5.69,0,0,1,115,435.94Z"/><rect class="cls-4" x="122.91" y="415.29" width="12.83" height="12.83"/><path class="cls-6" d="M135.74,428.1v-1c0-.61,0-1.57-.06-2.63,0-2.24-.1-5.44-.13-9.24l.25.26H123l.29-.28h0v12.86l-.26-.26c3.8,0,7,.08,9.23.13l2.64.07a5.13,5.13,0,0,1,1,0,6.11,6.11,0,0,1-.86.06l-2.58.06c-2.24,0-5.48.1-9.39.13h-.3v-13h0c-.26.26.36-.36.29-.3h13.09v.24c0,3.92-.08,7.15-.12,9.4,0,1,0,1.9-.07,2.57A4.17,4.17,0,0,1,135.74,428.1Z"/><rect class="cls-4" x="130.69" y="423.07" width="12.83" height="12.83"/><path class="cls-6" d="M143.52,435.94a6.31,6.31,0,0,1-.05-1c0-.69,0-1.57-.07-2.64,0-2.24-.1-5.42-.12-9.22l.24.26H130.69l.29-.29h0v12.85l-.25-.24c3.79,0,7,.07,9.23.12l2.63.07h1a4.29,4.29,0,0,1-.88.06l-2.57.06c-2.25.06-5.48.11-9.39.13h-.25v-13h0l.29-.29h13.09V423c0,3.91-.09,7.15-.13,9.4,0,1,0,1.89-.07,2.57A4.74,4.74,0,0,1,143.52,435.94Z"/><rect class="cls-6" x="130.69" y="423.07" width="5.07" height="5.07"/><rect class="cls-6" x="149.16" y="415.29" width="12.83" height="12.83"/><rect class="cls-6" x="156.94" y="423.07" width="12.83" height="12.83"/><rect class="cls-9" x="156.94" y="423.07" width="5.07" height="5.07"/><path class="cls-3" d="M178.94,446.92v-3.55c0-2.32,0-5.71-.05-10.08,0-8.76,0-21.43-.12-37.18l.21.2-130.71.09h0l.29-.29v50.82l-.28-.28,93.66.13,27.22.08h.13l-27.16.08-93.9.21H48V395.76h.3l130.7.09h.22v.2c0,15.8-.08,28.52-.1,37.3,0,4.36,0,7.75-.06,10.09V446A4.24,4.24,0,0,1,178.94,446.92Z"/><rect class="cls-4" x="76.04" y="205.22" width="90.7" height="155.57"/><rect class="cls-6" x="76.04" y="205.22" width="90.7" height="13.11"/><polygon class="cls-6" points="97.83 234.68 98.92 249.2 102.99 243.91 109.78 243.63 97.83 234.68"/><path class="cls-6" d="M137,234.68a1.07,1.07,0,0,1,.22.15l.65.47,2.47,1.8,8.7,6.39.38.28H149l-6.55.28h-.23l.13-.07-4.06,5.29-.27.35v-.43c-.28-4.19-.52-7.85-.7-10.53-.08-1.2-.13-2.24-.19-3v-.78a1,1,0,0,1,0-.25v.3a3.11,3.11,0,0,0,.08.82c.07.81.16,1.82.27,3,.22,2.65.53,6.22.87,10.34l-.29-.09,4.05-5.3h.37l6.54-.26-.09.31-8.45-6.46-2.47-1.9-.68-.53Z"/><path class="cls-6" d="M95.19,297.88c-.06-.07,4.49-4.86,10.15-10.7s10.33-10.51,10.4-10.44-4.49,4.85-10.15,10.69S95.26,297.94,95.19,297.88Z"/><path class="cls-6" d="M158.16,287.16a22.17,22.17,0,0,0-.46-3.24,13.53,13.53,0,0,0-4.73-7.35,12.68,12.68,0,0,0-12.43-1.94,11.89,11.89,0,0,0-3.29,1.86,12.48,12.48,0,0,0-2.72,2.85,13.6,13.6,0,0,0,0,15.69,12.36,12.36,0,0,0,2.73,2.86,12.12,12.12,0,0,0,3.29,1.85,12.76,12.76,0,0,0,6.92.61,13,13,0,0,0,5.51-2.54,13.53,13.53,0,0,0,4.73-7.35,22.17,22.17,0,0,0,.46-3.24v.85a5.89,5.89,0,0,1-.09,1,9.4,9.4,0,0,1-.24,1.39,13.49,13.49,0,0,1-4.7,7.51,12.9,12.9,0,0,1-12.7,2,12.08,12.08,0,0,1-3.36-1.88,12.77,12.77,0,0,1-2.8-2.93,13.92,13.92,0,0,1,0-16,12.84,12.84,0,0,1,2.79-2.91,12.67,12.67,0,0,1,3.36-1.9,13,13,0,0,1,12.69,2,13.56,13.56,0,0,1,4.71,7.53,10.76,10.76,0,0,1,.24,1.38,9.12,9.12,0,0,1,.09,1C158.17,286.87,158.16,287.16,158.16,287.16Z"/><path class="cls-6" d="M146.42,321.72l.32.24c.25.23.56.49.93.8l3.55,3.08.08.07-.08.08L136,343.47v.06h-.07l-1.84.28-3.29.5h-.25v-.24c.42-2.09.81-4.09,1.19-6h0c4.12-4.86,7.72-9,10.32-11.9s4.25-4.49,4.34-4.41a2.7,2.7,0,0,1-.31.28c-.19.19-.49.48-.84.88-.73.77-1.75,1.92-3,3.36-2.56,2.92-6.12,7.09-10.22,12v-.07l-1.12,6-.21-.2,3.31-.51,1.83-.27-.1.06L151,325.86V326l-3.44-3.13-.91-.84A4,4,0,0,1,146.42,321.72Z"/><path class="cls-6" d="M113.24,342.91v-6.08c0-3.88,0-9.32-.08-15.81l.16.15H92l.17-.17h0v21.86l-.15-.15,15.37.07h5.86a2.29,2.29,0,0,1-.37,0h-5.42L92,342.85h-.16V321.06h0l.18-.18h21.45V321c0,6.54-.06,12-.07,15.91v5.55A3.07,3.07,0,0,1,113.24,342.91Z"/><path class="cls-6" d="M95.19,321.06a32.16,32.16,0,0,1-4.6.16,32.25,32.25,0,0,1-4.61-.16,29.58,29.58,0,0,1,4.61-.18A29.5,29.5,0,0,1,95.19,321.06Z"/><path class="cls-6" d="M92,325.26a74.91,74.91,0,0,1,0-10.38A81.71,81.71,0,0,1,92,325.26Z"/><path class="cls-3" d="M166.74,360.78V349.21c0-7.49,0-18.38-.08-32.13,0-27.49-.07-66.33-.13-111.9l.27.27H76.12l.29-.29c0,59.34,0,113.78-.07,155.56l-.22-.22,66.13.12h18.24l-18.1.07-66.3.11h-.22v-.22c0-41.79,0-96.23-.07-155.57v-.3h91.26V205c-.05,45.63-.1,84.55-.13,112.09,0,13.73,0,24.6-.07,32.06v10.75A2.84,2.84,0,0,1,166.74,360.78Z"/></g></g></g></svg>