<?xml version="1.0" encoding="utf-8"?>
<!-- Generator: Adobe Illustrator 24.0.0, SVG Export Plug-In . SVG Version: 6.00 Build 0)  -->
<svg version="1.1" id="Layer_1" xmlns="http://www.w3.org/2000/svg" xmlns:xlink="http://www.w3.org/1999/xlink" x="0px" y="0px"
	 viewBox="0 0 612 792" style="enable-background:new 0 0 612 792;" xml:space="preserve">
<style type="text/css">
	.st0{fill-rule:evenodd;clip-rule:evenodd;fill:#1E1E1E;}
	.st1{fill:#1E1E1E;}
</style>
<g>
	<g>
		<g>
			<path class="st0" d="M313.4,265.4c51.2,0,97.6,20.8,131.2,54.5c21,21.1,37,47.2,46,76.4c-1.8,2-3.5,4.2-5,6.4l0-0.1l-17.2,5.2
				c0.8,2.9,1.6,5.9,2.2,8.9l7.9-1.6c-1.1,2.4-2,4.8-2.9,7.3l-3.8,0.8c0.5,2.9,0.9,5.8,1.3,8.7c-0.9,4.8-1.4,9.8-1.4,14.9
				c0,8.3,1.3,16.3,3.8,23.8l-2.3-0.2c-0.4,3.1-0.8,6.1-1.3,9.1l7.8,1.6c1.3,2.6,2.7,5.2,4.3,7.6l-13.4-2.7c-0.7,3-1.4,6-2.2,8.9
				l17.2,5.2c0.6-2.2,1.2-4.5,1.7-6.7c1.6,2.2,3.4,4.2,5.3,6.2c-8.5,32-25.4,60.5-48,83.3c-33.6,33.7-79.9,54.5-131.2,54.5
				c-51.2,0-97.6-20.8-131.2-54.5c-22.7-22.7-39.5-51.3-48-83.3c1.9-2,3.6-4.1,5.3-6.2c0.5,2.3,1.1,4.5,1.7,6.7l17.2-5.2
				c-0.8-2.9-1.6-5.9-2.2-8.9l-13.4,2.7c1.6-2.4,3-5,4.3-7.6l7.8-1.6c-0.5-3-1-6-1.3-9.1l-2.3,0.2c2.4-7.5,3.8-15.5,3.8-23.8
				c0-5.1-0.5-10.1-1.4-14.9c0.4-2.9,0.8-5.8,1.3-8.7l-3.8-0.8c-0.8-2.5-1.8-4.9-2.9-7.3l7.9,1.6c0.7-3,1.4-6,2.2-8.9l-17.2-5.2
				l0,0.1c-1.6-2.2-3.2-4.4-5-6.4c9-29.2,25-55.3,46-76.4C215.8,286.2,262.2,265.4,313.4,265.4L313.4,265.4z M316.7,272.1v18.1
				c3.1,0.1,6.2,0.2,9.2,0.4l1.8-18C324.1,272.3,320.4,272.1,316.7,272.1L316.7,272.1z M334.3,273.2l-1.8,18
				c3.1,0.4,6.1,0.8,9.1,1.3l3.5-17.7C341.6,274.2,337.9,273.7,334.3,273.2L334.3,273.2z M351.6,276.1l-3.5,17.7
				c3,0.7,6,1.4,8.9,2.2l5.2-17.3C358.8,277.8,355.2,276.9,351.6,276.1L351.6,276.1z M368.6,280.7l-5.2,17.3c2.9,1,5.8,2,8.7,3.1
				l6.9-16.7C375.6,283.1,372.1,281.9,368.6,280.7L368.6,280.7z M385.1,287l-6.9,16.7c2.8,1.2,5.6,2.6,8.3,4l8.5-15.9
				C391.7,290.1,388.4,288.5,385.1,287L385.1,287z M400.8,294.9l-8.5,15.9c2.7,1.5,5.3,3.1,7.9,4.8l10-15
				C407.2,298.6,404,296.7,400.8,294.9L400.8,294.9z M415.7,304.2l-10,15c2.5,1.8,5,3.6,7.4,5.5l11.4-14
				C421.6,308.5,418.7,306.3,415.7,304.2L415.7,304.2z M429.6,315l-11.4,14c2.3,2,4.6,4.1,6.8,6.2l12.8-12.8
				C435.1,319.9,432.4,317.4,429.6,315L429.6,315z M442.4,327.1l-12.8,12.8c2.1,2.2,4.2,4.5,6.2,6.8l13.9-11.4
				C447.4,332.5,444.9,329.8,442.4,327.1L442.4,327.1z M453.9,340.4L440,351.8c1.9,2.4,3.7,4.9,5.5,7.4l15-10
				C458.3,346.2,456.2,343.3,453.9,340.4L453.9,340.4z M464.1,354.7l-15,10c1.6,2.6,3.2,5.2,4.7,7.9l15.9-8.5
				C467.9,360.9,466.1,357.8,464.1,354.7L464.1,354.7z M472.8,370l-15.9,8.5c1.4,2.7,2.7,5.5,3.9,8.3l16.6-6.9
				C476,376.5,474.5,373.2,472.8,370L472.8,370z M480,386l-16.6,6.9c1.1,2.8,2.1,5.7,3.1,8.6l17.2-5.2
				C482.6,392.8,481.3,389.4,480,386L480,386z M483.7,506.5l-17.2-5.2c-0.9,2.9-2,5.8-3.1,8.6l16.6,6.9
				C481.3,513.5,482.6,510,483.7,506.5L483.7,506.5z M477.5,523l-16.6-6.9c-1.2,2.8-2.5,5.6-3.9,8.3l15.9,8.5
				C474.5,529.6,476,526.3,477.5,523L477.5,523z M469.7,538.7l-15.9-8.5c-1.5,2.7-3.1,5.3-4.7,7.9l15,10
				C466.1,545.1,467.9,541.9,469.7,538.7L469.7,538.7z M460.4,553.6l-15-10c-1.8,2.5-3.6,5-5.5,7.4l13.9,11.4
				C456.2,559.6,458.3,556.6,460.4,553.6L460.4,553.6z M449.7,567.6l-13.9-11.4c-2,2.3-4,4.6-6.2,6.8l12.8,12.8
				C444.9,573.1,447.4,570.4,449.7,567.6L449.7,567.6z M437.7,580.4L425,567.7c-2.2,2.1-4.5,4.2-6.8,6.2l11.4,14
				C432.4,585.4,435.1,583,437.7,580.4L437.7,580.4z M424.5,592l-11.4-14c-2.4,1.9-4.9,3.7-7.4,5.5l10,15
				C418.7,596.5,421.6,594.3,424.5,592L424.5,592z M410.2,602.3l-10-15c-2.6,1.7-5.2,3.2-7.9,4.8l8.5,15.9
				C404,606.2,407.2,604.3,410.2,602.3L410.2,602.3z M395,611.1l-8.5-15.9c-2.7,1.4-5.5,2.7-8.3,4l6.9,16.7
				C388.4,614.4,391.7,612.8,395,611.1L395,611.1z M379,618.4l-6.9-16.7c-2.9,1.1-5.7,2.2-8.7,3.1l5.2,17.3
				C372.1,621,375.6,619.7,379,618.4L379,618.4z M362.3,624l-5.2-17.3c-2.9,0.8-5.9,1.6-8.9,2.2l3.5,17.7
				C355.2,625.9,358.8,625,362.3,624L362.3,624z M345.1,628l-3.5-17.7c-3,0.5-6.1,1-9.1,1.3l1.8,18
				C337.9,629.2,341.6,628.6,345.1,628L345.1,628z M327.7,630.2l-1.8-18c-3,0.2-6.1,0.4-9.2,0.4v18.1
				C320.4,630.7,324.1,630.5,327.7,630.2L327.7,630.2z M310.1,630.8v-18.1c-3.1-0.1-6.2-0.2-9.2-0.4l-1.8,18
				C302.7,630.5,306.4,630.7,310.1,630.8L310.1,630.8z M292.5,629.6l1.8-18c-3.1-0.4-6.1-0.8-9.1-1.3l-3.5,17.7
				C285.2,628.6,288.9,629.2,292.5,629.6L292.5,629.6z M275.2,626.7l3.5-17.7c-3-0.7-6-1.4-8.9-2.2l-5.2,17.3
				C268,625,271.6,625.9,275.2,626.7L275.2,626.7z M258.2,622.1l5.2-17.3c-2.9-1-5.8-2-8.7-3.1l-6.9,16.7
				C251.2,619.7,254.7,621,258.2,622.1L258.2,622.1z M241.7,615.8l6.9-16.7c-2.8-1.2-5.6-2.6-8.3-4l-8.5,15.9
				C235,612.8,238.3,614.4,241.7,615.8L241.7,615.8z M226,608l8.5-15.9c-2.7-1.5-5.3-3.1-7.9-4.8l-10,15
				C219.6,604.3,222.8,606.2,226,608L226,608z M211.1,598.6l10-15c-2.5-1.8-5-3.6-7.4-5.5l-11.4,14
				C205.1,594.3,208.1,596.5,211.1,598.6L211.1,598.6z M197.2,587.8l11.4-14c-2.3-2-4.6-4.1-6.8-6.2l-12.8,12.8
				C191.7,583,194.4,585.4,197.2,587.8L197.2,587.8z M184.4,575.7l12.8-12.8c-2.1-2.2-4.2-4.5-6.2-6.8l-13.9,11.4
				C179.4,570.4,181.9,573.1,184.4,575.7L184.4,575.7z M172.9,562.5l13.9-11.4c-1.9-2.4-3.7-4.9-5.5-7.4l-15,10
				C168.5,556.6,170.6,559.6,172.9,562.5L172.9,562.5z M162.7,548.1l15-10c-1.6-2.6-3.2-5.2-4.7-7.9l-15.9,8.5
				C158.9,541.9,160.7,545.1,162.7,548.1L162.7,548.1z M154,532.9l15.9-8.5c-1.4-2.7-2.7-5.5-3.9-8.3l-16.6,6.9
				C150.8,526.3,152.3,529.6,154,532.9L154,532.9z M146.8,516.8l16.6-6.9c-1.1-2.8-2.1-5.7-3.1-8.6l-17.2,5.2
				C144.2,510,145.5,513.5,146.8,516.8L146.8,516.8z M143.1,396.3l17.2,5.2c0.9-2.9,2-5.8,3.1-8.6l-16.6-6.9
				C145.5,389.4,144.2,392.8,143.1,396.3L143.1,396.3z M149.3,379.9l16.6,6.9c1.2-2.8,2.5-5.6,3.9-8.3L154,370
				C152.3,373.2,150.8,376.5,149.3,379.9L149.3,379.9z M157.1,364.1l15.9,8.5c1.5-2.7,3.1-5.3,4.7-7.9l-15-10
				C160.7,357.8,158.9,360.9,157.1,364.1L157.1,364.1z M166.4,349.2l15,10c1.8-2.5,3.6-5,5.5-7.4l-13.9-11.4
				C170.6,343.3,168.5,346.2,166.4,349.2L166.4,349.2z M177.1,335.3l13.9,11.4c2-2.3,4-4.6,6.2-6.8l-12.8-12.8
				C181.9,329.8,179.4,332.5,177.1,335.3L177.1,335.3z M189.1,322.4l12.8,12.8c2.2-2.1,4.5-4.2,6.8-6.2l-11.4-14
				C194.4,317.4,191.7,319.9,189.1,322.4L189.1,322.4z M202.3,310.8l11.4,14c2.4-1.9,4.9-3.7,7.4-5.5l-10-15
				C208.1,306.3,205.1,308.5,202.3,310.8L202.3,310.8z M216.6,300.5l10,15c2.6-1.7,5.2-3.2,7.9-4.8l-8.5-15.9
				C222.8,296.7,219.6,298.6,216.6,300.5L216.6,300.5z M231.8,291.7l8.5,15.9c2.7-1.4,5.5-2.7,8.3-4l-6.9-16.7
				C238.3,288.5,235,290.1,231.8,291.7L231.8,291.7z M247.8,284.5l6.9,16.7c2.9-1.1,5.7-2.2,8.7-3.1l-5.2-17.3
				C254.7,281.9,251.2,283.1,247.8,284.5L247.8,284.5z M264.5,278.8l5.2,17.3c2.9-0.8,5.9-1.6,8.9-2.2l-3.5-17.7
				C271.6,276.9,268,277.8,264.5,278.8L264.5,278.8z M281.6,274.8l3.5,17.7c3-0.5,6.1-1,9.1-1.3l-1.8-18
				C288.9,273.7,285.2,274.2,281.6,274.8L281.6,274.8z M299.1,272.6l1.8,18c3-0.2,6.1-0.4,9.2-0.4v-18.1
				C306.4,272.1,302.7,272.3,299.1,272.6L299.1,272.6z M422.5,342c-27.9-28-66.5-45.3-109.1-45.3S232.2,314,204.3,342
				c-27.9,28-45.2,66.7-45.2,109.4s17.3,81.4,45.2,109.4c27.9,28,66.5,45.3,109.1,45.3s81.2-17.3,109.1-45.3
				c27.9-28,45.2-66.7,45.2-109.4S450.4,370,422.5,342z"/>
			<path class="st0" d="M313.4,211.8c66,0,125.7,26.8,169,70.2c24.7,24.8,44,54.9,56,88.5c-2.2,0.3-4.4,0.7-6.6,1.2
				c-11.7-32.3-30.3-61.2-54.1-85c-42-42.2-100.1-68.2-164.3-68.2s-122.3,26.1-164.3,68.2c-23.7,23.8-42.4,52.8-54.1,85
				c-2.2-0.5-4.4-0.9-6.6-1.2c12-33.6,31.3-63.8,56-88.5C187.7,238.6,247.4,211.8,313.4,211.8L313.4,211.8z M541.3,523.7
				c-11.7,37.1-32.1,70.3-58.9,97.2c-43.3,43.4-103,70.2-169,70.2s-125.7-26.8-169-70.2c-26.8-26.9-47.2-60.1-58.9-97.2
				c2.2-0.2,4.5-0.5,6.6-0.9c11.4,35.7,31.2,67.6,57,93.5c42,42.2,100.1,68.2,164.3,68.2s122.3-26.1,164.3-68.2
				c25.8-25.9,45.6-57.8,57-93.5C536.9,523.1,539.1,523.5,541.3,523.7z"/>
			<g>
				<path class="st0" d="M118.7,218.6c-1.8,0-3.3-1.5-3.3-3.3c0-1.8,1.5-3.3,3.3-3.3h104c1.8,0,3.3,1.5,3.3,3.3
					c0,1.8-1.5,3.3-3.3,3.3H118.7z"/>
				<path class="st0" d="M122,290.2c0,1.8-1.5,3.3-3.3,3.3c-1.8,0-3.3-1.5-3.3-3.3v-74.9c0-1.8,1.5-3.3,3.3-3.3
					c1.8,0,3.3,1.5,3.3,3.3V290.2z"/>
			</g>
			<g>
				<path class="st0" d="M508.3,212c1.8,0,3.3,1.5,3.3,3.3c0,1.8-1.5,3.3-3.3,3.3h-104c-1.8,0-3.3-1.5-3.3-3.3
					c0-1.8,1.5-3.3,3.3-3.3H508.3z"/>
				<path class="st0" d="M511.6,290.2c0,1.8-1.5,3.3-3.3,3.3c-1.8,0-3.3-1.5-3.3-3.3v-74.9c0-1.8,1.5-3.3,3.3-3.3
					c1.8,0,3.3,1.5,3.3,3.3V290.2z"/>
			</g>
			<g>
				<path class="st0" d="M118.7,690.9c-1.8,0-3.3-1.5-3.3-3.3c0-1.8,1.5-3.3,3.3-3.3h104c1.8,0,3.3,1.5,3.3,3.3
					c0,1.8-1.5,3.3-3.3,3.3H118.7z"/>
				<path class="st0" d="M115.4,612.6c0-1.8,1.5-3.3,3.3-3.3c1.8,0,3.3,1.5,3.3,3.3v74.9c0,1.8-1.5,3.3-3.3,3.3
					c-1.8,0-3.3-1.5-3.3-3.3V612.6z"/>
			</g>
			<g>
				<path class="st0" d="M508.3,684.2c1.8,0,3.3,1.5,3.3,3.3c0,1.8-1.5,3.3-3.3,3.3h-104c-1.8,0-3.3-1.5-3.3-3.3
					c0-1.8,1.5-3.3,3.3-3.3H508.3z"/>
				<path class="st0" d="M504.9,612.6c0-1.8,1.5-3.3,3.3-3.3c1.8,0,3.3,1.5,3.3,3.3v74.9c0,1.8-1.5,3.3-3.3,3.3
					c-1.8,0-3.3-1.5-3.3-3.3V612.6z"/>
			</g>
			<g>
				<path class="st0" d="M73.6,256.7c0-1.8,1.5-3.3,3.3-3.3c1.8,0,3.3,1.5,3.3,3.3v110.8c0,1.8-1.5,3.3-3.3,3.3
					c-1.8,0-3.3-1.5-3.3-3.3V256.7z"/>
				<path class="st0" d="M151.8,253.4c1.8,0,3.3,1.5,3.3,3.3c0,1.8-1.5,3.3-3.3,3.3H76.9c-1.8,0-3.3-1.5-3.3-3.3
					c0-1.8,1.5-3.3,3.3-3.3H151.8z"/>
			</g>
			<g>
				<path class="st0" d="M546.6,256.7c0-1.8,1.5-3.3,3.3-3.3c1.8,0,3.3,1.5,3.3,3.3v110.8c0,1.8-1.5,3.3-3.3,3.3
					c-1.8,0-3.3-1.5-3.3-3.3V256.7z"/>
				<path class="st0" d="M475,260c-1.8,0-3.3-1.5-3.3-3.3c0-1.8,1.5-3.3,3.3-3.3h74.9c1.8,0,3.3,1.5,3.3,3.3c0,1.8-1.5,3.3-3.3,3.3
					H475z"/>
			</g>
			<g>
				<path class="st0" d="M80.2,645.7c0,2-1.5,3.6-3.3,3.6c-1.8,0-3.3-1.6-3.3-3.6V524.5c0-2,1.5-3.6,3.3-3.6c1.8,0,3.3,1.6,3.3,3.6
					V645.7z"/>
				<path class="st0" d="M151.8,642.7c1.8,0,3.3,1.5,3.3,3.3c0,1.8-1.5,3.3-3.3,3.3H76.9c-1.8,0-3.3-1.5-3.3-3.3
					c0-1.8,1.5-3.3,3.3-3.3H151.8z"/>
			</g>
			<g>
				<path class="st0" d="M553.2,645.7c0,2-1.5,3.6-3.3,3.6c-1.8,0-3.3-1.6-3.3-3.6V524.5c0-2,1.5-3.6,3.3-3.6c1.8,0,3.3,1.6,3.3,3.6
					V645.7z"/>
				<path class="st0" d="M475,649.3c-1.8,0-3.3-1.5-3.3-3.3c0-1.8,1.5-3.3,3.3-3.3h74.9c1.8,0,3.3,1.5,3.3,3.3
					c0,1.8-1.5,3.3-3.3,3.3H475z"/>
			</g>
			<path class="st0" d="M77.2,373.1c-1.8,0-3.3-1.5-3.3-3.3c0-1.8,1.5-3.3,3.3-3.3l0.9,0v0c22.2,0,42.3,9,56.9,23.6
				c14.6,14.6,23.6,34.7,23.6,56.9c0,22.2-9,42.3-23.5,56.8c-14.5,14.6-34.6,23.6-56.8,23.6c-1.8,0-3.3-1.5-3.3-3.3
				c0-1.8,1.5-3.3,3.3-3.3c20.4,0,38.8-8.3,52.1-21.7c13.3-13.4,21.6-31.8,21.6-52.2c0-20.4-8.3-38.8-21.6-52.2
				c-13.4-13.4-31.8-21.6-52.2-21.6v0L77.2,373.1z"/>
			<path class="st0" d="M549.7,366.5c1.8,0,3.3,1.5,3.3,3.3c0,1.8-1.5,3.3-3.3,3.3l-0.8,0v0c-20.4,0-38.8,8.3-52.2,21.6
				c-13.4,13.4-21.6,31.8-21.6,52.2c0,20.4,8.2,38.8,21.6,52.2c13.3,13.4,31.8,21.6,52.1,21.7c1.8,0,3.3,1.5,3.3,3.3
				c0,1.8-1.5,3.3-3.3,3.3c-22.2,0-42.3-9-56.8-23.6c-14.5-14.6-23.5-34.7-23.5-56.8c0-22.2,9-42.3,23.6-56.9
				c14.6-14.6,34.7-23.6,56.9-23.6v0L549.7,366.5z"/>
			<path class="st0" d="M483.6,663.3c1.8,0,3.3,1.5,3.3,3.3c0,1.8-1.5,3.3-3.3,3.3h-24.3c-1.8,0-3.3-1.5-3.3-3.3
				c0-1.8,1.5-3.3,3.3-3.3H483.6z"/>
			<path class="st0" d="M525.5,279.5c0-1.8,1.5-3.3,3.3-3.3c1.8,0,3.3,1.5,3.3,3.3v24.3c0,1.8-1.5,3.3-3.3,3.3
				c-1.8,0-3.3-1.5-3.3-3.3V279.5z"/>
			<path class="st0" d="M165,663.3c1.8,0,3.3,1.5,3.3,3.3c0,1.8-1.5,3.3-3.3,3.3h-24.3c-1.8,0-3.3-1.5-3.3-3.3
				c0-1.8,1.5-3.3,3.3-3.3H165z"/>
			<path class="st0" d="M525.5,598.2c0-1.8,1.5-3.3,3.3-3.3c1.8,0,3.3,1.5,3.3,3.3v24.3c0,1.8-1.5,3.3-3.3,3.3
				c-1.8,0-3.3-1.5-3.3-3.3V598.2z"/>
			<path class="st0" d="M483.6,232.8c1.8,0,3.3,1.5,3.3,3.3c0,1.8-1.5,3.3-3.3,3.3h-24.3c-1.8,0-3.3-1.5-3.3-3.3
				c0-1.8,1.5-3.3,3.3-3.3H483.6z"/>
			<path class="st0" d="M95,279.5c0-1.8,1.5-3.3,3.3-3.3c1.8,0,3.3,1.5,3.3,3.3v24.3c0,1.8-1.5,3.3-3.3,3.3c-1.8,0-3.3-1.5-3.3-3.3
				V279.5z"/>
			<path class="st0" d="M165,232.8c1.8,0,3.3,1.5,3.3,3.3c0,1.8-1.5,3.3-3.3,3.3h-24.3c-1.8,0-3.3-1.5-3.3-3.3
				c0-1.8,1.5-3.3,3.3-3.3H165z"/>
			<path class="st0" d="M95,598.2c0-1.8,1.5-3.3,3.3-3.3c1.8,0,3.3,1.5,3.3,3.3v24.3c0,1.8-1.5,3.3-3.3,3.3c-1.8,0-3.3-1.5-3.3-3.3
				V598.2z"/>
			<path class="st0" d="M98.4,241.7c3.2,0,5.9-2.6,5.9-5.9c0-3.2-2.6-5.9-5.9-5.9c-3.2,0-5.9,2.6-5.9,5.9
				C92.5,239,95.1,241.7,98.4,241.7z"/>
			<path class="st0" d="M530.1,241.7c3.2,0,5.9-2.6,5.9-5.9c0-3.2-2.6-5.9-5.9-5.9c-3.2,0-5.9,2.6-5.9,5.9
				C524.2,239,526.9,241.7,530.1,241.7z"/>
			<path class="st0" d="M98.4,672.9c3.2,0,5.9-2.6,5.9-5.9c0-3.2-2.6-5.9-5.9-5.9c-3.2,0-5.9,2.6-5.9,5.9
				C92.5,670.2,95.1,672.9,98.4,672.9z"/>
			<path class="st0" d="M530.1,672.9c3.2,0,5.9-2.6,5.9-5.9c0-3.2-2.6-5.9-5.9-5.9c-3.2,0-5.9,2.6-5.9,5.9
				C524.2,670.2,526.9,672.9,530.1,672.9z"/>
			<path class="st0" d="M193.1,618.9c1.5,1.1,1.8,3.1,0.7,4.6c-1.1,1.5-3.1,1.8-4.6,0.8c-2.5-1.8-4.8-3.5-7-5.3
				c-2.2-1.8-4.5-3.6-6.8-5.6c-1.4-1.2-1.5-3.3-0.4-4.7c1.2-1.4,3.3-1.5,4.7-0.4c2.1,1.8,4.3,3.6,6.6,5.4
				C188.7,615.6,190.9,617.4,193.1,618.9z"/>
			<path class="st0" d="M167.1,596.6c1.3,1.3,1.3,3.4,0,4.7c-1.3,1.3-3.4,1.3-4.7,0c-8.6-8.7-16.4-18.2-23.4-28.2
				c-7-10.1-13.1-20.7-18.2-31.8c-0.8-1.7,0-3.6,1.6-4.4c1.7-0.8,3.6,0,4.4,1.6c5,10.8,10.9,21.1,17.7,30.9
				C151.1,579,158.7,588.2,167.1,596.6z"/>
			<path class="st0" d="M438.7,624.3c-1.5,1.1-3.5,0.7-4.6-0.8c-1.1-1.5-0.7-3.5,0.7-4.6c2.2-1.6,4.4-3.3,6.8-5.1
				c2.3-1.8,4.5-3.6,6.6-5.4c1.4-1.2,3.5-1,4.7,0.4c1.2,1.4,1,3.5-0.4,4.7c-2.3,1.9-4.5,3.8-6.8,5.6
				C443.5,620.7,441.2,622.5,438.7,624.3z"/>
			<path class="st0" d="M465.6,601.2c-1.3,1.3-3.4,1.3-4.7,0c-1.3-1.3-1.3-3.4,0-4.7c8.4-8.5,15.9-17.6,22.7-27.3
				c6.7-9.7,12.7-20,17.7-30.9c0.8-1.7,2.7-2.4,4.4-1.6c1.7,0.8,2.4,2.7,1.6,4.4C502.1,552.3,496,563,489,573
				C482,583.1,474.2,592.5,465.6,601.2z"/>
			<path class="st0" d="M189.2,279c1.5-1.1,3.5-0.7,4.6,0.8c1.1,1.5,0.7,3.5-0.7,4.6c-2.2,1.6-4.4,3.3-6.8,5.1
				c-2.3,1.8-4.5,3.6-6.6,5.4c-1.4,1.2-3.5,1-4.7-0.4c-1.2-1.4-1-3.5,0.4-4.7c2.3-1.9,4.5-3.8,6.8-5.6
				C184.4,282.5,186.8,280.7,189.2,279z"/>
			<path class="st0" d="M162.4,302c1.3-1.3,3.4-1.3,4.7,0c1.3,1.3,1.3,3.4,0,4.7c-8.4,8.5-15.9,17.6-22.7,27.3
				c-6.7,9.7-12.7,20-17.7,30.9c-0.8,1.7-2.7,2.4-4.4,1.6c-1.7-0.8-2.4-2.7-1.6-4.4c5.2-11.1,11.3-21.8,18.2-31.8
				C145.9,320.2,153.8,310.7,162.4,302z"/>
			<path class="st0" d="M434.9,284.3c-1.5-1.1-1.8-3.1-0.7-4.6c1.1-1.5,3.1-1.8,4.6-0.8c2.5,1.8,4.8,3.5,7,5.3
				c2.2,1.8,4.5,3.6,6.8,5.6c1.4,1.2,1.5,3.3,0.4,4.7c-1.2,1.4-3.3,1.5-4.7,0.4c-2.1-1.8-4.3-3.6-6.6-5.4
				C439.3,287.6,437.1,285.9,434.9,284.3z"/>
			<path class="st0" d="M460.9,306.6c-1.3-1.3-1.3-3.4,0-4.7c1.3-1.3,3.4-1.3,4.7,0c8.6,8.7,16.4,18.2,23.4,28.2
				c7,10.1,13.1,20.7,18.2,31.8c0.8,1.7,0,3.6-1.6,4.4c-1.7,0.8-3.6,0-4.4-1.6c-5-10.8-10.9-21.1-17.7-30.9
				C476.8,324.2,469.2,315.1,460.9,306.6z"/>
			<path class="st0" d="M331.5,474.7c0-4.4,13.4-18.9,15.5-18.1c11.6,4.2,37.4,16.3,45.4,22.9c5.8,4.7,11.1,15.5,11.1,22.6
				c0,15.2-10.6,30.5-26.2,33.4c-4.3,0.8-45.5,3.6-45.6-8.2L331.5,474.7L331.5,474.7z M306.4,386.5c7,0,6.7-0.1,6.7,6.8l0,54.3
				c0,4.9,0.6,6-1.5,9.1c-3.5,5.3-7.7,9.6-12.3,13.9c-5.4,4.9-15.7,9.7-25.7,9.7h-1.8c-22.2,0-21.9-26.9-21.9-45.6
				c0-6.9-0.1-15.3,0-22.1l0.2-14.4c0-12.6-0.9-11.6,6.6-11.6H306.4L306.4,386.5z M425,367.6c-1.6-0.6-112.9,0.1-125.2,0.1
				c-31.4,0-62.8,0.1-94.2,0c-3.3,0-5.5-1-6,1.8c-0.4,2.6,0.4,4.2,1.6,5.9c1.4,2.1,4,9.1,5.6,10.1c2,1.3,11.3,0.6,14.9,0.6
				c8.4,0,8.2-0.6,8.1,7.3c0,10-0.2,20.8-0.4,30.9c-0.3,18,0.5,25.7,5.6,41.4c3.2,9.8,14.6,18.8,22.8,24.2c1.4,0.9,3.4,1.7,5.1,2.8
				c0.9,0.5,4.4,1.8,5.5,2.3c2,0.9,10.4,2.4,13.3,2.4c17.3,0,24.8-9.2,29.5-9.6c2.7-0.2,2.2,3.1,2.1,5.5c-0.1,3.9-0.1,11-0.3,15.4
				c-0.4,10.1-0.3,20.7-0.5,30.9c-0.1,2.6-0.5,5,1,5.9c4.6,2.8,41.1,9.9,44.6,9.9c30,0.3,66.4-14.7,67.8-49.6
				c0.7-17.5-3-27.3-14.8-40c-6.2-6.6-44.1-25.4-51.2-27.2c-1.2-0.3-8.4-5.5-9.3-6.4c-1.3-1.3-2.6-2.6-3.8-4
				c-1.9-2.3-1.6-2.2-3.1-4.8c-1.4-2.4-1.5-2.2-2.3-5.5c-0.5-1.9-0.8-4.7-0.8-7c0-2.7,0.1-5,0.7-7.1c2.3-7.1,3.8-9.2,9.1-14.4
				c3-3,7.1-2.9,12.3-3.3c9.2-0.7,21.8,0,31.3,0c8.8,0,18.7-0.1,27.4,0c1.7,0,1.2,0,3.6,0.1L425,367.6z"/>
		</g>
		<g>
			<path class="st1" d="M87.9,454.8c2.3,2.1,3.4,4.9,3.4,8.4c0,2.4-0.6,4.5-1.7,6.4c-1.2,1.9-2.9,3.3-5.1,4.4
				c-2.3,1.1-5.1,1.6-8.3,1.6c-3,0-5.9-0.5-8.6-1.5c-2.7-1-4.9-2.3-6.5-3.9l2.1-3.4c1.4,1.4,3.3,2.6,5.6,3.5
				c2.3,0.9,4.8,1.3,7.4,1.3c3.4,0,6.1-0.7,8-2.2c1.9-1.5,2.8-3.6,2.8-6.2c0-2.6-0.9-4.6-2.8-6.1c-1.9-1.5-4.7-2.2-8.5-2.2h-3v-3.2
				l11.6-14.6H62.8v-3.8h26.9v3.1l-11.9,14.9C82.3,451.5,85.6,452.7,87.9,454.8z"/>
			<path class="st1" d="M123.2,438.4c3,3.7,4.4,8.8,4.4,15.5c0,4.7-0.8,8.6-2.4,11.9c-1.6,3.2-3.8,5.7-6.7,7.3
				c-2.9,1.7-6.2,2.5-10.1,2.5c-4.2,0-7.5-0.8-9.9-2.3l1.7-3.5c2,1.3,4.7,2,8.1,2c4.6,0,8.3-1.5,10.9-4.4c2.6-2.9,4-7.2,4-12.8
				c0-1-0.1-2.2-0.2-3.4c-1,2.3-2.7,4-5,5.3c-2.3,1.3-4.9,1.9-7.8,1.9c-2.8,0-5.2-0.5-7.3-1.6c-2.1-1-3.8-2.5-5-4.4
				c-1.2-1.9-1.8-4.1-1.8-6.6c0-2.6,0.6-4.8,1.9-6.8c1.2-2,2.9-3.5,5.1-4.5c2.2-1.1,4.6-1.6,7.3-1.6
				C116,432.9,120.3,434.7,123.2,438.4z M116.6,453.5c1.6-0.8,2.9-1.9,3.8-3.3c0.9-1.4,1.4-3,1.4-4.7c0-1.6-0.4-3.1-1.3-4.4
				c-0.9-1.4-2.1-2.5-3.8-3.3c-1.7-0.8-3.7-1.3-6-1.3c-3,0-5.5,0.8-7.4,2.5c-1.9,1.7-2.8,3.9-2.8,6.6c0,2.8,0.9,5,2.8,6.6
				c1.9,1.6,4.5,2.5,7.7,2.5C113.1,454.7,115,454.3,116.6,453.5z"/>
		</g>
		<path class="st0" d="M518.9,477.8l-10.6-18.1c-1.1,0-2-0.1-2.7-0.3c-0.8-0.2-1.5-0.5-2.1-0.8c-0.7-0.4-1.2-1.1-1.5-1.9
			c-0.3-0.8-0.5-1.7-0.5-2.8c0-3.3,1.2-4.9,3.5-4.9c0.3,0,0.8,0.4,1.6,1.3c0.7,0.7,1.6,1.8,2.8,3.2c0.6-0.1,1.1-0.3,1.6-0.5
			c0.6-0.2,1.1-0.5,1.7-0.8c0.5-0.3,1-0.7,1.5-1.1c0.5-0.4,0.9-0.8,1.2-1.3c0.4-0.5,0.7-1,1-1.5c0.3-0.5,0.5-1.1,0.7-1.6
			c0.2-0.6,0.4-1.2,0.5-1.8c0.1-0.6,0.2-1.3,0.2-2c0-0.9-0.1-1.8-0.4-2.5c-0.2-0.7-0.6-1.4-1-1.9c-1-1.2-2.4-1.7-4.2-1.7
			c-1.7,0-3.4,0.2-5.2,0.6c-1.8,0.4-3.7,1.1-5.7,1.9l-0.3,0.1l-4.1-4.7l0.5-0.2c2.1-0.9,4.2-1.6,6.4-2c2.1-0.5,4.3-0.7,6.4-0.7
			c1.5,0,3,0.4,4.4,1.1c1.4,0.7,2.6,1.8,3.8,3.2c1.1,1.3,2,2.7,2.5,4.2c0.6,1.5,0.9,3,0.9,4.5c0,1.6-0.2,3.2-0.6,4.6
			c-0.4,1.4-1.1,2.8-1.9,4c-0.9,1.2-1.9,2.3-3.1,3.2c-1.1,0.8-2.3,1.5-3.6,2l10.1,17.3l-3.4,2.1L518.9,477.8L518.9,477.8z
			 M552.3,477.8l-10.6-18.1c-1.1,0-2-0.1-2.7-0.3c-0.8-0.2-1.5-0.5-2.1-0.8c-0.7-0.4-1.2-1.1-1.5-1.9c-0.3-0.8-0.5-1.7-0.5-2.8
			c0-3.3,1.2-4.9,3.5-4.9c0.3,0,0.8,0.4,1.6,1.3c0.7,0.7,1.6,1.8,2.8,3.2c0.6-0.1,1.1-0.3,1.6-0.5c0.6-0.2,1.1-0.5,1.7-0.8
			c0.5-0.3,1-0.7,1.5-1.1c0.5-0.4,0.9-0.8,1.2-1.3c0.4-0.5,0.7-1,1-1.5c0.3-0.5,0.5-1.1,0.7-1.6c0.2-0.6,0.4-1.2,0.5-1.8
			c0.1-0.6,0.2-1.3,0.2-2c0-0.9-0.1-1.8-0.4-2.5c-0.2-0.7-0.6-1.4-1-1.9c-1-1.2-2.4-1.7-4.2-1.7c-1.7,0-3.4,0.2-5.2,0.6
			c-1.8,0.4-3.7,1.1-5.7,1.9l-0.3,0.1l-4.1-4.7l0.5-0.2c2.1-0.9,4.2-1.6,6.4-2c2.1-0.5,4.3-0.7,6.4-0.7c1.5,0,3,0.4,4.4,1.1
			c1.4,0.7,2.6,1.8,3.8,3.2c1.1,1.3,2,2.7,2.5,4.2c0.6,1.5,0.9,3,0.9,4.5c0,1.6-0.2,3.2-0.6,4.6c-0.4,1.4-1.1,2.8-1.9,4
			c-0.9,1.2-1.9,2.3-3.1,3.2c-1.1,0.8-2.3,1.5-3.6,2l10.1,17.3l-3.4,2.1L552.3,477.8z"/>
	</g>
	<path class="st0" d="M529.2,94.9h1c0,0.9,0.2,2.1,0.4,3.1l7.9,24.8c0.6,1.9,1.1,3.4,1.8,5.4c0.6,1.9,3.6,10,3.7,11.2
		c-1.4,0.3-17,0-21,0c-4,0-5.9,0.7-7.9-0.3c0.3-1.1,0.5-1.5,0.9-2.6c0.4-1.1,0.6-1.7,1-2.8c0.4-1.1,0.6-1.5,0.9-2.5l4.5-13.7
		c2.7-7.6,4-11.5,5.9-19.6C528.5,96.7,528.9,96,529.2,94.9L529.2,94.9z M448.9,140.6L448.9,140.6l0-3.8c0.2-0.2,0.4-0.4,0.7-0.6
		c1.8-1.1,31.7,0.5,36.5-0.5l-0.1-9.8l-36.9-0.2l-0.2-1.3c0.6-8.1,0.1-16.9,0.1-25.2c0-3.8-0.4-5,1-7.6h68.6
		c-0.2,2.5-5.4,17.1-6.7,20.2c-2,5.1-4.7,14.5-6.9,20.3c-0.6,1.5-0.9,2.6-1.4,4.1c-0.5,1.4-0.8,2.9-1.4,4.2
		c-2.5,5.6-5.7,19.6-8.3,26.1c-1.6,3.9-2.4,8.3-4,12.2c-0.2,0.4-0.9,1.5-1.1,2.5h13.7c0.1-0.3,0.2-0.6,0.3-0.9l8-26.7
		c0.5-1.7,0.7-2.7,1.5-4.1h34.5c1.1,2.1,1.9,7.1,2.8,9.5l5.4,16c0.2,0.7,0.3,1.2,0.5,1.9l2.2,4.3H571c-0.3-1.1-1-2.2-1.4-3.3
		c-1.7-5.2-4.8-13.1-6-17.8c-0.5-1.7-0.9-2.6-1.4-4.4l-6.8-21.7c-0.3-0.9-0.3-1.5-0.7-2.4c-1.9-4.5-3.1-8.9-4.7-13.6l-7.5-22.1
		c-0.5-1.6-4-12.5-4.8-13.4c-1.3-1.5-2.6-0.6-4.9-1c-1.8-0.2-3.7-0.3-6-0.3c-316.8,1.4-414.6,1-428.3,0c-15.8-1.1-31.7,0.2-47.6,0
		c-2.6,0-3.8-0.6-3.5,2.4c0.1,0.8,3.6,6.3,4.3,7.5c1.3,2.1,8.3,1,10.9,1.1c2.4,0.2,2.4,1.4,2,4.1c-0.5,3.3-0.3,8-0.3,11.8
		c0,14.2-0.8,28,10.8,37.1c9.8,7.7,18.6,10.7,30.4,4.9c1.1-0.5,1-0.5,1.9-1.2c1.2-0.9,0.3-0.8,2.3-0.8c0,10.3-0.3,19.8-0.3,30.3
		c2.1,1.4,2.6,1,5.1,1.8l4.1,1.2c0.3,0.1-0.2,0.2,0.8,0.1c3.3-0.3,1.9-5.2,1.7-7.5c-0.4-7.1,0-20,0-27.6c0-10.1,0-7.3,4.9-13.3
		c2.5-3.1,6.9-6,10.3-8c3.7-2.2,10.5-4.1,14.2-1.6c1,0.7,1.6,1.1,2.2,2.3c2.1,4.7,0.2,10.9-1.6,15c-5.9,14.1-9.4,15-12.1,20
		c2.1,2.5,5.2,4,7.8,6c1.8,1.4,0.6,1.2,3.6,1.2c0.3-1.3,1-1.8,1.8-2.7c2-2.6,3.7-5.5,5.3-8.5c3.7-6.9,5.7-13.6,5.7-21.5
		c0-6.6-2.6-11.5-6.4-16.3c-1.4-1.7-3.1-3.1-5.1-4.2c-3.7-2-6.1-2.9-10.9-2.9c-3.4,0-5,0.6-7.6,1.4c-1.1,0.3-2.1,0.8-3.2,1.3
		c-2.1,0.9-3.9,2.3-5.7,3.6c-4.4,3.3-3.5,2.9-3.5-6.2c0-6.2,0-12.4,0-18.6l1.1-1c0.1,0,124.2-0.5,125,0.3c0.9,1.8,0.5,14,0,16.2
		l-10.1,2c-4.8,1.2-9.5,2.9-13.7,5.6c-3.8,2.6-3.5-0.8-10.7-4.5c-5.6-2.9-14.6-5.3-22.3-2l-7.7,4.7c-1.6,1.4-2.9,3.4-4,5.3
		c-1.2,2.2-2.8,6.1-2.9,9.2c-0.1,3.9-0.3,7.5,0.4,11.3c1.2,6.3,3.9,11.9,7.4,17.1l4.1,5.5c0,0,0.3,0.4,0.3,0.4
		c0.4,0.4,0.5,0.5,0.8,0.9c3.7,4.4,7.9,8.5,12.6,11.9c1.4,1,2.1,1.8,3.4,2.8c3.2,2.3,3.6,4,6.2,0.2c0.7-1.1,1.3-1.8,2-2.8
		c1.1-1.8,3.2-3.7,3.8-5.8c-1.3-1.7-5.7-3.1-7.9-4.2c-0.4-0.2-0.7-0.3-1.2-0.6c-1.5-0.8-3-1.7-4.4-2.5c-0.7-0.4-1.4-0.9-2.1-1.3
		c-5-3-9.3-7.2-12-12.4c-3.4-6.5-3.7-16.2,1.1-22c0.6-0.8,1-1.1,1.6-1.9l2.5-2c0.3-0.2,0.1-0.1,0.6-0.4c0.4-0.2,0.8-0.4,1.1-0.6
		c0.8-0.4,1.4-0.7,2.4-1.1c5.5-1.8,16.9-0.8,16.9,2.1c0,0.9-1.7,2.5-2.3,3.6l-3.7,8.1c-1.4,3.7-1.6,4.9,1.5,6.6
		c0.9,0.5,1.5,0.9,2.3,1.5c3.2,2.2,5.2,4.4,6.4,1.4l1.7-5.1c0.4-1,0.7-1.4,1.1-2.3l2.5-4.4c2.2-3.3,5.4-6.5,9.1-8.1
		c1-0.4,1.5-0.5,2.5-1c1.3-0.6,9.6-3.5,10.6-2.5c0.9,1.9,0,30.9,0,35.8c0,5.8,0.3,12.7,0,18.3c-0.2,3.9,0.1,3.8,4,4.6
		c1.3,0.3,6.4,2.2,7.4,1.2c1-1,0.3-57.7,0.3-66.9c0-3.3,0.3-7.7-0.1-10.9c-0.5-3.2-0.5-8,0.1-10.8c3.2-0.7,7.9-0.3,11.7-0.3
		c6,0,5.4,0,3.7,3c-3.6,6.2-3.8,15.7-0.6,22.2c3,6.2,10.9,12.9,17.7,15.4c1.1,0.4,1.2,0.5,2.2,0.9c2.8,1.4,6,2.2,8.8,3.6
		c1.4,0.7,2.4,1.2,3.9,2c3.8,2.2,7.3,5.1,8.7,9.5c1.1,3.5,1.2,6.5,0.4,10.2c-0.5,2.3-1.6,4.5-3,6.3c-2.3,2.7-6.3,4.5-9.6,5.5
		c-2.2,0.6-8.2,0.9-11.4,0.6c-3.3-0.4-6.8-1.1-9.8-2.2c-2.3-0.9-4.5-1.6-6.5-2.9c-0.6-0.4-0.1-0.4-1.1-0.6c-0.9-0.1-1.2,0.2-1.6,0.8
		c-0.7,1.2-0.9,2.5-1.2,4c-0.4,2.3-1.5,3-1.5,5.4c5.2,3.5,7.5,3.5,13.4,5.2c3.1,0.9,6.7,0.9,10.1,1.3c3.7,0.4,10.2-0.5,13.7-1.4
		c7.1-1.8,14.3-5.8,18.2-12.2l2.5-5c3.3-8.9,2.3-19.8-3.8-26.8c-0.7-0.8-0.9-1.2-1.7-2.1c-5.4-5.4-12.5-8.1-19.3-11
		c-1.8-0.8-3.3-1.6-5.2-2.4c-4-1.7-8.5-4.4-10.7-8.3c-1.8-3.1-2.2-5.5-1.9-9.5c0.2-2.3,0.9-4,1.9-5.6c0.4-0.6,1.1-1.7,1.6-2.2
		c0.5-0.5,0.5-0.4,0.9-0.8l0.7-0.6c2.8-1.8,5.3-2.6,7-3.1c0.5-0.1,2.8-0.7,5.8-0.8c1.8,0,3.1,0.1,3.5,0.1c2.4,0.2,7.1,0.5,16.7,0.6
		c4.6,0,40.9-0.4,44.5,0c2.3,0.2,0.5,1.1-1.2,7.2c-0.4,1.6-0.9,2.2-1.5,4.1c-1.6,5.3-4.2,11.1-5.6,16.5c-0.3,1.3-0.2,1-0.7,2
		L345,163.3c-1.1,2.8-2.9,7.3-3.6,10.2l-1.4,4.1c-0.5,1.8-1,3-1.2,3.8h13.5c0.6-1.2,0.9-3.1,1.8-6l7.1-23.9c0.5-1.2,0.6-0.7,0.9-1.9
		h34.5c1.6,3.1,2.4,8.8,3.6,12.1l5.3,15.7c0.7,1.8,1,3,1.3,3.8h13.7c-0.4-2.2-1.7-5.5-2.3-7.2l-9.4-29.5c-0.1-0.3-0.5-1.1-0.5-1.2
		l-11.8-34.7c-0.5-1.7-1.3-3.8-2-5.6c-0.9-2.3-3.5-9.2-3.5-11.3h45.1v78.5c0,6.3-0.5,9.5-0.1,11.1h13
		C449.2,174.5,448.9,148,448.9,140.6z M379.3,94.9c0.9,0.7,0.7,1.1,1,2.4c1.4,7.1,5.7,18.4,8,25.4l4.8,13.8c1.8,4.3-0.9,2.8-3.5,2.8
		c-0.8,0-1.3,0.2-1.8,0.2c-0.9,0-0.7-0.2-2-0.2l-15.9,0.1c-2.1,0-3.2,0.5-5.1-0.5c0.1-1.4,0.4-1.4,0.9-2.6l3.6-10.9
		c0.4-1.1,0.7-1.5,1.1-2.7l5.4-16.7C376.1,104.9,378.1,95.8,379.3,94.9L379.3,94.9z M76.4,124.2c0-5.4-0.5-27.8,0.3-31.4
		c3.5-0.8,25.6-0.3,31-0.3c1.1,0,2.1,0.3,2.1,1.4v34.5c0,2.4-5.9,8.5-7.6,9.7c-5.6,4-8.2,4.8-15.5,4.8
		C78.6,142.8,76.4,130.7,76.4,124.2z"/>
</g>
</svg>
