<svg xmlns="http://www.w3.org/2000/svg" xmlns:xlink="http://www.w3.org/1999/xlink" viewBox="0 0 226.9 37.95"><defs><style>.cls-1{fill:#1d1d1b;}.cls-2{fill:url(#linear-gradient);}.cls-3{fill:#ededed;}</style><linearGradient id="linear-gradient" x1="24.95" y1="18.95" x2="46.49" y2="18.95" gradientUnits="userSpaceOnUse"><stop offset="0" stop-color="#7784ff"/><stop offset="1" stop-color="#27348b"/></linearGradient></defs><title>Asset 3</title><g id="Layer_2" data-name="Layer 2"><g id="Layer_1-2" data-name="Layer 1"><path class="cls-1" d="M9.4,18.68,5.07,23.13v7H0V2.81H5.07v14l13.49-14h5.7L12.79,15,25,30.11H19Z"/><path class="cls-1" d="M70.36,11.35c1.58,1.53,2.37,3.81,2.37,6.82V30.11H67.86V18.8a5.86,5.86,0,0,0-1.29-4.12,4.76,4.76,0,0,0-3.66-1.38,5.61,5.61,0,0,0-4.25,1.62,6.45,6.45,0,0,0-1.56,4.66V30.11H52.22V9.28h4.64V12a7.63,7.63,0,0,1,3-2.18A11,11,0,0,1,64,9.05,8.7,8.7,0,0,1,70.36,11.35Z"/><path class="cls-1" d="M91.45,29A5.74,5.74,0,0,1,89.37,30a9.6,9.6,0,0,1-2.6.35,7.39,7.39,0,0,1-5.3-1.79,6.91,6.91,0,0,1-1.87-5.23v-10H76.17V9.44H79.6V4.68h4.87V9.44h5.58v3.9H84.47v9.9a3.3,3.3,0,0,0,.74,2.32,2.77,2.77,0,0,0,2.15.8,4.3,4.3,0,0,0,2.73-.85Z"/><path class="cls-1" d="M95.71,5a2.73,2.73,0,0,1-.9-2.09,2.73,2.73,0,0,1,.9-2.08A3.1,3.1,0,0,1,97.93,0a3.24,3.24,0,0,1,2.22.8,2.57,2.57,0,0,1,.9,2A2.9,2.9,0,0,1,100.17,5a3,3,0,0,1-2.24.88A3.1,3.1,0,0,1,95.71,5Zm-.24,4.27h4.88V30.11H95.47Z"/><path class="cls-1" d="M127.41,9.28V27q0,11-11.23,11a21.08,21.08,0,0,1-5.69-.76A12.14,12.14,0,0,1,106,35l2.18-3.66a10.37,10.37,0,0,0,3.46,1.81,13.66,13.66,0,0,0,4.23.68q3.42,0,5-1.56a6.38,6.38,0,0,0,1.6-4.75V26.4a8.15,8.15,0,0,1-3,2.07,10.7,10.7,0,0,1-3.94.7,11.26,11.26,0,0,1-5.37-1.27,9.46,9.46,0,0,1-3.78-3.56A10.06,10.06,0,0,1,105,19.07a9.93,9.93,0,0,1,1.38-5.24,9.32,9.32,0,0,1,3.78-3.53,11.37,11.37,0,0,1,5.37-1.25,11.05,11.05,0,0,1,4.11.74,7.54,7.54,0,0,1,3.1,2.26V9.28Zm-6.57,14.1a5.63,5.63,0,0,0,1.78-4.31,5.53,5.53,0,0,0-1.78-4.25,6.44,6.44,0,0,0-4.54-1.64,6.52,6.52,0,0,0-4.59,1.64,5.52,5.52,0,0,0-1.77,4.25,5.62,5.62,0,0,0,1.77,4.31A6.44,6.44,0,0,0,116.3,25,6.37,6.37,0,0,0,120.84,23.38Z"/><path class="cls-1" d="M153.31,21.25H137a5.63,5.63,0,0,0,2.24,3.65,7.33,7.33,0,0,0,4.5,1.35A7.59,7.59,0,0,0,149.37,24L152,27a8.79,8.79,0,0,1-3.55,2.53,14.07,14.07,0,0,1-10.88-.5,9.84,9.84,0,0,1-4-3.81,10.8,10.8,0,0,1-1.42-5.52,10.8,10.8,0,0,1,1.39-5.47,9.77,9.77,0,0,1,3.84-3.81,11.2,11.2,0,0,1,5.54-1.36,11,11,0,0,1,5.44,1.34A9.6,9.6,0,0,1,152,14.18a11.41,11.41,0,0,1,1.35,5.63C153.39,20.15,153.36,20.63,153.31,21.25ZM138.9,14.33a5.81,5.81,0,0,0-2,3.69h11.81a5.71,5.71,0,0,0-1.91-3.67,5.82,5.82,0,0,0-4-1.4A5.88,5.88,0,0,0,138.9,14.33Z"/><path class="cls-1" d="M176.2,11.35c1.59,1.53,2.38,3.81,2.38,6.82V30.11H173.7V18.8a5.86,5.86,0,0,0-1.28-4.12,4.77,4.77,0,0,0-3.67-1.38,5.63,5.63,0,0,0-4.25,1.62,6.45,6.45,0,0,0-1.56,4.66V30.11h-4.87V9.28h4.64V12a7.56,7.56,0,0,1,3-2.18,11,11,0,0,1,4.13-.74A8.68,8.68,0,0,1,176.2,11.35Z"/><path class="cls-1" d="M188.72,29a10,10,0,0,1-4-3.81,10.62,10.62,0,0,1-1.44-5.52,10.51,10.51,0,0,1,1.44-5.49,10.07,10.07,0,0,1,4-3.79,12.18,12.18,0,0,1,5.83-1.36,11.16,11.16,0,0,1,5.4,1.25,8.05,8.05,0,0,1,3.49,3.58l-3.74,2.19a6,6,0,0,0-2.25-2.17A6.53,6.53,0,0,0,190,15a6.34,6.34,0,0,0-1.8,4.73A6.37,6.37,0,0,0,190,24.43a6.56,6.56,0,0,0,7.48,1.06,6,6,0,0,0,2.25-2.17l3.74,2.19a8.35,8.35,0,0,1-3.53,3.6,11,11,0,0,1-5.36,1.27A12.18,12.18,0,0,1,188.72,29Z"/><path class="cls-1" d="M226.82,21.25H210.48a5.67,5.67,0,0,0,2.24,3.65,7.34,7.34,0,0,0,4.51,1.35A7.57,7.57,0,0,0,222.88,24l2.62,3A8.79,8.79,0,0,1,222,29.52a14.07,14.07,0,0,1-10.88-.5,9.78,9.78,0,0,1-4-3.81,10.7,10.7,0,0,1-1.42-5.52A10.9,10.9,0,0,1,207,14.22a9.77,9.77,0,0,1,3.84-3.81,11.23,11.23,0,0,1,5.54-1.36,11,11,0,0,1,5.44,1.34,9.47,9.47,0,0,1,3.74,3.79,11.41,11.41,0,0,1,1.35,5.63C226.9,20.15,226.87,20.63,226.82,21.25Zm-14.41-6.92a5.86,5.86,0,0,0-2,3.69h11.82A5.68,5.68,0,0,0,216.37,13,5.9,5.9,0,0,0,212.41,14.33Z"/><path class="cls-2" d="M46.49,19A10.77,10.77,0,0,1,35.72,29.72a4.22,4.22,0,0,1-4-2.89,4.26,4.26,0,0,1-.2-1.3,4.13,4.13,0,0,1,1.7-3.36,3.52,3.52,0,0,1,.3.45,4.16,4.16,0,0,1,.55,2.08,4.08,4.08,0,0,1-.34,1.64.37.37,0,0,1,0,.11l.11-.05a4.16,4.16,0,0,0,2.32-3.74,3.77,3.77,0,0,0-.08-.83,6,6,0,0,0,.6-.37,6.6,6.6,0,0,0,2.81-5.41,5.16,5.16,0,0,0-.05-.79,6,6,0,0,0-.85-.06A6.62,6.62,0,0,0,33.19,18c-.14.2-.27.4-.39.61a4.71,4.71,0,0,0-.85-.09,4.18,4.18,0,0,0-3.73,2.29l-.07.14.15-.06a4.21,4.21,0,0,1,3.69.23,3.54,3.54,0,0,1,.51.35A3.53,3.53,0,0,1,32,22a4.44,4.44,0,0,1-.59.46,4.24,4.24,0,0,1-2.23.64,4,4,0,0,1-1.35-.23,3.75,3.75,0,0,1-1.24-.68A4.14,4.14,0,0,1,25,19a10.77,10.77,0,0,1,21.54,0ZM35.64,17.81a1.13,1.13,0,1,0,1.12,1.12A1.12,1.12,0,0,0,35.64,17.81Z"/><polygon class="cls-3" points="40.86 23.52 41.49 23.13 42.12 23.52 41.95 22.8 42.51 22.32 41.78 22.26 41.49 21.58 41.21 22.26 40.47 22.32 41.03 22.8 40.86 23.52"/><polygon class="cls-3" points="31.49 14.6 31.73 14.45 31.98 14.6 31.91 14.32 32.13 14.14 31.84 14.12 31.73 13.85 31.62 14.12 31.34 14.14 31.55 14.32 31.49 14.6"/><polygon class="cls-3" points="44.32 19.7 44.57 19.55 44.81 19.7 44.74 19.42 44.96 19.24 44.68 19.21 44.57 18.95 44.46 19.21 44.17 19.24 44.39 19.42 44.32 19.7"/><polygon class="cls-3" points="27.1 15.75 27.39 15.57 27.67 15.75 27.59 15.42 27.85 15.2 27.52 15.17 27.39 14.86 27.25 15.17 26.92 15.2 27.17 15.42 27.1 15.75"/><polygon class="cls-3" points="36.47 14.29 36.76 14.12 37.05 14.29 36.97 13.96 37.23 13.74 36.89 13.72 36.76 13.4 36.63 13.72 36.29 13.74 36.55 13.96 36.47 14.29"/><polygon class="cls-3" points="38.08 26.32 38.37 26.14 38.66 26.32 38.58 25.99 38.84 25.77 38.5 25.74 38.37 25.43 38.24 25.74 37.9 25.77 38.16 25.99 38.08 26.32"/><polygon class="cls-3" points="35.05 9.46 35.33 9.28 35.62 9.46 35.55 9.13 35.8 8.91 35.46 8.88 35.33 8.57 35.2 8.88 34.87 8.91 35.12 9.13 35.05 9.46"/><polygon class="cls-3" points="42.6 17.31 42.74 17.23 42.88 17.31 42.84 17.15 42.97 17.04 42.8 17.03 42.74 16.87 42.67 17.03 42.51 17.04 42.63 17.15 42.6 17.31"/><polygon class="cls-3" points="40.97 12.96 41.17 12.84 41.37 12.96 41.31 12.73 41.49 12.58 41.26 12.56 41.17 12.34 41.08 12.56 40.84 12.58 41.02 12.73 40.97 12.96"/></g></g></svg>