<?xml version="1.0" encoding="utf-8"?>
<!-- Generator: Adobe Illustrator 24.0.0, SVG Export Plug-In . SVG Version: 6.00 Build 0)  -->
<svg version="1.1" id="Layer_1" xmlns="http://www.w3.org/2000/svg" xmlns:xlink="http://www.w3.org/1999/xlink" x="0px" y="0px"
	 viewBox="0 0 252.3 153.1" style="enable-background:new 0 0 252.3 153.1;" xml:space="preserve">
<style type="text/css">
	.st0{fill-rule:evenodd;clip-rule:evenodd;fill:#1E1E1E;}
	.st1{fill-rule:evenodd;clip-rule:evenodd;fill:none;stroke:#1E1E1E;stroke-width:0.9998;stroke-miterlimit:22.9256;}
</style>
<g>
	<path class="st0" d="M53.9,101.2c-1,1-1.9,1.5-2.8,1.5c-0.6,0-0.9-0.2-1.1-0.6c0.3-0.3,0.4-0.9,0.4-1.5v-0.3c0-0.1,0-0.1,0-0.2
		c-0.6-0.5-0.9-1.2-0.9-1.9c0-0.7,0.4-1.5,1.1-2.3c-0.2-0.4-0.3-0.9-0.3-1.3c0-0.5,0.1-0.9,0.2-1.3c0.1-0.4,0.3-0.8,0.6-1.1
		c0.5-0.7,1-1,1.5-1c0.5,0,0.8,0.2,1.1,0.6c-0.4,0.5-0.7,1.2-0.7,2.2c0,1,0.1,1.8,0.4,2.6c0.3,0.7,0.7,1.4,1.2,1.9
		c1.1,1.1,2.6,1.7,4.3,1.7c1.2,0,2.2-0.3,3-1c0.9-0.7,1.3-1.7,1.3-2.9c0-0.9-0.2-1.6-0.6-2.1c-0.6-0.9-1.7-1.8-3-2.7
		c-1.1-0.7-1.9-1.1-2.5-1.1c-0.6,0-1.4,0.3-2.1,0.8c0.2-0.6,0.3-1.2,0.3-1.7c0-0.1-0.1-0.3-0.3-0.5l-0.7-0.6c-2.1-2-3.4-3.8-3.8-5.5
		c-0.1-0.6-0.2-1.3-0.2-2.2c0-0.9,0.2-1.8,0.6-2.7c0.4-0.9,1-1.7,1.8-2.3c1.6-1.3,3.6-2,6-2c1.5,0,2.8,0.2,4.1,0.7
		c0.5,0.2,1.1,0.3,1.8,0.3c0.3,0,0.5,0,0.8,0c0.2,0,0.4-0.2,0.6-0.4c0.2-0.2,0.2-0.4,0.2-0.6c0-0.2,0-0.3-0.1-0.5
		c0.1,0,0.2-0.1,0.4-0.1c0.2,0,0.3,0.1,0.5,0.2c0.2,0.1,0.3,0.2,0.5,0.4c0.3,0.4,0.5,0.9,0.5,1.4c0,0.5-0.1,0.9-0.4,1.2
		c0.4,0.4,0.6,0.9,0.6,1.7c0,0.8-0.3,1.4-0.8,1.9c0.1,0.3,0.2,0.6,0.2,0.9c0,0.3,0,0.5-0.1,0.7c-0.1,0.2-0.2,0.4-0.4,0.6
		c-0.4,0.4-0.7,0.6-1,0.6c-0.5,0-0.9-0.1-1.3-0.3c0.2-0.5,0.3-1,0.3-1.6c0-0.6-0.1-1.1-0.4-1.7c-0.2-0.6-0.6-1.1-1-1.5
		c-1-0.9-2.2-1.3-3.7-1.3c-1,0-1.8,0.3-2.4,0.9c-0.6,0.6-0.9,1.2-0.9,2c0,0.6,0.1,1.1,0.4,1.5c0.5,0.7,1.3,1.4,2.4,2.2l0.9,0.6
		c0.5,0.3,0.8,0.5,1,0.5c0.2,0,0.3,0,0.5-0.1c0.2,0,0.4-0.1,0.6-0.1c0.4-0.1,0.9-0.4,1.3-0.6l-0.2,1c-0.1,0.3-0.1,0.6-0.1,0.7
		c0,0.3,0.1,0.5,0.4,0.7c2.3,2,3.8,3.6,4.6,5c0.7,1.2,1,2.4,1,3.7c0,1.3-0.2,2.5-0.7,3.5c-0.4,1-1.1,1.8-1.9,2.6
		c-1.9,1.7-4.3,2.5-7.2,2.5C57.3,102.5,55.4,102,53.9,101.2L53.9,101.2z M52.7,79.1c-0.5,0.2-0.7,0.7-0.7,1.5c0,1.7,1.1,3.5,3.3,5.5
		l1.1,1c0.4,0.3,0.5,0.6,0.5,0.8c0,0.2-0.1,0.3-0.1,0.4c0,0.1-0.1,0.2-0.1,0.3c0,0.1-0.1,0.2-0.1,0.2c0.4-0.3,0.8-0.4,1-0.4
		c0.5,0,1,0.1,1.5,0.4c2.4,1.5,3.9,2.8,4.8,3.9c0.6,0.8,0.9,1.9,0.9,3.1c0,0.4,0,0.8-0.1,1.1c0.6-0.4,1-1.1,1-2c0-0.9-0.1-1.6-0.4-2
		c-0.2-0.5-0.5-0.9-0.8-1.3c-0.3-0.4-0.7-0.8-1.2-1.2c-0.5-0.4-1.1-0.9-1.9-1.4l-2.6-1.8c-2.1-1.4-3.8-2.9-4.9-4.4
		C53.1,81.6,52.6,80.3,52.7,79.1L52.7,79.1z M86.3,101.7c-0.6,0.4-1.3,0.6-2.1,0.6c-0.8,0-1.5-0.2-2.1-0.6c-0.7,0.4-1.3,0.6-1.8,0.6
		c-0.6,0-1,0-1.4-0.1c-0.3-0.1-0.6-0.2-0.9-0.4c-0.5-0.3-0.8-0.7-0.8-1.2c0-0.2,0.1-0.5,0.2-0.6c0.3,0.2,0.6,0.3,1.1,0.3
		c0.4,0,0.9-0.1,1.3-0.3c0.5-0.2,0.8-0.6,1-1.1v-8.9c0-0.6-0.1-1-0.3-1.2c-0.4-0.4-1-0.9-1.9-1.3c0.8-0.4,1.4-0.7,1.6-1
		c0.4-0.5,0.6-1,0.6-1.6v-8.5C80.5,76.1,80,76,79.4,76c-0.6,0-1.1,0.1-1.7,0.4c-0.6,0.3-1.2,0.7-1.6,1.3c-1.1,1.3-1.6,2.9-1.6,5
		c0,1.2,0.2,2.1,0.6,2.6c-0.1,0.3-0.4,0.5-0.8,0.5c-0.4,0-0.8-0.1-1.1-0.3c-0.3-0.2-0.6-0.4-0.8-0.7c-0.5-0.6-0.7-1.3-0.7-2
		s0.1-1.4,0.4-1.9c-0.4-0.5-0.7-1.1-0.7-1.8c0-0.7,0.2-1.2,0.5-1.7c-0.5-0.5-0.8-1.3-0.8-2.2c0-1.1,0.5-1.8,1.5-2.2
		c0.3-0.1,0.5-0.2,0.8-0.2c0.4,0,0.7,0.1,0.9,0.3c-0.1,0.3-0.1,0.5-0.1,0.6c0,0.5,0.2,0.7,0.5,0.7c0.2,0,0.4,0,0.6-0.1l0.8-0.2
		c1.4-0.4,2.6-0.6,3.6-0.6c0.9,0,1.8,0.2,2.5,0.6c0.6-0.4,1.3-0.6,2.1-0.6c0.8,0,1.5,0.2,2.2,0.6c0.7-0.4,1.4-0.6,2.2-0.6
		c1.2,0,2.2,0.1,3.1,0.4l1.6,0.4c0.2,0.1,0.4,0.1,0.6,0.1c0.3,0,0.5-0.2,0.5-0.7c0-0.1,0-0.3-0.1-0.6c0.2-0.2,0.5-0.3,0.8-0.3
		c0.3,0,0.6,0.1,0.9,0.2c0.3,0.1,0.5,0.3,0.8,0.5c0.5,0.4,0.7,1,0.7,1.8c0,0.8-0.3,1.5-0.8,2.1c0.4,0.4,0.5,1,0.5,1.7
		c0,0.7-0.2,1.3-0.7,1.8c0.3,0.5,0.4,1,0.4,1.5c0,0.5-0.1,1-0.2,1.4c-0.1,0.4-0.3,0.8-0.5,1.1c-0.5,0.7-1.1,1-1.9,1
		c-0.4,0-0.7-0.1-0.8-0.5c0.4-0.6,0.6-1.4,0.6-2.5c0-1.1-0.1-2.1-0.4-2.9c-0.3-0.8-0.7-1.5-1.2-2.1c-1-1.1-2.1-1.7-3.5-1.7
		c-0.5,0-1,0.1-1.3,0.2v8.5c0,0.6,0.1,1,0.4,1.3c0.4,0.5,1,0.9,1.8,1.3c-0.9,0.4-1.5,0.8-1.7,1.1c-0.4,0.4-0.5,0.9-0.5,1.5v8.9
		c0.2,0.5,0.6,0.8,1,1.1c0.5,0.2,0.9,0.3,1.4,0.3s0.8-0.1,1.1-0.3c0.1,0.2,0.2,0.4,0.2,0.6c0,0.2-0.1,0.5-0.2,0.7
		c-0.1,0.2-0.3,0.4-0.6,0.5c-0.6,0.3-1.2,0.5-2,0.5C87.7,102.3,87,102.1,86.3,101.7L86.3,101.7z M82.6,97.1c0.6-0.2,0.9-1,1-2.4
		c0.1-1.4,0.1-3.3,0.1-5.7c0-2.4,0-4,0-4.8c0-0.8,0-1.4,0-1.9c0-1.4-0.2-2.3-0.4-2.6c-0.2-0.3-0.5-0.5-0.7-0.6
		c0,4.2-0.1,6.7-0.2,7.2c-0.2,0.5-0.6,0.8-1.2,1c0.7,0.3,1.1,0.6,1.2,0.9c0.1,0.6,0.2,2.7,0.2,6.4V97.1L82.6,97.1z M100.2,101.8
		c0.4,0.3,0.9,0.5,1.5,0.5c0.6,0,1.1-0.2,1.5-0.5c0.5,0.3,1,0.5,1.6,0.5c0.6,0,1.1-0.1,1.5-0.4c0.4-0.3,0.6-0.6,0.6-1
		c0-0.4-0.1-0.7-0.2-0.9c-0.4,0.2-0.9,0.3-1.6,0.3c-0.7,0-1.3-0.4-1.8-1.1l1.2-4h9.9l1.4,4.7c-0.3,0.3-0.8,0.4-1.5,0.4
		c-0.3,0-0.7-0.1-1-0.3c-0.1,0.1-0.2,0.3-0.2,0.6c0,0.6,0.3,1,0.8,1.3c0.5,0.3,1.1,0.5,1.8,0.5c0.7,0,1.4-0.2,1.9-0.6
		c0.6,0.4,1.3,0.6,2.1,0.6c0.8,0,1.5-0.2,2.1-0.6c0.6,0.4,1.2,0.6,2,0.6c0.8,0,1.3-0.2,1.7-0.5c0.2-0.2,0.3-0.4,0.4-0.6
		c0.1-0.2,0.1-0.5,0.1-0.7c0-0.3-0.1-0.4-0.2-0.5c-0.3,0.2-0.7,0.3-1.3,0.3c-0.5,0-1.1-0.3-1.6-0.8l-3.5-9.4
		c-0.1-0.2-0.1-0.5-0.1-0.8c0-0.8,0.6-1.4,1.8-1.8c-0.3-0.1-0.7-0.3-1-0.4c-1.2-0.5-1.9-1.3-2.2-2.2l-2.3-7.5
		c0.2-1.1,0.8-1.7,1.6-1.7c0.4,0,0.7,0.1,1,0.3c0.1-0.2,0.2-0.4,0.2-0.6c0-0.5-0.2-0.9-0.7-1.2c-0.4-0.3-1.1-0.5-1.9-0.5
		c-0.8,0-1.6,0.2-2.4,0.7c-0.5-0.5-1.3-0.7-2.2-0.7c-0.9,0-1.7,0.3-2.3,0.8c-0.6-0.5-1.3-0.8-2.2-0.8c-0.8,0-1.5,0.2-2,0.6
		c-0.2,0.2-0.4,0.4-0.5,0.6c-0.1,0.2-0.2,0.5-0.2,0.8s0.1,0.5,0.2,0.7c0.5-0.2,1-0.3,1.5-0.3c0.5,0,1,0.3,1.4,0.8l-2,6.7
		c-0.3,1.1-0.8,2-1.4,2.7c-0.4,0.4-1.1,0.8-2,1.2c1,0.3,1.6,1,1.6,2.1c0,0.3-0.1,0.7-0.2,1l-0.4,1.3l-2.6,7.7
		c-0.2,0.2-0.5,0.4-0.8,0.6c-0.3,0.1-0.6,0.2-1.2,0.2c-0.5,0-1-0.1-1.3-0.3c-0.1,0.2-0.2,0.5-0.2,0.9c0,0.4,0.2,0.7,0.5,1
		c0.3,0.3,0.8,0.4,1.4,0.4S99.7,102.1,100.2,101.8L100.2,101.8z M113.6,92.6h-8.4l4.2-14.1L113.6,92.6L113.6,92.6z M117,97.1l-1-2.7
		c-0.3-1-1.4-4.2-3.2-9.7c-0.3-0.8-0.8-2.7-1.6-5.7c0.1,0,0.3,0.1,0.4,0.2c0.5,0.4,0.9,1.1,1.2,1.9l1.1,3.4c0.1,0.3,0.2,0.6,0.3,0.8
		c0.1,0.2,0.1,0.3,0.2,0.4c0.1,0.1,0.1,0.2,0.2,0.3c0.1,0.1,0.1,0.2,0.2,0.3c0.2,0.4,0.7,0.6,1.5,0.8c-0.6,0.2-0.9,0.7-0.9,1.4
		c0,0.4,0.2,1.4,0.7,3l0.7,2.1c0.3,0.8,0.4,1.6,0.4,2.5C117.4,96.8,117.3,97.1,117,97.1L117,97.1z M122.4,98.7l0,0.1L122.4,98.7
		L122.4,98.7z M140.6,101.7c-0.6,0.4-1.3,0.6-2.1,0.6c-0.8,0-1.5-0.2-2.1-0.6c-0.7,0.4-1.3,0.6-1.8,0.6c-0.6,0-1,0-1.4-0.1
		c-0.3-0.1-0.6-0.2-0.9-0.4c-0.5-0.3-0.8-0.7-0.8-1.2c0-0.2,0.1-0.5,0.2-0.6c0.3,0.2,0.6,0.3,1.1,0.3c0.4,0,0.9-0.1,1.3-0.3
		c0.5-0.2,0.8-0.6,1-1.1v-8.9c0-0.6-0.1-1-0.3-1.2c-0.4-0.4-1-0.9-1.9-1.3c0.8-0.4,1.4-0.7,1.6-1c0.4-0.5,0.6-1,0.6-1.6v-8.5
		c-0.4-0.1-0.9-0.2-1.4-0.2s-1.1,0.1-1.7,0.4c-0.6,0.3-1.2,0.7-1.6,1.3c-1.1,1.3-1.6,2.9-1.6,5c0,1.2,0.2,2.1,0.6,2.6
		c-0.1,0.3-0.4,0.5-0.8,0.5c-0.4,0-0.8-0.1-1.1-0.3c-0.3-0.2-0.6-0.4-0.8-0.7c-0.5-0.6-0.7-1.3-0.7-2s0.1-1.4,0.4-1.9
		c-0.4-0.5-0.7-1.1-0.7-1.8c0-0.7,0.2-1.2,0.5-1.7c-0.5-0.5-0.8-1.3-0.8-2.2c0-1.1,0.5-1.8,1.5-2.2c0.3-0.1,0.5-0.2,0.8-0.2
		c0.4,0,0.7,0.1,0.9,0.3c-0.1,0.3-0.1,0.5-0.1,0.6c0,0.5,0.2,0.7,0.5,0.7c0.2,0,0.4,0,0.6-0.1l0.8-0.2c1.4-0.4,2.6-0.6,3.6-0.6
		c0.9,0,1.8,0.2,2.5,0.6c0.6-0.4,1.3-0.6,2.1-0.6s1.5,0.2,2.2,0.6c0.7-0.4,1.4-0.6,2.2-0.6c1.2,0,2.2,0.1,3.1,0.4l1.6,0.4
		c0.2,0.1,0.4,0.1,0.6,0.1c0.3,0,0.5-0.2,0.5-0.7c0-0.1,0-0.3-0.1-0.6c0.2-0.2,0.5-0.3,0.8-0.3c0.3,0,0.6,0.1,0.9,0.2
		c0.3,0.1,0.5,0.3,0.8,0.5c0.5,0.4,0.7,1,0.7,1.8c0,0.8-0.3,1.5-0.8,2.1c0.4,0.4,0.5,1,0.5,1.7c0,0.7-0.2,1.3-0.7,1.8
		c0.3,0.5,0.4,1,0.4,1.5c0,0.5-0.1,1-0.2,1.4c-0.1,0.4-0.3,0.8-0.5,1.1c-0.5,0.7-1.1,1-1.9,1c-0.4,0-0.7-0.1-0.8-0.5
		c0.4-0.6,0.6-1.4,0.6-2.5c0-1.1-0.1-2.1-0.4-2.9c-0.3-0.8-0.7-1.5-1.2-2.1c-1-1.1-2.1-1.7-3.5-1.7c-0.5,0-1,0.1-1.3,0.2v8.5
		c0,0.6,0.1,1,0.4,1.3c0.4,0.5,1,0.9,1.8,1.3c-0.9,0.4-1.5,0.8-1.7,1.1c-0.4,0.4-0.5,0.9-0.5,1.5v8.9c0.2,0.5,0.6,0.8,1,1.1
		c0.5,0.2,0.9,0.3,1.4,0.3s0.8-0.1,1.1-0.3c0.1,0.2,0.2,0.4,0.2,0.6c0,0.2-0.1,0.5-0.2,0.7c-0.1,0.2-0.3,0.4-0.6,0.5
		c-0.6,0.3-1.2,0.5-2,0.5C142,102.3,141.3,102.1,140.6,101.7L140.6,101.7z M136.9,97.1c0.6-0.2,0.9-1,1-2.4c0.1-1.4,0.1-3.3,0.1-5.7
		c0-2.4,0-4,0-4.8c0-0.8,0-1.4,0-1.9c0-1.4-0.2-2.3-0.4-2.6c-0.2-0.3-0.5-0.5-0.7-0.6c0,4.2-0.1,6.7-0.2,7.2c-0.2,0.5-0.6,0.8-1.2,1
		c0.7,0.3,1.1,0.6,1.2,0.9c0.1,0.6,0.2,2.7,0.2,6.4V97.1L136.9,97.1z M176.5,96c0.2,0.5,0.7,1,1.3,1.5c-0.4,0.2-1,0.6-1.6,1.2
		c-0.6,0.6-1.4,1.2-2.1,1.7c-0.8,0.5-1.6,0.9-2.4,1.2c-1.4,0.6-2.9,0.8-4.6,0.8c-1.6,0-3.1-0.2-4.5-0.6c-1.3-0.4-2.4-0.9-3.3-1.6
		c-1.7-1.3-2.6-3.1-2.6-5.3v-5.1c0-0.6-0.1-1-0.3-1.2c-0.4-0.4-1-0.9-1.9-1.3c0.8-0.4,1.4-0.7,1.6-1c0.4-0.5,0.6-1,0.6-1.6V77
		c-0.4-0.9-1.2-1.4-2.3-1.4c-0.4,0-0.8,0.1-1,0.3c-0.1-0.2-0.2-0.4-0.2-0.6c0-0.2,0.1-0.5,0.2-0.7c0.1-0.2,0.3-0.4,0.6-0.5
		c0.6-0.3,1.2-0.5,1.9-0.5c0.7,0,1.4,0.2,2,0.6c0.6-0.4,1.3-0.6,2.1-0.6c0.8,0,1.5,0.2,2.1,0.6c0.6-0.4,1.2-0.6,1.7-0.6
		c0.5,0,1,0,1.3,0.1c0.3,0.1,0.6,0.2,0.9,0.4c0.5,0.3,0.8,0.7,0.8,1.2c0,0.2-0.1,0.5-0.2,0.6c-0.3-0.2-0.6-0.3-1-0.3
		c-1.1,0-1.8,0.5-2.2,1.4v7.7c0,0.6,0.1,1,0.4,1.3c0.4,0.5,1,0.9,1.8,1.3c-0.9,0.4-1.5,0.8-1.7,1.1c-0.4,0.4-0.5,0.9-0.5,1.5V95
		c0,1.5,0.6,2.7,1.7,3.6c1,0.9,2.2,1.3,3.5,1.3c1.4,0,2.6-0.4,3.6-1.3c1.1-0.8,1.6-1.9,1.6-3.1v-5.8c0-0.5-0.1-0.9-0.3-1.2
		c-0.3-0.4-1-0.8-1.9-1.2c0.8-0.4,1.4-0.7,1.6-1c0.4-0.4,0.6-0.9,0.6-1.4v-8.1c-0.5-0.8-1.2-1.2-1.9-1.2c-0.8,0-1.3,0.1-1.7,0.3
		c-0.1-0.2-0.2-0.5-0.2-0.9c0-0.4,0.2-0.7,0.6-1c0.4-0.3,0.9-0.4,1.5-0.4c0.6,0,1.1,0.2,1.6,0.5c0.4-0.3,0.9-0.5,1.5-0.5
		c0.6,0,1,0.2,1.5,0.5c0.5-0.3,1-0.5,1.6-0.5s1,0.1,1.4,0.4c0.3,0.3,0.5,0.6,0.5,1c0,0.4-0.1,0.7-0.2,0.9c-0.3-0.2-0.9-0.3-1.7-0.3
		s-1.4,0.4-1.9,1.2v8.1c0,0.5,0.1,0.9,0.3,1.2c0.4,0.4,1.1,0.8,2.1,1.3c-1.1,0.5-1.7,0.9-1.9,1.1c-0.3,0.3-0.5,0.8-0.5,1.3V96
		L176.5,96z M159.5,97.1c0.1-0.7,0.2-2.8,0.2-6.3c0-3.6,0-5.7,0-6.5c0-0.8,0-1.4,0-1.9c0-1.4-0.2-2.3-0.4-2.6
		c-0.2-0.3-0.5-0.5-0.7-0.6c0,4.2-0.1,6.7-0.2,7.2c-0.2,0.5-0.6,0.8-1.2,1c0.7,0.3,1.1,0.6,1.2,0.9c0.1,0.6,0.2,1.8,0.2,3.8
		c0,1.9,0,3.1,0.1,3.4c0.1,0.3,0.1,0.6,0.2,0.9C159,96.7,159.2,97,159.5,97.1L159.5,97.1z M187,101.2c-1,1-1.9,1.5-2.8,1.5
		c-0.6,0-0.9-0.2-1.1-0.6c0.3-0.3,0.4-0.9,0.4-1.5v-0.3c0-0.1,0-0.1,0-0.2c-0.6-0.5-0.9-1.2-0.9-1.9c0-0.7,0.4-1.5,1.1-2.3
		c-0.2-0.4-0.3-0.9-0.3-1.3c0-0.5,0.1-0.9,0.2-1.3c0.1-0.4,0.3-0.8,0.6-1.1c0.5-0.7,1-1,1.5-1c0.5,0,0.8,0.2,1.1,0.6
		c-0.4,0.5-0.7,1.2-0.7,2.2c0,1,0.1,1.8,0.4,2.6c0.3,0.7,0.7,1.4,1.2,1.9c1.1,1.1,2.6,1.7,4.3,1.7c1.2,0,2.2-0.3,3-1
		c0.9-0.7,1.3-1.7,1.3-2.9c0-0.9-0.2-1.6-0.6-2.1c-0.6-0.9-1.7-1.8-3-2.7c-1.1-0.7-1.9-1.1-2.5-1.1c-0.6,0-1.4,0.3-2.1,0.8
		c0.2-0.6,0.3-1.2,0.3-1.7c0-0.1-0.1-0.3-0.3-0.5l-0.7-0.6c-2.1-2-3.4-3.8-3.8-5.5c-0.1-0.6-0.2-1.3-0.2-2.2c0-0.9,0.2-1.8,0.6-2.7
		c0.4-0.9,1-1.7,1.8-2.3c1.6-1.3,3.6-2,6-2c1.5,0,2.8,0.2,4.1,0.7c0.5,0.2,1.1,0.3,1.8,0.3c0.3,0,0.5,0,0.8,0c0.2,0,0.4-0.2,0.6-0.4
		c0.2-0.2,0.2-0.4,0.2-0.6c0-0.2,0-0.3-0.1-0.5c0.1,0,0.2-0.1,0.4-0.1c0.2,0,0.3,0.1,0.5,0.2c0.2,0.1,0.3,0.2,0.5,0.4
		c0.3,0.4,0.5,0.9,0.5,1.4c0,0.5-0.1,0.9-0.4,1.2c0.4,0.4,0.6,0.9,0.6,1.7c0,0.8-0.3,1.4-0.8,1.9c0.1,0.3,0.1,0.6,0.1,0.9
		c0,0.3,0,0.5-0.1,0.7c-0.1,0.2-0.2,0.4-0.4,0.6c-0.4,0.4-0.7,0.6-1,0.6c-0.5,0-0.9-0.1-1.3-0.3c0.2-0.5,0.3-1,0.3-1.6
		c0-0.6-0.1-1.1-0.4-1.7c-0.2-0.6-0.6-1.1-1-1.5c-1-0.9-2.2-1.3-3.7-1.3c-1,0-1.8,0.3-2.4,0.9c-0.6,0.6-0.9,1.2-0.9,2
		c0,0.6,0.1,1.1,0.4,1.5c0.5,0.7,1.3,1.4,2.4,2.2l0.9,0.6c0.5,0.3,0.8,0.5,1,0.5c0.2,0,0.3,0,0.5-0.1c0.2,0,0.4-0.1,0.6-0.1
		c0.4-0.1,0.9-0.4,1.3-0.6l-0.2,1c-0.1,0.3-0.1,0.6-0.1,0.7c0,0.3,0.1,0.5,0.4,0.7c2.3,2,3.8,3.6,4.6,5c0.7,1.2,1,2.4,1,3.7
		c0,1.3-0.2,2.5-0.7,3.5c-0.4,1-1.1,1.8-1.9,2.6c-1.9,1.7-4.3,2.5-7.2,2.5C190.3,102.5,188.5,102,187,101.2L187,101.2z M185.8,79.1
		c-0.5,0.2-0.7,0.7-0.7,1.5c0,1.7,1.1,3.5,3.3,5.5l1.1,1c0.4,0.3,0.5,0.6,0.5,0.8c0,0.2-0.1,0.3-0.1,0.4c0,0.1-0.1,0.2-0.1,0.3
		c0,0.1-0.1,0.2-0.1,0.2c0.4-0.3,0.8-0.4,1-0.4c0.5,0,1,0.1,1.5,0.4c2.4,1.5,3.9,2.8,4.8,3.9c0.6,0.8,0.9,1.9,0.9,3.1
		c0,0.4,0,0.8-0.1,1.1c0.6-0.4,1-1.1,1-2c0-0.9-0.1-1.6-0.4-2c-0.2-0.5-0.5-0.9-0.8-1.3c-0.3-0.4-0.7-0.8-1.2-1.2
		c-0.5-0.4-1.1-0.9-1.9-1.4l-2.6-1.8c-2.1-1.4-3.8-2.9-4.9-4.4C186.2,81.6,185.7,80.3,185.8,79.1z"/>
	<path class="st0" d="M67.2,119.1c0,1,0.1,1.8,0.3,2.3c-0.4,0.3-0.8,0.5-1.3,0.5c-0.4,0-0.7-0.1-0.9-0.3c-0.2-0.2-0.3-0.5-0.3-0.8
		l0-5.7h-5.7v4c0,1,0.1,1.8,0.3,2.3c-0.4,0.3-0.8,0.5-1.3,0.5c-0.4,0-0.7-0.1-0.9-0.3c-0.2-0.2-0.3-0.5-0.3-0.8l0-10.2
		c0-1-0.1-1.8-0.3-2.3c0.1-0.1,0.3-0.2,0.5-0.3c0.2-0.1,0.5-0.1,0.7-0.1c0.4,0,0.7,0.1,0.9,0.3c0.2,0.2,0.4,0.5,0.4,0.8v5H65v-3.3
		c0-0.9-0.1-1.7-0.3-2.3c0.4-0.3,0.8-0.5,1.2-0.5c0.4,0,0.7,0.1,0.9,0.3c0.2,0.2,0.4,0.5,0.4,0.8V119.1L67.2,119.1z M74.3,121.9
		c-1.5,0-2.6-0.5-3.4-1.4c-0.8-0.9-1.2-2.2-1.2-3.9c0-1.7,0.4-3,1.2-3.9c0.8-0.9,2-1.4,3.4-1.4c1.5,0,2.6,0.5,3.5,1.4
		c0.8,0.9,1.2,2.2,1.2,3.9c0,1.7-0.4,3-1.2,3.9C77,121.4,75.8,121.9,74.3,121.9L74.3,121.9z M74.3,121.1c0.8,0,1.4-0.4,1.8-1.1
		c0.4-0.8,0.6-1.9,0.6-3.3c0-1.5-0.2-2.6-0.6-3.4c-0.4-0.8-1-1.1-1.8-1.1c-0.8,0-1.4,0.4-1.8,1.1c-0.4,0.8-0.6,1.9-0.6,3.4
		c0,1.5,0.2,2.6,0.6,3.3C73,120.7,73.6,121.1,74.3,121.1L74.3,121.1z M84,111.6c0.2,0,0.6,0,1,0c0.4,0,0.8,0,1,0l0,0.5
		c0,0.2-0.1,0.3-0.2,0.4c-0.1,0.1-0.2,0.1-0.4,0.1h-1.8v0.6l0,5.9c0,0.7,0.3,1.1,0.9,1.1c0.2,0,0.4,0,0.5-0.1
		c0.2-0.1,0.3-0.1,0.3-0.2c0.2,0.2,0.3,0.5,0.3,0.7c0,0.4-0.2,0.7-0.5,0.9c-0.4,0.2-0.8,0.3-1.4,0.3c-0.7,0-1.3-0.2-1.6-0.7
		c-0.4-0.4-0.6-1.1-0.6-1.8v-6.7h-0.3c-0.2,0-0.4,0-0.6,0c-0.2,0-0.4,0-0.6,0.1l0-0.6c0-0.2,0.1-0.3,0.2-0.4
		c0.1-0.1,0.2-0.1,0.4-0.1h0.9v-1.5c0-0.3,0.1-0.6,0.4-0.8c0.2-0.2,0.5-0.3,0.9-0.3c0.5,0,0.9,0.2,1.2,0.5c-0.2,0.6-0.3,1.3-0.3,2.1
		H84L84,111.6z M95.6,118.9c0.2,0.1,0.3,0.3,0.3,0.5c0,0.2,0,0.3-0.1,0.6c-0.2,0.6-0.7,1.1-1.3,1.4c-0.6,0.3-1.4,0.5-2.3,0.5
		c-1.5,0-2.7-0.5-3.5-1.4c-0.9-0.9-1.3-2.2-1.3-3.9c0-1.7,0.4-3,1.3-3.9c0.8-0.9,2-1.4,3.6-1.4c1.1,0,2.1,0.3,2.8,0.8
		c0.7,0.5,1.1,1.2,1.1,2.1c0,1-0.4,1.7-1.2,2.2c-0.8,0.5-1.8,0.8-3.2,0.8c-0.8,0-1.5,0-2-0.1c0.1,1.2,0.4,2.1,0.9,2.6
		c0.5,0.5,1.2,0.8,2.1,0.8c0.7,0,1.3-0.1,1.8-0.4C95.1,119.8,95.4,119.4,95.6,118.9L95.6,118.9z M92.1,112.1c-0.8,0-1.4,0.4-1.8,1.1
		c-0.4,0.7-0.7,1.8-0.7,3.1c0.4,0,0.8,0,1,0c0.9,0,1.6-0.2,2.2-0.5c0.6-0.4,0.8-1,0.8-1.9c0-0.6-0.2-1.1-0.5-1.4
		C93,112.2,92.6,112.1,92.1,112.1L92.1,112.1z M100.3,121.8c-0.7,0-1.2-0.2-1.6-0.7c-0.4-0.4-0.6-1-0.6-1.8v-10.9
		c0-0.4,0.1-0.6,0.3-0.8c0.2-0.2,0.5-0.3,0.9-0.3c0.5,0,0.9,0.2,1.2,0.5c-0.1,0.5-0.2,1-0.3,1.5c0,0.5-0.1,1.3-0.1,2.3v7.6
		c0,0.7,0.2,1,0.7,1c0.1,0,0.3,0,0.4-0.1c0.1-0.1,0.2-0.1,0.3-0.2c0.2,0.2,0.3,0.5,0.3,0.7c0,0.4-0.2,0.6-0.5,0.9
		C101.1,121.7,100.8,121.8,100.3,121.8L100.3,121.8z M122.3,108.7c0.2,0,0.5,0.1,0.7,0.3c0.2,0.2,0.4,0.4,0.4,0.8
		c0,0.4-0.2,0.8-0.5,1.2c-0.5,0.7-1.1,1.4-1.9,2.2c0.2,0.7,0.3,1.4,0.3,2.1c0,1.3-0.3,2.4-0.9,3.5c-0.6,1-1.4,1.8-2.5,2.4
		c-1,0.6-2.2,0.8-3.5,0.8c-1.3,0-2.5-0.3-3.5-0.8c-1-0.5-1.8-1.2-2.3-2.1c-0.5-0.9-0.8-1.9-0.8-3.1c0-0.9,0.2-1.7,0.6-2.4
		c0.4-0.7,0.9-1.3,1.7-1.7c0.7-0.4,1.6-0.6,2.5-0.6c1.1,0,1.9,0.3,2.5,0.8c0.6,0.5,0.9,1.2,0.9,2c0,1.1-0.5,2-1.6,2.9
		c0.6-0.4,1.4-1,2.3-1.8c0.9-0.8,1.8-1.6,2.6-2.5c-0.5-1.1-1.2-1.9-2.2-2.5c-1-0.6-2-0.9-3.2-0.9c0-0.5,0.1-0.8,0.4-1.1
		c0.2-0.3,0.7-0.4,1.3-0.4c1,0,2,0.3,2.9,1c0.9,0.7,1.6,1.5,2.1,2.6C121.1,110.4,121.8,109.5,122.3,108.7L122.3,108.7z M119.7,115.4
		c0-0.3,0-0.7-0.1-1.1c-1.2,0.9-2.4,1.7-3.8,2.5c-1.4,0.7-2.7,1.3-3.9,1.6l-0.2-0.7c0.7-0.6,1.3-1.2,1.7-1.7
		c0.4-0.5,0.6-1.2,0.6-1.8c0-0.6-0.1-1.1-0.4-1.4c-0.3-0.4-0.7-0.5-1.2-0.5c-0.4,0-0.8,0.1-1.2,0.4c-0.4,0.3-0.6,0.7-0.9,1.2
		c-0.2,0.5-0.3,1.2-0.3,1.9c0,0.9,0.2,1.8,0.5,2.6c0.4,0.8,0.9,1.4,1.5,1.9c0.7,0.5,1.5,0.7,2.4,0.7c0.9,0,1.8-0.2,2.5-0.7
		c0.8-0.5,1.4-1.1,1.9-1.9C119.5,117.5,119.7,116.5,119.7,115.4L119.7,115.4z M139.7,120c0.1,0.2,0.2,0.4,0.2,0.6
		c0,0.4-0.2,0.7-0.5,0.9c-0.3,0.2-0.6,0.3-1,0.3c-0.4,0-0.8-0.1-1.1-0.3c-0.3-0.2-0.5-0.5-0.7-0.8c-0.2-0.3-0.4-0.8-0.6-1.4
		l-0.7-1.9c-0.2-0.4-0.3-0.8-0.5-1c-0.2-0.2-0.4-0.5-0.6-0.6c-0.3-0.2-0.7-0.3-1.1-0.3l-1,0v3.6c0,1,0.1,1.7,0.3,2.2
		c-0.4,0.3-0.8,0.5-1.2,0.5c-0.4,0-0.7-0.1-0.9-0.3c-0.2-0.2-0.3-0.5-0.3-0.8v-10.2c0-0.4,0-0.7-0.1-1.2c-0.1-0.4-0.1-0.8-0.3-1.1
		c0.7-0.3,1.8-0.5,3.3-0.5c1.9,0,3.3,0.3,4.2,0.9c0.9,0.6,1.4,1.5,1.4,2.8c0,1-0.3,1.8-0.8,2.4c-0.5,0.7-1.3,1.1-2.3,1.3
		c0.5,0.1,0.8,0.3,1.1,0.6c0.3,0.3,0.6,0.7,0.8,1.2l0.9,2.1c0.2,0.4,0.3,0.7,0.5,0.9c0.2,0.2,0.3,0.3,0.5,0.3
		C139.4,120.2,139.6,120.1,139.7,120L139.7,120z M132,114.8c0.2,0,0.6,0,1.1,0c0.9,0,1.6-0.3,2.2-0.9c0.5-0.6,0.8-1.4,0.8-2.3
		c0-2-1-3-3.1-3c-0.5,0-0.8,0-1,0V114.8L132,114.8z M149.1,118.9c0.2,0.1,0.3,0.3,0.3,0.5c0,0.2,0,0.3-0.1,0.6
		c-0.2,0.6-0.7,1.1-1.3,1.4c-0.6,0.3-1.4,0.5-2.3,0.5c-1.5,0-2.7-0.5-3.5-1.4c-0.9-0.9-1.3-2.2-1.3-3.9c0-1.7,0.4-3,1.3-3.9
		c0.8-0.9,2-1.4,3.6-1.4c1.1,0,2.1,0.3,2.8,0.8s1.1,1.2,1.1,2.1c0,1-0.4,1.7-1.2,2.2c-0.8,0.5-1.8,0.8-3.2,0.8c-0.8,0-1.5,0-2-0.1
		c0.1,1.2,0.4,2.1,0.9,2.6c0.5,0.5,1.2,0.8,2.1,0.8c0.7,0,1.3-0.1,1.8-0.4C148.6,119.8,148.9,119.4,149.1,118.9L149.1,118.9z
		 M145.6,112.1c-0.8,0-1.4,0.4-1.8,1.1c-0.4,0.7-0.7,1.8-0.7,3.1c0.4,0,0.8,0,1,0c0.9,0,1.6-0.2,2.2-0.5c0.6-0.4,0.8-1,0.8-1.9
		c0-0.6-0.2-1.1-0.5-1.4C146.5,112.2,146.1,112.1,145.6,112.1L145.6,112.1z M154.7,121.9c-1.2,0-2.2-0.2-2.8-0.6
		c-0.6-0.4-0.9-1-0.9-1.7c0-0.4,0.1-0.7,0.3-0.9c0.2-0.2,0.5-0.4,1-0.4c0.1,0,0.2,0,0.4,0c0,0.2-0.1,0.3-0.1,0.4
		c0,0.2,0,0.3,0.1,0.5c0.1,0.5,0.3,0.9,0.7,1.3c0.4,0.3,0.9,0.5,1.6,0.5c0.6,0,1.1-0.1,1.5-0.3c0.4-0.2,0.6-0.6,0.6-1
		c0-0.3-0.1-0.6-0.3-0.8c-0.2-0.2-0.4-0.4-0.7-0.6c-0.3-0.2-0.6-0.4-1.1-0.6c-0.1,0-0.3-0.1-0.5-0.2c-0.7-0.3-1.3-0.6-1.7-0.9
		c-0.4-0.3-0.8-0.6-1.1-1c-0.3-0.4-0.4-1-0.4-1.6c0-0.9,0.4-1.6,1.1-2c0.7-0.5,1.6-0.7,2.7-0.7s1.9,0.2,2.6,0.5
		c0.6,0.3,0.9,0.8,0.9,1.4c0,0.3-0.1,0.5-0.2,0.7c-0.2,0.2-0.4,0.3-0.8,0.3c-0.1,0-0.2,0-0.3,0c-0.1,0-0.2,0-0.4,0
		c0-0.1,0-0.2,0-0.4c0-0.3,0-0.5-0.1-0.6c-0.1-0.4-0.3-0.7-0.6-0.9c-0.3-0.2-0.7-0.3-1.2-0.3c-0.5,0-0.9,0.1-1.2,0.3
		c-0.3,0.2-0.5,0.5-0.5,0.9c0,0.4,0.1,0.7,0.3,0.9c0.2,0.3,0.5,0.5,0.8,0.7c0.3,0.2,0.8,0.4,1.3,0.7c0.8,0.4,1.4,0.7,1.8,0.9
		c0.4,0.2,0.7,0.5,1.1,0.9c0.3,0.4,0.5,0.9,0.5,1.4c0,0.8-0.3,1.5-1,2.1C157.2,121.6,156.2,121.9,154.7,121.9L154.7,121.9z
		 M165,121.9c-1.5,0-2.6-0.5-3.4-1.4c-0.8-0.9-1.2-2.2-1.2-3.9c0-1.7,0.4-3,1.2-3.9c0.8-0.9,2-1.4,3.4-1.4c1.5,0,2.6,0.5,3.5,1.4
		c0.8,0.9,1.2,2.2,1.2,3.9c0,1.7-0.4,3-1.2,3.9C167.6,121.4,166.5,121.9,165,121.9L165,121.9z M165,121.1c0.8,0,1.4-0.4,1.8-1.1
		c0.4-0.8,0.6-1.9,0.6-3.3c0-1.5-0.2-2.6-0.6-3.4c-0.4-0.8-1-1.1-1.8-1.1c-0.8,0-1.4,0.4-1.8,1.1c-0.4,0.8-0.6,1.9-0.6,3.4
		c0,1.5,0.2,2.6,0.6,3.3C163.6,120.7,164.2,121.1,165,121.1L165,121.1z M176.6,111.3c0.7,0,1.3,0.2,1.7,0.6c0.4,0.4,0.7,0.9,0.7,1.6
		c0,0.5-0.1,0.9-0.4,1.2c-0.3,0.3-0.6,0.5-1.1,0.5c-0.4,0-0.7-0.1-0.9-0.3c0.1-0.2,0.2-0.4,0.3-0.6c0.1-0.2,0.1-0.4,0.1-0.7
		c0-0.7-0.3-1.1-1-1.1c-0.5,0-0.9,0.4-1.3,1.1c-0.3,0.8-0.5,1.9-0.5,3.4v0.7c0,1.2,0,2,0.1,2.4c0,0.4,0.1,0.9,0.3,1.2
		c-0.1,0.1-0.3,0.2-0.5,0.3c-0.2,0.1-0.5,0.1-0.7,0.2c-0.4,0-0.7-0.1-0.9-0.3c-0.2-0.2-0.4-0.5-0.4-0.9V114c0-0.4,0-0.6-0.1-0.8
		c-0.1-0.2-0.2-0.2-0.4-0.2c-0.2,0-0.4,0.1-0.5,0.3c-0.2-0.2-0.3-0.5-0.3-0.7c0-0.3,0.1-0.6,0.4-0.8c0.2-0.2,0.6-0.3,1-0.3
		c0.5,0,1,0.2,1.3,0.5c0.3,0.4,0.5,0.9,0.5,1.6C174.5,112,175.3,111.3,176.6,111.3L176.6,111.3z M183.6,111.6c0.2,0,0.6,0,1,0
		c0.4,0,0.8,0,1,0l0,0.5c0,0.2-0.1,0.3-0.2,0.4c-0.1,0.1-0.2,0.1-0.4,0.1h-1.8v0.6l0,5.9c0,0.7,0.3,1.1,0.9,1.1c0.2,0,0.4,0,0.5-0.1
		c0.2-0.1,0.3-0.1,0.3-0.2c0.2,0.2,0.3,0.5,0.3,0.7c0,0.4-0.2,0.7-0.5,0.9c-0.4,0.2-0.8,0.3-1.4,0.3c-0.7,0-1.3-0.2-1.6-0.7
		c-0.4-0.4-0.6-1.1-0.6-1.8v-6.7h-0.3c-0.2,0-0.4,0-0.6,0c-0.2,0-0.4,0-0.6,0.1l0-0.6c0-0.2,0.1-0.3,0.2-0.4
		c0.1-0.1,0.2-0.1,0.4-0.1h0.9v-1.5c0-0.3,0.1-0.6,0.4-0.8c0.2-0.2,0.5-0.3,0.9-0.3c0.5,0,0.9,0.2,1.2,0.5c-0.2,0.6-0.3,1.3-0.3,2.1
		H183.6L183.6,111.6z M190.6,121.9c-1.2,0-2.2-0.2-2.8-0.6c-0.6-0.4-0.9-1-0.9-1.7c0-0.4,0.1-0.7,0.3-0.9c0.2-0.2,0.5-0.4,1-0.4
		c0.1,0,0.2,0,0.4,0c0,0.2-0.1,0.3-0.1,0.4c0,0.2,0,0.3,0.1,0.5c0.1,0.5,0.3,0.9,0.7,1.3c0.4,0.3,0.9,0.5,1.6,0.5
		c0.6,0,1.1-0.1,1.5-0.3c0.4-0.2,0.6-0.6,0.6-1c0-0.3-0.1-0.6-0.3-0.8c-0.2-0.2-0.4-0.4-0.7-0.6c-0.3-0.2-0.6-0.4-1.1-0.6
		c-0.1,0-0.3-0.1-0.5-0.2c-0.7-0.3-1.3-0.6-1.7-0.9c-0.4-0.3-0.8-0.6-1.1-1c-0.3-0.4-0.4-1-0.4-1.6c0-0.9,0.4-1.6,1.1-2
		c0.7-0.5,1.6-0.7,2.7-0.7s1.9,0.2,2.6,0.5c0.6,0.3,0.9,0.8,0.9,1.4c0,0.3-0.1,0.5-0.2,0.7c-0.2,0.2-0.4,0.3-0.8,0.3
		c-0.1,0-0.2,0-0.3,0c-0.1,0-0.2,0-0.4,0c0-0.1,0-0.2,0-0.4c0-0.3,0-0.5-0.1-0.6c-0.1-0.4-0.3-0.7-0.6-0.9c-0.3-0.2-0.7-0.3-1.2-0.3
		c-0.5,0-0.9,0.1-1.2,0.3c-0.3,0.2-0.5,0.5-0.5,0.9c0,0.4,0.1,0.7,0.3,0.9c0.2,0.3,0.5,0.5,0.8,0.7c0.3,0.2,0.8,0.4,1.3,0.7
		c0.8,0.4,1.4,0.7,1.8,0.9c0.4,0.2,0.7,0.5,1.1,0.9c0.3,0.4,0.5,0.9,0.5,1.4c0,0.8-0.3,1.5-1,2.1
		C193.2,121.6,192.1,121.9,190.6,121.9z"/>
	<path class="st0" d="M65.7,146.3c0.1,0,0.1,0.1,0.2,0.2c0,0.1,0.1,0.2,0.1,0.3c0,0.1,0,0.2-0.1,0.3c0,0.1-0.1,0.1-0.2,0.1h-4.5
		c-0.2,0-0.4-0.1-0.5-0.2c-0.1-0.1-0.2-0.3-0.2-0.5l0-7.5c0-0.6-0.1-1.1-0.2-1.5c0.1-0.1,0.3-0.2,0.4-0.2c0.1,0,0.3-0.1,0.6-0.1h4.3
		c0.1,0,0.1,0,0.2,0.1c0,0.1,0.1,0.1,0.1,0.2c0,0.1,0,0.3-0.1,0.4c-0.1,0.1-0.1,0.2-0.2,0.3c-1.4-0.2-2.6-0.4-3.9-0.4v3.7h3.5
		c0,0.1,0,0.2,0,0.3c0,0.1,0,0.2,0,0.3h-3.5l0,4.2C62.8,146.7,64.1,146.6,65.7,146.3L65.7,146.3z M73.3,146.1c0.1,0,0.2,0.1,0.3,0.2
		c0.1,0.1,0.1,0.2,0.1,0.4c0,0.2-0.1,0.4-0.3,0.6c-0.2,0.2-0.4,0.3-0.8,0.3c-0.3,0-0.6-0.1-0.8-0.3c-0.2-0.2-0.4-0.5-0.7-0.9
		l-1.1-1.9l-1.8,2.8c-0.1,0.2-0.3,0.3-0.6,0.3c-0.4,0-0.6-0.2-0.7-0.7c0.2-0.1,0.4-0.2,0.6-0.3c0.2-0.2,0.4-0.4,0.6-0.7l1.5-2.1
		l-1.3-2.2c-0.1-0.2-0.2-0.3-0.3-0.4c-0.1-0.1-0.2-0.1-0.3-0.1c-0.1,0-0.2,0-0.3,0.1c-0.1,0.1-0.1,0.2-0.1,0.3
		c-0.1,0-0.3-0.1-0.3-0.2c-0.1-0.1-0.1-0.2-0.1-0.4c0-0.2,0.1-0.4,0.3-0.6c0.2-0.2,0.5-0.3,0.8-0.3c0.3,0,0.6,0.1,0.8,0.3
		c0.2,0.2,0.4,0.5,0.7,1l0.9,1.7l1.7-2.6c0.1-0.2,0.3-0.4,0.6-0.4c0.2,0,0.3,0.1,0.4,0.2c0.1,0.1,0.2,0.3,0.2,0.5
		c-0.2,0.1-0.4,0.2-0.6,0.4c-0.2,0.2-0.3,0.4-0.6,0.7l-1.4,1.9l1.4,2.4c0.2,0.4,0.4,0.5,0.7,0.5c0.1,0,0.2,0,0.3-0.1
		C73.2,146.3,73.3,146.2,73.3,146.1L73.3,146.1z M78.8,139.9c0.9,0,1.6,0.3,1.9,1c0.4,0.7,0.5,1.5,0.5,2.4c0,1.3-0.3,2.3-0.8,3.1
		c-0.5,0.7-1.3,1.1-2.2,1.1c-0.5,0-0.9-0.1-1.2-0.3c-0.3-0.2-0.6-0.5-0.7-0.8v1.7c0,0.4,0,0.8,0,1.2c0,0.4,0.1,0.7,0.1,1
		c-0.1,0.1-0.1,0.1-0.3,0.2c-0.1,0.1-0.2,0.1-0.4,0.1c-0.2,0-0.4-0.1-0.5-0.2c-0.1-0.1-0.2-0.3-0.2-0.5l0-8.3c0-0.3,0-0.5-0.1-0.6
		c-0.1-0.1-0.2-0.2-0.3-0.2c-0.2,0-0.3,0.1-0.4,0.2c-0.1-0.2-0.2-0.3-0.2-0.5c0-0.2,0.1-0.3,0.2-0.5c0.2-0.1,0.4-0.2,0.6-0.2
		c0.8,0,1.2,0.6,1.2,1.8v0.1c0.2-0.6,0.6-1.1,1-1.5C77.7,140.1,78.2,139.9,78.8,139.9L78.8,139.9z M78,146.9c0.7,0,1.2-0.3,1.5-0.9
		c0.3-0.6,0.5-1.4,0.5-2.6c0-0.8-0.1-1.5-0.3-2c-0.2-0.5-0.6-0.8-1.2-0.8c-0.5,0-0.9,0.2-1.2,0.5c-0.3,0.3-0.6,0.8-0.8,1.4
		c-0.2,0.6-0.3,1.2-0.3,1.9c0,0.8,0.1,1.4,0.4,1.8C76.9,146.6,77.4,146.9,78,146.9L78,146.9z M88.3,145.5c0.1,0,0.2,0.2,0.2,0.3
		c0,0.1,0,0.2-0.1,0.4c-0.2,0.4-0.5,0.7-0.9,1c-0.5,0.2-1,0.3-1.6,0.3c-1,0-1.9-0.3-2.5-1c-0.6-0.7-0.9-1.6-0.9-2.8
		c0-1.2,0.3-2.1,0.9-2.8c0.6-0.7,1.4-1,2.5-1c0.8,0,1.4,0.2,1.9,0.5c0.5,0.4,0.7,0.9,0.7,1.5c0,0.7-0.3,1.2-0.9,1.6
		c-0.6,0.4-1.4,0.6-2.4,0.6c-0.6,0-1.1,0-1.5-0.1c0.1,1.8,0.9,2.7,2.4,2.7c0.5,0,1-0.1,1.4-0.3C87.9,146.2,88.1,145.9,88.3,145.5
		L88.3,145.5z M85.9,140.4c-0.6,0-1.2,0.3-1.5,0.8c-0.4,0.5-0.6,1.3-0.6,2.3c0.5,0,0.8,0.1,1.1,0.1c0.8,0,1.4-0.1,1.8-0.4
		c0.4-0.3,0.7-0.7,0.7-1.4c0-0.5-0.1-0.9-0.4-1.1C86.6,140.5,86.3,140.4,85.9,140.4L85.9,140.4z M93.4,139.9c0.5,0,0.9,0.1,1.2,0.4
		c0.3,0.3,0.4,0.6,0.4,1.1c0,0.3-0.1,0.6-0.3,0.8c-0.2,0.2-0.4,0.3-0.6,0.3c-0.2,0-0.4,0-0.4-0.1c0.1-0.2,0.2-0.3,0.2-0.4
		c0-0.1,0.1-0.3,0.1-0.5c0-0.6-0.3-0.9-0.8-0.9c-0.4,0-0.8,0.3-1.1,0.8c-0.3,0.5-0.4,1.4-0.4,2.5v0.8c0,0.9,0,1.4,0,1.7
		c0,0.3,0.1,0.6,0.2,0.8c-0.2,0.2-0.4,0.3-0.7,0.3c-0.2,0-0.3-0.1-0.5-0.2c-0.1-0.1-0.2-0.3-0.2-0.5v-5.2c0-0.3,0-0.5-0.1-0.6
		c-0.1-0.1-0.2-0.2-0.3-0.2c-0.2,0-0.3,0.1-0.4,0.2c-0.1-0.2-0.2-0.3-0.2-0.5c0-0.2,0.1-0.4,0.2-0.5c0.2-0.1,0.4-0.2,0.6-0.2
		c0.4,0,0.6,0.1,0.8,0.4c0.2,0.3,0.3,0.6,0.3,1.2v0.1c0.2-0.5,0.4-1,0.7-1.2C92.6,140.1,93,139.9,93.4,139.9L93.4,139.9z
		 M97.3,138.8c-0.2,0-0.4-0.1-0.5-0.2c-0.2-0.2-0.2-0.3-0.2-0.5c0-0.2,0.1-0.4,0.2-0.5c0.2-0.1,0.3-0.2,0.5-0.2
		c0.2,0,0.4,0.1,0.5,0.2c0.1,0.1,0.2,0.3,0.2,0.5c0,0.2-0.1,0.4-0.2,0.5C97.7,138.7,97.5,138.8,97.3,138.8L97.3,138.8z M97.9,145.7
		c0,0.7,0.1,1.2,0.2,1.5c-0.2,0.2-0.4,0.3-0.7,0.3c-0.2,0-0.3-0.1-0.5-0.2c-0.1-0.1-0.2-0.3-0.2-0.5l0-5.2c0-0.7-0.1-1.2-0.2-1.5
		c0.2-0.2,0.4-0.3,0.7-0.3c0.2,0,0.3,0.1,0.5,0.2s0.2,0.3,0.2,0.5L97.9,145.7L97.9,145.7z M105.6,145.5c0.1,0,0.2,0.2,0.2,0.3
		c0,0.1,0,0.2-0.1,0.4c-0.2,0.4-0.5,0.7-0.9,1c-0.5,0.2-1,0.3-1.6,0.3c-1,0-1.9-0.3-2.5-1c-0.6-0.7-0.9-1.6-0.9-2.8
		c0-1.2,0.3-2.1,0.9-2.8c0.6-0.7,1.4-1,2.5-1c0.8,0,1.4,0.2,1.9,0.5c0.5,0.4,0.7,0.9,0.7,1.5c0,0.7-0.3,1.2-0.9,1.6
		c-0.6,0.4-1.4,0.6-2.4,0.6c-0.6,0-1.1,0-1.5-0.1c0.1,1.8,0.9,2.7,2.4,2.7c0.5,0,1-0.1,1.4-0.3C105.2,146.2,105.4,145.9,105.6,145.5
		L105.6,145.5z M103.2,140.4c-0.6,0-1.2,0.3-1.5,0.8c-0.4,0.5-0.6,1.3-0.6,2.3c0.5,0,0.8,0.1,1.1,0.1c0.8,0,1.4-0.1,1.8-0.4
		c0.4-0.3,0.7-0.7,0.7-1.4c0-0.5-0.1-0.9-0.4-1.1C103.9,140.5,103.6,140.4,103.2,140.4L103.2,140.4z M113.6,145.7
		c0,0.7,0.1,1.2,0.2,1.5c-0.2,0.2-0.4,0.3-0.7,0.3c-0.2,0-0.4-0.1-0.5-0.2c-0.1-0.1-0.2-0.3-0.2-0.5V143c0-0.8-0.1-1.4-0.3-1.8
		c-0.2-0.4-0.6-0.6-1.1-0.6c-0.3,0-0.7,0.1-1,0.3c-0.3,0.2-0.6,0.6-0.8,1.1c-0.2,0.5-0.3,1.1-0.3,1.9c0,1.2,0,2,0,2.4
		c0,0.4,0.1,0.7,0.2,0.9c-0.2,0.2-0.4,0.3-0.7,0.3c-0.2,0-0.4-0.1-0.5-0.2c-0.1-0.1-0.2-0.3-0.2-0.5v-5.3c0-0.3,0-0.5-0.1-0.6
		c-0.1-0.1-0.2-0.2-0.3-0.2c-0.2,0-0.3,0.1-0.4,0.2c-0.1-0.2-0.2-0.3-0.2-0.5c0-0.2,0.1-0.4,0.2-0.5c0.2-0.1,0.4-0.2,0.6-0.2
		c0.4,0,0.6,0.1,0.8,0.4c0.2,0.2,0.3,0.6,0.3,1.1v0.3c0.2-0.6,0.5-1,0.9-1.3c0.4-0.3,0.9-0.5,1.5-0.5c1.5,0,2.3,1,2.3,3V145.7
		L113.6,145.7z M118.6,147.5c-1,0-1.9-0.3-2.4-1c-0.6-0.6-0.9-1.6-0.9-2.8c0-1.2,0.3-2.1,0.9-2.8c0.6-0.7,1.4-1,2.5-1
		c0.8,0,1.4,0.2,1.8,0.5c0.4,0.3,0.6,0.8,0.6,1.3c0,0.3-0.1,0.6-0.3,0.8c-0.2,0.2-0.4,0.3-0.7,0.3c-0.3,0-0.5-0.1-0.7-0.3
		c0.3-0.1,0.5-0.4,0.5-0.9c0-0.4-0.1-0.7-0.4-0.9c-0.3-0.2-0.6-0.3-1-0.3c-0.6,0-1.1,0.3-1.5,0.8c-0.4,0.6-0.6,1.3-0.6,2.4
		c0,1.1,0.2,1.9,0.7,2.4c0.4,0.5,1,0.8,1.7,0.8c0.5,0,1-0.1,1.4-0.4c0.4-0.3,0.6-0.6,0.7-1.1c0.1,0,0.2,0.2,0.2,0.4
		c0,0.1,0,0.3-0.1,0.4c-0.2,0.5-0.5,0.9-0.9,1.1C119.8,147.4,119.2,147.5,118.6,147.5L118.6,147.5z M128.2,145.5
		c0.1,0,0.2,0.2,0.2,0.3c0,0.1,0,0.2-0.1,0.4c-0.2,0.4-0.5,0.7-0.9,1c-0.5,0.2-1,0.3-1.6,0.3c-1,0-1.9-0.3-2.5-1
		c-0.6-0.7-0.9-1.6-0.9-2.8c0-1.2,0.3-2.1,0.9-2.8c0.6-0.7,1.4-1,2.5-1c0.8,0,1.4,0.2,1.9,0.5c0.5,0.4,0.7,0.9,0.7,1.5
		c0,0.7-0.3,1.2-0.9,1.6c-0.6,0.4-1.4,0.6-2.4,0.6c-0.6,0-1.1,0-1.5-0.1c0.1,1.8,0.9,2.7,2.4,2.7c0.5,0,1-0.1,1.4-0.3
		C127.8,146.2,128.1,145.9,128.2,145.5L128.2,145.5z M125.8,140.4c-0.6,0-1.2,0.3-1.5,0.8c-0.4,0.5-0.6,1.3-0.6,2.3
		c0.5,0,0.8,0.1,1.1,0.1c0.8,0,1.4-0.1,1.8-0.4c0.4-0.3,0.7-0.7,0.7-1.4c0-0.5-0.1-0.9-0.4-1.1C126.6,140.5,126.3,140.4,125.8,140.4
		L125.8,140.4z M135.4,140.1c0.2,0,0.4,0,0.6,0c0.3,0,0.5,0,0.6,0l0,0.3c0,0.1,0,0.2-0.1,0.2c-0.1,0.1-0.1,0.1-0.2,0.1h-1.5v0.5v4.6
		c0,0.2,0.1,0.4,0.2,0.6c0.1,0.1,0.3,0.2,0.5,0.2c0.1,0,0.3,0,0.4-0.1c0.1-0.1,0.2-0.1,0.3-0.2c0.1,0.1,0.2,0.3,0.2,0.5
		c0,0.2-0.1,0.4-0.3,0.5c-0.2,0.1-0.5,0.2-0.9,0.2c-0.4,0-0.8-0.1-1.1-0.4c-0.3-0.3-0.4-0.7-0.4-1.2v-5.2h-0.2c-0.4,0-0.7,0-0.9,0
		l0-0.3c0-0.2,0.1-0.3,0.3-0.3h0.7v-1.3c0-0.2,0.1-0.4,0.2-0.5c0.1-0.1,0.3-0.2,0.5-0.2c0.2,0,0.5,0.1,0.7,0.3
		c-0.1,0.3-0.2,0.9-0.2,1.6H135.4L135.4,140.1z M141,147.5c-1,0-1.8-0.3-2.4-1c-0.6-0.7-0.9-1.6-0.9-2.8c0-1.2,0.3-2.1,0.9-2.8
		c0.6-0.7,1.4-1,2.4-1c1,0,1.8,0.3,2.4,1c0.6,0.7,0.9,1.6,0.9,2.8c0,1.2-0.3,2.1-0.9,2.8C142.8,147.2,142,147.5,141,147.5L141,147.5
		z M141,147c0.7,0,1.2-0.3,1.5-0.8c0.4-0.6,0.5-1.4,0.5-2.4c0-1.1-0.2-1.9-0.5-2.4c-0.4-0.6-0.9-0.8-1.5-0.8c-0.7,0-1.2,0.3-1.5,0.8
		c-0.4,0.6-0.5,1.4-0.5,2.4c0,1.1,0.2,1.9,0.5,2.4C139.8,146.7,140.3,147,141,147L141,147z M151.9,147.5c-0.5,0-1.1-0.1-1.6-0.2
		c-0.5-0.2-0.9-0.4-1.2-0.7v-9c0-0.2,0.1-0.3,0.2-0.5c0.1-0.1,0.3-0.2,0.4-0.2c0.3,0,0.5,0.1,0.7,0.3c-0.1,0.3-0.1,0.6-0.1,1
		c0,0.4,0,0.8,0,1.1v2.4c0.2-0.5,0.5-1,0.9-1.3c0.4-0.3,0.9-0.5,1.5-0.5c1.6,0,2.5,1.2,2.5,3.5c0,1.2-0.3,2.2-0.8,3
		C153.8,147.2,153,147.5,151.9,147.5L151.9,147.5z M151.8,147c0.8,0,1.4-0.3,1.7-1c0.3-0.7,0.4-1.5,0.4-2.5c0-1-0.1-1.7-0.4-2.1
		c-0.3-0.5-0.6-0.7-1.1-0.7c-0.5,0-0.9,0.2-1.3,0.5c-0.3,0.3-0.6,0.8-0.7,1.3c-0.2,0.5-0.2,1.1-0.2,1.6v2.4c0.1,0.2,0.4,0.3,0.7,0.4
		C151.2,146.9,151.5,147,151.8,147L151.8,147z M162.1,145.5c0.1,0,0.2,0.2,0.2,0.3c0,0.1,0,0.2-0.1,0.4c-0.2,0.4-0.5,0.7-0.9,1
		c-0.5,0.2-1,0.3-1.6,0.3c-1,0-1.9-0.3-2.5-1c-0.6-0.7-0.9-1.6-0.9-2.8c0-1.2,0.3-2.1,0.9-2.8c0.6-0.7,1.4-1,2.5-1
		c0.8,0,1.4,0.2,1.9,0.5c0.5,0.4,0.7,0.9,0.7,1.5c0,0.7-0.3,1.2-0.9,1.6c-0.6,0.4-1.4,0.6-2.4,0.6c-0.6,0-1.1,0-1.5-0.1
		c0.1,1.8,0.9,2.7,2.4,2.7c0.5,0,1-0.1,1.4-0.3C161.7,146.2,162,145.9,162.1,145.5L162.1,145.5z M159.7,140.4
		c-0.6,0-1.2,0.3-1.5,0.8c-0.4,0.5-0.6,1.3-0.6,2.3c0.5,0,0.8,0.1,1.1,0.1c0.8,0,1.4-0.1,1.8-0.4c0.4-0.3,0.7-0.7,0.7-1.4
		c0-0.5-0.1-0.9-0.4-1.1C160.5,140.5,160.1,140.4,159.7,140.4L159.7,140.4z M165.5,147.5c-0.4,0-0.8-0.1-1-0.4
		c-0.2-0.3-0.4-0.7-0.4-1.2v-8.3c0-0.2,0.1-0.4,0.2-0.5c0.1-0.1,0.3-0.2,0.5-0.2c0.2,0,0.5,0.1,0.7,0.3c-0.1,0.2-0.1,0.6-0.1,1
		c0,0.4,0,1,0,1.8v5.9c0,0.2,0,0.4,0.1,0.6c0.1,0.1,0.2,0.2,0.4,0.2c0.1,0,0.2,0,0.3-0.1c0.1-0.1,0.2-0.1,0.2-0.2
		c0.1,0.1,0.2,0.3,0.2,0.4c0,0.2-0.1,0.4-0.3,0.5C166.1,147.4,165.8,147.5,165.5,147.5L165.5,147.5z M168.7,138.8
		c-0.2,0-0.4-0.1-0.5-0.2c-0.2-0.2-0.2-0.3-0.2-0.5c0-0.2,0.1-0.4,0.2-0.5c0.2-0.1,0.3-0.2,0.5-0.2c0.2,0,0.4,0.1,0.5,0.2
		c0.1,0.1,0.2,0.3,0.2,0.5c0,0.2-0.1,0.4-0.2,0.5C169.1,138.7,168.9,138.8,168.7,138.8L168.7,138.8z M169.3,145.7
		c0,0.7,0.1,1.2,0.2,1.5c-0.2,0.2-0.4,0.3-0.7,0.3c-0.2,0-0.3-0.1-0.5-0.2c-0.1-0.1-0.2-0.3-0.2-0.5l0-5.2c0-0.7-0.1-1.2-0.2-1.5
		c0.2-0.2,0.4-0.3,0.7-0.3c0.2,0,0.3,0.1,0.5,0.2c0.1,0.1,0.2,0.3,0.2,0.5L169.3,145.7L169.3,145.7z M177,145.5
		c0.1,0,0.2,0.2,0.2,0.3c0,0.1,0,0.2-0.1,0.4c-0.2,0.4-0.5,0.7-0.9,1c-0.5,0.2-1,0.3-1.6,0.3c-1,0-1.9-0.3-2.5-1
		c-0.6-0.7-0.9-1.6-0.9-2.8c0-1.2,0.3-2.1,0.9-2.8c0.6-0.7,1.4-1,2.5-1c0.8,0,1.4,0.2,1.9,0.5c0.5,0.4,0.7,0.9,0.7,1.5
		c0,0.7-0.3,1.2-0.9,1.6c-0.6,0.4-1.4,0.6-2.4,0.6c-0.6,0-1.1,0-1.5-0.1c0.1,1.8,0.9,2.7,2.4,2.7c0.5,0,1-0.1,1.4-0.3
		C176.6,146.2,176.8,145.9,177,145.5L177,145.5z M174.6,140.4c-0.6,0-1.2,0.3-1.5,0.8c-0.4,0.5-0.6,1.3-0.6,2.3
		c0.5,0,0.8,0.1,1.1,0.1c0.8,0,1.4-0.1,1.8-0.4s0.7-0.7,0.7-1.4c0-0.5-0.1-0.9-0.4-1.1C175.3,140.5,175,140.4,174.6,140.4
		L174.6,140.4z M183.9,140c0.4,0,0.7,0.2,0.7,0.5c0,0.2,0,0.4-0.1,0.6l-2.4,6.1c-0.3,0.1-0.5,0.2-0.8,0.2c-0.4,0-0.6-0.1-0.7-0.4
		l-2.3-6.1c-0.1-0.3-0.2-0.5-0.3-0.7c0.2-0.2,0.4-0.3,0.7-0.3c0.2,0,0.3,0,0.4,0.1c0.1,0.1,0.2,0.2,0.2,0.3l2.1,6.3l1.9-5.8
		c0-0.2,0.1-0.4,0.1-0.5c0-0.2,0-0.3-0.1-0.3C183.5,140.1,183.7,140,183.9,140L183.9,140z M191.2,145.5c0.1,0,0.2,0.2,0.2,0.3
		c0,0.1,0,0.2-0.1,0.4c-0.2,0.4-0.5,0.7-0.9,1c-0.5,0.2-1,0.3-1.6,0.3c-1,0-1.9-0.3-2.5-1c-0.6-0.7-0.9-1.6-0.9-2.8
		c0-1.2,0.3-2.1,0.9-2.8c0.6-0.7,1.4-1,2.5-1c0.8,0,1.4,0.2,1.9,0.5c0.5,0.4,0.7,0.9,0.7,1.5c0,0.7-0.3,1.2-0.9,1.6
		c-0.6,0.4-1.4,0.6-2.4,0.6c-0.6,0-1.1,0-1.5-0.1c0.1,1.8,0.9,2.7,2.4,2.7c0.5,0,1-0.1,1.4-0.3C190.8,146.2,191.1,145.9,191.2,145.5
		L191.2,145.5z M188.8,140.4c-0.6,0-1.2,0.3-1.5,0.8c-0.4,0.5-0.6,1.3-0.6,2.3c0.5,0,0.8,0.1,1.1,0.1c0.8,0,1.4-0.1,1.8-0.4
		c0.4-0.3,0.7-0.7,0.7-1.4c0-0.5-0.1-0.9-0.4-1.1C189.6,140.5,189.2,140.4,188.8,140.4z"/>
	<path class="st0" d="M121,128.5c5.1-0.1,5,4.8,1.6,4.1c-1.7-0.4-2.8-2.4-4.8-1.3c-0.2-1.4,1.7-1.4,2.5-0.9
		c-0.7-0.2-0.5-1.5-2.7-0.8l-2.8,1.1c-0.2,0.1-0.1,0.1-0.2,0.2c0.8,1,1.1,0.2,2,0.3c-0.2,1.9-2.7-0.2-2.7-0.2
		c-1.4,0.8-3.7,0.5-4.5-0.3c-1.1-1.1-0.4-4,2.1-3.1c0.9,0.3,1.4,1.2,0.4,1.7c-0.5-0.1-0.2-0.7-0.5-1.1c-0.4-0.7-2.5-0.1-1.6,1.8
		c0.7,1.4,2.7,1.4,4,0.5c0.1-2.9,2.8-2.7,4.2-2.1C120,129,118.7,128.5,121,128.5L121,128.5z M125.5,133.5c0,0.6,0.1,1.3,0.5,1.8
		c0.4-0.5,0.4-1.1,0.5-1.8l0.8-0.1l-1.3-1.6l-1.3,1.6L125.5,133.5L125.5,133.5z M124.4,128.1c1.2,0.5,1.2,1.8,1.5,2.6
		c0,0,0.1,0.1,0.1,0.1c0,0,0,0.1,0.1,0.1l0.2-0.4c0-0.1,0-0.2,0.1-0.3c0-0.2,0-0.4,0.1-0.5c0.1-0.4,0.2-0.6,0.4-1
		c0.7-1,1.1-0.3,1.8-0.9c-0.5-0.6-0.4-0.5-1.3-0.7c-0.2-1.4-0.6-1.7-1.3-2.4c-0.8,0.5-1.2,1.1-1.2,2.5c-0.8,0-0.9,0.1-1.4,0.6
		c0.3,0.4,0-0.1,0.5,0.1C124,127.9,124.3,128,124.4,128.1L124.4,128.1z M126.4,128c0.4-0.7,0.3-1.4-0.1-2h-0.3
		c-0.7,0.7-0.9,1.4-0.2,2l0.3-0.4L126.4,128L126.4,128z M114.5,130.2l3.8-1.4C115.9,127.8,114.5,128.4,114.5,130.2L114.5,130.2z
		 M121,129.5l0.7,1.1c0.6,2.1,3.9,1.9,2.7-0.6c-1.4-1.3-3.1-1.3-4.9-1l1.3,1.2L121,129.5L121,129.5z M130.8,128.6
		c-5.1-0.1-5,4.8-1.6,4.1c1.7-0.4,2.8-2.4,4.8-1.3c0.2-1.4-1.7-1.4-2.5-0.9c0.7-0.2,0.5-1.5,2.7-0.8l2.8,1.1
		c0.2,0.1,0.1,0.1,0.2,0.2c-0.8,1-1.1,0.2-2,0.3c0.2,1.9,2.7-0.2,2.7-0.2c1.4,0.8,3.7,0.5,4.5-0.3c1.1-1.1,0.4-4-2.1-3.1
		c-0.9,0.3-1.4,1.2-0.4,1.7c0.5-0.1,0.2-0.7,0.5-1.1c0.4-0.7,2.5-0.1,1.6,1.8c-0.7,1.4-2.7,1.4-4,0.5c-0.1-2.9-2.8-2.7-4.2-2.1
		C131.9,129.2,133.2,128.6,130.8,128.6L130.8,128.6z M137.3,130.3l-3.8-1.4C135.9,128,137.3,128.6,137.3,130.3L137.3,130.3z
		 M130.8,129.6l-0.7,1.1c-0.6,2.1-3.9,1.9-2.7-0.6c1.4-1.3,3.1-1.3,4.9-1l-1.3,1.2L130.8,129.6z"/>
	<line class="st1" x1="58.1" y1="129.1" x2="107.6" y2="129.1"/>
	<line class="st1" x1="144.1" y1="129.1" x2="193.6" y2="129.1"/>
	<path class="st0" d="M113.4,21.3h-0.7v14h22.2c-0.3,0.2-2.3,1-3.1,1.4c-1.3,0.7-2.9,1.6-4,2.7c-0.6,0.5-1.7,1.9-2,1.9
		c-0.4,0-1.4-1.3-1.8-1.6c-3.9-3-6.4-3.4-11.3-2.3v11.4c0.9-0.2,1.2-1,4.1-1c1.5,0,3.9,0.9,4.9,1.4c1.1,0.5,2,1,3,1.7
		c1.7,1.4,1.3,0.6,4-1.2c1-0.6,1.9-1.1,3-1.6c1.8-0.7,4.6-1.3,6.6-1.3c0.4,0,0.8,0.1,0.8-0.4V33.3c0-0.6-1.2-0.4-2.4-0.4h-19.8
		l2.6-1.2c0.5-0.2,0.7-0.4,1.2-0.6c1.3-0.7,3.3-2.1,4.2-3.2c1.7-2.1,0.5-0.5,4.6,1.9c3.2,1.9,5.6,1.8,8.9,1.1
		c0.4-0.1,0.7-0.1,0.7-0.5V19.7c0-0.9-1.2,0.7-3.9,0.7c-2.2,0-6.3-1.8-8.3-3.3c-1.7-1.3-1.1-0.7-3.6,1.1c-0.8,0.6-1.8,1.1-2.8,1.5
		C118.7,20.5,115.9,21.3,113.4,21.3z"/>
	<path class="st0" d="M98.5,27h0.4c-0.2,0.1,0.2,0.1-0.2,0.1C98.5,27,98.6,27,98.5,27z M98.5,27c-0.1-0.1,0.2-0.1-0.3-0.1
		C98.3,27,98,27,98.5,27L98.5,27z M99.7,24.9L99.5,25L99.7,24.9z M99.7,24.9c0.2-0.2,0.1-0.1,0.4-0.2C99.9,25,100.2,24.9,99.7,24.9
		L99.7,24.9z M99.3,24.6L99.3,24.6L99.3,24.6z M99.4,24.5l-0.1,0.1L99.4,24.5L99.4,24.5z M98.4,25.1c-2.2,0-1.3,0.1-2.3-0.5
		c0.1,1.3,1.7,2,2,2.3c-1-0.1-2.9-1.8-1.9-3.2c0.4-0.6,1.2-0.9,2-0.4c0.6,0.4,0.7,1.4-0.1,1.6V25C98.6,25,98.2,25,98.4,25.1
		L98.4,25.1z M104.4,23.7h0.5v0.1h-0.5V23.7L104.4,23.7z M100.7,22L100.7,22L100.7,22z M105.1,21.1 M105.1,21.1l-0.1-0.1L105.1,21.1
		L105.1,21.1z M104.9,21l-0.2-0.1L104.9,21L104.9,21z M104.2,22.4c-0.7-0.2-0.5-1.6,0.2-1.6c0.4,0,0.2,0,0.3,0.1
		C103.8,21,103.8,21.8,104.2,22.4L104.2,22.4z M98.4,19.9c0,0.5,0,0.2-0.1,0.3C98.3,19.8,98.3,20.1,98.4,19.9L98.4,19.9z M98.5,19.7
		l-0.1,0.2L98.5,19.7z M98.5,19.7L98.5,19.7L98.5,19.7z M102.4,19.4L102.4,19.4L102.4,19.4z M98.7,19.4L98.7,19.4L98.7,19.4z
		 M98.8,19.3l-0.1,0.1L98.8,19.3L98.8,19.3z M103.3,19.2L103.3,19.2L103.3,19.2z M98.9,19.2l-0.1,0.1L98.9,19.2L98.9,19.2z M99,19.1
		l-0.1,0.1L99,19.1z M99,19.1L99,19.1L99,19.1z M99.2,18.9L99.2,18.9C99.3,18.9,99.2,18.9,99.2,18.9L99.2,18.9z M102.6,16.9
		L102.6,16.9C102.6,17,102.6,16.9,102.6,16.9L102.6,16.9z M102.5,16.7 M102.5,16.7l-0.3-0.4c-0.9-1.2-2.5-1.2-3-0.2
		c-0.3,0.7,0,1.5,0.6,1.7c0.7,0.3,1.6-0.1,1.1-1c-0.6,0.1-0.1,0-0.4,0.2l-0.2,0.2c-0.1-0.1-0.2-0.2-0.3-0.3c0.3-1.2,1.5-0.9,2.3,0.2
		l0.3,0.4c-0.7,1.1-0.5,0.8-0.2,1.9c-1.9-1.3-1.4-0.5-2.9-0.8c0,0-0.1,0-0.1,0c-0.9-0.1-1.8,0.7-2.3,1.2c-0.4,0.4-0.7,1-0.7,1.9
		l0.3,0.3c0.6,0,0.8-0.1,1.1-0.5l0.3-0.9c0,0,0.1-0.1,0.1-0.1l0.1-0.1c0,0.8,0.1,1.5,0.6,1.9c0.7,0.5,1.3,0.2,1.9-0.1
		c-0.2,0.7-0.8,2.1-1.3,2.5c0-0.6,0.3-0.7-0.1-1.3c-0.2-0.3-0.5-0.6-0.9-0.7c-1.8-0.9-3.7,1-3.3,2.8c0.2,1.1,0.9,1.3,1.4,2
		c1.2,0.3,1.8,1.6,5.3,0.8c0,1.2,0.4,0.6,1,2.6c0,0,0,0.1,0.1,0.2c0.1,0.2,0.1,0.1,0.1,0.2c0.2-0.8,0.4-1.9-0.1-2.7
		c-0.3-0.5-0.3-0.2-0.6-0.6c1.2-0.3,2.4-2.1,2.7-3.6c0-0.1,0,0,0-0.2c0.1-0.2,0-0.1,0.1-0.2c0.2-0.3,0.3-0.1,0.3-0.8
		c-0.6,0.1-0.4,0-0.9,0c-0.7,0-0.1,0.2-0.8,0.3v0.2c0.4,0.1,0.1,0.1,0.5,0.2c-0.2,0.5,0,0.6-0.5,1.6c-1,1.9-2.8,1.9-4.7,1.9v-0.1
		c1.5,0,2.3,0.1,3.5-0.7c0.5-0.3,0.5-0.3,0.7-0.8c-0.3,0.1-0.8,0.7-2.2,0.1c-1-0.4-1.3-0.3-2.1,0.2c0-0.3,0-0.3-0.4-0.6l-0.2-0.1
		c0.7-0.2,0.9,0,1.3,0.1c1.4,0.2,3.8-0.2,3.9-1.9c-1-0.1-1.2-0.3-1.9,0.3c-0.4,0.3-1.1,0.9-1.5,1.1l1.4-1.3c0.7-0.8,0.6-1.2,0.2-1.8
		c-0.4,0-0.4,0-0.8,0.1c0.3-0.7,0.1-1.5-0.6-1.8c-0.3-0.1-0.7,0-1,0.3c-0.3,0.4-0.1,0.8,0.1,1.2c0.3,0,0.2,0,0.5-0.1
		c0.5-0.2-0.1-0.1,0.4-0.3c0,0.3-0.1,0.3-0.1,0.5c-2.3,0.5-1-3.3,1.1-1.4c0.8,0.7,0.6,1.2,1.1,2.1c0.4,0.7,1.6,1.1,1.9,0.2
		c0.3,0.2,0.7,0.5,1.2,0.2l0.5-0.5c0.7-0.7,1.1-1,1.5-2.4c0.3-1.3,0.1-3-1-3.5c-0.7-0.3-0.8-0.1-1.3,0v0.2c0.6,0,0.9,0.3,1.1,0.7
		c0.2,0.6-0.1,1.1,0.1,1.7c0.1,0.6,0.7,2.3-0.3,3c0-0.4,0.1-0.4,0-0.8c-0.1-0.7-0.5-0.9-1-1.4c-0.3-0.3-0.4-0.3-0.7-0.5
		c-0.3-0.3-0.8-1.4,0-1.5c0.5-0.1,0.6,0.1,0.6,0.5c0,0.2-0.5,0.4,0.5,0.4c0.9-1.4-0.3-2-1.1-1.8c-1.2,0.3-1,1.4-0.9,2.6
		c-0.5-0.3-0.8-0.7-0.8-1.5c0.3,0.3,0.4,0.7,0.4,1.1c0.3-0.4-0.2-0.9,0.5-2.4c0.3-0.7,0.8-1.4,0.5-2.4c-0.9-3.3-3.8-0.5-2,0
		c0-0.3-0.1-0.3,0.1-0.5c0.2-0.2,1.1-0.3,0.3,1C101.7,15.8,102.4,16,102.5,16.7z"/>
	<path class="st0" d="M149.3,51.4L149.3,51.4L149.3,51.4z M149.1,51.1L149.1,51.1C149.1,51.1,149,51.1,149.1,51.1L149.1,51.1z
		 M152.4,49.2L152.4,49.2C152.4,49.2,152.4,49.2,152.4,49.2L152.4,49.2z M152.7,49.1L152.7,49.1L152.7,49.1z M152.8,49l-0.1,0.1
		L152.8,49L152.8,49z M152.9,48.8l-0.1,0.1L152.9,48.8L152.9,48.8z M148.4,49L148.4,49L148.4,49z M153,48.7l-0.1,0.1L153,48.7z
		 M153,48.7L153,48.7L153,48.7z M149.4,48.7L149.4,48.7L149.4,48.7z M153.3,48.4L153.3,48.4L153.3,48.4z M153.4,48.2l-0.1,0.2
		L153.4,48.2L153.4,48.2z M153.5,47.9c0,0.5,0,0.2-0.1,0.3C153.4,47.7,153.4,48,153.5,47.9L153.5,47.9z M147,47.2l-0.2-0.1L147,47.2
		L147,47.2z M146.8,47.1l-0.1-0.1L146.8,47.1L146.8,47.1z M146.7,47L146.7,47L146.7,47z M151,46.2L151,46.2L151,46.2z M147,47.2
		c0.9-0.1,0.9-0.9,0.5-1.5c0.3,0.1,0.3,0.1,0.4,0.4C148.1,46.7,147.6,47.6,147,47.2L147,47.2z M146.8,44.3h0.5v0.1h-0.5V44.3
		L146.8,44.3z M152.4,43.6l-0.1,0.1L152.4,43.6z M152.4,43.6L152.4,43.6L152.4,43.6z M152.1,43.2l0.2-0.1L152.1,43.2L152.1,43.2z
		 M153.4,43c2.2,0,1.3-0.1,2.3,0.5c-0.1-1.3-1.7-2-2-2.3c1.1,0.1,2.8,1.9,1.9,3.2c-0.4,0.6-1.2,0.9-1.9,0.4
		c-0.6-0.3-0.7-1.4,0.1-1.6v-0.2C153.1,43.1,153.5,43.1,153.4,43L153.4,43z M153.6,41.3c-0.1-0.1,0.2-0.1-0.3-0.1
		C153.4,41.3,153.1,41.3,153.6,41.3L153.6,41.3z M153.3,41.2c-0.6,0-0.2,0-0.3-0.1C153.5,41.1,153.1,41.1,153.3,41.2L153.3,41.2z
		 M148.6,42.5c0.6-0.2,0.8-0.5,2.1,0c1,0.4,1.3,0.3,2.1-0.2c0,0.5,0.1,0.4,0.5,0.8l-0.9,0c0,0,0,0-0.1,0c-0.3-0.1,0.1,0-0.2-0.1
		c-1.4-0.3-3.9,0.2-4,1.9c1.3,0.1,1.2,0.3,2.1-0.5c0.5-0.4,1.2-1.1,1.8-1.1c-0.4,0.4-1.8,1.2-2.3,2.3c-0.2,0.5,0,0.7,0.2,1.1
		c0.4,0,0.4,0,0.8-0.1c-0.3,0.7-0.1,1.5,0.6,1.8c0.4,0.2,1.6-0.1,0.9-1.4c-0.8,0-0.5,0.2-0.9,0.3c0-0.3,0.1-0.3,0.1-0.5
		c2.3-0.5,1,3.3-1.1,1.4c-0.8-0.7-0.6-1.2-1.1-2.1c-0.4-0.7-1.6-1.1-1.9-0.2c-0.3-0.2-0.7-0.5-1.2-0.2c-0.2,0.1-0.2,0.2-0.4,0.4
		l-0.2,0.2c-0.7,0.7-1.1,1.1-1.4,2.3c-0.2,1-0.2,1.9,0.2,2.7c0.8,1.5,1.8,0.9,2.1,0.8v-0.2c-1.6,0-1-1.8-1.2-2.4
		c-0.1-0.7-0.3-0.7-0.3-1.6c0-0.6,0.2-1.1,0.5-1.4c-0.3,1.1,0.5,1.8,1.2,2.4c0.4,0.3,0.8,0.5,0.9,1.1c0.1,0.8-0.4,1-1,0.7
		c-0.3-0.6,0-0.5,0-0.6c0,0,0.4-0.2-0.5-0.2c-0.9,1.4,0.3,2,1.1,1.8c1.2-0.3,1-1.4,0.9-2.6c0.5,0.3,0.7,0.7,0.8,1.5
		c-0.3-0.3-0.3-0.6-0.5-1c0,0,0,0,0-0.1c0,1.4,0,1.5-0.5,2.5c-0.4,0.8-0.7,1.3-0.4,2.4c1,3.1,3.7,0.3,2-0.1c0,1.1-1.3,0.8-0.5-0.5
		c0.2-0.3,0.4-0.7,0.4-1c0-0.5-0.3-0.7-0.3-1.2c0.3,0.4,0.6,0.9,1.4,1.2c1.9,0.6,2.8-1.7,1.3-2.4c-0.8-0.3-1.6,0.2-1.1,1
		c0.6-0.1,0.1,0,0.5-0.3c0.2-0.2,0,0,0.2-0.1c0.1,0.1,0.2,0.2,0.3,0.3c-0.2,0.7-0.6,1-1.4,0.6c-0.7-0.3-0.8-0.8-1.2-1.2
		c0.2-0.3,0.4-0.4,0.4-0.9c0.1-0.6-0.1-0.7-0.2-1.1c1.9,1.3,1.5,0.5,2.8,0.8c0.4,0.1,0.7,0,1-0.1c1-0.4,2.1-1.6,2.1-2.9l-0.3-0.3
		c-0.6,0-0.8,0.1-1.1,0.5c-0.1,0.2-0.1,0.3-0.2,0.6c0,0.2,0,0.2-0.1,0.3l-0.1,0.3c0-0.8-0.1-1.5-0.6-1.9c-0.7-0.5-1.3-0.2-1.9,0.1
		c0.1-0.6,0.9-2.2,1.3-2.5c0,0.6-0.3,0.7,0.1,1.3c0.2,0.3,0.5,0.6,0.9,0.7c1.8,0.9,3.7-1,3.3-2.8c-0.2-1.1-0.9-1.3-1.4-2
		c-1.2-0.3-1.8-1.6-5.3-0.8c0-1.1-0.6-1.2-0.9-2.2l-0.2-0.6c-0.1-0.2-0.1-0.1-0.1-0.2c-0.1,0.6-0.3,1.1-0.2,1.9
		c0.2,1.3,0.5,1,0.8,1.4c-0.8,0.2-1.7,1.2-2,1.8c-0.7,1.3-0.5,1.4-0.7,1.9c-0.2,0.5-0.4,0.2-0.4,1c0.6-0.1,0.3-0.1,0.9,0
		c0.7,0,0.1-0.2,0.8-0.3v-0.2c-0.4-0.1-0.1-0.1-0.5-0.2c0.3-0.6,0.1-1.7,1.6-2.8c1-0.8,2-0.7,3.8-0.7v0.1c-1.5,0-2.4-0.1-3.5,0.7
		C148.9,42,148.7,42.1,148.6,42.5z"/>
	<path class="st0" d="M104.3,52.1l0.1,0.2L104.3,52.1L104.3,52.1z M100,50.9l-0.1-0.1L100,50.9L100,50.9z M99.9,50.8L99.9,50.8
		L99.9,50.8z M99.7,50.5L99.7,50.5C99.7,50.5,99.7,50.5,99.7,50.5C99.7,50.5,99.7,50.5,99.7,50.5L99.7,50.5z M99.6,50.2L99.6,50.2
		C99.6,50.3,99.5,50.3,99.6,50.2L99.6,50.2z M99.4,50C99.4,50.3,99.5,50,99.4,50C99.6,50,99.4,49.8,99.4,50L99.4,50z M102.9,49.8
		L102.9,49.8L102.9,49.8z M106.2,47.4l-0.1,0.1L106.2,47.4L106.2,47.4z M106.3,47.3l-0.1,0.1L106.3,47.3z M106.3,47.3l0.1-0.2
		L106.3,47.3L106.3,47.3z M101.2,46h0.6c-0.2,0.3-0.8,0.4-1.2,0.3c-0.2-0.1-0.3-0.2-0.4-0.3l0.8,0.1C101.2,46.1,101,46.1,101.2,46
		L101.2,46z M103.9,45.8c-0.1,0.5-0.2,0.5,0.1,0.8c0.3,0.3,0.5,0.3,1,0.3c-0.6,0.4-1.2,0-1.3-0.6C103.6,46,103.6,46,103.9,45.8
		L103.9,45.8z M101.2,46l-0.2-0.1L101.2,46L101.2,46z M101,45.9l-0.2-0.1L101,45.9L101,45.9z M104,45.7l-0.1,0.1L104,45.7z
		 M104,45.7l0.2-0.1L104,45.7L104,45.7z M100.7,45.8c-1.4-0.4-1.4-2.6-3.5-3c-2.3-0.4-2.4,2.2-1,2c0.6-0.1,0.3-0.1,0.2-0.3
		c0,0,0,0,0-0.1l-0.1-0.1c0,0,0-0.1,0-0.1c0-0.2,0-0.3,0-0.4c1.2-0.3,0.7,1.2,2.1,1.6c0.4,0.1,0.7,0.1,1.1,0.1v0.1
		c-1,0-1.3,0-1.9,0.4c-0.4,0.3-0.8,0.9-0.7,1.5c0.2,1.2,1.6,1.3,2.2,0.7c0.3-0.3,0.2-0.5,0.2-1.1c-0.2-0.1-0.4-0.4-0.7-0.3
		c-0.5,0.2-0.1,0.1,0.1,0.6c-0.2,0.2-0.2,0.2-0.6,0.2c-0.7-1.4,0.7-1.8,1.9-1.9c0.3,1.1,1.1,1.1,1.8,1.1c-0.6,0.4-1.1,0.3-1.8,1
		l-0.5,0.8c0,0,0,0,0,0.1c-0.2,0.3-0.1-0.1-0.3,0.4C99,49.5,99,49.6,99,49.9c-0.3,1.4,0.6,3.9,2,3.3c0.6-1.2-0.8-1.5-1-2.3
		c0.5,0.3,1,0.9,1.9,0.6c0.7-0.2,1-0.8,1-1.7c0.4,0.4,1.3,1.6,1.4,2.3c-0.5-0.4-0.9-0.8-1.8-0.4c-1.4,0.6-1.8,2.3-1.1,3.4
		c1.5,2.2,3.8,1.3,5.1,0l0.6-0.6c0.6-0.6,1.2-1.8,1.3-2.6c0.6,0.4,0.1,0.3,1.6,0.3c1.1,0,1.1,0.2,1.6,0.3c-0.5-0.7-2-1.8-3.1-1.2
		c0-1.3-0.3-2.3-0.9-3.1c-0.6-0.8-0.6-0.7-1.1-1.2c-0.4-0.3,0-0.6-0.7-0.8c0,0.5-0.2,0.6-0.5,0.9c0.1,0.3,0.1,0.3,0.1,0.8
		c0.4,0,0.4-0.1,0.6-0.2c0.1,0.3,0,0.1,0.3,0.4c1,0.9,1.4,2.3,1.1,3.6c-0.1,0.4-0.1,0.4-0.3,0.6c0,0.4,0,0.3-0.2,0.5l-0.1,0.2
		l-0.1,0.2l-0.1,0.1l-0.1,0.2l-0.1,0.1l-0.1,0.1l-0.1,0.2l-0.1,0.1l-0.1,0.1l-0.1,0.1c-0.2,0.3-0.1,0.2-0.4,0.3
		c-0.2,0.4-0.7,0.6-1.2,0.7c-0.4,0.1-0.8,0.2-1.2,0.1l-0.4-0.2c-1.6-0.4-1-3.1,0.6-2.7c0.5,0.1,0.5,0.6,0.6,0.7
		c0.1,0.3-0.1,0.2,0.2,0.3l0.1-0.1l0.1-0.1c0.1-0.7,0.3,0.1,0.3-1.2c0.1,0.2,0.1,0.2,0.3,0.3c0.1-0.4,0.7-1,1-2
		c0.2-0.9,0.1-2-0.5-2.4c-0.6,0.2-0.9,0.9-0.8,1.7c0.1,0.9,0.3,1.3,0.3,2.3c-0.3-0.5-0.2-3-1.5-3.4c-0.4-0.1-0.7,0.1-0.8,0.7
		c-0.4-0.3-0.4-0.6-1.1-0.6c-1.3,0-1.4,1.6-0.4,1.7c0.4,0.1,0.9-0.1,0.4-0.9c0.5,0,0.2,0,0.5,0.2c0,1.2-1.3,1-1.6,0.4
		c-0.4-0.7,0.1-1.5,0.8-1.8c1.4-0.6,2.8,0.6,3.6-0.4c0.2-0.3,0.4-0.7,0.2-1.1c0.5-0.4,0.8-0.6,0.6-1.3l-0.1-0.3c0-0.1,0-0.2-0.1-0.6
		c-1-3-4.9-3.9-5.3-2.1c-0.1,0.5,0,0.4,0.2,0.6c0.4-1.5,2.1,0,2.6,0.2c1.1,0.4,1.7,0.3,2.4,1.7c-0.5-0.1-0.9-0.8-2.6-0.1
		c-1,0.4-2.2,0.6-1.9-0.8c0.9-0.2,0.4,0,1,0.2c0.2-0.3,0.3-0.2,0.2-0.6c-0.3-1.2-2.5-0.6-2,0.9C100.1,45.3,100.4,45.4,100.7,45.8z"
		/>
	<path class="st0" d="M126.8,64.9h0.6V65h-0.6V64.9L126.8,64.9z M126.4,64.8L126.4,64.8C126.4,64.8,126.4,64.8,126.4,64.8
		L126.4,64.8z M126.1,64.7L126.1,64.7C126.1,64.7,126.1,64.7,126.1,64.7L126.1,64.7z M125.9,64.6 M125.9,64.6L125.9,64.6L125.9,64.6
		z M122.5,63l-0.1,0.2L122.5,63L122.5,63z M127.4,62.9L127.4,62.9L127.4,62.9z M122.5,63L122.5,63L122.5,63z M123.4,62.3L123.4,62.3
		L123.4,62.3z M123.5,62.2l-0.1,0.1L123.5,62.2L123.5,62.2z M123.8,61.5l-0.1,0.1L123.8,61.5L123.8,61.5z M131,61.4L131,61.4
		L131,61.4z M123.5,62.2c0.1-0.4,0.2-0.4,0.4-0.5l-0.1-0.2l0.4-0.5C124.2,61.6,124,62.1,123.5,62.2L123.5,62.2z M131,61.4
		c-0.3-0.1-0.2,0-0.3-0.2C131,61.2,130.9,61.1,131,61.4L131,61.4z M124.2,60.8L124.2,60.8C124.3,60.8,124.2,60.8,124.2,60.8
		L124.2,60.8z M125.1,59.1c0.3,0.2,0.4,0.3,0.8,0.2c0.4-0.1,0.5-0.4,0.7-0.6c0,0.4-0.3,0.7-0.6,0.8
		C125.6,59.7,125.2,59.6,125.1,59.1z M125.1,59.1c0-0.4,0-0.2-0.1-0.3C125,59.3,125,58.9,125.1,59.1L125.1,59.1z M125,58.6
		C125,58.9,125.1,58.6,125,58.6C125.2,58.5,125,58.3,125,58.6L125,58.6z M127.6,57.8C127.6,57.5,127.8,57.8,127.6,57.8
		C127.7,57.8,127.6,58.1,127.6,57.8L127.6,57.8z M127.5,57.5 M127.5,57.5l-0.1-0.1L127.5,57.5L127.5,57.5z M127.4,57.4
		c-0.5-0.3-0.3-0.3-1-0.1c0.1,0.4,0.1,0.2,0.2,0.4c0.6,1.1-0.1,0.2,1,1c0.1-0.6,0.2-0.8,1-1c1.9-0.4,3.7,1,4,1.8
		c0.2,0.2,0.1,0,0.2,0.3l0.1,0.2l0.1,0.2l0.1,0.2l0.1,0.2c0.1,0.1,0.1-0.2,0.1,0.3c0,0,0,0,0,0.1c0,0,0,0.1,0,0.1c0,0.1,0,0.1,0,0.3
		c0.4,0.7,0.2,3.6-1.7,3.5c-1.4,0-1.8-1.8-0.9-2.3c0.5-0.3,0.7,0,1.2,0.1v-0.3c-0.1-0.1-0.1-0.1-0.2-0.2c-0.2-0.3,0,0-0.1-0.3
		c-0.5-1.1-0.2-0.9-1.1-2.1c-0.5-0.7-1.7-1.6-2.8-1.1c0.2,0.5,0.1,1,1.2,1.5c0.6,0.3,1.5,0.4,1.8,0.9c-0.3-0.1-0.6-0.2-1-0.4
		c-0.7-0.2-1.9-0.5-2.4,0.1c-0.4,0.5,0.1,0.6,0.2,1c-1.2,0-1.3,1.4-0.8,1.9c0.3,0.3,0.4,0.2,0.9,0.2c0.3-0.4,0.9-1.1-0.2-1.1
		l0.6-0.2c1,2-2.6,2.1-1.9-0.5c0.3-1,0.8-1.1,1.2-1.8c0.4-0.7,0.2-1.8-0.8-1.8c0-1.2-0.4-1-1.6-1.4c-0.5,0,0-0.1-0.2,0.2h0.5
		c0,0-0.1,0-0.1,0l-0.5,0.3c-0.6,0.4-0.8,1-0.9,1.6c-0.1,0.6-0.1,0.9-0.4,1.4c-0.8,1.2-2-0.3-0.9-0.5c0.8-0.2-0.2,0.2,0.2,0
		c-0.1-0.2-0.2-0.3-0.3-0.5c-2,0-1.5,2.2-0.1,2.3c0.6,0,0.8-0.2,1.3-0.3c-0.5,0.7-1.5,0.5-2.6,0.7c-1.6,0.2-1.3,0.5-2.2,1.2
		c-0.1,0.6-0.6,1.3,0,1.9c0.6,0.5,1.4,0.4,1.5-0.5c-0.6,0.1-0.8,0.2-0.9-0.5c0.8-0.4,0.7,0,1.6-0.2c0.7-0.2,0.7-0.5,1.2-0.9
		c-0.1,0.5-0.4,1.2-0.1,2c0.4,1.3,2.5,1.2,2.6-0.2c0.1-0.6-0.3-1.2-1.2-1.2c-0.2,0.4-0.3,0.1-0.3,0.6c0.4,0.2,0.1-0.1,0.6,0.1V65
		c-0.4,0.1-0.5,0.2-0.8,0c-0.9-0.6-0.3-1.9,0-2.5c0.5,0,0.6,0.2,1.1-0.1c0.5-0.3,0.4-0.5,0.8-0.7c-0.5,1.9,0.3,1.9,0.6,2.9
		c0.1,0.3,0.3,0.5,0.5,0.7c1,0.8,3,1.4,3.8,0.1c-0.3-1.3-1.4-0.5-2.4-0.5c0.2-0.1,0.5-0.2,0.9-0.5c0.1-0.1,0,0,0.2-0.2
		c0.7-0.7,0.5-1.6-0.2-2.1l-0.4-0.3c0.6,0,0.7-0.1,1.4-0.1c0.5,0,1,0,1.5,0l-0.1,0.1c0,0-0.2,0.1-0.2,0.1c-2,0.8-0.9,3.7,1,3.8
		c3.6,0.2,3.9-4.3,1.7-7.1c-0.2-0.3-0.4-0.4-0.6-0.7c0.4-0.1,0.4-0.1,0.6-0.5c1.2-2.2,1.1-1.4,1.5-2c-0.7,0.2-1.2,0.3-1.7,0.7
		c-0.2,0.1-0.5,0.4-0.7,0.5c-0.2,0.3-0.3,0.5-0.3,0.9c-0.5-0.1-2.3-1.3-4.3-0.6C127.4,57.2,127.5,57.1,127.4,57.4z"/>
	<path class="st0" d="M124.4,10.8l-0.1-0.1L124.4,10.8L124.4,10.8z M124.2,10.7L124.2,10.7L124.2,10.7z M124,10.3
		C124,10.1,124.2,10.3,124,10.3C124.1,10.4,124,10.7,124,10.3L124,10.3z M126.6,9.5L126.6,9.5C126.7,9.5,126.6,9.5,126.6,9.5
		L126.6,9.5z M126.6,9.1c0,0.4,0,0.2,0.1,0.3C126.7,8.8,126.7,9.2,126.6,9.1z M126.6,9.1c-0.9-0.6-1-0.1-1.5,0.3
		C125.2,8.5,126.4,8.2,126.6,9.1L126.6,9.1z M127.4,7.2L127.4,7.2C127.4,7.3,127.4,7.2,127.4,7.2L127.4,7.2z M121,7
		c-0.3-0.1-0.2,0-0.3-0.2C121,6.9,120.9,6.8,121,7L121,7z M120.7,6.8L120.7,6.8L120.7,6.8z M128,6.6l-0.1,0.1L128,6.6L128,6.6z
		 M127.9,6.7l-0.4,0.5c0-0.7,0.3-1.2,0.8-1.3c-0.2,0.4-0.2,0.4-0.5,0.6L127.9,6.7L127.9,6.7z M128.3,5.8L128.3,5.8L128.3,5.8z
		 M129.2,5.2L129.2,5.2L129.2,5.2z M124.4,5.3L124.4,5.3L124.4,5.3z M129.3,5l-0.1,0.2L129.3,5L129.3,5z M125.9,3.6 M125.9,3.6
		L125.9,3.6L125.9,3.6z M125.5,3.3L125.5,3.3C125.6,3.4,125.5,3.4,125.5,3.3L125.5,3.3z M125.2,3.2L125.2,3.2
		C125.2,3.3,125.2,3.2,125.2,3.2L125.2,3.2z M124.2,3.1h0.6v0.1h-0.6V3.1L124.2,3.1z M124.4,10.8c0.5,0.3,0.3,0.3,1,0.1
		c-0.1-0.4-0.1-0.2-0.2-0.4c-0.7-1.1,0.2-0.2-1-1c0,0.3,0,0.1-0.1,0.4c-0.1,0.3-0.2,0.4-0.9,0.6c-1.9,0.4-3.7-1-4-1.8
		c-0.2-0.2-0.1,0-0.2-0.3l-0.1-0.2l-0.1-0.2l-0.1-0.2l-0.1-0.2c-0.1-0.1-0.1,0.2-0.1-0.3c0,0,0-0.1,0-0.1c0,0,0-0.1,0-0.1
		c0-0.1,0-0.1,0-0.3l-0.1-0.4c-0.2-1,0.2-2.6,1-2.8c1.3-1.1,3.1,0.9,1.9,1.9c-0.5,0.5-0.8,0.1-1.3,0v0.3c0.6,0.7,0.4,1.2,1.4,2.6
		c0.5,0.7,1.7,1.6,2.8,1.1c-0.2-0.5-0.1-1-1.2-1.5c-0.6-0.3-1.5-0.4-1.8-0.9c0.6,0.1,2.7,1.2,3.4,0.3c0.4-0.5-0.1-0.6-0.2-1
		c0.4,0,0.6-0.1,0.8-0.3c0.4-0.4,0.5-1.2,0-1.6c-0.3-0.3-0.4-0.2-0.9-0.2c-0.3,0.4-0.9,1.1,0.2,1.1l-0.6,0.2
		c-1.1-2.1,2.8-2.1,1.8,0.5c-0.3,0.8-0.8,1.1-1.2,1.8c-0.4,0.7,0,2,0.8,1.7c0,1.2,0.7,1.5,1.4,1.3l0,0c-0.3,0,0,0-0.1-0.1
		c1.6-0.1,1.4-2.6,1.8-3.2c0.5-0.8,1.7-0.4,1.2,0.4c-0.1,0.2-0.1,0.1-0.3,0.2c0,0-0.1,0-0.1,0c-0.7,0.1,0.3-0.2-0.2,0
		c0.1,0.2,0.2,0.3,0.3,0.5c1.4,0,1.5-1,1.1-1.7c-0.2-0.3-0.6-0.6-1-0.6c-0.6,0-0.8,0.2-1.3,0.3c0.5-0.7,1.5-0.5,2.6-0.7
		c1.6-0.2,1.3-0.5,2.2-1.2c0.2-0.6,0.6-1.3,0-1.9c-0.6-0.5-1.4-0.4-1.5,0.5c0.6-0.1,0.8-0.2,0.9,0.5c-0.8,0.4-0.7,0-1.6,0.2
		c-0.7,0.2-0.7,0.5-1.2,0.9c0.1-0.5,0.4-1.2,0.1-2c-0.7-2-3.6-0.5-2.3,1c0.2,0.3,0.4,0.3,0.9,0.3c0.2-0.4,0.3-0.1,0.3-0.6
		c-0.4-0.2-0.1,0.1-0.6-0.1V3.1c0.4-0.1,0.5-0.2,0.8,0c0.9,0.6,0.3,1.9,0,2.5c-1.6-0.1-1.1,0.3-1.8,0.9c0.5-1.9-0.3-1.9-0.6-2.9
		c-0.5-1.4-3.4-2.3-4.3-0.9c0.3,1.3,1.4,0.5,2.4,0.5c-0.5,0.4-1.3,0.6-1.4,1.4c-0.2,1.1,0.6,1.3,1.1,1.7c-0.6,0-0.7,0.1-1.4,0.1
		c-0.5,0-1,0-1.5,0c0,0,0.1-0.1,0.1,0l0.3-0.1c0.5-0.2,0.7-0.3,1-1c0.7-2.1-2.1-3.8-4-2.3c-0.9,0.8-1.2,2.4-0.9,4
		c0.1,0.6,0.4,1.3,0.7,1.8c0.5,0.8,0.9,1.1,1.1,1.4c-0.7,0.2-0.6,0.4-1,1.2c-0.7,1.1-0.8,0.7-1.1,1.3c1.1-0.3,2.6-0.8,2.6-2.2
		c0.8,0.2,1.1,0.7,2.3,0.8c0.5,0,1,0,1.4-0.1C124.2,11.1,124.2,11.1,124.4,10.8z"/>
	<path class="st0" d="M98.6,39.3 M98.6,39.3c0.1-0.3,0-0.2,0.2-0.3C98.7,39.2,98.8,39.1,98.6,39.3L98.6,39.3z M101.9,35.9
		c0.1-0.1-0.2-0.1,0.3-0.1C102.1,35.9,102.4,35.9,101.9,35.9L101.9,35.9z M102.5,35.7L102.5,35.7L102.5,35.7z M102.6,35.6l-0.1,0.1
		L102.6,35.6L102.6,35.6z M94.9,35H95v0.6h-0.1V35L94.9,35z M97.1,35.6L97.1,35.6L97.1,35.6z M95,34.6L95,34.6L95,34.6z M95.1,34.3
		L95.1,34.3L95.1,34.3z M95.3,34.1 M95.3,34.1L95.3,34.1L95.3,34.1z M101.3,33.2c0.1-0.1,0.4,0.2,0.1,0.1
		C101.4,33.3,101.1,33.4,101.3,33.2L101.3,33.2z M101.2,34.8c-0.2-0.3-0.1-0.1-0.4-0.4c-0.7-0.8,0.3-1.1,0.3-1.2c0,0,0,0,0.1,0
		C100,33.2,100.2,34.7,101.2,34.8L101.2,34.8z M99,32.5L99,32.5C99.1,32.5,99,32.5,99,32.5C99,32.5,99,32.5,99,32.5L99,32.5z
		 M98.5,32l-0.1-0.1L98.5,32L98.5,32z M97.7,31.7c0.4,0.1,0.4,0.2,0.5,0.4l0.2-0.1l0.5,0.4C98.3,32.4,97.9,32.2,97.7,31.7z
		 M97.7,31.7l-0.1-0.1L97.7,31.7L97.7,31.7z M97.6,31.6L97.6,31.6L97.6,31.6z M97,30.7 M97,30.7l-0.2-0.1L97,30.7L97,30.7z
		 M96.7,30.6c-0.5-0.1-1.2-0.4-2-0.1c-0.5,0.2-1,0.7-0.9,1.4c0.1,1.4,2.3,1.7,2.3,0c-0.4-0.2-0.2-0.3-0.6-0.3
		c-0.2,0.4,0.1,0.1-0.1,0.6h-0.4c-0.2-0.7,0-1.1,0.7-1.3c0.8-0.2,1.4,0.2,1.8,0.4c-0.1,1.5,0.3,1.1,0.9,1.8
		c-0.8-0.2-1.6-0.2-2.2,0.2c-0.4,0.3-0.2,0.2-0.7,0.4c-1.4,0.5-2.3,3.4-0.9,4.3c1.3-0.3,0.5-1.4,0.5-2.4c0,0,0,0,0,0.1
		c0,0.1,0.1,0.1,0.1,0.1c0.7,1.3,1.9,1.8,2.8,0.4c0.1-0.2,0-0.1,0.2-0.3c0,0.6,0.1,0.7,0.1,1.4c0,0.5,0,1,0,1.5c0,0,0-0.1,0-0.1
		c0,0,0-0.1,0-0.1c-0.3-0.5-0.2-0.9-1.1-1.2c-1.4-0.4-2.8,0.7-2.8,2c-0.2,3.5,4.3,3.9,7.1,1.7c0.3-0.2,0.4-0.4,0.7-0.6
		c0.2,0.9,1.1,0.7,1.9,1.5c0.3,0.3,0.2,0.4,0.6,0.6c-0.3-1.1-0.8-2.6-2.2-2.6c0.1-0.5,1.3-2.3,0.6-4.3c-0.1-0.4-0.1-0.3-0.3-0.4
		c0.3-0.5,0.3-0.3,0.1-1l-0.9,0.4c-0.3,0.2-0.1-0.1-0.3,0.4c-0.1,0.2-0.1,0.2-0.2,0.4l0.6,0.1c0.1,0.3,0.1,0.3,0.2,0.6
		c0.1,0.2,0.1,0.5,0.1,0.7c0.1,0.4-0.1,1.1-0.2,1.5c-0.2,0.6-1.1,1.8-1.7,2c-0.2,0.2,0,0.1-0.3,0.2l-0.2,0.1l-0.2,0.1l-0.2,0.1
		l-0.2,0.1c-0.1,0.1,0.2,0.1-0.3,0.1c0,0-0.1,0-0.1,0c0,0-0.1,0-0.1,0c-0.1,0-0.1,0-0.3,0c-0.7,0.5-3.6,0.1-3.5-1.7
		c0.1-1.4,1.8-1.8,2.3-0.9c0.3,0.5,0,0.7-0.1,1.2h0.3l0.5-0.3c1.1-0.5,0.9-0.2,2.1-1.1c0.7-0.5,1.6-1.7,1.1-2.8
		c-0.6,0.3-1,0-1.5,1.2c-0.3,0.6-0.4,1.5-0.9,1.8c0.1-0.6,1.2-2.7,0.3-3.4c-0.5-0.4-0.6,0.1-1,0.2c0-0.5-0.2-0.8-0.6-1
		c-0.2-0.1-0.1-0.1-0.5-0.1c-1.1,0-1,0.7-1,1.2c0.4,0.3,1.1,0.9,1.1-0.2l0.2,0.6c-2,1-2.1-2.6,0.5-1.9c1,0.3,1.1,0.8,1.8,1.2
		c0.7,0.4,1.8,0.2,1.8-0.8c0.6,0,1-0.1,1.2-0.8c0.1-0.4,0.1-0.4,0-0.6l0,0c0,0.3,0,0-0.1,0.1c-0.1-1.6-2.6-1.4-3.2-1.8
		c-0.8-0.5-0.4-1.7,0.4-1.2c0.3,0.2,0.1,0.3,0.1,0.6c0.3-0.1,0.4-0.2,0.6-0.3c0-1.4-1-1.5-1.7-1.1c-0.3,0.2-0.6,0.6-0.6,1
		c0,0.6,0.2,0.8,0.3,1.3c-0.7-0.5-0.5-1.5-0.7-2.6c-0.2-1.6-0.5-1.3-1.2-2.2c-0.6-0.2-1.3-0.6-1.9,0c-0.5,0.6-0.4,1.4,0.5,1.5
		c-0.1-0.6-0.2-0.8,0.5-0.9c0.4,0.8,0,0.7,0.2,1.6C96.1,30.1,96.4,30.1,96.7,30.6z"/>
	<path class="st0" d="M155,37.5l-0.2-0.1L155,37.5L155,37.5z M154.8,37.4L154.8,37.4L154.8,37.4z M154.1,36.6 M154.1,36.6l-0.1-0.1
		L154.1,36.6L154.1,36.6z M153.4,36.2l-0.1-0.1L153.4,36.2L153.4,36.2z M154,36.4c-0.4-0.1-0.4-0.2-0.5-0.4l-0.2,0.1l-0.5-0.4
		C153.4,35.7,153.9,36,154,36.4L154,36.4z M152.6,35.6L152.6,35.6C152.6,35.6,152.6,35.6,152.6,35.6L152.6,35.6z M150.9,34.8
		c-0.1,0.1,0.2,0.1-0.3,0.1C150.7,34.8,150.4,34.9,150.9,34.8L150.9,34.8z M150.2,34.8c-0.2,0.2,0.1,0.1,0.1,0.1
		C150.6,35,150.4,34.7,150.2,34.8L150.2,34.8z M156.3,34.1L156.3,34.1C156.3,34.1,156.3,34.1,156.3,34.1L156.3,34.1z M156.5,33.8
		L156.5,33.8C156.5,33.8,156.5,33.8,156.5,33.8L156.5,33.8z M156.6,33.4L156.6,33.4C156.6,33.5,156.6,33.4,156.6,33.4L156.6,33.4z
		 M150.9,34.8c0.8-0.2,0.6-1.4-0.3-1.5l0.3,0.3c0.1,0.2,0.2,0.2,0.2,0.4C151.2,34.4,151.1,34.5,150.9,34.8L150.9,34.8z M156.7,32.5
		h0.1v0.6h-0.1V32.5L156.7,32.5z M154.7,32.6L154.7,32.6L154.7,32.6z M149.3,32.5l-0.1,0.1L149.3,32.5z M149.3,32.5L149.3,32.5
		L149.3,32.5z M149.5,32.2c0.1-0.1,0.4,0.2,0.1,0.1C149.6,32.3,149.3,32.4,149.5,32.2L149.5,32.2z M152.9,29.2
		c0.1-0.3,0-0.2,0.2-0.3C153.1,29.2,153.2,29.1,152.9,29.2L152.9,29.2z M153.1,28.9L153.1,28.9L153.1,28.9z M149.2,32.6
		c-0.3,0.5-0.3,0.3-0.1,1c0.2,0,1-0.4,1.2-0.8c0.1-0.2,0.1-0.2,0.2-0.4c-0.6-0.1-0.8-0.2-1-1c-0.4-1.9,1-3.7,1.8-4
		c0.2-0.2,0-0.1,0.3-0.2l0.2-0.1l0.2-0.1l0.2-0.1l0.2-0.1c0.1-0.1-0.2-0.1,0.3-0.1c0,0,0.1-0.1,0.1,0c0,0,0.1,0,0.1,0
		c0.1,0,0.1,0,0.3,0c0.2-0.1,0,0,0.2-0.1c0.7-0.2,1.4-0.1,2.1,0.2c2.9,1.3,0,4.3-1.1,2.6c-0.3-0.5,0-0.7,0.1-1.2h-0.3
		c-0.1,0.1-0.1,0.1-0.2,0.2l-1,0.4c-0.6,0.2-0.9,0.5-1.4,0.8c-0.7,0.5-1.6,1.7-1.1,2.8c0.5-0.2,1-0.1,1.5-1.2
		c0.3-0.6,0.4-1.5,0.9-1.8c-0.1,0.6-1.2,2.7-0.3,3.4c0.5,0.4,0.6-0.1,1-0.2c0,0.5,0.2,0.8,0.6,1c0.9,0.4,1.4-0.1,1.4-1.1
		c-0.4-0.3-1.1-0.9-1.1,0.2l-0.2-0.6c2-1,2.1,2.6-0.5,1.9c-1-0.3-1.1-0.8-1.8-1.2c-0.7-0.4-1.8-0.2-1.8,0.8c-1.1,0-1.3,0.8-1.2,1.4
		l0,0c0-0.3,0,0,0.1-0.1c0.1,1.6,2.6,1.4,3.2,1.8c0.8,0.5,0.4,1.7-0.4,1.2c-0.2-0.1-0.1-0.1-0.2-0.3c-0.2-0.8,0.2,0.2,0-0.2
		c-0.2,0.1-0.3,0.2-0.5,0.3c0,2,2.2,1.5,2.3,0.1c0-0.6-0.2-0.8-0.3-1.3c0.7,0.5,0.5,1.5,0.7,2.6c0.2,1.6,0.5,1.3,1.2,2.2
		c0.6,0.1,1.3,0.6,1.9,0c0.5-0.6,0.4-1.4-0.5-1.5c0.1,0.6,0.2,0.8-0.5,0.9c-0.4-0.8,0-0.7-0.2-1.6c-0.2-0.7-0.5-0.7-0.9-1.2
		c0.7,0.2,2.7,0.6,2.9-1c0.1-0.8-0.3-1.2-0.8-1.4c-0.7-0.3-1.1,0.1-1.5,0.4v0.6c0.4,0.2,0.1,0.3,0.6,0.3c0.2-0.4-0.1-0.1,0.1-0.6
		h0.4c0.1,0.3,0.3,1.1-0.7,1.3c-0.8,0.2-1.4-0.2-1.8-0.4c0.1-1.5-0.3-1.1-0.9-1.8c1.4,0.3,1.8,0.1,2.6-0.5c0.3-0.2,1.6-0.4,1.9-2.5
		c0.1-1.2,0-1.6-0.6-2c-1.3,0.3-0.5,1.4-0.5,2.4l-0.2-0.4c-0.2-0.4-0.7-0.9-1.2-1c-0.7-0.1-1,0.1-1.4,0.6c-0.1,0.1,0,0.1-0.1,0.2
		c-0.1,0.2,0,0.1-0.2,0.3c0-0.6-0.1-0.7-0.1-1.4c0-0.5,0-1,0-1.5l0.2,0.4c0.8,2,3.7,0.9,3.8-1c0.1-0.9-0.2-1.5-0.6-2
		c-1.3-1.6-4.5-1.3-6.5,0.3c-0.3,0.2-0.4,0.4-0.7,0.6c-0.2-0.9-1.1-0.7-1.9-1.5c-0.3-0.3-0.2-0.4-0.6-0.6c0.2,0.7,0.7,1.9,1.2,2.3
		c0.3,0.2,0.5,0.3,0.9,0.3c-0.2,0.8-0.7,1.1-0.8,2.3c0,0.6,0,1.5,0.2,2.1C149,32.6,148.9,32.5,149.2,32.6z"/>
	<path class="st0" d="M147.8,22.4l-0.2,0.1L147.8,22.4L147.8,22.4z M147.9,22.3l-0.1,0.1L147.9,22.3L147.9,22.3z M151,22.3l-0.2-0.1
		L151,22.3L151,22.3z M150.8,22.2l-0.2-0.1L150.8,22.2L150.8,22.2z M150.6,22.1h-0.6c0.2-0.3,0.8-0.4,1.2-0.3
		c0.2,0.1,0.3,0.2,0.4,0.3c-0.2,0-0.3,0-0.5-0.1c-0.1,0,0,0-0.3,0C150.5,22.1,150.7,22,150.6,22.1L150.6,22.1z M147.9,22.3
		c0.3-1.2-0.6-1-1.1-1.3C148,20.7,148.5,21.9,147.9,22.3L147.9,22.3z M148.8,18.3L148.8,18.3L148.8,18.3z M152.2,18.1
		C152.2,17.8,152.3,18.1,152.2,18.1C152.2,18.1,152.2,18.4,152.2,18.1L152.2,18.1z M152.1,17.8L152.1,17.8
		C152.1,17.8,152.1,17.8,152.1,17.8L152.1,17.8z M152,17.6L152,17.6C152,17.6,152,17.6,152,17.6L152,17.6z M151.9,17.4 M151.9,17.4
		l-0.1-0.1L151.9,17.4L151.9,17.4z M147.4,16.1l-0.1-0.2L147.4,16.1L147.4,16.1z M146.9,12.1c0,0.3-0.1,0.6,0.1,0.8
		c0.7,0.1,1-0.4,2,0c1.4,0.6,1.1,2.5-0.2,2.7c-0.8,0.1-0.9-0.4-1-0.7c-0.2-0.5,0.2-0.2-0.2-0.4l-0.1,0.1l-0.1,0.1
		c-0.1,0.8,0-0.1-0.2,0.4c-0.1,0.3-0.1,0.4-0.1,0.8l-0.1-0.4c-0.4,0.3-1,1.5-1.2,2.1c-0.3,1-0.1,2,0.5,2.5c1.4-0.4,0.5-2.5,0.5-4
		c0.1,0.2,0-0.1,0.1,0.2c0.2,0.6,0,0.7,0.4,2c0.4,1.2,0.8,1.2,1.5,1.2c0.1-0.3,0.2-0.3,0.2-0.6c0.3,0.2,0.4,0.5,0.9,0.5
		c0.5,0.1,0.9-0.1,1.1-0.4c0.3-0.4,0.4-1.6-1.1-1.2c0,0.5,0,0.4,0.2,0.8c-0.5,0-0.2,0-0.5-0.2c0-0.5,0.1-0.6,0.3-0.9
		c0.9,0,1.5,0.1,1.4,1.2c-0.1,0.7-0.7,1.1-1.4,1.2c-0.8,0.2-1.4-0.2-2.3-0.2c-0.7,0.1-1.3,0.8-1,1.5c-1.1,0.6-0.6,1.1-0.5,1.7
		c0,0.1,0,0,0,0.2l0,0c0.5-0.2,0.1-0.1,0.6,0.1c0.7,0.4,1.4,0.2,2.1-0.1c1-0.4,2.2-0.6,1.9,0.8c-0.5,0.1-0.6,0.3-0.8-0.2h-0.3
		c-0.5,2,2.5,1.4,2-0.3c-0.2-0.6-0.5-0.6-0.8-1.1c1.4,0.4,1.4,2.6,3.5,3c2.3,0.4,2.4-2.2,1-2c-0.6,0.1-0.3,0.1-0.2,0.3l0.2,0.7
		c-0.9,0.2-0.8-0.5-1.3-1.1c-0.5-0.6-1-0.7-1.9-0.7v-0.1c1,0,1.3,0,1.9-0.4c1.9-1.3-0.2-3.6-1.5-2.2c-0.3,0.3-0.2,0.5-0.2,1.1
		c0.2,0.1,0.4,0.4,0.7,0.3c0.5-0.2,0.1-0.1-0.1-0.6c0.2-0.2,0.2-0.2,0.6-0.2c0.7,1.4-0.7,1.8-1.9,1.9c-0.3-1.1-1.1-1.1-1.8-1.1
		c0.3-0.2,1.5-0.4,2-1.4l0.2-0.4c0.2-0.3,0.4-0.2,0.6-1c0.3-1.4-0.6-3.9-2-3.3c-0.6,1.2,0.8,1.5,1,2.3c-0.5-0.3-1-0.9-1.9-0.6
		c-0.7,0.2-1,0.8-1,1.7c-0.4-0.4-1.3-1.6-1.4-2.3c0.6,0.4,1,0.9,2.2,0.2c2.1-1.4,0.7-4.3-1.3-4.4c-0.2,0-0.6,0-0.8,0L146.9,12.1z"/>
	<path class="st0" d="M138.8,13.3L138.8,13.3L138.8,13.3z M138.9,13.2l-0.1,0.1L138.9,13.2L138.9,13.2z M139,12.9l-0.1,0.2L139,12.9
		L139,12.9z M137.5,12.4c0.1-0.3,0.1-0.3,0.4-0.4c0.6-0.2,1.6,0.3,1.1,0.9C138.9,12,138.2,12.1,137.5,12.4L137.5,12.4z M140.7,11.5
		L140.7,11.5L140.7,11.5z M142.9,10.8L142.9,10.8C142.9,10.8,142.9,10.8,142.9,10.8L142.9,10.8z M143.2,10.7L143.2,10.7L143.2,10.7z
		 M140.5,10.6L140.5,10.6L140.5,10.6z M137.9,8.9L137.9,8.9L137.9,8.9z M141,7.4L141,7.4C141,7.5,141,7.4,141,7.4L141,7.4z
		 M140.9,7.2 M140.9,7.2l-0.1-0.1L140.9,7.2L140.9,7.2z M140.7,7.1L140.6,7L140.7,7.1L140.7,7.1z M140.6,7l-0.1-0.1L140.6,7L140.6,7
		z M140.5,6.9L140.5,6.9L140.5,6.9z M140.2,6.7 M140.2,6.7L140,6.6L140.2,6.7L140.2,6.7z M140,6.6c-0.5,0-0.2,0-0.3-0.1
		C140.2,6.5,139.9,6.5,140,6.6L140,6.6z M139.7,6.5c-0.8,0-1.5,0.1-1.9,0.6c-0.5,0.7-0.2,1.3,0.1,1.9c-0.5,0-0.8-0.3-1.3-0.4l0,1.2
		L137,10c0.7,0.4,1,0.2,1.4-0.1c0-0.4,0-0.4-0.1-0.8c1.4,0.7,2.3-1,1.5-1.6c-0.4-0.3-0.8-0.1-1.2,0.1c0,0.5-0.1,0.6,0.4,0.6
		c-0.4,0.5-0.2,0.1-0.6,0.1c-0.5-2.3,3.3-1,1.4,1.1c-0.7,0.8-1.2,0.6-2.1,1.1c-0.7,0.4-1.1,1.6-0.2,1.9c-0.7,1.1-0.2,1.2,0.6,2
		c0.5,0.5,1.3,0.9,2.1,1.1c1.3,0.3,3,0.1,3.5-1c0.3-0.7,0.1-0.8,0-1.3h-0.2c0,1.6-1.8,1-2.4,1.2c-0.6,0.1-2.3,0.7-3-0.3
		c0.4,0,0.4,0.1,0.8,0c0.4-0.1,0.6-0.2,0.8-0.4c0.6-0.6,0.8-0.9,1.1-1.2c0.3-0.3,1.4-0.8,1.5,0c0.1,0.5-0.1,0.6-0.5,0.6
		c-0.4-0.1,0-0.3-0.3,0c-0.1,0.1-0.1,0.2-0.1,0.5c1.4,0.9,2-0.3,1.8-1.1c-0.3-1.2-1.4-1-2.6-0.9c0.3-0.5,0.7-0.8,1.5-0.8
		c-0.3,0.3-0.7,0.4-1.1,0.4c0.4,0.3,0.9-0.2,2.4,0.5c0.7,0.3,1.4,0.8,2.4,0.5c3.3-0.9,0.5-3.8,0-2c0.9,0,0.7,0.5,0.6,0.7
		c-0.5,0.5-1.2-0.5-2.1-0.5c-0.5,0-0.7,0.3-1.2,0.3l0.7-0.6c0.2-0.2,0.4-0.5,0.5-0.8c0.6-1.9-1.7-2.8-2.4-1.3
		c-0.3,0.8,0.2,1.6,1,1.1c-0.1-0.6-0.2-0.2-0.4-0.6c0.1-0.1,0.2-0.2,0.3-0.3c1.2,0.3,1,1.4-0.4,2.4c-0.2,0.2-0.1,0-0.2,0.1
		c-0.3-0.2-0.4-0.4-0.9-0.4c-0.6-0.1-0.7,0.1-1.1,0.2c0.8-1.2,0.8-1,0.7-2.4c0-0.7,0.3-0.5-0.1-1.4c-0.4-1-1.5-2.1-2.9-2.1L138,5
		c0,0.6,0.1,0.8,0.5,1.1C138.8,6.2,139,6.1,139.7,6.5C139.6,6.4,139.6,6.5,139.7,6.5z"/>
	<path class="st0" d="M112.1,61.7c-0.5,0-0.2,0-0.3-0.1C112.3,61.6,111.9,61.6,112.1,61.7L112.1,61.7z M111.7,61.6l-0.2-0.1
		L111.7,61.6L111.7,61.6z M111.5,61.5L111.5,61.5L111.5,61.5z M111.2,61.2 M111.2,61.2l-0.1-0.1L111.2,61.2L111.2,61.2z M111.1,61.1
		L111,61L111.1,61.1L111.1,61.1z M111,61l-0.1-0.1L111,61L111,61z M110.9,60.9L110.9,60.9L110.9,60.9z M113.8,59.2L113.8,59.2
		L113.8,59.2z M111.2,57.6L111.2,57.6L111.2,57.6z M108.5,57.5L108.5,57.5L108.5,57.5z M108.7,57.3L108.7,57.3
		C108.7,57.3,108.7,57.3,108.7,57.3L108.7,57.3z M111,56.6L111,56.6L111,56.6z M112.7,55.2c0.1,0.9,0.9,0.9,1.5,0.5
		c-0.1,0.5-0.7,0.5-1,0.4C112.8,56.1,112.5,55.6,112.7,55.2L112.7,55.2z M112.8,55l-0.1,0.2L112.8,55L112.8,55z M112.9,54.9
		l-0.1,0.1L112.9,54.9z M112.9,54.9L112.9,54.9L112.9,54.9z M111,56.6c-0.3,0.5-0.7,0.7-1.5,0.8c0.1-0.1,0.1-0.1,0.2-0.1l0.6-0.3
		c0,0,0.1-0.1,0.1-0.1l0.1-0.1c-3.3,0-2.9-1.5-4.9-0.9c-0.7,0.2-1.5,0.8-1.4,1.5c0,0.8,1.3,1.5,1.6,0.4c-0.9,0-0.7-0.5-0.6-0.7
		c0.5-0.5,1.2,0.5,2.1,0.5c0.5,0,0.7-0.3,1.2-0.3c-0.4,0.3-0.9,0.6-1.2,1.4c-0.6,1.9,1.7,2.7,2.4,1.3c0.3-0.7-0.1-1.6-1-1.1
		c0.1,0.6,0.2,0.2,0.4,0.6c-0.1,0.1-0.2,0.2-0.3,0.3c-1.2-0.3-1-1.4,0.4-2.4c0.2-0.2,0.1,0,0.2-0.1c1.1,0.7,0.9,0.5,1.9,0.2
		c-0.3,0.5-0.8,1-0.8,1.8c0,0.1,0,0.2,0.1,0.5c0,0.5-0.6,1.6,1.4,3c0.2,0.2,0.6,0.4,0.9,0.5c0.5,0.1,0.7-0.1,1-0.3
		c0-0.7-0.1-0.8-0.5-1.1l-1.1-0.4c0,0,0,0-0.1,0c0.8,0,1.5-0.1,1.9-0.6c0.5-0.7,0.2-1.3-0.1-1.9c0.5,0,0.3,0.2,0.8,0.2l-0.1-1.3
		c-0.4-0.5-1,0-1.2,0.1c0,0.4,0,0.4,0.1,0.8c-0.7-0.3-1.5-0.1-1.8,0.6c-0.2,0.5,0.2,1.5,1.4,0.9c0-0.3,0-0.2-0.1-0.5
		c-0.2-0.5-0.1,0.1-0.3-0.4c0.3,0,0.3,0.1,0.5,0.1c0.5,2.3-3.3,1-1.4-1.1c0.7-0.8,1.2-0.6,2.1-1.1c0.7-0.4,1.1-1.6,0.2-1.9
		c0.5-0.7,0.5-1-0.1-1.6c0,0,0,0-0.1-0.1c-0.7-0.7-0.9-1.1-2.5-1.5c-1.3-0.3-3-0.1-3.5,1c-0.3,0.7-0.1,0.8,0,1.3h0.2
		c0-1.6,1.8-1,2.4-1.2c0.6-0.1,2.3-0.7,3,0.3c-0.6-0.1-1.2,0-1.6,0.4c-0.2,0.2-0.4,0.4-0.6,0.6c-0.3,0.3-0.3,0.4-0.5,0.7
		c-0.3,0.3-1.4,0.8-1.5,0c-0.1-0.6,0.2-0.6,0.6-0.6c0,0,0,0,0.1,0c0,0,0.2,0.4,0.2-0.5c-1.4-0.9-2,0.3-1.8,1.1
		C108.7,56.9,109.8,56.7,111,56.6z"/>
	<path class="st0" d="M141.7,60.4c0.1-0.1,0.4,0.2,0.1,0.1C141.8,60.4,141.5,60.6,141.7,60.4L141.7,60.4z M142,60.3
		C142,60.3,142.1,60.3,142,60.3L142,60.3L142,60.3z M142.3,60.2L142.3,60.2C142.3,60.2,142.2,60.2,142.3,60.2L142.3,60.2z
		 M142.6,60.1L142.6,60.1L142.6,60.1z M142.7,60l-0.1,0.1L142.7,60L142.7,60z M141.6,57L141.6,57L141.6,57z M143.9,55.6l0.2-0.1
		L143.9,55.6L143.9,55.6z M144.2,55.4L144.2,55.4C144.2,55.5,144.2,55.4,144.2,55.4L144.2,55.4z M139.3,53.8l-0.1-0.1L139.3,53.8
		L139.3,53.8z M139.2,53.7l-0.1-0.1L139.2,53.7L139.2,53.7z M139.1,53.6l-0.2-0.1L139.1,53.6L139.1,53.6z M139.3,53.8
		c0.2-0.1,0.1,0,0.3-0.2c0.1-0.1,0.1-0.2,0.2-0.2c0.9-0.9,2.1-1.3,3.4-1.1c0.1,0,0.6,0.1,0.7,0.2l0.6,0.3l0.2,0.1l0.2,0.1l0.1,0.1
		l0.2,0.1l0.1,0.1l0.1,0.1l0.2,0.1l0.1,0.1l0.1,0.1l0.1,0.1c0.3,0.2,0.2,0.1,0.3,0.4c0.5,0.4,1,1.8,0.8,2.4l-0.2,0.4
		c-0.4,1.6-3.1,1-2.7-0.6c0.1-0.3,0.2-0.4,0.4-0.5c0.2-0.1,0.2-0.1,0.3-0.1c0.3-0.1,0.2,0.1,0.3-0.2l-0.1-0.1l-0.1-0.1
		c-0.7-0.1,0.1-0.3-1.2-0.3l0.2-0.1c0.1-0.1,0,0,0.1-0.2c-0.4-0.1-0.4-0.2-1-0.5c-1.1-0.6-2.8-0.9-3.5,0.1c0.2,0.6,0.9,0.9,1.7,0.8
		c0.9-0.1,1.3-0.3,2.3-0.3l-0.6,0.2c-0.3,0-0.5,0-0.8,0.1c-2.3,0.5-2.6,1.9-1.4,2c0,0-1.2,1.2-0.1,2c0.3,0.2,0.7,0.2,1,0
		c0.4-0.3,0.3-0.7,0.2-1.1c-0.5,0-0.4,0-0.8,0.2c0-0.5,0-0.2,0.2-0.5c0.5,0,0.7,0.1,0.8,0.5c0.4,1.2-1.3,1.9-2.1,0.7
		c-0.9-1.3,0.4-3.1-0.5-3.8c-0.3-0.3-0.2-0.2-0.5-0.1l-0.4,0l0.1,0.3c-0.1,0.1-0.1,0.1,0,0.2c-0.2,1.1,0.1,2.5-0.2,2.9
		c0.4,1.5,1.2,1.6,1.7,1.9l1.1,0.6c1.4,0.2,3.8-0.7,3.2-2c-1.2-0.6-1.5,0.8-2.3,1c0.3-0.5,0.9-1,0.6-1.9c-0.2-0.7-0.8-1-1.7-1
		c0.4-0.4,1.6-1.3,2.3-1.4c-0.4,0.5-0.8,0.9-0.4,1.8c1.5,3.5,7.8-0.1,2.7-4.7c-0.6-0.6-1.8-1.2-2.6-1.3c0.2-0.4,0.3-0.1,0.3-0.6
		c0.1-0.5-0.1-1.2,0.1-1.9c0.1-0.4,0.2-0.4,0.2-0.7c-0.7,0.5-1.8,2-1.2,3.1c-3.3,0-3.9,1.9-4.5,2.2c-0.4,0.1-0.4,0.1-0.6,0.5
		c0.5,0,0.6,0.2,0.9,0.5c0.3-0.1,0.3-0.1,0.8-0.1C139.5,54.1,139.5,54.1,139.3,53.8z"/>
	<path class="st0" d="M112.6,14.6l0.2,0.1L112.6,14.6z M112.6,14.6l-0.1-0.1L112.6,14.6L112.6,14.6z M112.5,14.4l-0.1-0.1
		L112.5,14.4L112.5,14.4z M107.9,12.5l-0.2,0.1L107.9,12.5L107.9,12.5z M109.2,8.1L109,8.2L109.2,8.1z M109.2,8.1L109.2,8.1
		L109.2,8.1z M109.4,7.9L109.4,7.9C109.4,7.9,109.4,7.9,109.4,7.9L109.4,7.9z M109.6,7.8L109.6,7.8C109.6,7.8,109.6,7.8,109.6,7.8
		L109.6,7.8z M109.8,7.7c0.1-0.1,0.4,0.2,0.1,0.1C109.9,7.7,109.6,7.8,109.8,7.7L109.8,7.7z M109,8.2c-0.3,0.5-0.9,1-0.6,2
		c0.3,0.8,0.9,1,1.8,0.8c-0.3,0.4-1.8,1.5-2.4,1.5c0.4-0.5,0.8-0.9,0.4-1.8c-1.5-3.5-7.5-0.1-3,4.4c0.7,0.7,1.9,1.5,3,1.6
		c-0.2,0.4-0.3,0.1-0.3,0.6c-0.1,0.9,0.3,1.5-0.4,2.6c0.5-0.1,2-1.8,1.3-3.1c1.6,0,3.3-0.7,4.2-1.9l0.1-0.1c0.3-0.5,0.7,0,0.8-0.7
		c-0.5,0-0.6-0.2-0.9-0.5c-0.3,0.1-0.3,0.1-0.8,0.1c0,0.4,0.1,0.4,0.2,0.6c-0.2,0.1-0.1,0-0.3,0.2l-0.6,0.6
		c-1.3,0.9-3.4,0.9-4.3,0.2l-0.2-0.1l-0.2-0.1l-0.1-0.1l-0.2-0.1l-0.1-0.1l-0.1-0.1l-0.2-0.1l-0.1-0.1l-0.1-0.1l-0.1-0.1
		c-0.3-0.2-0.2-0.1-0.3-0.4c-0.7-0.5-1.6-2.9,0.1-3.7c1.5-0.6,2.7,1.5,1.3,2c-0.6,0.2-0.3-0.2-0.5,0.3l0.1,0.1l0.1,0.1
		c0.8,0.1-0.1,0,0.4,0.2c0.3,0.1,0.4,0.1,0.8,0.1c0,0-0.1,0-0.1,0c0,0.1,0,0-0.1,0.1c-0.1,0.1,0,0-0.1,0.2c0.4,0.1,1,0.7,2,1
		c0.9,0.2,2,0.1,2.4-0.5c-0.4-1.4-2.5-0.5-4-0.5c0.6-0.4,2-0.1,3-1c0.4-0.4,0.3-0.4,0.3-1.1c-0.3-0.1-0.3-0.2-0.6-0.2
		c0.3-0.4,0.9-0.9,0.4-1.7c-0.6-1-1.5-0.1-1.6,0c0,0.5,0,0.5,0.1,0.9c0.5,0,0.4,0,0.8-0.2c0,0.5,0,0.2-0.2,0.5
		c-1.3,0-0.9-1.3-0.5-1.6c0.4-0.3,0.3,0,0.7-0.3l0.4,0c0-0.5,0-0.7-0.1-1.1c-0.6-0.5-1.9-0.1-2.5,0.1c-0.6,0.2-1.6,0.8-1.2,1.7
		C108,9.7,108.3,8.4,109,8.2z"/>
	<path class="st0" d="M114.2,12.2l0.1,0.2L114.2,12.2z M114.2,12.2l-0.1-0.1L114.2,12.2L114.2,12.2z M114.1,12.1
		c-0.8-0.2-0.9,0-1.2,0.8l-0.1,0.2C112.5,11.9,113.7,11.5,114.1,12.1L114.1,12.1z M114,9.2l-0.1,0.2L114,9.2L114,9.2z M114.1,8.9
		L114,9.2L114.1,8.9L114.1,8.9z M113.9,9.4V10c-0.3-0.2-0.4-0.8-0.3-1.2c0.1-0.2,0.2-0.3,0.3-0.4c0,0.2,0,0.3-0.1,0.5
		C113.8,9,113.8,9.2,113.9,9.4L113.9,9.4z M110.5,7.3c0.1,0.4,0.1,0.6,0.1,1.1l-0.4,0c0.2,0.2,1.7,0.4,1.3,2.6
		c-0.1,0.5-0.3,1.3,0,1.8c0.2,0.4,0.8,0.7,1.4,0.5c0.2,0.3,0,0.2,0.3,0.4c0.5,0.4,0.9,0.2,1.2,0.1c1.3-0.4,1.4-0.3,2.7-1.6
		c2.2-2.3,0.2-4.7-0.6-3.7c1.5,0.4,0,2.1-0.2,2.6c-0.4,1.1-0.3,1.7-1.7,2.4c0.1-0.5,0.8-0.9,0.1-2.6c-0.4-1-0.6-2.2,0.8-1.9
		c0.2,0.9,0,0.4-0.2,1c0.2,0.1,0.7,0.5,1.1-0.2c0.6-1-0.5-1.9-1.4-1.6c-0.6,0.2-0.6,0.5-1.1,0.8c0.4-1.4,2.6-1.4,3-3.5
		c0.2-1-0.3-2-1.3-1.9c-0.5,0-0.8,0.3-0.8,0.9c0.1,0.6,0.1,0.3,0.3,0.2c0,0,0,0,0.1,0c0,0,0,0,0.1,0l0.6-0.1
		c0.4,1.5-1.7,0.3-1.7,3.2h-0.1c0-1,0-1.3-0.4-1.9c-1.3-1.9-3.6,0.2-2.2,1.5c0.3,0.3,0.5,0.2,1.1,0.2c0.1-0.2,0.4-0.4,0.3-0.7
		c-0.1-0.4-0.2-0.2-0.2-0.2c-0.1,0,0,0.1-0.4,0.2c-0.2-0.2-0.2-0.2-0.2-0.6c1.4-0.7,1.8,0.7,1.9,1.9c-1,0.2-1.1,0.7-1.1,1.8
		l-0.2-0.4c-0.2-0.5-0.3-0.8-0.7-1.2c-0.6-0.6-0.5-0.3-1.2-0.8L110.5,7.3z"/>
	<path class="st0" d="M116.9,61.6c0,2.2,0.1,1.3-0.5,2.3c0.9-0.1,1.5-0.8,1.9-1.5l0.2-0.3c-0.1,1-1.9,2.6-3.2,1.7
		c-0.6-0.4-0.8-1.2-0.4-1.9c0.4-0.6,1.4-0.7,1.6,0.1h0.2C116.8,61.3,116.8,61.7,116.9,61.6L116.9,61.6z M118.6,61.8l-0.1,0.2
		L118.6,61.8L118.6,61.8z M118.7,61.5c0,0.5,0,0.2-0.1,0.3C118.6,61.3,118.6,61.6,118.7,61.5z M118.7,61.5c0.1-0.1,0.1,0,0.1-0.2
		c0-0.5,0,0-0.1-0.2V61.5L118.7,61.5z M116.4,60.6 M116.4,60.6l-0.1-0.1L116.4,60.6L116.4,60.6z M116.7,60.3l0.1,0.2L116.7,60.3
		L116.7,60.3z M115.5,55h0.1v0.5h-0.1V55L115.5,55z M117.3,56.7c0.1,0.3,0.7,0.8,0.1,2.2c-0.4,1-0.3,1.3,0.2,2.1
		c-0.4,0-0.3,0-0.7,0.5c0,0,0,0,0,0.1c-0.2-0.7,0-0.9,0.1-1.3c0.2-1.4-0.2-3.8-1.9-3.9c-0.1,1.3-0.3,1.2,0.5,2.1
		c0.3,0.4,1.1,1.2,1.1,1.8c-0.2-0.2,0,0-0.2-0.3c-0.5-0.7-1.2-1.6-2-1.9l0.1,1.3c0.5,0.4,1.3,0.6,1.6,1.1c-0.5,0-1.4-0.5-2.1,0.9
		c-0.9,1.8,1,3.7,2.8,3.3c1.1-0.2,1.3-0.9,2-1.4c0.1-0.4,0.8-1.3,0.9-2.4c0.2-1.3,0.1-1.7-0.2-2.9c1.2,0,0.6-0.4,2.6-1l0.4-0.2
		c-0.6-0.1-1.1-0.3-1.9-0.2c-1.3,0.2-1,0.5-1.4,0.8c-0.3-1.3-2.1-2.4-3.6-2.7c-0.2,0,0,0-0.2,0c-0.5-0.2-0.2-0.4-1-0.4
		c0.1,0.6,0,0.4,0,0.9c0,0.7,0.2,0.1,0.3,0.8h0.2c0.1-0.4,0.1-0.1,0.2-0.5c0.3,0.1,0.6,0.1,0.9,0.2c0.3,0.1,0.5,0.2,0.8,0.3
		c0.4,0.2,0.9,0.8,1.2,1.1c0.7,1,0.7,2,0.7,3.7h-0.1c0-1.2,0.1-1.6-0.3-2.6c-0.1-0.5-0.2-0.6-0.5-0.9C117.8,57,117.8,57,117.3,56.7z
		"/>
	<path class="st0" d="M136.1,12.6h0.1v0.5h-0.1V12.6L136.1,12.6z M135,7.9l-0.1-0.2L135,7.9L135,7.9z M135.5,7.7l-0.1-0.1L135.5,7.7
		L135.5,7.7z M135.4,7.5L135.4,7.5L135.4,7.5z M133,6.7c0,0.6,0,0.2-0.1,0.3C132.9,6.4,132.9,6.8,133,6.7L133,6.7z M133.1,6.4
		C133,6.5,133,6.2,133,6.7C133.1,6.6,133.1,6.9,133.1,6.4z M133.1,6.4c0.1-1,1.8-2.9,3.2-1.9c0.6,0.4,0.9,1.2,0.4,1.9
		c-0.3,0.6-1.4,0.7-1.6-0.1h-0.2c0,0.6,0,0.2-0.1,0.3c0-0.4,0-1.1,0-1.4c0.1-0.5,0.3-0.5,0.5-0.9c-1.2,0.1-1.7,1.2-2.1,1.9
		C133.1,6.4,133.2,6.2,133.1,6.4L133.1,6.4z M132.8,4.7c-0.3,1.1-1.6,1.8-0.8,5.3c-1.2,0-0.6,0.4-2.6,1l-0.4,0.2
		c0.7,0.2,1.9,0.4,2.7-0.1c0.5-0.3,0.2-0.3,0.6-0.6c0.3,1.3,2.1,2.4,3.6,2.7c0.9,0.2,0.3,0.4,1.2,0.4c-0.1-0.6-0.1-0.3,0-0.9
		c0-0.7-0.2-0.1-0.3-0.8c-0.4,0.1-0.3,0.1-0.4,0.5c-0.3-0.1-0.6-0.1-0.9-0.2c-0.8-0.2-1.5-0.8-2-1.4c-0.8-1-0.7-2-0.7-3.8h0.1
		c0,1.2-0.1,1.7,0.3,2.7c0.2,0.7,0.6,1.3,1.3,1.7c-0.1-0.4-0.7-0.7-0.2-2.1c0.4-1,0.5-1.3-0.2-2.2c0.4,0,0.3,0,0.7-0.5
		c0,0,0,0,0-0.1l0,0.9c0,0,0,0,0,0.1c-0.1,0.5-0.3,1-0.1,2.1c0.2,1,0.8,2.1,1.9,2.1c0.1-1.3,0.3-1.2-0.5-2.1
		c-0.3-0.4-1.1-1.2-1.1-1.8c0.3,0.4,0.8,1.4,1.7,1.8l0-1.2c-0.4-0.3-1-0.5-1.2-0.9c0.4,0,1.4,0.5,2.1-0.9c0.9-1.8-1-3.7-2.8-3.3
		C133.7,3.6,133.5,4.3,132.8,4.7z"/>
	<path class="st0" d="M137.7,59l-0.1,0.2L137.7,59L137.7,59z M137.8,58.8l-0.1,0.2L137.8,58.8z M137.8,58.8v-0.6
		c0.3,0.2,0.4,0.8,0.2,1.2c-0.1,0.3-0.1,0.3-0.2,0.4l0.1-0.8C137.9,58.7,137.9,58.9,137.8,58.8L137.8,58.8z M137.6,56.1l-0.1-0.1
		L137.6,56.1L137.6,56.1z M137.5,56l-0.1-0.2L137.5,56L137.5,56z M137.6,59.2c-0.4,1.4-2.6,1.4-3,3.5c-0.4,2.3,2.2,2.4,2,1
		c-0.1-0.8,0.1,0-1,0c-0.4-1.5,1.7-0.3,1.7-3.2h0.1c0,1,0,1.3,0.4,1.9c1.3,1.9,3.6-0.2,2.2-1.5c-0.3-0.3-0.5-0.2-1.1-0.2
		c-0.1,0.2-0.4,0.4-0.3,0.7c0.2,0.5,0.1,0.1,0.6-0.1c0.2,0.2,0.2,0.2,0.2,0.6c-1.4,0.7-1.8-0.7-1.9-1.9c1.1-0.3,1.1-1.1,1.1-1.8
		c0.2,0.1,0,0,0.1,0.2c0.3-0.4,0-1.8,0.2-2.9c0,0-0.1,0-0.1,0.1c-0.1,0.3-0.9,1.2-1.4,0.5c0.5,0.1,0.6,0.2,0.9-0.2
		c0.3-0.4,0.3-0.7,0.4-0.9c0,0.6,0,0.1,0.2,0.3l-0.1-0.3l0.4,0c-0.2-0.5-0.1,0-0.6-0.2c-0.2-0.1-0.1-0.1-0.4-0.4
		c-0.2-0.2-0.3-0.2-0.7-0.2c-0.4,0-0.2,0.1-0.7,0.2c-1,0.2-1.6,0.6-2.3,1.3c-0.9,0.9-1.8,2.5-0.8,3.7c0.1,0.2,0.3,0.3,0.5,0.4
		c0.5,0.2,0.5,0.1,0.7-0.2c-1.5-0.4,0-2.1,0.2-2.6c0.4-1.1,0.3-1.7,1.7-2.4c-0.1,0.4-0.4,0.5-0.4,1.2c0,0.5,0.1,1.1,0.3,1.4
		c0.4,1,0.6,2.2-0.8,1.9c-0.1-0.5-0.3-0.6,0.2-0.8V58c-2-0.5-1.4,2.5,0.3,2C137.1,59.8,137.2,59.5,137.6,59.2z"/>
	<path class="st0" d="M145.4,20.8l-0.1,0.2L145.4,20.8L145.4,20.8z M145.5,20.7l-0.1,0.1L145.5,20.7L145.5,20.7z M145.6,20.6
		l-0.1,0.1L145.6,20.6z M145.6,20.6c-0.2-0.5-1.9-1.1-1.5-3.9c0-0.1,0.1-0.6,0.2-0.7c0.1-0.2,0.1-0.2,0.1-0.3
		c0.1-0.2,0.1-0.2,0.2-0.3l0.1-0.2l0.1-0.2l0.1-0.1l0.1-0.2l0.1-0.1c0.1-0.3,0-0.2,0.2-0.3l0.1-0.1l0.1-0.1l0.1-0.1
		c0.2-0.3,0.1-0.2,0.4-0.3c0.2-0.3,0.1-0.2,0.4-0.4c0.1-0.1,0.1-0.1,0.2-0.1c0.2-0.1,0.1-0.1,0.3-0.2c-0.2-0.2-0.1-0.4-0.1-0.8
		c-0.4,0.1-1,0.4-1.3,0.6c-1.1,0.8-2.3,2.3-2.4,3.7c-0.6-0.4-0.1-0.3-1.6-0.3c-0.9,0-1.1-0.1-1.6-0.4c0.1,0.5,1.8,2,3.1,1.3
		c0,1.3,0.3,2.3,0.9,3.1c0.3,0.4,0.6,0.8,0.9,1c0.3,0.2,0.2,0,0.4,0.4c0.1,0.4,0.1,0.4,0.5,0.6c0-0.5,0.2-0.6,0.5-0.9
		c-0.1-0.3-0.1-0.3-0.1-0.8C145.9,20.4,145.9,20.5,145.6,20.6z"/>
	<path class="st0" d="M104.4,53.4l-0.1,0.1l-0.1,0.1c-0.1,0.2-0.4,0.8-0.5,1c-0.1,0.2-0.2,0.3-0.4,0.3c-0.5,0.2-0.3-0.2-0.5,0.3
		c0.6,0,1.2,0,1.6-0.1c0.5-0.1,0.8-0.5,1.2-0.6c0.2-0.3,0.1-0.2,0.4-0.3l0.1-0.1l0.1-0.1l0.1-0.1l0.1-0.2l0.1-0.1l0.1-0.1l0.1-0.2
		l0.1-0.1l0.1-0.2l0.1-0.2c0-0.4,0-0.3,0.2-0.5c0-0.3,0.5-2.2-0.2-2.8c0,1,0.1,1.2-0.9,1.9c-0.7,0.5-1,0.8-1,2
		C104.8,53.3,104.8,53.3,104.4,53.4z"/>
	<path class="st0" d="M145.2,55.5l0.1,0.1l0.1,0.1c0.2,0.1,0.8,0.4,1,0.5c0.2,0.1,0.3,0.2,0.3,0.4c0.2,0.5-0.2,0.3,0.3,0.5
		c0-0.6,0-1.2-0.1-1.6c-0.1-0.5-0.5-0.8-0.6-1.2c-0.3-0.2-0.2-0.1-0.3-0.4l-0.1-0.1l-0.1-0.1l-0.1-0.1l-0.2-0.1l-0.1-0.1l-0.1-0.1
		l-0.2-0.1l-0.1-0.1l-0.2-0.1l-0.2-0.1c-0.4,0-0.8-0.3-1.6-0.4c-0.5-0.1-1.4,0.1-1.7,0.4c0.7,0,1.1-0.2,1.9,0.8c0.7,0.9,1,1,2,1
		C145.1,55.2,145.1,55.2,145.2,55.5z"/>
	<path class="st0" d="M105.4,13.8c0.3,0.2,0.2,0.1,0.3,0.4l0.1,0.1l0.1,0.1l0.1,0.1l0.2,0.1l0.1,0.1l0.1,0.1l0.2,0.1l0.1,0.1
		l0.2,0.1l0.2,0.1c0.4,0,0.4,0.1,0.8,0.2c0.8,0.2,2.2,0.4,2.6-0.2c-1,0-1.2,0.1-1.9-0.9c-0.5-0.7-0.8-1-2-1c0-0.5,0-0.5-0.1-0.9
		l-0.1-0.1l-0.1-0.1c-0.2-0.1-0.7-0.3-0.9-0.5c-0.4-0.2-0.5-0.3-0.5-0.9h-0.2C104.7,13.7,105.1,12.6,105.4,13.8z"/>
	<path class="st0" d="M146.1,13.6c-0.2,0.3-0.1,0.2-0.4,0.3l-0.1,0.1l-0.1,0.1l-0.1,0.1c-0.1,0.3,0,0.2-0.2,0.3l-0.1,0.1l-0.1,0.2
		l-0.1,0.1l-0.1,0.2l-0.1,0.2c0,0.4-0.1,0.4-0.2,0.8c-0.1,0.2-0.2,0.7-0.2,0.9c-0.1,0.4,0,0.7,0.1,1c0.1,0.4,0.1,0.5,0.3,0.7
		c0-0.7-0.2-1.1,0.8-1.9c0.9-0.7,1-1,1-2c0.5,0,0.5,0,0.9-0.1l0.1-0.1l0.1-0.1c0.2-0.7,0.6-1.4,1.4-1.4v-0.2c-0.6,0-1.2,0-1.6,0.1
		C146.8,13.2,146.5,13.5,146.1,13.6z"/>
	<path class="st0" d="M131.9,62.4l0.5,1c0.3,0.5,0.3,0.7,0,1.2c0.5-0.1,0.7-0.7,0.9-1.2c0.2-0.6,0.1-1.2,0.1-1.9c0,0,0-0.1,0-0.1
		c0,0,0-0.1,0-0.1c0-0.1,0-0.1,0-0.3c-0.1-0.1-0.1,0.2-0.1-0.3l-0.1-0.2l-0.1-0.2l-0.1-0.2l-0.1-0.2c-0.2-0.2-0.1,0-0.2-0.3
		c-0.6-0.4-1.3-1.6-2.8-1.6c0.5,0.4,0.9,0.1,1.2,1.7c0.2,1.1,0.3,1.4,1.2,1.9C132,62,131.9,61.6,131.9,62.4z"/>
	<path class="st0" d="M118.3,6.7C118.3,6.7,118.4,6.7,118.3,6.7c0,0.1,0.1,0.1,0.1,0.1c0,0.1,0,0.1,0,0.3c0.1,0.1,0.1-0.2,0.1,0.3
		l0.1,0.2l0.1,0.2l0.1,0.2l0.1,0.2c0.2,0.2,0.1,0,0.2,0.3c0.6,0.4,1.3,1.6,2.8,1.6l-0.5-0.3c-0.2-0.1-0.3-0.2-0.4-0.4
		c-0.6-0.9-0.2-2.6-1.6-2.9c0.3-0.4,0.3-0.2,0.3-1l-0.6-1c-0.3-0.6-0.1-0.7,0-1c0,0,0-0.1,0-0.1l0-0.1c0,0,0,0,0-0.1
		c-0.4,0.5-0.5,0.6-0.7,1.3C118.3,5.3,118.3,6,118.3,6.7z"/>
	<path class="st0" d="M97.5,40.1l-0.2,0.1c-1,0.5-1.1,0.9-1.9,0.4c0.3,1,2.3,1,3.1,1c0,0,0.1-0.1,0.1,0c0,0,0.1,0,0.1,0
		c0.1,0,0.1,0,0.3,0c0.1-0.1-0.2-0.1,0.3-0.1l0.2-0.1l0.2-0.1l0.2-0.1l0.2-0.1c0.2-0.2,0-0.1,0.3-0.2c0.4-0.6,1.6-1.3,1.6-2.8
		c-0.5,0.5-0.2,0.9-1.8,1.2c-0.9,0.2-1.6,0.4-1.8,1.2C98,40.1,98.3,40.1,97.5,40.1z"/>
	<path class="st0" d="M152.8,26.6c-0.1,0.1,0.2,0.1-0.3,0.1l-0.2,0.1l-0.2,0.1l-0.2,0.1l-0.2,0.1c-0.2,0.2,0,0.1-0.3,0.2
		c-0.4,0.6-1.6,1.3-1.6,2.8c0.5-0.5,0.1-0.9,1.8-1.2c0.9-0.2,1.6-0.4,1.8-1.2c0.4,0.3,0.2,0.3,1,0.3l1-0.5c0.5-0.3,0.7-0.3,1.2,0
		c-0.3-1-2.3-1-3.1-1c0,0-0.1,0-0.1,0c0,0-0.1,0-0.1,0C153,26.6,153,26.6,152.8,26.6z"/>
	<path class="st0" d="M102.6,33.4L102.6,33.4c0.3-0.2,0.3-0.4,0.3-1c0-2-1.5-4.7-3.3-4c-0.4,0.2-0.5,0.3-0.6,0.7
		c1.8-0.4,1.3,0.3,2.1,1.4C101.9,31.6,102.6,31.6,102.6,33.4z"/>
	<path class="st0" d="M126.5,10.8L126.5,10.8c0.2,0.3,0,0.1,0.4,0.3c0.9,0.3,2.8-0.3,3.5-0.8c0.4-0.3,0.9-0.9,1.1-1.4
		c0.1-0.5,0-1.5-0.9-1.6c0.9,1.4-0.6,1.6-1.3,2.1C128.3,10.1,128.3,10.8,126.5,10.8z"/>
	<path class="st0" d="M149.2,34.7L149.2,34.7c-0.9,0.7,0.1,4.5,2,5c0.4,0.1,0.7,0,1.1-0.1c0.4-0.2,0.5-0.3,0.5-0.8
		c-1.4,0.9-1.6-0.6-2.1-1.3C149.9,36.6,149.2,36.5,149.2,34.7z"/>
	<path class="st0" d="M146.2,23.1c0.3,2.2,3.8,4.5,5.2,2.7c0.2-0.3,0.4-0.7,0-1c-0.4,1.5-2.2,0-2.5-0.2c-0.6-0.2-1-0.2-1.5-0.5
		c-0.6-0.4-0.5-0.4-0.8-0.7C146.3,23.1,146.6,23.3,146.2,23.1L146.2,23.1z"/>
	<path class="st0" d="M124.8,57.4c0.2-0.3-0.3-0.2,0.2-0.2c-0.8,0-0.5-0.3-2,0c-1.6,0.3-3.3,1.7-2.7,3.2c0.2,0.4,0.3,0.5,0.7,0.6
		c-0.1-0.6-0.4-0.9,0.1-1.4c0.3-0.3,0.8-0.5,1.2-0.7C123.1,58.3,123.5,57.4,124.8,57.4z"/>
	<polygon class="st0" points="134.4,11.4 134.4,11.5 134.5,11.4 	"/>
	<polygon class="st0" points="103.2,25.6 103.3,25.6 103.2,25.4 	"/>
	<polygon class="st0" points="148.5,42.6 148.4,42.6 148.5,42.7 	"/>
	<polygon class="st0" points="117.3,56.7 117.3,56.6 117.2,56.7 	"/>
	<path class="st0" d="M148.6,42.5l-0.1,0.1L148.6,42.5z"/>
</g>
</svg>
