<?xml version="1.0" standalone="no"?>
<!DOCTYPE svg PUBLIC "-//W3C//DTD SVG 20010904//EN"
 "http://www.w3.org/TR/2001/REC-SVG-20010904/DTD/svg10.dtd">
<svg version="1.0" xmlns="http://www.w3.org/2000/svg"
 width="700.000000pt" height="700.000000pt" viewBox="0 0 700.000000 700.000000"
 preserveAspectRatio="xMidYMid meet">
<metadata>
Created by potrace 1.11, written by Peter Selinger 2001-2013
</metadata>
<g transform="translate(0.000000,700.000000) scale(0.100000,-0.100000)"
fill="#000000" stroke="none">
<path d="M3278 6995 c-1 -1 -41 -5 -88 -9 -47 -4 -101 -9 -120 -12 -37 -5
-156 -23 -202 -30 -29 -4 -113 -23 -228 -50 -308 -74 -707 -244 -995 -425
-629 -395 -1121 -985 -1395 -1670 -66 -165 -142 -408 -165 -530 -3 -13 -11
-58 -20 -99 -29 -148 -37 -202 -52 -370 -9 -104 -10 -419 -1 -480 65 -439 324
-811 711 -1020 307 -165 689 -202 1035 -99 75 22 76 23 184 72 180 83 380 243
479 384 l29 42 -52 39 c-60 45 -171 108 -238 136 -25 10 -60 25 -78 33 -41 18
-199 58 -272 69 -67 11 -314 12 -390 2 -50 -6 -130 -24 -215 -48 -16 -4 -61
-20 -98 -34 l-69 -26 33 57 c154 274 340 454 604 586 83 41 237 96 310 111
182 35 324 39 525 11 l45 -6 39 66 c99 168 280 378 444 516 387 324 849 495
1357 503 101 2 295 -10 303 -18 15 -15 21 -311 9 -446 -44 -499 -259 -961
-612 -1316 -60 -61 -141 -135 -180 -166 -81 -64 -240 -171 -278 -189 -15 -7
-27 -15 -27 -18 0 -3 5 -37 11 -76 29 -202 6 -438 -63 -635 -86 -244 -228
-448 -423 -606 -77 -63 -252 -174 -274 -174 -6 0 -2 18 9 44 69 161 99 334 95
541 -3 175 -5 186 -41 325 -39 149 -134 350 -213 449 l-19 25 -39 -29 c-83
-64 -201 -192 -285 -312 -85 -120 -186 -369 -204 -503 -3 -19 -9 -57 -14 -85
-15 -87 -4 -340 19 -441 97 -425 369 -772 743 -949 130 -61 205 -84 403 -123
49 -10 454 -9 505 2 14 2 50 7 80 10 261 23 652 124 937 242 481 198 965 543
1285 918 34 39 64 73 68 76 12 10 137 176 192 255 314 452 528 1021 594 1575
3 30 8 66 10 80 9 48 11 525 4 605 -12 128 -21 202 -25 226 -3 13 -7 41 -10
64 -17 123 -80 379 -131 531 -208 626 -580 1171 -1094 1602 -67 56 -306 231
-351 257 -10 5 -54 32 -99 58 -326 193 -702 340 -1055 412 -44 9 -89 19 -100
21 -11 2 -38 6 -60 9 -22 3 -51 7 -65 10 -13 2 -52 7 -86 11 -33 3 -74 8 -90
10 -32 5 -540 14 -546 9z"/>
<path d="M3355 3848 c-96 -34 -165 -94 -209 -183 -83 -167 -26 -370 131 -468
101 -63 244 -74 343 -25 127 62 205 173 213 303 11 165 -79 308 -233 370 -68
27 -172 28 -245 3z"/>
</g>
</svg>
