<svg xmlns="http://www.w3.org/2000/svg" xmlns:xlink="http://www.w3.org/1999/xlink" viewBox="0 0 226.9 37.95"><defs><style>.cls-1{fill:#1d1d1b;}.cls-2{fill:url(#linear-gradient);}.cls-3{fill:#ededed;}.cls-4{fill:url(#linear-gradient-2);}.cls-5{fill:url(#linear-gradient-3);}.cls-6{fill:#dadada;}.cls-7{fill:url(#linear-gradient-4);}.cls-8{fill:url(#linear-gradient-5);}.cls-9{fill:url(#linear-gradient-6);}.cls-10{fill:url(#linear-gradient-7);}.cls-11{fill:url(#linear-gradient-8);}.cls-12{fill:#010101;opacity:0.1;}.cls-13{fill:#fac236;}</style><linearGradient id="linear-gradient" x1="30.72" y1="23.06" x2="52.66" y2="23.06" gradientTransform="translate(-7.21 -3.97)" gradientUnits="userSpaceOnUse"><stop offset="0" stop-color="#7784ff"></stop><stop offset="1" stop-color="#27348b"></stop></linearGradient><linearGradient id="linear-gradient-2" x1="41.58" y1="7.86" x2="45.07" y2="7.86" gradientTransform="matrix(1, 0, 0, 1, 0, 0)" xlink:href="#linear-gradient"></linearGradient><linearGradient id="linear-gradient-3" x1="43.83" y1="9.71" x2="46.53" y2="9.71" gradientTransform="matrix(1, 0, 0, 1, 0, 0)" xlink:href="#linear-gradient"></linearGradient><linearGradient id="linear-gradient-4" x1="42.74" y1="9.69" x2="43.98" y2="9.69" gradientTransform="matrix(1, 0, 0, 1, 0, 0)" xlink:href="#linear-gradient"></linearGradient><linearGradient id="linear-gradient-5" x1="46.97" y1="5.06" x2="49.02" y2="5.06" gradientTransform="matrix(1, 0, 0, 1, 0, 0)" xlink:href="#linear-gradient"></linearGradient><linearGradient id="linear-gradient-6" x1="47.43" y1="4.65" x2="49.4" y2="4.65" gradientTransform="matrix(1, 0, 0, 1, 0, 0)" xlink:href="#linear-gradient"></linearGradient><linearGradient id="linear-gradient-7" x1="42.75" y1="8.94" x2="45.49" y2="8.94" gradientTransform="matrix(1, 0, 0, 1, 0, 0)" xlink:href="#linear-gradient"></linearGradient><linearGradient id="linear-gradient-8" x1="46.04" y1="6.37" x2="47.34" y2="6.37" gradientTransform="matrix(1, 0, 0, 1, 0, 0)" xlink:href="#linear-gradient"></linearGradient></defs><title>Asset 1</title><g id="Layer_2" data-name="Layer 2"><g id="Layer_1-2" data-name="Layer 1"><path class="cls-1" d="M9.4,18.68,5.07,23.13v7H0V2.81H5.07v14l13.49-14h5.7L12.79,15,25,30.11H19Z"></path><path class="cls-1" d="M70.36,11.35c1.58,1.53,2.37,3.81,2.37,6.82V30.11H67.86V18.8a5.86,5.86,0,0,0-1.29-4.12,4.76,4.76,0,0,0-3.66-1.38,5.61,5.61,0,0,0-4.25,1.62,6.45,6.45,0,0,0-1.56,4.66V30.11H52.22V9.28h4.64V12a7.63,7.63,0,0,1,3-2.18A11,11,0,0,1,64,9.05,8.7,8.7,0,0,1,70.36,11.35Z"></path><path class="cls-1" d="M91.45,29A5.74,5.74,0,0,1,89.37,30a9.6,9.6,0,0,1-2.6.35,7.39,7.39,0,0,1-5.3-1.79,6.91,6.91,0,0,1-1.87-5.23v-10H76.17V9.44H79.6V4.68h4.87V9.44h5.58v3.9H84.47v9.9a3.3,3.3,0,0,0,.74,2.32,2.77,2.77,0,0,0,2.15.8,4.3,4.3,0,0,0,2.73-.85Z"></path><path class="cls-1" d="M95.71,5a2.73,2.73,0,0,1-.9-2.09,2.73,2.73,0,0,1,.9-2.08A3.1,3.1,0,0,1,97.93,0a3.24,3.24,0,0,1,2.22.8,2.57,2.57,0,0,1,.9,2A2.9,2.9,0,0,1,100.17,5a3,3,0,0,1-2.24.88A3.1,3.1,0,0,1,95.71,5Zm-.24,4.27h4.88V30.11H95.47Z"></path><path class="cls-1" d="M127.41,9.28V27q0,11-11.23,11a21.08,21.08,0,0,1-5.69-.76A12.14,12.14,0,0,1,106,35l2.18-3.66a10.37,10.37,0,0,0,3.46,1.81,13.66,13.66,0,0,0,4.23.68q3.42,0,5-1.56a6.38,6.38,0,0,0,1.6-4.75V26.4a8.15,8.15,0,0,1-3,2.07,10.7,10.7,0,0,1-3.94.7,11.26,11.26,0,0,1-5.37-1.27,9.46,9.46,0,0,1-3.78-3.56A10.06,10.06,0,0,1,105,19.07a9.93,9.93,0,0,1,1.38-5.24,9.32,9.32,0,0,1,3.78-3.53,11.37,11.37,0,0,1,5.37-1.25,11.05,11.05,0,0,1,4.11.74,7.54,7.54,0,0,1,3.1,2.26V9.28Zm-6.57,14.1a5.63,5.63,0,0,0,1.78-4.31,5.53,5.53,0,0,0-1.78-4.25,6.44,6.44,0,0,0-4.54-1.64,6.52,6.52,0,0,0-4.59,1.64,5.52,5.52,0,0,0-1.77,4.25,5.62,5.62,0,0,0,1.77,4.31A6.44,6.44,0,0,0,116.3,25,6.37,6.37,0,0,0,120.84,23.38Z"></path><path class="cls-1" d="M153.31,21.25H137a5.63,5.63,0,0,0,2.24,3.65,7.33,7.33,0,0,0,4.5,1.35A7.59,7.59,0,0,0,149.37,24L152,27a8.79,8.79,0,0,1-3.55,2.53,14.07,14.07,0,0,1-10.88-.5,9.84,9.84,0,0,1-4-3.81,10.8,10.8,0,0,1-1.42-5.52,10.8,10.8,0,0,1,1.39-5.47,9.77,9.77,0,0,1,3.84-3.81,11.2,11.2,0,0,1,5.54-1.36,11,11,0,0,1,5.44,1.34A9.6,9.6,0,0,1,152,14.18a11.41,11.41,0,0,1,1.35,5.63C153.39,20.15,153.36,20.63,153.31,21.25ZM138.9,14.33a5.81,5.81,0,0,0-2,3.69h11.81a5.71,5.71,0,0,0-1.91-3.67,5.82,5.82,0,0,0-4-1.4A5.88,5.88,0,0,0,138.9,14.33Z"></path><path class="cls-1" d="M176.2,11.35c1.59,1.53,2.38,3.81,2.38,6.82V30.11H173.7V18.8a5.86,5.86,0,0,0-1.28-4.12,4.77,4.77,0,0,0-3.67-1.38,5.63,5.63,0,0,0-4.25,1.62,6.45,6.45,0,0,0-1.56,4.66V30.11h-4.87V9.28h4.64V12a7.56,7.56,0,0,1,3-2.18,11,11,0,0,1,4.13-.74A8.68,8.68,0,0,1,176.2,11.35Z"></path><path class="cls-1" d="M188.72,29a10,10,0,0,1-4-3.81,10.62,10.62,0,0,1-1.44-5.52,10.51,10.51,0,0,1,1.44-5.49,10.07,10.07,0,0,1,4-3.79,12.18,12.18,0,0,1,5.83-1.36,11.16,11.16,0,0,1,5.4,1.25,8.05,8.05,0,0,1,3.49,3.58l-3.74,2.19a6,6,0,0,0-2.25-2.17A6.53,6.53,0,0,0,190,15a6.34,6.34,0,0,0-1.8,4.73A6.37,6.37,0,0,0,190,24.43a6.56,6.56,0,0,0,7.48,1.06,6,6,0,0,0,2.25-2.17l3.74,2.19a8.35,8.35,0,0,1-3.53,3.6,11,11,0,0,1-5.36,1.27A12.18,12.18,0,0,1,188.72,29Z"></path><path class="cls-1" d="M226.82,21.25H210.48a5.67,5.67,0,0,0,2.24,3.65,7.34,7.34,0,0,0,4.51,1.35A7.57,7.57,0,0,0,222.88,24l2.62,3A8.79,8.79,0,0,1,222,29.52a14.07,14.07,0,0,1-10.88-.5,9.78,9.78,0,0,1-4-3.81,10.7,10.7,0,0,1-1.42-5.52A10.9,10.9,0,0,1,207,14.22a9.77,9.77,0,0,1,3.84-3.81,11.23,11.23,0,0,1,5.54-1.36,11,11,0,0,1,5.44,1.34,9.47,9.47,0,0,1,3.74,3.79,11.41,11.41,0,0,1,1.35,5.63C226.9,20.15,226.87,20.63,226.82,21.25Zm-14.41-6.92a5.86,5.86,0,0,0-2,3.69h11.82A5.68,5.68,0,0,0,216.37,13,5.9,5.9,0,0,0,212.41,14.33Z"></path><path class="cls-2" d="M31.84,29.29A3.35,3.35,0,0,1,31,27.92a3.79,3.79,0,0,1,.49-2.7c.92-1.79,5.05-7,11-13.67a11.36,11.36,0,0,1,3,7.49,11.1,11.1,0,0,1-2.16,6.55,11.44,11.44,0,0,1-5.92,4.06C36.41,29.92,33.41,30.77,31.84,29.29ZM24,20.3a2.35,2.35,0,0,0,1.17,1,3.19,3.19,0,0,0,2.62-.63c1.86-1.16,7-4.92,13.59-10.1a11.16,11.16,0,0,0-7.5-2.55,10.92,10.92,0,0,0-6.13,2.25,11.2,11.2,0,0,0-3.51,4.75C23.86,16.09,22.93,18.53,24,20.3Z"></path><polygon class="cls-3" points="29.4 13.33 29.93 13 30.46 13.33 30.32 12.72 30.79 12.32 30.17 12.27 29.93 11.69 29.69 12.27 29.07 12.32 29.55 12.72 29.4 13.33"></polygon><polygon class="cls-3" points="40.09 21.44 40.62 21.12 41.15 21.44 41.01 20.84 41.48 20.43 40.86 20.38 40.62 19.81 40.38 20.38 39.76 20.43 40.23 20.84 40.09 21.44"></polygon><polygon class="cls-3" points="32.6 15.38 32.81 15.26 33.01 15.38 32.96 15.15 33.14 14.99 32.9 14.97 32.81 14.75 32.72 14.97 32.47 14.99 32.66 15.15 32.6 15.38"></polygon><polygon class="cls-3" points="43.91 19.21 44.12 19.09 44.32 19.21 44.27 18.98 44.45 18.82 44.21 18.8 44.12 18.58 44.02 18.8 43.78 18.82 43.97 18.98 43.91 19.21"></polygon><polygon class="cls-3" points="26.81 15.56 27.05 15.42 27.29 15.56 27.23 15.29 27.44 15.1 27.16 15.08 27.05 14.81 26.94 15.08 26.66 15.1 26.87 15.29 26.81 15.56"></polygon><polygon class="cls-3" points="36.05 24.46 36.3 24.32 36.54 24.46 36.48 24.19 36.69 24 36.41 23.98 36.3 23.71 36.19 23.98 35.91 24 36.12 24.19 36.05 24.46"></polygon><polygon class="cls-3" points="33.5 10.27 33.74 10.12 33.99 10.27 33.92 9.99 34.14 9.81 33.85 9.78 33.74 9.52 33.63 9.78 33.35 9.81 33.57 9.99 33.5 10.27"></polygon><polygon class="cls-3" points="40.87 15.56 40.99 15.49 41.11 15.56 41.08 15.43 41.18 15.33 41.04 15.32 40.99 15.19 40.93 15.32 40.79 15.33 40.9 15.43 40.87 15.56"></polygon><polygon class="cls-3" points="38.76 27.29 38.93 27.18 39.1 27.29 39.05 27.09 39.2 26.96 39.01 26.95 38.93 26.77 38.85 26.95 38.66 26.96 38.81 27.09 38.76 27.29"></polygon><path class="cls-4" d="M43.69,8a.8.8,0,0,0-.34-.21c-.24-.07-.58,0-.92.54a3.66,3.66,0,0,1-.64.84.12.12,0,0,1-.2-.13A4.84,4.84,0,0,1,42.72,7a2.58,2.58,0,0,1,1.43-.45,6,6,0,0,1,.92,0,8.31,8.31,0,0,0-1.18,1.21h0l0,0Z"></path><path class="cls-5" d="M45,9.35a.73.73,0,0,1,.21.34c.07.24,0,.58-.54.92a3.66,3.66,0,0,0-.84.64.12.12,0,0,0,0,.14.12.12,0,0,0,.14.06,4.81,4.81,0,0,0,2.1-1.13,2.57,2.57,0,0,0,.44-1.43,5.3,5.3,0,0,0,0-.92,8.87,8.87,0,0,1-1.21,1.18h0l0,0Z"></path><path class="cls-6" d="M44,10.13l-.28.19A2,2,0,0,1,43,9.79a2.12,2.12,0,0,1-.28-.43s.07-.12.2-.31a38,38,0,0,1,3.28-4.4A2.93,2.93,0,0,1,47,4.14L47.23,4l.2-.08a6.34,6.34,0,0,1,1.73-.3.27.27,0,0,1,.17.06.21.21,0,0,1,.07.18,6.09,6.09,0,0,1-.3,1.76c0,.06-.05.13-.08.19S49,6,48.91,6.1a3.05,3.05,0,0,1-.5.73A37.87,37.87,0,0,1,44,10.13Z"></path><path class="cls-7" d="M44,10.13l-.28.19A2,2,0,0,1,43,9.79a2.12,2.12,0,0,1-.28-.43s.07-.12.2-.31a1.51,1.51,0,0,0,.41.66A2,2,0,0,0,44,10.13Z"></path><path class="cls-8" d="M48.91,6.1a6.05,6.05,0,0,1-1.13-.83A5.35,5.35,0,0,1,47,4.14L47.23,4a4.89,4.89,0,0,0,.75,1,5.58,5.58,0,0,0,1,.77C49,5.93,49,6,48.91,6.1Z"></path><path class="cls-9" d="M49.1,5.65a4.1,4.1,0,0,1-.51-.34,5.39,5.39,0,0,1-.45-.4,3.54,3.54,0,0,1-.71-1,6.34,6.34,0,0,1,1.73-.3.29.29,0,0,1,.18.07.22.22,0,0,1,.06.17,6.15,6.15,0,0,1-.24,1.56h0Z"></path><path class="cls-10" d="M42.85,10.3a.08.08,0,0,1-.08,0,0,0,0,0,1,0-.07,7.9,7.9,0,0,1,2.62-2.63.06.06,0,0,1,.09,0,.07.07,0,0,1,0,.09A8.09,8.09,0,0,1,42.85,10.3Z"></path><circle class="cls-3" cx="46.69" cy="6.37" r="0.82"></circle><path class="cls-11" d="M47.15,6.83h0a.67.67,0,0,1-.91,0h0a.49.49,0,0,1-.11-.14.61.61,0,0,1-.08-.3.59.59,0,0,1,0-.26.62.62,0,0,1,.15-.22.66.66,0,0,1,.92,0,.74.74,0,0,1,.14.22.8.8,0,0,1,.05.26.62.62,0,0,1-.09.3A.45.45,0,0,1,47.15,6.83Z"></path><path class="cls-12" d="M47.25,6.69a.62.62,0,0,0,.09-.3.8.8,0,0,0-.05-.26.74.74,0,0,0-.14-.22.66.66,0,0,0-.92,0l0,0a.66.66,0,0,1,1,.26.75.75,0,0,1,0,.26.67.67,0,0,1-.08.3.61.61,0,0,1-.07.1l0,0h0A.45.45,0,0,0,47.25,6.69Z"></path><polygon class="cls-13" points="43.26 9.71 43.26 9.71 43.26 9.71 43.26 9.71"></polygon></g></g></svg>