<svg xmlns="http://www.w3.org/2000/svg" xmlns:xlink="http://www.w3.org/1999/xlink" viewBox="0 0 213.01 217.85"><defs><style>.cls-1{fill:url(#linear-gradient);}.cls-2{fill:#ededed;}.cls-3{fill:url(#linear-gradient-2);}.cls-4{fill:url(#linear-gradient-3);}.cls-5{fill:#dadada;}.cls-6{fill:url(#linear-gradient-4);}.cls-7{fill:url(#linear-gradient-5);}.cls-8{fill:url(#linear-gradient-6);}.cls-9{fill:url(#linear-gradient-7);}.cls-10{fill:url(#linear-gradient-8);}.cls-11{fill:#010101;opacity:0.1;}.cls-12{fill:#fac236;}</style><linearGradient id="linear-gradient" x1="7.21" y1="130.98" x2="187.68" y2="130.98" gradientTransform="translate(-7.21 -3.97)" gradientUnits="userSpaceOnUse"><stop offset="0" stop-color="#7784ff"></stop><stop offset="1" stop-color="#27348b"></stop></linearGradient><linearGradient id="linear-gradient-2" x1="148.7" y1="34.6" x2="177.36" y2="34.6" gradientTransform="matrix(1, 0, 0, 1, 0, 0)" xlink:href="#linear-gradient"></linearGradient><linearGradient id="linear-gradient-3" x1="167.14" y1="49.84" x2="189.4" y2="49.84" gradientTransform="matrix(1, 0, 0, 1, 0, 0)" xlink:href="#linear-gradient"></linearGradient><linearGradient id="linear-gradient-4" x1="158.18" y1="49.63" x2="168.41" y2="49.63" gradientTransform="matrix(1, 0, 0, 1, 0, 0)" xlink:href="#linear-gradient"></linearGradient><linearGradient id="linear-gradient-5" x1="192.98" y1="11.61" x2="209.88" y2="11.61" gradientTransform="matrix(1, 0, 0, 1, 0, 0)" xlink:href="#linear-gradient"></linearGradient><linearGradient id="linear-gradient-6" x1="196.79" y1="8.22" x2="213.01" y2="8.22" gradientTransform="matrix(1, 0, 0, 1, 0, 0)" xlink:href="#linear-gradient"></linearGradient><linearGradient id="linear-gradient-7" x1="158.28" y1="43.46" x2="180.82" y2="43.46" gradientTransform="matrix(1, 0, 0, 1, 0, 0)" xlink:href="#linear-gradient"></linearGradient><linearGradient id="linear-gradient-8" x1="185.32" y1="22.39" x2="196.01" y2="22.39" gradientTransform="matrix(1, 0, 0, 1, 0, 0)" xlink:href="#linear-gradient"></linearGradient></defs><title>Asset 2</title><g id="Layer_2" data-name="Layer 2"><g id="Layer_1-2" data-name="Layer 1"><path class="cls-1" d="M68.59,210.84a26.06,26.06,0,0,1-6.75-11.19c-2.57-9.55,1.92-18.25,4-22.27,7.59-14.7,41.55-57.59,90.2-112.4,4.84,5.25,24.35,27.59,24.44,61.61a91.25,91.25,0,0,1-17.73,53.87c-2.59,3.51-19,25.07-48.68,33.4C106.12,216.09,81.44,223,68.59,210.84ZM4.22,136.94c1.24,2,4.19,6.64,9.63,8.55,7.92,2.79,16.32-1.89,21.56-5.16,15.25-9.53,57.2-40.46,111.75-83.13-5.58-4.61-28.46-22.44-61.69-20.93A90.12,90.12,0,0,0,35.05,54.8a92,92,0,0,0-28.87,39C2.91,102.34-4.78,122.36,4.22,136.94Z"></path><polygon class="cls-2" points="48.48 79.59 52.84 76.92 57.21 79.59 56.02 74.61 59.91 71.28 54.81 70.88 52.84 66.15 50.88 70.88 45.78 71.28 49.67 74.61 48.48 79.59"></polygon><polygon class="cls-2" points="136.38 146.34 140.75 143.67 145.12 146.34 143.93 141.36 147.81 138.04 142.71 137.63 140.75 132.9 138.78 137.63 133.68 138.04 137.57 141.36 136.38 146.34"></polygon><polygon class="cls-2" points="74.81 96.49 76.5 95.45 78.2 96.49 77.74 94.55 79.25 93.26 77.27 93.1 76.5 91.26 75.74 93.1 73.76 93.26 75.27 94.55 74.81 96.49"></polygon><polygon class="cls-2" points="167.83 127.99 169.53 126.96 171.23 127.99 170.77 126.06 172.28 124.76 170.29 124.61 169.53 122.77 168.77 124.61 166.78 124.76 168.29 126.06 167.83 127.99"></polygon><polygon class="cls-2" points="27.14 97.99 29.15 96.76 31.15 97.99 30.6 95.7 32.38 94.18 30.05 93.99 29.15 91.83 28.25 93.99 25.91 94.18 27.69 95.7 27.14 97.99"></polygon><polygon class="cls-2" points="103.22 171.19 105.22 169.96 107.22 171.19 106.67 168.91 108.46 167.38 106.12 167.19 105.22 165.03 104.32 167.19 101.98 167.38 103.76 168.91 103.22 171.19"></polygon><polygon class="cls-2" points="82.21 54.43 84.21 53.2 86.21 54.43 85.66 52.15 87.45 50.62 85.11 50.44 84.21 48.27 83.31 50.44 80.97 50.62 82.75 52.15 82.21 54.43"></polygon><polygon class="cls-2" points="142.78 97.99 143.78 97.38 144.78 97.99 144.51 96.85 145.4 96.08 144.23 95.99 143.78 94.91 143.33 95.99 142.16 96.08 143.05 96.85 142.78 97.99"></polygon><polygon class="cls-2" points="125.47 194.41 126.86 193.56 128.26 194.41 127.88 192.82 129.12 191.76 127.49 191.63 126.86 190.12 126.23 191.63 124.6 191.76 125.85 192.82 125.47 194.41"></polygon><path class="cls-3" d="M166,35.84a6.72,6.72,0,0,0-2.8-1.7c-2-.58-4.81-.16-7.57,4.43a31.79,31.79,0,0,1-5.28,6.89,1,1,0,0,1-1.17.14,1,1,0,0,1-.46-1.17C150.14,39.89,153.36,31,158,27.2c3.11-2.51,7.78-3.4,11.77-3.65a45.18,45.18,0,0,1,7.55.18,75.45,75.45,0,0,0-9.7,10h0l-.18.24C167,34.57,166.48,35.21,166,35.84Z"></path><path class="cls-4" d="M177,46.84a6.69,6.69,0,0,1,1.7,2.8c.58,2,.16,4.81-4.43,7.57a31.79,31.79,0,0,0-6.89,5.28,1,1,0,0,0-.14,1.17,1,1,0,0,0,1.17.47c4.54-1.4,13.45-4.62,17.23-9.3,2.51-3.11,3.4-7.78,3.65-11.77a46.89,46.89,0,0,0-.17-7.55,76.07,76.07,0,0,1-10,9.7h0l-.24.19C178.3,45.91,177.66,46.39,177,46.84Z"></path><path class="cls-5" d="M168.41,53.3l-2.32,1.53a17,17,0,0,1-5.6-4.33,18,18,0,0,1-2.31-3.58l1.63-2.48c4.87-7.35,19.44-28.94,27-36.23A24,24,0,0,1,193,4c.7-.34,1.41-.66,2.13-.94.55-.23,1.12-.43,1.68-.63A50.41,50.41,0,0,1,211,0a1.94,1.94,0,0,1,2,2,50,50,0,0,1-2.54,14.44c-.18.52-.38,1-.59,1.57-.29.71-.6,1.43-.95,2.13a24.14,24.14,0,0,1-4.13,6C197.46,33.82,175.61,48.54,168.41,53.3Z"></path><path class="cls-6" d="M168.41,53.3l-2.32,1.53a17,17,0,0,1-5.6-4.33,18,18,0,0,1-2.31-3.58l1.63-2.48a13.27,13.27,0,0,0,3.4,5.36A16.29,16.29,0,0,0,168.41,53.3Z"></path><path class="cls-7" d="M208.93,20.14a46.6,46.6,0,0,1-9.24-6.83A43.62,43.62,0,0,1,193,4c.7-.34,1.41-.66,2.13-.94a41.62,41.62,0,0,0,6.21,8.59A43.77,43.77,0,0,0,209.88,18C209.59,18.72,209.27,19.44,208.93,20.14Z"></path><path class="cls-8" d="M210.47,16.44a35,35,0,0,1-4.19-2.84,38.69,38.69,0,0,1-3.68-3.26,28.25,28.25,0,0,1-5.81-7.88A50.41,50.41,0,0,1,211,0a1.93,1.93,0,0,1,1.46.6A2,2,0,0,1,213,2a51.18,51.18,0,0,1-2,12.79h0Q210.76,15.62,210.47,16.44Z"></path><path class="cls-9" d="M159.1,54.68a.58.58,0,0,1-.77-.77c4-9,16.39-18.11,21.58-21.62a.58.58,0,0,1,.74.07.57.57,0,0,1,.06.74C177.21,38.29,168.15,50.68,159.1,54.68Z"></path><circle class="cls-2" cx="190.67" cy="22.39" r="6.76" transform="translate(-0.14 1.24) rotate(-0.37)"></circle><path class="cls-10" d="M194.45,26.17l0,0a5.36,5.36,0,0,1-7.47,0l-.05,0A5.2,5.2,0,0,1,186,25a5.34,5.34,0,0,1-.68-2.45,5.38,5.38,0,0,1,1.56-3.94,5.35,5.35,0,0,1,7.57,0,5.37,5.37,0,0,1,0,7.56Z"></path><path class="cls-11" d="M195.33,25a5.36,5.36,0,0,0-.88-6.39,5.35,5.35,0,0,0-7.57,0c-.1.1-.2.21-.29.32A5.34,5.34,0,0,1,195,21a5.29,5.29,0,0,1,.38,2.14,5.38,5.38,0,0,1-.68,2.46,4.73,4.73,0,0,1-.59.84l.28-.25,0,0A5.2,5.2,0,0,0,195.33,25Z"></path><polygon class="cls-12" points="162.49 49.85 162.49 49.85 162.48 49.84 162.49 49.85"></polygon></g></g></svg>