<svg xmlns="http://www.w3.org/2000/svg" viewBox="0 0 167 158.76"><defs><style>.cls-1,.cls-5,.cls-6{fill:none;}.cls-1,.cls-5,.cls-6,.cls-7,.cls-8{stroke:#2d4356;stroke-linecap:round;stroke-linejoin:round;}.cls-2{fill:#2d4356;}.cls-3{fill:#7784ff;}.cls-4{fill:#fff;}.cls-5{stroke-width:4px;}.cls-6,.cls-7,.cls-8{stroke-width:0.75px;}.cls-7{fill:#888;}.cls-8{fill:#eee;}</style></defs><title>Asset 1</title><g id="Layer_2" data-name="Layer 2"><g id="Layer_1-2" data-name="Layer 1"><rect class="cls-1" x="43.05" y="50.54" width="104.05" height="68.21" transform="translate(190.16 169.29) rotate(180)"/><g id="Politically_Incorrect" data-name="Politically Incorrect"><circle class="cls-2" cx="2" cy="141.76" r="2"/><path class="cls-3" d="M117.2,148.76h-8.3a2,2,0,0,0-1.8,2.2,1.93,1.93,0,0,0,1.8,1.8h8.3a2,2,0,0,0,1.8-2.2A2.12,2.12,0,0,0,117.2,148.76Zm-60,0H48.9a2,2,0,0,0-1.8,2.2,1.93,1.93,0,0,0,1.8,1.8h8.3a2,2,0,0,0,1.8-2.2A2.12,2.12,0,0,0,57.2,148.76Zm45.8,0H63a2,2,0,0,0,0,4H78.9v2H71a2,2,0,0,0,0,4H96a2,2,0,0,0,0-4H87.1v-2H103a2,2,0,0,0,0-4Z"/><path class="cls-2" d="M10,139.76H7a2,2,0,0,0,0,4h3a2,2,0,0,0,0-4Zm149,0h-3a2,2,0,0,0,0,4h3a2,2,0,0,0,0-4Z"/><circle class="cls-2" cx="165" cy="141.76" r="2"/><path class="cls-2" d="M149.7,139.76H16.3a2.1,2.1,0,0,0-2.3,1.7,2,2,0,0,0,1.7,2.3H149.6a2.1,2.1,0,0,0,2.3-1.7,2,2,0,0,0-1.7-2.3Z"/><path class="cls-2" d="M155.66,42.39a1.8,1.8,0,1,0-1.8-1.8A1.79,1.79,0,0,0,155.66,42.39Z"/><path class="cls-4" d="M155.66,39.59a.9.9,0,1,1-.9.9A1,1,0,0,1,155.66,39.59Z"/><path class="cls-2" d="M156.56,7.84a1.8,1.8,0,1,0-1.8-1.8A1.79,1.79,0,0,0,156.56,7.84Z"/><path class="cls-4" d="M156.56,5a.9.9,0,1,1-.9.9A1,1,0,0,1,156.56,5Z"/><path class="cls-2" d="M62,3.6a1.8,1.8,0,1,0-1.8-1.8A1.79,1.79,0,0,0,62,3.6Z"/><path class="cls-4" d="M62,.8a.9.9,0,1,1-.9.9A1,1,0,0,1,62,.8Z"/><path class="cls-2" d="M76.52,34.57A2.6,2.6,0,1,0,73.93,32,2.58,2.58,0,0,0,76.52,34.57Z"/><path class="cls-4" d="M76.52,30.54a1.3,1.3,0,1,1-1.29,1.29A1.39,1.39,0,0,1,76.52,30.54Z"/><path class="cls-2" d="M33.6,26.84a1.44,1.44,0,1,0-1.44-1.44A1.43,1.43,0,0,0,33.6,26.84Z"/><path class="cls-4" d="M33.6,24.6a.72.72,0,1,1-.72.72A.77.77,0,0,1,33.6,24.6Z"/><polygon class="cls-3" points="7.3 56.4 5.8 58.2 6.7 58.8 7.7 56.59 7.7 56.59 8.7 58.8 9.6 58.2 8.2 56.4 8.2 56.3 10.5 56.59 10.5 55.59 8.2 55.9 8.2 55.9 9.6 53.9 8.7 53.4 7.8 55.59 7.7 55.59 6.8 53.4 5.8 53.99 7.3 55.8 7.3 55.9 5 55.59 5 56.59 7.3 56.3 7.3 56.4"/><polygon class="cls-3" points="11.01 5.5 10 6.71 10.61 7.12 11.28 5.64 11.28 5.64 11.95 7.12 12.56 6.71 11.61 5.5 11.61 5.43 13.16 5.64 13.16 4.96 11.61 5.17 11.61 5.17 12.56 3.82 11.95 3.48 11.35 4.96 11.28 4.96 10.67 3.48 10 3.89 11.01 5.1 11.01 5.17 9.46 4.96 9.46 5.64 11.01 5.43 11.01 5.5"/><polygon class="cls-3" points="99.69 7.44 98.05 9.4 99.03 10.05 100.12 7.66 100.12 7.66 101.21 10.05 102.19 9.4 100.66 7.44 100.66 7.33 103.17 7.66 103.17 6.57 100.66 6.9 100.66 6.9 102.19 4.72 101.21 4.18 100.23 6.57 100.12 6.57 99.14 4.18 98.05 4.83 99.69 6.79 99.69 6.9 97.18 6.57 97.18 7.66 99.69 7.33 99.69 7.44"/><polygon class="cls-3" points="132.57 26.15 131.41 27.54 132.11 28 132.88 26.31 132.88 26.31 133.65 28 134.34 27.54 133.26 26.15 133.26 26.08 135.04 26.31 135.04 25.54 133.26 25.77 133.26 25.77 134.34 24.23 133.65 23.84 132.96 25.54 132.88 25.54 132.19 23.84 131.41 24.3 132.57 25.69 132.57 25.77 130.8 25.54 130.8 26.31 132.57 26.08 132.57 26.15"/></g><rect class="cls-5" x="18.8" y="49.78" width="128.3" height="81.33"/><line class="cls-5" x1="69.19" y1="131.1" x2="64.79" y2="141.71"/><line class="cls-5" x1="96.47" y1="131.1" x2="100.86" y2="141.68"/><rect class="cls-5" x="18.8" y="49.78" width="128.3" height="69.62"/><path class="cls-2" d="M35.06,64.55l1.37-2.87.66-.65a.89.89,0,0,0,1-.17l1.1-1.1a.3.3,0,0,0-.43-.43l-1.1,1.1a.3.3,0,0,1-.41,0h0l-3.05-3.05h0a.3.3,0,0,1,0-.41l1.1-1.1a.3.3,0,0,0-.43-.43l-1.1,1.1a.89.89,0,0,0-.17,1l-.65.66-2.87,1.37a.29.29,0,0,0-.17.23l-.32,1.91A10.38,10.38,0,0,1,28,65.83L27.21,67a.3.3,0,0,0,0,.38h0a.29.29,0,0,0,.38,0l1.22-.8A10.42,10.42,0,0,1,33,65l1.86-.3a.31.31,0,0,0,.23-.17Zm1.55-3.92-.43.44-2.61-2.61L34,58Zm-3.74,3.79a10.76,10.76,0,0,0-3.29,1.07l1.82-1.82a.3.3,0,1,0-.43-.43l-1.82,1.81a11,11,0,0,0,1.06-3.23l.29-1.75,2.57-1.24,2.74,2.74-1.24,2.57Z"/><path class="cls-2" d="M33.79,60.85a1.23,1.23,0,1,0,0,1.74A1.23,1.23,0,0,0,33.79,60.85Zm-1.3,1.3a.62.62,0,1,1,.87,0A.62.62,0,0,1,32.49,62.15Z"/><line class="cls-6" x1="36.39" y1="72.45" x2="26.9" y2="81.94"/><rect class="cls-6" x="26.21" y="88.94" width="5.44" height="5.44"/><circle class="cls-7" cx="30.93" cy="93.66" r="2.72"/><circle class="cls-8" cx="32.93" cy="95.66" r="2.72"/><path class="cls-2" d="M34.93,107.29c-.06-.13-.12-.26-.2-.4a3.89,3.89,0,0,0-.25-.4l-.24-.34-.2-.23a1.28,1.28,0,0,0-.5-.29,3.61,3.61,0,0,0-.67-.08H31.5v.74c0,.31,0,.63,0,1v4.22c0,.21,0,.41,0,.6a.75.75,0,0,0,.1.4.77.77,0,0,0,.46.32,4.51,4.51,0,0,0,.53.13V113H29.09v-.11a3,3,0,0,0,.54-.1,1.1,1.1,0,0,0,.51-.36.38.38,0,0,0,.08-.18,1.88,1.88,0,0,0,0-.28,3.31,3.31,0,0,0,0-.34v-.35c0-.11,0-.24,0-.4s0-.35,0-.55v-4.82H28.94a2.37,2.37,0,0,0-.67.1,1.33,1.33,0,0,0-.49.3,1.22,1.22,0,0,0-.2.23q-.12.15-.24.33c-.08.12-.16.24-.24.38s-.13.27-.18.4l-.09,0,.32-2.05.46.08a4,4,0,0,0,.61,0h5.4a4,4,0,0,0,.58-.06l.48-.13.35,2.11Z"/><path class="cls-2" d="M114.67,62.11A3.78,3.78,0,0,0,111,64.92H97.78V63.07a1,1,0,0,0-1-1H91.2a1,1,0,0,0-1,1v1.85H77a3.76,3.76,0,1,0,0,1.91H87a14,14,0,0,0-6.48,8.34H78.16a1,1,0,0,0-1,1v5.61a1,1,0,0,0,1,1h2.37a13.91,13.91,0,0,0,5.06,7.41l-1.32,2.82a1,1,0,0,0,0,.76.94.94,0,0,0,.54.53,3.93,3.93,0,0,1,2.41,4.53,3.24,3.24,0,0,0,.72,6.4H88v4.75a1,1,0,0,0,1,1H99.1a1,1,0,0,0,1-1v-4.75h.06a3.24,3.24,0,0,0,.72-6.4,3.93,3.93,0,0,1,2.41-4.53.94.94,0,0,0,.54-.53,1,1,0,0,0,0-.76l-1.31-2.8a13.82,13.82,0,0,0,5.09-7.43h2.37a1,1,0,0,0,1-1V76.12a1,1,0,0,0-1-1h-2.37a14,14,0,0,0-6.47-8.34h10a3.77,3.77,0,1,0,3.65-4.72ZM73.36,67.72a1.85,1.85,0,1,1,1.86-1.85A1.86,1.86,0,0,1,73.36,67.72ZM92.16,64h3.71v3.7H92.16ZM81.26,80.78H79.11v-3.7h3.72v3.7Zm16.88,28.15H89.89v-3.79h8.25v3.79Zm3.31-7a1.34,1.34,0,0,1-1.34,1.33H87.92a1.34,1.34,0,1,1,0-2.67h12.19a1.34,1.34,0,0,1,1.34,1.34Zm5.35-24.82H109v3.7h-3.72v-3.7h1.56Zm-1.25-1.91h-1.26a1,1,0,0,0-1,1v5.61a1,1,0,0,0,1,1h1.26a12,12,0,0,1-3.93,5.66l-.69-1.45a1,1,0,1,0-1.72.81l1.18,2.53h0l1.24,2.63a5.81,5.81,0,0,0-2.76,5.78H89.15a5.82,5.82,0,0,0-2.75-5.78l6.66-14.19V87.6a3.22,3.22,0,1,0,1.91,0V78.7l.6,1.27a1,1,0,0,0,1.73-.81L94.88,74a1,1,0,0,0-1.73,0L86.43,88.33a12,12,0,0,1-3.91-5.64h1.26a1,1,0,0,0,1-1V76.12a1,1,0,0,0-1-1H82.52a12.15,12.15,0,0,1,7.73-7.72v1.23a1,1,0,0,0,1,.95h5.63a1,1,0,0,0,1-.95V67.43a12.13,12.13,0,0,1,7.77,7.74ZM94,89.36a1.3,1.3,0,1,1-1.31,1.3A1.31,1.31,0,0,1,94,89.36Zm20.65-21.64a1.85,1.85,0,1,1,1.86-1.85A1.85,1.85,0,0,1,114.67,67.72Z"/><path class="cls-2" d="M97.3,83.44h0a1,1,0,1,0,1-1,.95.95,0,0,0-1,1Z"/></g></g></svg>