<svg xmlns="http://www.w3.org/2000/svg" id="Layer_1" width="32" height="32" viewBox="0 0 32 32"><path id="path7" fill-rule="evenodd" d="M 16 0.015625 C 7.157057 0.015625 0 7.172682 0 16.015625 C 0 24.826758 7.188867 31.984375 16 31.984375 C 24.842942 31.984375 32 24.826758 32 16.015625 C 32 7.172682 24.842942 0.015625 16 0.015625 z M 15.150391 6 L 15.199219 6 C 15.182698 6.0013486 15.166887 6.0044324 15.150391 6.0058594 L 15.150391 9.75 L 15.150391 9.9492188 L 15.349609 9.9492188 L 15.650391 9.9492188 L 15.650391 14.900391 C 15.300391 15.050391 15.000394 15.300391 14.900391 15.650391 L 10 15.650391 L 10 15.25 L 10 15.050781 L 9.8007812 15.050781 L 6 15.050781 C 6.4484828 10.266965 10.273994 6.4276679 15.150391 6.0058594 L 15.150391 6 z M 16.800781 6 C 21.700781 6.4 25.549999 10.199609 26 15.099609 L 22.150391 15.099609 L 21.949219 15.099609 L 21.949219 15.300781 L 21.949219 15.699219 L 17.050781 15.699219 C 16.950781 15.349219 16.650781 15.049219 16.300781 14.949219 L 16.300781 9.9492188 L 16.599609 9.9492188 L 16.800781 9.9492188 L 16.800781 9.75 L 16.800781 6 z M 10.050781 16.300781 L 14.900391 16.349609 C 15.000391 16.699609 15.299219 16.999609 15.699219 17.099609 L 15.699219 21.900391 L 15.400391 21.900391 L 15.199219 21.900391 L 15.199219 22.099609 L 15.199219 26 C 10.249219 25.6 6.35 21.649219 6 16.699219 L 9.8496094 16.699219 L 10.050781 16.699219 L 10.050781 16.5 L 10.050781 16.300781 z M 17.050781 16.300781 L 21.949219 16.300781 L 21.949219 16.5 L 21.949219 16.699219 L 22.150391 16.699219 L 26 16.699219 C 25.65 21.699219 21.750781 25.6 16.800781 26 L 16.800781 22 L 16.800781 21.800781 L 16.599609 21.800781 L 16.300781 21.800781 L 16.300781 17.050781 C 16.650781 16.950781 16.950778 16.650781 17.050781 16.300781 z " clip-rule="evenodd"></path></svg>