<?xml version="1.0" encoding="utf-8"?>
<!-- Generator: Adobe Illustrator 25.2.0, SVG Export Plug-In . SVG Version: 6.00 Build 0)  -->
<svg version="1.1" id="Layer_1" xmlns="http://www.w3.org/2000/svg" xmlns:xlink="http://www.w3.org/1999/xlink" x="0px" y="0px"
	 viewBox="0 0 595.3 163.8" style="enable-background:new 0 0 595.3 163.8;" xml:space="preserve">
<g>
	<g>
		<g>
			<path d="M74.3,110.1c10.2,0,20.3,0,30.5,0v7.2h-38c0-18.4,0-36.8,0-55.2c12.4,0,24.9-0.1,37.3-0.1c0,2.4,0,4.9,0,7.3
				c-9.9,0-19.8,0-29.8,0v16.2h25.6v6.9H74.3C74.3,98.3,74.3,104.2,74.3,110.1z"/>
			<path d="M60.2,61.4c4.3-3.2,10.3-7,18-10.2c7.3-3.1,14-4.6,19.2-5.5c1.7,4.1,3.4,8.3,5.1,12.4c-2.1,0-5.5,0.4-9.3,2.1
				c-4.4,2-7.1,4.8-8.5,6.4c-2.3-0.2-6.9-0.3-11.9,1.9c-3.3,1.5-5.7,3.5-7.1,4.9C63.8,69.4,62,65.4,60.2,61.4z"/>
			<g>
				<path d="M109.3,36.2c-12.5,0-25.1,0-37.6,0c-8,7.7-15.9,15.4-23.9,23.1c0.4,1.1,0.9,2.2,1.3,3.2c3.1-0.1,6.3-0.1,9.4-0.2
					c0.9-1.4,2.4-3.4,4.6-5.4c1.5-1.4,3.8-3.2,13.5-7.2c6.7-2.8,10.1-4.2,13.7-4.6c4.1-0.5,7.5-0.1,9.8,0.3c3.2-3.1,6.5-6.1,9.7-9.2
					C109.7,36.2,109.5,36.2,109.3,36.2z"/>
				<path d="M44.3,62.6c1.6,0,3.2-0.1,4.8-0.1l-1.3-3.2C46.6,60.4,45.5,61.5,44.3,62.6z"/>
			</g>
			<ellipse cx="52" cy="71.6" rx="2.4" ry="3.5"/>
			<path d="M50.9,75.7c0.8,0,1.6,0.1,2.4,0.1c0.5,3.9,1,7.9,1.5,11.8c-0.9-1.1-1.7-2.1-2.6-3.2c-0.9,1.2-1.9,2.3-2.8,3.5
				C49.9,83.9,50.4,79.8,50.9,75.7z"/>
			<rect x="50.9" y="59.3" width="2.4" height="7.2"/>
		</g>
		<g>
			<circle cx="249.6" cy="85.1" r="3.9"/>
			<path d="M249.6,47.9c-10.9,0-20.8,4.7-27.6,12.2l1.4,1.4c6.5-7.2,15.8-11.7,26.2-11.7c10.4,0,19.8,4.5,26.2,11.7l1.4-1.4
				C270.4,52.6,260.6,47.9,249.6,47.9z"/>
			<path d="M250.6,56.2c-8.6,0-16.7,3.8-22.2,10.4l-0.1,0.2l1.4,1.4l0.2-0.2c5.2-6.2,12.7-9.8,20.8-9.8c7.5,0,14.8,3.2,19.9,8.8
				l0.2,0.2l1.4-1.4l-0.2-0.2C266.4,59.6,258.7,56.2,250.6,56.2z"/>
			<path d="M249.6,64.7c-6.3,0-11.9,2.9-15.7,7.3l1.4,1.4c3.4-4.1,8.5-6.8,14.2-6.8c5.8,0,10.9,2.7,14.3,6.8l1.4-1.4
				C261.6,67.6,255.9,64.7,249.6,64.7z"/>
			<path d="M249.6,72.9c-4,0-7.6,1.9-9.8,5l1.4,1.4c1.8-2.6,4.9-4.4,8.4-4.4s6.6,1.8,8.4,4.5l1.4-1.4
				C257.2,74.9,253.6,72.9,249.6,72.9z"/>
		</g>
		<g>
			<path d="M116.6,94.4c0-4.1,0.9-7.9,2.6-11.3s4.1-6.2,7.1-8.2c3-2.1,6.5-3.1,10.3-3.1c3.5,0,6.7,0.9,9.5,2.8s5,4.1,6.6,6.7V54.6
				h7.4v53.1c0,0.9,0.2,1.6,0.5,2c0.4,0.4,1,0.7,1.8,0.7v5.7c-1.4,0.2-2.5,0.3-3.3,0.3c-1.5,0-2.7-0.5-3.8-1.5s-1.6-2.1-1.6-3.4
				v-3.7c-1.7,2.8-4.1,5-7,6.7c-2.9,1.6-6,2.4-9.1,2.4c-3,0-5.8-0.6-8.4-1.8c-2.6-1.2-4.8-2.9-6.7-5c-1.9-2.1-3.3-4.5-4.4-7.2
				C117.1,100.2,116.6,97.4,116.6,94.4z M152.7,100.8V88.3c-0.7-1.9-1.8-3.6-3.3-5.1s-3.2-2.8-5.1-3.7c-1.9-0.9-3.8-1.4-5.6-1.4
				c-2.2,0-4.2,0.5-5.9,1.4c-1.8,0.9-3.3,2.1-4.6,3.7c-1.3,1.5-2.2,3.3-2.9,5.2c-0.7,1.9-1,4-1,6.1c0,2.2,0.4,4.2,1.1,6.2
				c0.8,1.9,1.8,3.7,3.2,5.2s3,2.7,4.8,3.5s3.8,1.3,5.9,1.3c1.3,0,2.7-0.3,4.2-0.8c1.4-0.5,2.8-1.2,4.1-2.1s2.4-1.9,3.3-3.1
				C151.8,103.4,152.4,102.1,152.7,100.8z"/>
			<path d="M216.6,116.1h-7.4V91.7c0-4.5-0.8-7.8-2.4-10c-1.6-2.2-3.9-3.3-6.9-3.3c-1.9,0-3.8,0.5-5.8,1.5c-1.9,1-3.6,2.3-5.1,4
				s-2.5,3.7-3.2,5.9v26.3h-7.4V54.5h7.4v27.3c1.7-3.1,4.1-5.6,7.1-7.4s6.3-2.7,9.7-2.7c2.6,0,4.9,0.5,6.6,1.4
				c1.8,0.9,3.2,2.2,4.3,3.9s1.8,3.6,2.3,5.8s0.7,4.6,0.7,7.2L216.6,116.1L216.6,116.1z"/>
			<path d="M235.1,128.1c0.7,0.1,1.5,0.1,2.2,0.2s1.3,0.1,1.7,0.1c0.9,0,1.7-0.3,2.4-0.9s1.4-1.8,2.2-3.6c0.8-1.8,1.9-4.3,3.2-7.8
				l-18.6-43.9h7.8l14.8,36.4l13.4-36.4h7.3l-21.4,55.4c-0.5,1.3-1.3,2.5-2.2,3.7c-1,1.1-2.2,2.1-3.8,2.7c-1.5,0.7-3.3,1-5.5,1
				c-0.5,0-1,0-1.6-0.1c-0.5-0.1-1.2-0.2-2-0.3v-6.5L235.1,128.1L235.1,128.1z"/>
			<path d="M280.3,103.5c0-2.8,0.8-5.2,2.4-7.3c1.6-2,3.8-3.6,6.6-4.7c2.8-1.1,6.1-1.7,9.8-1.7c2,0,4,0.2,6.2,0.5s4.1,0.8,5.8,1.4
				v-3.2c0-3.3-1-5.9-3-7.9s-4.9-2.9-8.6-2.9c-2.4,0-4.7,0.4-7,1.3c-2.2,0.9-4.6,2.1-7,3.8l-2.7-5.2c2.9-2,5.7-3.4,8.6-4.4
				s5.8-1.5,8.9-1.5c5.6,0,10.1,1.5,13.3,4.6c3.3,3.1,4.9,7.4,4.9,12.9v18.5c0,0.9,0.2,1.5,0.5,2c0.4,0.4,1,0.7,1.8,0.7v5.7
				c-0.7,0.1-1.4,0.2-1.9,0.3s-1,0.1-1.3,0.1c-1.7,0-3.1-0.5-3.9-1.4c-0.9-1-1.4-2-1.5-3l-0.2-2.8c-1.9,2.5-4.4,4.4-7.5,5.7
				s-6.2,2-9.2,2c-2.9,0-5.5-0.6-7.8-1.8s-4.1-2.8-5.4-4.9C281,108.3,280.3,106,280.3,103.5z M309,106.6c0.7-0.8,1.2-1.6,1.6-2.4
				s0.6-1.5,0.6-2v-5.4c-1.7-0.7-3.6-1.2-5.5-1.5c-1.9-0.4-3.8-0.5-5.7-0.5c-3.8,0-6.8,0.7-9.2,2.2c-2.3,1.5-3.5,3.5-3.5,6.1
				c0,1.4,0.4,2.7,1.1,4c0.8,1.3,1.9,2.4,3.4,3.2s3.3,1.3,5.5,1.3c2.3,0,4.5-0.5,6.6-1.4C306.1,109.1,307.8,107.9,309,106.6z"/>
			<path d="M333,103.5c0-2.8,0.8-5.2,2.4-7.3c1.6-2,3.8-3.6,6.6-4.7c2.8-1.1,6.1-1.7,9.8-1.7c2,0,4,0.2,6.2,0.5s4.1,0.8,5.8,1.4
				v-3.2c0-3.3-1-5.9-3-7.9s-4.9-2.9-8.6-2.9c-2.4,0-4.7,0.4-7,1.3c-2.2,0.9-4.6,2.1-7,3.8l-2.7-5.2c2.9-2,5.7-3.4,8.6-4.4
				s5.8-1.5,8.9-1.5c5.6,0,10.1,1.5,13.3,4.6c3.3,3.1,4.9,7.4,4.9,12.9v18.5c0,0.9,0.2,1.5,0.5,2c0.4,0.4,1,0.7,1.8,0.7v5.7
				c-0.7,0.1-1.4,0.2-1.9,0.3s-1,0.1-1.3,0.1c-1.7,0-3.1-0.5-3.9-1.4c-0.9-1-1.4-2-1.5-3l-0.2-2.8c-1.9,2.5-4.4,4.4-7.5,5.7
				s-6.2,2-9.2,2c-2.9,0-5.5-0.6-7.8-1.8s-4.1-2.8-5.4-4.9C333.6,108.3,333,106,333,103.5z M361.6,106.6c0.7-0.8,1.2-1.6,1.6-2.4
				s0.6-1.5,0.6-2v-5.4c-1.7-0.7-3.6-1.2-5.5-1.5c-1.9-0.4-3.8-0.5-5.7-0.5c-3.8,0-6.8,0.7-9.2,2.2c-2.3,1.5-3.5,3.5-3.5,6.1
				c0,1.4,0.4,2.7,1.1,4c0.8,1.3,1.9,2.4,3.4,3.2s3.3,1.3,5.5,1.3c2.3,0,4.5-0.5,6.6-1.4C358.7,109.1,360.4,107.9,361.6,106.6z"/>
			<path d="M412.7,117c-3.6,0-6.8-0.9-9.6-2.7c-2.8-1.8-5-4-6.7-6.8v26.6H389V72.4h6.6v8.3c1.7-2.7,4-4.8,6.8-6.5
				c2.8-1.6,5.9-2.5,9.2-2.5c3,0,5.8,0.6,8.4,1.8c2.5,1.2,4.7,2.9,6.6,5s3.3,4.5,4.3,7.2s1.6,5.5,1.6,8.5c0,4.1-0.8,7.9-2.5,11.4
				s-4,6.2-7,8.2C420.1,115.9,416.6,117,412.7,117z M410.5,110.6c2.2,0,4.2-0.5,5.9-1.4c1.8-0.9,3.3-2.1,4.6-3.7
				c1.3-1.5,2.2-3.3,2.9-5.2c0.7-1.9,1-4,1-6c0-2.2-0.4-4.2-1.1-6.2c-0.8-1.9-1.8-3.7-3.2-5.2c-1.4-1.5-3-2.7-4.8-3.5
				c-1.8-0.9-3.8-1.3-5.9-1.3c-1.3,0-2.7,0.3-4.2,0.7c-1.4,0.5-2.8,1.2-4.1,2.1c-1.3,0.9-2.4,2-3.3,3.1c-0.9,1.2-1.5,2.4-1.8,3.7
				v12.5c0.8,1.9,2,3.6,3.4,5.2s3,2.8,4.9,3.7C406.6,110.1,408.5,110.6,410.5,110.6z"/>
			<path d="M444,103.5c0-2.8,0.8-5.2,2.4-7.3c1.6-2,3.8-3.6,6.6-4.7c2.8-1.1,6.1-1.7,9.8-1.7c2,0,4,0.2,6.2,0.5s4.1,0.8,5.8,1.4
				v-3.2c0-3.3-1-5.9-3-7.9s-4.9-2.9-8.6-2.9c-2.4,0-4.7,0.4-7,1.3c-2.2,0.9-4.6,2.1-7,3.8l-2.7-5.2c2.9-2,5.7-3.4,8.6-4.4
				s5.8-1.5,8.9-1.5c5.6,0,10.1,1.5,13.3,4.6c3.3,3.1,4.9,7.4,4.9,12.9v18.5c0,0.9,0.2,1.5,0.5,2c0.4,0.4,1,0.7,1.8,0.7v5.7
				c-0.7,0.1-1.4,0.2-1.9,0.3s-1,0.1-1.3,0.1c-1.7,0-3.1-0.5-3.9-1.4c-0.9-1-1.4-2-1.5-3l-0.2-2.8c-1.9,2.5-4.4,4.4-7.5,5.7
				s-6.2,2-9.2,2c-2.9,0-5.5-0.6-7.8-1.8s-4.1-2.8-5.4-4.9C444.7,108.3,444,106,444,103.5z M472.7,106.6c0.7-0.8,1.2-1.6,1.6-2.4
				s0.6-1.5,0.6-2v-5.4c-1.7-0.7-3.6-1.2-5.5-1.5c-1.9-0.4-3.8-0.5-5.7-0.5c-3.8,0-6.8,0.7-9.2,2.2c-2.3,1.5-3.5,3.5-3.5,6.1
				c0,1.4,0.4,2.7,1.1,4c0.8,1.3,1.9,2.4,3.4,3.2s3.3,1.3,5.5,1.3c2.3,0,4.5-0.5,6.6-1.4C469.8,109.1,471.5,107.9,472.7,106.6z"/>
			<path d="M531.2,116.1l-15.3-21.3l-8.4,7.8v13.5h-7.4V54.5h7.4v40.3l22.8-22.5h8l-17.5,18.1l18.4,25.7
				C539.2,116.1,531.2,116.1,531.2,116.1z"/>
		</g>
	</g>
</g>
</svg>
