<svg xmlns="http://www.w3.org/2000/svg" viewBox="0 0 500 500"><defs><style>.cls-1{fill:#e0e0e0;}.cls-2{fill:#ebebeb;}.cls-3{fill:#f5f5f5;}.cls-4{fill:#708bfc;}.cls-5{opacity:0.8;}.cls-15,.cls-6{fill:#fff;}.cls-7{fill:#29499b;}.cls-8{fill:#ffbe9d;}.cls-9{fill:#263238;}.cls-10{fill:#fafafa;}.cls-11{fill:#455a64;}.cls-12{opacity:0.4;}.cls-13{fill:#e8505b;}.cls-14,.cls-15{opacity:0.6;}.cls-16{fill:#d79870;}.cls-17{opacity:0.2;}.cls-18{fill:#365fac;}.cls-19{fill:#4d88cf;}.cls-20{opacity:0.3;}.cls-21{fill:#273489;}</style></defs><title>Events</title><g id="Windows"><path class="cls-1" d="M327,85.81h65.75s-5.81-10.58-22.73-9c-16.17,1.47-17-5.2-25.21-6S329.73,76.22,327,85.81Z"/><path class="cls-2" d="M155.13,259.63s-6.58,3.56,3,17.32S174,297.31,174,297.31s1.81,3.25-1,4.19-9.32.79-10.13,4.51,2.32,6.95,8.14,9.24,18.4,7.78,19.54,8.28,2.36,2,.54,2.89-15.93,4.41-13.89,11,19.32,10.32,21.21,10.77,2.41,1.14,2.4,2.14-4.87,1.72-8.84,2.87-8.38,3.18-6.88,6.89,12.35,10.44,36.33,9.5l11.08-1.17,4.72-10.15c8.78-22.33,6-34.8,3-37.43s-6.38.86-8.77,4.23-4.67,7.72-5.62,7.4-1.43-1.05-1.23-3,2.37-19.45-3.19-23.56-13.48,8.09-15,9.5-2.45-.26-2.55-1.47-1.15-14.92-1.4-21.17-2.13-10.24-6.05-10.73c-3.77-.46-5.78,5.73-7.59,8.08s-4.28-.42-4.28-.42-4.18-8.07-14-21.65S155,259.71,155,259.71"/><path class="cls-1" d="M233.39,371c-7.19-10-19.66-28-30.45-43.39s-20.56-29.3-27.7-39.34c-3.56-5-6.45-9.06-8.46-11.88l-2.3-3.23-.59-.85-.19-.29.22.27.62.83,2.35,3.19c2,2.78,5,6.81,8.55,11.82,7.19,10,17,23.9,27.78,39.28s23.23,33.41,30.37,43.45"/><path class="cls-1" d="M171.93,306.57a2.79,2.79,0,0,1,.8.11c.51.09,1.24.24,2.15.43,1.81.4,4.29,1,7,1.73l7,1.87,2.12.55a4.07,4.07,0,0,1,.77.23,3,3,0,0,1-.8-.1c-.51-.09-1.24-.24-2.14-.45-1.81-.41-4.29-1.05-7-1.77l-7-1.82-2.12-.54A3.85,3.85,0,0,1,171.93,306.57Z"/><path class="cls-1" d="M192.43,310.68c-.09,0,.93-5.19,2.3-11.56s2.54-11.51,2.63-11.49-.93,5.2-2.29,11.56S192.52,310.7,192.43,310.68Z"/><path class="cls-1" d="M207.93,335.06a4.48,4.48,0,0,1,.35-.74l1.06-2c.9-1.66,2.12-4,3.38-6.55s2.32-5,3.08-6.7l.89-2.05a5,5,0,0,1,.37-.74,4.48,4.48,0,0,1-.24.79c-.18.5-.45,1.22-.8,2.09-.7,1.76-1.72,4.16-3,6.76s-2.52,4.89-3.47,6.52c-.48.82-.87,1.47-1.16,1.92A3.36,3.36,0,0,1,207.93,335.06Z"/><path class="cls-1" d="M188.57,335.42a4,4,0,0,1,.75-.09l2.07-.12c1.74-.09,4.15-.18,6.81-.26s5.08-.14,6.82-.17h2.07a2.87,2.87,0,0,1,.76.05,4,4,0,0,1-.76.09L205,335c-1.75.08-4.15.18-6.82.26s-5.07.14-6.81.16h-2.07A3.26,3.26,0,0,1,188.57,335.42Z"/><path class="cls-1" d="M199.52,358.68a5.92,5.92,0,0,1,1-.11l2.64-.16c2.23-.12,5.32-.27,8.73-.41s6.5-.24,8.74-.3l2.65-.05a5.67,5.67,0,0,1,1,0,4.78,4.78,0,0,1-1,.11l-2.64.16c-2.24.13-5.32.27-8.73.41s-6.5.25-8.74.31l-2.65,0A4.94,4.94,0,0,1,199.52,358.68Z"/><path class="cls-1" d="M223.62,357.53a5.79,5.79,0,0,1,.43-.95L225.3,354c1.06-2.14,2.51-5.12,4-8.45s2.8-6.37,3.72-8.58c.44-1.07.81-1.95,1.09-2.62a5,5,0,0,1,.44-.95,6.58,6.58,0,0,1-.31,1c-.23.63-.56,1.54-1,2.66-.86,2.24-2.12,5.3-3.63,8.64s-3,6.29-4.11,8.42c-.56,1.06-1,1.91-1.35,2.49A5.43,5.43,0,0,1,223.62,357.53Z"/><path class="cls-3" d="M316.62,210c-11.91-13.34-10.76-32.61-6.26-49.11.75-2.75,1.14-5.75,3-7.87s5.37-3.06,7.58-1.3c1.83,1.46,2.16,4.07,2.85,6.32a16.59,16.59,0,0,0,5,7.76c1.55,1.34,3.61,2.42,5.58,1.87,2.71-.75,3.77-4,4.41-6.76q1.78-7.74,3.56-15.46a26.55,26.55,0,0,1,2.78-8c1.48-2.41,3.95-4.4,6.75-4.51s5.69,2.17,5.61,5a27.69,27.69,0,0,1-.74,3.46,3,3,0,0,0,1.05,3.14c1,.58,2.32.06,3.33-.55,3.51-2.12,6.3-5.25,8.95-8.39s5.28-6.39,8.58-8.81,7.46-4,11.46-3.28,7.64,4.15,7.72,8.27-3.12,7.54-6.34,10.1a63.23,63.23,0,0,1-15.73,9.2,5.13,5.13,0,0,0-2.69,1.8c-1,1.69.27,3.94,1.95,5,1.89,1.17,4.18,1.49,6.27,2.25s4.2,2.27,4.53,4.5c.46,3.09-2.6,5.49-5.38,6.87a54.11,54.11,0,0,1-17.76,5.32c-2.21.26-4.5.41-6.47,1.45s-3.56,3.28-3,5.46,2.92,3.41,5.14,3.52,4.4-.6,6.61-.88c4.14-.53,9,.89,10.63,4.74a9,9,0,0,1-.9,7.95,20.68,20.68,0,0,1-5.81,5.83,54.4,54.4,0,0,1-26.44,10.56c-9.52,1-17.87-.14-25.86-5.41"/><path class="cls-1" d="M319,211.56c2.16-6.45-.1-3.21,4.35-11a256.22,256.22,0,0,1,16.13-24.31c1.54-2.07,3.06-4.13,4.55-6.15s3-4,4.57-5.88A125.16,125.16,0,0,1,358.3,154c3.23-3.1,6.41-5.92,9.4-8.54s5.84-5,8.52-7a101.56,101.56,0,0,1,13.37-8.77c1.66-.9,3-1.57,3.85-2l1-.49a1.82,1.82,0,0,1,.35-.15l-.33.19-1,.54c-.88.47-2.16,1.16-3.8,2.09a105.88,105.88,0,0,0-13.24,8.89c-2.66,2.07-5.49,4.46-8.47,7.08s-6.14,5.46-9.36,8.56a129.46,129.46,0,0,0-9.6,10.19c-1.57,1.86-3,3.84-4.54,5.86l-4.55,6.16a260.36,260.36,0,0,0-16.14,24.24c-4.45,7.76-2.21,4.48-4.41,10.89"/><path class="cls-1" d="M348.78,164.21a5.36,5.36,0,0,1,0-1.24c0-.8.12-1.95.25-3.37.26-2.84.76-6.75,1.32-11.07s1-8.22,1.22-11.05c.11-1.42.19-2.57.23-3.37a5.41,5.41,0,0,1,.13-1.23,5.29,5.29,0,0,1,.07,1.24c0,.8,0,1.95-.07,3.38-.12,2.85-.5,6.78-1.06,11.1s-1.08,8.1-1.47,11c-.17,1.33-.31,2.45-.42,3.35A6.07,6.07,0,0,1,348.78,164.21Z"/><path class="cls-1" d="M385.85,166a7.08,7.08,0,0,1-1.46-.16c-.93-.14-2.27-.34-3.94-.53-3.34-.42-8-.84-13.09-1.08s-9.77-.24-13.13-.15c-1.69,0-3.05.1-4,.14a7.43,7.43,0,0,1-1.46,0,7.5,7.5,0,0,1,1.45-.22c.94-.1,2.3-.22,4-.3,3.37-.19,8-.24,13.18,0a127.45,127.45,0,0,1,13.11,1.24c1.67.24,3,.5,3.93.7A9,9,0,0,1,385.85,166Z"/><path class="cls-1" d="M324,200a1.44,1.44,0,0,1-.14-.49l-.3-1.42c-.26-1.25-.59-3.05-1-5.29-.75-4.47-1.59-10.68-2.42-17.55s-1.62-13.07-2.28-17.55c-.32-2.18-.59-4-.79-5.31-.08-.58-.15-1-.21-1.45a1.65,1.65,0,0,1,0-.51,3.24,3.24,0,0,1,.14.49l.3,1.43c.26,1.24.58,3,1,5.29.75,4.47,1.59,10.68,2.42,17.55s1.62,13.07,2.27,17.55c.33,2.18.6,4,.8,5.31.08.58.15,1.05.2,1.44A2,2,0,0,1,324,200Z"/><path class="cls-1" d="M374.74,196a2.92,2.92,0,0,1-.51.08l-1.48.13-5.44.44c-4.59.38-10.93,1-17.93,1.62s-13.35,1.19-17.95,1.47c-2.31.14-4.17.23-5.46.27l-1.48,0a1.76,1.76,0,0,1-.52,0,3.18,3.18,0,0,1,.51-.08l1.48-.13,5.44-.44c4.59-.37,10.93-1,17.94-1.62s13.35-1.19,18-1.47c2.3-.14,4.16-.23,5.45-.27l1.48,0A1.76,1.76,0,0,1,374.74,196Z"/><path class="cls-1" d="M414.13,297.74a3.36,3.36,0,0,1-.17.46l-.55,1.34c-.51,1.19-1.22,2.89-2.13,5l-7.71,17.83,0,.11-.12,0-24.22,4-8.12,1.33-.37.06.09-.37c2-7.79,3.79-15,5.34-21.05l.11.23L362,300.36l-3.93-1.79-1-.48a1.54,1.54,0,0,1-.34-.18,1.65,1.65,0,0,1,.36.12l1.05.43,4,1.69,14.3,6.2.16.07,0,.17-5.25,21.07-.28-.3,8.12-1.33,24.23-3.94-.17.12L411,304.46l2.25-5c.25-.55.45-1,.61-1.31A2.22,2.22,0,0,1,414.13,297.74Z"/><polygon class="cls-1" points="373.91 324.99 373.25 326.73 374.31 328.26 372.44 328.17 371.31 329.65 370.82 327.85 369.07 327.24 370.63 326.21 370.67 324.35 372.12 325.52 373.91 324.99"/><polygon class="cls-1" points="357.28 296.73 356.95 297.6 357.48 298.36 356.55 298.32 355.99 299.05 355.75 298.16 354.87 297.85 355.65 297.34 355.67 296.42 356.39 297 357.28 296.73"/><polygon class="cls-1" points="404.25 321.3 403.92 322.17 404.45 322.93 403.52 322.88 402.96 323.62 402.71 322.73 401.84 322.42 402.62 321.91 402.64 320.98 403.36 321.56 404.25 321.3"/><polygon class="cls-1" points="377.14 305.7 376.81 306.57 377.34 307.33 376.42 307.29 375.85 308.02 375.61 307.13 374.74 306.82 375.51 306.31 375.53 305.39 376.26 305.97 377.14 305.7"/><polygon class="cls-1" points="415.25 296.87 414.92 297.74 415.45 298.5 414.52 298.45 413.96 299.19 413.72 298.3 412.84 297.99 413.62 297.48 413.64 296.55 414.37 297.13 415.25 296.87"/><path class="cls-1" d="M112.16,369.64h52.35s-4.63-8.42-18.11-7.2c-12.87,1.17-13.52-4.14-20.06-4.8S114.34,362,112.16,369.64Z"/><path class="cls-3" d="M122.55,163.53H174.9s-4.63-8.43-18.1-7.2c-12.87,1.17-13.53-4.15-20.07-4.8S124.73,155.89,122.55,163.53Z"/><path class="cls-3" d="M388.43,199.93h43s-3.8-6.92-14.87-5.91c-10.58,1-11.11-3.41-16.49-4S390.22,193.66,388.43,199.93Z"/><path class="cls-4" d="M302.54,284.83c2.14-16.12-9.19-29.42-23.35-37.41S248.6,236.76,233,232.31c-14.75-4.19-29.42-10.3-40.34-21.06s-17.48-26.94-13.55-41.76c1-3.72,2.75-7.46,5.94-9.61s8.08-2.09,10.46.93c5.08,6.44-4.82,18,1.38,23.35,1.42,1.23,3.38,1.68,4.85,2.86,3.92,3.12,2.65,9.19,3.2,14.17,1.09,9.85,10.33,16.69,19.4,20.68,12.15,5.35,25.31,7.86,38.2,11s25.88,7.16,36.62,15,20.05,20,20,33.28c0,3.71-.49,8.27-2.82,11.16s-5.29,3.48-8.64,1.9-5.71-4-5.09-9.37"/><g class="cls-5"><path class="cls-6" d="M302.54,284.83c2.14-16.12-9.19-29.42-23.35-37.41S248.6,236.76,233,232.31c-14.75-4.19-29.42-10.3-40.34-21.06s-17.48-26.94-13.55-41.76c1-3.72,2.75-7.46,5.94-9.61s8.08-2.09,10.46.93c5.08,6.44-4.82,18,1.38,23.35,1.42,1.23,3.38,1.68,4.85,2.86,3.92,3.12,2.65,9.19,3.2,14.17,1.09,9.85,10.33,16.69,19.4,20.68,12.15,5.35,25.31,7.86,38.2,11s25.88,7.16,36.62,15,20.05,20,20,33.28c0,3.71-.49,8.27-2.82,11.16s-5.29,3.48-8.64,1.9-5.71-4-5.09-9.37"/></g><path class="cls-4" d="M234,156.71c-.51-6,3.94-11.17,9-14s10.85-3.92,16.06-6.39c12.95-6.14,21.18-20.58,21.79-35.4S275.08,71.33,265,60.45c-4.09-4.42-9.11-9.05-9.17-15.09-.06-6.29,6-11.25,12.14-11.17s11.72,4.16,15.37,9.29S289,54.74,291,60.75c-1.4-2.51,1.48-5.62,4.25-5.36s5,2.58,6.67,4.89a52,52,0,0,1,10,34.84,49.1,49.1,0,0,1-15.5,31.94c-9.87,9-22.92,13.22-35.57,17.21l-26.42,8.33"/><g class="cls-5"><path class="cls-6" d="M234,156.71c-.51-6,3.94-11.17,9-14s10.85-3.92,16.06-6.39c12.95-6.14,21.18-20.58,21.79-35.4S275.08,71.33,265,60.45c-4.09-4.42-9.11-9.05-9.17-15.09-.06-6.29,6-11.25,12.14-11.17s11.72,4.16,15.37,9.29S289,54.74,291,60.75c-1.4-2.51,1.48-5.62,4.25-5.36s5,2.58,6.67,4.89a52,52,0,0,1,10,34.84,49.1,49.1,0,0,1-15.5,31.94c-9.87,9-22.92,13.22-35.57,17.21l-26.42,8.33"/></g><path class="cls-4" d="M259.27,416.57c-3.24-6.71-.42-15.08,4.74-20.46s12.2-8.45,19-11.45c15.06-6.63,31-14.53,38.65-29.09,2.58-4.92,4.05-10.32,5.51-15.67,2.81-10.37,5.44-22.14-.21-31.27-1.63-2.62-4.07-5-7.11-5.5-3.46-.62-7,1.29-9.16,4.09a20.16,20.16,0,0,0-3.49,9.82c-.84,6.64-.14,13.39-.84,20s-3.13,13.61-8.62,17.44c-6.66,4.64-16.17,3.6-22.65,8.51-5.22,4-7.21,10.84-11.3,16-3.44,4.31-8.24,7.26-12.65,10.57s-8.66,7.37-10.16,12.67a15,15,0,0,0,20.89,17.63"/><g class="cls-5"><path class="cls-6" d="M259.27,416.57c-3.24-6.71-.42-15.08,4.74-20.46s12.2-8.45,19-11.45c15.06-6.63,31-14.53,38.65-29.09,2.58-4.92,4.05-10.32,5.51-15.67,2.81-10.37,5.44-22.14-.21-31.27-1.63-2.62-4.07-5-7.11-5.5-3.46-.62-7,1.29-9.16,4.09a20.16,20.16,0,0,0-3.49,9.82c-.84,6.64-.14,13.39-.84,20s-3.13,13.61-8.62,17.44c-6.66,4.64-16.17,3.6-22.65,8.51-5.22,4-7.21,10.84-11.3,16-3.44,4.31-8.24,7.26-12.65,10.57s-8.66,7.37-10.16,12.67a15,15,0,0,0,20.89,17.63"/></g><path class="cls-4" d="M159.14,77.59a20.84,20.84,0,0,1,.6-33.9c3.08-2.12,6.72-3.41,9.46-5.95,2.43-2.26,4-5.4,6.73-7.3a9.8,9.8,0,0,1,14.84,11.34c-1.25,3.5-4.4,6.07-5.72,9.56-1.41,3.75-.5,7.95-1,11.93A16.48,16.48,0,0,1,162,76.56"/><g class="cls-5"><path class="cls-6" d="M159.14,77.59a20.84,20.84,0,0,1,.6-33.9c3.08-2.12,6.72-3.41,9.46-5.95,2.43-2.26,4-5.4,6.73-7.3a9.8,9.8,0,0,1,14.84,11.34c-1.25,3.5-4.4,6.07-5.72,9.56-1.41,3.75-.5,7.95-1,11.93A16.48,16.48,0,0,1,162,76.56"/></g><path class="cls-7" d="M159.52,56.15h12.29a0,0,0,0,1,0,0V81.49a5.41,5.41,0,0,1-5.41,5.41h-1.46a5.41,5.41,0,0,1-5.41-5.41V56.15A0,0,0,0,1,159.52,56.15Z"/><polygon class="cls-8" points="159.52 56.15 165.67 44.88 171.81 56.15 159.52 56.15"/><path class="cls-7" d="M163.23,49.34s1.87,2.81,4.87,0l-2.43-4.46Z"/><path class="cls-9" d="M172,80.25a38.85,38.85,0,0,1-6.24.25,38.93,38.93,0,0,1-6.25-.25,38.93,38.93,0,0,1,6.25-.25A38.85,38.85,0,0,1,172,80.25Z"/><path class="cls-9" d="M171.86,78.37a37.41,37.41,0,0,1-6.12.25,37.49,37.49,0,0,1-6.13-.25,37.49,37.49,0,0,1,6.13-.25A37.41,37.41,0,0,1,171.86,78.37Z"/><path class="cls-10" d="M163.13,56.33c.14,0,.25,4.91.25,11s-.11,10.95-.25,10.95-.25-4.9-.25-10.95S163,56.33,163.13,56.33Z"/><path class="cls-10" d="M168.1,56.33c.14,0,.25,4.91.25,11s-.11,10.95-.25,10.95-.25-4.9-.25-10.95S168,56.33,168.1,56.33Z"/><polygon class="cls-9" points="266.3 402.45 322.13 404.84 323.48 408.09 286.89 467.49 220.82 465.56 266.3 402.45"/><polygon class="cls-1" points="218.32 459.77 284.78 463.57 319.49 409.7 295.12 411.68 233.42 433.41 218.32 459.77"/><path class="cls-2" d="M209,455.78l61,1c-2.53-7.8,3.45-18.8,11.65-22.5,5.44-2.45,15.67-5.63,20.95-8.34,10-5.14,19.1-14.89,18.31-23.25l-25.07-.8-32-1.24c-2.67,7.94-8.4,13.14-17.09,16.27-7.79,2.79-16.65,2.79-24.24,6-12.22,5.12-18.1,21.7-13.55,32.93"/><path class="cls-9" d="M209,455.78l-.15-.39-.42-1.18a15.31,15.31,0,0,1-.52-2,20.07,20.07,0,0,1-.42-2.78,28.12,28.12,0,0,1,.49-7.75,29,29,0,0,1,3.91-9.69,22.16,22.16,0,0,1,1.76-2.45c.33-.4.64-.82,1-1.21l1.12-1.14a11.65,11.65,0,0,1,1.22-1.1c.44-.34.85-.72,1.31-1.05a23,23,0,0,1,3-1.77c4.23-2.13,9.28-3,14.54-4,2.64-.48,5.36-1,8.08-1.73a37.79,37.79,0,0,0,8-3.24,26.38,26.38,0,0,0,3.76-2.46,22,22,0,0,0,3.33-3.15,23.91,23.91,0,0,0,4.63-8.18l.06-.16h.17l26.66,1c9.24.36,18.81.61,28.61.94l1.79.06h.22l0,.21a13.84,13.84,0,0,1-.81,5.65,22.88,22.88,0,0,1-1.12,2.6,27.9,27.9,0,0,1-1.46,2.4,37.31,37.31,0,0,1-7.56,8,45.1,45.1,0,0,1-9.12,5.64c-3.22,1.44-6.48,2.62-9.68,3.8s-6.34,2.3-9.34,3.61A18.25,18.25,0,0,0,278,436.8c-.64.46-1.19,1.05-1.78,1.57s-1.1,1.12-1.57,1.75a22.56,22.56,0,0,0-4.26,8,14.81,14.81,0,0,0-.15,8.54l.08.27H270l-44.38-.79-12.31-.25-3.23-.08c-.73,0-1.11-.05-1.11-.05s.38,0,1.11,0l3.23,0,12.31.14,44.39.61-.2.27A15.23,15.23,0,0,1,270,448a23.17,23.17,0,0,1,4.33-8.18c.47-.64,1.06-1.19,1.6-1.79a23,23,0,0,1,1.81-1.6,19.11,19.11,0,0,1,4.2-2.56c3-1.32,6.18-2.44,9.37-3.63s6.45-2.37,9.64-3.8a44.51,44.51,0,0,0,9-5.58,36.33,36.33,0,0,0,7.46-7.89,26.76,26.76,0,0,0,1.43-2.35,20.23,20.23,0,0,0,1.09-2.54,13.18,13.18,0,0,0,.78-5.43l.24.23-1.79-.06c-9.8-.33-19.37-.58-28.61-.95l-26.66-1.05.23-.15a24.44,24.44,0,0,1-4.74,8.33,22.73,22.73,0,0,1-3.4,3.19,26.12,26.12,0,0,1-3.82,2.5A38,38,0,0,1,244,418c-2.75.75-5.48,1.25-8.12,1.72-5.26.94-10.29,1.82-14.46,3.91a21.29,21.29,0,0,0-2.93,1.73c-.45.33-.87.69-1.29,1a9.61,9.61,0,0,0-1.21,1.08l-1.12,1.12c-.36.38-.67.8-1,1.19a22.71,22.71,0,0,0-1.75,2.42,28.85,28.85,0,0,0-3.94,9.58,28.07,28.07,0,0,0-.55,7.7,22.39,22.39,0,0,0,.38,2.77,13.28,13.28,0,0,0,.49,2c.16.51.29.9.38,1.18S209,455.78,209,455.78Z"/><path class="cls-9" d="M281,401.6c-.05,0,.08-.39.13-1.09a6.06,6.06,0,0,0-.48-2.88,5.9,5.9,0,0,0-2.88-3.09,6.59,6.59,0,0,0-8.86,3.39,7.48,7.48,0,0,0-.59,4.25,7.23,7.23,0,0,0,1.05,2.75c.38.59.66.87.63.9a2.7,2.7,0,0,1-.79-.79,6.68,6.68,0,0,1-1.23-2.8,7.51,7.51,0,0,1,.51-4.5,7,7,0,0,1,9.48-3.61,6.17,6.17,0,0,1,3,3.37,6,6,0,0,1,.35,3,4.16,4.16,0,0,1-.21.81C281.06,401.52,281,401.61,281,401.6Z"/><path class="cls-9" d="M290.57,401.6s.08-.39.14-1.09a6.19,6.19,0,0,0-.48-2.88,5.92,5.92,0,0,0-2.89-3.09,6.58,6.58,0,0,0-8.85,3.39,7.31,7.31,0,0,0-.59,4.25,7.41,7.41,0,0,0,1,2.75c.38.59.66.87.63.9a2.7,2.7,0,0,1-.79-.79,6.94,6.94,0,0,1-1.23-2.8,7.6,7.6,0,0,1,.52-4.5,7,7,0,0,1,9.47-3.61,6.13,6.13,0,0,1,3,3.37,5.77,5.77,0,0,1,.35,3,4.29,4.29,0,0,1-.2.81C290.63,401.52,290.59,401.61,290.57,401.6Z"/><path class="cls-9" d="M297.84,402.1s.05-.4.07-1.1a6.13,6.13,0,0,0-.64-2.85,5.92,5.92,0,0,0-3.06-2.92,6.61,6.61,0,0,0-5.14.11,6.74,6.74,0,0,0-3.51,3.78,7.39,7.39,0,0,0-.34,4.27,7.31,7.31,0,0,0,1.19,2.69c.41.57.71.83.68.86a2.67,2.67,0,0,1-.83-.74,6.75,6.75,0,0,1-1.38-2.73,7.58,7.58,0,0,1,.25-4.52,7.1,7.1,0,0,1,3.74-4.07,7,7,0,0,1,5.52-.07,6.2,6.2,0,0,1,3.2,3.19,5.85,5.85,0,0,1,.51,3,4.35,4.35,0,0,1-.15.82A1,1,0,0,1,297.84,402.1Z"/><path class="cls-9" d="M305.62,402.54s0-.4,0-1.1a6.15,6.15,0,0,0-.79-2.81,5.94,5.94,0,0,0-3.21-2.76,6.6,6.6,0,0,0-8.43,4.34,7.36,7.36,0,0,0-.12,4.29,7.1,7.1,0,0,0,1.34,2.62c.44.55.75.8.72.83a2.84,2.84,0,0,1-.87-.7,7,7,0,0,1-1.53-2.65,7.59,7.59,0,0,1,0-4.53,7.14,7.14,0,0,1,3.52-4.26,7,7,0,0,1,5.51-.37,6.21,6.21,0,0,1,3.36,3,5.88,5.88,0,0,1,.67,3,4.17,4.17,0,0,1-.11.83C305.67,402.45,305.64,402.55,305.62,402.54Z"/><path class="cls-9" d="M313.43,402.36c-.05,0,0-.4,0-1.1a6.16,6.16,0,0,0-.87-2.79,5.93,5.93,0,0,0-3.28-2.67,6.69,6.69,0,0,0-5.12.53,6.78,6.78,0,0,0-3.19,4.05,7.43,7.43,0,0,0,0,4.29,7.29,7.29,0,0,0,1.41,2.58c.46.53.78.77.75.81a2.89,2.89,0,0,1-.89-.68,6.84,6.84,0,0,1-1.6-2.6,7.57,7.57,0,0,1-.11-4.53,7.11,7.11,0,0,1,3.39-4.36,7,7,0,0,1,5.5-.52,6.16,6.16,0,0,1,3.45,2.93,6,6,0,0,1,.76,3,4.48,4.48,0,0,1-.09.82A1.09,1.09,0,0,1,313.43,402.36Z"/><path class="cls-9" d="M320,403.24s0-.4,0-1.1a6.11,6.11,0,0,0-.76-2.83,5.89,5.89,0,0,0-3.17-2.79,6.6,6.6,0,0,0-8.48,4.24,7.33,7.33,0,0,0,1.13,6.92c.44.55.75.81.72.84a2.59,2.59,0,0,1-.86-.71,6.84,6.84,0,0,1-1.5-2.67,7.51,7.51,0,0,1,.07-4.52,7.15,7.15,0,0,1,3.57-4.23,7,7,0,0,1,5.51-.3,6.19,6.19,0,0,1,3.33,3.06,6,6,0,0,1,.64,3,3.89,3.89,0,0,1-.13.82C320.05,403.15,320,403.24,320,403.24Z"/><path class="cls-4" d="M348.76,198.39a54.4,54.4,0,0,0-8.26.37,34.4,34.4,0,0,0-30,34.3,61,61,0,0,0,2.14,16.35c4.8,17,6.29,32.09,5.73,39.41l16.1,8.65s7.45-10.7,14.65-15.32,31.16-17,40.65-29.66c6.12-8.18,7.29-25-7.29-39.66A49.42,49.42,0,0,0,348.76,198.39Z"/><polygon class="cls-11" points="310.71 307.45 325.25 315.31 315.79 327.33 306.1 322.92 310.71 307.45"/><path class="cls-9" d="M311.42,307.93c-.13-.05,1.31-4.36,3.22-9.64s3.56-9.52,3.69-9.47-1.31,4.36-3.22,9.64S311.55,308,311.42,307.93Z"/><path class="cls-9" d="M324.34,314.71c-.12-.07,2.16-4.14,5.09-9.1s5.4-8.93,5.51-8.86-2.16,4.15-5.09,9.11S324.46,314.78,324.34,314.71Z"/><g class="cls-12"><path d="M353.61,198.84c-.65,0-8.65,9.4-12.19,15.74-11.91,21.33-12.44,42.09-15.75,66.29-.47,3.45-2.19,10.91-2.16,10.73,1.76,1.39,7.69,4.13,7.69,4.13s5.58-6.74,7.8-10.13c8.89-13.57,18.53-24.15,26.14-38.48s14.93-27,7.89-41.66C373,205.46,360.84,198.44,353.61,198.84Z"/></g><path class="cls-9" d="M389.79,254.64a4.26,4.26,0,0,1-.21-.46c-.13-.31-.28-.78-.55-1.36a25.22,25.22,0,0,0-2.81-4.72,24.85,24.85,0,0,0-6.18-5.77,23.7,23.7,0,0,0-10.13-3.75h-.1l-.06-.08a57.07,57.07,0,0,0-6.49-7.45,32.39,32.39,0,0,0-8.87-6.11,23,23,0,0,0-10.48-2,17.4,17.4,0,0,0-9.18,3.06l-.14.1-.14-.11a18.1,18.1,0,0,0-9.79-4.36,17.78,17.78,0,0,0-8.33,1.06,18.59,18.59,0,0,0-4.79,2.7c-.5.39-.88.71-1.12.93a2.33,2.33,0,0,1-.39.33,2.6,2.6,0,0,1,.34-.38,13.86,13.86,0,0,1,1.08-1,17.88,17.88,0,0,1,13.25-4,18.41,18.41,0,0,1,10.05,4.39h-.28a17.66,17.66,0,0,1,9.41-3.18,23.2,23.2,0,0,1,10.71,2,32.61,32.61,0,0,1,9,6.21,55,55,0,0,1,6.52,7.54l-.15-.09A23.68,23.68,0,0,1,380.25,242a24.28,24.28,0,0,1,6.18,5.91,23.06,23.06,0,0,1,2.73,4.83c.25.59.38,1.07.49,1.38A2.19,2.19,0,0,1,389.79,254.64Z"/><path class="cls-9" d="M359.87,275.89a10.3,10.3,0,0,0-1.39-3.5,9.6,9.6,0,0,0-3.09-3,8.63,8.63,0,0,0-5.33-1.26l-.2,0,0-.2a14.07,14.07,0,0,0-2.64-6.22,13.79,13.79,0,0,0-6-4.63,14.26,14.26,0,0,0-11.81.61l-.15.08-.12-.13a10.09,10.09,0,0,0-5.59-3,11.15,11.15,0,0,0-5,.15,11.86,11.86,0,0,0-4,2s.07-.08.21-.22a8.31,8.31,0,0,1,.69-.56,9.66,9.66,0,0,1,3-1.45,11.16,11.16,0,0,1,5.15-.27,10.41,10.41,0,0,1,5.85,3.09l-.27,0a14.59,14.59,0,0,1,12.2-.68,14.18,14.18,0,0,1,6.17,4.81,14.36,14.36,0,0,1,2.68,6.44l-.23-.18a8.88,8.88,0,0,1,5.55,1.39,9.55,9.55,0,0,1,3.12,3.13,8.57,8.57,0,0,1,1.07,2.63,6.16,6.16,0,0,1,.1.74A.74.74,0,0,1,359.87,275.89Z"/><path class="cls-9" d="M322.44,319.09s-.15-.2-.53-.35a2.55,2.55,0,0,0-1.7.05,4.72,4.72,0,0,1-1.29.23,2,2,0,0,1-1.43-.63c-.78-.8-1.07-2-1.8-2.77a1.66,1.66,0,0,0-1.34-.56,8.07,8.07,0,0,0-1.51.3,3.32,3.32,0,0,1-1.53.08,2.64,2.64,0,0,1-1.19-.61,2.83,2.83,0,0,1-1-1.61,1.21,1.21,0,0,1,0-.69c.05,0,.05.24.17.64a2.94,2.94,0,0,0,1,1.39,2.47,2.47,0,0,0,1.05.48,3.17,3.17,0,0,0,1.34-.12,8.62,8.62,0,0,1,1.6-.35,2.17,2.17,0,0,1,1.72.71c.85,1,1.11,2.11,1.77,2.79a1.57,1.57,0,0,0,1.11.54,4.7,4.7,0,0,0,1.2-.16,2.58,2.58,0,0,1,1.87.11C322.4,318.81,322.47,319.09,322.44,319.09Z"/><path class="cls-9" d="M324.11,316.76a63.6,63.6,0,0,1-7.09-3.51,61,61,0,0,1-6.86-3.94,63.6,63.6,0,0,1,7.09,3.51A62.13,62.13,0,0,1,324.11,316.76Z"/><path class="cls-9" d="M321.22,320.42s-.2.1-.55.27c-.18.08-.38.2-.66.31a2.25,2.25,0,0,1-1,.13,4.21,4.21,0,0,1-2.4-.92,3.41,3.41,0,0,1-.91-1.26,4.67,4.67,0,0,0-.7-1.31,3.35,3.35,0,0,0-2.64-.75,6.05,6.05,0,0,1-2.53-.25,2.3,2.3,0,0,1-1.27-1.17c-.17-.39-.11-.63-.09-.63s.06.22.26.54a2.33,2.33,0,0,0,1.23.94,6.49,6.49,0,0,0,2.39.11,3.68,3.68,0,0,1,3,.88,4.55,4.55,0,0,1,.78,1.44,2.91,2.91,0,0,0,.77,1.11,4.06,4.06,0,0,0,2.13.92,3.06,3.06,0,0,0,1.56-.27A1.24,1.24,0,0,1,321.22,320.42Z"/><path class="cls-13" d="M211.43,227l25.15-3.73-12-17-6.45.38a11.5,11.5,0,0,0-9.89,6.93h0a11.58,11.58,0,0,0-.73,6.73Z"/><path class="cls-7" d="M211.43,227l25.15-3.73-12-17-6.45.38a11.5,11.5,0,0,0-9.89,6.93h0a11.58,11.58,0,0,0-.73,6.73Z"/><path class="cls-8" d="M319.45,254.89c.26.72.54,1.58.83,2.6a8.11,8.11,0,0,1,.27,2.69,12.21,12.21,0,0,1-.57,3.33c-.41.95.55,1.91,1.36,1.43s2-3.07,2-6.42,3.34.67,4.61,2.1,5.41,5.71,6.16,5.67c1.1-.05,1.24-1.25-.06-2.66s-4.91-5.9-4.12-6.54,7.15,6.8,7.15,6.8,1.11,1.8,2.05,1.1c1.69-1.27-5.66-8.65-6.37-9.34-.5-.48.34-1.2.84-.66s6.18,7.55,7.92,6.28c1.34-1-6-6.13-6.36-8.24s5.16,4.48,6.4,3.49c.46-.37.75-.7-3-4-1.8-1.61-8.66-6.41-8.66-6.41L309.24,187l-15.94,9.13Z"/><path class="cls-8" d="M196.59,143.13l-23.07-27.52h0a15.64,15.64,0,0,0-1.13-2.74,8.59,8.59,0,0,0-5.44-4.54c-1.46-.32-3.14-.17-4.28-1.13-.52-.43-.86-1-1.4-1.44s-1.43-.48-1.77.1a1.55,1.55,0,0,0,.09,1.37,12.88,12.88,0,0,0,4,5.17c-2.17.65-5.26,1.65-5.26,1.65s-4.87-5.29-7.37-5.27,2,4.72,2,4.72-4-3.7-5.24-2.66,1.94,3.79,1.94,3.79a5.3,5.3,0,0,0-3.25-.91c-1.12.19-2.1,1.52-1.49,2.49a2.67,2.67,0,0,0,1,.82l6.14,3.42a7.32,7.32,0,0,0,3.28,1.19c3.11.1,5.48-1.83,8.59-1.75,0,0,17.4,36.62,19.15,38.5s40,4.46,40,4.46l22.12-19Z"/><path class="cls-7" d="M265.86,342.56l23.55,10.26L276.8,382.19c-2.73-1.38-1.84-19-1.84-19l-15.36-6Z"/><g class="cls-14"><path class="cls-6" d="M277.59,353.57a1.3,1.3,0,0,1,1.72-.24,1.26,1.26,0,0,1,.26,1.71,1.38,1.38,0,0,1-1.83.24,1.3,1.3,0,0,1-.07-1.8"/></g><path class="cls-15" d="M289.41,352.82l-2.41-.94-11.19,28.51s0,1.55,1,1.8Z"/><path class="cls-9" d="M274.61,363.61c.14.06.51-.63,1.28-1.14s1.53-.63,1.53-.78-.92-.3-1.84.33S274.46,363.58,274.61,363.61Z"/><path class="cls-9" d="M274.56,367.24c.12.09.63-.43,1.45-.65s1.52-.1,1.57-.24-.72-.59-1.73-.28S274.42,367.17,274.56,367.24Z"/><path class="cls-9" d="M277.49,370.57c.09-.12-.54-.62-1.49-.59s-1.54.56-1.45.68.69-.13,1.47-.14S277.42,370.71,277.49,370.57Z"/><path class="cls-9" d="M271.26,361.86c.15,0,.24-.74.64-1.53s.93-1.31.84-1.44-.86.26-1.33,1.2S271.11,361.89,271.26,361.86Z"/><path class="cls-9" d="M268.07,359.67c.06,0,.39-.5.63-1.48a7.72,7.72,0,0,0,.1-2.77,1.92,1.92,0,0,0-.16-.6.68.68,0,0,0-.73-.39.86.86,0,0,0-.6.49,2,2,0,0,0-.16.58,6.43,6.43,0,0,0-.08,1.05,5.41,5.41,0,0,0,.31,1.74c.34.95.77,1.41.82,1.38s-.23-.57-.45-1.49a6.55,6.55,0,0,1-.18-1.63,6.26,6.26,0,0,1,.1-.95c.06-.35.17-.62.34-.64s.09,0,.15.11a1.41,1.41,0,0,1,.11.43,6.7,6.7,0,0,1,.11,1,8.6,8.6,0,0,1-.06,1.65A10.79,10.79,0,0,0,268.07,359.67Z"/><path class="cls-9" d="M268.36,359.57s-.35-.55-1.26-1a5.19,5.19,0,0,0-2.75-.5,1.32,1.32,0,0,0-1.14.62.73.73,0,0,0,.14.79,2,2,0,0,0,.48.38,3.42,3.42,0,0,0,1,.43,3.62,3.62,0,0,0,1.79,0c1-.24,1.43-.77,1.39-.8a14,14,0,0,1-1.46.43,3.71,3.71,0,0,1-1.59-.13,3.48,3.48,0,0,1-.83-.39c-.3-.18-.5-.41-.42-.51s.41-.3.71-.31a5.08,5.08,0,0,1,.95,0,5.77,5.77,0,0,1,1.59.34C267.83,359.25,268.3,359.64,268.36,359.57Z"/><path class="cls-7" d="M247.72,382.91l9.74,20.4,3.05,18.37a2.32,2.32,0,0,0,2.82,1.87h0a2.29,2.29,0,0,0,1.61-1.38c1.79-4.43,8.3-20.77,7.5-22.23-.92-1.68-8.84-22.21-8.84-22.21Z"/><path class="cls-15" d="M263.33,423.55l8.49-25,.39.88a3.48,3.48,0,0,1,.17,2.4c-.62,2.12-2.45,8-7.38,20.32a2.26,2.26,0,0,1-1.67,1.4Z"/><g class="cls-14"><path class="cls-6" d="M264.59,393.8a1.42,1.42,0,0,0,.4,1.83,1.36,1.36,0,0,0,1.82-.38,1.49,1.49,0,0,0-.44-1.94,1.4,1.4,0,0,0-1.84.61"/></g><path class="cls-9" d="M264,412.42a7.07,7.07,0,0,0-2.53-.79,7.25,7.25,0,0,0-2.57.61c-.05,0,.14-.32.6-.6a3.66,3.66,0,0,1,3.95.14C263.87,412.09,264,412.38,264,412.42Z"/><path class="cls-9" d="M263.77,415.84c-.06.14-1-.23-2.23-.06a18,18,0,0,0-2.13.65c-.11-.08.69-1,2.07-1.14A2.6,2.6,0,0,1,263.77,415.84Z"/><path class="cls-9" d="M265.14,407.65a22.77,22.77,0,0,0-3.43-.33,24.27,24.27,0,0,0-3.38.66,6.33,6.33,0,0,1,6.81-.33Z"/><path class="cls-9" d="M262.69,401.2c0,.15-1.35.19-2.86.8s-2.52,1.5-2.62,1.39a5.76,5.76,0,0,1,5.48-2.19Z"/><path class="cls-9" d="M260,395.14a7.36,7.36,0,0,0-5.43,2.67c-.05,0,.06-.39.41-.88a5,5,0,0,1,1.8-1.49,4.91,4.91,0,0,1,2.27-.51C259.64,394.94,260,395.08,260,395.14Z"/><path class="cls-9" d="M256.51,394.72a1.84,1.84,0,0,1-.38-.77,5.83,5.83,0,0,1-.3-2.32,2.65,2.65,0,0,1,.51-1.61.93.93,0,0,1,1.05-.24,1.48,1.48,0,0,1,.74.78,3.27,3.27,0,0,1-1.38,3.94,3.77,3.77,0,0,1-4.21-.28,1.32,1.32,0,0,1-.51-1,.93.93,0,0,1,.67-.84,3.29,3.29,0,0,1,1.68.1,6.46,6.46,0,0,1,2.13,1,2.34,2.34,0,0,1,.64.57,10.77,10.77,0,0,0-2.85-1.2,3.14,3.14,0,0,0-1.46-.05.49.49,0,0,0-.37.45.87.87,0,0,0,.37.63,3.39,3.39,0,0,0,3.66.2,2.85,2.85,0,0,0,1.21-3.33,1.12,1.12,0,0,0-.49-.57.49.49,0,0,0-.58.13,2.36,2.36,0,0,0-.46,1.35A8.65,8.65,0,0,0,256.51,394.72Z"/><path class="cls-9" d="M280.54,345.05l-26.7-18,8.83-86.8-25.29-14.77-23.14-5.36s-9.66,20.1-14,33c-9.14,27.36-15.56,37.17-14.09,57,.46,6.28,23.65,22,38.29,30.71a46,46,0,0,0,.77,5.2c5,22.61,20.28,52.69,20.28,52.69l23.21-10.79-7.49-25.64,7.8,4.55Zm-57.4-56,3.11-13.91c-.66,8.84-1.26,18.07-1.69,26.92A27.48,27.48,0,0,1,223.14,289.09Z"/><path class="cls-11" d="M245.54,398.72a1.82,1.82,0,0,1-.18-.36c-.12-.27-.28-.63-.48-1.1-.42-1-1-2.41-1.8-4.23-1.54-3.68-3.75-9-6.4-15.65s-5.79-14.53-9-23.43c-.79-2.22-1.56-4.52-2.29-6.88-.32-1.2-.72-2.39-.93-3.65-.06-.32-.14-.63-.19-.95l-.11-.94-.21-1.91c-.27-2.56-.5-5.16-.66-7.81-.09-1.33-.16-2.66-.21-4s-.11-2.71,0-4.07c.39-10.91,1.31-21.25,2.06-30.66s1.49-17.86,2.09-25,1-12.88,1.21-16.86c.12-2,.19-3.54.24-4.59,0-.51,0-.9.06-1.19a2.64,2.64,0,0,1,0-.41,2.56,2.56,0,0,1,0,.41c0,.29,0,.68,0,1.19,0,1.05-.06,2.6-.15,4.6-.17,4-.52,9.75-1,16.87s-1.24,15.6-2,25-1.63,19.76-2,30.63c-.08,1.36,0,2.69,0,4s.13,2.67.21,4c.16,2.65.39,5.25.65,7.8l.21,1.9.11.95c.05.3.12.61.18.91.2,1.22.6,2.41.92,3.6q1.08,3.54,2.27,6.87c3.13,8.89,6.25,16.81,8.84,23.45s4.77,12,6.26,15.71c.74,1.83,1.31,3.26,1.71,4.26.18.48.33.84.43,1.12A2.43,2.43,0,0,1,245.54,398.72Z"/><path class="cls-11" d="M227.69,242.11a2.5,2.5,0,0,1-.61-.5A6.23,6.23,0,0,1,226,239.8a19.73,19.73,0,0,1-1.14-6.89,58.06,58.06,0,0,1,.33-6.95,18.86,18.86,0,0,1,.4-2.86,15.7,15.7,0,0,1,0,2.88c-.09,1.78-.23,4.22-.18,6.92a22.06,22.06,0,0,0,1,6.77,7.28,7.28,0,0,0,.95,1.82A2.54,2.54,0,0,1,227.69,242.11Z"/><path class="cls-11" d="M217.7,221.45a5.93,5.93,0,0,1,.2,2.43,11.21,11.21,0,0,1-6.39,9.37,5.87,5.87,0,0,1-2.33.7c0-.08.88-.31,2.17-1a11.83,11.83,0,0,0,6.2-9.1C217.73,222.38,217.61,221.46,217.7,221.45Z"/><path class="cls-11" d="M259.2,271.91a.74.74,0,0,1,0,.26c0,.21,0,.46-.06.78-.07.71-.17,1.7-.3,3-.28,2.61-.69,6.32-1.19,10.89-1,9.22-2.47,21.9-4.06,35.9a65.78,65.78,0,0,0,1.31,19.71,69.69,69.69,0,0,0,2.42,8.3l2.5,7.14c1.51,4.34,2.73,7.87,3.59,10.35.4,1.2.72,2.14,1,2.82l.24.74a.88.88,0,0,1,.06.26,1.47,1.47,0,0,1-.11-.24c-.07-.19-.17-.43-.28-.72l-1-2.79L259.48,358c-.78-2.18-1.64-4.56-2.56-7.12a67.91,67.91,0,0,1-2.47-8.34,65.32,65.32,0,0,1-1.37-19.85c1.57-14,3.12-26.71,4.22-35.9.56-4.56,1-8.26,1.34-10.87.16-1.25.29-2.24.39-2.95.05-.32.08-.57.11-.77A1,1,0,0,1,259.2,271.91Z"/><polyline class="cls-4" points="214.24 219.98 218.34 209.52 227.69 223.46 215.22 220.34"/><path class="cls-4" d="M312.07,188.52,301,163.65c-1.33-4-3.81-4.62-5.9-6.94L267.28,141C247,132.73,236,160.56,236,160.56l-18.41,42c-21.65,7.18-6.32,23.8-6.32,23.8s-5.89-10.23-.1-13.93c6.06-3.86,12.79,6.32,19.24,16,7.63,11.43,32.41,18.85,32.41,18.85,2.9-3.07,2.09-13.75,4.36-19.49.72-1.82,17.88-41.57,17.88-41.57l6.65,16.12s8.53-10,12.66-11.59A46.4,46.4,0,0,1,312.07,188.52Z"/><path class="cls-4" d="M262.82,206.19a3.18,3.18,0,0,1-.84.59,16.13,16.13,0,0,1-2.53,1.2,18.16,18.16,0,0,1-17.56-2.71,16.23,16.23,0,0,1-2-1.91,3.77,3.77,0,0,1-.62-.81c.07-.07,1,1.06,2.89,2.44a18.84,18.84,0,0,0,17.22,2.66C261.54,206.9,262.77,206.11,262.82,206.19Z"/><path class="cls-4" d="M216.76,166.75h0l17.15,1.62,27.44-29-16.13-.55-28.74,2.83A74.54,74.54,0,0,1,216.76,166.75Z"/><path class="cls-4" d="M240.59,151.47a3.07,3.07,0,0,1-.21.53c-.19.39-.41.88-.69,1.48-.63,1.35-1.49,3.19-2.55,5.44-2.13,4.59-5,11-8,18.09s-5.86,13.53-8,18.14c-1,2.31-1.92,4.17-2.54,5.44l-.73,1.46a2.62,2.62,0,0,1-.28.5,2.19,2.19,0,0,1,.19-.54l.64-1.5c.6-1.36,1.41-3.22,2.4-5.5l7.84-18.19c3.06-7.1,6-13.49,8.16-18,1.11-2.28,2-4.12,2.69-5.37l.78-1.44A2.05,2.05,0,0,1,240.59,151.47Z"/><path class="cls-4" d="M292.93,159.91c.05.08-1,.63-2.46,1.87a17.3,17.3,0,0,0-2.32,2.4,20.08,20.08,0,0,0-2.18,3.44,19.73,19.73,0,0,0-1.35,3.85,18.32,18.32,0,0,0-.45,3.3c-.07,1.9.15,3.08.06,3.1a2.56,2.56,0,0,1-.21-.82,6.74,6.74,0,0,1-.14-1,12.7,12.7,0,0,1-.06-1.31,16.18,16.18,0,0,1,.35-3.39,18.62,18.62,0,0,1,1.36-4,18.85,18.85,0,0,1,2.26-3.52,16.8,16.8,0,0,1,2.45-2.38,10.9,10.9,0,0,1,1.07-.76,7.05,7.05,0,0,1,.85-.5A2.75,2.75,0,0,1,292.93,159.91Z"/><path class="cls-8" d="M297.73,120.07l-16.1,30.08A10.59,10.59,0,0,1,268,154.83h0a10.6,10.6,0,0,1-5.05-14.64c1.52-2.87,2.78-5.21,2.78-5.21s-7-4.54-3.73-12.09c2.92-6.75,13.64-25.78,15.91-29.81l13.57,6.07A15.25,15.25,0,0,1,297.73,120.07Z"/><path class="cls-16" d="M265.71,134.86a19.09,19.09,0,0,0,11.05,1.6s-4.74,4.38-11.94.34Z"/><path class="cls-9" d="M270.88,110.82a1.17,1.17,0,0,0,.55,1.54,1.12,1.12,0,0,0,1.54-.47,1.17,1.17,0,0,0-.55-1.55A1.13,1.13,0,0,0,270.88,110.82Z"/><path class="cls-9" d="M270.94,109.86c.07.2,1.16,0,2.31.48s1.74,1.48,1.93,1.39.07-.35-.18-.78a3.28,3.28,0,0,0-1.47-1.29,3.11,3.11,0,0,0-1.91-.21C271.14,109.57,270.91,109.77,270.94,109.86Z"/><path class="cls-9" d="M281.69,116.13a1.18,1.18,0,0,0,.55,1.55,1.13,1.13,0,0,0,1.54-.47,1.18,1.18,0,0,0-.55-1.55A1.13,1.13,0,0,0,281.69,116.13Z"/><path class="cls-9" d="M282.2,115.16c.07.2,1.16,0,2.31.48s1.74,1.47,1.93,1.39.07-.35-.18-.78a3.28,3.28,0,0,0-1.47-1.29,3.12,3.12,0,0,0-1.91-.21C282.4,114.87,282.16,115.06,282.2,115.16Z"/><path class="cls-9" d="M274.18,121.85a8.25,8.25,0,0,0-1.73-1.18c-.28-.16-.53-.35-.49-.57s.29-.51.58-.79c.6-.59,1.23-1.2,1.88-1.85a43.27,43.27,0,0,0,4.59-5,41.24,41.24,0,0,0-5,4.62L272.18,119a1.91,1.91,0,0,0-.67,1.09.83.83,0,0,0,.29.65,2.31,2.31,0,0,0,.47.29A8.48,8.48,0,0,0,274.18,121.85Z"/><path class="cls-9" d="M277.22,124.17c-.19-.1-.75,1.16-2.22,1.57s-2.75-.33-2.83-.16.19.38.74.65a3.49,3.49,0,0,0,2.34.2,3,3,0,0,0,1.77-1.35C277.31,124.57,277.31,124.2,277.22,124.17Z"/><path class="cls-9" d="M283.93,110.5c0,.36,1.19.73,2.48,1.5s2.21,1.63,2.51,1.43c.14-.1.09-.48-.22-1a4.84,4.84,0,0,0-1.64-1.55,4.89,4.89,0,0,0-2.16-.68C284.31,110.19,284,110.32,283.93,110.5Z"/><path class="cls-9" d="M272.86,106.71c.09.35,1,.43,2,.85s1.69,1,2,.77c.14-.09.13-.41-.11-.82a3.11,3.11,0,0,0-3.2-1.31C273.06,106.32,272.83,106.54,272.86,106.71Z"/><path class="cls-8" d="M292.67,124.58c.15,0,5.84.79,3.38,5.85s-7,1.55-7,1.4S292.67,124.58,292.67,124.58Z"/><path class="cls-16" d="M291.55,130.66s.06.11.18.25a1,1,0,0,0,.65.33,2.41,2.41,0,0,0,2-1.46,3.18,3.18,0,0,0,.37-1.39,1.14,1.14,0,0,0-.33-1,.51.51,0,0,0-.64,0c-.14.11-.16.23-.19.22s-.07-.14.08-.33a.61.61,0,0,1,.35-.22.75.75,0,0,1,.55.11,1.37,1.37,0,0,1,.54,1.24,3.26,3.26,0,0,1-.38,1.56,2.57,2.57,0,0,1-2.35,1.56,1,1,0,0,1-.74-.53C291.5,130.79,291.53,130.66,291.55,130.66Z"/><path class="cls-9" d="M295.6,125.69a2.94,2.94,0,0,0-3,.16c-.66.58-1.11,1.38-1.77,2a2,2,0,0,1-2.41.37,1.71,1.71,0,0,1-.55-1.65,4.74,4.74,0,0,1,.73-1.66c1.37-2.27,2.94-4.42,4.12-6.8a13.48,13.48,0,0,0,1.61-7.66,7.37,7.37,0,0,0-4.5-6.07c-1.65-.59-3.49-.41-5.18-.9a6.84,6.84,0,0,1-4.43-4.08c-.1-.25-.66-1.13-.66-1.13s.65-1.15,1.25-1.35c4.45-1.5,10.49.22,14.18,3.13a16.41,16.41,0,0,1,6.31,12.29c.05,4.69-2.91,9.88-5.66,13.38"/><path class="cls-9" d="M295.65,125.18c1.41-2.39,3.69-4.13,5.44-6.29s2.94-5.2,1.7-7.69c-.43-.85-1.11-1.56-1.46-2.44a11.41,11.41,0,0,1-.49-2.81,9.82,9.82,0,0,0-4.85-7c-1.78-1-3.83-1.4-5.63-2.34-2.86-1.51-4.95-4.29-7.95-5.48a3.86,3.86,0,0,0-3.12-.09,1.88,1.88,0,0,0-.77,2.69,1.62,1.62,0,0,0-2.24-1.09A2.47,2.47,0,0,0,275,95a5.33,5.33,0,0,0,1.09,2.65,13.45,13.45,0,0,0,7.7,5.3l6.9-.54,5.66,4.19,4.19,6.67-7.6,9.87Z"/><path class="cls-4" d="M252.46,85.83a24.38,24.38,0,1,0-33.27,24.25c.19,2.89.4,6.14.4,6.14l21.32-1.38s-.09-3.45-.24-6.53A24.36,24.36,0,0,0,252.46,85.83Z"/><path class="cls-9" d="M233.19,115.24s0-.1,0-.3,0-.51,0-.88c0-.78.11-1.93.23-3.4s.29-3.28.63-5.35a35.34,35.34,0,0,1,1.77-6.91,22.35,22.35,0,0,1,1.76-3.77A4.45,4.45,0,0,1,239.2,93a2.48,2.48,0,0,1,2.31-.08,1.66,1.66,0,0,1,.81,2.17,3.42,3.42,0,0,1-1.77,1.74,6.67,6.67,0,0,1-5.08,0,6.76,6.76,0,0,1-3.7-3.84,5.11,5.11,0,0,1-.32-2.8,2.19,2.19,0,0,1,2.1-1.83,1.59,1.59,0,0,1,1.29.78,2.16,2.16,0,0,1,.29,1.49,4.69,4.69,0,0,1-1.55,2.52,7.27,7.27,0,0,1-5.56,2A6.36,6.36,0,0,1,223.09,92a3.67,3.67,0,0,1-.36-2.93,1.9,1.9,0,0,1,1-1.15,1.82,1.82,0,0,1,1.5,0,2.48,2.48,0,0,1,1.1,1,3.88,3.88,0,0,1,.46,1.38,7,7,0,0,1-.19,2.81,7.27,7.27,0,0,1-3.16,4.3,7.34,7.34,0,0,1-5,1,3.77,3.77,0,0,1-2.27-1,1.87,1.87,0,0,1-.28-2.33,1.52,1.52,0,0,1,1-.6,2.25,2.25,0,0,1,1.18.15,3.58,3.58,0,0,1,1.6,1.57c.69,1.28,1.27,2.53,1.84,3.72,2.27,4.78,3.91,8.73,5,11.47.55,1.37,1,2.44,1.24,3.17.13.35.24.63.31.83s.1.28.1.28,0-.09-.13-.27l-.33-.82-1.3-3.15c-1.13-2.72-2.8-6.66-5.09-11.42-.58-1.18-1.17-2.44-1.85-3.69A3.31,3.31,0,0,0,218,94.84a1.46,1.46,0,0,0-1.67,2.39,3.59,3.59,0,0,0,2.12.93,7.08,7.08,0,0,0,4.8-1,7,7,0,0,0,3-4.14,6.72,6.72,0,0,0,.17-2.68,2.63,2.63,0,0,0-1.39-2.16,1.54,1.54,0,0,0-1.26,0,1.59,1.59,0,0,0-.84,1,3.38,3.38,0,0,0,.34,2.7A6,6,0,0,0,228,94.87a7,7,0,0,0,5.34-1.93,4.49,4.49,0,0,0,1.46-2.36,1.94,1.94,0,0,0-.25-1.29,1.29,1.29,0,0,0-1.05-.64,1.79,1.79,0,0,0-1.19.47,2.1,2.1,0,0,0-.62,1.14,4.76,4.76,0,0,0,.31,2.63,6.42,6.42,0,0,0,3.54,3.68,6.35,6.35,0,0,0,4.86.05A3.2,3.2,0,0,0,242.09,95a1.45,1.45,0,0,0-.69-1.86,2.27,2.27,0,0,0-2.09.07,4.2,4.2,0,0,0-1.48,1.51,23.24,23.24,0,0,0-1.77,3.72,37.33,37.33,0,0,0-1.8,6.87c-.35,2.06-.53,3.86-.67,5.33s-.22,2.6-.29,3.39l-.07.88C233.21,115.14,233.19,115.24,233.19,115.24Z"/><path class="cls-9" d="M239.53,118.9l-18.31,1.18a1.37,1.37,0,0,1-1.46-1.28h0a1.38,1.38,0,0,1,1.28-1.47l18.31-1.18a1.38,1.38,0,0,1,1.46,1.28h0A1.38,1.38,0,0,1,239.53,118.9Z"/><path class="cls-9" d="M239.6,120.1l-18.3,1.18a1.38,1.38,0,1,0,.17,2.75l2-.13,3,4.9a1.74,1.74,0,0,0,1.62.84l6.54-.42a1.76,1.76,0,0,0,1.51-1.06l2.26-5.23,1.37-.09a1.37,1.37,0,1,0-.18-2.74Z"/><g class="cls-17"><path class="cls-6" d="M211.51,72.91a17.75,17.75,0,0,1,4.66-3.55A12.81,12.81,0,0,1,219.85,68c.91-.16,1.44-.1,1.5.09.13.43-1.67,1.21-4,3a20,20,0,0,0-7.85,20.23c.53,3,1.34,4.74,1,5-.17.1-.6-.22-1.17-.95a13,13,0,0,1-1.82-3.46,17.9,17.9,0,0,1-1-5.77A19,19,0,0,1,207.61,79"/></g><g class="cls-17"><path class="cls-6" d="M227.27,68.79c-1.55.08-2.93-.25-3.14-1.06-.1-.4.16-.85.69-1.22a4.9,4.9,0,0,1,4.6-.27c.58.3.89.72.84,1.13"/></g><path class="cls-11" d="M235.84,128.61a11.86,11.86,0,0,1-1.28-.3,10.39,10.39,0,0,0-3.14-.19,10.56,10.56,0,0,0-3,.77c-.74.31-1.17.58-1.2.54a3.61,3.61,0,0,1,1.11-.74,9,9,0,0,1,3.11-.87,8.89,8.89,0,0,1,3.21.28A4.17,4.17,0,0,1,235.84,128.61Z"/><path class="cls-11" d="M238.46,123c0,.09-3.3.37-7.38.63s-7.4.41-7.41.33,3.3-.37,7.39-.63S238.45,122.91,238.46,123Z"/><path class="cls-11" d="M237.45,125.24a10,10,0,0,1-1.79.3c-1.11.14-2.65.3-4.35.44s-3.26.21-4.38.25a10.43,10.43,0,0,1-1.81,0,11.86,11.86,0,0,1,1.8-.2l4.36-.33,4.36-.35A11.57,11.57,0,0,1,237.45,125.24Z"/><path class="cls-18" d="M105.61,247.71l4,6.37s17-15.61,33.78-11.2C143.37,242.88,128.25,230.06,105.61,247.71Z"/><path class="cls-18" d="M143.37,242.88s12.45-13.52,30.71-10.43l5,.75-1.59-2.88S145.72,219.45,143.37,242.88Z"/><path class="cls-3" d="M117.1,197.3S92.16,193,75.8,201.86l26,48.9s21.26-20.5,41.6-7.88Z"/><path class="cls-9" d="M117.1,197.3a2.11,2.11,0,0,1,.13.2l.37.61,1.44,2.43,5.4,9.26,19.12,33a.21.21,0,0,1-.08.3.22.22,0,0,1-.22,0,27.54,27.54,0,0,0-9.56-3.67,29.19,29.19,0,0,0-5.39-.37,32.67,32.67,0,0,0-5.52.69,47.37,47.37,0,0,0-20.63,11l-.22.2a.24.24,0,0,1-.35,0l0-.06C91.91,232.67,83,215.8,75.62,202a.2.2,0,0,1,.08-.27h0a50.1,50.1,0,0,1,16.63-4.92,82,82,0,0,1,13.3-.58c3.68.12,6.55.42,8.5.66,1,.11,1.71.23,2.21.31l.57.1c.13,0,.19,0,.19.05l-.2,0-.57-.07c-.5-.06-1.24-.15-2.22-.25-2-.2-4.82-.46-8.49-.55a86.22,86.22,0,0,0-13.25.67,50,50,0,0,0-16.47,5l.08-.28c7.37,13.84,16.33,30.69,26,48.88l-.39-.06.22-.21a52.72,52.72,0,0,1,10-7,41.44,41.44,0,0,1,10.91-4.14,33.74,33.74,0,0,1,5.61-.7,30.22,30.22,0,0,1,5.49.39,27.9,27.9,0,0,1,9.71,3.76l-.31.29-18.91-33c-2.28-4-4.07-7.16-5.31-9.34-.61-1.07-1.07-1.9-1.4-2.48l-.35-.65A.85.85,0,0,1,117.1,197.3Z"/><path class="cls-3" d="M156.29,187.26s-18.86-12-38.87,10l26.27,45.58s5.37-18.5,36.74-12.06Z"/><path class="cls-9" d="M156.29,187.26a.88.88,0,0,1,.13.19l.35.59,1.32,2.32,5,8.84c4.26,7.65,10.32,18.53,17.56,31.51a.22.22,0,0,1-.08.3.24.24,0,0,1-.14,0h0l-4.67-.77a21.32,21.32,0,0,0-2.42-.27l-2.46-.19a17.47,17.47,0,0,0-2.51-.06l-2.54,0c-.85,0-1.7.17-2.56.25a18.68,18.68,0,0,0-2.58.39l-2.58.59-2.52.88c-.85.29-1.63.76-2.45,1.13a6.94,6.94,0,0,0-1.18.68l-1.15.73c-.75.51-1.43,1.13-2.15,1.71a22.58,22.58,0,0,0-1.89,2,15.87,15.87,0,0,0-2.8,4.8h0a.26.26,0,0,1-.32.16.24.24,0,0,1-.13-.11c-.34-.58-.7-1.21-1.06-1.84L117.23,197.4a.21.21,0,0,1,0-.24,44.06,44.06,0,0,1,14.24-10.71,28.38,28.38,0,0,1,13.43-2.52,27.32,27.32,0,0,1,8.59,1.93,20.13,20.13,0,0,1,2.1,1l.51.3.16.11s-.06,0-.18-.09l-.52-.27c-.47-.23-1.17-.56-2.12-.92a27.58,27.58,0,0,0-8.56-1.8,28.23,28.23,0,0,0-13.27,2.58,44,44,0,0,0-14.07,10.68l0-.25c7.25,12.56,15.93,27.6,25.25,43.73.36.63.72,1.26,1.06,1.84l-.45.05a16.12,16.12,0,0,1,2.89-5,22.42,22.42,0,0,1,1.94-2.08c.73-.59,1.43-1.22,2.2-1.74l1.18-.75a7.17,7.17,0,0,1,1.2-.69c.84-.38,1.64-.86,2.5-1.15l2.57-.9,2.61-.59a19.49,19.49,0,0,1,2.62-.39c.87-.08,1.73-.23,2.59-.25l2.58,0a19.19,19.19,0,0,1,2.52.07l2.49.2a21.77,21.77,0,0,1,2.43.28l4.69.78-.23.32-17.38-31.55c-2.09-3.82-3.74-6.83-4.87-8.91-.55-1-1-1.81-1.27-2.37-.14-.26-.24-.46-.33-.61A1.55,1.55,0,0,1,156.29,187.26Z"/><path class="cls-3" d="M82.82,178.35,111,232.5s22.86-1,32.53,10.14L117.42,197.3S102.13,178.35,82.82,178.35Z"/><path class="cls-9" d="M82.82,178.35l.72,0,2.17.09c.24,0,.49,0,.76,0l.82.13,1.88.31a18.5,18.5,0,0,1,2.15.52c.76.23,1.59.38,2.41.71,6.73,2.24,15.74,7.66,23.84,17l0,0h0l26.11,45.32a.25.25,0,0,1-.39.3l0,0-1.1-1.09A23.88,23.88,0,0,0,135,237a41.78,41.78,0,0,0-8-2.64,67.33,67.33,0,0,0-16-1.58h0a.22.22,0,0,1-.21-.12L90.58,193.5c-2.45-4.77-4.4-8.56-5.74-11.18-.66-1.28-1.16-2.27-1.52-3-.16-.32-.28-.57-.38-.76l-.12-.25a2.81,2.81,0,0,1,.16.27l.41.78,1.58,3,5.88,11.19,20.3,38.81-.21-.12a67.21,67.21,0,0,1,16.11,1.57,41.41,41.41,0,0,1,8.14,2.66,24.33,24.33,0,0,1,7.35,4.85c.38.39.77.77,1.13,1.13l-.41.28-26-45.36,0,0A65.87,65.87,0,0,0,105,186.29a47.73,47.73,0,0,0-11.29-5.89c-.82-.33-1.64-.49-2.39-.73a16.77,16.77,0,0,0-2.14-.54l-1.86-.34-.82-.15-.73-.06Z"/><path class="cls-19" d="M170.61,331.93l.6,1a6.9,6.9,0,0,0,2.85,2.61l1.05.52-1,.61a6.82,6.82,0,0,0-2.61,2.84l-.52,1.05-.61-1a6.82,6.82,0,0,0-2.84-2.61l-1.05-.52,1-.61a6.78,6.78,0,0,0,2.62-2.84Z"/><path class="cls-19" d="M115.17,125.67l.6,1a6.9,6.9,0,0,0,2.84,2.62l1,.52-1,.6a6.9,6.9,0,0,0-2.62,2.84l-.52,1.05-.6-1a6.83,6.83,0,0,0-2.84-2.62l-1-.52,1-.6a6.9,6.9,0,0,0,2.62-2.84Z"/><path class="cls-19" d="M371.75,161.25l.61,1a6.91,6.91,0,0,0,2.84,2.62l1.05.51-1,.61a6.83,6.83,0,0,0-2.62,2.84l-.52,1-.6-1a6.86,6.86,0,0,0-2.85-2.62l-1.05-.52,1-.6a6.9,6.9,0,0,0,2.61-2.85Z"/><path class="cls-19" d="M341.45,344.89l.61,1a6.84,6.84,0,0,0,2.84,2.62L346,349l-1,.6a6.88,6.88,0,0,0-2.61,2.84l-.52,1-.61-1a6.78,6.78,0,0,0-2.84-2.62l-1.05-.52,1-.6a6.94,6.94,0,0,0,2.61-2.84Z"/><path class="cls-19" d="M347.22,383.48l.29.11a1.78,1.78,0,0,0,1,.1l.31-.06-.12.29a1.9,1.9,0,0,0-.1,1l.06.3-.29-.11a1.78,1.78,0,0,0-1-.1l-.31,0,.12-.28a1.9,1.9,0,0,0,.1-1Z"/><path class="cls-19" d="M364.67,122.54l.29.12a1.78,1.78,0,0,0,1,.1l.31-.06-.12.29a1.81,1.81,0,0,0-.1,1l.06.3-.29-.12a1.88,1.88,0,0,0-1-.1l-.31.06.12-.29a1.87,1.87,0,0,0,.1-1Z"/><path class="cls-19" d="M126.44,98.72l.29.12a1.88,1.88,0,0,0,1,.1l.31-.06-.12.29a1.87,1.87,0,0,0-.1,1l.06.31-.29-.12a1.87,1.87,0,0,0-1-.1l-.31.06.12-.29a1.79,1.79,0,0,0,.1-1Z"/><path class="cls-19" d="M155.84,301.89l.29.12a1.9,1.9,0,0,0,1,.1l.3-.06-.11.29a1.78,1.78,0,0,0-.1,1l.05.31-.29-.12a1.86,1.86,0,0,0-1-.1l-.3.06.11-.29a1.78,1.78,0,0,0,.1-1Z"/><path class="cls-19" d="M187.72,380.42s-.09.11-.27.29l-.84.83-3.23,3.15-12,11.56,0-.12c.57,12.55,1.35,29.6,2.21,48.57l0,.43-.36-.24L169,442l-27.44-18.38-.06,0,0-.06c-4.09-12.23-7.55-22.54-10-29.82l-2.79-8.47c-.32-1-.56-1.71-.73-2.24-.08-.25-.13-.44-.18-.58s-.06-.2,0-.2,0,.06.08.19l.21.57c.18.52.45,1.27.78,2.22.68,2,1.67,4.83,2.91,8.43l10.13,29.78-.07-.1,27.47,18.33,4.32,2.9-.33.19c-.82-19-1.55-36-2.08-48.58v-.07l.05,0,12.09-11.47,3.28-3.08.87-.8Z"/><polygon class="cls-19" points="174.94 438.99 174.85 441.82 177.14 443.5 174.42 444.29 173.53 446.98 171.94 444.63 169.1 444.62 170.84 442.38 169.98 439.68 172.64 440.64 174.94 438.99"/><polygon class="cls-19" points="141.88 419.77 141.94 421.61 143.48 422.6 141.75 423.22 141.28 424.99 140.16 423.54 138.33 423.64 139.37 422.13 138.7 420.42 140.46 420.93 141.88 419.77"/><polygon class="cls-19" points="127.64 378.85 129.03 380.62 131.27 380.49 130.01 382.35 130.83 384.45 128.67 383.82 126.93 385.25 126.85 383 124.96 381.79 127.08 381.02 127.64 378.85"/><polygon class="cls-19" points="186.34 377.07 187.72 378.85 189.97 378.71 188.7 380.58 189.52 382.67 187.36 382.05 185.62 383.48 185.55 381.23 183.65 380.01 185.77 379.25 186.34 377.07"/><polygon class="cls-19" points="170.93 394.22 171.81 395.35 173.24 395.26 172.44 396.45 172.96 397.79 171.58 397.39 170.47 398.3 170.42 396.87 169.22 396.1 170.56 395.61 170.93 394.22"/><circle class="cls-7" cx="118" cy="298.64" r="19.94"/><g class="cls-20"><path class="cls-6" d="M115.41,304.87a3.25,3.25,0,1,1-3.25-3.25A3.25,3.25,0,0,1,115.41,304.87Z"/></g><g class="cls-20"><path class="cls-6" d="M110.8,295.48a1.9,1.9,0,1,1-1.89-1.89A1.89,1.89,0,0,1,110.8,295.48Z"/></g><path class="cls-13" d="M98.66,303.49c.09.35-17.07,16.81-12.65,20.32s23-5.49,38.89-18.3,30.35-28.37,26.38-32.49-23.78,8.08-23.78,8.08l2.37,1.51s12-7.69,15.77-4.71-7,14.65-22.26,25.78-30,18.95-32.28,15.9,8.51-13.23,8.51-13.23Z"/><path class="cls-21" d="M98.66,303.49c.09.35-17.07,16.81-12.65,20.32s23-5.49,38.89-18.3,30.35-28.37,26.38-32.49-23.78,8.08-23.78,8.08l2.37,1.51s12-7.69,15.77-4.71-7,14.65-22.26,25.78-30,18.95-32.28,15.9,8.51-13.23,8.51-13.23Z"/><g class="cls-20"><path class="cls-6" d="M107,284.59c.17.2-1.19,1.34-2.72,3.65a18.35,18.35,0,0,0-.4,20.17c1.44,2.36,2.74,3.56,2.57,3.75s-1.7-.79-3.47-3.14a17,17,0,0,1-2.43-4.54,17.36,17.36,0,0,1,.25-12.45,17.39,17.39,0,0,1,2.6-4.44C105.28,285.31,106.92,284.45,107,284.59Z"/></g><circle class="cls-7" cx="337.78" cy="111.83" r="16.45" transform="translate(16.52 264.79) rotate(-43.78)"/><g class="cls-12"><path d="M343.14,105.53a2.69,2.69,0,1,1,2.62,2.75A2.7,2.7,0,0,1,343.14,105.53Z"/></g><g class="cls-12"><path d="M348.51,111.8a1.56,1.56,0,1,1,1.52,1.59A1.56,1.56,0,0,1,348.51,111.8Z"/></g><g class="cls-12"><path d="M346.41,116.59a.57.57,0,0,1,.56.59.56.56,0,0,1-.58.56.59.59,0,0,1-.57-.59A.57.57,0,0,1,346.41,116.59Z"/></g></g></svg>