<svg xmlns="http://www.w3.org/2000/svg" viewBox="0 0 500 500"><defs><style>.cls-1{fill:#fafafa;}.cls-2{fill:#e0e0e0;}.cls-3{fill:#708bfc;}.cls-4{opacity:0.3;}.cls-5{fill:#f5f5f5;}.cls-6{fill:#ebebeb;}.cls-7{fill:#fff;}.cls-8{fill:#263238;}.cls-9{fill:#455a64;}.cls-10{fill:#ffbe9d;}.cls-11{fill:#d79870;}.cls-12{fill:#aa8776;}.cls-13{fill:#996552;}</style></defs><title>Events</title><g id="Windows"><path class="cls-1" d="M295.89,402v19.28h3v2.09h-3v12.91H239.4V424.51h4.18V422H239.4v-3.84h-1.86v-1.74h2.21V402Z"/><polygon class="cls-2" points="254.4 402.03 254.4 436.03 239.4 436.03 239.4 424.29 243.58 424.29 243.58 421.95 239.4 422.03 239.4 418.19 237.5 418.2 237.54 416.21 239.75 416.15 239.75 401.98 254.4 402.03"/><path class="cls-2" d="M253.33,423.07c0,.12,10.22.21,22.83.21s22.83-.09,22.83-.21-10.22-.22-22.83-.22S253.33,423,253.33,423.07Z"/><path class="cls-2" d="M253.33,421.11c0,.12,10.22.21,22.83.21s22.83-.09,22.83-.21-10.22-.21-22.83-.21S253.33,421,253.33,421.11Z"/><path class="cls-2" d="M250.4,415.84c0,.12,10.22.21,22.82.21s22.84-.09,22.84-.21-10.22-.21-22.84-.21S250.4,415.72,250.4,415.84Z"/><path class="cls-2" d="M250.11,430.2c0,.12,10.23.21,22.83.21s22.83-.09,22.83-.21-10.22-.21-22.83-.21S250.11,430.08,250.11,430.2Z"/><path class="cls-3" d="M223.71,389.45l-1.24,22.84a1.55,1.55,0,0,1-1.53,1.46l-41.11.3a1.54,1.54,0,0,1-1.56-1.53l-.13-17.78a1.55,1.55,0,0,1,1.54-1.56l25.29,0a1.54,1.54,0,0,0,1.09-.45l4.36-4.36a1.51,1.51,0,0,1,1.08-.45l10.66-.08A1.54,1.54,0,0,1,223.71,389.45Z"/><g class="cls-4"><path d="M223.71,389.45l-1.24,22.84a1.55,1.55,0,0,1-1.53,1.46l-41.11.3a1.54,1.54,0,0,1-1.56-1.53l-.13-17.78a1.55,1.55,0,0,1,1.54-1.56l25.29,0a1.54,1.54,0,0,0,1.09-.45l4.36-4.36a1.51,1.51,0,0,1,1.08-.45l10.66-.08A1.54,1.54,0,0,1,223.71,389.45Z"/></g><rect class="cls-5" x="178.21" y="390.33" width="44.92" height="26.84" transform="translate(404.29 806.02) rotate(179.58)"/><path class="cls-6" d="M226.62,392.55l-3.22,28a1,1,0,0,1-1,.88l-43.78.32a1,1,0,0,1-1-.9l-2.41-28a1,1,0,0,1,1-1.07l49.41-.37A1,1,0,0,1,226.62,392.55Z"/><path class="cls-2" d="M235.8,385.14,234.56,408a1.54,1.54,0,0,1-1.53,1.46l-41.11.3a1.53,1.53,0,0,1-1.55-1.53l-.13-17.78a1.54,1.54,0,0,1,1.54-1.56l25.28,0a1.54,1.54,0,0,0,1.09-.45l4.36-4.36a1.53,1.53,0,0,1,1.08-.45l10.66-.08A1.54,1.54,0,0,1,235.8,385.14Z"/><rect class="cls-5" x="190.3" y="386.02" width="44.92" height="26.84" transform="translate(428.45 797.31) rotate(179.58)"/><path class="cls-2" d="M238.72,388.24l-3.23,28a1,1,0,0,1-1,.88l-43.77.32a1,1,0,0,1-1-.9l-2.41-28a1,1,0,0,1,1-1.07l49.41-.37A1,1,0,0,1,238.72,388.24Z"/><path class="cls-6" d="M249.43,390.48l-1.24,22.85a1.54,1.54,0,0,1-1.53,1.46l-41.11.3a1.53,1.53,0,0,1-1.55-1.53l-.13-17.78a1.54,1.54,0,0,1,1.54-1.56l25.28,0a1.54,1.54,0,0,0,1.09-.45l4.37-4.36a1.49,1.49,0,0,1,1.07-.45l10.66-.08A1.54,1.54,0,0,1,249.43,390.48Z"/><rect class="cls-1" x="203.93" y="391.37" width="44.92" height="26.84" transform="translate(455.75 807.91) rotate(179.58)"/><path class="cls-6" d="M252.35,393.59l-3.23,28a1,1,0,0,1-1,.88l-43.77.32a1,1,0,0,1-1-.9l-2.41-28a1,1,0,0,1,1-1.07l49.41-.37A1,1,0,0,1,252.35,393.59Z"/><path class="cls-5" d="M201,397.4v38.86H257V397.4Zm18.3,7a2.88,2.88,0,0,1,2.87-2.87h13.72a2.87,2.87,0,1,1,0,5.74H222.13A2.88,2.88,0,0,1,219.26,404.39Z"/><path class="cls-2" d="M170.74,397.4v38.86H201V397.4Z"/><rect class="cls-2" x="28.65" y="97.02" width="77.13" height="80.4"/><rect class="cls-1" x="23.43" y="97.02" width="77.13" height="80.4"/><path class="cls-2" d="M100.58,177.45H23.41V97h77.17Zm-77.13,0h77.08V97.05H23.45Z"/><rect class="cls-1" x="33.8" y="107.83" width="56.39" height="58.78"/><path class="cls-2" d="M33.8,167a9.71,9.71,0,0,1-1.39,1.61c-.91.95-2.17,2.24-3.59,3.64s-2.72,2.64-3.68,3.52a8.58,8.58,0,0,1-1.63,1.36,8.75,8.75,0,0,1,1.38-1.61c.9-.95,2.17-2.24,3.59-3.64s2.73-2.65,3.69-3.53A8.12,8.12,0,0,1,33.8,167Z"/><path class="cls-2" d="M90.19,166.86a10,10,0,0,1,1.62,1.39c1,.9,2.23,2.17,3.63,3.59s2.64,2.72,3.53,3.68a8.72,8.72,0,0,1,1.35,1.63,8.75,8.75,0,0,1-1.61-1.38c-.95-.9-2.24-2.17-3.64-3.6s-2.65-2.72-3.53-3.69A7.93,7.93,0,0,1,90.19,166.86Z"/><path class="cls-2" d="M90,108a9.49,9.49,0,0,1,1.39-1.62c.91-1,2.17-2.24,3.59-3.63s2.72-2.65,3.68-3.53a9.1,9.1,0,0,1,1.63-1.36,8.75,8.75,0,0,1-1.38,1.61c-.9,1-2.17,2.24-3.59,3.65s-2.73,2.64-3.69,3.53A9.12,9.12,0,0,1,90,108Z"/><path class="cls-2" d="M33.64,108.13A9.36,9.36,0,0,1,32,106.74c-1-.9-2.23-2.16-3.63-3.58s-2.64-2.73-3.53-3.69a8.72,8.72,0,0,1-1.35-1.63,9.71,9.71,0,0,1,1.61,1.39c.95.9,2.24,2.17,3.64,3.59s2.65,2.73,3.53,3.69A8.26,8.26,0,0,1,33.64,108.13Z"/><path class="cls-2" d="M90,166.61s0-.1,0-.28,0-.47,0-.82c0-.74,0-1.8,0-3.17,0-2.79,0-6.84,0-12,0-10.3-.07-25-.11-42.53l.21.22-56.23,0h0l.25-.25c0,21.58,0,41.76,0,58.78l-.21-.21,40.72.11,11.43.06,3,0h1a1,1,0,0,1-.25,0H89l-3,0-11.39.06-40.85.11h-.22v-.22c0-17,0-37.2,0-58.78v-.25h.25l56.23,0h.22v.22c0,17.62-.08,32.34-.11,42.66,0,5.13,0,9.16-.06,11.94,0,1.35,0,2.4,0,3.13,0,.34,0,.6,0,.79A1.1,1.1,0,0,1,90,166.61Z"/><rect class="cls-6" x="52.58" y="127.82" width="18.82" height="18.82"/><rect class="cls-6" x="412.74" y="359.64" width="55.17" height="4.28"/><rect class="cls-2" x="452.76" y="359.64" width="15.15" height="4.28"/><path class="cls-5" d="M405.74,363.92V383.2h-3v2.09h3v12.9h56.49V386.45H458V383.9h4.19v-3.84h1.86v-1.74h-2.21v-14.4Z"/><polygon class="cls-2" points="447.23 363.98 447.23 397.98 462.23 397.98 462.23 386.24 458.04 386.24 458.04 383.9 462.23 383.9 462.23 380.06 464.09 380.06 464.09 378.1 461.88 378.1 461.88 363.92 447.23 363.98"/><path class="cls-2" d="M448.29,385c0,.12-10.22.22-22.82.22s-22.83-.1-22.83-.22,10.22-.21,22.83-.21S448.29,384.9,448.29,385Z"/><path class="cls-2" d="M448.29,383.06c0,.11-10.22.21-22.82.21s-22.83-.1-22.83-.21,10.22-.22,22.83-.22S448.29,382.94,448.29,383.06Z"/><path class="cls-2" d="M451.23,377.79c0,.11-10.22.21-22.83.21s-22.83-.1-22.83-.21,10.22-.22,22.83-.22S451.23,377.67,451.23,377.79Z"/><path class="cls-2" d="M451.51,392.15c0,.12-10.22.21-22.83.21s-22.83-.09-22.83-.21,10.22-.22,22.83-.22S451.51,392,451.51,392.15Z"/><path class="cls-5" d="M412.15,402.28v19.28h-3v2.09h3v12.9h56.49V424.81h-4.19v-2.56h4.19v-3.83h1.85v-1.75h-2.2V402.28Z"/><polygon class="cls-2" points="453.63 402.33 453.63 436.33 468.63 436.33 468.63 424.6 464.45 424.6 464.45 422.25 468.63 422.33 468.63 418.5 470.53 418.5 470.5 416.52 468.29 416.46 468.29 402.28 453.63 402.33"/><path class="cls-2" d="M454.7,423.37c0,.12-10.22.21-22.83.21s-22.83-.09-22.83-.21,10.22-.21,22.83-.21S454.7,423.25,454.7,423.37Z"/><path class="cls-2" d="M454.7,421.41c0,.12-10.22.22-22.83.22s-22.83-.1-22.83-.22,10.22-.21,22.83-.21S454.7,421.29,454.7,421.41Z"/><path class="cls-2" d="M457.64,416.14c0,.12-10.23.22-22.83.22s-22.83-.1-22.83-.22,10.22-.21,22.83-.21S457.64,416,457.64,416.14Z"/><path class="cls-2" d="M457.92,430.5c0,.12-10.22.22-22.83.22s-22.83-.1-22.83-.22,10.22-.21,22.83-.21S457.92,430.39,457.92,430.5Z"/><path class="cls-5" d="M411.33,325.37v19.28h-3v2.09h3v12.9h56.49V347.9h-4.19v-2.55h4.19v-3.84h1.86v-1.74h-2.21v-14.4Z"/><polygon class="cls-2" points="452.81 325.43 452.81 359.43 467.81 359.43 467.81 347.69 463.63 347.69 463.63 345.35 467.81 345.43 467.81 341.59 469.71 341.59 469.68 339.61 467.47 339.55 467.47 325.37 452.81 325.43"/><path class="cls-2" d="M453.88,346.46c0,.12-10.22.22-22.83.22s-22.83-.1-22.83-.22,10.22-.21,22.83-.21S453.88,346.35,453.88,346.46Z"/><path class="cls-2" d="M453.88,344.51c0,.11-10.22.21-22.83.21s-22.83-.1-22.83-.21,10.22-.22,22.83-.22S453.88,344.39,453.88,344.51Z"/><path class="cls-2" d="M456.82,339.24c0,.11-10.23.21-22.83.21s-22.83-.1-22.83-.21S421.38,339,434,339,456.82,339.12,456.82,339.24Z"/><path class="cls-2" d="M457.1,353.6c0,.11-10.22.21-22.83.21s-22.83-.1-22.83-.21,10.22-.22,22.83-.22S457.1,353.48,457.1,353.6Z"/><rect class="cls-6" x="409.04" y="398" width="55.17" height="4.28"/><rect class="cls-2" x="449.06" y="398" width="15.15" height="4.28"/><rect class="cls-7" x="67.1" y="124.03" width="371.17" height="223.88"/><path class="cls-8" d="M438.27,347.91c0-1.24-.06-86.71-.15-223.88l.15.15-371.14,0h0l.2-.2c0,79.32,0,155,0,223.88l-.18-.18,371.17.18L67.1,348.1h-.19v-.19c0-68.87,0-144.56,0-223.88v-.2h.23l371.14,0h.15V124C438.33,261.2,438.27,346.67,438.27,347.91Z"/><path class="cls-2" d="M115.66,162s-2,18.26.57,28.25l24.4-1.06s-5.23-18-2-26Z"/><path class="cls-3" d="M115.48,162s.16,19.71,1.17,25.73l24.72-1.17S139.2,167.2,140,162Z"/><path class="cls-7" d="M136.31,170.3c0,.11-3.71.42-8.29.7s-8.3.41-8.3.3,3.7-.42,8.28-.7S136.3,170.19,136.31,170.3Z"/><path class="cls-7" d="M136.31,174.48c0,.11-3.7.42-8.28.69s-8.3.41-8.31.31,3.7-.43,8.29-.7S136.31,174.37,136.31,174.48Z"/><path class="cls-7" d="M132.11,178.58a28.74,28.74,0,0,1-4.71.48,29.59,29.59,0,0,1-4.74.09,28,28,0,0,1,4.71-.49A28.84,28.84,0,0,1,132.11,178.58Z"/><path class="cls-3" d="M115.05,191.5s.17,19.71,1.17,25.73l24.72-1.17s-2.17-19.38-1.33-24.56Z"/><path class="cls-7" d="M135.88,199.78c0,.11-3.7.42-8.28.7s-8.3.41-8.31.3,3.7-.42,8.28-.7S135.88,199.67,135.88,199.78Z"/><path class="cls-7" d="M135.89,204c0,.11-3.7.43-8.28.7s-8.31.41-8.31.3,3.7-.42,8.28-.69S135.88,203.85,135.89,204Z"/><path class="cls-7" d="M131.69,208.05a28.44,28.44,0,0,1-4.72.49,28.84,28.84,0,0,1-4.74.08,29.14,29.14,0,0,1,4.72-.48A29.59,29.59,0,0,1,131.69,208.05Z"/><path class="cls-8" d="M115.05,224.89s.17,19.71,1.17,25.72l24.72-1.17s-2.17-19.37-1.33-24.55Z"/><path class="cls-7" d="M135.88,233.17c0,.11-3.7.42-8.28.69s-8.3.41-8.31.31,3.7-.43,8.28-.7S135.88,233.06,135.88,233.17Z"/><path class="cls-7" d="M135.89,237.34c0,.11-3.7.42-8.28.7s-8.31.41-8.31.3,3.7-.42,8.28-.7S135.88,237.23,135.89,237.34Z"/><path class="cls-7" d="M131.69,241.44a27.86,27.86,0,0,1-4.72.48,28.25,28.25,0,0,1-4.74.09,29.14,29.14,0,0,1,4.72-.48A28.25,28.25,0,0,1,131.69,241.44Z"/><path class="cls-9" d="M112.17,263.94s.16,19.71,1.17,25.72l24.72-1.17s-2.17-19.37-1.34-24.55Z"/><path class="cls-7" d="M133,272.22c0,.11-3.7.42-8.29.69s-8.3.41-8.3.31,3.7-.43,8.28-.7S133,272.11,133,272.22Z"/><path class="cls-7" d="M133,276.39c0,.11-3.7.42-8.28.7s-8.3.41-8.31.3,3.7-.42,8.29-.7S133,276.28,133,276.39Z"/><path class="cls-7" d="M128.8,280.49a27.49,27.49,0,0,1-4.71.48,28.25,28.25,0,0,1-4.74.09,28.74,28.74,0,0,1,4.71-.48A28.23,28.23,0,0,1,128.8,280.49Z"/><path class="cls-8" d="M144.94,264.11s.17,19.71,1.17,25.72l24.72-1.16s-2.17-19.38-1.33-24.56Z"/><path class="cls-7" d="M165.77,272.39c0,.11-3.7.42-8.28.69s-8.3.42-8.31.31,3.7-.43,8.28-.7S165.77,272.28,165.77,272.39Z"/><path class="cls-7" d="M165.78,276.56c0,.11-3.7.42-8.29.7s-8.3.41-8.3.3,3.7-.42,8.28-.7S165.77,276.45,165.78,276.56Z"/><path class="cls-7" d="M161.58,280.66a27.86,27.86,0,0,1-4.72.48,28.25,28.25,0,0,1-4.74.09,29.14,29.14,0,0,1,4.72-.48A28.25,28.25,0,0,1,161.58,280.66Z"/><path class="cls-3" d="M172.36,265.52s.16,19.71,1.16,25.73l24.73-1.17s-2.17-19.38-1.34-24.56Z"/><path class="cls-7" d="M193.19,273.8c0,.11-3.71.42-8.29.7s-8.3.41-8.31.3,3.71-.42,8.29-.7S193.18,273.69,193.19,273.8Z"/><path class="cls-7" d="M193.19,278c0,.11-3.7.42-8.28.69s-8.3.41-8.31.3,3.7-.42,8.29-.69S193.19,277.87,193.19,278Z"/><path class="cls-7" d="M189,282.08a28.74,28.74,0,0,1-4.71.48,29.57,29.57,0,0,1-4.74.09,28,28,0,0,1,4.71-.49A28.84,28.84,0,0,1,189,282.08Z"/><path class="cls-9" d="M140.32,299.23s.17,19.71,1.17,25.72l24.73-1.17s-2.18-19.37-1.34-24.55Z"/><path class="cls-7" d="M161.15,307.51c0,.11-3.7.42-8.28.69s-8.3.41-8.31.31,3.7-.43,8.29-.7S161.15,307.4,161.15,307.51Z"/><path class="cls-7" d="M161.16,311.68c0,.11-3.7.42-8.28.7s-8.31.41-8.31.3,3.7-.42,8.28-.7S161.15,311.57,161.16,311.68Z"/><path class="cls-7" d="M157,315.78a27.86,27.86,0,0,1-4.72.48,28.25,28.25,0,0,1-4.74.09,29.14,29.14,0,0,1,4.72-.48A28.25,28.25,0,0,1,157,315.78Z"/><path class="cls-8" d="M219.68,254s.16,19.72,1.17,25.73l24.72-1.17s-2.17-19.38-1.34-24.56Z"/><path class="cls-7" d="M240.51,262.23c0,.11-3.71.42-8.29.7s-8.3.41-8.3.3,3.7-.42,8.28-.7S240.5,262.12,240.51,262.23Z"/><path class="cls-7" d="M240.51,266.41c0,.11-3.7.42-8.28.69s-8.3.42-8.31.31,3.7-.42,8.29-.7S240.51,266.3,240.51,266.41Z"/><path class="cls-7" d="M236.31,270.51a28.74,28.74,0,0,1-4.71.48,28.23,28.23,0,0,1-4.74.09,28,28,0,0,1,4.71-.49A28.84,28.84,0,0,1,236.31,270.51Z"/><path class="cls-9" d="M273.35,300.23s.17,19.71,1.17,25.72l24.73-1.17s-2.18-19.37-1.34-24.55Z"/><path class="cls-7" d="M294.18,308.51c0,.11-3.7.42-8.28.69s-8.3.41-8.31.31,3.7-.43,8.29-.7S294.18,308.4,294.18,308.51Z"/><path class="cls-7" d="M294.19,312.68c0,.11-3.7.42-8.28.7s-8.31.41-8.31.3,3.7-.42,8.28-.7S294.18,312.57,294.19,312.68Z"/><path class="cls-7" d="M290,316.78a27.86,27.86,0,0,1-4.72.48,28.25,28.25,0,0,1-4.74.09,29.14,29.14,0,0,1,4.72-.48A28.25,28.25,0,0,1,290,316.78Z"/><path class="cls-9" d="M303.87,300.65s.16,19.71,1.17,25.72l24.72-1.17s-2.17-19.37-1.34-24.55Z"/><path class="cls-7" d="M324.7,308.93c0,.11-3.71.42-8.29.69s-8.3.41-8.3.31,3.7-.43,8.28-.7S324.69,308.82,324.7,308.93Z"/><path class="cls-7" d="M324.7,313.1c0,.11-3.7.42-8.28.7s-8.3.41-8.31.3,3.7-.42,8.29-.7S324.7,313,324.7,313.1Z"/><path class="cls-7" d="M320.5,317.2a27.49,27.49,0,0,1-4.71.48,28.25,28.25,0,0,1-4.74.09,28.74,28.74,0,0,1,4.71-.48A28.25,28.25,0,0,1,320.5,317.2Z"/><path class="cls-8" d="M334.38,301.07s.17,19.71,1.17,25.72l24.72-1.17s-2.17-19.37-1.33-24.55Z"/><path class="cls-7" d="M355.21,309.35c0,.11-3.7.42-8.28.69s-8.3.41-8.31.3,3.7-.42,8.28-.69S355.21,309.24,355.21,309.35Z"/><path class="cls-7" d="M355.22,313.52c0,.11-3.7.42-8.29.7s-8.3.41-8.3.3,3.7-.42,8.28-.7S355.21,313.41,355.22,313.52Z"/><path class="cls-7" d="M351,317.62a27.86,27.86,0,0,1-4.72.48,28.25,28.25,0,0,1-4.74.09,29.14,29.14,0,0,1,4.72-.48A28.25,28.25,0,0,1,351,317.62Z"/><path class="cls-9" d="M371.07,299.92s.16,19.71,1.17,25.72L397,324.47s-2.17-19.38-1.34-24.55Z"/><path class="cls-7" d="M391.9,308.2c0,.11-3.7.42-8.29.69s-8.3.41-8.3.3,3.7-.42,8.28-.69S391.89,308.09,391.9,308.2Z"/><path class="cls-7" d="M391.9,312.37c0,.11-3.7.42-8.28.7s-8.3.41-8.31.3,3.71-.42,8.29-.7S391.9,312.26,391.9,312.37Z"/><path class="cls-7" d="M387.7,316.47A27.49,27.49,0,0,1,383,317a28.25,28.25,0,0,1-4.74.09,27.49,27.49,0,0,1,4.71-.48A28.23,28.23,0,0,1,387.7,316.47Z"/><path class="cls-9" d="M397.66,302.76s.17,19.71,1.17,25.73l24.73-1.17s-2.18-19.38-1.34-24.56Z"/><path class="cls-7" d="M418.49,311c0,.11-3.7.42-8.28.7s-8.3.41-8.31.3,3.7-.42,8.29-.7S418.49,310.93,418.49,311Z"/><path class="cls-7" d="M418.5,315.22c0,.1-3.7.42-8.28.69s-8.31.41-8.31.3,3.7-.42,8.28-.69S418.49,315.11,418.5,315.22Z"/><path class="cls-7" d="M414.3,319.32a30.55,30.55,0,0,1-4.72.48,28.84,28.84,0,0,1-4.74.08,29.14,29.14,0,0,1,4.72-.48A28.84,28.84,0,0,1,414.3,319.32Z"/><path class="cls-9" d="M273.24,264.4s.17,19.71,1.17,25.73L299.13,289S297,269.58,297.8,264.4Z"/><path class="cls-7" d="M294.07,272.68c0,.11-3.7.42-8.28.7s-8.3.41-8.31.3,3.7-.42,8.28-.7S294.07,272.57,294.07,272.68Z"/><path class="cls-7" d="M294.08,276.86c0,.11-3.7.42-8.29.69s-8.3.41-8.3.3,3.7-.42,8.28-.69S294.07,276.75,294.08,276.86Z"/><path class="cls-7" d="M289.88,281a29.14,29.14,0,0,1-4.72.48,29.59,29.59,0,0,1-4.74.09,28.44,28.44,0,0,1,4.72-.49A28.84,28.84,0,0,1,289.88,281Z"/><path class="cls-3" d="M305.52,264.5s.17,19.71,1.17,25.72l24.72-1.17s-2.17-19.37-1.33-24.55Z"/><path class="cls-7" d="M326.35,272.78c0,.11-3.7.42-8.28.69s-8.3.41-8.31.3,3.7-.42,8.28-.69S326.34,272.67,326.35,272.78Z"/><path class="cls-7" d="M326.36,277c0,.11-3.71.42-8.29.7s-8.3.41-8.3.3,3.7-.42,8.28-.7S326.35,276.84,326.36,277Z"/><path class="cls-7" d="M322.15,281.05a27.49,27.49,0,0,1-4.71.48,28.25,28.25,0,0,1-4.74.09,29,29,0,0,1,4.72-.48A28.1,28.1,0,0,1,322.15,281.05Z"/><path class="cls-9" d="M369.13,264.51s.17,19.71,1.17,25.73L395,289.07s-2.17-19.38-1.34-24.56Z"/><path class="cls-7" d="M390,272.79c0,.11-3.7.42-8.28.7s-8.3.41-8.31.3,3.7-.42,8.29-.7S390,272.68,390,272.79Z"/><path class="cls-7" d="M390,277c0,.11-3.7.43-8.28.7s-8.3.41-8.31.3,3.7-.42,8.28-.69S390,276.86,390,277Z"/><path class="cls-7" d="M385.77,281.06a28.26,28.26,0,0,1-4.72.49,28.68,28.68,0,0,1-4.73.08,28.74,28.74,0,0,1,4.71-.48A29.59,29.59,0,0,1,385.77,281.06Z"/><path class="cls-8" d="M153.43,224.89s.17,19.71,1.17,25.72l24.73-1.17s-2.17-19.37-1.34-24.55Z"/><path class="cls-7" d="M174.26,233.17c0,.11-3.7.42-8.28.69s-8.3.41-8.31.31,3.71-.43,8.29-.7S174.26,233.06,174.26,233.17Z"/><path class="cls-7" d="M174.27,237.34c0,.11-3.7.42-8.28.7s-8.3.41-8.31.3,3.7-.42,8.28-.7S174.26,237.23,174.27,237.34Z"/><path class="cls-7" d="M170.07,241.44a27.69,27.69,0,0,1-4.72.48,28.1,28.1,0,0,1-4.73.09,28.74,28.74,0,0,1,4.71-.48A28.25,28.25,0,0,1,170.07,241.44Z"/><path class="cls-3" d="M143.61,162s.17,19.71,1.17,25.73l24.72-1.17s-2.17-19.38-1.33-24.56Z"/><path class="cls-7" d="M164.44,170.3c0,.11-3.7.42-8.28.7s-8.3.41-8.31.3,3.7-.42,8.28-.7S164.44,170.19,164.44,170.3Z"/><path class="cls-7" d="M164.45,174.48c0,.11-3.7.42-8.29.69s-8.3.41-8.3.31,3.7-.43,8.28-.7S164.44,174.37,164.45,174.48Z"/><path class="cls-7" d="M160.25,178.58a29.14,29.14,0,0,1-4.72.48,29.59,29.59,0,0,1-4.74.09,28.44,28.44,0,0,1,4.72-.49A28.84,28.84,0,0,1,160.25,178.58Z"/><path class="cls-3" d="M144.15,191.61s.17,19.71,1.17,25.73l24.73-1.17s-2.18-19.38-1.34-24.56Z"/><path class="cls-7" d="M165,199.89c0,.11-3.7.42-8.28.7s-8.3.41-8.31.3,3.7-.42,8.29-.7S165,199.78,165,199.89Z"/><path class="cls-7" d="M165,204.06c0,.11-3.7.43-8.28.7s-8.31.41-8.31.3,3.7-.42,8.28-.69S165,204,165,204.06Z"/><path class="cls-7" d="M160.79,208.16a28.44,28.44,0,0,1-4.72.49,28.84,28.84,0,0,1-4.74.08,29.14,29.14,0,0,1,4.72-.48A29.59,29.59,0,0,1,160.79,208.16Z"/><path class="cls-3" d="M174.42,162s.17,19.71,1.17,25.73l24.73-1.17S198.15,167.2,199,162Z"/><path class="cls-7" d="M195.25,170.3c0,.11-3.7.42-8.28.7s-8.3.41-8.31.3,3.7-.42,8.29-.7S195.25,170.19,195.25,170.3Z"/><path class="cls-7" d="M195.26,174.48c0,.11-3.7.42-8.28.69s-8.3.41-8.31.31,3.7-.43,8.28-.7S195.25,174.37,195.26,174.48Z"/><path class="cls-7" d="M191.06,178.58a29.14,29.14,0,0,1-4.72.48,29.44,29.44,0,0,1-4.73.09,28,28,0,0,1,4.71-.49A28.84,28.84,0,0,1,191.06,178.58Z"/><path class="cls-3" d="M205.24,162s.16,19.71,1.17,25.73l24.72-1.17S229,167.2,229.79,162Z"/><path class="cls-7" d="M226.07,170.3c0,.11-3.71.42-8.29.7s-8.3.41-8.3.3,3.7-.42,8.28-.7S226.06,170.19,226.07,170.3Z"/><path class="cls-7" d="M226.07,174.48c0,.11-3.7.42-8.28.69s-8.3.41-8.31.31,3.7-.43,8.29-.7S226.07,174.37,226.07,174.48Z"/><path class="cls-7" d="M221.87,178.58a28.74,28.74,0,0,1-4.71.48,29.57,29.57,0,0,1-4.74.09,28,28,0,0,1,4.71-.49A28.84,28.84,0,0,1,221.87,178.58Z"/><path class="cls-3" d="M236.05,162s.17,19.71,1.17,25.73l24.72-1.17s-2.17-19.38-1.33-24.56Z"/><path class="cls-7" d="M256.88,170.3c0,.11-3.7.42-8.28.7s-8.31.41-8.31.3,3.7-.42,8.28-.7S256.87,170.19,256.88,170.3Z"/><path class="cls-7" d="M256.89,174.48c0,.11-3.71.42-8.29.69s-8.3.41-8.3.31,3.7-.43,8.28-.7S256.88,174.37,256.89,174.48Z"/><path class="cls-7" d="M252.68,178.58a28.74,28.74,0,0,1-4.71.48,29.59,29.59,0,0,1-4.74.09,28.09,28.09,0,0,1,4.72-.49A28.68,28.68,0,0,1,252.68,178.58Z"/><path class="cls-3" d="M277.23,166.39s.17,19.71,1.17,25.73L303.13,191s-2.17-19.38-1.34-24.56Z"/><path class="cls-7" d="M298.07,174.67c0,.11-3.71.42-8.29.69s-8.3.42-8.31.31,3.71-.43,8.29-.7S298.06,174.56,298.07,174.67Z"/><path class="cls-7" d="M298.07,178.84c0,.11-3.7.42-8.28.7s-8.3.41-8.31.3,3.7-.42,8.29-.7S298.07,178.73,298.07,178.84Z"/><path class="cls-7" d="M293.87,182.94a28,28,0,0,1-4.71.49,28.8,28.8,0,0,1-4.74.08,28.74,28.74,0,0,1,4.71-.48A28.25,28.25,0,0,1,293.87,182.94Z"/><path class="cls-3" d="M304.82,166.81s.17,19.71,1.17,25.73l24.73-1.17s-2.18-19.38-1.34-24.56Z"/><path class="cls-7" d="M325.65,175.09c0,.11-3.7.42-8.28.7s-8.3.41-8.31.3,3.7-.42,8.29-.7S325.65,175,325.65,175.09Z"/><path class="cls-7" d="M325.66,179.27c0,.1-3.7.42-8.28.69s-8.31.41-8.31.3,3.7-.42,8.28-.69S325.65,179.16,325.66,179.27Z"/><path class="cls-7" d="M321.46,183.37a30.55,30.55,0,0,1-4.72.48,28.84,28.84,0,0,1-4.74.08,29.14,29.14,0,0,1,4.72-.48A27.57,27.57,0,0,1,321.46,183.37Z"/><path class="cls-3" d="M335.29,167.69s.17,19.72,1.17,25.73l24.73-1.17s-2.18-19.38-1.34-24.56Z"/><path class="cls-7" d="M356.12,176c0,.11-3.7.42-8.28.7s-8.3.41-8.31.3,3.7-.42,8.29-.7S356.12,175.86,356.12,176Z"/><path class="cls-7" d="M356.13,180.15c0,.11-3.7.42-8.28.7s-8.3.41-8.31.3,3.7-.42,8.28-.7S356.12,180,356.13,180.15Z"/><path class="cls-7" d="M351.93,184.25a29.14,29.14,0,0,1-4.72.48,28.25,28.25,0,0,1-4.74.09,27.86,27.86,0,0,1,4.72-.48A28.25,28.25,0,0,1,351.93,184.25Z"/><path class="cls-3" d="M371.51,166.67s.16,19.72,1.17,25.73l24.72-1.17s-2.17-19.38-1.34-24.56Z"/><path class="cls-7" d="M392.34,175c0,.11-3.7.42-8.28.7s-8.31.41-8.31.3,3.7-.42,8.28-.7S392.33,174.84,392.34,175Z"/><path class="cls-7" d="M392.35,179.13c0,.11-3.71.42-8.29.69s-8.3.41-8.31.31,3.71-.43,8.29-.7S392.34,179,392.35,179.13Z"/><path class="cls-7" d="M388.14,183.23a28.74,28.74,0,0,1-4.71.48,28.25,28.25,0,0,1-4.74.09,28,28,0,0,1,4.71-.49A28.82,28.82,0,0,1,388.14,183.23Z"/><path class="cls-3" d="M374.52,198.81s.17,19.71,1.17,25.72l24.72-1.16s-2.17-19.38-1.33-24.56Z"/><path class="cls-7" d="M395.35,207.09c0,.11-3.7.42-8.28.69s-8.3.42-8.31.31,3.7-.42,8.28-.7S395.34,207,395.35,207.09Z"/><path class="cls-7" d="M395.36,211.26c0,.11-3.7.42-8.29.7s-8.3.41-8.3.3,3.7-.42,8.28-.7S395.35,211.15,395.36,211.26Z"/><path class="cls-7" d="M391.16,215.36a28.44,28.44,0,0,1-4.72.49,28.84,28.84,0,0,1-4.74.08,29.14,29.14,0,0,1,4.72-.48A28.25,28.25,0,0,1,391.16,215.36Z"/><path class="cls-9" d="M393.23,169.43s.17,19.71,1.17,25.72L419.13,194s-2.18-19.37-1.34-24.55Z"/><path class="cls-7" d="M414.06,177.71c0,.11-3.7.42-8.28.69s-8.3.41-8.31.31,3.7-.43,8.29-.7S414.06,177.6,414.06,177.71Z"/><path class="cls-7" d="M414.07,181.88c0,.11-3.7.42-8.28.7s-8.31.41-8.31.3,3.7-.42,8.28-.7S414.06,181.77,414.07,181.88Z"/><path class="cls-7" d="M409.87,186a27.86,27.86,0,0,1-4.72.48,28.25,28.25,0,0,1-4.74.09,29.14,29.14,0,0,1,4.72-.48A28.25,28.25,0,0,1,409.87,186Z"/><path class="cls-9" d="M283.91,182.48s.17,19.72,1.17,25.73L309.81,207s-2.17-19.38-1.34-24.56Z"/><path class="cls-7" d="M304.75,190.76c0,.11-3.71.42-8.29.7s-8.3.41-8.31.3,3.71-.42,8.29-.69S304.74,190.65,304.75,190.76Z"/><path class="cls-7" d="M304.75,194.94c0,.11-3.7.42-8.28.7s-8.3.41-8.31.3,3.7-.42,8.29-.7S304.75,194.83,304.75,194.94Z"/><path class="cls-7" d="M300.55,199a28.74,28.74,0,0,1-4.71.48,28.21,28.21,0,0,1-4.74.09,27.49,27.49,0,0,1,4.71-.48A28.25,28.25,0,0,1,300.55,199Z"/><path class="cls-3" d="M280.8,226.23S281,246,282,252l24.73-1.17s-2.17-19.38-1.34-24.56Z"/><path class="cls-7" d="M301.64,234.51c0,.11-3.71.43-8.29.7s-8.3.41-8.31.3,3.71-.42,8.29-.69S301.63,234.4,301.64,234.51Z"/><path class="cls-7" d="M301.64,238.69c0,.11-3.7.42-8.28.7s-8.3.41-8.31.3,3.7-.42,8.28-.7S301.64,238.58,301.64,238.69Z"/><path class="cls-7" d="M297.44,242.79a29,29,0,0,1-4.72.48,28.1,28.1,0,0,1-4.73.09,27.49,27.49,0,0,1,4.71-.48A28.25,28.25,0,0,1,297.44,242.79Z"/><path class="cls-6" d="M203.32,183.42s2,18.25-.57,28.25l-24.4-1.06s5.23-18,2-26Z"/><path class="cls-9" d="M178.22,180.32s-1.54,20.7-2.87,24.88l22.22,2.34,3.34-3.18s2.36-18.26,2-23.44Z"/><polygon class="cls-8" points="198.07 204.2 197.57 207.54 200.91 204.36 198.07 204.2"/><path class="cls-7" d="M198.32,190.78a19.17,19.17,0,0,1-2.49-.3l-6-.84-6-.75a18.16,18.16,0,0,1-2.48-.36,13.74,13.74,0,0,1,2.51.08c1.55.12,3.68.33,6,.64s4.45.66,6,1A14.75,14.75,0,0,1,198.32,190.78Z"/><path class="cls-7" d="M197.35,195.34a13.67,13.67,0,0,1-2.4-.08c-1.48-.11-3.52-.31-5.77-.59s-4.27-.6-5.73-.87a14.26,14.26,0,0,1-2.35-.51,14.75,14.75,0,0,1,2.39.24l5.74.74L195,195A16.39,16.39,0,0,1,197.35,195.34Z"/><path class="cls-7" d="M196,199.54a71,71,0,0,1-7.47-.8,68.94,68.94,0,0,1-7.41-1.2,73.17,73.17,0,0,1,7.47.81A70.6,70.6,0,0,1,196,199.54Z"/><path class="cls-9" d="M125.37,205.27s-1.53,20.71-2.87,24.88l22.22,2.34,3.34-3.17s2.37-18.27,2-23.44Z"/><polygon class="cls-8" points="145.22 229.15 144.72 232.49 148.06 229.32 145.22 229.15"/><path class="cls-7" d="M145.47,215.73a16.15,16.15,0,0,1-2.49-.29l-6-.85-6-.75a15.83,15.83,0,0,1-2.48-.36,14.46,14.46,0,0,1,2.51.09c1.54.11,3.67.32,6,.63s4.46.67,6,1A14.42,14.42,0,0,1,145.47,215.73Z"/><path class="cls-7" d="M144.51,220.3a14.61,14.61,0,0,1-2.41-.09c-1.48-.11-3.52-.31-5.76-.59s-4.28-.6-5.74-.86a13.24,13.24,0,0,1-2.34-.52,16.44,16.44,0,0,1,2.39.24l5.74.75,5.74.7A14.28,14.28,0,0,1,144.51,220.3Z"/><path class="cls-7" d="M143.12,224.5a72.58,72.58,0,0,1-7.47-.81,71.69,71.69,0,0,1-7.42-1.19,70.76,70.76,0,0,1,7.47.8A70,70,0,0,1,143.12,224.5Z"/><rect class="cls-3" x="83.45" y="166.06" width="18.57" height="4.24"/><rect class="cls-8" x="83.45" y="267.41" width="18.57" height="4.24"/><rect class="cls-8" x="83.45" y="301.7" width="18.57" height="4.24"/><rect class="cls-2" x="154.29" y="141" width="64.09" height="4.24"/><rect class="cls-2" x="281.95" y="141" width="64.09" height="4.24"/><rect class="cls-2" x="377.11" y="141" width="30.61" height="4.24"/><path class="cls-8" d="M415.9,159.19c0,.11-75.14.2-167.81.2s-167.83-.09-167.83-.2,75.13-.19,167.83-.19S415.9,159.08,415.9,159.19Z"/><path class="cls-8" d="M415.9,260.08c0,.11-75.14.19-167.81.19s-167.83-.08-167.83-.19,75.13-.2,167.83-.2S415.9,260,415.9,260.08Z"/><path class="cls-8" d="M415.9,329.32c0,.11-75.14.2-167.81.2s-167.83-.09-167.83-.2,75.13-.2,167.83-.2S415.9,329.21,415.9,329.32Z"/><path class="cls-8" d="M415.9,295.56c0,.11-75.14.2-167.81.2s-167.83-.09-167.83-.2,75.13-.2,167.83-.2S415.9,295.45,415.9,295.56Z"/><path class="cls-8" d="M108.71,330.23c-.11,0-.2-42.87-.2-95.75s.09-95.76.2-95.76.2,42.86.2,95.76S108.82,330.23,108.71,330.23Z"/><path class="cls-8" d="M263.78,331.23c-.11,0-.2-42.81-.2-95.6s.09-95.61.2-95.61.2,42.8.2,95.61S263.89,331.23,263.78,331.23Z"/><path class="cls-8" d="M364.2,332.23c-.11,0-.19-42.81-.19-95.61s.08-95.62.19-95.62.2,42.8.2,95.62S364.31,332.23,364.2,332.23Z"/><path class="cls-8" d="M302.52,222a1.61,1.61,0,0,1,.3.11l.88.36a17,17,0,0,1,3.09,1.9,18,18,0,0,1,3.93,4.21,19.64,19.64,0,0,1,1.73,3.16,19.33,19.33,0,0,1,1.16,3.88,18,18,0,0,1-.8,9.16,19.9,19.9,0,0,1-6,8.65A19.3,19.3,0,0,1,296,257.79a21.07,21.07,0,0,1-12.21-2.62,20.73,20.73,0,0,1-8.45-9.19A18.07,18.07,0,0,1,279,225.23a16,16,0,0,1,3.94-2.79,17.2,17.2,0,0,1,4.2-1.49,26.34,26.34,0,0,1,7.6-.47,45.46,45.46,0,0,1,5.7.77c1.56.29,2.75.57,3.56.76l.92.22.3.09a1.52,1.52,0,0,1-.31,0l-.93-.19c-.81-.16-2-.41-3.56-.68a49,49,0,0,0-5.69-.7,26,26,0,0,0-7.53.53,16.74,16.74,0,0,0-4.12,1.48,15.66,15.66,0,0,0-3.85,2.75,17.92,17.92,0,0,0-5,9.07,17.66,17.66,0,0,0,1.37,11.29,20.39,20.39,0,0,0,8.29,9,20.75,20.75,0,0,0,12,2.57,19,19,0,0,0,10.59-4.23,19.61,19.61,0,0,0,6-8.48,17.86,17.86,0,0,0,.84-9,19.79,19.79,0,0,0-1.12-3.82,20.13,20.13,0,0,0-1.68-3.14,18,18,0,0,0-3.84-4.2,18.29,18.29,0,0,0-3-2l-.85-.4Z"/><path class="cls-8" d="M310.51,224.39c-.07-.09,3-2.62,6.79-5.66s7-5.44,7-5.35-3,2.62-6.79,5.66S310.58,224.47,310.51,224.39Z"/><path class="cls-8" d="M322.52,224.85a4.27,4.27,0,0,1-1,.14l-2.67.23c-2.27.18-5.4.4-8.89.62l-.28,0,.08-.27c0-.11.07-.22.11-.33a34.71,34.71,0,0,1,3.82-8.32c.63-1,1.19-1.75,1.59-2.27a5.71,5.71,0,0,1,.67-.77,5.89,5.89,0,0,1-.54.86c-.37.54-.89,1.33-1.48,2.33a39.1,39.1,0,0,0-3.69,8.29l-.1.32-.2-.25c3.48-.22,6.62-.4,8.89-.51l2.68-.1A4.45,4.45,0,0,1,322.52,224.85Z"/><path class="cls-8" d="M408.05,272.3s.23-.58.66-1.61a31.12,31.12,0,0,0,1.42-4.51A28.39,28.39,0,0,0,401,238a29.48,29.48,0,0,0-3.8-2.8c-.95-.59-1.5-.89-1.48-.92a2.53,2.53,0,0,1,.41.18c.26.14.66.32,1.15.61a26.1,26.1,0,0,1,3.91,2.72,28.12,28.12,0,0,1,9.26,28.46,26.13,26.13,0,0,1-1.55,4.5c-.22.52-.44.9-.57,1.16A2.06,2.06,0,0,1,408.05,272.3Z"/><path class="cls-8" d="M415.09,268a16.45,16.45,0,0,1-2,1.75l-2.24,1.82-1.34,1.06a2.92,2.92,0,0,1-1.72.87,1.11,1.11,0,0,1-.89-.61,3.44,3.44,0,0,1-.31-.9q-.22-.86-.42-1.65c-.26-1-.49-2-.7-2.81a18.52,18.52,0,0,1-.54-2.61,17.4,17.4,0,0,1,.82,2.54l.77,2.79c.14.52.29,1.07.44,1.64s.34,1.19.85,1.21,1-.42,1.46-.77l1.35-1.05,2.3-1.75A19.84,19.84,0,0,1,415.09,268Z"/><path class="cls-8" d="M221.32,221.8c0,.11-7.55,2.12-16.93,4.51s-17,4.23-17,4.13,7.55-2.13,16.92-4.51S221.29,221.69,221.32,221.8Z"/><path class="cls-8" d="M226.22,225.83c0,.1-8.3,2.51-18.6,5.39s-18.69,5.11-18.71,5,8.3-2.52,18.6-5.4S226.19,225.72,226.22,225.83Z"/><path class="cls-8" d="M229.22,232.49c0,.1-7.94,2.1-17.8,4.46s-17.86,4.19-17.89,4.08,7.94-2.1,17.8-4.46S229.19,232.38,229.22,232.49Z"/><polygon class="cls-6" points="187.09 302.1 193.14 334.04 253.52 322.61 243.03 291.51 187.09 302.1"/><rect class="cls-7" x="188" y="296.68" width="58.21" height="28.8" transform="translate(-54.07 45.81) rotate(-10.72)"/><path class="cls-8" d="M248.38,319.81l-.11-.51-.3-1.48c-.25-1.3-.63-3.2-1.1-5.64-1-4.89-2.31-11.94-4-20.64l.17.12-57.18,10.88h0l.16-.23c1.88,10,3.69,19.54,5.34,28.29l-.22-.14,41.07-7.69,11.87-2.19,3.18-.58.82-.15.29,0a1.56,1.56,0,0,1-.26.06l-.8.17-3.13.61-11.81,2.29-41.16,7.88-.18,0,0-.19c-1.66-8.75-3.48-18.32-5.37-28.29l0-.2.2,0h0L243,291.37l.14,0,0,.15c1.62,8.74,2.94,15.83,3.85,20.75.44,2.43.79,4.33,1,5.63l.25,1.45C248.36,319.65,248.38,319.81,248.38,319.81Z"/><rect class="cls-7" x="194.06" y="305.87" width="16.09" height="16.09" transform="translate(-54.86 43.07) rotate(-10.72)"/><path class="cls-8" d="M211.51,320.33s0-.11-.07-.31-.11-.51-.19-.86c-.16-.78-.38-1.86-.65-3.22-.55-2.79-1.32-6.71-2.25-11.4l.2.14-15.81,3,.16-.23h0v0l0,.06,0,.14.05.27.11.54c.06.36.13.72.2,1.07.13.71.27,1.42.4,2.12.26,1.39.52,2.76.77,4.08.49,2.66,1,5.17,1.39,7.47l-.2-.14,11.42-2.07,3.24-.57.87-.14a1,1,0,0,1,.31,0l-.27.07-.82.17-3.19.65-11.5,2.27-.17,0,0-.17-1.43-7.45c-.25-1.33-.51-2.7-.78-4.09-.13-.7-.27-1.4-.4-2.11-.07-.36-.14-.72-.2-1.08l-.11-.54-.05-.27,0-.13,0-.07v-.05h0l.16-.24,15.82-3,.17,0,0,.17L210.78,316c.24,1.36.43,2.43.56,3.21.06.34.1.61.14.83A1,1,0,0,1,211.51,320.33Z"/><path class="cls-8" d="M211.51,320.33s-.09-.41-.31-1.13a5.52,5.52,0,0,0-1.67-2.66h0a5.84,5.84,0,0,0-2-1.19,6.07,6.07,0,0,0-2.66-.31l-.35,0,.19-.3a4,4,0,0,0,.14-3.79,3.56,3.56,0,0,0-1.4-1.58,3.81,3.81,0,0,0-2.14-.5,4.05,4.05,0,0,0-2.32.87,3.45,3.45,0,0,0-1.23,2,4.06,4.06,0,0,0,1.3,3.95l.19.15-.2.13a6.83,6.83,0,0,0-2.39,2.43,7.24,7.24,0,0,0-.91,2.49,9.18,9.18,0,0,0-.06,2.32,2.15,2.15,0,0,1-.14-.6,6.68,6.68,0,0,1,0-1.75,7.36,7.36,0,0,1,.87-2.6,7,7,0,0,1,2.45-2.58l0,.27a4.38,4.38,0,0,1-1.46-4.29,3.9,3.9,0,0,1,1.35-2.22,4.48,4.48,0,0,1,2.55-.95,4.1,4.1,0,0,1,2.36.56,3.94,3.94,0,0,1,1.55,1.74A4.35,4.35,0,0,1,205,315l-.16-.26a6.28,6.28,0,0,1,2.8.36,6,6,0,0,1,2,1.29h0a5.41,5.41,0,0,1,1.66,2.83,5.5,5.5,0,0,1,.17.86C211.52,320.22,211.53,320.32,211.51,320.33Z"/><path class="cls-7" d="M214.55,304l13.71-2.6"/><path class="cls-8" d="M228.26,301.36a59.48,59.48,0,0,1-6.81,1.49,64.08,64.08,0,0,1-6.9,1.11,60.56,60.56,0,0,1,6.82-1.5A62.48,62.48,0,0,1,228.26,301.36Z"/><path class="cls-7" d="M215.16,307.14l2.77-.52"/><path class="cls-8" d="M217.93,306.62c0,.11-.59.31-1.35.45s-1.4.18-1.42.07.58-.31,1.34-.45S217.91,306.51,217.93,306.62Z"/><path class="cls-8" d="M240.72,308c0,.11-5.45,1.24-12.22,2.52s-12.28,2.23-12.3,2.12,5.45-1.23,12.23-2.51S240.7,307.93,240.72,308Z"/><path class="cls-8" d="M241.38,310.79c0,.1-5.48,1.23-12.29,2.52s-12.34,2.25-12.36,2.14,5.48-1.24,12.29-2.53S241.36,310.68,241.38,310.79Z"/><path class="cls-8" d="M241.57,314.05a4.36,4.36,0,0,1-.94.26l-2.58.55c-2.19.45-5.22,1-8.56,1.68s-6.38,1.18-8.58,1.56l-2.61.43a4.88,4.88,0,0,1-1,.11,4.36,4.36,0,0,1,.94-.26l2.59-.55c2.18-.45,5.21-1.05,8.55-1.68s6.38-1.19,8.58-1.57l2.61-.43A4.33,4.33,0,0,1,241.57,314.05Z"/><path class="cls-3" d="M216.64,300.85s.05,0,.15-.09l.46-.24a16.58,16.58,0,0,1,1.85-.74,17,17,0,0,1,7.26-.68,15.58,15.58,0,0,1,4.87,1.41,6.73,6.73,0,0,1,2.25,1.76,3.4,3.4,0,0,1,.68,3,5,5,0,0,1-1.88,2.59,15.13,15.13,0,0,1-2.84,1.67,26.15,26.15,0,0,1-6.52,2.24,15.83,15.83,0,0,1-6.89-.09,10,10,0,0,1-3.06-1.27,5,5,0,0,1-2.09-2.42,3.55,3.55,0,0,1,.34-3,7.35,7.35,0,0,1,1.94-2.09,19.06,19.06,0,0,1,4.46-2.42,19.62,19.62,0,0,1,7.18-1.28,15.73,15.73,0,0,1,2,.15l.52.08c.11,0,.17,0,.17,0h-.18l-.51,0c-.45,0-1.12-.08-2-.08a20.23,20.23,0,0,0-7.08,1.39,18.85,18.85,0,0,0-4.36,2.42,7.18,7.18,0,0,0-1.84,2,3.21,3.21,0,0,0-.29,2.72,4.69,4.69,0,0,0,1.94,2.23,10.11,10.11,0,0,0,3,1.2,15.56,15.56,0,0,0,6.73.08,26,26,0,0,0,6.42-2.2,14.89,14.89,0,0,0,2.78-1.62,4.7,4.7,0,0,0,1.75-2.37,3,3,0,0,0-.6-2.65,6.37,6.37,0,0,0-2.12-1.69,15.59,15.59,0,0,0-4.76-1.42,17.42,17.42,0,0,0-7.18.55c-.82.25-1.44.49-1.86.66l-.47.2C216.7,300.84,216.64,300.86,216.64,300.85Z"/><path class="cls-3" d="M233,300.44a72.16,72.16,0,0,1,8.38-6.81,38.18,38.18,0,0,1-4.07,3.56A38.78,38.78,0,0,1,233,300.44Z"/><path class="cls-3" d="M238.17,299.74a29.36,29.36,0,0,1-4.74,1.18l-.58.12-.3.06.07-.3a10.32,10.32,0,0,1,1.72-4c.1.05-.79,1.71-1.33,4.05l-.23-.24.57-.12A31.8,31.8,0,0,1,238.17,299.74Z"/><path class="cls-3" d="M229.64,303.2a72,72,0,0,1-7.52,1.36,72.87,72.87,0,0,1-7.59,1,73.67,73.67,0,0,1,7.53-1.35A71.46,71.46,0,0,1,229.64,303.2Z"/><path class="cls-3" d="M212.5,297.12a3.51,3.51,0,1,1-4.1-2.79A3.51,3.51,0,0,1,212.5,297.12Z"/><path class="cls-8" d="M209,301.31a3.46,3.46,0,0,1-2-.62,3.53,3.53,0,0,1,1.33-6.38,3.68,3.68,0,0,1,.66-.06,3.54,3.54,0,0,1,3.47,2.87h0a3.53,3.53,0,0,1-2.81,4.12A3.11,3.11,0,0,1,209,301.31Zm0-7a2.94,2.94,0,0,0-.65.07,3.49,3.49,0,1,0,4.08,2.78h0A3.5,3.5,0,0,0,209.05,294.28Z"/><path class="cls-8" d="M385.71,215.6c0,4.52,5.94,7.45,5.72,12-.1,1.94-1.35,3.64-1.65,5.55-.4,2.58,1,5.07,1.42,7.63.93,5.29-2.31,10.73-6.93,13.46s-10.33,3.1-15.62,2.2"/><path class="cls-8" d="M349.41,213.33c.1,2.42-1.57,4.54-3.24,6.3s-3.52,3.6-3.95,6c-.75,4.24,3.29,8.33,2.3,12.52-.54,2.24-2.45,4-2.85,6.27s.72,4.4,2.14,6.13,3.12,1.54,4.36,3.39a18.18,18.18,0,0,0,5.47,5.19c4.59,2.71,10.32-.81,12.59-1.41"/><path class="cls-8" d="M386.53,218.23c.13-2.2-1.85-4-3.87-4.83s-4.28-1.25-6.06-2.53c-1.58-1.14-2.61-2.87-3.93-4.3a13.54,13.54,0,0,0-23,5.47c-.88,3.11-.47,6.82,1.93,9,2.79,2.51,7.05,2.11,10.74,1.48s7.87-1.24,10.86,1c1.81,1.36,2.8,3.51,3.86,5.5s2.42,4,4.53,4.83,5.05-.37,5.21-2.62"/><path class="cls-10" d="M378.18,217.42l-19.34-5.6c-6.23-.88-10.64,6.67-11.25,12.93-.68,6.95-1.24,15.46-.59,20.69,1.3,10.51,9.26,12.11,9.26,12.11s-.09,3.06-.19,6.79a11.22,11.22,0,0,0,10.68,11.54h0a11.22,11.22,0,0,0,11.74-10.49l2.85-44.13A3.67,3.67,0,0,0,378.18,217.42Z"/><path class="cls-8" d="M348.92,232.38a1.35,1.35,0,0,0,1.25,1.4,1.29,1.29,0,0,0,1.42-1.16,1.34,1.34,0,0,0-1.24-1.4A1.28,1.28,0,0,0,348.92,232.38Z"/><path class="cls-8" d="M349,230.23c.16.18,1.2-.54,2.65-.49s2.47.82,2.63.64-.08-.39-.53-.74a3.61,3.61,0,0,0-2.1-.73,3.51,3.51,0,0,0-2.11.6C349,229.84,348.87,230.15,349,230.23Z"/><path class="cls-8" d="M363,232.76a1.34,1.34,0,0,0,1.25,1.39,1.28,1.28,0,0,0,1.42-1.16,1.35,1.35,0,0,0-1.24-1.4A1.3,1.3,0,0,0,363,232.76Z"/><path class="cls-8" d="M363.12,231c.16.18,1.2-.53,2.64-.48s2.48.81,2.64.64-.08-.4-.53-.75a3.68,3.68,0,0,0-2.1-.73,3.51,3.51,0,0,0-2.11.61C363.2,230.59,363,230.9,363.12,231Z"/><path class="cls-8" d="M357.52,241.5a9.4,9.4,0,0,0-2.33-.5c-.37-.05-.71-.14-.77-.39a1.93,1.93,0,0,1,.29-1.09l1.18-2.76c1.65-3.94,2.86-7.19,2.7-7.25s-1.63,3.07-3.28,7c-.39,1-.77,1.9-1.14,2.79a2.15,2.15,0,0,0-.24,1.44.93.93,0,0,0,.59.56,2.62,2.62,0,0,0,.62.11A9.92,9.92,0,0,0,357.52,241.5Z"/><path class="cls-11" d="M356.26,257.55a25.27,25.27,0,0,0,14-3.11c-.12,0-4.09,7.15-14.07,5.73Z"/><path class="cls-3" d="M358,245a2.59,2.59,0,0,1,2.36-.89,2.4,2.4,0,0,1,1.61.94,1.49,1.49,0,0,1,0,1.72,1.72,1.72,0,0,1-1.9.41,5.38,5.38,0,0,1-1.81-1.16,1.86,1.86,0,0,1-.4-.44.5.5,0,0,1,0-.54"/><path class="cls-8" d="M361.73,242.64c-.24,0-.29,1.55-1.67,2.61s-3,.84-3.06,1.06.36.31,1.07.36a3.9,3.9,0,0,0,2.55-.79,3.37,3.37,0,0,0,1.29-2.19C362,243,361.84,242.64,361.73,242.64Z"/><path class="cls-8" d="M362.56,228.44c.13.39,1.57.26,3.26.52s3,.77,3.27.43c.11-.17-.12-.55-.65-.94a5.55,5.55,0,0,0-2.41-.94,5.42,5.42,0,0,0-2.57.21C362.83,228,362.5,228.25,362.56,228.44Z"/><path class="cls-8" d="M349.62,226.07c.25.34,1.25,0,2.45.06s2.2.29,2.44,0c.11-.16,0-.5-.47-.82a3.29,3.29,0,0,0-2-.61,3.41,3.41,0,0,0-2,.59C349.67,225.57,349.52,225.91,349.62,226.07Z"/><path class="cls-8" d="M381.15,253.51c-2.9.49-3.1-1-5.19-3a9.45,9.45,0,0,1-2.63-8.05c.41-2.56,1.88-5.13,1.06-7.59-1.07-3.25-5.54-4.38-6.63-7.62-.64-1.89.06-4-.67-5.9s-2.46-2.79-4.2-3.48-3.61-1.19-5.05-2.39-2.29-3.39-1.29-5a99.11,99.11,0,0,1,22.67,6.29c1.68.69,3.45,1.51,4.41,3.06s.9,3.71.75,5.63l-2.22,28.12"/><path class="cls-8" d="M388.41,232.4a8,8,0,0,1,15.27-2.29c1.36,3,.74,6.58-.71,9.53-1.73,3.51-5.14,6.66-9,6.36-3.67-.29-6.52-3.61-7.47-7.17s-.39-7.32.16-11"/><path class="cls-9" d="M390,246.78a2,2,0,0,0,.56-.59,5.22,5.22,0,0,0,.85-2.06,10.14,10.14,0,0,0,0-3.31c-.17-1.24-.55-2.54-.8-3.92a9.62,9.62,0,0,1-.11-3.87c.25-1.16.83-2.13,1.1-3a3.93,3.93,0,0,0,.14-2.23c-.15-.53-.37-.75-.39-.73s.13.27.21.76a4.17,4.17,0,0,1-.26,2.09,25,25,0,0,0-1.21,3.06,9.9,9.9,0,0,0,.06,4.05c.27,1.4.65,2.7.84,3.89a10.57,10.57,0,0,1,.09,3.19A6.72,6.72,0,0,1,390,246.78Z"/><path class="cls-9" d="M390.55,234.23a5.06,5.06,0,0,0,1.55,1.62,9.2,9.2,0,0,0,10.33.52,5.06,5.06,0,0,0,1.7-1.46c-.05-.06-.67.54-1.86,1.18a9.6,9.6,0,0,1-10-.5C391.17,234.84,390.61,234.18,390.55,234.23Z"/><path class="cls-9" d="M391,235.89a4.71,4.71,0,0,0,.83,1.67,11.55,11.55,0,0,0,3.23,3.14,11.39,11.39,0,0,0,4.2,1.66,4.67,4.67,0,0,0,1.86.07,15.77,15.77,0,0,0-1.8-.39,13.24,13.24,0,0,1-4-1.72,13.48,13.48,0,0,1-3.22-2.95A17.08,17.08,0,0,0,391,235.89Z"/><path class="cls-9" d="M387.92,250.22s.05,0,.12-.13a2.57,2.57,0,0,0,.3-.41,5.59,5.59,0,0,0,.75-1.8,6.56,6.56,0,0,0-.07-3.1,5.86,5.86,0,0,0-2.33-3.34c-1.21-.92-2.8-1.58-3.79-3a3.15,3.15,0,0,1-.48-2.48,13.91,13.91,0,0,1,1-2.68,7.8,7.8,0,0,0,.07-6.25,6.88,6.88,0,0,0-2-2.7,8.17,8.17,0,0,0-3.16-1.43c-1.12-.3-2.25-.48-3.29-.83a6.49,6.49,0,0,1-2.72-1.61,4.61,4.61,0,0,1-1.11-2.78,24,24,0,0,0-.4-3.05,10.52,10.52,0,0,0-2.66-5,8.2,8.2,0,0,0-4.37-2.34,6.59,6.59,0,0,0-4.06.48,6.3,6.3,0,0,0-2.4,2,5.4,5.4,0,0,0-.88,1.74,2.79,2.79,0,0,0-.12.67,6.58,6.58,0,0,1,1.14-2.3,6.28,6.28,0,0,1,6.26-2.22,8,8,0,0,1,4.16,2.29,10.16,10.16,0,0,1,2.52,4.86,23.58,23.58,0,0,1,.37,3,5,5,0,0,0,1.22,3,6.86,6.86,0,0,0,2.91,1.73c1.09.37,2.21.55,3.31.84a7.89,7.89,0,0,1,3,1.35,6.34,6.34,0,0,1,1.9,2.52,7.4,7.4,0,0,1,0,5.91,14.56,14.56,0,0,0-1,2.77,3.5,3.5,0,0,0,.57,2.76c1.09,1.54,2.73,2.17,3.91,3a5.59,5.59,0,0,1,2.27,3.15,6.21,6.21,0,0,1,.14,3A7.06,7.06,0,0,1,387.92,250.22Z"/><path class="cls-9" d="M388.16,221a1.19,1.19,0,0,0,.14-.48,2.2,2.2,0,0,0-.3-1.4,3.54,3.54,0,0,0-1.7-1.5,5.51,5.51,0,0,0-3-.19c-1.1.17-2.25.57-3.5.77a4.61,4.61,0,0,1-3.76-.72,8.28,8.28,0,0,1-2.12-3.83,15.55,15.55,0,0,0-2.28-4.38,14.41,14.41,0,0,0-7.74-5.37,8.34,8.34,0,0,0-4.18,0,6.5,6.5,0,0,0-3.12,1.88,4.84,4.84,0,0,0-1.25,2.73,4.9,4.9,0,0,0,.27,2.26,3.78,3.78,0,0,0,.75,1.21,1.45,1.45,0,0,0,.38.33,4.89,4.89,0,0,1-1-1.61,4.68,4.68,0,0,1-.19-2.15,4.59,4.59,0,0,1,1.24-2.55,6.21,6.21,0,0,1,3-1.73,7.88,7.88,0,0,1,4,.07,14.18,14.18,0,0,1,7.49,5.23,15.63,15.63,0,0,1,2.22,4.26,8.61,8.61,0,0,0,2.27,4,4,4,0,0,0,2,.85,7.33,7.33,0,0,0,2.05-.08c1.3-.23,2.43-.65,3.5-.83a5.25,5.25,0,0,1,2.84.11,3.42,3.42,0,0,1,1.65,1.35,2.22,2.22,0,0,1,.36,1.31C388.2,220.84,388.13,221,388.16,221Z"/><path class="cls-10" d="M304.09,302.9s-5.79-9-6.8-9.81-10-3.88-10.76-3.63S275,291.74,276.25,293s8.78-.26,8.78-.26l1,.49s-6.51,1.15-7.87,2-.79,2.29.4,2.15,6.84-1.33,7.18-1.11-6.13,1.63-6.83,2.06c-.93.57-1,2.25.19,2.14.7-.06,6.8-1.74,6.8-1.74a50.72,50.72,0,0,0-5.27,2.39c-.72.7-.12,1.75.93,1.5.72-.17,4.13-1.86,5.09-2.09,0,0,.91.23,1.76,2,.4.85,2.23,6.15,5.42,6,2.82-.11,5.64,2.17,5.64,2.17Z"/><path class="cls-11" d="M276.27,293a4.87,4.87,0,0,0,2,.52,12.28,12.28,0,0,0,2.23.05c.83-.1,1.73-.25,2.68-.39l2-.33h-.12a29.79,29.79,0,0,0,4.69,1.39,28.41,28.41,0,0,0-4.53-1.85l-.06,0h-.07l-2,.3-2.65.44a14.69,14.69,0,0,1-2.16.05C277.05,293.12,276.29,293,276.27,293Z"/><path class="cls-3" d="M356.08,270.22s-6.13,3.72-8.39,8.31-14,35.38-14,35.38l-29.58-14.69-7.42,12.66,27.89,22.17A18.41,18.41,0,0,0,337,336.6h0c6.67-1,10-1.16,12.25-7.51l7.42-20.53L355,270.9"/><g class="cls-4"><path d="M347.77,288.19c-6.82,9.9-8,14.55-8.68,26.55-.24,4,0,8.28,2.37,11.47.88,1.16,2.57,2.15,3.69,1.22s.31-2.58,0-3.95c-2.12-8.07-2.88-14.28-1.37-21.37s1.11-7,4-13.62"/></g><path class="cls-8" d="M337.24,326.22a37.41,37.41,0,0,0-1.14-6.38,39.68,39.68,0,0,0-2.57-5.95,7.32,7.32,0,0,1,1.11,1.57,20.21,20.21,0,0,1,2.66,8.83A6.71,6.71,0,0,1,337.24,326.22Z"/><path class="cls-3" d="M347,361.94l-4.32,74.37h70.88s-2.1-37.25-4.74-53.16c-2.76-28.13-11.54-32.3-17.69-45.87l3.47-65.8-15-6.94-.6-3.46-23.3,2.82s-.69,7-.69,7-2.13,6.18-3.34,9.37c-3.76,9.92-8.9,21.77-8.14,30.43.34,3.93,5.73,30.07,5.73,30.07l-2.08,21.12Z"/><path class="cls-8" d="M352.56,276.7a3.53,3.53,0,0,1-.18.58c-.16.4-.36.94-.61,1.61-.53,1.4-1.35,3.4-2.37,5.88s-2.22,5.41-3.3,8.77a63.93,63.93,0,0,0-2.53,11.17,36.41,36.41,0,0,0,.12,11.4c.6,3.47,1.53,6.53,2.14,9.13s1,4.74,1.24,6.22c.1.71.17,1.28.22,1.71a2.46,2.46,0,0,1,0,.6,4.85,4.85,0,0,1-.12-.59c-.08-.42-.18-1-.3-1.69-.29-1.47-.69-3.59-1.36-6.18s-1.6-5.64-2.23-9.14a36.17,36.17,0,0,1-.15-11.51,62.4,62.4,0,0,1,2.57-11.23c1.11-3.37,2.35-6.31,3.39-8.77s1.89-4.41,2.49-5.83c.28-.66.5-1.19.67-1.58A5.21,5.21,0,0,1,352.56,276.7Z"/><g class="cls-4"><path d="M349.69,345.09c-.74,3.64,2.21,7.22,5.69,8.51s7.34.87,11,.44l25.73-3c1.36-.16,2.94-.48,3.52-1.71a3.14,3.14,0,0,0,0-2.2,8.22,8.22,0,0,0-4.33-4.77,18.22,18.22,0,0,0-6.39-1.6c-8.86-.89-17.75.69-26.51,2.26"/></g><path class="cls-10" d="M329.63,332.05l6.54.59,2.87,1.45s-.69-.73-1.28-1.49a22.7,22.7,0,0,0-2.91-2.41l-4.87-.5s-2.73-.21-2.91-2.09l3.72-.36S326.94,327,327,325l2.82-.5a.88.88,0,0,1-.89-1l7.77-.87,7.43,5.27,7.18,6.35,1.61.07.57,10.37s-6.37-.78-8.11-1.64-9.45-7.84-9.45-7.84-4-.35-5.17-1.32A3,3,0,0,1,329.63,332.05Z"/><path class="cls-11" d="M355.09,344.86H355l-.3,0-1.17-.13c-1-.13-2.52-.32-4.43-.64a26.69,26.69,0,0,1-3.15-.69,5.19,5.19,0,0,1-1.62-.9c-.51-.38-1-.78-1.56-1.21-2.12-1.71-4.44-3.73-7-6l.08,0a21.16,21.16,0,0,1-3.65-.63,6,6,0,0,1-.93-.32,4,4,0,0,1-.46-.24l-.21-.15-.19-.18a3.56,3.56,0,0,1-.65-.79,2.62,2.62,0,0,1-.38-1l0-.19h.2l6.54.59h0l0,0,2.87,1.44-.21.28-.92-1.06-.46-.53c-.15-.17-.32-.33-.49-.49-.71-.62-1.5-1.21-2.29-1.79l.09,0-2.93-.3-1.5-.15-.77-.09a5.09,5.09,0,0,1-.77-.19,3.25,3.25,0,0,1-1.29-.7,2,2,0,0,1-.69-1.33v-.18H327l3.71-.36v.36a8.55,8.55,0,0,1-2.39-.54,3.44,3.44,0,0,1-1.05-.66,1.53,1.53,0,0,1-.49-1.18v-.15l.14,0,3-.43v.35a1.53,1.53,0,0,1-.83-.37,1.06,1.06,0,0,1-.32-.86v-.15l.14,0,7.71-.9h.06l.05,0,7.42,5.29h0l7.16,6.37-.07,0,6.62.37,1.76.11.45,0,.15,0s-.05,0-.15,0h-.45l-1.76,0-6.63-.28h0l0,0L344,328h0l-7.44-5.25.11,0-7.71.93.15-.16a.71.71,0,0,0,.22.59,1.21,1.21,0,0,0,.62.27l1.27.16-1.26.18-3,.44.16-.17a1.18,1.18,0,0,0,.38.92,3.1,3.1,0,0,0,.94.58,8.32,8.32,0,0,0,2.27.51v.36l-3.72.36.16-.2a1.67,1.67,0,0,0,.57,1.09,3.19,3.19,0,0,0,1.16.63,5.4,5.4,0,0,0,.72.17c.24,0,.49.06.74.08l1.51.16,2.92.3h.05l0,0c.8.59,1.59,1.18,2.32,1.83a6.23,6.23,0,0,1,.52.51l.47.54.9,1.05.59.68-.8-.4L336,332.75l.06,0-6.54-.61.18-.17a2.13,2.13,0,0,0,.33.86,3.78,3.78,0,0,0,.59.73,3.73,3.73,0,0,0,1.65.82,22.54,22.54,0,0,0,3.6.64h0l0,0c2.5,2.26,4.81,4.29,6.91,6,.52.43,1,.84,1.54,1.22a5.27,5.27,0,0,0,1.55.88,26.33,26.33,0,0,0,3.12.72c1.9.35,3.39.57,4.41.72l1.16.17.3,0Z"/><path class="cls-11" d="M340.27,330.4a5.76,5.76,0,0,1-1.33-.82c-.8-.55-1.88-1.33-3.06-2.21l-.33-.25.12,0c-1.38,0-2.62.09-3.5.09a5.65,5.65,0,0,1-1.44-.06,5.64,5.64,0,0,1,1.43-.19c.88-.07,2.11-.14,3.49-.2h.07l0,0,.33.24c1.18.88,2.24,1.7,3,2.3A6.62,6.62,0,0,1,340.27,330.4Z"/><path class="cls-11" d="M339.44,326.94a5.63,5.63,0,0,1-1.22-.76c-.73-.5-1.73-1.22-2.84-2.05l.13,0-.44,0c-1.47.16-2.81.28-3.78.34a6.9,6.9,0,0,1-1.58,0,6.58,6.58,0,0,1,1.55-.29c1-.14,2.3-.3,3.77-.45l.44,0h.07l.06,0c1.1.83,2.08,1.59,2.77,2.14A5.81,5.81,0,0,1,339.44,326.94Z"/><path class="cls-3" d="M407.23,338.44a18.39,18.39,0,0,0,2.83-12.51l-5.66-33.28c-.65-5.56-1.44-13.16-5.3-17.22-2.65-2.8-5.87-5.23-9-5.21l-6.8,19.28,2.56,37.25-34.49,6.18V348s26.35-.87,41-1.27a18.4,18.4,0,0,0,14.89-8.33Z"/><path class="cls-8" d="M407.23,338.44s-.05.09-.16.25-.27.42-.48.72a19.54,19.54,0,0,1-2.21,2.52,18.92,18.92,0,0,1-4.37,3,18.47,18.47,0,0,1-6.83,1.88c-10.54.41-25.21.85-41.84,1.39h-.21V332.76l.17,0,34.49-6.13-.13.17c-.91-8.6-1.66-15.69-2.18-20.65-.25-2.45-.45-4.38-.58-5.71-.06-.65-.11-1.15-.14-1.5s0-.52,0-.52,0,.17.08.51.1.85.18,1.5c.16,1.33.38,3.25.67,5.7.55,4.95,1.35,12,2.31,20.64l0,.15-.15,0-34.47,6.21.16-.19V348l-.21-.19,41.84-1.26a18.27,18.27,0,0,0,6.76-1.81,18.62,18.62,0,0,0,4.36-3,21.12,21.12,0,0,0,2.25-2.45l.51-.7A2.17,2.17,0,0,1,407.23,338.44Z"/><path class="cls-8" d="M393.89,271.48c0,.07-1.17.52-2.88,1.62a20.68,20.68,0,0,0-2.81,2.19,20.83,20.83,0,0,0-4.95,7.12,20.12,20.12,0,0,0-1.08,3.4c-.43,2-.44,3.27-.52,3.26a3.87,3.87,0,0,1,0-.89,7.07,7.07,0,0,1,.07-1.05,11.77,11.77,0,0,1,.2-1.38,18.81,18.81,0,0,1,1-3.48,21.82,21.82,0,0,1,2.11-3.91A21.6,21.6,0,0,1,388,275a19.18,19.18,0,0,1,2.91-2.16,11.71,11.71,0,0,1,1.22-.66,6.73,6.73,0,0,1,1-.43A3.16,3.16,0,0,1,393.89,271.48Z"/><path class="cls-8" d="M379.74,264.43a2.8,2.8,0,0,1-.84.58,24.18,24.18,0,0,1-2.56,1c-2.16.83-5,2.28-8.28,3.7a25.36,25.36,0,0,1-8.8,2.29,13.51,13.51,0,0,1-2.77-.14c-.32-.05-.57-.12-.74-.16a.9.9,0,0,1-.25-.08,24.42,24.42,0,0,0,3.74.1,26.86,26.86,0,0,0,8.66-2.38c3.24-1.4,6.14-2.83,8.35-3.59,1.1-.39,2-.64,2.58-.91S379.72,264.4,379.74,264.43Z"/><polygon class="cls-3" points="296.66 321.97 293.24 295.11 269.84 296.25 271.47 323.22 296.66 321.97"/><path class="cls-10" d="M299.84,301.88a2.14,2.14,0,0,1-2.51,0c-.78-.45-1.38-1.15-2.13-1.66-2.22-1.51-5.39-1.09-7.54-2.71-.3-.23-.6-.6-.44-.94s.57-.36.92-.36l8.91.07"/><path class="cls-11" d="M297.05,296.32a4,4,0,0,0-1-.11l-2.63-.1-3.9-.08-1.13,0a1.82,1.82,0,0,0-1.3.3.75.75,0,0,0-.13.83,1.55,1.55,0,0,0,.46.57,5.8,5.8,0,0,0,1.13.67,32.34,32.34,0,0,0,4.64,1.24,6.58,6.58,0,0,1,1.84.81c.52.34,1,.76,1.41,1.11a3.14,3.14,0,0,0,2.52.84c.66-.14.87-.5.84-.5a2.45,2.45,0,0,1-.87.31,3,3,0,0,1-2.26-.93c-.42-.35-.85-.79-1.41-1.18a6.53,6.53,0,0,0-1.94-.9,40.62,40.62,0,0,1-4.56-1.26,5.79,5.79,0,0,1-1-.6c-.29-.23-.44-.54-.28-.67s.56-.16.94-.15h1.13l3.9,0c1.11,0,2,0,2.63-.06A3.09,3.09,0,0,0,297.05,296.32Z"/><path class="cls-7" d="M290.19,304.15a2.64,2.64,0,0,1-.66.33,16.35,16.35,0,0,1-1.91.67,8.16,8.16,0,0,1-3,.32,5.48,5.48,0,0,1-1.76-.44,7.17,7.17,0,0,1-1.6-1.06,1.43,1.43,0,0,0-.77-.3,1.06,1.06,0,0,0-.72.28,6.15,6.15,0,0,0-1,1.38,1.85,1.85,0,0,1-1.39.94,2,2,0,0,1-1.38-.5,3.38,3.38,0,0,1-1-1.79,2.47,2.47,0,0,1-.13-.73,2.55,2.55,0,0,1,.27.68,3.49,3.49,0,0,0,1,1.62,1.74,1.74,0,0,0,1.18.39,1.53,1.53,0,0,0,1.12-.82,6,6,0,0,1,1-1.47,1.46,1.46,0,0,1,1-.38,1.88,1.88,0,0,1,1,.38,7.21,7.21,0,0,0,1.53,1,5.46,5.46,0,0,0,1.64.43,8.51,8.51,0,0,0,2.89-.23C289.18,304.47,290.17,304.08,290.19,304.15Z"/><path class="cls-7" d="M291.29,308.17a77.22,77.22,0,0,1-7.9.55c-4.36.19-7.91.26-7.91.15s3.53-.35,7.9-.55S291.29,308.06,291.29,308.17Z"/><path class="cls-7" d="M289.67,312a7.37,7.37,0,0,1-1.78.47c-1.11.24-2.65.52-4.36.78s-3.27.46-4.39.57a8.53,8.53,0,0,1-1.84.09,8.09,8.09,0,0,1,1.8-.37l4.37-.68,4.37-.66A9.11,9.11,0,0,1,289.67,312Z"/><path class="cls-1" d="M382.35,304.48a2.85,2.85,0,0,1-.33.29l-1,.78a45.76,45.76,0,0,1-3.74,2.68,22.57,22.57,0,0,1-6.21,2.87,13.14,13.14,0,0,1-8.31-.28c-2.81-1.14-5-3.05-7-4.51a15.53,15.53,0,0,0-6-2.92,7.8,7.8,0,0,0-4.46.22,14.73,14.73,0,0,0-1.48.77,4.41,4.41,0,0,1,1.42-.91,7.71,7.71,0,0,1,4.57-.36,15.63,15.63,0,0,1,6.19,2.9c2.1,1.46,4.26,3.34,7,4.44a12.85,12.85,0,0,0,8.08.3,22.83,22.83,0,0,0,6.15-2.76c1.65-1,2.92-1.94,3.8-2.56l1-.72C382.21,304.54,382.34,304.46,382.35,304.48Z"/><path class="cls-1" d="M404,289.45c0,.07-1.17-.28-3.07-.56a26,26,0,0,0-3.36-.27,25.5,25.5,0,0,0-8.14,1.18,25.23,25.23,0,0,0-3.15,1.21c-1.75.81-2.75,1.46-2.79,1.4a3.15,3.15,0,0,1,.67-.5,16.54,16.54,0,0,1,2-1.15,21.76,21.76,0,0,1,3.16-1.31,26.16,26.16,0,0,1,4.07-1,26.72,26.72,0,0,1,4.18-.23,23.64,23.64,0,0,1,3.4.35,18.12,18.12,0,0,1,2.24.54A3.2,3.2,0,0,1,404,289.45Z"/><path class="cls-1" d="M408.28,317.05a8.41,8.41,0,0,0-3.53.38,20.91,20.91,0,0,0-3.51,1.67,16.58,16.58,0,0,1-4.46,1.87,12.72,12.72,0,0,1-8.6-1.19,11,11,0,0,1-2.19-1.52,4.23,4.23,0,0,1-.67-.7,19.78,19.78,0,0,0,3,2,12.9,12.9,0,0,0,8.38,1.06,17.06,17.06,0,0,0,4.37-1.81,19.31,19.31,0,0,1,3.61-1.62,7.24,7.24,0,0,1,2.65-.31A2.8,2.8,0,0,1,408.28,317.05Z"/><path class="cls-1" d="M377.15,347.31c-.06,0,.44-1,.88-2.68a15.89,15.89,0,0,0-2.16-12.95c-1-1.45-1.76-2.2-1.7-2.25a2.57,2.57,0,0,1,.58.5,13,13,0,0,1,1.35,1.59,15.1,15.1,0,0,1,2.2,13.19,13.08,13.08,0,0,1-.76,1.94A2.68,2.68,0,0,1,377.15,347.31Z"/><path class="cls-1" d="M348,285.81c-.1.05-.44-.6-1.2-1a9.55,9.55,0,0,0-1.49-.5,1.67,1.67,0,0,1,1.69.16C347.85,284.94,348.08,285.79,348,285.81Z"/><path class="cls-1" d="M388.48,269.5c0,.05-.57-.07-1.59,0a9.13,9.13,0,0,0-4,1.48,16.87,16.87,0,0,0-2.36,1.84c-.78.73-1.56,1.58-2.38,2.48-1.64,1.78-3.45,3.88-6,5.15a15.8,15.8,0,0,1-7.82,1.4,27.07,27.07,0,0,1-6.37-1.26c-1.77-.55-3.16-1.1-4.12-1.48l-1.09-.45a1.51,1.51,0,0,1-.38-.19,2,2,0,0,1,.4.11l1.13.39c1,.33,2.37.84,4.14,1.35a27.35,27.35,0,0,0,6.31,1.16,15.49,15.49,0,0,0,7.62-1.39c2.51-1.21,4.31-3.27,6-5,.83-.89,1.62-1.74,2.43-2.47a15.94,15.94,0,0,1,2.43-1.83,9,9,0,0,1,4.14-1.41,5.71,5.71,0,0,1,1.19.05A2,2,0,0,1,388.48,269.5Z"/><path class="cls-1" d="M378.37,262.53a4.38,4.38,0,0,1-.82.41c-.54.24-1.34.56-2.33.92a56,56,0,0,1-7.93,2.27,57.06,57.06,0,0,1-8.17,1.12c-1.05.07-1.91.1-2.5.09a3.81,3.81,0,0,1-.91,0,3.56,3.56,0,0,1,.91-.11l2.48-.22a72.31,72.31,0,0,0,8.11-1.23,74.08,74.08,0,0,0,7.92-2.14c1-.33,1.81-.61,2.36-.81A3.92,3.92,0,0,1,378.37,262.53Z"/><path class="cls-1" d="M316.79,327.79a.61.61,0,0,1-.08-.21,3.38,3.38,0,0,1-.14-.63,7,7,0,0,1,.08-2.37,13,13,0,0,1,1.21-3.29c.6-1.18,1.4-2.39,2.15-3.69a14.37,14.37,0,0,0,1.65-3.84,7.92,7.92,0,0,0,.06-3.38,11.13,11.13,0,0,0-1.12-3,2.62,2.62,0,0,1,.52.7,7.65,7.65,0,0,1,.88,2.2,7.84,7.84,0,0,1,0,3.52,14,14,0,0,1-1.66,4c-.76,1.32-1.56,2.51-2.16,3.66a12.91,12.91,0,0,0-1.26,3.18A9.28,9.28,0,0,0,316.79,327.79Z"/><path class="cls-1" d="M402.58,356.9a2.94,2.94,0,0,1-.52-.27,15.35,15.35,0,0,0-1.49-.75,17,17,0,0,0-5.95-1.31,29.12,29.12,0,0,0-9,1.14c-3.31.9-6.81,2.34-10.57,3.64a35.2,35.2,0,0,1-11,2.25,26.13,26.13,0,0,1-9-1.48,24.83,24.83,0,0,1-5.54-2.74c-.6-.41-1.06-.74-1.36-1a4.24,4.24,0,0,1-.45-.37s.66.47,1.89,1.23a27.61,27.61,0,0,0,5.55,2.61,26.83,26.83,0,0,0,8.94,1.38A35.3,35.3,0,0,0,374.93,359c3.75-1.29,7.26-2.73,10.61-3.62a28.87,28.87,0,0,1,9.09-1.06,16.43,16.43,0,0,1,6,1.45,12.38,12.38,0,0,1,1.47.82A3.19,3.19,0,0,1,402.58,356.9Z"/><path class="cls-1" d="M408,384.82a10.6,10.6,0,0,1-2.08,1.51,17.11,17.11,0,0,1-6.66,2.11,25.06,25.06,0,0,1-4.85.06,33.86,33.86,0,0,1-5.48-1c-3.8-1-7.78-2.63-12-4.11a37.85,37.85,0,0,0-12.33-2.49,20.37,20.37,0,0,0-5.43.72c-1.67.45-3.2,1-4.65,1.31a9.44,9.44,0,0,1-6.88-.59,5.06,5.06,0,0,1-1.48-1.22,3.26,3.26,0,0,1-.37-.55s.14.18.43.5a5.41,5.41,0,0,0,1.49,1.13,9.38,9.38,0,0,0,6.74.46c1.43-.33,2.95-.88,4.63-1.36a21,21,0,0,1,5.52-.77A37.61,37.61,0,0,1,377,383c4.26,1.49,8.22,3.14,12,4.13a34.1,34.1,0,0,0,5.41,1,24.65,24.65,0,0,0,4.79,0,17.62,17.62,0,0,0,6.62-2,10.62,10.62,0,0,0,.94-.56,6.82,6.82,0,0,0,.66-.44A4,4,0,0,1,408,384.82Z"/><path class="cls-1" d="M411.41,407.23l-.16-.08-.46-.27a18.09,18.09,0,0,0-1.8-1,22.45,22.45,0,0,0-7.23-1.9,37.22,37.22,0,0,0-11.08.73c-4.12.82-8.55,2.21-13.28,3.36a56.32,56.32,0,0,1-7,1.27,47.51,47.51,0,0,1-17.71-1.43,43.33,43.33,0,0,1-7.09-2.6c-.81-.36-1.42-.69-1.84-.91l-.47-.26-.15-.1.17.06.49.22c.42.2,1,.51,1.86.85a48.92,48.92,0,0,0,18.13,4.06,49.33,49.33,0,0,0,6.57-.27,56,56,0,0,0,7-1.28c4.71-1.14,9.15-2.52,13.3-3.33a37,37,0,0,1,11.18-.65,21.62,21.62,0,0,1,7.26,2A13.65,13.65,0,0,1,411.41,407.23Z"/><path class="cls-1" d="M371.64,329c0,.07-1.32-.64-3.55-1.41a26.52,26.52,0,0,0-4-1.05,31,31,0,0,0-5-.48,31.42,31.42,0,0,0-5,.44,28.4,28.4,0,0,0-4,1c-2.23.76-3.52,1.46-3.56,1.39a5.21,5.21,0,0,1,.89-.52,10.21,10.21,0,0,1,1.09-.53c.43-.18.92-.42,1.48-.6a25.2,25.2,0,0,1,4-1.12,26.73,26.73,0,0,1,10.19,0,26,26,0,0,1,4,1.14c.56.19,1.05.43,1.48.62a11,11,0,0,1,1.08.53A5.57,5.57,0,0,1,371.64,329Z"/><path class="cls-1" d="M411.63,430.88l-.16-.08c-.13-.06-.28-.15-.46-.25l-.75-.39c-.29-.15-.64-.32-1-.49a24.93,24.93,0,0,0-7.06-1.87,42.65,42.65,0,0,0-10.85.22c-4.07.5-8.5,1.44-13.23,2a78.57,78.57,0,0,1-24.23-1,72.61,72.61,0,0,1-7.15-1.8c-.84-.24-1.47-.48-1.91-.62l-.49-.18-.16-.07.18,0,.5.13c.44.12,1.08.33,1.92.55,1.67.47,4.11,1.09,7.16,1.67a80.75,80.75,0,0,0,24.14.86c4.7-.55,9.13-1.48,13.22-2a42.55,42.55,0,0,1,10.94-.14,23.81,23.81,0,0,1,7.08,2,11,11,0,0,1,1,.53c.29.15.54.3.73.42l.44.29C411.59,430.83,411.63,430.87,411.63,430.88Z"/><path class="cls-8" d="M109.8,436.31l1.53-69.45-54-4.5s-2.87,27.8-2.8,31.52c0,1.77,8.13,19.06,8.13,19.06l-.08,23.37Z"/><path class="cls-9" d="M91.48,375.13a6.65,6.65,0,0,1-.45,1c-.32.64-.8,1.54-1.45,2.63a29.69,29.69,0,0,1-6.26,7.66,17.85,17.85,0,0,1-8.95,4.1,12.35,12.35,0,0,1-3,.05,6,6,0,0,1-.81-.12c-.18,0-.28-.06-.28-.08a19.74,19.74,0,0,0,4.06-.13,18.38,18.38,0,0,0,8.74-4.13,32.18,32.18,0,0,0,6.28-7.49c.67-1.07,1.18-1.95,1.54-2.56A5.86,5.86,0,0,1,91.48,375.13Z"/><path class="cls-12" d="M71.38,260.38l24.36,6.35.83-21.22s10.28-1.16,10.84-11.37-.2-33.75-.2-33.75h0a35.55,35.55,0,0,0-35.88,3l-1.56,1.1Z"/><path class="cls-13" d="M96.59,245.36A23.8,23.8,0,0,1,83.43,241s2.83,7.48,13.07,7Z"/><path class="cls-12" d="M70.58,215.09c-.17-.08-6.93-2.37-7,4.62s7,5.63,7,5.43S70.58,215.09,70.58,215.09Z"/><path class="cls-13" d="M68.44,222.47s-.12.08-.33.17a1.22,1.22,0,0,1-.91,0,3,3,0,0,1-1.37-2.72,4,4,0,0,1,.36-1.74,1.44,1.44,0,0,1,.93-.93.63.63,0,0,1,.72.35c.09.19,0,.33.08.34s.15-.11.1-.4a.78.78,0,0,0-.27-.44,1,1,0,0,0-.68-.19A1.71,1.71,0,0,0,65.79,218a4.09,4.09,0,0,0-.44,1.95c0,1.41.73,2.74,1.74,3a1.34,1.34,0,0,0,1.12-.17C68.43,222.63,68.46,222.48,68.44,222.47Z"/><path class="cls-8" d="M104.28,216.13a1.46,1.46,0,0,1-1.47,1.41,1.4,1.4,0,0,1-1.45-1.38,1.46,1.46,0,0,1,1.47-1.41A1.4,1.4,0,0,1,104.28,216.13Z"/><path class="cls-8" d="M104.66,214.68c-.19.19-1.26-.68-2.83-.74s-2.75.67-2.92.47.12-.42.64-.77a4,4,0,0,1,2.34-.61,3.89,3.89,0,0,1,2.25.83C104.6,214.25,104.75,214.6,104.66,214.68Z"/><path class="cls-8" d="M88.88,216a1.46,1.46,0,0,1-1.47,1.41A1.39,1.39,0,0,1,86,216.06a1.46,1.46,0,0,1,1.47-1.42A1.4,1.4,0,0,1,88.88,216Z"/><path class="cls-8" d="M89.21,214.32c-.19.18-1.26-.68-2.83-.75s-2.75.68-2.91.48.11-.43.63-.77a4.08,4.08,0,0,1,2.35-.62,3.92,3.92,0,0,1,2.24.83C89.16,213.89,89.31,214.24,89.21,214.32Z"/><path class="cls-8" d="M94.41,226.21a10.43,10.43,0,0,1,2.57-.36c.41,0,.79-.08.87-.35a2,2,0,0,0-.22-1.2c-.33-1-.68-2-1-3.11-1.46-4.42-2.5-8-2.33-8.1s1.51,3.48,3,7.9c.35,1.08.69,2.12,1,3.12a2.33,2.33,0,0,1,.14,1.58,1,1,0,0,1-.69.56,2.85,2.85,0,0,1-.68.06A11,11,0,0,1,94.41,226.21Z"/><path class="cls-8" d="M89.88,208.18c-.17.42-1.73.15-3.58.3s-3.37.58-3.59.19c-.1-.19.17-.58.79-1a6,6,0,0,1,2.69-.82,6.07,6.07,0,0,1,2.78.45C89.63,207.63,90,208,89.88,208.18Z"/><path class="cls-8" d="M104.28,210.11c-.3.35-1.36-.07-2.66-.14s-2.41.14-2.65-.25c-.1-.18.08-.53.58-.85a3.62,3.62,0,0,1,2.19-.49,3.68,3.68,0,0,1,2.09.81C104.27,209.57,104.41,210,104.28,210.11Z"/><path class="cls-8" d="M112.46,194.15a3.76,3.76,0,0,0-1.25-3.42,2.68,2.68,0,0,0-3.48.11,3.12,3.12,0,0,0-2.52-3.9c-1.66-.18-3.14,1-4.77,1.39a7.61,7.61,0,0,1-4.74-.75c-1.49-.68-2.87-1.58-4.37-2.2a13.07,13.07,0,0,0-17,7A5.79,5.79,0,0,0,68,194.4,9.5,9.5,0,0,0,66.3,201a20.61,20.61,0,0,0,1,4.64c0,.13,0,.26,0,.39-.13,5.62.22,12.25,2.62,12.39,4.17.24,3.51-7.67,3.51-7.67,5.21-1.77,3.63-9.53,5-10.64s4.13-3.7,14.63,2.24c4.08,2.31,9.62,2.48,12.68,1.92l.27,0H106l.09,0a9.78,9.78,0,0,0,2.8-1,5.48,5.48,0,0,0,2.38-2.43,3,3,0,0,0-.45-3.22A6.48,6.48,0,0,0,112.46,194.15Z"/><path class="cls-13" d="M95.24,231.08a6.81,6.81,0,0,1-1,1.74,2.32,2.32,0,0,1-1.73.91,2.13,2.13,0,0,1-1.75-1.06,3.35,3.35,0,0,1-.42-2.06c.06-.65.39-1.41,1-1.45a1.61,1.61,0,0,1,.77.2l3.32,1.51"/><path class="cls-8" d="M93.77,233.79A4.59,4.59,0,0,1,92,233.5a2.58,2.58,0,0,1-1.31-1.3,2.69,2.69,0,0,1,0-2.2,2.16,2.16,0,0,1,.31-.49c.14-.14.12-.13.26-.11s.36.16.54.24l.54.25,1.89.83a6,6,0,0,0,1.81.63,6.19,6.19,0,0,0-1.62-1c-.52-.28-1.15-.6-1.84-1l-.54-.27c-.19-.09-.34-.18-.6-.28a.84.84,0,0,0-.5,0,1,1,0,0,0-.39.28,3,3,0,0,0-.4.62,3.11,3.11,0,0,0,0,2.7,2.85,2.85,0,0,0,1.65,1.46,2.74,2.74,0,0,0,1.45.12C93.62,233.94,93.79,233.83,93.77,233.79Z"/><path class="cls-9" d="M77.73,199.17a5.83,5.83,0,0,1,0-1.24,4.83,4.83,0,0,1,1.72-2.8,6.47,6.47,0,0,1,4.66-1.32,20,20,0,0,1,5.92,1.59c1,.39,2,.76,3.06,1a16.09,16.09,0,0,0,8,0,15.34,15.34,0,0,0,3.21-1.2c.36-.18.63-.34.81-.45a1.31,1.31,0,0,0,.27-.19s-.4.21-1.13.54a18.15,18.15,0,0,1-3.21,1.1,16.62,16.62,0,0,1-7.91-.12c-1-.27-2-.64-3-1a19.89,19.89,0,0,0-6-1.59A6.65,6.65,0,0,0,79.36,195a4.85,4.85,0,0,0-1.7,2.94A2.84,2.84,0,0,0,77.73,199.17Z"/><path class="cls-9" d="M69.05,216.1a.87.87,0,0,0,.14-.21c.09-.14.21-.36.35-.64a13.38,13.38,0,0,0,.92-2.5,14.1,14.1,0,0,0,.43-3.94,35.16,35.16,0,0,0-.71-4.79,9.41,9.41,0,0,1,.19-4.69,4.68,4.68,0,0,1,1.06-1.74,3.56,3.56,0,0,1,1.51-.9,3.36,3.36,0,0,1,2.52.17,5.81,5.81,0,0,1,.76.58,2,2,0,0,0-.7-.68,3.39,3.39,0,0,0-2.64-.28,3.81,3.81,0,0,0-1.63.93,5,5,0,0,0-1.14,1.82,9.45,9.45,0,0,0-.22,4.84,40,40,0,0,1,.73,4.75,14.69,14.69,0,0,1-.37,3.88,14.27,14.27,0,0,1-.82,2.5C69.19,215.78,69,216.09,69.05,216.1Z"/><path class="cls-9" d="M76.79,198.3a2.56,2.56,0,0,0,0-.41v-1.17a13.8,13.8,0,0,1,.66-4.22A7.51,7.51,0,0,1,78.93,190a5.29,5.29,0,0,1,2.82-1.7,7,7,0,0,1,3.65.31A17,17,0,0,1,89,190.4a28.64,28.64,0,0,0,3.54,2,11,11,0,0,0,3.71.91,12.05,12.05,0,0,0,3.44-.27,13.13,13.13,0,0,0,2.82-1,11.42,11.42,0,0,0,3.41-2.66,8.13,8.13,0,0,0,.71-1,2.1,2.1,0,0,0,.21-.35,2.77,2.77,0,0,0-.26.32,9,9,0,0,1-.75.9,11.72,11.72,0,0,1-3.42,2.55,12.76,12.76,0,0,1-2.78,1,11.58,11.58,0,0,1-3.37.25,11.16,11.16,0,0,1-3.6-.91,32.24,32.24,0,0,1-3.51-2,16.68,16.68,0,0,0-3.65-1.84,7.21,7.21,0,0,0-3.8-.3,5.52,5.52,0,0,0-2.94,1.8,7.41,7.41,0,0,0-1.49,2.62,12.91,12.91,0,0,0-.57,4.29c0,.51,0,.91,0,1.17A1.91,1.91,0,0,0,76.79,198.3Z"/><path class="cls-12" d="M122.81,288.06l30.75-34.53,4.37-6.1s10.64-13.16,11.5-14.56c1-1.61,2-1.52,2.58-1.11.88.63.83,2.18,0,3.59-.28.49-5,8-5,8a20.87,20.87,0,0,1,2.72-1.13c2-.72,5.11.1,7.75,1.85s3.22,2.47,2.58,3.53a1.59,1.59,0,0,1-1.15.69,4.45,4.45,0,0,1-2.53-.61c-5.21-3.11-6.47-1-6.47-1l-.69.77s3.9-.22,5.49,1.86a3.09,3.09,0,0,1,.52,1,4,4,0,0,1-.2,6.84,1.66,1.66,0,0,1-1.87,0,2.16,2.16,0,0,1-.48-.94,2.36,2.36,0,0,0-.21-.52l-1.91,2s-4.54,4.29-6.3,6.38L137.12,298c-3.53,5.12-8.87,9.36-13.93,5.74h0C117.69,299.79,118.14,293,122.81,288.06Z"/><path class="cls-12" d="M155.13,253.78a2.3,2.3,0,0,0,2.68.19c.86-.43,1.55-1.15,2.38-1.64,2.47-1.49,5.83-.85,8.22-2.45.34-.22.68-.6.53-1s-.58-.41-1-.43l-9.53-.47"/><path class="cls-13" d="M158.45,248a3.82,3.82,0,0,1,1-.05c.67,0,1.63,0,2.82.05l4.17.14,1.21.05a1.93,1.93,0,0,1,1.38.4.81.81,0,0,1,.09.89,1.49,1.49,0,0,1-.53.58,5.44,5.44,0,0,1-1.24.65,36.11,36.11,0,0,1-5,1,7.11,7.11,0,0,0-2,.75c-.58.34-1.08.76-1.58,1.1a3.35,3.35,0,0,1-2.74.75c-.7-.18-.9-.58-.87-.58a3.05,3.05,0,0,0,.91.38,3.25,3.25,0,0,0,2.48-.86c.46-.35.95-.79,1.57-1.18a7.46,7.46,0,0,1,2.13-.84,43.79,43.79,0,0,0,5-1.07,6,6,0,0,0,1.13-.59c.32-.22.5-.55.34-.69s-.59-.2-1-.22l-1.2-.07-4.17-.26c-1.19-.08-2.15-.16-2.81-.22A3.69,3.69,0,0,1,158.45,248Z"/><path class="cls-13" d="M169.23,247.4a3.92,3.92,0,0,1,1.39-1.15,3.05,3.05,0,0,1,1.9-.13,7.7,7.7,0,0,1,2.22,1,12.14,12.14,0,0,0,2.24,1.14,4.15,4.15,0,0,0,2.08.19,1.54,1.54,0,0,0,1.11-.86.93.93,0,0,0,.12-.5s-.08.17-.24.44a1.45,1.45,0,0,1-1,.67,3.87,3.87,0,0,1-1.92-.25,13.33,13.33,0,0,1-2.17-1.13,7.64,7.64,0,0,0-2.33-1,3.22,3.22,0,0,0-2.08.23,2.84,2.84,0,0,0-1.06.91C169.26,247.21,169.21,247.39,169.23,247.4Z"/><path class="cls-13" d="M172.34,234.8a9.56,9.56,0,0,0-1,1.49l-2.2,3.63-2.25,3.6A10.28,10.28,0,0,0,166,245a7.56,7.56,0,0,0,1.11-1.38c.63-.89,1.47-2.14,2.34-3.56s1.61-2.72,2.11-3.69A8,8,0,0,0,172.34,234.8Z"/><path class="cls-13" d="M169.88,250.15s.19,0,.54.11a1.59,1.59,0,0,1,1.19.66.87.87,0,0,1,0,.87,4.67,4.67,0,0,1-.67.93,2,2,0,0,0-.55,1.29,1.7,1.7,0,0,0,.78,1.31,1.93,1.93,0,0,0,1.49.22,2.43,2.43,0,0,0,1.21-.71,7.79,7.79,0,0,0,1.17-2,4.6,4.6,0,0,0,.38-1.47c0-.37-.06-.57-.08-.56s0,.2-.05.54a5.6,5.6,0,0,1-.48,1.39,8.39,8.39,0,0,1-1.18,1.83,1.88,1.88,0,0,1-2.27.41,1.35,1.35,0,0,1-.63-1,1.69,1.69,0,0,1,.46-1.08,4.58,4.58,0,0,0,.69-1,1.12,1.12,0,0,0-.06-1.11,1.68,1.68,0,0,0-1.39-.67A1.57,1.57,0,0,0,169.88,250.15Z"/><path class="cls-13" d="M172.68,255.23s-.15.12-.22.45a1.53,1.53,0,0,0,.4,1.32,2,2,0,0,0,2,.51,3.36,3.36,0,0,0,2-1.53,4.07,4.07,0,0,0,.6-2.41,3.78,3.78,0,0,0-.68-1.91,3.65,3.65,0,0,0-1-1c-.27-.17-.43-.23-.44-.21a6.83,6.83,0,0,1,1.2,1.31,3.79,3.79,0,0,1,0,4,3.12,3.12,0,0,1-1.75,1.4,1.83,1.83,0,0,1-1.71-.38,1.42,1.42,0,0,1-.43-1.12C172.62,255.4,172.71,255.25,172.68,255.23Z"/><path class="cls-13" d="M164.37,257.06s-.22-.25-.73-.44a3.33,3.33,0,0,0-2.16,0l.21.23a9.5,9.5,0,0,0,.45-1.11,7.61,7.61,0,0,0,.4-4.11,19.43,19.43,0,0,1-.73,4c-.13.38-.28.75-.43,1.08l-.16.36.37-.13a3.46,3.46,0,0,1,2-.1C164.07,256.94,164.34,257.1,164.37,257.06Z"/><path class="cls-13" d="M172.46,244.31c-.1,0-.14.71.35,1.4s1.17.91,1.19.82-.49-.41-.9-1S172.56,244.3,172.46,244.31Z"/><path class="cls-3" d="M92.19,256.86l28.54,28.23,20.89-21.5,4-1.74,5.26-5.28L163,270.28,137.24,304a24.07,24.07,0,0,1-13.38,8.77h0a24.15,24.15,0,0,1-22.7-6.19l-22-21.52"/><path class="cls-8" d="M123.48,301.48a20.61,20.61,0,0,1-.06-2.46,41.3,41.3,0,0,0-.47-5.88,34.48,34.48,0,0,0-1.44-5.72,22.32,22.32,0,0,1-.78-2.33s.14.19.33.58.43.94.72,1.65a28.8,28.8,0,0,1,1.57,5.75,33.27,33.27,0,0,1,.35,5.95c0,.77-.07,1.38-.11,1.8A2.27,2.27,0,0,1,123.48,301.48Z"/><g class="cls-4"><path d="M100.89,266.12c4.51,4.31,5.63,9.88,8.15,15.59,3,6.73,8.3,13.26,10.36,20.31a10.63,10.63,0,0,1,.08,6.48c-.75,2.06-2.92,4.54-5.1,4.69l-4.59-1.2Z"/></g><path class="cls-8" d="M157.25,277.74c-.08.06-2.72-3.15-5.89-7.17s-5.67-7.35-5.58-7.42,2.72,3.15,5.89,7.17S157.34,277.67,157.25,277.74Z"/><polygon class="cls-9" points="145.59 334.38 137.26 359.75 159.25 349.78 166.38 326.57 145.59 334.38"/><path class="cls-3" d="M70.83,242.14l-3.22,7.79a97,97,0,0,1-8.83,14.92c-5.07,6.59-6.28,27.88-6.28,27.88l4.81,65.34-1.64,3.19c-.75,1.45-.36,6.77,1.27,6.85l54.16,2.52c1.3.06,2.17-4.52,2.1-5.83l-4.36-78.92-8.78-21.53-2.82-4.22-.07-5.32L78.33,249a12,12,0,0,1-7.5-6.84Z"/><g class="cls-4"><path d="M58.33,342.71C66.56,348,74.86,353.24,84,356.65s19.47,4.72,28.87,2.09l-.3-6.79L60.82,337.59Z"/></g><path class="cls-3" d="M73.18,266.64s-14.82-1.28-17.88,17.22,1.87,58.63,3.3,59c0,0,26.5,11.31,54.07,14L132,353.28l-2.31-18.39-14.23.76s-.63-3.56-6-5c-7.74-2.16-23.3-5.75-23.3-5.75S86.88,306.4,87,301s2-28.91-10.33-33.31"/><path class="cls-8" d="M100.06,264.35a4,4,0,0,1,.27.55c.18.4.41.94.71,1.61.61,1.45,1.46,3.47,2.52,6s2.31,5.52,3.69,8.85c.35.83.7,1.68,1.06,2.56a13.86,13.86,0,0,1,.92,2.77,17.76,17.76,0,0,1,.31,3c.06,1,.11,2,.17,3.08.48,8.31.93,15.84,1.14,21.3.11,2.73.17,4.94.19,6.47v1.75a4.18,4.18,0,0,1,0,.62,3.27,3.27,0,0,1-.06-.61l-.08-1.76c-.07-1.56-.18-3.76-.31-6.46-.33-5.48-.77-13-1.26-21.29,0-1-.11-2.07-.16-3.08a17.66,17.66,0,0,0-.3-2.95A13.85,13.85,0,0,0,108,284l-1-2.56c-1.36-3.34-2.59-6.35-3.62-8.89s-1.82-4.54-2.41-6l-.63-1.64A4,4,0,0,1,100.06,264.35Z"/><path class="cls-8" d="M97.05,254.78a3.47,3.47,0,0,1-.16.78c-.13.51-.34,1.25-.65,2.17A37.78,37.78,0,0,1,92.89,265l-.1.18-.16-.13a31,31,0,0,0-8.14-4.55c-2.61-1.07-5.15-2-7.38-3a27.79,27.79,0,0,1-5.6-3.36A15.52,15.52,0,0,1,68.45,251a8.71,8.71,0,0,1-.65-1c-.13-.24-.2-.36-.18-.37s.31.48.95,1.29a17.1,17.1,0,0,0,3.12,3,28.75,28.75,0,0,0,5.58,3.25c2.21,1,4.75,1.93,7.37,3a30.19,30.19,0,0,1,8.21,4.64l-.26,0a40.81,40.81,0,0,0,3.46-7.17c.33-.91.57-1.63.73-2.13A4.3,4.3,0,0,1,97.05,254.78Z"/><path class="cls-8" d="M76.69,267.68l1,.4c.33.16.73.38,1.2.64a13.15,13.15,0,0,1,1.49,1.12,14.7,14.7,0,0,1,3.19,4.1A26.69,26.69,0,0,1,86,280.58c1.23,5.18,1.55,11.7,1.2,19.14s-.54,15.88-.85,25.14l-.13-.17c4.72,1.1,9.71,2.28,14.92,3.56,2.6.65,5.25,1.32,8,2.05a10,10,0,0,1,6.55,5.27l-.17-.11,14.23-.76h.18l0,.18c.74,5.86,1.52,12.06,2.31,18.39l0,.18-.18,0-18,3.31-1.34.24h-.06c-5-.54-9.84-1.25-14.61-2.18s-9.41-2-13.94-3.26A222,222,0,0,1,58.53,343h0a.42.42,0,0,1-.14-.09.25.25,0,0,1-.07-.08.53.53,0,0,1-.09-.16,1.85,1.85,0,0,1-.13-.29c-.07-.2-.13-.39-.18-.58-.11-.39-.2-.78-.28-1.17-.17-.78-.31-1.55-.44-2.32-.26-1.55-.48-3.09-.69-4.61-.41-3-.74-6-1-8.94-.57-5.84-1-11.41-1.16-16.67s-.25-10.21-.06-14.79a60.42,60.42,0,0,1,1.56-12.53,21.33,21.33,0,0,1,4.74-9,16,16,0,0,1,6.32-4.17,16.77,16.77,0,0,1,4.63-1,10.58,10.58,0,0,1,1.22,0,2.18,2.18,0,0,1,.41,0h-.41c-.28,0-.68,0-1.22.05a16.94,16.94,0,0,0-4.59,1,15.72,15.72,0,0,0-6.23,4.18,21.19,21.19,0,0,0-4.66,8.94,61.46,61.46,0,0,0-1.51,12.49c-.17,4.57-.12,9.52.1,14.77s.62,10.82,1.19,16.65c.29,2.91.63,5.89,1,8.93.2,1.51.43,3.05.69,4.59.13.76.28,1.54.44,2.3.08.39.17.77.28,1.15.05.19.11.37.17.56s.07.18.11.25a.44.44,0,0,0,.06.1l0,0h0a.17.17,0,0,0,0,.1l.05-.09a223.27,223.27,0,0,0,25.53,8.56c4.52,1.23,9.17,2.29,13.92,3.24s9.62,1.64,14.57,2.17h-.06l1.35-.24,18-3.3-.16.22c-.79-6.33-1.56-12.53-2.3-18.39l.2.17-14.23.74h-.12l-.06-.12a9.7,9.7,0,0,0-6.32-5.07c-2.68-.74-5.34-1.41-7.94-2.06-5.2-1.29-10.19-2.48-14.9-3.58L86,325v-.13c.34-9.26.65-17.7.92-25.14s.07-13.93-1.12-19.09A27.13,27.13,0,0,0,83.47,274a15.27,15.27,0,0,0-3.13-4.09,14.28,14.28,0,0,0-1.47-1.13c-.46-.26-.85-.49-1.18-.65Z"/><path class="cls-8" d="M114.48,354.87c-.11,0,.07-3.88.41-8.65s.69-8.62.8-8.62-.07,3.88-.41,8.65S114.58,354.87,114.48,354.87Z"/><path class="cls-8" d="M74.19,334.81a1.79,1.79,0,0,1,.18-.6,8.87,8.87,0,0,1,.78-1.54,15.1,15.1,0,0,1,3.92-4.11A30.53,30.53,0,0,1,84,325.73a12.29,12.29,0,0,1,2.17-.89,17.06,17.06,0,0,1-2,1.15,37.29,37.29,0,0,0-4.81,2.89,16.82,16.82,0,0,0-3.92,3.94C74.57,334,74.25,334.84,74.19,334.81Z"/><path class="cls-8" d="M95.9,361.26a1.54,1.54,0,0,1-.37.08l-1.07.18c-.93.15-2.28.3-4,.44s-3.68.21-5.91.2-4.68-.17-7.23-.45-5-.73-7.15-1.21-4.11-1-5.71-1.53-2.89-1-3.76-1.33l-1-.41a1.35,1.35,0,0,1-.34-.17s.13,0,.37.09l1,.34c.89.32,2.18.73,3.79,1.21s3.54,1,5.71,1.45,4.57.86,7.11,1.16,5,.43,7.19.48,4.22,0,5.89-.11,3-.21,4-.31l1.08-.1C95.77,361.25,95.9,361.24,95.9,361.26Z"/><path class="cls-12" d="M162.44,331.66c-.57-.81-1.52-.68-2.32-.1l-2.69,1.79a12.2,12.2,0,0,1-2.39,1l-1.14.2a8.76,8.76,0,0,1-6.45-1.37l-.46-.31s7.36-1.67,8.48-2.63l0,0a1.54,1.54,0,0,0-1.32-2.62L144.9,329a19.08,19.08,0,0,0-8.41,3.5,57.91,57.91,0,0,1-6.54,4.28l1.61,14.06,2.64-.65,4.81.42a17.23,17.23,0,0,0,9.38-1.86,18.71,18.71,0,0,0,3.64-2.15,26.92,26.92,0,0,0,1.11-3.51S155,342,155,341.19a12.45,12.45,0,0,0-.14-2.18s4.66-2.76,5.87-3.72C162.93,333.57,163,332.4,162.44,331.66Z"/><path class="cls-13" d="M149.42,341.76a9.56,9.56,0,0,0,3-1.07A10.31,10.31,0,0,0,155.1,339c-.06-.07-1.25.69-2.81,1.47S149.39,341.68,149.42,341.76Z"/><path class="cls-13" d="M150.41,344.46a3.12,3.12,0,0,0,1.65-.46,3.18,3.18,0,0,0,1.35-1.05,10.91,10.91,0,0,0-1.49.78A11.49,11.49,0,0,0,150.41,344.46Z"/><path class="cls-13" d="M145.59,332a5.93,5.93,0,0,0,1.12.79,15.26,15.26,0,0,0,3,1.43,10.45,10.45,0,0,0,3.28.54,4.18,4.18,0,0,0,1.37-.13,17.33,17.33,0,0,1-4.55-.7,20.31,20.31,0,0,1-3-1.33A7.4,7.4,0,0,0,145.59,332Z"/><g class="cls-4"><path d="M69.74,252.35a28.19,28.19,0,0,0,8.58,8.4A80.92,80.92,0,0,0,89,266.58a10.63,10.63,0,0,0,5.32,1.48,2.45,2.45,0,0,0,1.41-.49,3.12,3.12,0,0,0,.8-1.92,61.74,61.74,0,0,0,.54-10.87A38.9,38.9,0,0,1,92.7,265s-2.94-2.54-12-6.21C71.49,255.07,69.74,252.35,69.74,252.35Z"/></g><path class="cls-9" d="M80.89,412.94c-.11,0-.26-5.51-.32-12.31s0-12.33.07-12.33.26,5.52.32,12.32S81,412.94,80.89,412.94Z"/><path class="cls-8" d="M481.12,436.55c0,.11-103.22.2-230.52.2s-230.55-.09-230.55-.2,103.2-.2,230.55-.2S481.12,436.44,481.12,436.55Z"/></g></svg>