<svg xmlns="http://www.w3.org/2000/svg" viewBox="0 0 500 500"><defs><style>.cls-1{fill:#ebebeb;}.cls-2{fill:#e0e0e0;}.cls-3{fill:#fafafa;}.cls-4{fill:#f5f5f5;}.cls-5{fill:#263238;}.cls-6{fill:#7784ff;}.cls-7{fill:#fff;}.cls-8{fill:#455a64;}.cls-9{fill:#175fae;}.cls-10{fill:#ffbe9d;}.cls-11{fill:#1f499d;}.cls-12{opacity:0.5;}.cls-13{fill:#8479fc;}.cls-14{fill:#e8505b;}.cls-15{fill:#d79870;}.cls-16{opacity:0.2;}.cls-17{opacity:0.4;}.cls-18{opacity:0.3;}</style></defs><title>Events</title><g id="Windows"><path class="cls-1" d="M312.42,364.34H344a4,4,0,0,0,4-4v-9.74a6.79,6.79,0,0,0-6.79-6.78H312.18Z"/><path class="cls-1" d="M343.49,370.46H281.36a3.06,3.06,0,0,1-3.06-3.06h0a3.06,3.06,0,0,1,3.06-3.06h62.13a3.06,3.06,0,0,1,3.06,3.06h0A3.06,3.06,0,0,1,343.49,370.46Z"/><path class="cls-2" d="M268.7,282.76l34.18-.61,21.7,82-46.28.46-17.45-71.89A8.07,8.07,0,0,1,268.7,282.76Z"/><polygon class="cls-1" points="285.72 370.46 275.49 429.9 278.3 429.9 291.74 370.46 285.72 370.46"/><polygon class="cls-2" points="309.83 370.46 298.97 429.9 301.77 429.9 315.86 370.46 309.83 370.46"/><polygon class="cls-1" points="336.5 370.46 348.63 429.9 345.83 429.9 330.48 370.46 336.5 370.46"/><path class="cls-1" d="M299,282.15l16.91,82.09h13l-13.57-72.53a11.69,11.69,0,0,0-11.49-9.56Z"/><rect class="cls-2" x="-2.3" y="142.61" width="80.73" height="53.08" transform="translate(-131.08 207.21) rotate(-90)"/><rect class="cls-3" x="0.43" y="144.9" width="75.07" height="48.53" transform="translate(-131.2 207.13) rotate(-90)"/><rect class="cls-2" x="25.82" y="162.49" width="24.49" height="13.35" transform="translate(-131.1 207.23) rotate(-90)"/><path class="cls-1" d="M205.64,357.46a20.81,20.81,0,0,1,12.85-1.56c2.33.39,4.76,1.09,6.35,2.84s1.89,4.83.06,6.33a6,6,0,0,1-4,1c-3.4,0-7.16-.64-9.88,1.41-1.55,1.16-2.58,3.1-4.43,3.67a4.36,4.36,0,0,1-4.81-2.14,7.47,7.47,0,0,1-.55-5.52A8.44,8.44,0,0,1,205.64,357.46Z"/><path class="cls-1" d="M196.69,340.18c2.39,3.41,7,2.28,9.18.2s3.07-5.11,3.9-8c1.89-6.58,3.8-13.48,2.39-20.18a11.23,11.23,0,0,0-2.58-5.49,5.84,5.84,0,0,0-5.55-1.84c-2.34.62-3.79,2.91-4.85,5.09a48.12,48.12,0,0,0-4.75,20.65c0,3.32.38,6.81,2.26,9.56"/><path class="cls-1" d="M190.12,345.08c2.6-3.08,3.09-7.58,1.93-11.43a21.9,21.9,0,0,0-6.77-9.82,36.27,36.27,0,0,0-12.12-7.16,13,13,0,0,0-5.45-.92,5.73,5.73,0,0,0-4.58,2.76c-1.27,2.44,0,5.39,1.28,7.8a91.7,91.7,0,0,0,8,12.12c2.38,3.08,5.12,6.11,8.76,7.5s7.41,1.23,9.34-1.29"/><path class="cls-2" d="M196.52,391.67a7,7,0,0,0,.22-1.55c.11-1.13.25-2.55.41-4.23s.46-3.9.95-6.21a48.63,48.63,0,0,1,2.26-7.33,27.16,27.16,0,0,1,3.74-6.63,14.15,14.15,0,0,1,4.73-3.94,13.65,13.65,0,0,1,4-1.24,7.76,7.76,0,0,0,1.54-.22,7.58,7.58,0,0,0-1.57,0,11.85,11.85,0,0,0-4.15,1.08,13.86,13.86,0,0,0-5,4,26.24,26.24,0,0,0-3.88,6.77,44.49,44.49,0,0,0-2.24,7.45,52.49,52.49,0,0,0-.83,6.28c-.13,1.8-.18,3.26-.21,4.26A8,8,0,0,0,196.52,391.67Z"/><path class="cls-2" d="M196.82,388.41a3.68,3.68,0,0,0,0-.72c0-.54,0-1.22,0-2.05,0-1.79,0-4.38.09-7.57.16-6.38.71-13.25,1.77-22.94,1-9.11,2.36-19.71,3.78-26.6.31-1.56.61-3,.9-4.21s.52-2.3.74-3.17.36-1.47.48-2a2.85,2.85,0,0,0,.13-.71,3.17,3.17,0,0,0-.25.68c-.16.51-.36,1.17-.6,2s-.53,1.91-.84,3.15-.67,2.63-1,4.2a232.65,232.65,0,0,0-4,24.68c-1.07,9.71-1.55,18.54-1.59,24.94,0,3.2,0,5.79.11,7.58.05.84.09,1.52.13,2.06A2.22,2.22,0,0,0,196.82,388.41Z"/><path class="cls-2" d="M196.86,371.37a15.36,15.36,0,0,0,0-2.15c-.08-1.38-.27-3.38-.66-5.83a74.65,74.65,0,0,0-1.89-8.48,68.73,68.73,0,0,0-3.55-10.05,53.32,53.32,0,0,0-10.42-16.22,27.21,27.21,0,0,0-2.45-2.28c-.38-.32-.71-.64-1.05-.89l-.95-.66a13.6,13.6,0,0,0-1.81-1.15A64.59,64.59,0,0,1,180,329a56.1,56.1,0,0,1,10.16,16.17,77.63,77.63,0,0,1,3.57,9.95c.93,3.12,1.55,6,2,8.4s.7,4.4.85,5.77A12.78,12.78,0,0,0,196.86,371.37Z"/><polygon class="cls-2" points="180.38 401.44 182.09 424.84 212.15 424.84 213.86 401.44 180.38 401.44"/><rect class="cls-2" x="177.48" y="392.21" width="39.97" height="9.22"/><polygon class="cls-1" points="177.48 423.94 177.48 426.5 179.36 426.5 216.79 426.5 216.79 423.94 177.48 423.94"/><polygon class="cls-2" points="181.2 431 179.36 426.5 215.35 426.5 213.21 431 181.2 431"/><path class="cls-4" d="M213.3,409.08s0,.08-.14.22l-.45.59L211,412.14l-.08.1-.07-.11-4.3-5.95h.24l-4.23,6-.14.19-.14-.18-5-6h.29l-.27.35-4.5,5.63-.15.19-.13-.2-4.24-6,.24,0c-2.08,2.37-3.86,4.39-5.21,5.94l-.1.11-.07-.12-1.63-2.75-.42-.73a1.21,1.21,0,0,1-.13-.26,1.64,1.64,0,0,1,.18.23l.46.71c.42.65,1,1.56,1.71,2.69h-.16l5.14-6,.13-.15.11.16,4.28,6h-.29l4.48-5.64.28-.34.14-.18.15.17,5,6h-.28l4.28-6,.12-.17.12.17c1.7,2.42,3.14,4.48,4.21,6h-.15l1.82-2.18.49-.56A1.07,1.07,0,0,1,213.3,409.08Z"/><path class="cls-4" d="M214.28,401.28c0,.11-7.53.19-16.82.19s-16.83-.08-16.83-.19,7.53-.19,16.83-.19S214.28,401.18,214.28,401.28Z"/><path class="cls-4" d="M215.8,426.75c0,.1-8.19.19-18.29.19s-18.28-.09-18.28-.19,8.19-.19,18.28-.19S215.8,426.65,215.8,426.75Z"/><path class="cls-5" d="M489.63,431.85c0,.11-102.78.21-229.55.21S30.5,432,30.5,431.85s102.77-.21,229.58-.21S489.63,431.73,489.63,431.85Z"/><path class="cls-5" d="M50.2,219s.13.11.35.33.55.57,1,1a18.49,18.49,0,0,0,4.4,3,12.83,12.83,0,0,0,1.68.7l.92.32,1,.25a19.19,19.19,0,0,0,2.13.39c.38,0,.76.06,1.15.08A7.73,7.73,0,0,0,64,225a17.9,17.9,0,0,0,10.16-3.32l.06,0,.07,0,9,1.7-.18.31-5-5.69-.1-.12.09-.13a19.35,19.35,0,0,0,2.16-3.86,20,20,0,0,0,1.17-4.44,17.81,17.81,0,0,0-20.89-19.81,17.65,17.65,0,0,0-9.16,4.69A17.95,17.95,0,0,0,46,209.39a17.75,17.75,0,0,0,1.58,5.45l.48,1c.17.31.35.58.51.84a9.72,9.72,0,0,0,.85,1.26l.56.76a1.33,1.33,0,0,1,.18.26,1.2,1.2,0,0,1-.21-.24l-.6-.73a9.6,9.6,0,0,1-.89-1.25c-.16-.25-.35-.52-.52-.83l-.51-1a18.14,18.14,0,0,1,13-25.71,18.21,18.21,0,0,1,21.37,20.25,19.71,19.71,0,0,1-1.2,4.54,20,20,0,0,1-2.22,3.95v-.25l5,5.7.36.42-.54-.1-9-1.74.13,0A18.18,18.18,0,0,1,64,225.26a8.12,8.12,0,0,1-1.21,0c-.39,0-.78,0-1.16-.09-.75-.14-1.48-.21-2.16-.41l-1-.27-.93-.33a16.32,16.32,0,0,1-1.68-.73,18.15,18.15,0,0,1-4.39-3.06c-.44-.43-.75-.79-1-1S50.2,219,50.2,219Z"/><polygon class="cls-5" points="63.57 203.34 66.61 202.34 69.65 201.33 69.01 204.47 68.36 207.6 66.7 206.13 59.59 214.13 58.11 212.81 65.23 204.81 63.57 203.34"/><circle class="cls-6" cx="148.33" cy="148.95" r="39.73"/><path class="cls-7" d="M148.33,182A33.07,33.07,0,1,1,181.4,149,33.1,33.1,0,0,1,148.33,182Zm0-60.47A27.41,27.41,0,1,0,175.74,149,27.43,27.43,0,0,0,148.33,121.55Z"/><path class="cls-7" d="M148.11,160.26a12.18,12.18,0,1,1,12.18-12.18A12.2,12.2,0,0,1,148.11,160.26Zm0-18.7a6.52,6.52,0,1,0,6.52,6.52A6.53,6.53,0,0,0,148.11,141.56Z"/><polygon class="cls-8" points="148.11 148.08 132.72 148.08 135.4 152.83 99.17 169.44 100.39 171.47 136.75 155.06 139.24 159.78 148.11 148.08"/><path class="cls-5" d="M99.17,169.44l-.38-.38a7.37,7.37,0,0,0-7.2-1.79l-14.45,4.2,8,3.54L82,183.61l13.56-4.84a7.36,7.36,0,0,0,4.88-7.3h0Z"/><rect class="cls-3" x="338.75" y="116.42" width="100.08" height="94.47" rx="3.99"/><path class="cls-5" d="M434.84,210.89a5.8,5.8,0,0,0,1-.15,4,4,0,0,0,2.3-1.62,4,4,0,0,0,.66-2c0-.78,0-1.65,0-2.58,0-1.86,0-4,0-6.42,0-9.68,0-23.68-.07-41,0-8.65,0-18.12,0-28.29,0-2.54,0-5.13,0-7.75a5.75,5.75,0,0,0-.18-1.91,3.91,3.91,0,0,0-1-1.59,3.74,3.74,0,0,0-1.66-.92,7.41,7.41,0,0,0-2-.13H417.14l-74.39,0a3.79,3.79,0,0,0-3.57,2.53,6.78,6.78,0,0,0-.22,2.36v31.14c0,12.44,0,24.44,0,35.88,0,5.71,0,11.29,0,16.7,0,.67,0,1.37,0,2a3.94,3.94,0,0,0,.64,1.79,3.85,3.85,0,0,0,3.23,1.67h7.76l28.29,0,40.95.07,11.14,0,2.9,0,1,0s-.33,0-1,0l-2.9,0-11.14,0-40.95.07-28.29,0h-7.76a4.17,4.17,0,0,1-4.23-3.79c0-.7,0-1.35,0-2,0-5.41,0-11,0-16.7,0-11.44,0-23.44,0-35.88q0-9.34,0-19V120.29a4,4,0,0,1,.23-1.27,4.19,4.19,0,0,1,4-2.81h92.11a4,4,0,0,1,1,.14,4.18,4.18,0,0,1,2.91,2.76,6.07,6.07,0,0,1,.2,2v7.75c0,10.17,0,19.64,0,28.29,0,17.28-.05,31.28-.07,41,0,2.41,0,4.56,0,6.42,0,.94,0,1.79,0,2.58a4,4,0,0,1-3.05,3.64A3.31,3.31,0,0,1,434.84,210.89Z"/><rect class="cls-6" x="356.22" y="154.24" width="5.4" height="46.36"/><rect class="cls-6" x="380.74" y="150.48" width="5.4" height="50.12"/><rect class="cls-6" x="406.14" y="144.12" width="5.4" height="56.48"/><rect class="cls-5" x="394.21" y="178.03" width="5.4" height="22.57"/><rect class="cls-9" x="362.51" y="149.28" width="5.4" height="51.32"/><rect class="cls-9" x="387.47" y="138.52" width="5.4" height="62.08"/><rect class="cls-5" x="420.05" y="138.52" width="5.4" height="62.08"/><rect class="cls-9" x="413.34" y="126.26" width="5.4" height="74.33"/><rect class="cls-5" x="369.1" y="168.03" width="5.4" height="32.57"/><path class="cls-5" d="M433.17,203.41c0,.12-19.26.21-43,.21s-43-.09-43-.21,19.25-.21,43-.21S433.17,203.29,433.17,203.41Z"/><rect class="cls-5" x="344.68" y="192.35" width="3.29" height="1.24"/><rect class="cls-5" x="344.68" y="175.86" width="3.29" height="1.24"/><rect class="cls-5" x="344.68" y="144.81" width="3.29" height="1.24"/><rect class="cls-5" x="344.68" y="129.21" width="3.29" height="1.23"/><rect class="cls-5" x="344.84" y="160.33" width="3.29" height="1.24"/><rect class="cls-7" x="166.96" y="150.95" width="186.21" height="144.93"/><path class="cls-5" d="M353.18,295.87c0-1.44-.07-57.46-.18-144.92l.18.17-186.2,0h0l.21-.21c0,52.24,0,101.65,0,144.92l-.19-.19,186.22.19L167,296.06h-.19v-.19c0-43.27,0-92.68,0-144.92v-.21H167l186.2,0h.17V151C353.25,238.41,353.18,294.43,353.18,295.87Z"/><path class="cls-5" d="M222,278.12c-.11,0-.21-14.62-.21-32.66s.1-32.66.21-32.66.21,14.62.21,32.66S222.11,278.12,222,278.12Z"/><path class="cls-5" d="M297,278.12c-.11,0-.21-14.62-.21-32.66s.1-32.66.21-32.66.21,14.62.21,32.66S297.14,278.12,297,278.12Z"/><path class="cls-5" d="M247.61,278.12c-.12,0-.21-18.7-.21-41.75s.09-41.76.21-41.76.21,18.69.21,41.76S247.72,278.12,247.61,278.12Z"/><path class="cls-5" d="M195.68,278.12c-.11,0-.21-18.7-.21-41.75s.1-41.76.21-41.76.22,18.69.22,41.76S195.8,278.12,195.68,278.12Z"/><path class="cls-5" d="M326.47,278.12c-.12,0-.21-18.7-.21-41.75s.09-41.76.21-41.76.21,18.69.21,41.76S326.59,278.12,326.47,278.12Z"/><path class="cls-5" d="M270.07,278.12c-.12,0-.21-21.59-.21-48.21s.09-48.21.21-48.21.21,21.58.21,48.21S270.18,278.12,270.07,278.12Z"/><path class="cls-5" d="M222.6,212.8a.61.61,0,1,1-.61-.61A.61.61,0,0,1,222.6,212.8Z"/><path class="cls-5" d="M248.22,194.61a.62.62,0,1,1-1.23,0,.62.62,0,0,1,1.23,0Z"/><path class="cls-9" d="M247.61,196.79a2.18,2.18,0,1,1,2.18-2.18A2.18,2.18,0,0,1,247.61,196.79Zm0-4.16a2,2,0,1,0,2,2A2,2,0,0,0,247.61,192.63Z"/><circle class="cls-5" cx="270.07" cy="181.7" r="0.61"/><path class="cls-5" d="M297.63,213.41a.61.61,0,1,1-.61-.61A.61.61,0,0,1,297.63,213.41Z"/><path class="cls-5" d="M327.1,194.61a.62.62,0,1,1-1.23,0,.62.62,0,0,1,1.23,0Z"/><path class="cls-5" d="M196.3,195.23a.62.62,0,1,1-.62-.62A.62.62,0,0,1,196.3,195.23Z"/><path class="cls-9" d="M332.27,224.17c0,.07-.67.16-1.86.67a13.45,13.45,0,0,0-4.42,3.4c-1.66,1.81-3.32,4.33-5.41,7.18a34.83,34.83,0,0,1-3.71,4.31,19.9,19.9,0,0,1-2.41,2,16.66,16.66,0,0,1-2.91,1.6,16.36,16.36,0,0,1-7,1.19,18.84,18.84,0,0,1-3.76-.46,10.08,10.08,0,0,1-3.67-1.61,11.92,11.92,0,0,1-2.86-3,40.75,40.75,0,0,1-2.16-3.54c-1.35-2.44-2.75-4.87-4.34-7.34s-3-5.12-4.63-7.7a37.84,37.84,0,0,0-5.64-7.26,16.6,16.6,0,0,0-3.76-2.68,16.16,16.16,0,0,0-2.15-.88l-1.14-.25-.57-.12a5.87,5.87,0,0,0-.59-.05,16.2,16.2,0,0,0-9.25,2,24,24,0,0,0-7.08,6.6,75.55,75.55,0,0,0-5.09,8.17c-3.08,5.58-6.47,10.89-11,14.87a18.77,18.77,0,0,1-7.63,4.25,14.43,14.43,0,0,1-4.22.46,15.79,15.79,0,0,1-4-.75,27.57,27.57,0,0,1-6.78-3.55c-2-1.39-3.83-2.82-5.61-4.11a30.19,30.19,0,0,0-5.31-3.23,17.71,17.71,0,0,0-5.28-1.52,13.12,13.12,0,0,0-4.74.29,8.26,8.26,0,0,0-1,.33,6.83,6.83,0,0,0-1,.37,11.63,11.63,0,0,0-1.68.93,18.45,18.45,0,0,0-2.54,2c-.63.71-1.21,1.26-1.6,1.78a12,12,0,0,1-1.26,1.54,13.79,13.79,0,0,1,1.06-1.7c.36-.54.92-1.13,1.53-1.88a17.57,17.57,0,0,1,2.54-2.15,11,11,0,0,1,1.72-1,6.26,6.26,0,0,1,1-.42,7.5,7.5,0,0,1,1.07-.37,13.39,13.39,0,0,1,5-.41,18.3,18.3,0,0,1,5.53,1.48,30.31,30.31,0,0,1,5.5,3.24c1.82,1.28,3.67,2.69,5.65,4a26.31,26.31,0,0,0,6.55,3.36,14.76,14.76,0,0,0,3.76.67,13.23,13.23,0,0,0,3.89-.45,17.74,17.74,0,0,0,7.14-4c4.29-3.84,7.62-9.06,10.66-14.61a72,72,0,0,1,5.16-8.31,25.17,25.17,0,0,1,7.45-6.95,17.43,17.43,0,0,1,10-2.12c.21,0,.43,0,.64.06l.63.13c.42.1.84.17,1.25.28a15.8,15.8,0,0,1,2.36,1,17.32,17.32,0,0,1,4.05,2.89,38.76,38.76,0,0,1,5.81,7.52c1.63,2.63,3.07,5.26,4.6,7.73s3,5,4.32,7.41,2.65,4.78,4.66,6.21a8.84,8.84,0,0,0,3.3,1.47,17.83,17.83,0,0,0,3.55.48,15.82,15.82,0,0,0,6.62-1A16.28,16.28,0,0,0,314,241a19.91,19.91,0,0,0,2.34-1.89A34,34,0,0,0,320,235a87.19,87.19,0,0,1,5.62-7.09,12.92,12.92,0,0,1,4.69-3.3,7.27,7.27,0,0,1,1.45-.38A1.36,1.36,0,0,1,332.27,224.17Z"/><rect class="cls-5" x="195.07" y="169.99" width="30.14" height="1.68"/><rect class="cls-5" x="195.07" y="173.91" width="14.9" height="1.68"/><rect class="cls-5" x="166.96" y="146.72" width="186.21" height="11.64"/><polygon class="cls-10" points="437.42 386.81 464.49 419.95 471.34 411.58 450.87 381.93 437.42 386.81"/><path class="cls-11" d="M463.91,420.76l-.82-.75,7.89-9.28,3.39,3.11-.47.58c-2.13,2.58-11,13-13,14.15C458.64,429.88,463.91,420.76,463.91,420.76Z"/><g class="cls-12"><path class="cls-7" d="M471.32,417a4.2,4.2,0,0,1-.84-2.89,4,4,0,0,1,1.27-2.67l2.48,2.29Z"/></g><g class="cls-12"><path class="cls-7" d="M461.47,425.34s-1.68,3.35-.94,3.42,10.1-10.08,13.84-14.92l-.21-.17-10.82,11.94S462,424.84,461.47,425.34Z"/></g><path class="cls-5" d="M474.28,413.52a.88.88,0,0,1-.12.17l-.38.47c-.39.45-.86,1-1.42,1.68-1.21,1.41-2.91,3.34-4.83,5.42s-3.7,3.94-5,5.26L461,428.08l-.43.41a1.21,1.21,0,0,1-.16.14s0-.06.13-.16l.42-.43c.41-.44.92-1,1.52-1.59,1.29-1.34,3.05-3.2,5-5.29s3.63-4,4.86-5.39l1.45-1.65.4-.45Z"/><path class="cls-5" d="M463.48,425.73a5.77,5.77,0,0,0-1.05-.41,6,6,0,0,0-1.13,0,1.68,1.68,0,0,1,1.16-.12A1.65,1.65,0,0,1,463.48,425.73Z"/><path class="cls-5" d="M464.57,421.88a1.23,1.23,0,0,1-.6,0,1.34,1.34,0,0,1-.58-.18,1.23,1.23,0,0,1,.6,0A1.34,1.34,0,0,1,464.57,421.88Z"/><path class="cls-5" d="M464.85,420.81s-.22.09-.5.12-.51,0-.51,0,.22-.1.5-.12S464.85,420.77,464.85,420.81Z"/><path class="cls-5" d="M464.43,419.58s-.14.26-.37.52-.45.45-.48.42.14-.26.37-.52S464.4,419.55,464.43,419.58Z"/><path class="cls-5" d="M464,418.88s-.07.33-.33.66a1.26,1.26,0,0,1-.56.47s.21-.26.45-.56S463.94,418.86,464,418.88Z"/><path class="cls-5" d="M463.51,421.47a2.12,2.12,0,0,1-.53.57,5.43,5.43,0,0,1-.69.48,2,2,0,0,1-.47.22.48.48,0,0,1-.31,0,.31.31,0,0,1-.14-.3,1.43,1.43,0,0,1,1.5-1,1.49,1.49,0,0,1,.55.17c.12.07.17.12.17.13a2,2,0,0,0-.73-.19,1.44,1.44,0,0,0-.77.19,1.25,1.25,0,0,0-.58.73c0,.15.12.21.28.17a2.39,2.39,0,0,0,.43-.2,4.74,4.74,0,0,0,.7-.44C463.29,421.67,463.49,421.45,463.51,421.47Z"/><path class="cls-5" d="M463.4,421.64s-.22,0-.45-.3a1.25,1.25,0,0,1-.28-.54.77.77,0,0,1,.15-.74.31.31,0,0,1,.43.06.87.87,0,0,1,.16.34,2.28,2.28,0,0,1,.1.59,1.08,1.08,0,0,1-.07.54s0-.21,0-.54a2.69,2.69,0,0,0-.13-.55c0-.19-.21-.45-.37-.33a.66.66,0,0,0-.1.6,1.2,1.2,0,0,0,.22.51C463.22,421.54,463.42,421.62,463.4,421.64Z"/><path class="cls-5" d="M471.68,411.46s-.26.24-.58.68a3.79,3.79,0,0,0-.29,4c.25.49.5.74.48.76a.65.65,0,0,1-.18-.17,2.52,2.52,0,0,1-.39-.54,3.67,3.67,0,0,1,.29-4.15,3.6,3.6,0,0,1,.47-.48A.84.84,0,0,1,471.68,411.46Z"/><path class="cls-5" d="M469.44,417.33a7.53,7.53,0,0,1-1.08,1.41,6.83,6.83,0,0,1-1.32,1.19s.55-.58,1.21-1.29S469.4,417.3,469.44,417.33Z"/><path class="cls-5" d="M471,415.57s.08.16.16.34.16.33.13.36-.18-.09-.27-.3S471,415.57,471,415.57Z"/><path class="cls-5" d="M470.82,414.16s.08.14.09.32,0,.32-.06.33-.08-.14-.09-.32S470.78,414.16,470.82,414.16Z"/><path class="cls-5" d="M471.31,412.88s-.09.15-.16.32-.09.33-.13.34-.1-.19,0-.4S471.29,412.84,471.31,412.88Z"/><path class="cls-5" d="M471.75,412s0,.11,0,.21-.1.17-.14.16,0-.11,0-.21S471.71,412,471.75,412Z"/><polygon class="cls-10" points="391.57 413.71 389.19 428.37 401.72 428.37 404.61 416.43 391.57 413.71"/><path class="cls-11" d="M389.59,428.68l0-1.11,12.17-.06-.15,4.6-.75,0c-3.34.07-17,.1-19.2-.66C379.24,430.63,389.59,428.68,389.59,428.68Z"/><g class="cls-12"><path class="cls-7" d="M397.27,431.86a4.22,4.22,0,0,1,1.64-2.53,4.07,4.07,0,0,1,2.86-.77l-.12,3.38Z"/></g><g class="cls-12"><path class="cls-7" d="M384.52,429.81s-3.63.91-3.21,1.52,14.24,1.1,20.34.78v-.27l-16.1-.43S385.23,429.87,384.52,429.81Z"/></g><path class="cls-5" d="M401.83,431.84h-.21l-.59,0h-2.2c-1.86,0-4.43,0-7.26-.12s-5.4-.25-7.26-.38l-2.19-.17-.6,0-.2,0h.21l.59,0,2.2.12c1.86.1,4.42.23,7.25.33s5.4.15,7.26.17l2.2,0h.59Z"/><path class="cls-5" d="M385.53,431.6a4.6,4.6,0,0,0-.37-1.07,5,5,0,0,0-.72-.87,1.67,1.67,0,0,1,.85.8A1.61,1.61,0,0,1,385.53,431.6Z"/><path class="cls-5" d="M389.17,429.91s-.2-.19-.37-.48a1.29,1.29,0,0,1-.24-.55s.2.2.37.48A1.46,1.46,0,0,1,389.17,429.91Z"/><path class="cls-5" d="M390.16,429.43s-.21-.11-.41-.3-.35-.38-.32-.41.22.11.42.3S390.19,429.4,390.16,429.43Z"/><path class="cls-5" d="M390.82,428.31a1.36,1.36,0,0,1-.63.06,1.45,1.45,0,0,1-.63-.09,1.36,1.36,0,0,1,.63-.06A1.45,1.45,0,0,1,390.82,428.31Z"/><path class="cls-5" d="M391.06,427.51a1.16,1.16,0,0,1-.71.18,1.18,1.18,0,0,1-.72-.12,3.61,3.61,0,0,1,.72,0A3.67,3.67,0,0,1,391.06,427.51Z"/><path class="cls-5" d="M388.79,428.84a2.2,2.2,0,0,1-.77,0,4.5,4.5,0,0,1-.82-.21,2.73,2.73,0,0,1-.47-.21.45.45,0,0,1-.19-.25.33.33,0,0,1,.13-.31,1.43,1.43,0,0,1,1.75.48,1.39,1.39,0,0,1,.24.53.49.49,0,0,1,0,.21,2.25,2.25,0,0,0-.33-.68,1.4,1.4,0,0,0-.65-.45,1.2,1.2,0,0,0-.93,0c-.13.09-.08.23.05.32a2.39,2.39,0,0,0,.43.2,5.67,5.67,0,0,0,.79.24C388.5,428.81,388.79,428.82,388.79,428.84Z"/><path class="cls-5" d="M388.59,428.87a.75.75,0,0,1-.07-.54,1.19,1.19,0,0,1,.23-.56.76.76,0,0,1,.66-.37.32.32,0,0,1,.23.37.88.88,0,0,1-.15.34,2,2,0,0,1-.38.45,1.1,1.1,0,0,1-.45.3s.16-.13.38-.37a2.93,2.93,0,0,0,.34-.45c.11-.16.2-.46,0-.5a.71.71,0,0,0-.52.31,1.42,1.42,0,0,0-.24.5A3.28,3.28,0,0,0,388.59,428.87Z"/><path class="cls-5" d="M401.7,428.52s-.34,0-.89,0a3.82,3.82,0,0,0-3.26,2.41c-.2.51-.23.86-.26.86a.69.69,0,0,1,0-.25,3.46,3.46,0,0,1,.16-.64,3.68,3.68,0,0,1,3.34-2.48,3.1,3.1,0,0,1,.67,0Z"/><path class="cls-5" d="M395.79,430.64a6.92,6.92,0,0,1-1.77.1,6.58,6.58,0,0,1-1.76-.22s.79,0,1.77.07S395.79,430.6,395.79,430.64Z"/><path class="cls-5" d="M398.16,430.7s-.07.17-.15.35-.14.34-.18.33-.06-.19,0-.4S398.14,430.67,398.16,430.7Z"/><path class="cls-5" d="M399.09,429.62s0,.16-.18.28-.26.2-.28.17.05-.15.18-.28S399.07,429.6,399.09,429.62Z"/><path class="cls-5" d="M400.39,429.16s-.17,0-.35.09-.31.15-.34.12.07-.19.3-.26S400.4,429.13,400.39,429.16Z"/><path class="cls-5" d="M401.31,429s-.06.1-.16.14-.2,0-.21,0,.06-.1.16-.13S401.3,428.92,401.31,429Z"/><path class="cls-13" d="M439.17,238.53l-20.56,1.75s-6.17.14-12.85,15.79l-4.63,9.1,9,5.75h0l.38,5.68.82,22.91,38.13-2.8c-.86-5.2-4.92-12-6.29-16.44,1.39-3.46,9.44-17.59,9.43-24.86,0-15.54-13.44-16.88-13.44-16.88"/><path class="cls-3" d="M430.1,271.1a7,7,0,0,0-2.69-.26,12.87,12.87,0,0,0-2.85.75,19.28,19.28,0,0,1-3.55,1.07,12.09,12.09,0,0,1-6.65-.8,11.64,11.64,0,0,1-1.79-1c-.39-.28-.59-.46-.57-.48s.9.58,2.48,1.18a12.59,12.59,0,0,0,6.46.66,21.62,21.62,0,0,0,3.49-1,11.42,11.42,0,0,1,3-.68,5.1,5.1,0,0,1,2,.22A1.76,1.76,0,0,1,430.1,271.1Z"/><path class="cls-3" d="M408.25,264.64c-.09.09-1.05-.88-2.51-1.64s-2.79-1-2.77-1.16a6.71,6.71,0,0,1,5.28,2.8Z"/><path class="cls-3" d="M419.42,278.22a6.47,6.47,0,0,1,0-1.23,14.15,14.15,0,0,1,.1-1.44c.05-.56.1-1.2.22-1.89a43.28,43.28,0,0,1,1-4.87,59.6,59.6,0,0,1,2-5.76,99.66,99.66,0,0,1,4.77-10c.67-1.24,1.23-2.23,1.62-2.92a6.85,6.85,0,0,1,.66-1,7.17,7.17,0,0,1-.51,1.12l-1.51,3c-1.27,2.52-3,6-4.64,10-.79,2-1.45,3.93-2,5.71a47.2,47.2,0,0,0-1.11,4.8c-.14.69-.21,1.32-.29,1.88s-.13,1-.17,1.42A6.35,6.35,0,0,1,419.42,278.22Z"/><path class="cls-3" d="M410.37,258.36a2.63,2.63,0,0,1,.22-.76c.16-.48.44-1.16.81-2a39.65,39.65,0,0,1,3.45-6.18,41,41,0,0,1,4.48-5.47c.64-.65,1.17-1.15,1.56-1.48a2.82,2.82,0,0,1,.62-.48c0,.05-.75.83-2,2.16a51.58,51.58,0,0,0-4.35,5.51,53.16,53.16,0,0,0-3.54,6.06C410.87,257.35,410.43,258.38,410.37,258.36Z"/><path class="cls-3" d="M433.75,256.11c0,.05-.35-.18-1-.32a6.68,6.68,0,0,0-2.88.2,15.53,15.53,0,0,1-4.37.73,10.16,10.16,0,0,1-5-2c-1.58-1.1-2.95-2.31-4.33-3.18a9.07,9.07,0,0,0-4-1.52,5.91,5.91,0,0,0-2.85.38c-.63.28-.93.54-.95.5s.06-.08.2-.2a3.46,3.46,0,0,1,.69-.44,5.4,5.4,0,0,1,2.94-.53,9,9,0,0,1,4.17,1.48c1.43.88,2.82,2.08,4.37,3.16a10.1,10.1,0,0,0,4.83,2,16.4,16.4,0,0,0,4.28-.64,6.31,6.31,0,0,1,3-.07,2.68,2.68,0,0,1,.76.32C433.68,256.05,433.76,256.1,433.75,256.11Z"/><path class="cls-5" d="M410.52,276.6a13.22,13.22,0,0,0-.07-3.37,27.54,27.54,0,0,0-.85-3.56,30.07,30.07,0,0,1-1-4.43,8.75,8.75,0,0,1,.51-4.54,11.1,11.1,0,0,1,2.09-3.1,20.2,20.2,0,0,1,1.8-1.73,3.27,3.27,0,0,1,.72-.56c.06.05-.92.92-2.3,2.49a11.29,11.29,0,0,0-1.95,3.05,8.51,8.51,0,0,0-.45,4.34,32.87,32.87,0,0,0,1,4.38,24.69,24.69,0,0,1,.78,3.63,9.85,9.85,0,0,1,0,2.51A3.77,3.77,0,0,1,410.52,276.6Z"/><path class="cls-5" d="M411.34,299.51s-9.22,28.2-12.72,55.47-7.8,64.77-7.8,64.77l12.64.25,23.4-73.19,23.81-33.7-2.36-20.55Z"/><polyline class="cls-5" points="412.42 302.95 421.19 375.23 456.9 411.44 464.74 400.62 439.43 360.48 445.12 297.28 411.02 303.76"/><path class="cls-8" d="M436.78,334.26a1.92,1.92,0,0,1-.21.41,10.64,10.64,0,0,1-.7,1.08,27.22,27.22,0,0,1-3.18,3.51,55.12,55.12,0,0,0-4.86,5,22.7,22.7,0,0,0-3.67,7.62c-.85,2.91-1.63,5.71-2.15,8.29s-.92,4.93-1.54,6.85-1.17,3.42-1.49,4.49-.45,1.67-.49,1.66a3,3,0,0,1,.05-.45c.06-.29.14-.71.28-1.26.27-1.08.8-2.62,1.37-4.52s.9-4.26,1.44-6.85,1.27-5.4,2.13-8.34a22.49,22.49,0,0,1,3.77-7.73,48.72,48.72,0,0,1,5-5,32.18,32.18,0,0,0,3.25-3.4C436.43,334.78,436.74,334.24,436.78,334.26Z"/><path class="cls-8" d="M439.74,360a14.14,14.14,0,0,0-4.65,4.91,7.32,7.32,0,0,1,4.65-4.91Z"/><path class="cls-8" d="M439.28,360.45a91,91,0,0,0-5.39.52,5.67,5.67,0,0,1,2.65-.72A5.74,5.74,0,0,1,439.28,360.45Z"/><polygon class="cls-14" points="382.33 270.44 380.36 279.08 406.41 280.69 382.33 270.44"/><polygon class="cls-9" points="382.33 270.44 380.36 279.08 406.41 280.69 382.33 270.44"/><path class="cls-8" d="M470.4,295.43a47.53,47.53,0,0,0-4.12-2.82c-.44-.09-3.06,2-3.06,2s.87-3.61-.69-5.43-4.08-1.9-7,0-9,2.82-9,2.82-1-1.46-1.91-2.93-2.11-.9-6-.81-14.44-5.57-14.44-5.57-5.82-4.2-12.84-9.36l1.59-2a2.84,2.84,0,0,0-.48-4h0a2.84,2.84,0,0,0-4,.48l-.18.23a2,2,0,0,0-3.44-2.13l-.77,1a2,2,0,0,0-3.49-1.54c-4.13-3.1-7.89-6-10.37-8-8.83-7.15-11-20.35-11-20.35-3.27.8-3.25,2.87-3.27,5.16,0,.6,0,1.11,0,1.57a13,13,0,0,0-7.84-.29,12,12,0,0,0-5.42,3.38,3.33,3.33,0,1,0-1.13,1.27c.1-.07.18-.15.27-.22a10.93,10.93,0,0,0-1.5,2.82,10.57,10.57,0,0,0,2,10.34l1.22.37c-.64.26-1.39.44-2.34.74-2.18.71-4.16,1.3-4,4.66,0,0,13.25-1.87,22.7,4.43,2.57,1.71,6.26,4.33,10.29,7.23l-.19.23a2,2,0,0,0,2.22,3.2l-.74.94a2,2,0,0,0,2.88,2.84l-.18.23a2.83,2.83,0,1,0,4.45,3.5l2.39-3c7.19,5.29,13.15,9.75,13.15,9.75s8.54,8.36,9.63,12.13.88,5,2.57,5.52l3.36.95s.94,6,0,9.41-.14,5.74,2.07,6.7,5.39-1,5.39-1-1.21,3.13-1,3.52a48.67,48.67,0,0,0,3.92,3.09l15.37-21.1-.67,1Z"/><path class="cls-5" d="M375.94,241.37a5.23,5.23,0,0,1,.05,1.11,19.46,19.46,0,0,1-.19,3,7.13,7.13,0,0,1-.6,2,3.84,3.84,0,0,1-1.67,1.79c-1.54.85-3.56.77-5,2a3,3,0,0,0-1,2.37c0,.89.14,1.77.15,2.63a4.28,4.28,0,0,1-.6,2.37,5.17,5.17,0,0,1-1.48,1.53,21.68,21.68,0,0,1-2.65,1.46,3.27,3.27,0,0,1-1.07.32s.37-.15,1-.47a27.42,27.42,0,0,0,2.54-1.55,5,5,0,0,0,1.36-1.47,3.93,3.93,0,0,0,.51-2.19c0-.82-.18-1.69-.17-2.64a3.43,3.43,0,0,1,1.13-2.68,6.38,6.38,0,0,1,2.63-1.2,11.83,11.83,0,0,0,2.46-.8,3.47,3.47,0,0,0,1.54-1.61,7.15,7.15,0,0,0,.62-1.92,28.69,28.69,0,0,0,.32-3A6.36,6.36,0,0,1,375.94,241.37Z"/><path class="cls-5" d="M391.79,282.15a22.87,22.87,0,0,1,1.81-2.2c1.14-1.34,2.7-3.2,4.34-5.32s3.06-4.1,4.06-5.54a22.32,22.32,0,0,1,1.68-2.31,3,3,0,0,1-.34.69c-.25.43-.62,1-1.09,1.79-.95,1.48-2.33,3.5-4,5.63s-3.24,4-4.45,5.26c-.6.64-1.1,1.16-1.45,1.5A3,3,0,0,1,391.79,282.15Z"/><path class="cls-5" d="M408.44,267.83a3.26,3.26,0,0,1-.48.76c-.34.47-.84,1.15-1.46,2-1.25,1.65-3,3.92-5,6.4s-3.75,4.71-5.06,6.31a22.51,22.51,0,0,1-2.22,2.52,5.88,5.88,0,0,1,.51-.75l1.47-2c1.26-1.64,3-3.9,5-6.38s3.74-4.72,5.05-6.32l1.57-1.89A3.77,3.77,0,0,1,408.44,267.83Z"/><path class="cls-5" d="M400.64,286.88a17,17,0,0,1,1.62-2c1-1.19,2.41-2.85,3.86-4.74s2.71-3.66,3.6-4.95a16.85,16.85,0,0,1,1.49-2.06A13.85,13.85,0,0,1,410,275.4c-.83,1.33-2.05,3.14-3.51,5s-2.9,3.54-4,4.68A12.74,12.74,0,0,1,400.64,286.88Z"/><path class="cls-5" d="M464.51,292.56a2.05,2.05,0,0,1-.27.39c-.21.29-.49.65-.82,1.09L460.35,298c-2.59,3.34-6.14,8-10,13.15s-7.18,9.95-9.59,13.41c-1.19,1.7-2.16,3.09-2.86,4.11l-.79,1.1a3,3,0,0,1-.3.38,2.06,2.06,0,0,1,.23-.42l.72-1.15c.63-1,1.57-2.43,2.75-4.18,2.35-3.51,5.68-8.31,9.51-13.5s7.41-9.79,10.06-13.08c1.32-1.64,2.41-3,3.17-3.87l.89-1A1.87,1.87,0,0,1,464.51,292.56Z"/><path class="cls-10" d="M371.79,263.42c-.18-.68,0-1.38.69-1.44h0a1.08,1.08,0,0,1,.73.75L375,269h0l-.9-4.66c-.18-.68.1-1.35.65-1.27.3,0,.59.47.67.76l1.46,5.21-.65-3.43c-.17-.77,0-1.11.4-1.18s.71.38.79.67l1.14,3.8c.6.48,2.57,1.94,2.61,3.47,0,.08.22.19.25.25l.57.16-.79,3.32s-5.28-3.68-6.62-4.92a5.15,5.15,0,0,1-1.59-2.67Z"/><path class="cls-5" d="M415.43,207c-2.1,1.88-2.58,5-2.51,7.78s.52,5.69-.23,8.4c-.35,1.26-.95,2.44-1.29,3.7a4.73,4.73,0,0,0,.36,3.78c1.1,1.64,3.38,1.85,5.35,1.9l4.46.11a1.83,1.83,0,0,0,1.4-.34,1.86,1.86,0,0,0,.37-1.35,109.37,109.37,0,0,0-2.45-23.59"/><path class="cls-10" d="M436.58,209.62l0,2-.41,30.29a6.49,6.49,0,0,1-6.87,6.2h0a6.86,6.86,0,0,1-6.9-6.58c0-3.73-.09-7.65-.09-7.65s-4.81-.8-5.8-7.07c-.5-3.11-.34-8.23-.08-12.4a6.62,6.62,0,0,1,7.3-6.17Z"/><path class="cls-5" d="M417.68,218a.8.8,0,0,0,.77.81.77.77,0,0,0,.83-.73.8.8,0,0,0-.77-.81A.77.77,0,0,0,417.68,218Z"/><path class="cls-5" d="M417.5,217.09c.1.1.71-.35,1.58-.35s1.49.44,1.59.33-.06-.24-.33-.44a2.26,2.26,0,0,0-1.28-.39,2.11,2.11,0,0,0-1.25.4C417.54,216.85,417.45,217,417.5,217.09Z"/><path class="cls-5" d="M426.34,218a.8.8,0,0,0,.77.81.78.78,0,0,0,.83-.73.81.81,0,0,0-.78-.81A.76.76,0,0,0,426.34,218Z"/><path class="cls-5" d="M426,217.25c.1.1.71-.35,1.58-.35s1.5.44,1.59.33-.05-.23-.33-.43a2.16,2.16,0,0,0-1.28-.4,2.13,2.13,0,0,0-1.25.41C426.05,217,426,217.2,426,217.25Z"/><path class="cls-5" d="M422.87,223.66a5.87,5.87,0,0,0-1.41-.25c-.22,0-.43-.07-.47-.22a1.1,1.1,0,0,1,.15-.65c.21-.54.43-1.1.65-1.69a28,28,0,0,0,1.47-4.4,29.19,29.19,0,0,0-1.82,4.28c-.21.59-.42,1.15-.62,1.69a1.24,1.24,0,0,0-.12.86.55.55,0,0,0,.37.33,1.8,1.8,0,0,0,.37,0A5.43,5.43,0,0,0,422.87,223.66Z"/><path class="cls-15" d="M422.27,233.9a16,16,0,0,0,8.39-2.24s-2,4.3-8.31,3.72Z"/><path class="cls-15" d="M423.23,225.75a1.56,1.56,0,0,1,1.4-.58,1.44,1.44,0,0,1,1,.52.91.91,0,0,1,.07,1,1,1,0,0,1-1.13.28,3.15,3.15,0,0,1-1.11-.66,1,1,0,0,1-.25-.25.32.32,0,0,1,0-.33"/><path class="cls-5" d="M425.41,224.26c-.14,0-.14.93-.94,1.6s-1.81.56-1.82.69.23.18.65.2a2.36,2.36,0,0,0,1.51-.53,2,2,0,0,0,.73-1.34C425.58,224.49,425.48,224.25,425.41,224.26Z"/><path class="cls-5" d="M444.52,224a41.45,41.45,0,0,1-.71-5.45,22.64,22.64,0,0,0-3.39-10.06,15.17,15.17,0,0,0-5.09-4.8,4.89,4.89,0,0,0,2.86-3.07,3.93,3.93,0,1,0-6.64,1.66,11.12,11.12,0,0,0-5.25.34h-.48c-2.08.13-4.23-.17-6.21.49a8.14,8.14,0,0,0-4.8,3.76c-1.06,2.07-.85,4.53-.61,6.85a2.43,2.43,0,0,0,.71,1.78,2.4,2.4,0,0,0,1.43.31l4.34,0a5.63,5.63,0,0,0,2.94-.53,2.22,2.22,0,0,0,.94-1.21,3.37,3.37,0,0,0,1.8,1.64,8.41,8.41,0,0,0,3.87.21,8.12,8.12,0,0,0,2.51-.56q.17,6.09.32,12.2a3.66,3.66,0,0,0,.43,2,3.34,3.34,0,0,0,2.62,1.12A6.24,6.24,0,0,0,440,230a2.94,2.94,0,0,0,1.38-2.84,3.75,3.75,0,0,0,6,1.38A7.61,7.61,0,0,1,444.52,224Z"/><path class="cls-8" d="M426.09,203a16.05,16.05,0,0,0-2.91,0,9.06,9.06,0,0,0-8,9.67,15.12,15.12,0,0,0,.53,2.85,2,2,0,0,1-.35-.71,8,8,0,0,1-.48-2.12,9.05,9.05,0,0,1,8.31-10,8.26,8.26,0,0,1,2.17.09A2.6,2.6,0,0,1,426.09,203Z"/><path class="cls-8" d="M421.11,215.35s-.14-.16-.3-.5a8.17,8.17,0,0,1-.49-1.48,9.22,9.22,0,0,1,3.32-9.3,8.42,8.42,0,0,1,1.32-.84,1.58,1.58,0,0,1,.54-.2c0,.07-.7.43-1.67,1.27a9.63,9.63,0,0,0-3.22,9C420.83,214.58,421.17,215.32,421.11,215.35Z"/><path class="cls-8" d="M424.17,211.42a2.87,2.87,0,0,1-.55-1.26,6.91,6.91,0,0,1-.05-3.33,7,7,0,0,1,1.48-3,2.92,2.92,0,0,1,1-.9,11.79,11.79,0,0,1-.81,1.09,8,8,0,0,0-1.3,2.89,8.15,8.15,0,0,0-.07,3.17A11,11,0,0,1,424.17,211.42Z"/><path class="cls-3" d="M453,254c-.05.05-.73-.74-2.07-1.72a14,14,0,0,0-12.25-2.13c-1.59.46-2.49,1-2.53.9a2.51,2.51,0,0,1,.61-.4,11.61,11.61,0,0,1,1.84-.79A13.34,13.34,0,0,1,451.08,252a11.42,11.42,0,0,1,1.46,1.36C452.85,253.74,453,254,453,254Z"/><path class="cls-13" d="M399.29,274.22l-3.86,13.17s19.07,7.72,30,7.59c10.25-.13,13.39-3.44,17.38-10.13,4.66-7.8,8.26-17.6,9.12-23.08,0,0,5.78-25.21-16.29-23l-.6,19.72s-2.45,8.08-2.62,8.55c-1.65,4.36-3.78,10.74-5.85,11.52S399.29,274.22,399.29,274.22Z"/><path class="cls-5" d="M399.29,274.22a3.75,3.75,0,0,1,.55.06l1.56.25c1.36.24,3.33.62,5.76,1.14s5.33,1.18,8.6,1.76a53.75,53.75,0,0,0,10.81,1l-.18.13c.41-1.08.84-2.22,1.26-3.39,2.9-8.14,5.15-15.64,7-21,.92-2.68,1.71-4.84,2.28-6.32.28-.74.52-1.31.68-1.69a3.13,3.13,0,0,1,.27-.58,4.21,4.21,0,0,1-.19.61l-.6,1.72c-.53,1.49-1.27,3.66-2.15,6.35-1.79,5.38-4,12.89-6.9,21.06-.42,1.17-.86,2.31-1.28,3.39l0,.13h-.14a53.49,53.49,0,0,1-10.89-1c-3.28-.61-6.17-1.31-8.59-1.86s-4.38-1-5.73-1.26l-1.54-.32A3.49,3.49,0,0,1,399.29,274.22Z"/><path class="cls-5" d="M395.43,287.39a3.93,3.93,0,0,1,.63.19l1.75.6c1.53.51,3.76,1.22,6.54,2s6.11,1.63,9.82,2.54a64.07,64.07,0,0,0,12.18,2.11,23.07,23.07,0,0,0,3.23-.09,13.22,13.22,0,0,0,3.05-.63,14.87,14.87,0,0,0,5-3,31.52,31.52,0,0,0,6-8c1.39-2.53,2.35-4.66,3-6.12.32-.71.58-1.27.77-1.7a6,6,0,0,1,.29-.58,3.05,3.05,0,0,1-.21.62c-.16.39-.39,1-.7,1.72-.63,1.49-1.56,3.64-2.92,6.2a30.71,30.71,0,0,1-6,8.17,15.25,15.25,0,0,1-5.14,3.14,13.27,13.27,0,0,1-3.15.66,23.93,23.93,0,0,1-3.29.09,62.4,62.4,0,0,1-12.25-2.15c-3.71-.94-7-1.82-9.81-2.63s-5-1.56-6.51-2.12c-.76-.28-1.34-.51-1.74-.68A4.17,4.17,0,0,1,395.43,287.39Z"/><g class="cls-16"><path d="M410,276.31l11.3.26a6.34,6.34,0,0,0,2.64-.31,6.26,6.26,0,0,0,2.62-2.76A111.48,111.48,0,0,0,432,263.41s-3,9.49-4.85,13.62a2.16,2.16,0,0,1-2.64,1.36A51.08,51.08,0,0,1,410,276.31Z"/></g><g class="cls-16"><path d="M444.13,283s-3.82,14.53-13.62,14.24a57.26,57.26,0,0,1-19.09-4.5l.44-.45s16.65,3.59,21.28,1.33C441.93,289.38,444.13,283,444.13,283Z"/></g><path class="cls-10" d="M395.82,286.06l-3.09,0c-2.81-.27-4.38-.32-5.16-1.07-1.05-1,.39-2,.39-2s-2-.7-1.84-1.94c.13-.84,1.09-.94,1.09-.94s-1.79-.69-2.15-1.44c-.48-1,.79-1.56.79-1.56-2.45-1.51-2.23-3-1.66-3.15a7.22,7.22,0,0,1,2.47.73c1.61.46,6,1.8,4.38-.63s-2-4.9-1.59-5.63a.91.91,0,0,1,1.67.42,11,11,0,0,0,1.15,2.71,6.9,6.9,0,0,0,1.47,1.85c.69.61,1.29,1.11,1.82,1.51l2.75,2.66Z"/><path class="cls-3" d="M448.53,274.39c0,.07-1-.41-2.71-1a29.78,29.78,0,0,0-13.68-1.26c-1.76.26-2.83.54-2.85.47a2.91,2.91,0,0,1,.74-.27,19.43,19.43,0,0,1,2.06-.49,26.2,26.2,0,0,1,7-.3,25.85,25.85,0,0,1,6.83,1.57,19.44,19.44,0,0,1,1.94.86A2.46,2.46,0,0,1,448.53,274.39Z"/><path class="cls-3" d="M426.05,294.88a6,6,0,0,0,.57-2.36,7.5,7.5,0,0,0-.48-2.6,18.58,18.58,0,0,0-1.52-2.91,22.69,22.69,0,0,1-1.6-2.95,8.18,8.18,0,0,1-.63-2.69,4.69,4.69,0,0,1,.27-1.84,1.46,1.46,0,0,1,.32-.61,6.8,6.8,0,0,0-.29,2.43,8.26,8.26,0,0,0,.69,2.56,25.85,25.85,0,0,0,1.6,2.88,16.29,16.29,0,0,1,1.52,3,7.22,7.22,0,0,1,.42,2.74,4.47,4.47,0,0,1-.47,1.8C426.24,294.72,426.06,294.9,426.05,294.88Z"/><path class="cls-3" d="M405.11,289.88a7.59,7.59,0,0,1,.17-2,45.16,45.16,0,0,1,.94-4.67,45.82,45.82,0,0,1,1.39-4.56,8.24,8.24,0,0,1,.79-1.81,10.72,10.72,0,0,1-.5,1.91c-.35,1.16-.82,2.77-1.28,4.56s-.8,3.43-1.05,4.62A10.83,10.83,0,0,1,405.11,289.88Z"/><path class="cls-3" d="M447.44,242.24a4.59,4.59,0,0,1,.21.81,7.36,7.36,0,0,1,0,2.41,17,17,0,0,1-.95,3.67c-.5,1.4-1.13,3-1.66,4.73-1.1,3.54-1.87,7.9-3,12.7a52.49,52.49,0,0,1-2.22,7.41,26.35,26.35,0,0,1-4.1,7.22,18.18,18.18,0,0,1-6.52,5.14,16,16,0,0,1-7.62,1.31,34.44,34.44,0,0,1-6.9-1.2c-2.12-.56-4.07-1.15-5.84-1.74-3.53-1.18-6.31-2.34-8.21-3.19-.95-.42-1.68-.77-2.17-1l-.56-.28a.6.6,0,0,1-.18-.11l.2.07.57.25,2.2.93c1.92.8,4.72,1.91,8.25,3.06,1.76.56,3.71,1.14,5.83,1.68a34.16,34.16,0,0,0,6.83,1.15A15.8,15.8,0,0,0,429.1,286a17.85,17.85,0,0,0,6.36-5,26.29,26.29,0,0,0,4.05-7.1,53.75,53.75,0,0,0,2.23-7.35c1.11-4.77,1.91-9.14,3.06-12.7.55-1.78,1.21-3.34,1.72-4.72a17.07,17.07,0,0,0,1-3.62A9.2,9.2,0,0,0,447.44,242.24Z"/><path class="cls-10" d="M186.48,223.15a2.17,2.17,0,0,1,0,2.07l-16.91,30.22a10.71,10.71,0,0,1-14.34,3.62l-9.46-5.37,6.55-11.36,7,4.23,17-22.46a21.62,21.62,0,0,0,.25-3.76,5.86,5.86,0,0,0-.35-1.9,8.77,8.77,0,0,0-1.05-2.17.74.74,0,0,1,.65-1.25c.65.16,2,1.7,2.6,4s2.16-1.12,2.74-2.36,2.57-5,3.09-5.1c.77-.18,1.1.6.49,1.83s-2.19,5-1.52,5.29c0,0,1.19.28,1.48,1Z"/><path class="cls-15" d="M184.39,219.27a5.17,5.17,0,0,1-.35,1.42c-.15.49-.31,1-.48,1.51-.1.29-.2.58-.3.89a1.34,1.34,0,0,1-.27.51.61.61,0,0,1-.7.09,2.48,2.48,0,0,1-.48-.31.94.94,0,0,1-.34-.51,1.83,1.83,0,0,1,.21-1c.2-.51.39-1,.58-1.47a4.63,4.63,0,0,1,.64-1.32,5.48,5.48,0,0,1-.36,1.42L182,222a1.67,1.67,0,0,0-.17.78c0,.18.35.41.59.53s.18,0,.24,0a1.1,1.1,0,0,0,.17-.36l.33-.88c.19-.51.38-1,.56-1.47A4.62,4.62,0,0,1,184.39,219.27Z"/><path class="cls-15" d="M185,221.82a4.08,4.08,0,0,1-.29,1.3l-.43,1.37-.13.39a.94.94,0,0,1-.3.46.68.68,0,0,1-.63,0,2,2,0,0,1-.43-.28,1.14,1.14,0,0,1-.36-.44.93.93,0,0,1,0-.57c.09-.32.2-.55.29-.81l.53-1.33a4.45,4.45,0,0,1,.59-1.19,4.1,4.1,0,0,1-.31,1.29l-.44,1.36c-.08.25-.2.54-.26.78a.48.48,0,0,0,.23.58c.23.19.49.32.56.24s.21-.41.31-.65l.51-1.33A4.3,4.3,0,0,1,185,221.82Z"/><path class="cls-15" d="M186.13,223.24a4.23,4.23,0,0,1-.3,1.29c-.14.45-.28.91-.43,1.38l-.13.39a.89.89,0,0,1-.3.45.62.62,0,0,1-.63,0,2.28,2.28,0,0,1-.43-.28,1,1,0,0,1-.36-.43.93.93,0,0,1,0-.57,8.46,8.46,0,0,1,.3-.82c.18-.45.35-.89.53-1.33a4,4,0,0,1,.59-1.19,4.48,4.48,0,0,1-.31,1.29c-.15.45-.3.9-.45,1.37-.08.25-.19.53-.26.78a.48.48,0,0,0,.23.57c.23.2.49.33.57.24s.21-.41.3-.64c.17-.46.35-.9.51-1.34A4.15,4.15,0,0,1,186.13,223.24Z"/><path class="cls-15" d="M181,226.2a10.76,10.76,0,0,0-.3-2.47,10.45,10.45,0,0,0-1.19-2.17c0-.05.3.09.64.43a4.06,4.06,0,0,1,.95,1.62,4.19,4.19,0,0,1,.17,1.86C181.22,226,181.08,226.22,181,226.2Z"/><path class="cls-5" d="M127.45,183.93a7.15,7.15,0,0,0-8-1.44A21.39,21.39,0,0,1,116,184.3c-1.53.41-3.14-.08-4.72-.28s-3.44,0-4.3,1.37c-.56.86-.59,2-1.32,2.75-1,1-2.68.6-4,1a3.78,3.78,0,0,0-2.56,3,4.53,4.53,0,0,0,1.29,3.79,7,7,0,0,1,1.62,1.73,5.25,5.25,0,0,1-.07,3.06c-.17,1,0,2.3.9,2.75a1.4,1.4,0,0,0,1.53-.19,1.42,1.42,0,0,0,.42-1.49l19.59-6.27c3,0,3.89-2.66,4.35-3.58A7.13,7.13,0,0,0,127.45,183.93Z"/><path class="cls-10" d="M104.11,190.74l0,2.11.43,31.71a6.79,6.79,0,0,0,7.19,6.48h0a7.19,7.19,0,0,0,7.23-6.88c0-3.9.09-8,.09-8s5-.84,6.07-7.4c.52-3.26.36-8.61.08-13a6.92,6.92,0,0,0-7.64-6.46Z"/><path class="cls-5" d="M123.9,199.49a.84.84,0,0,1-.81.85.79.79,0,0,1-.87-.76.85.85,0,0,1,.81-.85A.82.82,0,0,1,123.9,199.49Z"/><path class="cls-5" d="M124.08,198.55c-.1.11-.74-.36-1.65-.36s-1.57.46-1.66.35,0-.25.34-.46a2.27,2.27,0,0,1,1.34-.41,2.21,2.21,0,0,1,1.31.42C124,198.3,124.13,198.5,124.08,198.55Z"/><path class="cls-5" d="M114.84,199.49a.84.84,0,0,1-.82.85.79.79,0,0,1-.86-.76.84.84,0,0,1,.81-.85A.82.82,0,0,1,114.84,199.49Z"/><path class="cls-5" d="M115.18,198.72c-.1.11-.74-.36-1.65-.36s-1.57.46-1.66.34,0-.24.34-.45a2.27,2.27,0,0,1,1.34-.41,2.21,2.21,0,0,1,1.31.42C115.14,198.47,115.23,198.67,115.18,198.72Z"/><path class="cls-5" d="M118.47,205.43a5.82,5.82,0,0,1,1.47-.26c.23,0,.45-.07.49-.23a1.21,1.21,0,0,0-.16-.68c-.22-.56-.44-1.15-.68-1.77a30.38,30.38,0,0,1-1.54-4.6,29.11,29.11,0,0,1,1.9,4.47l.66,1.77a1.31,1.31,0,0,1,.12.91.58.58,0,0,1-.38.34,2.08,2.08,0,0,1-.39.05A5.84,5.84,0,0,1,118.47,205.43Z"/><path class="cls-15" d="M119.09,216.15a16.69,16.69,0,0,1-8.78-2.35s2.13,4.51,8.69,3.9Z"/><path class="cls-5" d="M115.8,206.06c.15,0,.15,1,1,1.67s1.89.59,1.9.73-.24.19-.68.2a2.39,2.39,0,0,1-1.58-.55,2.19,2.19,0,0,1-.77-1.4C115.63,206.3,115.74,206.05,115.8,206.06Z"/><path class="cls-5" d="M115.41,195.17c-.08.25-1,.13-2,.26s-1.92.42-2.06.2.08-.34.43-.58a3.39,3.39,0,0,1,1.53-.53,3.56,3.56,0,0,1,1.61.18C115.26,194.86,115.45,195.05,115.41,195.17Z"/><path class="cls-5" d="M123.75,195.93c-.16.21-.79,0-1.54,0s-1.38.14-1.53-.07,0-.31.32-.51a2.2,2.2,0,0,1,2.47.08C123.73,195.62,123.82,195.83,123.75,195.93Z"/><path class="cls-5" d="M125.46,192.86a9.34,9.34,0,0,1-7.85-.32c-3-1.36-6.36-2-7.09-1.35s-.79,3.61-3.64,4.57c0,0,.38,5.71-1.91,5.58S103,189.75,103,189.75l6.28-.33,6-1.35,5.76.63,4.47,1.07Z"/><path class="cls-5" d="M102.88,188.12c0-.08.51-.29,1.14-.06s.92.72.84.77-.43-.26-1-.45S102.9,188.22,102.88,188.12Z"/><path class="cls-5" d="M104.77,186.19c.11,0,.07.68.19,1.45s.45,1.34.37,1.4a1.78,1.78,0,0,1-.71-1.34A2.3,2.3,0,0,1,104.77,186.19Z"/><path class="cls-10" d="M105.11,199c-.1,0-3.79-1.3-3.83,2.53s3.81,3.08,3.81,3S105.11,199,105.11,199Z"/><path class="cls-15" d="M103.94,203s-.07,0-.18.09a.7.7,0,0,1-.5,0,1.65,1.65,0,0,1-.75-1.49,2.21,2.21,0,0,1,.2-.95.78.78,0,0,1,.51-.51.35.35,0,0,1,.39.19c0,.11,0,.18,0,.19s.09-.06.06-.22a.42.42,0,0,0-.15-.24.51.51,0,0,0-.37-.11,1,1,0,0,0-.7.59,2.15,2.15,0,0,0-.24,1.06,1.73,1.73,0,0,0,1,1.67.71.71,0,0,0,.61-.1C103.93,203.11,104,203,103.94,203Z"/><path class="cls-13" d="M120.13,224.37c2.81.16,7.53.54,16.85,6,2,1.19,23,15.23,23,15.23l-9.26,11.85-17-9.6,2.3,20.42,2.55,24.27L97.16,292l-1-24.38L95.78,251l-2.62,22.14-16.34-1.56,4.5-29.16a19.48,19.48,0,0,1,4.31-9.71A23.92,23.92,0,0,1,96.13,226a34.51,34.51,0,0,1,7.7-1.41l-.14-4.88s7.35.69,9.31,5.41c0,0,2.44-5.58,7.16-6Z"/><path class="cls-3" d="M109.07,290.94a6.37,6.37,0,0,1-1.13-2.41,22,22,0,0,1-.69-7.23c0-1.52.17-3.19.24-4.95a42.82,42.82,0,0,0-.11-5.62A106.87,106.87,0,0,0,105.17,258a75.33,75.33,0,0,1-1.91-13c-.1-4.06.24-7.65,0-10.64A21.72,21.72,0,0,0,102,227.4c-.61-1.56-1.14-2.34-1.06-2.4a6,6,0,0,1,1.51,2.2,19.72,19.72,0,0,1,1.8,7c.31,3.07.06,6.71.22,10.67a82.75,82.75,0,0,0,2,12.78,94.82,94.82,0,0,1,2.14,12.95,42.55,42.55,0,0,1,0,5.76c-.14,1.78-.28,3.43-.4,5a24.69,24.69,0,0,0,.28,7.06C108.77,290,109.18,290.9,109.07,290.94Z"/><path class="cls-3" d="M126.1,292.12a10.5,10.5,0,0,1-.42-2.61c-.19-1.73-.45-4.16-.77-7.14-.64-6-1.59-14.34-2.94-23.48-.67-4.58-1.38-8.92-2.06-12.87s-1.32-7.51-1.68-10.54a53.23,53.23,0,0,1-.43-7.21,9.68,9.68,0,0,1,.26-2.64c.2,0,.08,3.76,1.06,9.73.46,3,1.19,6.5,1.94,10.45s1.48,8.31,2.16,12.89c1.36,9.17,2.17,17.53,2.58,23.59.21,3,.32,5.49.37,7.19A10.92,10.92,0,0,1,126.1,292.12Z"/><path class="cls-3" d="M125.18,225.11a22.63,22.63,0,0,1,.41,2.62,54.87,54.87,0,0,0,1.76,7c.44,1.46.93,3.06,1.34,4.83a40.47,40.47,0,0,1,.89,5.73c.36,4.06.31,8.5.56,13.12.47,9.28,1.38,17.65,2,23.72.31,3,.55,5.49.69,7.19a10.61,10.61,0,0,1,.09,2.66,11.26,11.26,0,0,1-.58-2.6c-.29-1.68-.66-4.12-1.09-7.15-.83-6-1.89-14.42-2.36-23.75-.25-4.67-.17-9.12-.46-13.09a43.61,43.61,0,0,0-.75-5.6c-.36-1.74-.8-3.34-1.18-4.82a40,40,0,0,1-1.39-7.13A7.39,7.39,0,0,1,125.18,225.11Z"/><path class="cls-3" d="M118.66,224.88c-.36-.06-.41-1.12-.71-2.2s-.81-2-.53-2.26c.13-.11.43,0,.79.31a3.57,3.57,0,0,1,1,1.61,3.41,3.41,0,0,1,0,1.86C119,224.66,118.83,224.91,118.66,224.88Z"/><path class="cls-3" d="M105.63,225.31c-.16.06-.44-.18-.64-.7a3.62,3.62,0,0,1,1.09-3.92c.44-.34.8-.4.9-.27.2.29-.51,1.15-.83,2.4S106,225.16,105.63,225.31Z"/><path class="cls-3" d="M118.54,291.74c-.11,0,.09-.94,0-2.6a25.06,25.06,0,0,0-1.6-6.86c-.48-1.43-1.06-3-1.55-4.72s-.94-3.6-1.31-5.58c-.76-4-1.27-8.33-1.85-12.91-1.14-9.16-2.11-17.46-2.75-23.48-.32-3-.55-5.44-.69-7.13a10.66,10.66,0,0,1-.08-2.64,10.79,10.79,0,0,1,.57,2.58c.28,1.67.66,4.09,1.09,7.08.86,6,2,14.28,3.12,23.44.58,4.58,1.05,8.94,1.73,12.86.34,2,.73,3.8,1.18,5.5s1,3.27,1.39,4.72a22.3,22.3,0,0,1,1.24,7.13A5.66,5.66,0,0,1,118.54,291.74Z"/><path class="cls-3" d="M101.68,290.83c-.18,0-.49-2.49-1-6.54s-1.1-9.64-1.75-15.82-1.11-11.82-1.3-15.9-.15-6.61,0-6.61.46,2.49.88,6.55,1,9.67,1.67,15.83,1.15,11.8,1.38,15.87S101.85,290.82,101.68,290.83Z"/><path class="cls-3" d="M79.65,271.8c-.17,0,.3-2.69,1.2-6.94s2.23-10.11,3.78-16.56c.79-3.22,1.54-6.29,2.23-9.08a28.36,28.36,0,0,1,2.52-7.32A10,10,0,0,1,93,228.1a3.3,3.3,0,0,1,1.83-.62c0,.1-.61.33-1.56,1a10.52,10.52,0,0,0-3.12,3.82A30.6,30.6,0,0,0,88,239.49c-.66,2.8-1.38,5.88-2.13,9.1-1.55,6.45-3,12.27-4.14,16.47S79.82,271.84,79.65,271.8Z"/><path class="cls-3" d="M99,230.82c.07.08-.38.49-.85,1.47a22,22,0,0,0-1.49,4.35c-.23,1-.49,2-.76,3.13s-.46,2.34-.72,3.64a24.76,24.76,0,0,1-1.15,4,41.1,41.1,0,0,1-1.9,4.05c-.69,1.34-1.39,2.64-1.93,3.91a18.62,18.62,0,0,0-1.06,3.82,52.34,52.34,0,0,0-.7,6.84c-.17,3.94-.11,6.39-.3,6.4s-.54-2.43-.6-6.42a43.6,43.6,0,0,1,.45-7,19,19,0,0,1,1.07-4.1c.56-1.35,1.26-2.67,1.95-4s1.35-2.64,1.87-3.92A25.05,25.05,0,0,0,94,243.16c.29-1.26.54-2.49.85-3.64s.61-2.16.91-3.13A16.62,16.62,0,0,1,97.68,232C98.31,231.07,98.92,230.76,99,230.82Z"/><path class="cls-3" d="M156.19,249.87c-.06.15-1.65-.38-4-1.7a51.07,51.07,0,0,1-8.54-6.06c-1.56-1.39-2.81-2.84-4.07-4a23.58,23.58,0,0,0-3.53-2.89c-2.17-1.41-3.81-1.74-3.75-1.95s.44-.09,1.18.06a10.75,10.75,0,0,1,3,1.12,19.57,19.57,0,0,1,3.86,2.81c1.34,1.17,2.65,2.63,4.12,3.94a83.51,83.51,0,0,0,8.17,6.24C154.84,248.9,156.27,249.7,156.19,249.87Z"/><path class="cls-3" d="M152.34,255.31c-.11.15-1.24-.47-3-1.52s-4.23-2.53-6.9-4.23a64.12,64.12,0,0,1-6.63-4.72c-1.61-1.34-2.48-2.31-2.37-2.43s1.18.58,2.9,1.72,4.11,2.67,6.78,4.37,5.05,3.29,6.72,4.55S152.44,255.17,152.34,255.31Z"/><path class="cls-5" d="M94.93,227a1,1,0,0,1,.26.08,4.46,4.46,0,0,1,.69.35,7.4,7.4,0,0,1,2.12,1.9,10,10,0,0,1,1.78,3.84,13.91,13.91,0,0,1,.12,5.17,28.28,28.28,0,0,1-1.27,5c-.51,1.5-1,2.83-1.4,4s-.68,2-.87,2.67a5.83,5.83,0,0,1-.32,1,4.5,4.5,0,0,1,.17-1c.14-.66.39-1.6.75-2.74a59.12,59.12,0,0,0,2.54-8.92,14.29,14.29,0,0,0-.08-5,10.25,10.25,0,0,0-1.65-3.74A9.13,9.13,0,0,0,94.93,227Z"/><path class="cls-5" d="M134.13,252.37a5.27,5.27,0,0,1-.17-1c-.09-.72-.2-1.62-.34-2.69-.28-2.36-.66-5.45-1.07-8.88s-.8-6.52-1.08-8.88c-.13-1.07-.24-2-.33-2.69a4.31,4.31,0,0,1-.08-1,4.51,4.51,0,0,1,.24,1c.12.63.28,1.54.45,2.67.35,2.27.78,5.4,1.2,8.87s.76,6.62,1,8.9c.1,1.14.17,2.06.21,2.7A4.76,4.76,0,0,1,134.13,252.37Z"/><path class="cls-5" d="M111.6,223.25a2,2,0,0,0-1.37.18,2.31,2.31,0,0,0-1,1.13,7,7,0,0,0-.31.88l-.13.49a1.08,1.08,0,0,1-.26.56.52.52,0,0,1-.36.18.69.69,0,0,1-.34-.07l-.48-.22-.86-.43c-.51-.25-1-.5-1.45-.74a6,6,0,0,1-1.3-.77,5.58,5.58,0,0,1,1.42.51l1.49.66.88.41.45.21c.14.05.19,0,.26,0a3.72,3.72,0,0,0,.3-.88,5.42,5.42,0,0,1,.35-.93,2.57,2.57,0,0,1,1.18-1.23,1.76,1.76,0,0,1,1.15-.13C111.5,223.12,111.62,223.23,111.6,223.25Z"/><path class="cls-5" d="M120.24,224.07a24,24,0,0,1-3.19,2.65l-.27.2,0-.33c0-.13,0-.28-.08-.42a4.89,4.89,0,0,0-1.19-2.81,4.56,4.56,0,0,0-1.09-.69,1.58,1.58,0,0,1,1.28.47,3.44,3.44,0,0,1,.91,1.21,7.13,7.13,0,0,1,.49,1.75c0,.14,0,.29.08.42l-.33-.13A22.36,22.36,0,0,1,120.24,224.07Z"/><path class="cls-5" d="M92.47,272.46a11.67,11.67,0,0,1-2-.55c-1.21-.37-2.88-.86-4.75-1.33s-3.58-.83-4.82-1.07a12.41,12.41,0,0,1-2-.45,9.13,9.13,0,0,1,2,.16,49.42,49.42,0,0,1,4.87,1,46.56,46.56,0,0,1,4.74,1.46A8.77,8.77,0,0,1,92.47,272.46Z"/><path class="cls-5" d="M80.25,267.37a8.92,8.92,0,0,1,2,.4c1.19.31,2.82.79,4.59,1.41.89.31,1.73.63,2.48.93a11.93,11.93,0,0,1,2,.91,2.52,2.52,0,0,1,1.31,1.52,4.53,4.53,0,0,0-1.45-1.27,15.57,15.57,0,0,0-2-.81l-2.48-.89c-1.77-.62-3.38-1.14-4.54-1.52A11.59,11.59,0,0,1,80.25,267.37Z"/><path class="cls-5" d="M152,254.31a6.23,6.23,0,0,1,.69-1.57,37,37,0,0,1,2.14-3.54,37.55,37.55,0,0,1,2.53-3.27,6.67,6.67,0,0,1,1.22-1.21c.09.08-1.6,2.07-3.41,4.72S152.07,254.37,152,254.31Z"/><path class="cls-5" d="M150.74,252.39a5.08,5.08,0,0,1,.72-1.41,17.17,17.17,0,0,1,2.41-3,17.59,17.59,0,0,1,3-2.37,4.72,4.72,0,0,1,1.42-.7,46.82,46.82,0,0,0-4.14,3.36A47,47,0,0,0,150.74,252.39Z"/><path class="cls-5" d="M121.7,293.92a5.37,5.37,0,0,1-.11-.65c-.06-.47-.14-1.09-.23-1.87-.2-1.67-.47-4-.81-6.88-.67-5.81-1.6-13.84-2.7-22.69s-2.18-16.87-3-22.65c-.44-2.89-.79-5.23-1.07-6.84-.12-.78-.22-1.4-.29-1.86a3.93,3.93,0,0,1-.08-.66,4.58,4.58,0,0,1,.16.64l.37,1.85c.33,1.6.72,3.94,1.2,6.82,1,5.78,2.07,13.78,3.18,22.64s2,16.9,2.58,22.72c.28,2.87.51,5.22.67,6.89.06.79.12,1.41.15,1.88A3.64,3.64,0,0,1,121.7,293.92Z"/><path class="cls-5" d="M116.4,243.45c-.05,0-.11-.34.29-.64a.81.81,0,0,1,.84-.08.9.9,0,0,1,.48.93.84.84,0,0,1-.81.67.71.71,0,0,1-.7-.5.68.68,0,0,1,.06-.55c.08-.11.15-.14.17-.12s-.11.26,0,.56a.4.4,0,0,0,.4.23.51.51,0,0,0,.42-.36.54.54,0,0,0-.26-.52.52.52,0,0,0-.5,0C116.53,243.21,116.46,243.47,116.4,243.45Z"/><path class="cls-5" d="M118.84,257.54s-.11-.34.29-.65a.81.81,0,0,1,.84-.07.88.88,0,0,1,.48.93.85.85,0,0,1-.81.67.7.7,0,0,1-.69-.51.65.65,0,0,1,0-.55c.08-.11.15-.13.17-.11s-.1.26,0,.55a.38.38,0,0,0,.4.23.48.48,0,0,0,.42-.36.52.52,0,0,0-.76-.52C119,257.3,118.9,257.55,118.84,257.54Z"/><path class="cls-11" d="M112.66,428.05l-.16-7.2-13.5.22.13,10.54.84,0c3.73.15,19,.48,21.43-.32C124.16,430.45,112.66,428.05,112.66,428.05Z"/><g class="cls-17"><path class="cls-7" d="M118.28,429.42s4,1.09,3.55,1.76-15.89.92-22.7.43l0-.3,18-.13S117.5,429.47,118.28,429.42Z"/></g><path class="cls-5" d="M98.94,431.3a.6.6,0,0,0,.23,0l.67,0,2.45.07c2.07,0,4.94.06,8.1,0s6-.16,8.09-.26l2.45-.14.67-.05a1.45,1.45,0,0,0,.23,0h-.23l-.67,0-2.45.09c-2.07.08-4.93.16-8.09.21s-6,.05-8.1,0l-2.45,0h-.9Z"/><path class="cls-5" d="M117.12,431.39a5.52,5.52,0,0,1,.44-1.18,5.65,5.65,0,0,1,.82-.95,2.19,2.19,0,0,0-1.26,2.13Z"/><path class="cls-5" d="M113.11,429.43s.22-.21.41-.52.32-.59.28-.61-.22.21-.42.52S113.07,429.41,113.11,429.43Z"/><path class="cls-5" d="M112,428.87s.25-.11.47-.32.39-.42.36-.45-.24.11-.47.33S112,428.84,112,428.87Z"/><path class="cls-5" d="M111.29,427.61a1.73,1.73,0,0,0,.71.08c.39,0,.7,0,.7-.09a1.66,1.66,0,0,0-.7-.08A1.48,1.48,0,0,0,111.29,427.61Z"/><path class="cls-5" d="M111,426.71a1.41,1.41,0,0,0,.79.22,1.37,1.37,0,0,0,.81-.12,3.5,3.5,0,0,0-.8,0A4.67,4.67,0,0,0,111,426.71Z"/><path class="cls-5" d="M113.54,428.25a3,3,0,0,0,.87,0,5.74,5.74,0,0,0,.92-.22,2.18,2.18,0,0,0,.53-.23.49.49,0,0,0,.21-.27.34.34,0,0,0-.14-.34,1.59,1.59,0,0,0-2,.49,1.56,1.56,0,0,0-.27.59.51.51,0,0,0,0,.23,2.42,2.42,0,0,1,.38-.75,1.6,1.6,0,0,1,.73-.49,1.34,1.34,0,0,1,1,.06c.14.1.09.26-.06.35a3.06,3.06,0,0,1-.49.22,5.44,5.44,0,0,1-.89.24C113.87,428.21,113.54,428.22,113.54,428.25Z"/><path class="cls-5" d="M113.77,428.29a.87.87,0,0,0,.09-.61,1.41,1.41,0,0,0-.25-.63.85.85,0,0,0-.72-.43.35.35,0,0,0-.27.41.88.88,0,0,0,.16.38,2.32,2.32,0,0,0,.42.52,1.15,1.15,0,0,0,.5.34s-.18-.15-.42-.42a3.75,3.75,0,0,1-.37-.51c-.12-.19-.21-.51,0-.56s.44.19.57.36a1.55,1.55,0,0,1,.26.56A3.32,3.32,0,0,1,113.77,428.29Z"/><path class="cls-5" d="M99.16,427.61a9.29,9.29,0,0,1,1,0,4.27,4.27,0,0,1,2.19.86,4.36,4.36,0,0,1,1.39,1.9c.21.57.24,1,.27,1a1,1,0,0,0,0-.28,4.43,4.43,0,0,0-.16-.72,4.11,4.11,0,0,0-3.68-2.84,3.23,3.23,0,0,0-.74,0C99.25,427.57,99.15,427.6,99.16,427.61Z"/><path class="cls-5" d="M100.46,422a48.18,48.18,0,0,0,0,5.55,22.8,22.8,0,0,0,.08-2.78A22.34,22.34,0,0,0,100.46,422Z"/><path class="cls-5" d="M105.7,430.08a8.07,8.07,0,0,0,2,.17,7.94,7.94,0,0,0,2-.19c0-.05-.88,0-2,0S105.7,430,105.7,430.08Z"/><path class="cls-5" d="M103.06,430.12s.07.18.16.39.15.37.2.37.06-.21,0-.44S103.08,430.09,103.06,430.12Z"/><path class="cls-5" d="M102,428.89s.06.18.2.32.28.22.31.19,0-.17-.2-.31S102.07,428.86,102,428.89Z"/><path class="cls-5" d="M100.6,428.35s.19,0,.39.11.35.17.38.14-.08-.22-.33-.3S100.59,428.31,100.6,428.35Z"/><path class="cls-5" d="M99.59,428.1s.06.11.17.15.22,0,.23,0-.06-.11-.17-.15S99.6,428.06,99.59,428.1Z"/><g class="cls-18"><polygon points="99.17 427.25 112.64 426.81 112.59 425.19 99.05 426.39 99.17 427.25"/></g><path class="cls-11" d="M143.94,428.19l-.2-7.2-13.49.29.18,10.54.84,0c3.72.13,18.95.39,21.43-.42C155.45,430.53,143.94,428.19,143.94,428.19Z"/><g class="cls-17"><path class="cls-7" d="M149.57,429.53s4,1.07,3.55,1.75-15.88,1-22.69.54v-.3l18-.23S148.78,429.58,149.57,429.53Z"/></g><path class="cls-5" d="M130.23,431.51a.64.64,0,0,0,.24,0l.66,0,2.46.05c2.07,0,4.93,0,8.09,0s6-.19,8.1-.3l2.45-.16.66-.05.23,0h-.23l-.67,0-2.45.1c-2.07.09-4.93.19-8.09.25s-6,.08-8.09.08h-3.36Z"/><path class="cls-5" d="M148.41,431.5a5.74,5.74,0,0,1,.44-1.18,5.36,5.36,0,0,1,.81-.95,2.2,2.2,0,0,0-1.25,2.13Z"/><path class="cls-5" d="M144.39,429.57s.23-.21.42-.53.31-.59.27-.61-.22.21-.41.53S144.35,429.54,144.39,429.57Z"/><path class="cls-5" d="M143.29,429s.24-.11.47-.32.38-.42.35-.45-.24.11-.47.33S143.26,429,143.29,429Z"/><path class="cls-5" d="M142.57,427.75c0,.05.32.08.71.08s.7,0,.7-.09a1.64,1.64,0,0,0-.71-.07A1.66,1.66,0,0,0,142.57,427.75Z"/><path class="cls-5" d="M142.31,426.86a1.39,1.39,0,0,0,.79.21,1.37,1.37,0,0,0,.81-.12,4.34,4.34,0,0,0-.8,0A5.32,5.32,0,0,0,142.31,426.86Z"/><path class="cls-5" d="M144.82,428.38a2.59,2.59,0,0,0,.87,0,5.74,5.74,0,0,0,.92-.22,3.31,3.31,0,0,0,.52-.23.44.44,0,0,0,.21-.28.34.34,0,0,0-.14-.34,1.58,1.58,0,0,0-1.95.51,1.39,1.39,0,0,0-.27.58c0,.15,0,.23,0,.23a2.33,2.33,0,0,1,.38-.74,1.54,1.54,0,0,1,.73-.5,1.32,1.32,0,0,1,1,.05c.14.1.09.26-.06.35a2.09,2.09,0,0,1-.48.22,5.86,5.86,0,0,1-.89.25C145.15,428.35,144.82,428.35,144.82,428.38Z"/><path class="cls-5" d="M145.05,428.42a.85.85,0,0,0,.09-.6,1.48,1.48,0,0,0-.25-.63.88.88,0,0,0-.73-.43.34.34,0,0,0-.26.41,1,1,0,0,0,.15.38,3.49,3.49,0,0,0,.42.52,1.34,1.34,0,0,0,.51.34s-.18-.15-.42-.42a2.8,2.8,0,0,1-.38-.52c-.12-.18-.21-.5,0-.55s.44.19.58.36a1.26,1.26,0,0,1,.25.56A2.8,2.8,0,0,1,145.05,428.42Z"/><path class="cls-5" d="M130.43,427.82s.39-.05,1,0a4.46,4.46,0,0,1,2.19.85,4.37,4.37,0,0,1,1.4,1.89c.22.58.25,1,.28,1a.8.8,0,0,0,0-.27,3.49,3.49,0,0,0-.16-.73,4.21,4.21,0,0,0-1.41-2,4.1,4.1,0,0,0-2.28-.83,3.33,3.33,0,0,0-.75,0A.76.76,0,0,0,130.43,427.82Z"/><path class="cls-5" d="M131.71,422.17a25.8,25.8,0,0,0-.06,2.78,23.45,23.45,0,0,0,.11,2.77,25.54,25.54,0,0,0,.06-2.77A23.54,23.54,0,0,0,131.71,422.17Z"/><path class="cls-5" d="M137,430.26a7.55,7.55,0,0,0,2,.15,7.64,7.64,0,0,0,2-.2s-.88,0-2,0S137,430.21,137,430.26Z"/><path class="cls-5" d="M134.34,430.31s.08.18.17.38.15.38.2.38.06-.22-.05-.45S134.37,430.28,134.34,430.31Z"/><path class="cls-5" d="M133.32,429.09s.06.17.2.31.29.22.32.19-.06-.17-.2-.31S133.35,429.06,133.32,429.09Z"/><path class="cls-5" d="M131.88,428.55c0,.05.19,0,.39.11s.35.17.38.14-.08-.22-.33-.3S131.87,428.51,131.88,428.55Z"/><path class="cls-5" d="M130.86,428.31s.07.11.18.15.22,0,.23,0-.06-.11-.17-.16S130.88,428.26,130.86,428.31Z"/><g class="cls-18"><polygon points="130.44 427.45 143.91 426.95 143.86 425.32 130.32 426.6 130.44 427.45"/></g><polygon class="cls-5" points="96.52 289.81 96.52 426.21 117.78 426.21 119.67 307.91 127.12 426.21 148.39 426.21 138.88 292.11 96.52 289.81"/><path class="cls-8" d="M121.47,290.83a10.63,10.63,0,0,1,.18,2.2c.06,1.35.11,3.23.15,5.3,0,1,0,2,0,2.92a5.09,5.09,0,0,1-.44,2.39,2.78,2.78,0,0,1-1.21,1.24,1.11,1.11,0,0,1-.64.17s.22-.08.56-.29a2.81,2.81,0,0,0,1-1.22,5.49,5.49,0,0,0,.33-2.29c0-.91,0-1.89-.06-2.92,0-2.07,0-3.94,0-5.3A12.53,12.53,0,0,1,121.47,290.83Z"/><path class="cls-8" d="M117.66,292.38s-.28.21-.29.65a.67.67,0,0,0,.3.61.8.8,0,0,0,.85-.05.56.56,0,0,0,0-1,1,1,0,0,0-.86-.18v-.14c.18.08.26.13.25.16s-.12,0-.31,0l-.17,0,.16-.11a1.12,1.12,0,0,1,1.16.09.92.92,0,0,1,.43.69.89.89,0,0,1-.46.8,1.22,1.22,0,0,1-1.32,0,.9.9,0,0,1-.36-.9.86.86,0,0,1,.34-.56C117.55,292.37,117.65,292.36,117.66,292.38Z"/><path class="cls-10" d="M132.74,265.78c-.56-.73-7.28.43-7.28.43l2.45-1.86c-1.25-2.21-5.56.47-6.93,1.76a2.49,2.49,0,0,0-.68,1.34l-27.1,5.71-15.13-1.54s-.3,2.61-1.06,7.53c-.72,4.66,6.94,9.22,11.68,8.55,4.33-.61,30.82-8.14,35.32-9.42h0l.66-.19v0c1.46-.5,5-1.75,5.31-2.39.47-.8.34-7.07.34-7.07l2.49-1.1A1.77,1.77,0,0,0,132.74,265.78Z"/></g></svg>