<svg id="svg2" xmlns="http://www.w3.org/2000/svg" viewBox="0 0 719.33 218.13"><defs><style>.cls-1,.cls-2{fill:#1e1e1e;}.cls-2{fill-rule:evenodd;}</style></defs><title>Girikon</title><g id="g68"><path id="path74" class="cls-1" d="M362,131.69c-5.2-5.73-10.27-9.87-15.6-12.67a33.53,33.53,0,0,0-15.2-4.13,32.5,32.5,0,0,0-14.27,3.33,40.47,40.47,0,0,0-12.53,9.47h.13a48.29,48.29,0,0,0-8.53,14.4,47.56,47.56,0,0,0-3.07,16.4,46.7,46.7,0,0,0,2.93,16.67,41.7,41.7,0,0,0,8.4,14.26,35.12,35.12,0,0,0,12.54,9.47,34.14,34.14,0,0,0,14.4,3.07,34.59,34.59,0,0,0,13.2-2.54,39.13,39.13,0,0,0,12-8.13V164.36H316.23v-12.8H369.3v45.06A60.22,60.22,0,0,1,351,210.49,45.31,45.31,0,0,1,331.3,215a48.93,48.93,0,0,1-19.47-4.26,53.79,53.79,0,0,1-17.2-12.27A57.23,57.23,0,0,1,283.83,180a62.68,62.68,0,0,1-3.73-21.34,60.54,60.54,0,0,1,3.73-21.06,57.62,57.62,0,0,1,11.34-18.67,51.25,51.25,0,0,1,17.06-12.53,46.61,46.61,0,0,1,19.07-4.27c6.4,0,13.07,1.87,20.13,5.47a75,75,0,0,1,20.27,16Z" transform="translate(-38.5 -67.29)"/><path id="path76" class="cls-1" d="M412.63,215.29a33,33,0,0,1-9.86-1.47,28.09,28.09,0,0,1-8-4.13,20.3,20.3,0,0,1-5.47-6.27,15.57,15.57,0,0,1-2-7.73V143.56H374V130.62H400.1v65.07q0,2.81,3.6,4.8a17.92,17.92,0,0,0,8.8,2l.13,12.8Zm-11.2-98.8a8.42,8.42,0,0,1-2.53,5.87,8.1,8.1,0,0,1-5.87,2.53,8.4,8.4,0,0,1-5.86-2.53,7.88,7.88,0,0,1-2.54-5.87,8.7,8.7,0,0,1,2.54-5.87,8.09,8.09,0,0,1,5.86-2.53,7.89,7.89,0,0,1,5.87,2.53A8.13,8.13,0,0,1,401.43,116.49Zm-8.4,1.33c.67,0,1.07,0,1.2-.13s.14-.53.14-1.2Z" transform="translate(-38.5 -67.29)"/><path id="path78" class="cls-1" d="M418.9,214.22V131.29h12.93v10.53a53.14,53.14,0,0,1,14.67-8,50.71,50.71,0,0,1,18.4-3.33v12.93a30.75,30.75,0,0,0-12.13,2.4,32.23,32.23,0,0,0-10,6.4,35.82,35.82,0,0,0-7.2,9.07,30.57,30.57,0,0,0-3.74,10.4v42.4l-12.93.13Z" transform="translate(-38.5 -67.29)"/><path id="path80" class="cls-1" d="M505.3,215.29a33.75,33.75,0,0,1-9.87-1.47,28.36,28.36,0,0,1-8-4.13,20.4,20.4,0,0,1-5.46-6.27,15.47,15.47,0,0,1-2-7.73V143.56H466.63V130.62h26.14v65.07q0,2.81,3.6,4.8a17.92,17.92,0,0,0,8.8,2l.13,12.8Zm-11.07-98.8a8.42,8.42,0,0,1-2.53,5.87,8.1,8.1,0,0,1-5.87,2.53,8.4,8.4,0,0,1-5.86-2.53,8.1,8.1,0,0,1-2.54-5.87,8.7,8.7,0,0,1,2.54-5.87,8.06,8.06,0,0,1,11.73,0A8.68,8.68,0,0,1,494.23,116.49Zm-8.53,1.33c.67,0,1.07,0,1.2-.13s.13-.53.13-1.2Z" transform="translate(-38.5 -67.29)"/><path id="path82" class="cls-1" d="M511.57,214.22V95.56H524.5v70.66h13.73a21.21,21.21,0,0,0,10.67-2.8,29,29,0,0,0,8.67-7.46,37.77,37.77,0,0,0,5.86-11.07,41.45,41.45,0,0,0,2.14-13.6H578.5c0,9.87-1.6,18.4-4.67,25.6a32.61,32.61,0,0,1-14.13,16.27,49.23,49.23,0,0,1,7.47,7.46,50.7,50.7,0,0,1,5.86,9.6,62.38,62.38,0,0,1,4,11.34,55.15,55.15,0,0,1,1.47,12.53H565.57a41.45,41.45,0,0,0-2.14-13.6,36.4,36.4,0,0,0-5.86-11.07A28.76,28.76,0,0,0,548.9,182a21.56,21.56,0,0,0-10.67-2.8H524.5v34.93Z" transform="translate(-38.5 -67.29)"/><path id="path84" class="cls-1" d="M662.9,172.76a42.57,42.57,0,0,1-3.2,16.53,40.37,40.37,0,0,1-21.33,22.27,38,38,0,0,1-16,3.33,36.74,36.74,0,0,1-15.74-3.33,41.68,41.68,0,0,1-12.8-8.94,40.71,40.71,0,0,1-8.53-13.33,43,43,0,0,1-3.2-16.53,42.58,42.58,0,0,1,3.2-16.54A40.31,40.31,0,0,1,606.63,134a37,37,0,0,1,15.74-3.34,37.8,37.8,0,0,1,16,3.34,41.65,41.65,0,0,1,12.8,8.93,40.82,40.82,0,0,1,8.53,13.33A43.05,43.05,0,0,1,662.9,172.76Zm-12.8,0a29.62,29.62,0,0,0-2.27-11.34,29.32,29.32,0,0,0-6-9.33,26.71,26.71,0,0,0-8.66-6.27,24.4,24.4,0,0,0-10.67-2.26,26.56,26.56,0,0,0-10.67,2.26,27.25,27.25,0,0,0-8.66,6.27,29.17,29.17,0,0,0-5.87,9.33,29.51,29.51,0,0,0-2.13,11.34,32.34,32.34,0,0,0,2.13,11.33,29.06,29.06,0,0,0,5.87,9.33,26.71,26.71,0,0,0,8.66,6.27,26.21,26.21,0,0,0,21.34,0,27.25,27.25,0,0,0,8.66-6.27,30.47,30.47,0,0,0,8.27-20.66Z" transform="translate(-38.5 -67.29)"/><path id="path86" class="cls-1" d="M668.1,214.22V131.29H681V142a43,43,0,0,1,12.54-8.4,39,39,0,0,1,30.93.26,41.68,41.68,0,0,1,12.8,8.94,40.71,40.71,0,0,1,8.53,13.33,42.85,42.85,0,0,1,3.2,16.53v41.47H736.1V172.62a29.57,29.57,0,0,0-2.27-11.33,29.21,29.21,0,0,0-6-9.33,26.71,26.71,0,0,0-8.66-6.27,24.41,24.41,0,0,0-10.67-2.27,19.2,19.2,0,0,0-9.73,2.54,34.71,34.71,0,0,0-8.27,6.53,38.68,38.68,0,0,0-6.13,9.07A33.06,33.06,0,0,0,681,171.82v42.4Z" transform="translate(-38.5 -67.29)"/><path id="path88" class="cls-1" d="M147.7,67.29A109.07,109.07,0,1,0,256.77,176.36,109,109,0,0,0,147.7,67.29ZM44.5,176.36A96.64,96.64,0,0,1,45.7,161l.13,2.4A110.54,110.54,0,0,0,75.57,199,115.17,115.17,0,0,0,86.5,244.49a115,115,0,0,1-36-33.2A103.83,103.83,0,0,1,44.5,176.36Zm30.27,73.06a101.6,101.6,0,0,1-20.94-30.26A119.06,119.06,0,0,0,88.23,248,113.14,113.14,0,0,0,102.1,269,102.26,102.26,0,0,1,74.77,249.42ZM147.57,264v15.73a101.67,101.67,0,0,1-40.4-8.27A116.38,116.38,0,0,1,91.83,250c3.2,1.6,6.54,3.2,9.87,4.53a6.21,6.21,0,0,1,.8-2,129.16,129.16,0,0,1-12.4-5.87,114.8,114.8,0,0,1-12.27-45.73,110.33,110.33,0,0,0,69.6,21.6v15.87c.8-.27,1.6-.67,2.4-.94V222.36a103.72,103.72,0,0,0,16.94-2.27,19.61,19.61,0,0,0-1.47-2,100.28,100.28,0,0,1-15.47,2V207.56a19.4,19.4,0,0,1-2.4-1.07v13.73A109,109,0,0,1,77.83,198c0-1.07-.13-2-.13-3.07a112.12,112.12,0,0,1,10.53-47.73c-.13-1.6-.26-3.2-.26-4.8A115.71,115.71,0,0,0,75.3,194.89v1.2a109.29,109.29,0,0,1-27.07-32.93c-.8-1.47-1.46-2.94-2.13-4.4a102.53,102.53,0,0,1,23.07-49.2,83.87,83.87,0,0,0,19.2,26.66A13.19,13.19,0,0,0,88.5,134a83.52,83.52,0,0,1-18-25.6.13.13,0,0,0-.13-.14c1.46-1.6,2.93-3.2,4.53-4.8a102.57,102.57,0,0,1,33.2-22.26,117.71,117.71,0,0,1,26.93,4c2-.27,4-.54,6-.67A111.67,111.67,0,0,0,113.43,79a101.64,101.64,0,0,1,33.87-5.86V84.49c.8,0,1.6.13,2.4.13V73.16A105.58,105.58,0,0,1,182.37,79,118.51,118.51,0,0,0,154,85l5.2.8a101.82,101.82,0,0,1,20.13-4,8.27,8.27,0,0,1,4.27-1.2h0a7.89,7.89,0,0,1,3.06.67,3,3,0,0,0,1.07-.13,100.65,100.65,0,0,1,33.07,22.26c1.06,1.07,2,2.14,3.06,3.2a83.14,83.14,0,0,1-17.6,26.27,12.36,12.36,0,0,1,.14,2.27A84.63,84.63,0,0,0,225,108.09a101.12,101.12,0,0,1,21.6,39.07,107.5,107.5,0,0,1-26,41.46,113.56,113.56,0,0,0-14.53-50c-.13,1.47-.27,2.8-.4,4.14a114.56,114.56,0,0,1,12.67,48,111.24,111.24,0,0,1-18.54,14c.4.66.94,1.2,1.34,1.86a123.73,123.73,0,0,0,17.33-12.8V195A113.41,113.41,0,0,1,206,247c-2.67,1.47-5.34,2.94-8,4.27A110.53,110.53,0,0,1,163.43,261a150.76,150.76,0,0,1-22.93,2.54l7.07.4Zm2.4,15.6V263.82a117,117,0,0,0,54.13-13.33,112,112,0,0,1-14.27,20.13A102.46,102.46,0,0,1,150,279.56Zm70.8-30.14A105.43,105.43,0,0,1,195,268.22,113.73,113.73,0,0,0,208,248.49a96.85,96.85,0,0,0,38.13-40.4A104.9,104.9,0,0,1,220.77,249.42ZM249.43,193c-6.53,22-20.93,39.74-39.73,51.74A114.83,114.83,0,0,0,220.9,195c0-1.2-.13-2.26-.13-3.46a110.29,110.29,0,0,0,26.93-40.8,101.4,101.4,0,0,1,3.2,25.6A113.84,113.84,0,0,1,249.57,193ZM147.3,128v26.53c.8-.4,1.6-.93,2.4-1.33V128.22a15.05,15.05,0,0,0-2.4-.26ZM109,148.62a9.57,9.57,0,0,0,.14,2,71.26,71.26,0,0,0,7.33,3.2,86.82,86.82,0,0,0,22.67,5.2l2.8-1.6a87.45,87.45,0,0,1-24.94-5.2,70.92,70.92,0,0,1-8-3.6Z" transform="translate(-38.5 -67.29)"/><path id="path90" class="cls-1" d="M109,148.62a9.57,9.57,0,0,0,.14,2q3.6,1.8,7.2,3.2a86.47,86.47,0,0,0,22.8,5.2l2.8-1.6a83.47,83.47,0,0,1-25.07-5.33,57.75,57.75,0,0,1-7.87-3.47Zm96.8-5.86A120.11,120.11,0,0,1,214,162.89a27.68,27.68,0,0,0,1.73-2.4,115.06,115.06,0,0,0-9.47-22,37.43,37.43,0,0,1-.4,4.27ZM147.3,128v26.53c.8-.4,1.6-.93,2.4-1.33V128.22A16.84,16.84,0,0,0,147.3,128ZM230.1,105A109.09,109.09,0,0,0,38.5,176.49,116.9,116.9,0,0,0,40.23,196c2.14,1.06,4.4,2,6.54,2.93a103.86,103.86,0,0,1-2.4-22.4,96.42,96.42,0,0,1,1.2-15.33l.13,2.4a110.72,110.72,0,0,0,29.73,35.6c.14,2.93.4,5.73.67,8.53l2.4.4c-.27-2.4-.53-4.67-.67-7.07A95.21,95.21,0,0,0,92,209.82l5.86.4a107.88,107.88,0,0,1-20-12.13c0-1.07-.13-2-.13-3.07a114.87,114.87,0,0,1,10.53-47.86c-.13-1.6-.26-3.2-.26-4.8A116.66,116.66,0,0,0,75.3,195v1.2A108.13,108.13,0,0,1,48,163.29c-.8-1.47-1.47-2.93-2.14-4.4a102.66,102.66,0,0,1,23.07-49.2,84.06,84.06,0,0,0,19.2,26.67,13.3,13.3,0,0,0,.13-2.27A86.66,86.66,0,0,1,70.1,108.36s0-.14-.13-.14c1.46-1.6,2.93-3.2,4.53-4.8a102.57,102.57,0,0,1,33.2-22.26,120.1,120.1,0,0,1,27.07,4c2-.27,4-.54,6-.67A111.67,111.67,0,0,0,113.17,79,101.58,101.58,0,0,1,147,73.16V84.49c.8,0,1.6.13,2.4.13V73.16A105.58,105.58,0,0,1,182.1,79a118.61,118.61,0,0,0-28.4,6l5.2.8a113.65,113.65,0,0,1,20.27-4.13,7.9,7.9,0,0,1,4.26-1.2h0a10.71,10.71,0,0,1,2.94.53,3,3,0,0,0,1.06-.13,100.32,100.32,0,0,1,33.07,22.27c1.07,1.06,2,2.13,3.07,3.2a84.74,84.74,0,0,1-17.47,26.13,13.3,13.3,0,0,1,.13,2.27,83.1,83.1,0,0,0,18.67-27.07c2.13,2.4,4,4.8,5.87,7.33v-.26A49.74,49.74,0,0,0,230.1,105Z" transform="translate(-38.5 -67.29)"/><path id="path92" class="cls-2" d="M105.83,129.42c12.67-20.4,40.27-6.66,55.74-9.86,13.06-2.67,21.06-11.74,23.6-20.27,1.6-5.07-1.47-12-1.87-10-1.73,7.73-9.87,7.07-16.27,6.13-11.86-1.6-23.06-4.66-36.53-.8-11.6,3.2-20.13,10.4-24.27,16-21.33,28.8-2.26,62.14.8,64.27,1.47-.93-14.13-24.67-1.2-45.47Z" transform="translate(-38.5 -67.29)"/><path id="path94" class="cls-2" d="M191.43,111.56s10.27,19.2-32.13,43.73c-30.53,17.73-56.67,30.93-56.67,30.93S167.83,198,174.5,221c5.87,20.4-51.2,31.74-66.13,34.8,0,0,70.66,8.4,86.8-19.73,13.33-23.33-5.87-42.53-52.4-53.2-.14.13,82.93-16.4,48.66-71.33Z" transform="translate(-38.5 -67.29)"/><path id="path96" class="cls-1" d="M286.63,275.56h3.87v-40.4h-3.87Z" transform="translate(-38.5 -67.29)"/><path id="path98" class="cls-1" d="M300.63,235.16h21.6v4H313.3v36.4h-3.73v-36.4h-8.94Z" transform="translate(-38.5 -67.29)"/><path id="path100" class="cls-1" d="M357.7,235.16h3.87l10.53,40.4h-4l-3.2-12.14H354.23L351,275.56h-4Zm-2.4,24.26H364l-4.27-16.8Z" transform="translate(-38.5 -67.29)"/><path id="path102" class="cls-1" d="M381.83,246.76h2.4l1.47,2.66a6.76,6.76,0,0,1,5.33-2.66h5.74v4H390.9c-2.93,0-5.33,2.93-5.33,6.4v18.53H381.7V246.76Z" transform="translate(-38.5 -67.29)"/><path id="path104" class="cls-1" d="M413.83,275.56c-4.13,0-7.46-4-7.46-8.94V254.49c0-4.27,2.93-7.73,6.53-7.73h5.33c3.6,0,6.54,3.46,6.54,7.73v12.13c0,4.94-3.34,8.94-7.47,8.94Zm3.47-4c2,0,3.6-2,3.6-4.27v-13.2c0-1.87-1.2-3.2-2.67-3.2H412.9a3,3,0,0,0-2.67,3.2v13.2c0,2.4,1.6,4.27,3.6,4.27Z" transform="translate(-38.5 -67.29)"/><path id="path106" class="cls-1" d="M449.83,246.76h3.87v28.93h-2.4L449.83,273a6.79,6.79,0,0,1-5.46,2.67h-2c-3.6,0-6.54-3.47-6.54-7.73V246.89h3.87v21.47c0,1.86,1.2,3.2,2.67,3.2h2c2.93,0,5.46-2.94,5.46-6.54Z" transform="translate(-38.5 -67.29)"/><path id="path108" class="cls-1" d="M469.3,275.56h-3.87V246.62h2.4l1.47,2.67a6.84,6.84,0,0,1,5.47-2.67h2c3.6,0,6.53,3.47,6.53,7.74v21.06h-3.87v-21.6c0-1.86-1.2-3.2-2.66-3.2h-2c-2.94,0-5.47,2.94-5.47,6.54v18.4Z" transform="translate(-38.5 -67.29)"/><path id="path110" class="cls-1" d="M512.23,275.56H503.7c-5.2,0-9.33-4.94-9.33-11.07v-9.87c0-4.26,2.93-7.73,6.53-7.73h7.47V235.42h3.86Zm-14-10.54c0,3.6,2.54,6.54,5.47,6.54h4.67v-20.8H500.9a3,3,0,0,0-2.67,3.2Z" transform="translate(-38.5 -67.29)"/><path id="path112" class="cls-1" d="M549.83,271.56v4H546.9c-3.87,0-6.8-3.47-6.8-7.74V235.16H544v11.46h5.73v4H544v17.07c0,2,1.33,3.73,2.93,3.73h2.93Z" transform="translate(-38.5 -67.29)"/><path id="path114" class="cls-1" d="M571.43,246.76c3.6,0,6.54,3.46,6.54,7.73v21.07H574.1V254c0-1.87-1.2-3.2-2.67-3.2H564v24.8H560.1v-40.4H564v11.46l7.46.14Z" transform="translate(-38.5 -67.29)"/><path id="path116" class="cls-1" d="M606,275.56h-7.6c-5.2,0-9.2-4.94-9.2-11.07v-9.87c0-4.26,2.93-7.73,6.8-7.73h4.4c3.73,0,6.8,3.47,6.8,7.73,0,3.6-2.4,6.94-5.2,7.74l-8.67,2.53v.27c0,3.6,2.4,6.53,5.33,6.53h7.6ZM592.9,260.49l7.87-2.27a3.49,3.49,0,0,0,2.26-3.6c0-2-1.33-3.73-2.93-3.73h-4.4c-1.6,0-2.93,1.73-2.93,3.73l.13,5.87Z" transform="translate(-38.5 -67.29)"/><path id="path118" class="cls-1" d="M644.63,249.16h10.54v26.4H645.7c-6.8,0-12.27-6.54-12.27-14.67V245.82c0-6,4-10.66,8.94-10.66H654.1v4H642.37c-2.8,0-5.07,2.8-5.07,6.13v16.13c0,5.47,3.87,10,8.4,10h5.6V253.16h-6.8l.13-4Z" transform="translate(-38.5 -67.29)"/><path id="path120" class="cls-1" d="M666.9,275.56h3.87v-40.4H666.9Z" transform="translate(-38.5 -67.29)"/><path id="path122" class="cls-1" d="M689.3,275.56c-4.13,0-7.47-4-7.47-8.94V254.49c0-4.27,2.94-7.73,6.54-7.73h5.33c3.6,0,6.53,3.46,6.53,7.73v12.13c0,4.94-3.33,8.94-7.46,8.94Zm3.47-4c2,0,3.6-2,3.6-4.27v-13.2c0-1.87-1.2-3.2-2.67-3.2h-5.33a3,3,0,0,0-2.67,3.2v13.2c0,2.4,1.6,4.27,3.6,4.27Z" transform="translate(-38.5 -67.29)"/><path id="path124" class="cls-1" d="M711.3,235.16h3.87v11.46h7.46c3.6,0,6.54,3.47,6.54,7.74v10c0,6.13-4.14,11.06-9.34,11.06H711.3Zm14,18.8c0-1.87-1.2-3.2-2.67-3.2h-7.46v20.8h4.66c2.94,0,5.47-2.94,5.47-6.54Z" transform="translate(-38.5 -67.29)"/><path id="path126" class="cls-1" d="M756.63,275.56H749c-5.2,0-9.2-4.94-9.2-11.07v-9.87c0-4.26,2.94-7.73,6.8-7.73H751c3.74,0,6.8,3.47,6.8,7.73,0,3.6-2.4,6.94-5.2,7.74L744,264.89v.27c0,3.6,2.4,6.53,5.33,6.53h7.6v3.87ZM743.7,260.49l7.87-2.27a3.49,3.49,0,0,0,2.26-3.6c0-2-1.33-3.73-2.93-3.73h-4.4c-1.6,0-2.93,1.73-2.93,3.73l.13,5.87Z" transform="translate(-38.5 -67.29)"/></g></svg>