<svg id="Layer_1" data-name="Layer 1" xmlns="http://www.w3.org/2000/svg" viewBox="0 0 168 168"><defs><style>.cls-1{fill:#2d4356;}.cls-2{fill:#7784ff;}.cls-3,.cls-4{fill:none;stroke-linecap:round;stroke-linejoin:round;}.cls-3{stroke:#7784ff;stroke-width:3px;}.cls-4{stroke:#2d4356;stroke-width:4px;}.cls-5{fill:#fff;}</style></defs><title>Icon</title><g id="Home_Science" data-name="Home Science"><circle class="cls-1" cx="3.5" cy="147.25" r="2"/><path class="cls-2" d="M118.7,154.25h-8.3a2,2,0,0,0-1.8,2.2,1.93,1.93,0,0,0,1.8,1.8h8.3a2,2,0,0,0,1.8-2.2A2.12,2.12,0,0,0,118.7,154.25Zm-60,0H50.4a2,2,0,0,0-1.8,2.2,1.93,1.93,0,0,0,1.8,1.8h8.3a2,2,0,0,0,1.8-2.2A2.12,2.12,0,0,0,58.7,154.25Zm45.8,0h-40a2,2,0,0,0,0,4H80.4v2H72.5a2,2,0,0,0,0,4h25a2,2,0,0,0,0-4H88.6v-2h15.9a2,2,0,0,0,0-4Z"/><path class="cls-1" d="M11.5,145.25h-3a2,2,0,0,0,0,4h3a2,2,0,0,0,0-4Zm149,0h-3a2,2,0,0,0,0,4h3a2,2,0,0,0,0-4Z"/><circle class="cls-1" cx="166.5" cy="147.25" r="2"/><path class="cls-1" d="M151.2,145.25H17.8a2.1,2.1,0,0,0-2.3,1.7,2,2,0,0,0,1.7,2.3H151.1a2.1,2.1,0,0,0,2.3-1.7,2,2,0,0,0-1.7-2.3Z"/><circle class="cls-3" cx="134.7" cy="39.81" r="7.88"/><circle class="cls-3" cx="34.26" cy="39.81" r="7.88"/><circle class="cls-3" cx="84.48" cy="51.02" r="4.92"/><circle class="cls-4" cx="120.27" cy="55.02" r="5.13"/><circle class="cls-4" cx="49.19" cy="55.02" r="5.13"/><path class="cls-1" d="M12.58,36.65a1.8,1.8,0,1,0-1.8-1.8A1.79,1.79,0,0,0,12.58,36.65Z"/><path class="cls-5" d="M12.58,33.85a.9.9,0,1,1-.9.9A1,1,0,0,1,12.58,33.85Z"/><path class="cls-1" d="M164.29,27.35a1.8,1.8,0,1,0-1.8-1.8A1.79,1.79,0,0,0,164.29,27.35Z"/><path class="cls-5" d="M164.29,24.55a.9.9,0,1,1-.9.9A1,1,0,0,1,164.29,24.55Z"/><path class="cls-1" d="M122.07,23.91a1.8,1.8,0,1,0-1.8-1.8A1.79,1.79,0,0,0,122.07,23.91Z"/><path class="cls-5" d="M122.07,21.11a.9.9,0,1,1-.9.9A1,1,0,0,1,122.07,21.11Z"/><path class="cls-1" d="M6.5,8.15a1.8,1.8,0,1,0-1.8-1.8A1.79,1.79,0,0,0,6.5,8.15Z"/><path class="cls-5" d="M6.5,5.35a.9.9,0,1,1-.9.9A1,1,0,0,1,6.5,5.35Z"/><path class="cls-1" d="M46.63,23.75a2.95,2.95,0,1,0-2.94-2.94A2.93,2.93,0,0,0,46.63,23.75Z"/><path class="cls-5" d="M46.63,19.17a1.47,1.47,0,1,1-1.47,1.47A1.58,1.58,0,0,1,46.63,19.17Z"/><polygon class="cls-2" points="80.75 5.6 79.65 6.9 80.35 7.3 81.05 5.7 81.05 5.7 81.75 7.3 82.45 6.9 81.35 5.6 81.35 5.5 83.05 5.7 83.05 5 81.35 5.2 81.35 5.2 82.45 3.8 81.75 3.4 81.05 5 81.05 5 80.35 3.4 79.65 3.8 80.75 5.2 80.75 5.2 79.05 5 79.05 5.7 80.75 5.5 80.75 5.6"/><polygon class="cls-2" points="149.3 6.6 148.2 7.9 148.9 8.3 149.6 6.7 149.6 6.7 150.3 8.3 151 7.9 149.9 6.6 149.9 6.5 151.6 6.7 151.6 6 149.9 6.2 149.9 6.2 151 4.8 150.3 4.4 149.6 6 149.6 6 148.9 4.4 148.2 4.8 149.3 6.2 149.3 6.2 147.6 6 147.6 6.7 149.3 6.5 149.3 6.6"/><polygon class="cls-2" points="11.23 69.18 9.73 70.98 10.63 71.58 11.63 69.38 11.63 69.38 12.63 71.58 13.53 70.98 12.13 69.18 12.13 69.08 14.43 69.38 14.43 68.38 12.13 68.68 12.13 68.68 13.53 66.68 12.63 66.18 11.73 68.38 11.63 68.38 10.73 66.18 9.73 66.78 11.23 68.58 11.23 68.68 8.93 68.38 8.93 69.38 11.23 69.08 11.23 69.18"/><polygon class="cls-2" points="151.15 58.8 149.65 60.6 150.55 61.2 151.55 59 151.55 59 152.55 61.2 153.45 60.6 152.05 58.8 152.05 58.7 154.35 59 154.35 58 152.05 58.3 152.05 58.3 153.45 56.3 152.55 55.8 151.65 58 151.55 58 150.65 55.8 149.65 56.4 151.15 58.2 151.15 58.3 148.85 58 148.85 59 151.15 58.7 151.15 58.8"/><ellipse class="cls-4" cx="85.05" cy="51.84" rx="11.39" ry="31.35" transform="translate(-11.75 75.32) rotate(-45)"/><ellipse class="cls-4" cx="84" cy="51.02" rx="31.35" ry="11.39" transform="translate(-11.47 74.34) rotate(-45)"/><rect class="cls-4" x="75.7" y="81.6" width="16.61" height="8.02"/><polyline class="cls-4" points="77.93 89.15 77.93 107.45 49.78 147.25 119.64 147.25 89.96 106.7 89.96 89.15"/><path class="cls-3" d="M72.74,128.21l-8.59,11.92h40.39L94.16,125.37a19.45,19.45,0,0,0-5.76.73c-4.64,1.31-6.18,3.67-9.72,3.85A10,10,0,0,1,72.74,128.21Z"/><path class="cls-4" d="M53.82,127.7a11.76,11.76,0,0,0-8.1.8,12.22,12.22,0,0,0-6.19,8.35,12.17,12.17,0,0,0-9.77.37c-5.46,2.79-6.25,8.74-6.31,9.22"/><path class="cls-4" d="M115.45,127.7a11.79,11.79,0,0,1,8.11.8,12.23,12.23,0,0,1,6.18,8.35,12.17,12.17,0,0,1,9.77.37c5.46,2.79,6.25,8.74,6.31,9.22"/></g></svg>