<?xml version="1.0" encoding="utf-8"?>
<!-- Generator: Adobe Illustrator 25.2.0, SVG Export Plug-In . SVG Version: 6.00 Build 0)  -->
<svg version="1.1" id="Layer_1" xmlns="http://www.w3.org/2000/svg" xmlns:xlink="http://www.w3.org/1999/xlink" x="0px" y="0px"
	 viewBox="0 0 168.4 168.4" style="enable-background:new 0 0 168.4 168.4;" xml:space="preserve">
<style type="text/css">
	.st0{fill:none;stroke:#2D4356;stroke-linecap:round;stroke-linejoin:round;stroke-miterlimit:10;}
	.st1{fill:#2D4356;}
	.st2{fill:#7784ff;}
	.st3{fill:none;stroke:#2D4356;stroke-width:4;stroke-linecap:round;stroke-linejoin:round;stroke-miterlimit:10;}
	.st4{fill:none;stroke:#7784ff;stroke-width:3;stroke-linecap:round;stroke-linejoin:round;stroke-miterlimit:10;}
	.st5{fill:none;stroke:#7784ff;stroke-width:4;stroke-linecap:round;stroke-linejoin:round;stroke-miterlimit:10;}
	.st6{fill:none;stroke:#7784ff;stroke-width:3;stroke-linecap:round;stroke-linejoin:round;}
	.st7{fill:#2D4457;}
	.st8{fill:#7784ff;}
	.st9{fill:#FFFFFF;}
	.st10{fill:none;stroke:#2D4356;stroke-width:3;stroke-linecap:round;stroke-linejoin:round;stroke-miterlimit:10;}
	.st11{fill:#FFFFFF;stroke:#2D4356;stroke-width:4;stroke-linecap:round;stroke-linejoin:round;stroke-miterlimit:10;}
	.st12{fill:none;stroke:#2D4356;stroke-width:2;stroke-miterlimit:10;}
	.st13{fill:none;stroke:#2D4356;stroke-width:2;stroke-linecap:round;stroke-linejoin:round;stroke-miterlimit:10;}
	.st14{fill:#2D4356;stroke:#FFFFFF;stroke-miterlimit:10;}
	.st15{fill:#7784ff;stroke:#FFFFFF;stroke-miterlimit:10;}
	.st16{fill:none;stroke:#2D4356;stroke-width:0.5;stroke-linecap:round;stroke-linejoin:round;stroke-miterlimit:10;}
	.st17{fill:none;stroke:#2D4356;stroke-width:0.75;stroke-linecap:round;stroke-linejoin:round;stroke-miterlimit:10;}
	.st18{fill:#888888;stroke:#2D4356;stroke-width:0.75;stroke-linecap:round;stroke-linejoin:round;stroke-miterlimit:10;}
	.st19{fill:#EEEEEE;stroke:#2D4356;stroke-width:0.75;stroke-linecap:round;stroke-linejoin:round;stroke-miterlimit:10;}
	.st20{fill:#383838;}
</style>
<g id="Politically_Incorrect_3_">
	<g>
		<circle class="st1" cx="2.7" cy="146.6" r="2"/>
		<g>
			<path class="st2" d="M117.9,153.6h-8.3c-1.1,0.1-1.9,1.1-1.8,2.2c0.1,1,0.9,1.8,1.8,1.8h8.3c1.1-0.1,1.9-1.1,1.8-2.2
				C119.6,154.5,118.8,153.7,117.9,153.6z M57.9,153.6h-8.3c-1.1,0.1-1.9,1.1-1.8,2.2c0.1,1,0.9,1.8,1.8,1.8h8.3
				c1.1-0.1,1.9-1.1,1.8-2.2C59.6,154.5,58.8,153.7,57.9,153.6z M103.7,153.6h-40c-1.1,0-2,0.9-2,2s0.9,2,2,2h15.9v2h-7.9
				c-1.1,0-2,0.9-2,2s0.9,2,2,2h25c1.1,0,2-0.9,2-2s-0.9-2-2-2h-8.9v-2h15.9c1.1,0,2-0.9,2-2S104.8,153.6,103.7,153.6z"/>
			<g>
				<path class="st1" d="M10.7,144.6h-3c-1.1,0-2,0.9-2,2s0.9,2,2,2h3c1.1,0,2-0.9,2-2S11.8,144.6,10.7,144.6z M159.7,144.6h-3
					c-1.1,0-2,0.9-2,2s0.9,2,2,2h3c1.1,0,2-0.9,2-2S160.8,144.6,159.7,144.6z"/>
				<circle class="st1" cx="165.7" cy="146.6" r="2"/>
				<path class="st1" d="M150.4,144.6h-4.7l0,0h-25l0,0h-8l0,0h-25l0,0h-8l0,0h-25l0,0h-8l0,0h-25l0,0H17c-1.1-0.1-2.1,0.6-2.3,1.7
					s0.6,2.1,1.7,2.3c0.2,0,0.3,0,0.5,0h133.4c1.1,0.1,2.1-0.6,2.3-1.7s-0.6-2.1-1.7-2.3C150.8,144.6,150.6,144.6,150.4,144.6z"/>
			</g>
		</g>
	</g>
	<g>
		<path class="st1" d="M156.4,47.2c1,0,1.8-0.8,1.8-1.8s-0.8-1.8-1.8-1.8s-1.8,0.8-1.8,1.8S155.4,47.2,156.4,47.2z"/>
		<path class="st9" d="M156.4,44.4c0.5,0,0.9,0.4,0.9,0.9s-0.4,0.9-0.9,0.9s-0.9-0.4-0.9-0.9C155.5,44.9,155.9,44.4,156.4,44.4z"/>
	</g>
	<g>
		<path class="st1" d="M157.3,12.7c1,0,1.8-0.8,1.8-1.8s-0.8-1.8-1.8-1.8s-1.8,0.8-1.8,1.8S156.3,12.7,157.3,12.7z"/>
		<path class="st9" d="M157.3,9.9c0.5,0,0.9,0.4,0.9,0.9s-0.4,0.9-0.9,0.9s-0.9-0.4-0.9-0.9C156.4,10.4,156.8,9.9,157.3,9.9z"/>
	</g>
	<g>
		<path class="st1" d="M62.7,8.4c1,0,1.8-0.8,1.8-1.8s-0.8-1.8-1.8-1.8s-1.8,0.8-1.8,1.8S61.7,8.4,62.7,8.4z"/>
		<path class="st9" d="M62.7,5.6c0.5,0,0.9,0.4,0.9,0.9s-0.4,0.9-0.9,0.9S61.8,7,61.8,6.5C61.8,6.1,62.2,5.6,62.7,5.6z"/>
	</g>
	<g>
		<path class="st1" d="M47.2,49.4c1.4,0,2.6-1.2,2.6-2.6s-1.2-2.6-2.6-2.6s-2.6,1.2-2.6,2.6S45.8,49.4,47.2,49.4z"/>
		<path class="st9" d="M47.2,45.4c0.7,0,1.3,0.6,1.3,1.3c0,0.7-0.6,1.3-1.3,1.3c-0.7,0-1.3-0.6-1.3-1.3
			C45.9,46.1,46.5,45.4,47.2,45.4z"/>
	</g>
	<g>
		<path class="st1" d="M24.3,34.7c0.8,0,1.4-0.6,1.4-1.4c0-0.8-0.6-1.4-1.4-1.4s-1.4,0.6-1.4,1.4C22.9,34,23.5,34.7,24.3,34.7z"/>
		<path class="st9" d="M24.3,32.4c0.4,0,0.7,0.3,0.7,0.7c0,0.4-0.3,0.7-0.7,0.7c-0.4,0-0.7-0.3-0.7-0.7
			C23.6,32.8,23.9,32.4,24.3,32.4z"/>
	</g>
	<polygon class="st2" points="8,61.2 6.5,63 7.4,63.6 8.4,61.4 8.4,61.4 9.4,63.6 10.3,63 8.9,61.2 8.9,61.1 11.2,61.4 11.2,60.4 
		8.9,60.7 8.9,60.7 10.3,58.7 9.4,58.2 8.5,60.4 8.4,60.4 7.5,58.2 6.5,58.8 8,60.6 8,60.7 5.7,60.4 5.7,61.4 8,61.1 	"/>
	<polygon class="st2" points="11.7,10.3 10.7,11.6 11.3,12 12,10.5 12,10.5 12.7,12 13.3,11.6 12.3,10.3 12.3,10.3 13.9,10.5 
		13.9,9.8 12.3,10 12.3,10 13.3,8.7 12.7,8.3 12.1,9.8 12,9.8 11.4,8.3 10.7,8.7 11.7,9.9 11.7,10 10.2,9.8 10.2,10.5 11.7,10.3 	
		"/>
	<polygon class="st2" points="100.4,12.3 98.8,14.2 99.8,14.9 100.8,12.5 100.8,12.5 101.9,14.9 102.9,14.2 101.4,12.3 101.4,12.2 
		103.9,12.5 103.9,11.4 101.4,11.7 101.4,11.7 102.9,9.6 101.9,9 101,11.4 100.8,11.4 99.9,9 98.8,9.7 100.4,11.6 100.4,11.7 
		97.9,11.4 97.9,12.5 100.4,12.2 	"/>
	<polygon class="st2" points="133.3,31 132.1,32.4 132.8,32.8 133.6,31.2 133.6,31.2 134.4,32.8 135.1,32.4 134,31 134,30.9 
		135.8,31.2 135.8,30.4 134,30.6 134,30.6 135.1,29.1 134.4,28.7 133.7,30.4 133.6,30.4 132.9,28.7 132.1,29.1 133.3,30.5 
		133.3,30.6 131.5,30.4 131.5,31.2 133.3,30.9 	"/>
</g>
<g>
	<path class="st3" d="M118.9,90.2v11h-65v-11C75.6,90.2,97.2,90.2,118.9,90.2z"/>
	<circle class="st4" cx="78.1" cy="57.4" r="10"/>
	<path class="st3" d="M63.1,101.2c1.9,14.9,3.8,29.8,5.6,44.7"/>
	<line class="st3" x1="110.4" y1="101.2" x2="104.7" y2="146.2"/>
	<line class="st10" x1="88.2" y1="82.4" x2="88.2" y2="89.2"/>
	<g>
		<path class="st1" d="M98,72.6c0,4,0,10,0,17.6h-2.9c0.2-8.9,0.1-15.3-0.1-17.7c-0.1-0.7-0.2-2.1-1.2-3.3c-1.1-1.4-2.7-1.8-2.9-1.9
			C90.1,67,89.4,67,88.9,67c0.9-1.1,1.8-2.2,2.7-3.3c1.3,0.4,3.5,1.2,4.9,3.2C98.1,69.1,98,71.4,98,72.6z"/>
	</g>
	<polygon class="st2" points="101.5,31 100.4,32.4 101,32.8 101.8,31.2 101.8,31.2 102.6,32.8 103.3,32.4 102.2,31 102.2,30.9 
		104,31.2 104,30.4 102.2,30.6 102.2,30.6 103.3,29.1 102.6,28.7 101.9,30.4 101.8,30.4 101.1,28.7 100.4,29.1 101.5,30.5 
		101.5,30.6 99.7,30.4 99.7,31.2 101.5,30.9 	"/>
	<line class="st10" x1="68.1" y1="82.4" x2="68.1" y2="89.2"/>
	<g>
		<path class="st1" d="M67.5,67c-0.5,0-1.2-0.1-2.1,0.2c-0.3,0.1-1.8,0.5-2.9,1.9c-1,1.2-1.1,2.7-1.2,3.3c-0.2,2.4-0.2,8.8-0.1,17.7
			h-2.9c0-7.6,0-13.6,0-17.6c0-1.1,0-3.5,1.5-5.6c1.4-2,3.6-2.8,4.9-3.2C65.7,64.9,66.6,65.9,67.5,67z"/>
	</g>
</g>
<path class="st10" d="M102.8,74.4c2.7,2.7,5.5,5.5,8.2,8.2c0,2.5,0,5,0,7.4"/>
</svg>
