<svg id="Layer_1" data-name="Layer 1" xmlns="http://www.w3.org/2000/svg" viewBox="0 0 168 168"><defs><style>.cls-1{fill:#2d4356;}.cls-2{fill:#7784ff;}.cls-3{fill:#fff;}.cls-4,.cls-5,.cls-6,.cls-7{fill:none;}.cls-4,.cls-5,.cls-7{stroke:#2d4356;}.cls-4,.cls-6,.cls-7{stroke-linecap:round;stroke-linejoin:round;}.cls-4,.cls-6{stroke-width:3px;}.cls-5{stroke-miterlimit:10;}.cls-5,.cls-7{stroke-width:2px;}.cls-6{stroke:#7784ff;}</style></defs><title>Icon</title><g id="Game"><circle class="cls-1" cx="2.68" cy="145.96" r="2"/><path class="cls-2" d="M117.88,153h-8.3a2,2,0,0,0-1.8,2.2,1.93,1.93,0,0,0,1.8,1.8h8.3a2,2,0,0,0,1.8-2.2A2.12,2.12,0,0,0,117.88,153Zm-60,0h-8.3a2,2,0,0,0-1.8,2.2,1.93,1.93,0,0,0,1.8,1.8h8.3a2,2,0,0,0,1.8-2.2A2.12,2.12,0,0,0,57.88,153Zm45.8,0h-40a2,2,0,0,0,0,4h15.9v2h-7.9a2,2,0,0,0,0,4h25a2,2,0,0,0,0-4h-8.9v-2h15.9a2,2,0,0,0,0-4Z"/><path class="cls-1" d="M10.68,144h-3a2,2,0,0,0,0,4h3a2,2,0,1,0,0-4Zm149,0h-3a2,2,0,0,0,0,4h3a2,2,0,0,0,0-4Z"/><circle class="cls-1" cx="165.68" cy="145.96" r="2"/><path class="cls-1" d="M150.38,144H17a2.1,2.1,0,0,0-2.3,1.7,2,2,0,0,0,1.7,2.3h133.9a2.1,2.1,0,0,0,2.3-1.7,2,2,0,0,0-1.7-2.3Z"/><polygon class="cls-2" points="10.96 72.13 9.8 73.52 10.49 73.98 11.27 72.28 11.27 72.28 12.04 73.98 12.73 73.52 11.65 72.13 11.65 72.05 13.43 72.28 13.43 71.51 11.65 71.75 11.65 71.75 12.73 70.2 12.04 69.82 11.34 71.51 11.27 71.51 10.57 69.82 9.8 70.28 10.96 71.67 10.96 71.75 9.18 71.51 9.18 72.28 10.96 72.05 10.96 72.13"/><polygon class="cls-2" points="62.95 66.09 62.13 67.08 62.62 67.41 63.17 66.2 63.17 66.2 63.72 67.41 64.21 67.08 63.44 66.09 63.44 66.04 64.7 66.2 64.7 65.66 63.44 65.82 63.44 65.82 64.21 64.73 63.72 64.45 63.22 65.66 63.17 65.66 62.68 64.45 62.13 64.78 62.95 65.77 62.95 65.82 61.69 65.66 61.69 66.2 62.95 66.04 62.95 66.09"/><polygon class="cls-2" points="95.79 62.04 94.53 63.55 95.28 64.05 96.12 62.2 96.12 62.2 96.96 64.05 97.72 63.55 96.54 62.04 96.54 61.95 98.47 62.2 98.47 61.37 96.54 61.62 96.54 61.62 97.72 59.94 96.96 59.52 96.2 61.37 96.12 61.37 95.37 59.52 94.53 60.02 95.79 61.53 95.79 61.62 93.86 61.37 93.86 62.2 95.79 61.95 95.79 62.04"/><polygon class="cls-2" points="154.31 28.15 153.05 29.66 153.8 30.16 154.64 28.32 154.64 28.32 155.48 30.16 156.24 29.66 155.06 28.15 155.06 28.07 156.99 28.32 156.99 27.48 155.06 27.73 155.06 27.73 156.24 26.05 155.48 25.63 154.72 27.48 154.64 27.48 153.89 25.63 153.05 26.14 154.31 27.65 154.31 27.73 152.38 27.48 152.38 28.32 154.31 28.07 154.31 28.15"/><polygon class="cls-2" points="20.21 26.1 19.44 27.03 19.9 27.34 20.42 26.2 20.42 26.2 20.94 27.34 21.41 27.03 20.68 26.1 20.68 26.05 21.87 26.2 21.87 25.68 20.68 25.84 20.68 25.84 21.41 24.8 20.94 24.54 20.47 25.68 20.42 25.68 19.95 24.54 19.44 24.85 20.21 25.79 20.21 25.84 19.02 25.68 19.02 26.2 20.21 26.05 20.21 26.1"/><path class="cls-1" d="M43.72,51.3a1.8,1.8,0,1,0-1.8-1.8A1.79,1.79,0,0,0,43.72,51.3Z"/><path class="cls-3" d="M43.72,48.5a.9.9,0,1,1-.9.9A1,1,0,0,1,43.72,48.5Z"/><path class="cls-1" d="M69.82,29.12a2.69,2.69,0,1,0-2.68-2.69A2.68,2.68,0,0,0,69.82,29.12Z"/><path class="cls-3" d="M69.82,24.94a1.34,1.34,0,1,1-1.34,1.34A1.44,1.44,0,0,1,69.82,24.94Z"/><path class="cls-1" d="M115.47,45.5a2.69,2.69,0,1,0-2.69-2.68A2.68,2.68,0,0,0,115.47,45.5Z"/><path class="cls-3" d="M115.47,41.32a1.35,1.35,0,1,1-1.34,1.35A1.44,1.44,0,0,1,115.47,41.32Z"/><path class="cls-1" d="M125,70.09a2,2,0,1,0-2-2A2,2,0,0,0,125,70.09Z"/><path class="cls-3" d="M125,67a1,1,0,1,1-1,1A1.08,1.08,0,0,1,125,67Z"/><path class="cls-1" d="M155,59.52a2,2,0,1,0-2-2A2,2,0,0,0,155,59.52Z"/><path class="cls-3" d="M155,56.39a1,1,0,0,1,0,2,1,1,0,0,1-1-1A1.08,1.08,0,0,1,155,56.39Z"/><rect class="cls-4" x="23.78" y="91.44" width="120.51" height="54.53" rx="19.02"/><circle class="cls-5" cx="119.62" cy="115.7" r="3.87"/><circle class="cls-5" cx="132.9" cy="115.7" r="3.87"/><circle class="cls-5" cx="132.9" cy="129.24" r="3.87"/><circle class="cls-5" cx="119.62" cy="129.24" r="3.87"/><rect class="cls-5" x="53.73" y="110.93" width="55.09" height="23.09" rx="5.25"/><line class="cls-6" x1="70.79" y1="139.87" x2="76.85" y2="139.87"/><line class="cls-6" x1="86.53" y1="139.87" x2="92.59" y2="139.87"/><rect class="cls-5" x="66.82" y="98.04" width="29.35" height="7.09" rx="3.55"/><line class="cls-5" x1="81.49" y1="98.04" x2="81.49" y2="105.13"/><path class="cls-7" d="M41.29,119.85h6v4.92H41.43v5.55H36.74v-5.49H30.9V120h5.52v-5.2h4.87Z"/><path class="cls-7" d="M42.79,90.41c0-3.37,3.49-6.1,7.8-6.1s7.8,2.73,7.8,6.1"/><path class="cls-7" d="M109,91.44c0-3.38,3.49-6.11,7.79-6.11s7.8,2.73,7.8,6.11"/><path class="cls-7" d="M75.75,91.44c0-2.76,2.85-5,6.37-5s6.37,2.24,6.37,5"/><path class="cls-7" d="M112.72,53.3a8.85,8.85,0,0,1,4,4.8,9.19,9.19,0,0,1-1,7.42,11.71,11.71,0,0,1-5.76,4.81c-3.11,1.37-4.65.82-12.05,1.22-5.77.31-8.69.49-10.47,1.66-4.16,2.72-5.37,8.13-5.59,9.16a16.69,16.69,0,0,0-.33,4.1"/></g></svg>