<?xml version="1.0" encoding="utf-8"?>
<!-- Generator: Adobe Illustrator 25.2.0, SVG Export Plug-In . SVG Version: 6.00 Build 0)  -->
<svg version="1.1" id="Layer_1" xmlns="http://www.w3.org/2000/svg" xmlns:xlink="http://www.w3.org/1999/xlink" x="0px" y="0px"
	 viewBox="0 0 168.4 168.4" style="enable-background:new 0 0 168.4 168.4;" xml:space="preserve">
<style type="text/css">
	.st0{fill:none;stroke:#2D4356;stroke-linecap:round;stroke-linejoin:round;stroke-miterlimit:10;}
	.st1{fill:#2D4356;}
	.st2{fill:#7784ff;}
	.st3{fill:none;stroke:#2D4356;stroke-width:4;stroke-linecap:round;stroke-linejoin:round;stroke-miterlimit:10;}
	.st4{fill:none;stroke:#7784ff;stroke-width:3;stroke-linecap:round;stroke-linejoin:round;stroke-miterlimit:10;}
	.st5{fill:none;stroke:#7784ff;stroke-width:4;stroke-linecap:round;stroke-linejoin:round;stroke-miterlimit:10;}
	.st6{fill:none;stroke:#7784ff;stroke-width:3;stroke-linecap:round;stroke-linejoin:round;}
	.st7{fill:#2D4457;}
	.st8{fill:#7784ff;}
	.st9{fill:#FFFFFF;}
	.st10{fill:none;stroke:#2D4356;stroke-width:3;stroke-linecap:round;stroke-linejoin:round;stroke-miterlimit:10;}
	.st11{fill:#FFFFFF;stroke:#2D4356;stroke-width:4;stroke-linecap:round;stroke-linejoin:round;stroke-miterlimit:10;}
	.st12{fill:none;stroke:#2D4356;stroke-width:2;stroke-miterlimit:10;}
	.st13{fill:none;stroke:#2D4356;stroke-width:2;stroke-linecap:round;stroke-linejoin:round;stroke-miterlimit:10;}
	.st14{fill:#2D4356;stroke:#FFFFFF;stroke-miterlimit:10;}
	.st15{fill:#7784ff;stroke:#FFFFFF;stroke-miterlimit:10;}
	.st16{fill:none;stroke:#2D4356;stroke-width:0.5;stroke-linecap:round;stroke-linejoin:round;stroke-miterlimit:10;}
	.st17{fill:none;stroke:#2D4356;stroke-width:0.75;stroke-linecap:round;stroke-linejoin:round;stroke-miterlimit:10;}
	.st18{fill:#888888;stroke:#2D4356;stroke-width:0.75;stroke-linecap:round;stroke-linejoin:round;stroke-miterlimit:10;}
	.st19{fill:#EEEEEE;stroke:#2D4356;stroke-width:0.75;stroke-linecap:round;stroke-linejoin:round;stroke-miterlimit:10;}
	.st20{fill:#383838;}
</style>
<g id="Politically_Incorrect_4_">
	<g>
		<circle class="st1" cx="2.7" cy="146.6" r="2"/>
		<g>
			<path class="st2" d="M117.9,153.6h-8.3c-1.1,0.1-1.9,1.1-1.8,2.2c0.1,1,0.9,1.8,1.8,1.8h8.3c1.1-0.1,1.9-1.1,1.8-2.2
				C119.6,154.5,118.8,153.7,117.9,153.6z M57.9,153.6h-8.3c-1.1,0.1-1.9,1.1-1.8,2.2c0.1,1,0.9,1.8,1.8,1.8h8.3
				c1.1-0.1,1.9-1.1,1.8-2.2C59.6,154.5,58.8,153.7,57.9,153.6z M103.7,153.6h-40c-1.1,0-2,0.9-2,2s0.9,2,2,2h15.9v2h-7.9
				c-1.1,0-2,0.9-2,2s0.9,2,2,2h25c1.1,0,2-0.9,2-2s-0.9-2-2-2h-8.9v-2h15.9c1.1,0,2-0.9,2-2S104.8,153.6,103.7,153.6z"/>
			<g>
				<path class="st1" d="M10.7,144.6h-3c-1.1,0-2,0.9-2,2s0.9,2,2,2h3c1.1,0,2-0.9,2-2S11.8,144.6,10.7,144.6z M159.7,144.6h-3
					c-1.1,0-2,0.9-2,2s0.9,2,2,2h3c1.1,0,2-0.9,2-2S160.8,144.6,159.7,144.6z"/>
				<circle class="st1" cx="165.7" cy="146.6" r="2"/>
				<path class="st1" d="M150.4,144.6h-4.7l0,0h-25l0,0h-8l0,0h-25l0,0h-8l0,0h-25l0,0h-8l0,0h-25l0,0H17c-1.1-0.1-2.1,0.6-2.3,1.7
					s0.6,2.1,1.7,2.3c0.2,0,0.3,0,0.5,0h133.4c1.1,0.1,2.1-0.6,2.3-1.7s-0.6-2.1-1.7-2.3C150.8,144.6,150.6,144.6,150.4,144.6z"/>
			</g>
		</g>
	</g>
	<g>
		<path class="st1" d="M156.4,47.2c1,0,1.8-0.8,1.8-1.8s-0.8-1.8-1.8-1.8s-1.8,0.8-1.8,1.8S155.4,47.2,156.4,47.2z"/>
		<path class="st9" d="M156.4,44.4c0.5,0,0.9,0.4,0.9,0.9s-0.4,0.9-0.9,0.9s-0.9-0.4-0.9-0.9C155.5,44.9,155.9,44.4,156.4,44.4z"/>
	</g>
	<g>
		<path class="st1" d="M157.3,12.7c1,0,1.8-0.8,1.8-1.8s-0.8-1.8-1.8-1.8s-1.8,0.8-1.8,1.8S156.3,12.7,157.3,12.7z"/>
		<path class="st9" d="M157.3,9.9c0.5,0,0.9,0.4,0.9,0.9s-0.4,0.9-0.9,0.9s-0.9-0.4-0.9-0.9C156.4,10.4,156.8,9.9,157.3,9.9z"/>
	</g>
	<g>
		<path class="st1" d="M62.7,8.4c1,0,1.8-0.8,1.8-1.8s-0.8-1.8-1.8-1.8s-1.8,0.8-1.8,1.8S61.7,8.4,62.7,8.4z"/>
		<path class="st9" d="M62.7,5.6c0.5,0,0.9,0.4,0.9,0.9s-0.4,0.9-0.9,0.9S61.8,7,61.8,6.5C61.8,6.1,62.2,5.6,62.7,5.6z"/>
	</g>
	<g>
		<path class="st1" d="M34.3,31.7c0.8,0,1.4-0.6,1.4-1.4s-0.6-1.4-1.4-1.4c-0.8,0-1.4,0.6-1.4,1.4S33.5,31.7,34.3,31.7z"/>
		<path class="st9" d="M34.3,29.4c0.4,0,0.7,0.3,0.7,0.7s-0.3,0.7-0.7,0.7s-0.7-0.3-0.7-0.7C33.6,29.8,33.9,29.4,34.3,29.4z"/>
	</g>
	<polygon class="st2" points="8,61.2 6.5,63 7.4,63.6 8.4,61.4 8.4,61.4 9.4,63.6 10.3,63 8.9,61.2 8.9,61.1 11.2,61.4 11.2,60.4 
		8.9,60.7 8.9,60.7 10.3,58.7 9.4,58.2 8.5,60.4 8.4,60.4 7.5,58.2 6.5,58.8 8,60.6 8,60.7 5.7,60.4 5.7,61.4 8,61.1 	"/>
	<polygon class="st2" points="11.7,10.3 10.7,11.6 11.3,12 12,10.5 12,10.5 12.7,12 13.3,11.6 12.3,10.3 12.3,10.3 13.9,10.5 
		13.9,9.8 12.3,10 12.3,10 13.3,8.7 12.7,8.3 12.1,9.8 12,9.8 11.4,8.3 10.7,8.7 11.7,9.9 11.7,10 10.2,9.8 10.2,10.5 11.7,10.3 	
		"/>
	<polygon class="st2" points="100.4,12.3 98.8,14.2 99.8,14.9 100.8,12.5 100.8,12.5 101.9,14.9 102.9,14.2 101.4,12.3 101.4,12.2 
		103.9,12.5 103.9,11.4 101.4,11.7 101.4,11.7 102.9,9.6 101.9,9 101,11.4 100.8,11.4 99.9,9 98.8,9.7 100.4,11.6 100.4,11.7 
		97.9,11.4 97.9,12.5 100.4,12.2 	"/>
	<polygon class="st2" points="133.3,31 132.1,32.4 132.8,32.8 133.6,31.2 133.6,31.2 134.4,32.8 135.1,32.4 134,31 134,30.9 
		135.8,31.2 135.8,30.4 134,30.6 134,30.6 135.1,29.1 134.4,28.7 133.7,30.4 133.6,30.4 132.9,28.7 132.1,29.1 133.3,30.5 
		133.3,30.6 131.5,30.4 131.5,31.2 133.3,30.9 	"/>
</g>
<g>
	<path class="st1" d="M82.1,130.6c-2.8,0-5.1,2.3-5.1,5.1c0,2.8,2.3,5.1,5.1,5.1c2.8,0,5.1-2.3,5.1-5.1
		C87.2,132.9,84.9,130.6,82.1,130.6z M82.1,137.4c-0.9,0-1.7-0.8-1.7-1.7c0-0.9,0.8-1.7,1.7-1.7s1.7,0.8,1.7,1.7
		C83.8,136.6,83,137.4,82.1,137.4z"/>
	<path class="st1" d="M126.1,71.4h-15.2V54.5c0-6.5-5.3-11.8-11.8-11.8H65.2c-6.5,0-11.8,5.3-11.8,11.8v5.1h-22
		c-0.9,0-1.7,0.8-1.7,1.7v23.7c0,0.9,0.8,1.7,1.7,1.7h22v16.9H34.7c-2.8,0-5.1,2.3-5.1,5.1v20.3c0,2.8,2.3,5.1,5.1,5.1h18.6v1.7
		c0,6.5,5.3,11.8,11.8,11.8H99c6.5,0,11.8-5.3,11.8-11.8v-30.4h15.2c4.7,0,8.5-3.8,8.5-8.5V79.9C134.5,75.2,130.7,71.4,126.1,71.4
		L126.1,71.4z M65.2,46H99c4.1,0,7.5,2.9,8.3,6.8H56.9C57.7,49,61.1,46,65.2,46L65.2,46z M60.3,63l-12.1,9.7L36.2,63L60.3,63
		L60.3,63z M33,64.8l14.2,11.3c0.3,0.2,0.7,0.4,1.1,0.4c0.4,0,0.7-0.1,1.1-0.4l14.2-11.3v18.5H33V64.8z M56.7,86.6h8.5
		c0.9,0,1.7-0.8,1.7-1.7V61.3c0-0.9-0.8-1.7-1.7-1.7h-8.5v-3.4h50.7v15.4c-3.9,0.8-6.8,4.2-6.8,8.3v16.9c0,4.1,2.9,7.5,6.8,8.3v18.8
		H70.2v-2.3l5.8-2.9c0.6-0.3,0.9-0.9,0.9-1.5c0-0.6-0.4-1.2-0.9-1.5l-5.8-2.9v-4c0-2.8-2.3-5.1-5.1-5.1h-8.5V86.6z M33,128.9v-20.3
		c0-0.9,0.8-1.7,1.7-1.7h30.4c0.9,0,1.7,0.8,1.7,1.7v5.1c0,0.6,0.4,1.2,0.9,1.5l3.7,1.9l-3.7,1.9c-0.6,0.3-0.9,0.9-0.9,1.5v8.5
		c0,0.9-0.8,1.7-1.7,1.7H34.7C33.8,130.6,33,129.9,33,128.9z M99,144.1H65.2c-4.7,0-8.5-3.8-8.5-8.5V134h8.5c2.8,0,5.1-2.3,5.1-5.1
		v-1.7h37.2v8.5C107.5,140.3,103.7,144.1,99,144.1z M131.1,96.8c0,2.8-2.3,5.1-5.1,5.1h-16.9c-2.8,0-5.1-2.3-5.1-5.1V79.9
		c0-2.8,2.3-5.1,5.1-5.1h16.9c2.8,0,5.1,2.3,5.1,5.1V96.8z"/>
	<path class="st2" d="M117.6,81.6c-4.7,0-8.5,3.8-8.5,8.5c0,4.7,3.8,8.5,8.5,8.5c4.7,0,8.5-3.8,8.5-8.5
		C126.1,85.4,122.3,81.6,117.6,81.6L117.6,81.6z M117.6,95.1c-2.8,0-5.1-2.3-5.1-5.1c0-2.8,2.3-5.1,5.1-5.1c2.8,0,5.1,2.3,5.1,5.1
		C122.7,92.8,120.4,95.1,117.6,95.1z"/>
	<path class="st2" d="M124.4,78.2h3.4v3.4h-3.4V78.2z"/>
	<path class="st2" d="M36.4,110.3h27.1v3.4H36.4V110.3z"/>
	<path class="st2" d="M39.8,117.1h20.3v3.4H39.8V117.1z"/>
	<path class="st2" d="M36.4,123.8h27.1v3.4H36.4V123.8z"/>
</g>
</svg>
