<?xml version="1.0" encoding="utf-8"?>
<!-- Generator: Adobe Illustrator 25.2.0, SVG Export Plug-In . SVG Version: 6.00 Build 0)  -->
<svg version="1.1" id="Layer_1" xmlns="http://www.w3.org/2000/svg" xmlns:xlink="http://www.w3.org/1999/xlink" x="0px" y="0px"
	 viewBox="0 0 168.4 168.4" style="enable-background:new 0 0 168.4 168.4;" xml:space="preserve">
<style type="text/css">
	.st0{fill:none;stroke:#2D4356;stroke-linecap:round;stroke-linejoin:round;stroke-miterlimit:10;}
	.st1{fill:#2D4356;}
	.st2{fill:#7784ff;}
	.st3{fill:none;stroke:#2D4356;stroke-width:4;stroke-linecap:round;stroke-linejoin:round;stroke-miterlimit:10;}
	.st4{fill:none;stroke:#7784ff;stroke-width:3;stroke-linecap:round;stroke-linejoin:round;stroke-miterlimit:10;}
	.st5{fill:none;stroke:#7784ff;stroke-width:4;stroke-linecap:round;stroke-linejoin:round;stroke-miterlimit:10;}
	.st6{fill:none;stroke:#7784ff;stroke-width:3;stroke-linecap:round;stroke-linejoin:round;}
	.st7{fill:#2D4457;}
	.st8{fill:#7784ff;}
	.st9{fill:#FFFFFF;}
	.st10{fill:none;stroke:#2D4356;stroke-width:3;stroke-linecap:round;stroke-linejoin:round;stroke-miterlimit:10;}
	.st11{fill:#FFFFFF;stroke:#2D4356;stroke-width:4;stroke-linecap:round;stroke-linejoin:round;stroke-miterlimit:10;}
	.st12{fill:none;stroke:#2D4356;stroke-width:2;stroke-miterlimit:10;}
	.st13{fill:none;stroke:#2D4356;stroke-width:2;stroke-linecap:round;stroke-linejoin:round;stroke-miterlimit:10;}
	.st14{fill:#2D4356;stroke:#FFFFFF;stroke-miterlimit:10;}
	.st15{fill:#7784ff;stroke:#FFFFFF;stroke-miterlimit:10;}
	.st16{fill:none;stroke:#2D4356;stroke-width:0.5;stroke-linecap:round;stroke-linejoin:round;stroke-miterlimit:10;}
	.st17{fill:none;stroke:#2D4356;stroke-width:0.75;stroke-linecap:round;stroke-linejoin:round;stroke-miterlimit:10;}
	.st18{fill:#888888;stroke:#2D4356;stroke-width:0.75;stroke-linecap:round;stroke-linejoin:round;stroke-miterlimit:10;}
	.st19{fill:#EEEEEE;stroke:#2D4356;stroke-width:0.75;stroke-linecap:round;stroke-linejoin:round;stroke-miterlimit:10;}
	.st20{fill:#383838;}
</style>
<g id="Politically_Incorrect_2_">
	<g>
		<circle class="st1" cx="2.7" cy="146.6" r="2"/>
		<g>
			<path class="st2" d="M117.9,153.6h-8.3c-1.1,0.1-1.9,1.1-1.8,2.2c0.1,1,0.9,1.8,1.8,1.8h8.3c1.1-0.1,1.9-1.1,1.8-2.2
				C119.6,154.5,118.8,153.7,117.9,153.6z M57.9,153.6h-8.3c-1.1,0.1-1.9,1.1-1.8,2.2c0.1,1,0.9,1.8,1.8,1.8h8.3
				c1.1-0.1,1.9-1.1,1.8-2.2C59.6,154.5,58.8,153.7,57.9,153.6z M103.7,153.6h-40c-1.1,0-2,0.9-2,2s0.9,2,2,2h15.9v2h-7.9
				c-1.1,0-2,0.9-2,2s0.9,2,2,2h25c1.1,0,2-0.9,2-2s-0.9-2-2-2h-8.9v-2h15.9c1.1,0,2-0.9,2-2S104.8,153.6,103.7,153.6z"/>
			<g>
				<path class="st1" d="M10.7,144.6h-3c-1.1,0-2,0.9-2,2s0.9,2,2,2h3c1.1,0,2-0.9,2-2S11.8,144.6,10.7,144.6z M159.7,144.6h-3
					c-1.1,0-2,0.9-2,2s0.9,2,2,2h3c1.1,0,2-0.9,2-2S160.8,144.6,159.7,144.6z"/>
				<circle class="st1" cx="165.7" cy="146.6" r="2"/>
				<path class="st1" d="M150.4,144.6h-4.7l0,0h-25l0,0h-8l0,0h-25l0,0h-8l0,0h-25l0,0h-8l0,0h-25l0,0H17c-1.1-0.1-2.1,0.6-2.3,1.7
					s0.6,2.1,1.7,2.3c0.2,0,0.3,0,0.5,0h133.4c1.1,0.1,2.1-0.6,2.3-1.7s-0.6-2.1-1.7-2.3C150.8,144.6,150.6,144.6,150.4,144.6z"/>
			</g>
		</g>
	</g>
	<g>
		<path class="st1" d="M156.4,47.2c1,0,1.8-0.8,1.8-1.8s-0.8-1.8-1.8-1.8s-1.8,0.8-1.8,1.8S155.4,47.2,156.4,47.2z"/>
		<path class="st9" d="M156.4,44.4c0.5,0,0.9,0.4,0.9,0.9s-0.4,0.9-0.9,0.9s-0.9-0.4-0.9-0.9C155.5,44.9,155.9,44.4,156.4,44.4z"/>
	</g>
	<g>
		<path class="st1" d="M157.3,12.7c1,0,1.8-0.8,1.8-1.8s-0.8-1.8-1.8-1.8s-1.8,0.8-1.8,1.8S156.3,12.7,157.3,12.7z"/>
		<path class="st9" d="M157.3,9.9c0.5,0,0.9,0.4,0.9,0.9s-0.4,0.9-0.9,0.9s-0.9-0.4-0.9-0.9C156.4,10.4,156.8,9.9,157.3,9.9z"/>
	</g>
	<g>
		<path class="st1" d="M62.7,8.4c1,0,1.8-0.8,1.8-1.8s-0.8-1.8-1.8-1.8s-1.8,0.8-1.8,1.8S61.7,8.4,62.7,8.4z"/>
		<path class="st9" d="M62.7,5.6c0.5,0,0.9,0.4,0.9,0.9s-0.4,0.9-0.9,0.9S61.8,7,61.8,6.5C61.8,6.1,62.2,5.6,62.7,5.6z"/>
	</g>
	<g>
		<path class="st1" d="M77.2,39.4c1.4,0,2.6-1.2,2.6-2.6s-1.2-2.6-2.6-2.6s-2.6,1.2-2.6,2.6S75.8,39.4,77.2,39.4z"/>
		<path class="st9" d="M77.2,35.4c0.7,0,1.3,0.6,1.3,1.3c0,0.7-0.6,1.3-1.3,1.3s-1.3-0.6-1.3-1.3C75.9,36.1,76.5,35.4,77.2,35.4z"/>
	</g>
	<g>
		<path class="st1" d="M34.3,31.7c0.8,0,1.4-0.6,1.4-1.4s-0.6-1.4-1.4-1.4c-0.8,0-1.4,0.6-1.4,1.4S33.5,31.7,34.3,31.7z"/>
		<path class="st9" d="M34.3,29.4c0.4,0,0.7,0.3,0.7,0.7s-0.3,0.7-0.7,0.7s-0.7-0.3-0.7-0.7C33.6,29.8,33.9,29.4,34.3,29.4z"/>
	</g>
	<polygon class="st2" points="8,61.2 6.5,63 7.4,63.6 8.4,61.4 8.4,61.4 9.4,63.6 10.3,63 8.9,61.2 8.9,61.1 11.2,61.4 11.2,60.4 
		8.9,60.7 8.9,60.7 10.3,58.7 9.4,58.2 8.5,60.4 8.4,60.4 7.5,58.2 6.5,58.8 8,60.6 8,60.7 5.7,60.4 5.7,61.4 8,61.1 	"/>
	<polygon class="st2" points="11.7,10.3 10.7,11.6 11.3,12 12,10.5 12,10.5 12.7,12 13.3,11.6 12.3,10.3 12.3,10.3 13.9,10.5 
		13.9,9.8 12.3,10 12.3,10 13.3,8.7 12.7,8.3 12.1,9.8 12,9.8 11.4,8.3 10.7,8.7 11.7,9.9 11.7,10 10.2,9.8 10.2,10.5 11.7,10.3 	
		"/>
	<polygon class="st2" points="100.4,12.3 98.8,14.2 99.8,14.9 100.8,12.5 100.8,12.5 101.9,14.9 102.9,14.2 101.4,12.3 101.4,12.2 
		103.9,12.5 103.9,11.4 101.4,11.7 101.4,11.7 102.9,9.6 101.9,9 101,11.4 100.8,11.4 99.9,9 98.8,9.7 100.4,11.6 100.4,11.7 
		97.9,11.4 97.9,12.5 100.4,12.2 	"/>
	<polygon class="st2" points="133.3,31 132.1,32.4 132.8,32.8 133.6,31.2 133.6,31.2 134.4,32.8 135.1,32.4 134,31 134,30.9 
		135.8,31.2 135.8,30.4 134,30.6 134,30.6 135.1,29.1 134.4,28.7 133.7,30.4 133.6,30.4 132.9,28.7 132.1,29.1 133.3,30.5 
		133.3,30.6 131.5,30.4 131.5,31.2 133.3,30.9 	"/>
</g>
<g>
	<g>
		<g>
			<path class="st1" d="M117.4,94.5c0,1.3-1,2.3-2.3,2.3c-1.2,0-2.3-1-2.3-2.3c0-2.8-0.9-5.4-2.3-7.6l3.3-3.3
				C116,86.7,117.4,90.4,117.4,94.5z"/>
		</g>
	</g>
	<g>
		<g>
			<path class="st1" d="M125.5,87c-0.4-1.3-0.8-2.5-1.3-3.7c-1.2-2.6-2.7-5-4.6-7.1c-0.3,1.3-0.9,2.6-1.9,3.5l-0.6,0.6
				c1.4,1.8,2.5,3.7,3.3,5.8c0.9,2.4,1.5,5,1.6,7.8c0,0.2,0,0.3,0,0.5c0,3.4-0.8,6.7-2.2,9.7c-0.9,1.9-2.1,3.7-3.5,5.3
				c-1,1.1-1.9,2.4-2.7,3.7c-1.6,2.8-2.6,5.8-3,8.9H87.6c-0.3-3.2-1.4-6.3-3.1-9.1l-3.4,3.3c1.3,2.5,2,5.3,2,8.1v4.6
				c0,3,2,5.6,4.7,6.5c0.9,5.3,5.5,9.6,11.2,9.6c3,0,5.7-1.2,7.7-3.1c1-0.9,1.8-1.9,2.4-3.1c0.6-1.1,1-2.2,1.2-3.4
				c2.7-0.9,4.7-3.5,4.7-6.5v-4.6c0-0.4,0-0.7,0-1.1c0.2-2.4,0.9-4.8,2.1-7c0.7-1.3,1.5-2.5,2.5-3.7c1.6-1.8,2.9-3.9,4-6
				c0.7-1.5,1.3-3,1.7-4.5c0.7-2.4,1.1-4.9,1.1-7.5C126.5,91.9,126.1,89.4,125.5,87z M103.5,138.8c-1.2,1-2.7,1.6-4.4,1.6
				c-2.9,0-5.5-2-6.4-4.7h12.9C105.2,136.9,104.4,137.9,103.5,138.8z M110.5,128.9c0,1.3-1,2.3-2.3,2.3H90c-1.3,0-2.3-1-2.3-2.3
				v-2.3h22.8V128.9z"/>
		</g>
	</g>
</g>
<g>
	<path class="st2" d="M127.2,61.1l-11.3-11.3c-1.4-1.4-3.2-2.1-5-2.1c-1.8,0-3.7,0.7-5,2.1L90.2,65.3l-3.3,3.3
		c0.1,0.6,0.2,1.3,0.2,1.9c0,0.4,0,0.9-0.1,1.4l-0.2,1.8l0.1,0l6.3-6.3l0.9,1l1.9,1.9l-2.3,2.3l-2.9,2.9c0.9,0.8,1.6,2,1.8,3.3
		l3.2-3.2l2.7-2.7l5.7,5.7l-37.5,37.5l-5.5-0.2l-0.2-5.5l11.6-11.6l13.5-13.5c-0.1,0-0.1,0-0.2,0l-1.6-0.3l-0.7,1.5
		c-2.2,4.8-6.8,8-12,8.4c0,0,0,0,0,0l-13,13l-4.9-0.8l9.6-9.6l3.2-3.2c-1.2-0.4-2.4-0.9-3.5-1.6l-14.3,14.3
		c-0.2,0.2-0.3,0.4-0.4,0.7l-10,28.9c-0.2,0.6-0.1,1.4,0.4,1.8c0.5,0.5,1.2,0.6,1.8,0.4l28.9-10c0.2-0.1,0.5-0.2,0.7-0.4l20.6-20.6
		l3.3-3.3L123.3,75l3.3-3.3l0.6-0.6c1-1,1.6-2.2,1.9-3.5C129.6,65.3,128.9,62.8,127.2,61.1z M42.9,134.1l2.3-6.6
		c1.9,0.9,3.5,2.4,4.3,4.3L42.9,134.1z M52.8,130.6c-0.6-1.5-1.5-2.8-2.6-3.9c-1.1-1.1-2.4-2-3.9-2.6l4.9-14.1l6.3,1l0.2,6.5
		c0,0.9,0.8,1.7,1.7,1.7l6.5,0.2l1,6.3L52.8,130.6z M88.7,104.6l-18.6,18.6l-0.8-4.9l16.9-16.9l3.3-3.3l17.2-17.2l2.8,2.8
		L88.7,104.6z M112.1,81.2L99.8,68.9l-2.7-2.7l-1.4-1.4l3.8-3.8l16.4,16.4L112.1,81.2z M124.7,68.7l-6.3,6.3L102,58.6l6.3-6.3
		c1.4-1.4,3.7-1.4,5,0l11.3,11.3c0.1,0.1,0.2,0.2,0.2,0.3C126,65.2,125.9,67.4,124.7,68.7z"/>
</g>
<path class="st1" d="M95.8,75.5c-0.5-1.1-1.2-2.1-2.1-2.9c-0.7-0.7-1.6-1.3-2.5-1.7c0-0.1,0-0.2,0-0.3c0-0.4,0-0.8-0.1-1.1
	c-0.1-1.4-0.4-2.8-0.9-4.1c-2.1-5.3-7.3-9.1-13.4-9.1c-1.3,0-2.6,0.2-3.9,0.5c-2.2-3.4-6-5.5-10.2-5.5c-4.9,0-9.2,2.8-11.1,7.2
	c-6.8,1.2-11.9,7.1-11.9,14.1c0,4.3,2,8.4,5.3,11.1c0,0.4-0.1,0.8-0.1,1.1c0,5.4,4.4,9.8,9.7,9.8c1.1,0,2.2-0.2,3.2-0.6
	c0.6,0.6,1.3,1.1,2,1.6c1,0.7,2.1,1.3,3.2,1.8c1.4,0.6,2.9,1,4.4,1.3c0.9,0.1,1.9,0.2,2.9,0.2c0.7,0,1.4,0,2-0.1
	c5.9-0.7,11.1-4.1,14.1-9.3c2.5,0.1,5-0.8,6.8-2.5c2-1.9,3.2-4.5,3.2-7.2C96.7,78.1,96.4,76.7,95.8,75.5z M86.1,85.2
	c-0.1,0-0.1,0-0.2,0l-1.6-0.3l-0.7,1.5c-2.2,4.8-6.8,8-12,8.4c0,0,0,0,0,0c-0.3,0-0.7,0-1,0c-1.4,0-2.8-0.2-4.1-0.6
	c-1.2-0.4-2.4-0.9-3.5-1.6c-1.1-0.7-2.1-1.5-3-2.5l-1.1-1.2l-1.4,0.8c-0.8,0.5-1.8,0.7-2.7,0.7c-3.1,0-5.7-2.5-5.7-5.6
	c0-0.5,0.1-1,0.2-1.5l0.4-1.4L48.5,81c-2.9-1.9-4.6-5.1-4.6-8.5c0-5.3,4.1-9.8,9.4-10.2l1.4-0.1l0.4-1.3c1.1-3.3,4.1-5.6,7.7-5.6
	c3.2,0,6,1.9,7.3,4.8l0.8,1.9l1.9-0.8c1.3-0.5,2.7-0.8,4.1-0.8c5,0,9.2,3.6,10.1,8.4c0.1,0.6,0.2,1.3,0.2,1.9c0,0.4,0,0.9-0.1,1.4
	l-0.2,1.8l0.1,0l1.7,0.5c0.9,0.2,1.7,0.7,2.3,1.3c0.9,0.8,1.6,2,1.8,3.3c0.1,0.3,0.1,0.6,0.1,0.9C92.6,83,89.6,85.7,86.1,85.2z"/>
</svg>
