<svg xmlns="http://www.w3.org/2000/svg" xmlns:xlink="http://www.w3.org/1999/xlink" width="48pt" height="48pt" viewBox="0 0 48 48"><g id="surface260789"><path style=" stroke:none;fill-rule:nonzero;fill:rgb(0%,0%,0%);fill-opacity:1;" d="M 43 10.078125 C 42.492188 10.074219 41.785156 10.023438 41.28125 10.101562 C 40.535156 10.234375 39.777344 10.015625 39.023438 9.992188 C 39.015625 9.808594 39.152344 9.480469 39.148438 9.296875 C 39.007812 9.277344 38.867188 9.269531 38.730469 9.234375 C 38.601562 8.777344 38.652344 8.296875 38.636719 7.828125 C 38.566406 7.828125 38.421875 7.824219 38.347656 7.820312 C 38.324219 8.355469 38.328125 8.890625 38.320312 9.425781 C 38.136719 9.273438 38.007812 8.980469 37.738281 9 L 30.390625 9 C 30.003906 9.042969 29.699219 8.777344 29.386719 8.589844 C 29.359375 8.34375 29.320312 8.101562 29.269531 7.859375 C 29.050781 8.160156 29.03125 8.550781 28.949219 8.90625 C 28.367188 9.023438 27.789062 9.347656 27.195312 9.402344 C 27.140625 9.058594 27.085938 8.714844 27.050781 8.367188 C 27.363281 8.214844 27.71875 8.113281 27.980469 7.863281 C 28.285156 6.96875 27.929688 6.03125 27.726562 5.15625 C 27.097656 4.695312 26.402344 4.292969 25.675781 4 L 24.636719 4 C 23.917969 4.234375 23.207031 4.617188 22.800781 5.289062 C 22.167969 6.28125 22.082031 7.550781 22.476562 8.648438 C 22.421875 8.6875 22.308594 8.765625 22.253906 8.804688 C 21.570312 8.265625 20.628906 8.53125 19.976562 8.984375 C 19.027344 9.703125 18.523438 10.878906 18.3125 12.039062 C 18.09375 13.023438 18.191406 14.03125 18.308594 15.019531 C 17.914062 15.117188 17.515625 15.136719 17.113281 15.164062 C 16.949219 15.171875 16.738281 15.238281 16.71875 15.4375 C 16.597656 16.21875 16.6875 17.023438 16.527344 17.800781 C 16.421875 18.300781 16.355469 18.804688 16.371094 19.316406 C 16.808594 19.414062 17.25 19.507812 17.6875 19.601562 C 17.390625 19.738281 17.042969 19.839844 16.828125 20.109375 C 16.640625 21.371094 17.089844 22.613281 17.050781 23.878906 C 16.828125 24.070312 16.554688 24.246094 16.484375 24.554688 C 16.347656 24.914062 16.5625 25.285156 16.511719 25.65625 C 16.460938 26.058594 16.550781 26.460938 16.679688 26.839844 C 16.800781 27.15625 16.699219 27.496094 16.652344 27.820312 C 16.507812 28.65625 16.347656 29.492188 16.3125 30.34375 C 16.28125 30.789062 16.4375 31.253906 16.296875 31.6875 C 15.828125 32.757812 15.046875 33.648438 14.632812 34.742188 C 14.449219 35.246094 14.542969 35.820312 14.277344 36.300781 C 13.996094 36.839844 13.609375 37.367188 13.644531 38.015625 C 13.613281 38.449219 13.960938 38.84375 13.816406 39.28125 C 13.597656 40.171875 13.378906 41.0625 13.136719 41.949219 C 12.972656 42.539062 12.941406 43.183594 13.125 43.769531 C 13.367188 43.898438 13.644531 43.941406 13.914062 44 L 14.945312 44 C 15.277344 43.96875 15.605469 43.914062 15.941406 43.867188 C 16.035156 43.40625 15.921875 42.953125 15.765625 42.523438 C 15.574219 41.441406 15.746094 40.289062 16.285156 39.332031 C 16.472656 39.085938 16.8125 38.988281 16.945312 38.691406 C 17.144531 38.269531 17.242188 37.804688 17.421875 37.375 C 17.679688 36.765625 18.027344 36.1875 18.1875 35.539062 C 18.277344 35.183594 18.175781 34.816406 18.207031 34.457031 C 18.304688 34.058594 18.484375 33.667969 18.777344 33.378906 C 19.171875 33.011719 19.324219 32.445312 19.757812 32.109375 C 20.050781 31.890625 20.066406 31.496094 20.128906 31.160156 C 20.183594 30.714844 20.328125 30.285156 20.492188 29.867188 C 20.71875 29.292969 20.878906 28.660156 21.320312 28.203125 C 21.597656 27.910156 21.738281 27.519531 21.839844 27.132812 C 22.015625 27.472656 22.15625 27.847656 22.4375 28.113281 C 22.753906 28.273438 23.210938 28.1875 23.402344 28.546875 C 23.949219 29.382812 23.992188 29.859375 24.542969 30.695312 C 24.804688 31.214844 25.441406 31.089844 25.910156 31.101562 C 26.179688 31.472656 26.480469 31.578125 26.390625 32.03125 C 26.371094 32.535156 25.945312 32.929688 26.003906 33.445312 C 26.050781 34.503906 26.128906 35.566406 26.402344 36.589844 C 26.5 37.066406 26.746094 37.507812 26.757812 38.003906 C 26.769531 38.574219 26.660156 39.515625 26.542969 40.082031 C 26.265625 40.84375 26.074219 41.636719 26.035156 42.449219 C 26.699219 42.839844 27.464844 42.441406 28.15625 42.675781 C 28.914062 42.925781 29.710938 43.015625 30.503906 43 C 30.992188 42.992188 31.484375 42.941406 31.964844 42.867188 C 31.96875 42.589844 32.058594 42.289062 31.933594 42.03125 C 31.53125 41.558594 30.863281 41.554688 30.378906 41.230469 C 29.984375 40.875 29.664062 40.441406 29.335938 40.027344 C 29.058594 39.703125 29.429688 39.25 29.417969 38.839844 C 29.421875 38.214844 29.417969 37.574219 29.648438 36.984375 C 29.820312 36.515625 29.761719 36.011719 29.671875 35.535156 C 29.546875 34.945312 29.757812 34.367188 29.808594 33.785156 C 29.886719 32.996094 29.945312 32.199219 29.992188 31.40625 C 30.03125 30.953125 29.875 30.523438 29.765625 30.089844 C 29.699219 29.683594 29.3125 29.457031 29.199219 29.070312 C 28.539062 27.246094 27.933594 25.742188 26.628906 24.285156 C 26.128906 23.785156 25.875 22.953125 26.179688 22.28125 C 26.460938 22.359375 26.742188 22.445312 27.027344 22.515625 C 27.332031 22.105469 27.628906 21.652344 27.679688 21.121094 C 27.730469 20.578125 27.742188 20.03125 27.792969 19.488281 C 27.8125 18.894531 27.941406 18.285156 27.789062 17.703125 C 27.6875 17.304688 27.296875 17.132812 26.992188 16.929688 C 27.066406 16.652344 27.140625 16.378906 27.203125 16.097656 C 28.207031 16.589844 29.136719 17.296875 30.261719 17.472656 C 30.5625 17.515625 30.882812 17.660156 31.183594 17.523438 C 31.59375 17.324219 31.910156 16.980469 32.273438 16.699219 C 32.925781 16.1875 32.835938 15.253906 33.0625 14.519531 C 33.28125 14.433594 33.507812 14.355469 33.734375 14.269531 C 33.585938 13.621094 33.328125 12.964844 33.414062 12.289062 C 33.6875 11.921875 34.027344 11.699219 34.308594 11.339844 C 34.507812 11.0625 34.855469 10.992188 35.175781 11 C 36.128906 10.996094 37.085938 11.011719 38.039062 11.003906 C 38.070312 10.863281 37.960938 11.140625 37.992188 11.003906 C 38.988281 11.058594 39.980469 10.84375 40.976562 10.96875 C 41.597656 11.074219 42.433594 11.03125 43.058594 10.984375 C 43.023438 10.800781 43.007812 10.261719 43 10.078125 Z M 30.703125 13.574219 C 30.515625 13.234375 30.230469 12.917969 30.175781 12.527344 C 30.203125 12.488281 30.265625 12.40625 30.296875 12.367188 C 30.703125 12.324219 31.113281 12.351562 31.519531 12.371094 C 31.257812 12.777344 30.976562 13.175781 30.703125 13.574219 Z M 30.644531 12.265625 C 30.914062 12.128906 31 11.84375 31.035156 11.554688 C 31.253906 11.546875 31.472656 11.539062 31.691406 11.53125 C 31.699219 11.742188 31.707031 11.953125 31.714844 12.164062 C 31.363281 12.242188 31 12.242188 30.644531 12.265625 Z M 30.644531 12.265625 "></path><path style=" stroke:none;fill-rule:nonzero;fill:rgb(0%,0%,0%);fill-opacity:1;" d="M 43 23 L 36 23 L 36 21 L 45 21 C 44.867188 20.207031 44.339844 19.5 43.605469 19.191406 C 43.113281 18.964844 42.5625 19.003906 42.035156 19.003906 L 36 19 C 35 19 34 20 34 21 L 34 23 C 34.054688 23.996094 35 25 36 25 L 43 25 L 43 27 L 34 27 C 34.132812 27.636719 34.46875 28.238281 35.019531 28.59375 C 35.496094 28.9375 36.101562 29.015625 36.675781 29 L 43 29 C 44 29 45 28 45 27 L 45 25 C 45 24 44.121094 23.019531 43 23 Z M 5 21 L 13 21 C 13 19.894531 12.105469 19 11 19 L 5 19 C 3.894531 19 3 19.894531 3 21 L 3 27 C 3 28.105469 3.894531 29 5 29 L 11 29 C 12.105469 29 13 28.105469 13 27 L 5 27 Z M 5 21 "></path></g></svg>