<svg id="Layer_1" data-name="Layer 1" xmlns="http://www.w3.org/2000/svg" viewBox="0 0 168 168"><defs><style>.cls-1{fill:#2d4356;}.cls-2{fill:#7784ff;}</style></defs><title>Icon</title><g id="Webite"><circle class="cls-1" cx="2.32" cy="144.9" r="2"/><path class="cls-1" d="M11.32,142.9h-3a2,2,0,1,0,0,4h3a2,2,0,0,0,0-4Zm149,0h-3a2,2,0,0,0,0,4h3a2,2,0,0,0,0-4Z"/><circle class="cls-1" cx="166.32" cy="144.9" r="2"/><path class="cls-2" d="M118.52,150.9h-8.3a2,2,0,0,0-1.8,2.2,1.93,1.93,0,0,0,1.8,1.8h8.3a2,2,0,0,0,1.8-2.2A2.12,2.12,0,0,0,118.52,150.9Zm-60,0h-8.3a2,2,0,0,0-1.8,2.2,1.93,1.93,0,0,0,1.8,1.8h8.3a2,2,0,0,0,1.8-2.2A2.12,2.12,0,0,0,58.52,150.9Zm45.8,0h-40a2,2,0,1,0,0,4h15.9v2h-7.9a2,2,0,0,0,0,4h25a2,2,0,1,0,0-4h-8.9v-2h15.9a2,2,0,1,0,0-4Zm10-90h4a2,2,0,0,0,0-4h-4a2,2,0,0,0,0,4Zm12,0h4a2,2,0,0,0,0-4h-4a2,2,0,0,0,0,4Zm-2,18h-20a4,4,0,0,0-4,4h-4.6a5.55,5.55,0,0,0-.6-.8l-8-8a4,4,0,0,0-5.7,0h0l-8,8a5.55,5.55,0,0,0-.6.8h-4.6a4,4,0,0,0-4-4h-20a4,4,0,0,0-4,4v4a4,4,0,0,0,4,4h8v4h-8a4,4,0,0,0-4,4v4a4,4,0,0,0,4,4h8v4h-8a4,4,0,0,0-4,4v4a4,4,0,0,0,4,4h20a4,4,0,0,0,4-4h32a4,4,0,0,0,4,4h20a4,4,0,0,0,4-4v-4a4,4,0,0,0-4-4h-8v-4h8a4,4,0,0,0,4-4v-4a4,4,0,0,0-4-4h-8v-4h8a4,4,0,0,0,4-4v-4A3.87,3.87,0,0,0,124.32,78.9Zm-40-2,8,8-8,8-8-8Zm-40,10v-4h20v4Zm0,16v-4h20v4Zm20,16h-20v-4h20Zm36-4h-32a4,4,0,0,0-4-4h-8v-4h8a4,4,0,0,0,4-4v-4a4,4,0,0,0-4-4h-8v-4h8a4,4,0,0,0,4-4h4.6a5.55,5.55,0,0,0,.6.8l8,8a4,4,0,0,0,5.7,0h0l8-8a5.55,5.55,0,0,0,.6-.8h4.6a4,4,0,0,0,4,4h8v4h-8a4,4,0,0,0-4,4v4a4,4,0,0,0,4,4h8v4h-8A4,4,0,0,0,100.32,114.9Zm24,0v4h-20v-4Zm0-16v4h-20v-4Zm0-12h-20v-4h20Z"/><path class="cls-1" d="M136.32,48.9h-104a4,4,0,0,0-4,4v70h4V68.6h104v54.2h4v-70A4,4,0,0,0,136.32,48.9Zm0,15.7h-104V52.9h104Z"/><path class="cls-1" d="M151,142.9h-49.7v-4h39a8,8,0,0,0,8-8v-82a8,8,0,0,0-8-8h-112a8,8,0,0,0-8,8v82a8,8,0,0,0,8,8h39v4H17.62a2,2,0,0,0-.6,4h133.9a2.1,2.1,0,0,0,2.3-1.7,2,2,0,0,0-1.7-2.3Zm-126.7-94a4,4,0,0,1,4-4h112a4,4,0,0,1,4,4v78h-120Zm4,86a4,4,0,0,1-4-4h120a4,4,0,0,1-4,4Zm43,8v-4h26v4Zm-2.7-135a3,3,0,0,0,3-3,3,3,0,0,0-6,0A3,3,0,0,0,68.62,7.9Zm0-4.5a1.54,1.54,0,0,1,1.5,1.5,1.5,1.5,0,1,1-3,0A1.54,1.54,0,0,1,68.62,3.4Zm90,65.5a2,2,0,1,0,2,2A2,2,0,0,0,158.62,68.9Zm0,3a1,1,0,1,1,1-1A.94.94,0,0,1,158.62,71.9Zm-152-61a2,2,0,1,0,2,2A2,2,0,0,0,6.62,10.9Zm0,3a1,1,0,1,1,0-2,1,1,0,0,1,0,2Zm141-11a2,2,0,1,0,2,2A2,2,0,0,0,147.62,2.9Zm0,3a.94.94,0,0,1-1-1,1,1,0,0,1,2,0A.94.94,0,0,1,147.62,5.9Zm-117,18a2,2,0,1,0-2,2A2,2,0,0,0,30.62,23.9Zm-3,0a1,1,0,1,1,1,1A1,1,0,0,1,27.62,23.9Z"/><polygon class="cls-2" points="11.22 68.9 12.72 67 11.72 66.4 10.82 68.6 10.72 68.6 9.82 66.4 8.82 67 10.32 68.9 10.32 68.9 8.02 68.6 8.02 69.7 10.32 69.4 10.32 69.4 8.82 71.3 9.72 71.9 10.72 69.7 10.82 69.7 11.72 71.9 12.72 71.3 11.22 69.4 11.22 69.4 13.52 69.7 13.52 68.6 11.22 68.9"/><polygon class="cls-2" points="52.42 34 51.52 35.1 52.02 35.4 52.62 34.1 52.62 34.1 53.22 35.4 53.82 35.1 52.92 34 52.92 34 54.22 34.1 54.22 33.5 52.92 33.7 52.92 33.7 53.72 32.5 53.22 32.2 52.72 33.5 52.62 33.5 52.12 32.2 51.52 32.6 52.42 33.7 52.42 33.7 51.02 33.5 51.02 34.1 52.42 33.9 52.42 34"/><polygon class="cls-2" points="166.62 41.6 166.62 40.6 164.32 40.9 164.32 40.8 165.72 38.9 164.82 38.4 163.92 40.6 163.92 40.6 162.92 38.4 162.02 39 163.42 40.8 163.42 40.9 161.22 40.6 161.22 41.6 163.42 41.3 163.42 41.4 162.02 43.2 162.82 43.8 163.82 41.6 163.92 41.6 164.82 43.8 165.82 43.2 164.32 41.4 164.32 41.3 166.62 41.6"/><polygon class="cls-2" points="117.02 19.5 118.32 17.8 117.52 17.4 116.72 19.2 116.72 19.2 115.92 17.4 115.02 17.9 116.32 19.5 116.32 19.5 114.32 19.2 114.32 20.1 116.32 19.9 116.32 19.9 115.02 21.5 115.82 22 116.72 20.1 116.72 20.1 117.52 22 118.32 21.5 117.02 19.9 117.02 19.9 119.02 20.1 119.02 19.2 117.02 19.5"/></g></svg>