<svg id="Layer_1" data-name="Layer 1" xmlns="http://www.w3.org/2000/svg" viewBox="0 0 168 168"><defs><style>.cls-1{fill:#2d4356;}.cls-2{fill:#7784ff;}.cls-3,.cls-4,.cls-5,.cls-9{fill:none;}.cls-10,.cls-3,.cls-9{stroke:#2d4356;}.cls-10,.cls-3,.cls-4,.cls-5,.cls-9{stroke-linecap:round;stroke-linejoin:round;}.cls-10,.cls-3,.cls-5{stroke-width:4px;}.cls-4,.cls-5{stroke:#7784ff;}.cls-4,.cls-9{stroke-width:3px;}.cls-6{fill:#2d4457;}.cls-7{fill:#7784ff;}.cls-10,.cls-8{fill:#fff;}</style></defs><title>Icon</title><g id="Online_Muystery_HUnt" data-name="Online Muystery HUnt"><circle class="cls-1" cx="2.5" cy="148.25" r="2"/><path class="cls-2" d="M117.7,155.25h-8.3a2,2,0,0,0-1.8,2.2,1.93,1.93,0,0,0,1.8,1.8h8.3a2,2,0,0,0,1.8-2.2A2.12,2.12,0,0,0,117.7,155.25Zm-60,0H49.4a2,2,0,0,0-1.8,2.2,1.93,1.93,0,0,0,1.8,1.8h8.3a2,2,0,0,0,1.8-2.2A2.12,2.12,0,0,0,57.7,155.25Zm45.8,0h-40a2,2,0,0,0,0,4H79.4v2H71.5a2,2,0,0,0,0,4h25a2,2,0,0,0,0-4H87.6v-2h15.9a2,2,0,0,0,0-4Z"/><path class="cls-1" d="M10.5,146.25h-3a2,2,0,0,0,0,4h3a2,2,0,0,0,0-4Zm149,0h-3a2,2,0,0,0,0,4h3a2,2,0,0,0,0-4Z"/><circle class="cls-1" cx="165.5" cy="148.25" r="2"/><path class="cls-1" d="M150.2,146.25H16.8a2.1,2.1,0,0,0-2.3,1.7,2,2,0,0,0,1.7,2.3H150.1a2.1,2.1,0,0,0,2.3-1.7,2,2,0,0,0-1.7-2.3Z"/><path class="cls-3" d="M33.8,70.45l19.7-19.1c8.9,8.8,17.9,17.6,26.8,26.3"/><path class="cls-3" d="M76.6,74.15c10.5-12.2,21.1-24.4,31.6-36.7L134.78,71"/><polygon class="cls-3" points="30.4 63.05 22.3 87.95 38.4 87.95 30.4 63.05"/><line class="cls-3" x1="30.4" y1="102.55" x2="30.4" y2="87.95"/><polygon class="cls-3" points="137.2 63.45 129.2 88.45 145.2 88.45 137.2 63.45"/><line class="cls-3" x1="137.2" y1="103.05" x2="137.2" y2="88.45"/><polygon class="cls-4" points="51.1 75.75 45.8 91.95 56.3 91.95 51.1 75.75"/><line class="cls-4" x1="51.1" y1="101.55" x2="51.1" y2="91.95"/><polygon class="cls-4" points="116.8 75.95 111.5 92.25 122 92.25 116.8 75.95"/><line class="cls-4" x1="116.8" y1="101.75" x2="116.8" y2="92.25"/><line class="cls-5" x1="105.6" y1="53.05" x2="92" y2="70.15"/><path class="cls-4" d="M83.1,81.65A12.85,12.85,0,0,1,87.2,86"/><path class="cls-6" d="M137.8,146.25a1.32,1.32,0,0,1-1.4-1.1,1.49,1.49,0,0,1,1.1-1.8,27.25,27.25,0,0,0,5.4-1.9c-.3-.1-.8-.3-1.4-.5a1.49,1.49,0,0,1,.7-2.9c2,.5,4.1,1.4,4.2,3.2v.1c0,2-2.2,3.3-8.2,4.9C138.1,146.15,137.9,146.25,137.8,146.25Zm5.7-4.5Zm-37-6.3h-.2c-4.3-.5-8.3-.9-11.8-1.2a1.5,1.5,0,0,1,.2-3c3.5.3,7.5.7,11.9,1.3a1.5,1.5,0,0,1,1.3,1.7A1.27,1.27,0,0,1,106.5,135.45ZM59,132h-.2c-4.3-.5-8.3-1-11.9-1.7a1.41,1.41,0,0,1-1.2-1.7,1.46,1.46,0,0,1,1.7-1.2c3.5.6,7.5,1.2,11.7,1.6a1.5,1.5,0,0,1,1.3,1.7A1.35,1.35,0,0,1,59,132Zm-28.3-17.3a1.38,1.38,0,0,1-1.3-1.2,1.51,1.51,0,0,1,1-1.8c1.6-.4,3.3-.7,5.2-1,.6-.1,1.2-.2,1.9-.3,1.5-.3,2.6-.5,3.5-.7a1.41,1.41,0,0,1,1.6,1.2,1.61,1.61,0,0,1-1,1.8c-.9.2-2.1.4-3.6.7l-1.9.3c-1.8.3-3.5.6-5,1Zm45.1-9.9a1.32,1.32,0,0,1-1.4-1.1,1.49,1.49,0,0,1,1.1-1.8c3.6-1,5.5-2,7.5-4,.4-.4,1-1,1.6-1.7a1.49,1.49,0,1,1,2.3,1.9,20,20,0,0,1-1.8,2c-2.3,2.4-4.7,3.7-8.8,4.8A1.34,1.34,0,0,0,75.8,104.75Z"/><path class="cls-7" d="M54.7,109.65a1.59,1.59,0,0,1-1.5-1.2,1.49,1.49,0,0,1,1.1-1.8c3-.7,6.7-1.4,11.3-2.3l.3-.1a1.56,1.56,0,0,1,1.8,1.2,1.48,1.48,0,0,1-1.2,1.8h-.1l-.3.1c-4.6.9-8.3,1.7-11.2,2.3Z"/><path class="cls-7" d="M39.1,127.25a.6.6,0,0,1-.4-.1c-5.4-1.7-9-3.6-11.1-5.8a1.49,1.49,0,0,1,2.2-2c1.7,1.8,5,3.5,9.8,5a1.54,1.54,0,0,1,1,1.9A1.75,1.75,0,0,1,39.1,127.25Z"/><path class="cls-7" d="M83.7,133.75h0c-4-.1-8.1-.4-12-.6a1.62,1.62,0,0,1-1.4-1.6,1.54,1.54,0,0,1,1.6-1.4c3.9.3,7.9.5,11.9.6a1.42,1.42,0,0,1,1.4,1.6A1.45,1.45,0,0,1,83.7,133.75Z"/><path class="cls-7" d="M129,139.05h-.2q-6.15-.9-11.7-1.8a1.51,1.51,0,1,1,.4-3c3.7.5,7.7,1.1,11.8,1.8a1.41,1.41,0,0,1,1.2,1.7A1.43,1.43,0,0,1,129,139.05Z"/><path class="cls-1" d="M87.5,27.15a3,3,0,1,0-3-3A3,3,0,0,0,87.5,27.15Z"/><path class="cls-8" d="M87.5,22.65a1.5,1.5,0,1,1-1.5,1.5A1.47,1.47,0,0,1,87.5,22.65Z"/><path class="cls-1" d="M36.8,43.05a1.8,1.8,0,1,0-1.8-1.8A1.79,1.79,0,0,0,36.8,43.05Z"/><path class="cls-8" d="M36.8,40.35a.9.9,0,1,1-.9.9A.9.9,0,0,1,36.8,40.35Z"/><path class="cls-1" d="M131.9,33.05a1.8,1.8,0,1,0-1.8-1.8A1.93,1.93,0,0,0,131.9,33.05Z"/><path class="cls-8" d="M131.9,30.25a.9.9,0,1,1-.9.9A.9.9,0,0,1,131.9,30.25Z"/><path class="cls-1" d="M157.6,13.05a1.8,1.8,0,1,0-1.8-1.8A1.79,1.79,0,0,0,157.6,13.05Z"/><path class="cls-8" d="M157.6,10.25a.9.9,0,1,1-.9.9A1,1,0,0,1,157.6,10.25Z"/><polygon class="cls-2" points="124.3 7.55 122.8 9.35 123.7 9.95 124.7 7.75 124.7 7.75 125.7 9.95 126.6 9.35 125.2 7.55 125.2 7.45 127.5 7.75 127.5 6.75 125.2 7.05 125.2 7.05 126.6 5.05 125.7 4.55 124.8 6.75 124.7 6.75 123.8 4.55 122.8 5.15 124.3 6.95 124.3 7.05 122 6.75 122 7.75 124.3 7.45 124.3 7.55"/><polygon class="cls-2" points="152.3 52.35 151.2 53.65 151.9 54.05 152.6 52.45 152.6 52.45 153.3 54.05 154 53.65 152.9 52.35 152.9 52.25 154.6 52.45 154.6 51.75 152.9 51.95 152.9 51.95 154 50.55 153.3 50.15 152.6 51.75 152.6 51.75 151.9 50.15 151.2 50.55 152.3 51.95 152.3 51.95 150.6 51.75 150.6 52.45 152.3 52.25 152.3 52.35"/><polygon class="cls-2" points="16.2 10.15 15.1 11.45 15.7 11.85 16.5 10.35 16.5 10.35 17.1 11.85 17.9 11.45 16.8 10.15 16.8 10.15 18.5 10.35 18.5 9.55 16.8 9.75 16.8 9.75 17.8 8.35 17.2 7.95 16.5 9.55 16.5 9.55 15.8 7.95 15.1 8.35 16.1 9.75 16.1 9.75 14.5 9.55 14.5 10.35 16.2 10.15"/><path class="cls-9" d="M68.2,42.85c0-3.5.1-7.1.1-10.6H53.6v10.9h0Z"/><line class="cls-9" x1="53.6" y1="33.95" x2="53.6" y2="52.25"/><path class="cls-10" d="M112.2,119.85a11.54,11.54,0,0,0-8.2,19.7l7.3,7.3a1.27,1.27,0,0,0,1.8,0l7.3-7.3a11.56,11.56,0,0,0,2.5-12.6A11.73,11.73,0,0,0,112.2,119.85Z"/><circle class="cls-3" cx="112.2" cy="131.25" r="3.6"/></g></svg>