<svg xmlns="http://www.w3.org/2000/svg" viewBox="0 0 500 500"><g id="freepik--background-complete--inject-129"><rect x="324.3" y="347.22" width="69.02" height="119.76" style="fill:#ebebeb"></rect><rect x="303.08" y="347.22" width="21.22" height="119.76" style="fill:#e0e0e0"></rect><circle cx="361.66" cy="382.75" r="19.72" transform="translate(-93.68 647.25) rotate(-76.77)" style="fill:#e0e0e0"></circle><path d="M366.56,382.75a4.9,4.9,0,1,1-4.9-4.9A4.9,4.9,0,0,1,366.56,382.75Z" style="fill:#f5f5f5"></path><circle cx="361.66" cy="436.64" r="19.72" style="fill:#e0e0e0"></circle><path d="M366.56,436.64a4.9,4.9,0,1,1-4.9-4.9A4.9,4.9,0,0,1,366.56,436.64Z" style="fill:#f5f5f5"></path><path d="M348.91,310.88a5.43,5.43,0,0,1-7.23,2.45,5.32,5.32,0,0,1-2.59-7.11,5.43,5.43,0,0,1,7.23-2.45A5.31,5.31,0,0,1,348.91,310.88Z" style="fill:#e0e0e0"></path><path d="M349,309c-.51.1-1.94-5.39-2.24-12.26s-.32-12.31.17-12.37,1.43,5.49,1.71,12.3S349.48,308.85,349,309Z" style="fill:#e0e0e0"></path><path d="M364.3,287c.21.39-3.75,2.52-9.23,2.15a13.09,13.09,0,0,1-6.58-2.14c-1.51-1-1.94-2.17-1.75-2.29s1,.54,2.42,1.17a17.69,17.69,0,0,0,6,1.42C360.11,287.67,364.12,286.46,364.3,287Z" style="fill:#e0e0e0"></path><path d="M366.31,313.58a5.44,5.44,0,0,1-7.23,2.45,5.31,5.31,0,0,1-2.58-7.11,5.44,5.44,0,0,1,7.23-2.46A5.32,5.32,0,0,1,366.31,313.58Z" style="fill:#e0e0e0"></path><path d="M366.37,311.65c-.51.1-1.93-5.39-2.24-12.26s-.31-12.32.17-12.38,1.43,5.5,1.72,12.3S366.88,311.55,366.37,311.65Z" style="fill:#e0e0e0"></path><path d="M364.64,290.64c.28.4-3.36,2.67-8.52,2.5s-8.7-2.6-8.41-3,3.82,1.05,8.45,1.15S364.41,290.14,364.64,290.64Z" style="fill:#e0e0e0"></path><rect x="55.95" y="234.2" width="27.77" height="5.39" style="fill:#f5f5f5"></rect><rect x="55.95" y="218.02" width="27.77" height="5.39" style="fill:#f5f5f5"></rect><rect x="55.95" y="201.84" width="27.77" height="5.39" style="fill:#f5f5f5"></rect><rect x="95.99" y="234.2" width="27.77" height="5.39" style="fill:#f5f5f5"></rect><rect x="95.99" y="218.02" width="27.77" height="5.39" style="fill:#f5f5f5"></rect><rect x="95.99" y="201.84" width="27.77" height="5.39" style="fill:#f5f5f5"></rect><rect x="95.99" y="185.66" width="27.77" height="5.39" style="fill:#f5f5f5"></rect><rect x="95.99" y="169.49" width="27.77" height="5.39" style="fill:#f5f5f5"></rect><rect x="95.99" y="153.31" width="27.77" height="5.39" style="fill:#f5f5f5"></rect><rect x="95.99" y="137.13" width="27.77" height="5.39" style="fill:#f5f5f5"></rect><rect x="95.99" y="120.95" width="27.77" height="5.39" style="fill:#f5f5f5"></rect><rect x="95.99" y="106.12" width="27.77" height="5.39" style="fill:#f5f5f5"></rect><rect x="95.99" y="89.95" width="27.77" height="5.39" style="fill:#f5f5f5"></rect><rect x="95.99" y="73.77" width="27.77" height="5.39" style="fill:#f5f5f5"></rect><rect x="95.99" y="57.59" width="27.77" height="5.39" style="fill:#f5f5f5"></rect><rect x="136.04" y="234.2" width="27.77" height="5.39" style="fill:#f5f5f5"></rect><rect x="136.04" y="218.02" width="27.77" height="5.39" style="fill:#f5f5f5"></rect><rect x="136.04" y="201.84" width="27.77" height="5.39" style="fill:#f5f5f5"></rect><rect x="136.04" y="185.66" width="27.77" height="5.39" style="fill:#f5f5f5"></rect><rect x="136.04" y="169.49" width="27.77" height="5.39" style="fill:#f5f5f5"></rect><rect x="333.76" y="234.2" width="27.77" height="5.39" style="fill:#f5f5f5"></rect><rect x="333.76" y="218.02" width="27.77" height="5.39" style="fill:#f5f5f5"></rect><rect x="333.76" y="201.84" width="27.77" height="5.39" style="fill:#f5f5f5"></rect><rect x="333.76" y="185.66" width="27.77" height="5.39" style="fill:#f5f5f5"></rect><rect x="333.76" y="169.49" width="27.77" height="5.39" style="fill:#f5f5f5"></rect><rect x="333.76" y="153.31" width="27.77" height="5.39" style="fill:#f5f5f5"></rect><rect x="333.76" y="137.13" width="27.77" height="5.39" style="fill:#f5f5f5"></rect><rect x="333.76" y="120.95" width="27.77" height="5.39" style="fill:#f5f5f5"></rect><rect x="373.81" y="234.2" width="27.77" height="5.39" style="fill:#f5f5f5"></rect><rect x="373.81" y="218.02" width="27.77" height="5.39" style="fill:#f5f5f5"></rect><rect x="373.81" y="201.84" width="27.77" height="5.39" style="fill:#f5f5f5"></rect><rect x="373.81" y="185.66" width="27.77" height="5.39" style="fill:#f5f5f5"></rect><rect x="373.81" y="169.49" width="27.77" height="5.39" style="fill:#f5f5f5"></rect><rect x="373.81" y="153.31" width="27.77" height="5.39" style="fill:#f5f5f5"></rect><rect x="373.81" y="137.13" width="27.77" height="5.39" style="fill:#f5f5f5"></rect><rect x="373.81" y="120.95" width="27.77" height="5.39" style="fill:#f5f5f5"></rect><rect x="373.81" y="106.12" width="27.77" height="5.39" style="fill:#f5f5f5"></rect><rect x="373.81" y="89.95" width="27.77" height="5.39" style="fill:#f5f5f5"></rect><rect x="373.81" y="73.77" width="27.77" height="5.39" style="fill:#f5f5f5"></rect><rect x="373.81" y="57.59" width="27.77" height="5.39" style="fill:#f5f5f5"></rect><rect x="413.86" y="234.2" width="27.77" height="5.39" style="fill:#f5f5f5"></rect><rect x="413.86" y="218.02" width="27.77" height="5.39" style="fill:#f5f5f5"></rect><rect x="413.86" y="201.84" width="27.77" height="5.39" style="fill:#f5f5f5"></rect><rect x="296.24" y="234.2" width="27.77" height="5.39" style="fill:#f5f5f5"></rect><rect x="296.24" y="218.02" width="27.77" height="5.39" style="fill:#f5f5f5"></rect><rect x="296.24" y="201.84" width="27.77" height="5.39" style="fill:#f5f5f5"></rect><rect x="296.24" y="185.66" width="27.77" height="5.39" style="fill:#f5f5f5"></rect><rect x="296.24" y="169.49" width="27.77" height="5.39" style="fill:#f5f5f5"></rect><rect x="176.09" y="234.2" width="27.77" height="5.39" style="fill:#f5f5f5"></rect><rect x="176.09" y="218.02" width="27.77" height="5.39" style="fill:#f5f5f5"></rect><rect x="176.09" y="201.84" width="27.77" height="5.39" style="fill:#f5f5f5"></rect><rect x="176.09" y="185.66" width="27.77" height="5.39" style="fill:#f5f5f5"></rect><rect x="176.09" y="169.49" width="27.77" height="5.39" style="fill:#f5f5f5"></rect><rect x="176.09" y="153.31" width="27.77" height="5.39" style="fill:#f5f5f5"></rect><rect x="176.09" y="137.13" width="27.77" height="5.39" style="fill:#f5f5f5"></rect><rect x="216.14" y="234.2" width="27.77" height="5.39" style="fill:#f5f5f5"></rect><rect x="216.14" y="218.02" width="27.77" height="5.39" style="fill:#f5f5f5"></rect><rect x="216.14" y="201.84" width="27.77" height="5.39" style="fill:#f5f5f5"></rect><rect x="256.19" y="234.2" width="27.77" height="5.39" style="fill:#f5f5f5"></rect><rect x="256.19" y="218.02" width="27.77" height="5.39" style="fill:#f5f5f5"></rect><rect x="256.19" y="201.84" width="27.77" height="5.39" style="fill:#f5f5f5"></rect><rect x="256.19" y="185.66" width="27.77" height="5.39" style="fill:#f5f5f5"></rect><rect x="256.19" y="169.49" width="27.77" height="5.39" style="fill:#f5f5f5"></rect><rect x="256.19" y="153.31" width="27.77" height="5.39" style="fill:#f5f5f5"></rect><rect x="256.19" y="137.13" width="27.77" height="5.39" style="fill:#f5f5f5"></rect><rect x="256.19" y="120.95" width="27.77" height="5.39" style="fill:#f5f5f5"></rect><rect x="111.58" y="347.01" width="69.27" height="120.19" transform="translate(292.43 814.21) rotate(180)" style="fill:#ebebeb"></rect><rect x="180.85" y="347.01" width="21.3" height="120.19" transform="translate(383 814.21) rotate(180)" style="fill:#e0e0e0"></rect><circle cx="143.36" cy="382.67" r="19.79" transform="translate(-178.77 131.23) rotate(-31.49)" style="fill:#e0e0e0"></circle><path d="M138.44,382.67a4.92,4.92,0,1,0,4.92-4.92A4.92,4.92,0,0,0,138.44,382.67Z" style="fill:#f5f5f5"></path><circle cx="143.36" cy="436.75" r="19.79" transform="translate(-303.96 330.87) rotate(-58.51)" style="fill:#e0e0e0"></circle><path d="M138.44,436.76a4.92,4.92,0,1,0,4.92-4.92A4.91,4.91,0,0,0,138.44,436.76Z" style="fill:#f5f5f5"></path><path d="M121.22,294.69a3,3,0,0,1-2,3.77,3.08,3.08,0,0,1-3.87-1.91,3,3,0,0,1,1.95-3.77A3.09,3.09,0,0,1,121.22,294.69Z" style="fill:#ebebeb"></path><path d="M120.48,293.88c-.11.15-2.79-1.6-5.63-4.27a52.29,52.29,0,0,1-5-5c.13-.15,2.62,1.83,5.43,4.49S120.58,293.73,120.48,293.88Z" style="fill:#ebebeb"></path><path d="M114.18,279.79c.18,0,.06,1.68-1.23,3.23s-2.93,2-3,1.85,1.3-.86,2.45-2.27S114,279.75,114.18,279.79Z" style="fill:#ebebeb"></path><path d="M116.35,282.06c.18,0,.13,1.66-1.24,3.08s-3.06,1.6-3.06,1.42,1.38-.6,2.57-1.87S116.15,282,116.35,282.06Z" style="fill:#ebebeb"></path><path d="M135.1,255.51a7.14,7.14,0,0,1-9.8-1.74,6.78,6.78,0,0,1,1.78-9.57,7.15,7.15,0,0,1,9.8,1.74A6.78,6.78,0,0,1,135.1,255.51Z" style="fill:#e0e0e0"></path><path d="M136.44,253.39c-.64-.2,1.38-7.24,5.58-15.12s7.79-14,8.37-13.76-2,7-6.19,14.84S137.08,253.6,136.44,253.39Z" style="fill:#e0e0e0"></path><path d="M168.28,238.33c0,.56-5.9.49-11.85-3.33a16.27,16.27,0,0,1-6-6.48c-1-2.11-.76-3.64-.47-3.65s.74,1.21,2,2.82a22.19,22.19,0,0,0,5.88,5.32C163.11,236.46,168.44,237.6,168.28,238.33Z" style="fill:#e0e0e0"></path><path d="M153,269.34a7.15,7.15,0,0,1-9.8-1.74A6.78,6.78,0,0,1,145,258a7.14,7.14,0,0,1,9.8,1.74A6.78,6.78,0,0,1,153,269.34Z" style="fill:#e0e0e0"></path><path d="M154.33,267.21c-.64-.2,1.38-7.23,5.58-15.11s7.79-14,8.37-13.77-2,7-6.19,14.85S155,267.42,154.33,267.21Z" style="fill:#e0e0e0"></path><path d="M166.27,242.6c0,.62-5.57.91-11.29-2.48s-8.12-8.32-7.53-8.57,3.62,3.55,8.79,6.53S166.34,241.9,166.27,242.6Z" style="fill:#e0e0e0"></path><path d="M155.57,318.68a2.09,2.09,0,0,1-2.83-.65,2,2,0,0,1,.66-2.77,2.09,2.09,0,0,1,2.83.65A2,2,0,0,1,155.57,318.68Z" style="fill:#e0e0e0"></path><path d="M156,318.08c-.18-.07.51-2.09,1.86-4.33s2.49-4,2.66-3.89-.7,2-2,4.24S156.17,318.15,156,318.08Z" style="fill:#e0e0e0"></path><path d="M165.51,314.16c0,.16-1.73,0-3.41-1.15a4.67,4.67,0,0,1-1.65-2c-.26-.63-.17-1.07-.08-1.07s.19.36.53.85a6.42,6.42,0,0,0,1.63,1.64C164,313.54,165.57,314,165.51,314.16Z" style="fill:#e0e0e0"></path><path d="M160.57,323a2.07,2.07,0,0,1-2.83-.65,2,2,0,0,1,.67-2.76,2.08,2.08,0,0,1,2.83.65A2,2,0,0,1,160.57,323Z" style="fill:#e0e0e0"></path><path d="M161,322.37c-.19-.06.51-2.09,1.85-4.32s2.49-4,2.66-3.89-.7,2-2,4.23S161.18,322.44,161,322.37Z" style="fill:#e0e0e0"></path><path d="M164.86,315.37c0,.18-1.64.19-3.26-.89s-2.24-2.54-2.06-2.61,1,1.09,2.46,2S164.89,315.17,164.86,315.37Z" style="fill:#e0e0e0"></path><path d="M302.57,270.35a2.09,2.09,0,0,1-2.83-.65,2,2,0,0,1,.67-2.77,2.09,2.09,0,0,1,2.83.65A2,2,0,0,1,302.57,270.35Z" style="fill:#e0e0e0"></path><path d="M303,269.75c-.19-.07.51-2.09,1.86-4.33s2.49-4,2.65-3.89-.69,2-2,4.24S303.18,269.82,303,269.75Z" style="fill:#e0e0e0"></path><path d="M312.52,265.83c0,.16-1.73.05-3.41-1.15a4.78,4.78,0,0,1-1.66-2c-.26-.63-.16-1.07-.08-1.07s.2.36.53.85a6.48,6.48,0,0,0,1.64,1.64C311,265.21,312.58,265.62,312.52,265.83Z" style="fill:#e0e0e0"></path><path d="M307.58,274.64a2.07,2.07,0,0,1-2.83-.65,2,2,0,0,1,.66-2.76,2.09,2.09,0,0,1,2.84.65A2,2,0,0,1,307.58,274.64Z" style="fill:#e0e0e0"></path><path d="M308,274c-.18-.06.52-2.08,1.86-4.32s2.49-4,2.66-3.89-.7,2-2,4.23S308.19,274.12,308,274Z" style="fill:#e0e0e0"></path><path d="M311.86,267c0,.18-1.64.19-3.25-.89s-2.24-2.54-2.06-2.61,1,1.09,2.46,2S311.89,266.84,311.86,267Z" style="fill:#e0e0e0"></path><path d="M357.6,244a5,5,0,0,1-3.29,6.36,5.19,5.19,0,0,1-6.51-3.21,5,5,0,0,1,3.29-6.36A5.18,5.18,0,0,1,357.6,244Z" style="fill:#e0e0e0"></path><path d="M356.35,242.67c-.17.25-4.7-2.69-9.48-7.2s-8.56-8.16-8.38-8.38,4.41,3.07,9.16,7.57S356.54,242.42,356.35,242.67Z" style="fill:#e0e0e0"></path><path d="M345.74,218.9c.3,0,.1,2.84-2.08,5.45s-4.94,3.41-5,3.13,2.2-1.45,4.13-3.83S345.41,218.83,345.74,218.9Z" style="fill:#e0e0e0"></path><path d="M349.39,222.73c.3,0,.23,2.8-2.08,5.2s-5.17,2.7-5.16,2.4,2.33-1,4.32-3.16S349.06,222.67,349.39,222.73Z" style="fill:#e0e0e0"></path></g><g id="freepik--Plants--inject-129"><path d="M126,282.25c-9.62,5-17,13.57-22.31,23S95,325.1,91.58,335.4l-3,53.1c11.2-19.05,20.19-41.45,22.62-63.42l-7.46-.66c5-.77,9.2-4.39,11.86-8.68s4-9.24,5.39-14.12L111.94,303A33.66,33.66,0,0,0,126,282.25Z" style="fill:#455a64"></path><g style="opacity:0.30000000000000004"><path d="M126,282.25c-9.62,5-17,13.57-22.31,23S95,325.1,91.58,335.4l-3,53.1c11.2-19.05,20.19-41.45,22.62-63.42l-7.46-.66c5-.77,9.2-4.39,11.86-8.68s4-9.24,5.39-14.12L111.94,303A33.66,33.66,0,0,0,126,282.25Z"></path></g><path d="M87,400.94s-24.31-29.09-24-56.87h9.82s-10.66-7-9.82-10.94,1.13-18.8,1.13-18.8l9,2.24s-6.73-3.36-7.57-8.69,2-30,2-30,10.94,11.5,14.31,23.28,12.21,25.54,9.61,61.45S87,400.94,87,400.94Z" style="fill:#455a64"></path><path d="M99.29,403.69s26.33-17.55,32.18-39.94l-7.89-2.15s10.11-3.3,10.29-6.65,3.21-15.35,3.21-15.35l-7.71-.16s6.15-1.24,8-5.34,5-24.56,5-24.56-11.31,6.85-16.6,15.59-15.4,17.85-21.17,47.29S99.29,403.69,99.29,403.69Z" style="fill:#455a64"></path><path d="M74.06,303.23a1.11,1.11,0,0,1,.09.3l.22.89c.18.82.44,2,.78,3.45s.73,3.34,1.16,5.48.94,4.57,1.43,7.27c1,5.4,2.14,11.85,3.28,19s2.19,15.1,3.16,23.42,1.7,16.29,2.26,23.53.94,13.78,1.15,19.27c.14,2.74.2,5.23.27,7.41s.1,4.06.12,5.6,0,2.69,0,3.53c0,.39,0,.69,0,.92a1.14,1.14,0,0,1,0,.32,1.3,1.3,0,0,1,0-.31c0-.24,0-.54,0-.92,0-.85-.07-2-.13-3.54s-.1-3.41-.2-5.59-.19-4.66-.34-7.4c-.27-5.49-.7-12-1.26-19.25s-1.35-15.18-2.3-23.51-2.06-16.22-3.13-23.4-2.17-13.63-3.16-19c-.47-2.7-.95-5.14-1.36-7.28s-.76-4-1.07-5.5-.52-2.64-.68-3.47c-.07-.37-.13-.67-.17-.9A1.88,1.88,0,0,1,74.06,303.23Z" style="fill:#263238"></path><path d="M83.59,418.76s-22.25-25.24-29.15-40.5L59.65,376c-3.78.63-7.65-1-10.58-3.47s-5.08-5.71-7.19-8.9l6.86-1.16a25.55,25.55,0,0,1-15-11.63c8.1,1.33,15.44,5.78,21.48,11.35a107.69,107.69,0,0,1,13,15.08,51.46,51.46,0,0,1,5.05,8.31C77,393.34,83.6,409.49,83.59,418.76Z" style="fill:#455a64"></path><path d="M131.82,324.23a.84.84,0,0,1-.1.26l-.34.73c-.32.68-.77,1.61-1.34,2.8-1.19,2.43-2.88,6-4.92,10.33-4.09,8.75-9.48,21-14.8,34.7s-9.53,26.41-12.39,35.63c-1.44,4.61-2.56,8.35-3.31,10.95-.38,1.26-.68,2.26-.89,3-.1.31-.18.57-.24.77s-.1.26-.1.26a.78.78,0,0,1,0-.27c.06-.21.12-.47.2-.79.19-.73.46-1.73.79-3,.69-2.61,1.77-6.37,3.15-11,2.78-9.25,7-21.95,12.27-35.71s10.77-25.95,15-34.67c2.08-4.36,3.82-7.86,5.06-10.26l1.44-2.76.39-.71A1.5,1.5,0,0,1,131.82,324.23Z" style="fill:#263238"></path><path d="M85.48,429.58a1.6,1.6,0,0,1-.12-.47c-.06-.36-.13-.81-.22-1.34-.17-1.16-.47-2.84-.88-4.9s-1-4.51-1.7-7.19-1.68-5.59-2.8-8.59-2.38-5.8-3.58-8.31-2.41-4.7-3.47-6.52S70.76,389,70.12,388l-.71-1.15c-.16-.27-.24-.41-.22-.42a1.55,1.55,0,0,1,.3.36c.22.3.49.66.8,1.1.7,1,1.64,2.38,2.74,4.19s2.32,4,3.58,6.49,2.49,5.32,3.63,8.33,2.05,6,2.78,8.66,1.25,5.16,1.61,7.24.6,3.77.71,4.95c0,.53.09,1,.13,1.35A2.53,2.53,0,0,1,85.48,429.58Z" style="fill:#263238"></path><rect x="66.14" y="423.64" width="48.69" height="9.93" style="fill:#708bfc"></rect><polygon points="70.78 433.57 76.05 466.98 105.47 466.98 110.38 433.57 70.78 433.57" style="fill:#708bfc"></polygon><path d="M111.84,433.57c0,.14-9.21.26-20.57.26s-20.57-.12-20.57-.26,9.21-.26,20.57-.26S111.84,433.43,111.84,433.57Z" style="fill:#263238"></path><path d="M404.37,374.53a48.66,48.66,0,0,1,46.41-12.73,84.54,84.54,0,0,1-47,14.67" style="fill:#455a64"></path><path d="M420.11,318.79c-1.93-13.68,3.38-29.06,13.62-39,.34,13.55-5.38,28.8-13.62,39" style="fill:#455a64"></path><path d="M411.92,344.63a73.09,73.09,0,0,1,33.54-32.06,46.07,46.07,0,0,1-33.66,32.2" style="fill:#455a64"></path><path d="M410.23,349.61c8.26.23,16.62-.06,24.61-2.17s15.64-6.18,21-12.51a82.25,82.25,0,0,0-45.44,13.88" style="fill:#455a64"></path><path d="M414.42,333.19c-4.19-15.71-11.11-26.58-23.46-35.39a32.69,32.69,0,0,0,23.46,35.39" style="fill:#455a64"></path><path d="M383.24,360.29a23.26,23.26,0,0,1,14.13-21.54c-.68,8.11-7.06,17.5-14.13,21.54" style="fill:#455a64"></path><path d="M379.29,347a34.64,34.64,0,0,0-22.7-29.56c2.85,13.13,10.44,24.06,22.7,29.56" style="fill:#455a64"></path><path d="M385.24,370.56c-2.91-4.17-7.67-6.76-12.58-8.05s-10.06-1.4-15.14-1.51a35.35,35.35,0,0,0,27.33,11.39" style="fill:#455a64"></path><path d="M391.15,404.05a38.79,38.79,0,0,0-47.37,22.44c17.21-3.27,34.19-10.91,47.37-22.44" style="fill:#455a64"></path><path d="M410,392.41c-2.86,8.45-2.31,18.66,4,25.94a31,31,0,0,0-4-25.94" style="fill:#455a64"></path><path d="M421.19,387.72a31.79,31.79,0,0,0,17.55,25.79,2,2,0,0,0,1.55.25c.78-.31.85-1.37.75-2.2-1.24-10.82-9.26-21.29-19.85-23.84" style="fill:#455a64"></path><path d="M428.48,386.62a26.05,26.05,0,0,0,38.07.19c-12.1-1.32-26.06-2.2-38.07-.19" style="fill:#455a64"></path><path d="M430.29,289.87a2,2,0,0,1-.11.35l-.37,1-1.46,3.91c-.65,1.7-1.4,3.79-2.27,6.22-.44,1.21-.91,2.51-1.4,3.88l-1.52,4.38c-2.14,6.13-4.52,13.49-7.09,21.68s-5.18,17.26-7.78,26.82-4.86,18.72-6.8,27.09-3.51,15.93-4.68,22.32c-.3,1.59-.59,3.11-.86,4.55s-.47,2.8-.69,4.07c-.44,2.54-.81,4.73-1.06,6.53s-.49,3.16-.64,4.13c-.07.46-.13.81-.18,1.08a2.08,2.08,0,0,1-.07.36,1.71,1.71,0,0,1,0-.37c0-.27.07-.62.13-1.08.13-1,.31-2.37.55-4.15s.57-4,1-6.54c.2-1.28.42-2.64.65-4.08s.54-3,.83-4.56c1.13-6.4,2.72-14,4.59-22.36s4.19-17.54,6.76-27.12,5.27-18.62,7.82-26.82,5-15.54,7.19-21.66c.55-1.53,1.06-3,1.55-4.36s1-2.67,1.43-3.88c.9-2.42,1.67-4.5,2.35-6.19l1.54-3.89c.18-.42.31-.76.41-1A1.68,1.68,0,0,1,430.29,289.87Z" style="fill:#263238"></path><path d="M363.81,324.49s.08.06.21.19l.58.61c.5.54,1.24,1.35,2.15,2.41a84.14,84.14,0,0,1,7.13,9.5,63.82,63.82,0,0,1,7.45,15.94c2,6.35,3.23,13.56,4.47,21.1,2.46,15.09,5.48,28.6,7.66,38.38,1.1,4.87,2,8.81,2.62,11.58.3,1.34.54,2.4.7,3.15.07.34.13.61.17.82a.85.85,0,0,1,0,.28s0-.09-.08-.27-.13-.48-.22-.81c-.18-.75-.45-1.8-.78-3.13-.66-2.76-1.6-6.69-2.77-11.55-2.26-9.75-5.34-23.27-7.8-38.38-1.23-7.54-2.46-14.73-4.42-21a64.14,64.14,0,0,0-7.32-15.89,90.12,90.12,0,0,0-7-9.56c-.89-1.08-1.6-1.91-2.08-2.47l-.54-.63A2.12,2.12,0,0,1,363.81,324.49Z" style="fill:#263238"></path><path d="M432.09,386.11a2.26,2.26,0,0,1-.43.08l-1.26.13-.9.09-1.07.16c-.77.12-1.64.23-2.6.44l-1.5.3-1.61.41c-1.12.25-2.28.66-3.51,1a51.71,51.71,0,0,0-7.67,3.38,43.89,43.89,0,0,0-6.87,4.77c-.95.87-1.87,1.68-2.63,2.53a26.92,26.92,0,0,0-2.09,2.41,25.66,25.66,0,0,0-1.54,2.13,17.34,17.34,0,0,0-1.06,1.68c-.26.44-.47.79-.64,1.09s-.24.37-.26.36a2.1,2.1,0,0,1,.17-.41c.16-.3.35-.67.57-1.13a14.79,14.79,0,0,1,1-1.73,24.77,24.77,0,0,1,1.5-2.19,26.85,26.85,0,0,1,2.07-2.47,36,36,0,0,1,2.63-2.59,42,42,0,0,1,6.93-4.85,48.94,48.94,0,0,1,7.75-3.38c1.25-.36,2.42-.76,3.56-1l1.62-.39,1.52-.27c1-.19,1.85-.28,2.63-.37l1.08-.13.91,0,1.26-.06A1.49,1.49,0,0,1,432.09,386.11Z" style="fill:#263238"></path><path d="M435.54,324.78a6.57,6.57,0,0,1-.87.84l-2.49,2.16c-2.12,1.81-5.06,4.28-8.33,7s-6.25,5.15-8.42,6.9l-2.59,2a5.16,5.16,0,0,1-1,.7,6.57,6.57,0,0,1,.87-.84l2.49-2.16c2.12-1.81,5.06-4.28,8.33-7s6.25-5.15,8.42-6.89l2.58-2A5.37,5.37,0,0,1,435.54,324.78Z" style="fill:#263238"></path><path d="M438.52,340.79c0,.12-6.32,2.1-14.2,4.43s-14.28,4.11-14.32,4,6.32-2.11,14.19-4.43S438.48,340.66,438.52,340.79Z" style="fill:#263238"></path><path d="M415.05,334.41a4.79,4.79,0,0,1-.65-.91L412.72,331c-1.42-2.15-3.44-5.08-5.82-8.21s-4.69-5.84-6.38-7.78l-2-2.3a5.76,5.76,0,0,1-.7-.87,6,6,0,0,1,.84.75c.51.51,1.24,1.26,2.12,2.2,1.76,1.89,4.11,4.59,6.5,7.72s4.38,6.11,5.74,8.31c.67,1.1,1.2,2,1.55,2.64A5.1,5.1,0,0,1,415.05,334.41Z" style="fill:#263238"></path><path d="M393,343.3a19.74,19.74,0,0,1-1.49,2.45c-.95,1.49-2.24,3.57-3.57,5.91s-2.46,4.51-3.26,6.09a21.54,21.54,0,0,1-1.34,2.54,14,14,0,0,1,1.05-2.68c.72-1.62,1.81-3.82,3.15-6.18s2.68-4.41,3.7-5.86A14.81,14.81,0,0,1,393,343.3Z" style="fill:#263238"></path><path d="M385.43,371c0,.07-1.24-.53-3.23-1.42s-4.75-2.06-7.88-3.16-6-1.91-8.14-2.45-3.42-.83-3.41-.9a4.17,4.17,0,0,1,1,.1c.6.09,1.47.25,2.54.49a67.47,67.47,0,0,1,8.21,2.33,70.07,70.07,0,0,1,7.87,3.29c1,.49,1.76.9,2.29,1.21A3.87,3.87,0,0,1,385.43,371Z" style="fill:#263238"></path><path d="M391.38,404.1a1.6,1.6,0,0,1-.4.14l-1.14.29-4.23,1a140.58,140.58,0,0,0-13.8,3.65,60.8,60.8,0,0,0-12.88,6.05c-1.54,1-2.74,1.84-3.55,2.47a10.44,10.44,0,0,1-1.28.94,1.7,1.7,0,0,1,.29-.3c.2-.18.48-.46.88-.78a36.41,36.41,0,0,1,3.48-2.61,56.85,56.85,0,0,1,12.91-6.21,115,115,0,0,1,13.88-3.53l4.26-.83A10.79,10.79,0,0,1,391.38,404.1Z" style="fill:#263238"></path><path d="M412.87,412.26c-.13,0-.88-4.44-1.69-9.95s-1.36-10-1.23-10,.88,4.43,1.69,9.95S413,412.25,412.87,412.26Z" style="fill:#263238"></path><path d="M435.25,404.14a23.35,23.35,0,0,1-2-2.4c-1.21-1.5-2.88-3.58-4.78-5.83s-3.65-4.27-4.92-5.72a21.32,21.32,0,0,1-2-2.4,3.38,3.38,0,0,1,.64.55c.39.38.94.93,1.61,1.63,1.34,1.4,3.14,3.38,5,5.64s3.54,4.37,4.68,5.93c.58.78,1,1.42,1.33,1.87A2.82,2.82,0,0,1,435.25,404.14Z" style="fill:#263238"></path><polygon points="376.03 424.89 376.03 435.95 378.79 435.95 388.62 466.98 410.42 466.98 419.94 436.26 423.63 435.95 423.63 424.89 376.03 424.89" style="fill:#708bfc"></polygon><path d="M421.78,436.26c0,.13-9.62.23-21.49.23s-21.5-.1-21.5-.23,9.62-.23,21.5-.23S421.78,436.13,421.78,436.26Z" style="fill:#263238"></path><path d="M437.46,365.13a9.33,9.33,0,0,1-1.4.38l-3.82.92c-3.23.8-7.66,2-12.46,3.62s-9.06,3.33-12.11,4.64l-3.61,1.58a8.05,8.05,0,0,1-1.34.54,8.38,8.38,0,0,1,1.26-.7c.83-.43,2-1,3.55-1.72a125.35,125.35,0,0,1,24.63-8.28c1.63-.36,2.95-.62,3.87-.78A8.48,8.48,0,0,1,437.46,365.13Z" style="fill:#263238"></path><path d="M414.55,453.49c0,.12-6.76.23-15.09.23s-15.08-.11-15.08-.23,6.75-.23,15.08-.23S414.55,453.36,414.55,453.49Z" style="fill:#fafafa"></path><path d="M415.39,450.92c0,.13-7.15.23-16,.23s-16-.1-16-.23,7.15-.23,16-.23S415.39,450.79,415.39,450.92Z" style="fill:#fafafa"></path></g><g id="freepik--Character--inject-129"><path d="M223.3,430.9l1.08,23.42s-23.44,9-23.66,13.33l45.5-.49L246,430.6Z" style="fill:#263238"></path><path d="M238.43,452.2a1.87,1.87,0,0,1,1.31,2.11,1.79,1.79,0,0,1-2.08,1.31,2,2,0,0,1-1.37-2.23,1.85,1.85,0,0,1,2.31-1.13" style="fill:#e0e0e0"></path><path d="M246.22,467.16l-.17-3.68-43.56,1.84s-2,.9-1.77,2.33Z" style="fill:#455a64"></path><path d="M223.64,454.1c0,.22,1.13.31,2.23,1s1.69,1.63,1.89,1.54-.14-1.37-1.49-2.19S223.59,453.9,223.64,454.1Z" style="fill:#fff"></path><path d="M218.89,456.12c0,.22.92.59,1.69,1.52s1,1.92,1.21,1.91.35-1.27-.62-2.41S218.9,455.91,218.89,456.12Z" style="fill:#fff"></path><path d="M216.24,461.86c.21.05.5-1.06-.08-2.28s-1.63-1.68-1.72-1.49.56.83,1,1.83S216,461.84,216.24,461.86Z" style="fill:#fff"></path><path d="M224,448.73c.09.2,1.11-.11,2.37,0s2.24.46,2.35.27-.84-1-2.32-1S223.88,448.56,224,448.73Z" style="fill:#fff"></path><path d="M278,433.16l2.46,28.26L276,484.34a2.9,2.9,0,0,0,2.49,3.44h0a2.9,2.9,0,0,0,2.5-.91c4-4.42,18.46-20.95,18.46-22.47,0-2.41-.49-30.33-.49-30.33Z" style="fill:#263238"></path><path d="M278.48,487.78l21-25.64.07,1.2a4.54,4.54,0,0,1-.85,2.9c-1.66,2.23-6.39,8.28-17.61,20.62a2.89,2.89,0,0,1-2.58.92Z" style="fill:#455a64"></path><g style="opacity:0.6000000000000001"><path d="M293.05,453.38a1.76,1.76,0,0,0-.33,2.33,1.7,1.7,0,0,0,2.3.35,1.88,1.88,0,0,0,.34-2.47,1.77,1.77,0,0,0-2.44-.1" style="fill:#fff"></path></g><path d="M284.15,475a8.63,8.63,0,0,0-2.62-2.05,8.77,8.77,0,0,0-3.3-.41c0-.07.31-.31,1-.45a4.65,4.65,0,0,1,4.58,1.9C284.15,474.55,284.22,475,284.15,475Z" style="fill:#fff"></path><path d="M282.38,478.92a24.92,24.92,0,0,0-2.59-1.06,22.64,22.64,0,0,0-2.78-.18c-.1-.14,1.23-.83,2.92-.43S282.52,478.83,282.38,478.92Z" style="fill:#fff"></path><path d="M287.6,469.9c-.13.14-1.61-1.2-3.89-1.9s-4.24-.53-4.26-.71,2-.68,4.45.11S287.73,469.81,287.6,469.9Z" style="fill:#fff"></path><path d="M287.56,461.24c-.06.18-1.67-.38-3.71-.32s-3.62.65-3.69.48,1.49-1.07,3.68-1.1S287.65,461.1,287.56,461.24Z" style="fill:#fff"></path><path d="M287.05,452.93c-.08.17-1.71-.68-3.85-.44s-3.59,1.33-3.7,1.18.24-.43.87-.85a6.12,6.12,0,0,1,2.77-.95,6.28,6.28,0,0,1,2.9.39C286.73,452.55,287.09,452.86,287.05,452.93Z" style="fill:#fff"></path><path d="M283.15,450.9a2.23,2.23,0,0,1-.11-1.06,7.41,7.41,0,0,1,.67-2.86,3.3,3.3,0,0,1,1.31-1.67,1.18,1.18,0,0,1,1.33.17,1.88,1.88,0,0,1,.53,1.25,4.11,4.11,0,0,1-3.35,4,4.78,4.78,0,0,1-4.83-2.19,1.66,1.66,0,0,1-.16-1.37,1.14,1.14,0,0,1,1.15-.68,4,4,0,0,1,1.93.85,8.15,8.15,0,0,1,2.07,2.08,2.41,2.41,0,0,1,.5.95,12.83,12.83,0,0,0-2.81-2.66,3.74,3.74,0,0,0-1.7-.7.6.6,0,0,0-.63.37,1.08,1.08,0,0,0,.16.89,4.27,4.27,0,0,0,4.21,1.85,3.57,3.57,0,0,0,2.89-3.38,1.4,1.4,0,0,0-.33-.89.62.62,0,0,0-.73-.1,2.91,2.91,0,0,0-1.14,1.39A10.72,10.72,0,0,0,283.15,450.9Z" style="fill:#fff"></path><path d="M200.41,238.81a100.72,100.72,0,0,0-2.2,29.63c.49,6.29,21.73,180.48,21.73,180.48h28.69l-8.06-163.71,2.35.51s15.66,69.82,16.93,81.12c1.15,10.16,14.36,84,14.36,84l26.23.31-8.38-97.65-9.75-93.69-3.66-27.27Z" style="fill:#455a64"></path><path d="M245.09,268.51a5.65,5.65,0,0,1-1.2.67,13.3,13.3,0,0,1-3.55,1.24,7.28,7.28,0,0,1-2.64,0,5.47,5.47,0,0,1-2.77-1.32,6.59,6.59,0,0,1-1.67-2.93c-.34-1.12-.53-2.28-.77-3.45-.91-4.73-1.53-9-1.9-12.17-.18-1.57-.3-2.84-.36-3.72a5.72,5.72,0,0,1,0-1.37,5.6,5.6,0,0,1,.27,1.34c.15,1,.34,2.23.56,3.69.47,3.11,1.15,7.4,2.07,12.11.46,2.33.77,4.7,2.23,6.09a6,6,0,0,0,5,1.29,16,16,0,0,0,3.53-1A6.29,6.29,0,0,1,245.09,268.51Z" style="fill:#263238"></path><path d="M236.46,246.3s.18-.15.59-.17a2.57,2.57,0,0,1,1.6.51,2.91,2.91,0,0,1,1.21,2.22,2.85,2.85,0,0,1-4.84,1.82,2.9,2.9,0,0,1-.55-2.47,2.56,2.56,0,0,1,.87-1.44c.32-.25.55-.28.56-.26a3.24,3.24,0,0,0-1,1.78,2.49,2.49,0,0,0,.55,2,2.33,2.33,0,0,0,3.86-1.45,2.56,2.56,0,0,0-.91-1.88A3.23,3.23,0,0,0,236.46,246.3Z" style="fill:#263238"></path><path d="M281.92,258.11a3.39,3.39,0,0,1-1,.15,17.45,17.45,0,0,1-2.69,0,26.08,26.08,0,0,1-16.11-6.78,19.06,19.06,0,0,1-1.86-1.95c-.4-.49-.6-.77-.57-.8s1,1,2.72,2.43a29.22,29.22,0,0,0,7.42,4.54,29.54,29.54,0,0,0,8.43,2.14C280.51,258.08,281.91,258,281.92,258.11Z" style="fill:#263238"></path><path d="M212.18,246.83a12.09,12.09,0,0,1-1.49,2.92,32.83,32.83,0,0,1-5,6.18,33.31,33.31,0,0,1-6.31,4.8,12.06,12.06,0,0,1-3,1.4c0-.08,1.06-.67,2.74-1.77a39.78,39.78,0,0,0,11.15-10.84A28.61,28.61,0,0,1,212.18,246.83Z" style="fill:#263238"></path><path d="M281.76,363.83a74.76,74.76,0,0,1-5.85-6.26,71.64,71.64,0,0,1-5.46-6.6,68.32,68.32,0,0,1,5.85,6.25A67.61,67.61,0,0,1,281.76,363.83Z" style="fill:#263238"></path><path d="M224.16,355.08a26.27,26.27,0,0,1-2.61,4.51,26,26,0,0,1-3,4.23,24.75,24.75,0,0,1,2.61-4.51A26.53,26.53,0,0,1,224.16,355.08Z" style="fill:#263238"></path><path d="M280.9,257.74a3.71,3.71,0,0,1,.29.67c.18.43.42,1.09.71,1.94a70.63,70.63,0,0,1,2.07,7.31,78.21,78.21,0,0,1,1.7,11.16,16.5,16.5,0,0,1-.41,6.69,4.14,4.14,0,0,1-6.08,2.52,7.68,7.68,0,0,1-2.75-2.49,23.5,23.5,0,0,1-1.8-3.06,46.87,46.87,0,0,1-2.59-6.16,72.12,72.12,0,0,1-2.71-11c-.55-3.16-.88-5.74-1.1-7.52-.09-.85-.17-1.53-.23-2a4.83,4.83,0,0,1-.05-.72,3.49,3.49,0,0,1,.15.71c.09.52.2,1.19.33,2,.29,1.77.67,4.33,1.27,7.48a75.45,75.45,0,0,0,2.79,10.86,48.18,48.18,0,0,0,2.59,6.08,24.5,24.5,0,0,0,1.76,3,7.33,7.33,0,0,0,2.57,2.32,4,4,0,0,0,3.28.22,4,4,0,0,0,2.09-2.44,16.25,16.25,0,0,0,.41-6.49,82.27,82.27,0,0,0-1.58-11.11c-.67-3.13-1.38-5.62-1.9-7.33l-.62-2A3.45,3.45,0,0,1,280.9,257.74Z" style="fill:#e0e0e0"></path><path d="M278.08,257.62a1.13,1.13,0,0,1,.1.24l.22.73c.19.63.47,1.58.79,2.8.65,2.44,1.51,6,2.36,10.44s1.63,9.77,2.16,15.73c.25,3,.43,6.11.52,9.36a20.71,20.71,0,0,1,0,2.49,4.83,4.83,0,0,1-.83,2.47,3,3,0,0,1-2.35,1.29A4.23,4.23,0,0,1,278.6,302a5.36,5.36,0,0,1-1.6-2.13c-.32-.79-.63-1.58-.94-2.36-.59-1.57-1.17-3.12-1.69-4.67-1.05-3.07-2-6.07-2.78-9-1.61-5.76-2.75-11-3.6-15.46s-1.4-8.06-1.75-10.56c-.19-1.25-.3-2.22-.39-2.88,0-.31-.06-.55-.08-.75a.74.74,0,0,1,0-.26.83.83,0,0,1,.06.25c0,.2.08.44.14.74.11.7.28,1.66.48,2.87.41,2.49,1,6.09,1.92,10.52s2.07,9.67,3.69,15.4c.8,2.88,1.75,5.86,2.8,8.93.53,1.53,1.11,3.08,1.7,4.65.31.77.62,1.56.93,2.35a4.89,4.89,0,0,0,1.46,1.93,3.8,3.8,0,0,0,2.11,1,2.5,2.5,0,0,0,1.92-1.08c.93-1.29.79-3,.75-4.63-.08-3.24-.25-6.37-.49-9.34-.5-5.94-1.25-11.27-2.05-15.71s-1.6-8-2.19-10.45c-.29-1.2-.52-2.14-.69-2.83-.07-.3-.13-.54-.17-.73A2.46,2.46,0,0,1,278.08,257.62Z" style="fill:#e0e0e0"></path><path d="M251.27,81.27c-1.77-7.83-7.76-18.88-13.82-21.22-5.39-2.07-10.58-4.64-16.12-3-11.92,3.49-20.88-5.59-26.78,5.34-2.78,5.16-6,28.75-4.38,34.37,1.17,4,3.92,7.24,6.72,10.29q4,4.32,8.24,8.35l30.7,3.64C242.55,106,254.37,95,251.27,81.27Z" style="fill:#455a64"></path><g style="opacity:0.30000000000000004"><path d="M200.88,83.06a168.74,168.74,0,0,0-5-19.89c-4.54,6-4.82,14-4.92,21.56-.06,4.11-.11,8.27.88,12.26s4.79,8,8.27,10.17l2.25-3C203.71,97.48,202,89.81,200.88,83.06Z"></path></g><path d="M237.72,83.82a92.27,92.27,0,0,0,3.66-15.58,32.37,32.37,0,0,0-1.65-15.78c-.3-.75-2.83-5.79-3.63-5.69-.58.07,1,4.79.74,5.29-2.66,4.84-3.28,10.6-2.7,16.1a72.13,72.13,0,0,0,3.58,15.66" style="fill:#263238"></path><path d="M193.5,63a23.94,23.94,0,0,1,22.1-23.82l1.24-.1c13.4-.26,21.1,11,21,24.38L239.51,119,208.74,119s-.44-11.56-.47-11.56-13-1-14.13-13.8C193.58,87.41,193.47,74.58,193.5,63Z" style="fill:#c78976"></path><path d="M208.2,107.4a31,31,0,0,0,16.31-6.23s-3.19,10.08-16.07,9.92Z" style="fill:#8b5d54"></path><path d="M199.77,72.77a1.84,1.84,0,0,0,1.91,1.71,1.75,1.75,0,0,0,1.75-1.8,1.83,1.83,0,0,0-1.9-1.71A1.75,1.75,0,0,0,199.77,72.77Z" style="fill:#263238"></path><path d="M197.48,68.58c.25.23,1.56-.91,3.53-1.06s3.49.73,3.68.47-.16-.53-.83-.94a5,5,0,0,0-3-.67,4.85,4.85,0,0,0-2.78,1.15C197.54,68,197.36,68.49,197.48,68.58Z" style="fill:#263238"></path><path d="M217.7,71.73a1.84,1.84,0,0,0,1.91,1.71,1.76,1.76,0,0,0,1.76-1.8,1.84,1.84,0,0,0-1.91-1.71A1.76,1.76,0,0,0,217.7,71.73Z" style="fill:#263238"></path><path d="M215.94,67.36c.24.22,1.55-.91,3.52-1.06s3.49.73,3.69.47-.17-.53-.84-.94a5,5,0,0,0-3-.67,4.88,4.88,0,0,0-2.78,1.15C216,66.82,215.82,67.27,215.94,67.36Z" style="fill:#263238"></path><path d="M210.05,83.05a13.2,13.2,0,0,0-3.24-.33c-.51,0-1-.07-1.11-.41a2.63,2.63,0,0,1,.22-1.52c.38-1.25.78-2.56,1.19-3.94,1.64-5.62,2.79-10.22,2.56-10.28s-1.74,4.43-3.38,10.05c-.39,1.38-.77,2.7-1.12,4a2.88,2.88,0,0,0-.11,2,1.26,1.26,0,0,0,.88.67,3.87,3.87,0,0,0,.87,0A13.06,13.06,0,0,0,210.05,83.05Z" style="fill:#263238"></path><path d="M215.09,59.88c.29.48,2-.16,4-.35s3.87,0,4-.48c.07-.25-.33-.68-1.1-1a6.37,6.37,0,0,0-3.18-.47,6.1,6.1,0,0,0-3,1.1C215.24,59.15,215,59.64,215.09,59.88Z" style="fill:#263238"></path><path d="M197.76,65.41c.37.43,1.71-.11,3.34-.22s3,.13,3.33-.35c.13-.24-.12-.68-.75-1.07a4.56,4.56,0,0,0-2.75-.58,4.69,4.69,0,0,0-2.62,1C197.76,64.73,197.6,65.2,197.76,65.41Z" style="fill:#263238"></path><path d="M237.45,73c.21-.11,8.6-3.29,9,5.5s-8.51,7.37-8.53,7.12S237.45,73,237.45,73Z" style="fill:#c78976"></path><path d="M240.46,82.17s.16.1.42.21a1.58,1.58,0,0,0,1.15,0c.91-.38,1.62-1.89,1.59-3.48a4.9,4.9,0,0,0-.53-2.17,1.75,1.75,0,0,0-1.2-1.12A.77.77,0,0,0,241,76c-.11.25,0,.42-.09.44s-.2-.14-.14-.51a.93.93,0,0,1,.32-.56,1.15,1.15,0,0,1,.83-.26,2.14,2.14,0,0,1,1.66,1.28,5.28,5.28,0,0,1,.65,2.43c0,1.77-.81,3.47-2.06,3.9a1.65,1.65,0,0,1-1.41-.17C240.48,82.38,240.43,82.19,240.46,82.17Z" style="fill:#8b5d54"></path><path d="M198.57,48.19c-1.45-.73,2.65-5.5,6.09-7.21,5.19-2.59,13.21-4.37,18.13-3.17,5.93,1.45,10.91,4.19,14.05,9.42a34.55,34.55,0,0,1,4.53,17.51,10.4,10.4,0,0,1-1,5.41c-1.16,2-3.47,3.3-3.26,6a3.66,3.66,0,0,1-.82,2.71c-1.54,1.77-3.57.24-4.53-1.34-2.06-3.37-2.43-7.47-2.75-11.41a25.86,25.86,0,0,1,.25-8.38c.38-1.48,1-2.89,1.31-4.39a5.31,5.31,0,0,0-.78-4.37,5.37,5.37,0,0,0-.75-.69,9.15,9.15,0,0,0-9.15-1.4c-4.89,1.94-13.24,4.87-15.51,3.27-3.27-2.3-4.09-3.85-4.09-3.85Z" style="fill:#263238"></path><path d="M235.91,45.47s11.46,23.83.05,48a72.72,72.72,0,0,0-5.27,16.9c-1.16,5.79-1,12.14,2.12,17.17.62-1.85,2.25-9.35,5-14s6.59-8.62,9.42-13.2,5.59-11.21,5.16-16.57c0,0-1.82-10.08-2.43-14.52C249.17,63.57,244.24,50.76,235.91,45.47Z" style="fill:#455a64"></path><path d="M241.65,56.07a5,5,0,0,1,.42.62,17.27,17.27,0,0,1,1.05,1.88,25.55,25.55,0,0,1,2.27,7.58,37.35,37.35,0,0,1-.3,11.74A74.53,74.53,0,0,1,241,91.66c-1.84,4.75-3.76,9.21-5.2,13.37a62.47,62.47,0,0,0-2.92,11.29,37.55,37.55,0,0,0-.39,7.84c.11,1.86.3,2.88.24,2.89a5.72,5.72,0,0,1-.16-.74c-.1-.48-.19-1.2-.29-2.13a35.66,35.66,0,0,1,.23-7.92,60.89,60.89,0,0,1,2.84-11.39c1.42-4.19,3.33-8.66,5.17-13.4a76.81,76.81,0,0,0,4.14-13.67A38.33,38.33,0,0,0,245,66.2a26.89,26.89,0,0,0-2.09-7.54C242.17,57,241.59,56.11,241.65,56.07Z" style="fill:#263238"></path><path d="M247,80.91a3,3,0,0,1,.05.84c0,.55-.05,1.33-.14,2.29a39.18,39.18,0,0,1-4.36,14.42c-.46.86-.86,1.53-1.16,2s-.47.7-.5.68a30.45,30.45,0,0,1,1.33-2.82,50.45,50.45,0,0,0,2.71-7A51.2,51.2,0,0,0,246.56,84,30,30,0,0,1,247,80.91Z" style="fill:#263238"></path><g style="opacity:0.30000000000000004"><path d="M246.7,84.39c-.91,5.7-2.51,11.38-5.4,16C245.51,96.54,248.23,89.93,246.7,84.39Z"></path></g><path d="M261.91,110.84a16.89,16.89,0,0,0-3.33-.45c-2.21-.06-4.41.34-6.62.27-3.73-.12-5.82-4-9.17-2.35,0,0-3.18,1.8-3.28,1.93-8,10.2-22.69,10.89-29.71,3.8-2.22-2.24-5.9-2.15-9-1.4-5.77,1.4-11,4.25-16.07,7.33-1.65,1-4.43,2-4.58,4.14-.18,2.78,1.38,6.51,1.95,9.26q3.93,19,6.79,38.2,2.65,17.85,4.38,35.82c.28,3,1.38,58.41,1.17,58.41,8,15.81,61.62-29.46,88.94-10.27-3.07-22.84-6.55-59.68-9.62-82.51-.67-5-1.34-10-1.62-15.08-.73-13.28,1.29-26.53,3.3-39.67C271.31,115.19,266.86,112,261.91,110.84Z" style="fill:#ebebeb"></path><path d="M217.33,158.88l4.43,5.39s0,1.09.06,1.17.21.15.22,0,0-.78,0-.78l.31.46s.08,1.29.09,1.39.22.15.23-.15v-1.09s.79,0,1-.53,1.48-3,1.48-3l.13,3.77a.16.16,0,0,0,.16.16h0a.17.17,0,0,0,.17-.16v-4.73l1.52-3.2,1.81,4.66s.53,0,.56-.11-.43.75-.32,1a12.61,12.61,0,0,0,1.11,1.19l4-5.56-.64,6.84,2.36-.38.19-8-.93-.45-.35-.81H234l-4,5.14-2.66-6.35-.94-.13s-3.84,7.57-3.86,7.49-3.5-4.29-3.5-4.29l-.83-.22Z" style="fill:#263238"></path><path d="M227.84,151.33l-1.45-1.11s-1.11.45-1.37,1.23a3.46,3.46,0,0,0-.19,1.37s.9.74,1.23.94,1.22,0,1.22,0a15.15,15.15,0,0,0,.71-1.64A1.84,1.84,0,0,0,227.84,151.33Zm-1.08.32a1.41,1.41,0,0,1-.55.92.16.16,0,0,1-.17,0c-.07,0-.06-.14,0-.22a1.83,1.83,0,0,1,.6-.87c.08-.06.14,0,.16,0A.29.29,0,0,1,226.76,151.65Z" style="fill:#263238"></path><path d="M237,152.09,235.56,151s-1.11.45-1.37,1.22a3.25,3.25,0,0,0-.19,1.37s.9.74,1.22,1,1.23,0,1.23,0,.65-1.36.71-1.64A1.81,1.81,0,0,0,237,152.09Zm-1.08.32a1.42,1.42,0,0,1-.55.91.19.19,0,0,1-.17.05c-.08,0-.07-.15,0-.22a1.72,1.72,0,0,1,.6-.87c.08-.07.14-.05.15,0A.33.33,0,0,1,235.93,152.41Z" style="fill:#263238"></path><path d="M218.84,153.73l-1.45-1.11s-1.11.45-1.37,1.22a3.3,3.3,0,0,0-.19,1.38s.9.73,1.22.94,1.23,0,1.23,0a16.08,16.08,0,0,0,.71-1.64A1.84,1.84,0,0,0,218.84,153.73Zm-1.08.32a1.47,1.47,0,0,1-.55.92c-.05,0-.12.07-.17,0s-.07-.14,0-.22a1.76,1.76,0,0,1,.6-.87c.08-.07.14,0,.15,0A.2.2,0,0,1,217.76,154.05Z" style="fill:#263238"></path><path d="M217.33,160c.06.1.7,7.15.7,7.15l-.35.67.35,1.52,1.35-.09.05,2.35a.17.17,0,0,0,.18.17h0a.18.18,0,0,0,.18-.18v-2.39l11.56-.88s1,0,1.13-.18a4.64,4.64,0,0,0,.32-.63l.95.14v1.29a.17.17,0,0,0,.24.16h0a.16.16,0,0,0,.11-.16V167.7a7.68,7.68,0,0,0,1.84-.71c.28-.28,0-2,0-2l-16,2.22-1.12-7-.71-.41Z" style="fill:#263238"></path><path d="M244.6,228.6c.12.08-3.33,5.53-7.71,12.17s-8,12-8.14,11.88,3.33-5.53,7.71-12.17S244.48,228.52,244.6,228.6Z" style="fill:#263238"></path><path d="M242.31,223.94a8.22,8.22,0,0,1-1.07,2.11,28,28,0,0,1-3.46,4.52,28.56,28.56,0,0,1-4.27,3.76,7.89,7.89,0,0,1-2,1.21,75.42,75.42,0,0,0,5.91-5.33A71.75,71.75,0,0,0,242.31,223.94Z" style="fill:#263238"></path><path d="M206.49,113.87l7.4,16,12,122.66-32.12,2-.49-9.1s-9.68-12.29-9.33-22.5-3.87-103.16-3.87-103.16L192.78,114l3.3-4Z" style="fill:#708bfc"></path><path d="M236.7,112.75l-3.83,14.92s1.71,19,4.25,31c2.5,11.76,15.92,71.51,15.92,71.51l5.92,15.3,26.25-1.87s2.41-13.16,1.69-20.21S276.08,157,276.08,157l-12-36.7-2-10.27-13.21-2.91-2.41-4.7Z" style="fill:#708bfc"></path><path d="M271.7,157.44s54.47-4.93,56.4-6.39c4.63-3.49,27.95-52.61,27.95-52.61l-20.77-8L318.14,119l-2.37,3.39-8.5.42s-10.75-1.57-12.59-1.57-5,1.57-5,1.57l-27.61-12.76,3.35,23.85Z" style="fill:#708bfc"></path><path d="M323.68,134.79a7.19,7.19,0,0,1-1.5-1.56,39.87,39.87,0,0,1-3-4.26c-1.07-1.74-1.94-3.37-2.53-4.57a8.72,8.72,0,0,1-.85-2c.15-.08,1.71,2.83,3.83,6.28S323.79,134.69,323.68,134.79Z" style="fill:#263238"></path><path d="M315.66,131.29a9.21,9.21,0,0,1-1-4.42,9,9,0,0,1,.8-4.46c.15,0-.34,2-.28,4.45S315.81,131.24,315.66,131.29Z" style="fill:#263238"></path><g style="opacity:0.30000000000000004"><path d="M183.62,207.15c5,.41,9.85-2.71,12.83-6.79s4.49-9,5.94-13.87l10.5-35-3.08-1.51-26.19,53.9Z"></path></g><path d="M180.05,119.72S165,125.45,162.62,151a237.5,237.5,0,0,0,.11,44.15c.53,6,3.46,9.16,6.74,11.56s10.24,2.79,14.45-.95c1.28-1.13,3.92-3.87,6.85-9.78,6-12,13.42-31.38,17.79-42.21a74.87,74.87,0,0,1,3.69-8l-21.63-14.05-9.17,18.61h0Z" style="fill:#708bfc"></path><path d="M256.33,237.87a4.94,4.94,0,0,1,1.16-.11l3.17-.12c2.67-.1,6.36-.26,10.43-.56s7.74-.69,10.4-1l3.15-.35a5.32,5.32,0,0,1,1.16-.07,4.66,4.66,0,0,1-1.13.27c-.74.14-1.81.32-3.13.51-2.65.39-6.33.83-10.41,1.14s-7.78.41-10.46.41c-1.34,0-2.43,0-3.18,0A4.69,4.69,0,0,1,256.33,237.87Z" style="fill:#263238"></path><path d="M236.14,119.72a1.61,1.61,0,0,1,.1.3l.23.89c.2.82.48,2,.83,3.43l3,12.62c2.47,10.71,5.87,25.44,9.62,41.71s7,31.07,10,41.59c1.5,5.27,2.86,9.48,3.85,12.38.49,1.42.87,2.54,1.15,3.33.12.36.22.65.29.87a1.13,1.13,0,0,1,.09.31,1.38,1.38,0,0,1-.14-.29c-.08-.22-.2-.5-.34-.85-.3-.75-.73-1.86-1.24-3.3-1.05-2.88-2.47-7.09-4-12.35-3.13-10.51-6.47-25.28-10.2-41.58s-7-31-9.47-41.73c-1.18-5.32-2.14-9.64-2.82-12.67-.31-1.47-.56-2.62-.73-3.45l-.18-.9A1.35,1.35,0,0,1,236.14,119.72Z" style="fill:#263238"></path><path d="M248.88,107.16a7,7,0,0,1-.48,1.25l-1.48,3.32c-1.27,2.8-3.06,6.65-5.07,10.89l-.23.48-.17.35-.26-.3L239,120.64c-.35-.41-.7-.8-1-1.2s-.68-.73-1-.62-.52.58-.64,1-.28.88-.45,1.3a23.39,23.39,0,0,1-1,2.22c-.68,1.32-1.2,2.39-1.51,3.15s-.47,1.2-.5,1.19a4.66,4.66,0,0,1,.31-1.26,30.26,30.26,0,0,1,1.38-3.24c.31-.67.64-1.41.94-2.22.16-.4.29-.83.42-1.27a1.82,1.82,0,0,1,.92-1.31,1.05,1.05,0,0,1,.92.17,4.06,4.06,0,0,1,.59.58l1,1.19,2.2,2.5-.43,0,.23-.48c2-4.23,3.84-8,5.2-10.8l1.63-3.26A6.29,6.29,0,0,1,248.88,107.16Z" style="fill:#263238"></path><path d="M268.84,113.19c.14,0,2.1,11.09,4.37,24.81s4,24.87,3.86,24.89-2.1-11.08-4.37-24.81S268.7,113.22,268.84,113.19Z" style="fill:#263238"></path><path d="M271.2,141.45c0,.14-6.37,1.13-14.27,2.22s-14.32,1.85-14.34,1.71,6.37-1.14,14.27-2.23S271.18,141.3,271.2,141.45Z" style="fill:#263238"></path><path d="M282.29,215.39a6,6,0,0,1-.34,1c-.28.75-.65,1.75-1.11,3l0,.09h-.1A22.78,22.78,0,0,1,271,216a53.39,53.39,0,0,1-11.11-9.38l-.36-.4-.13-.15.12-.17,2.68-3.84.17-.23.21.19a93.31,93.31,0,0,0,7.52,5.72c2.36,1.64,4.51,3.05,6.32,4.18s3.29,2,4.32,2.57,1.62.92,1.57.92a13.3,13.3,0,0,1-1.66-.76c-1.06-.52-2.57-1.35-4.4-2.45s-4-2.46-6.4-4.09a88.15,88.15,0,0,1-7.61-5.71l.38,0-2.68,3.84v-.32l.34.39a54.64,54.64,0,0,0,11,9.34,23.31,23.31,0,0,0,9.5,3.64l-.13.09,1.22-2.89C282.11,215.76,282.27,215.4,282.29,215.39Z" style="fill:#263238"></path><path d="M239,148.62l-.56.16a2.42,2.42,0,1,0,.56-.16Z" style="fill:#f5f5f5"></path><path d="M239,148.62s.19-.12.59-.11a2.48,2.48,0,0,1,1.52.66,2.46,2.46,0,0,1-1.28,4.36,2.5,2.5,0,0,1-2.27-.63,2.57,2.57,0,0,1-.69-2,2.52,2.52,0,0,1,1.53-2.25h0c.38-.08.58-.11.59-.07s-.18.13-.53.26h0a2.39,2.39,0,0,0-1.17,2.08,2.1,2.1,0,0,0,.6,1.58,2.06,2.06,0,0,0,1.82.48,2.15,2.15,0,0,0,1.8-1.63,2.32,2.32,0,0,0-.68-2,2.51,2.51,0,0,0-1.28-.72C239.24,148.64,239,148.66,239,148.62Z" style="fill:#263238"></path><path d="M203.76,145.57l-.56.16a2.42,2.42,0,1,0,.56-.16Z" style="fill:#f5f5f5"></path><path d="M203.76,145.57s.19-.13.59-.12a2.51,2.51,0,0,1,1.52.67,2.58,2.58,0,0,1,.89,2.29,2.61,2.61,0,0,1-2.17,2.07,2.51,2.51,0,0,1-2.27-.64,2.55,2.55,0,0,1-.69-2,2.52,2.52,0,0,1,1.53-2.24h0c.37-.07.57-.1.58-.06s-.18.12-.53.26h0a2.39,2.39,0,0,0-1.17,2.08,2.12,2.12,0,0,0,.6,1.59,2.07,2.07,0,0,0,1.83.48,2.16,2.16,0,0,0,1.79-1.64,2.3,2.3,0,0,0-.68-2,2.54,2.54,0,0,0-1.28-.73C204,145.59,203.77,145.61,203.76,145.57Z" style="fill:#263238"></path><path d="M253.55,213.32l-.55.17a2.4,2.4,0,1,0,.55-.17Z" style="fill:#f5f5f5"></path><path d="M253.55,213.32s.2-.12.6-.11a2.44,2.44,0,0,1,1.51.66,2.46,2.46,0,0,1-1.27,4.37,2.41,2.41,0,0,1-3-2.6A2.49,2.49,0,0,1,253,213.4h0c.37-.08.58-.1.58-.07s-.18.13-.52.27h0a2.4,2.4,0,0,0-1.18,2.08,2.13,2.13,0,0,0,.61,1.59,2.05,2.05,0,0,0,1.82.48,2.16,2.16,0,0,0,1.79-1.64,2.27,2.27,0,0,0-.67-2,2.57,2.57,0,0,0-1.29-.73C253.77,213.35,253.56,213.37,253.55,213.32Z" style="fill:#263238"></path><path d="M336.7,94.18l-.55.17a2.4,2.4,0,1,0,.55-.17Z" style="fill:#f5f5f5"></path><path d="M336.7,94.18s.2-.12.6-.11a2.46,2.46,0,0,1,1.51.66,2.45,2.45,0,0,1-1.27,4.36,2.54,2.54,0,0,1-1.43-4.84h0c.37-.08.57-.1.58-.07s-.18.13-.52.26h0A2.38,2.38,0,0,0,335,96.52a2.14,2.14,0,0,0,.6,1.58,2.05,2.05,0,0,0,1.83.48A2.15,2.15,0,0,0,339.23,97a2.24,2.24,0,0,0-.68-2,2.43,2.43,0,0,0-1.28-.73C336.92,94.2,336.71,94.23,336.7,94.18Z" style="fill:#263238"></path><path d="M245.64,179.75l-.56.17a2.4,2.4,0,1,0,.56-.17Z" style="fill:#f5f5f5"></path><path d="M245.64,179.75s.19-.12.59-.11a2.44,2.44,0,0,1,1.51.66,2.45,2.45,0,0,1-1.27,4.36,2.5,2.5,0,0,1-2.27-.63,2.67,2.67,0,0,1,.84-4.21h0c.37-.08.58-.1.59-.07s-.18.13-.53.26h0a2.42,2.42,0,0,0-1.18,2.08,2.19,2.19,0,0,0,.61,1.59,2,2,0,0,0,1.82.47,2.17,2.17,0,0,0,1.8-1.63,2.29,2.29,0,0,0-.68-2,2.58,2.58,0,0,0-1.28-.73C245.85,179.77,245.65,179.8,245.64,179.75Z" style="fill:#263238"></path><path d="M350.81,108.37a19.78,19.78,0,0,1-3.12-1.11c-1.89-.76-4.5-1.83-7.36-3s-5.45-2.33-7.32-3.17a20.86,20.86,0,0,1-3-1.46,19.08,19.08,0,0,1,3.11,1.12c1.9.75,4.51,1.82,7.38,3s5.45,2.34,7.31,3.18A22.34,22.34,0,0,1,350.81,108.37Z" style="fill:#263238"></path><path d="M280.39,147.08a8.62,8.62,0,0,1-3,.1,8.52,8.52,0,0,1-3-.43,17.74,17.74,0,0,1,6,.33Z" style="fill:#263238"></path><path d="M304,146.86a32.72,32.72,0,0,1-5.9.43,33.8,33.8,0,0,1-5.9-.1,34.18,34.18,0,0,1,5.89-.42A34.67,34.67,0,0,1,304,146.86Z" style="fill:#263238"></path><path d="M326.78,142.74c.05,0-.39.56-1.27,1.2a12.38,12.38,0,0,1-3.82,1.8,19.76,19.76,0,0,1-4.15.71,5,5,0,0,1-1.74,0c0-.19,2.64-.31,5.74-1.18A21.05,21.05,0,0,0,326.78,142.74Z" style="fill:#263238"></path><path d="M338.69,122.43a34,34,0,0,1-2.55,5.33,32.75,32.75,0,0,1-3,5.08,34.65,34.65,0,0,1,2.56-5.33A32.88,32.88,0,0,1,338.69,122.43Z" style="fill:#263238"></path><path d="M347.09,106.73a8.68,8.68,0,0,1-1.19,2.76,8.89,8.89,0,0,1-1.64,2.53,8.59,8.59,0,0,1,1.19-2.77A8.74,8.74,0,0,1,347.09,106.73Z" style="fill:#263238"></path><path d="M169.29,175a.77.77,0,0,1,.08-.22c.08-.16.17-.36.29-.62l1.14-2.4,4.34-9c3.77-7.69,9.07-18.51,15.26-31.16l.12-.25.23.15L212,145.27l.44.28.19.13-.1.21c-4.58,9-7.62,18.13-10.91,26.23-1.6,4.07-3.31,7.87-5,11.38s-3,6.87-4.41,9.86c-2.76,6-5.79,10.57-8.78,12.84a9.61,9.61,0,0,1-1.08.75,7,7,0,0,1-1,.58,11.6,11.6,0,0,1-1.67.66l-1.09.25a1.63,1.63,0,0,1-.37.06l.36-.12,1.07-.29a11.68,11.68,0,0,0,1.63-.7,6,6,0,0,0,1-.59,7.69,7.69,0,0,0,1.05-.76c2.91-2.28,5.86-6.85,8.58-12.83,1.39-3,2.75-6.34,4.34-9.89s3.33-7.31,4.92-11.38c3.25-8.09,6.28-17.26,10.88-26.29l.09.34-.43-.28-21.19-13.78.35-.1-15.43,31.09-4.47,8.91-1.21,2.37-.32.6A1.13,1.13,0,0,1,169.29,175Z" style="fill:#263238"></path><path d="M175.69,160.48a31.53,31.53,0,0,0-6.59,6,30.81,30.81,0,0,0-4.17,7.88,8.36,8.36,0,0,1,.64-2.58,21,21,0,0,1,7.79-10A9,9,0,0,1,175.69,160.48Z" style="fill:#263238"></path><path d="M181.45,150.33c-.14,0-1.54-6.19-3.13-13.89s-2.77-14-2.62-14,1.54,6.19,3.13,13.89S181.59,150.3,181.45,150.33Z" style="fill:#263238"></path><path d="M223.43,243.86a5.47,5.47,0,0,1-1.16.3c-.75.16-1.85.37-3.21.6-2.73.47-6.51,1-10.71,1.37s-8,.52-10.78.55c-1.39,0-2.5,0-3.28,0a6.48,6.48,0,0,1-1.2-.09,4.69,4.69,0,0,1,1.2-.11l3.27-.14c2.75-.12,6.55-.33,10.74-.7s8-.84,10.7-1.21l3.24-.44A4.83,4.83,0,0,1,223.43,243.86Z" style="fill:#263238"></path><path d="M208.17,154.65a.92.92,0,0,1,0,.24q0,.27.06.69c0,.65.11,1.53.18,2.65.16,2.34.38,5.66.65,9.74.57,8.22,1.47,19.57,2.74,32.09s2.71,23.81,3.82,32c.56,4.05,1,7.34,1.33,9.67.15,1.11.27,2,.36,2.63,0,.28.06.5.08.69a1.08,1.08,0,0,1,0,.24.79.79,0,0,1-.06-.23c0-.18-.08-.41-.14-.68l-.45-2.62c-.38-2.27-.9-5.57-1.5-9.65-1.2-8.16-2.68-19.46-4-32s-2.12-23.89-2.59-32.12c-.24-4.12-.41-7.45-.49-9.75,0-1.12-.06-2-.09-2.66,0-.28,0-.5,0-.69A1.1,1.1,0,0,1,208.17,154.65Z" style="fill:#263238"></path><path d="M219.89,221.68c0,.14-.87.26-1.93.26s-1.92-.12-1.92-.26.86-.26,1.92-.26S219.89,221.53,219.89,221.68Z" style="fill:#263238"></path><path d="M216.34,184.11c0,.14-.86.26-1.92.26s-1.93-.12-1.93-.26.87-.26,1.93-.26S216.34,184,216.34,184.11Z" style="fill:#263238"></path><path d="M187.48,223.34a2.08,2.08,0,0,1,.3.21l.81.6,2.93,2.24-.16,0c2.13-1.34,4.14-4.22,6.24-7.59A129.7,129.7,0,0,0,203.91,207l.17-.35.09.33-4.11-2.66.38-.12a62.91,62.91,0,0,1-8.55,14.21c-1.28,1.63-2.38,2.89-3.16,3.73-.39.42-.68.7-.9.92a3.94,3.94,0,0,1-.35.33,16.27,16.27,0,0,1,1.11-1.37c.74-.88,1.79-2.16,3-3.81A66.38,66.38,0,0,0,200,204l.12-.29.26.17,4.11,2.65.19.12-.09.21-.17.35A120.63,120.63,0,0,1,198,219c-2.15,3.36-4.2,6.24-6.49,7.6l-.08.05-.08-.06-2.9-2.43A12.79,12.79,0,0,1,187.48,223.34Z" style="fill:#263238"></path><path d="M179.3,200.61a4.6,4.6,0,0,1-.9,1.54,10.48,10.48,0,0,1-3.18,2.89,8,8,0,0,1-4.15,1.17,3.11,3.11,0,0,1-1.74-.38c0-.09.68.08,1.74,0a8.74,8.74,0,0,0,3.89-1.25,13,13,0,0,0,3.16-2.67A8.87,8.87,0,0,1,179.3,200.61Z" style="fill:#263238"></path><path d="M189.89,179.09a35.19,35.19,0,0,1-2.3,5.55,35.31,35.31,0,0,1-2.78,5.32,34.77,34.77,0,0,1,2.3-5.55A35.31,35.31,0,0,1,189.89,179.09Z" style="fill:#263238"></path><path d="M200.06,157.35a34.33,34.33,0,0,1-2.33,5.53,34.36,34.36,0,0,1-2.81,5.31,35.43,35.43,0,0,1,2.34-5.53A34.87,34.87,0,0,1,200.06,157.35Z" style="fill:#263238"></path><path d="M206.48,157.11c-.07.12-4.89-2.47-10.76-5.78s-10.58-6.11-10.51-6.24,4.89,2.47,10.77,5.78S206.55,157,206.48,157.11Z" style="fill:#263238"></path><g style="opacity:0.30000000000000004"><path d="M271.6,131.21,276.08,157C277.83,147.59,276.5,139.47,271.6,131.21Z"></path></g><g style="opacity:0.30000000000000004"><path d="M241.39,123c-1.28-1.37-2.26-2.71-3.53-4-.3-.32-.7-.62-1.11-.45a1.58,1.58,0,0,0-.75,1c-.88,2.47-2.26,5.4-3.13,7.87a5.22,5.22,0,0,1,3.86-2.47,4.5,4.5,0,0,1,3.28,1.93,8.17,8.17,0,0,0,2.9,2.6,204.52,204.52,0,0,0,5.63-21.29C246.18,113.11,243.74,118,241.39,123Z"></path></g><path d="M192,131.24l2.38-5.29s-1-5.93,0-8.3,7.45-17.05,7.45-17.05l4.92-9.3s1.52-3.34,3.38-3.48a2.68,2.68,0,0,1,2.4,1.09s2.1-5.32,3.29-4.92,2.62.11,1.09,5.19-3.89,11.42-3.89,11.42,3.89,1.12,3.55,4.34l-.17,3.22s1.32,2.87,1.09,4.82-.41,7.55-1.42,9.07-7.46,10.17-7.46,10.17l-4.11,8" style="fill:#c78976"></path><path d="M204.54,140.22a3.92,3.92,0,0,1,.24-.54c.18-.39.44-.91.76-1.57l3-6h0c1.85-2.54,4.14-5.7,6.79-9.36a5.58,5.58,0,0,0,.88-1.42,11,11,0,0,0,.42-1.69c.19-1.18.32-2.41.42-3.68,0-.63.1-1.28.15-1.93a14.38,14.38,0,0,0,.11-1.94,12.68,12.68,0,0,0-1.08-3.86l0-.06v0l.11-2.27a7,7,0,0,0-.06-2.2,4.84,4.84,0,0,0-3.27-2.84l-.26-.08.09-.25c.83-2.24,1.66-4.58,2.47-7,.4-1.2.8-2.43,1.18-3.66a17.9,17.9,0,0,0,.87-3.77c0-.76-.08-1.48-.82-1.64L216,84.3c-.26-.08-.23-.09-.38,0a2.48,2.48,0,0,0-.73.72,21.74,21.74,0,0,0-2.05,4l-.18.43-.28-.39a2.43,2.43,0,0,0-1.87-1,2.48,2.48,0,0,0-1.88,1,17.44,17.44,0,0,0-2.39,3.9l-4.13,7.79v0c-2.39,5.44-4.55,10.33-6.4,14.52-.44,1-1,2-1.28,3a12.12,12.12,0,0,0-.29,2.89,35.79,35.79,0,0,0,.41,4.85V126c-.79,1.68-1.39,3-1.82,3.91l-.48,1a1.28,1.28,0,0,1-.18.33,2.55,2.55,0,0,1,.13-.35l.43-1c.4-.93,1-2.26,1.71-4V126a33.56,33.56,0,0,1-.49-4.89,11.6,11.6,0,0,1,.27-3c.34-1,.82-2,1.26-3l6.31-14.55h0l4.09-7.79a18.14,18.14,0,0,1,2.47-4,2.82,2.82,0,0,1,4.56.1l-.46,0a21.24,21.24,0,0,1,2.12-4.13,2.71,2.71,0,0,1,.92-.89.78.78,0,0,1,.41-.09,1.73,1.73,0,0,1,.34.09c.18,0,.37.09.57.16a2.25,2.25,0,0,1,.6.3,1.49,1.49,0,0,1,.42.58,3,3,0,0,1,.15,1.28A18.36,18.36,0,0,1,217,90c-.38,1.24-.78,2.47-1.19,3.68-.82,2.41-1.65,4.75-2.49,7l-.17-.33a6.78,6.78,0,0,1,2.19,1.16,4,4,0,0,1,1.42,2,7.11,7.11,0,0,1,.07,2.38l-.12,2.25,0-.11a13.18,13.18,0,0,1,1.11,4,5.13,5.13,0,0,1,0,1l-.09,1c-.06.65-.11,1.29-.16,1.93-.12,1.27-.25,2.51-.45,3.71a12.08,12.08,0,0,1-.45,1.77,5.73,5.73,0,0,1-.94,1.49l-6.89,9.3v0c-1.32,2.52-2.37,4.5-3.1,5.89l-.83,1.54A3.94,3.94,0,0,1,204.54,140.22Z" style="fill:#8b5d54"></path><path d="M212.82,88.4a11.52,11.52,0,0,1-.79,2.2c-.54,1.33-1.3,3.17-2.18,5.18s-1.75,3.81-2.43,5.09a9.15,9.15,0,0,1-1.2,2,11.45,11.45,0,0,1,.87-2.16c.67-1.5,1.43-3.23,2.28-5.14s1.7-3.82,2.32-5.12A9.54,9.54,0,0,1,212.82,88.4Z" style="fill:#8b5d54"></path><path d="M213.77,98.64a9.42,9.42,0,0,1-.89,3,9.76,9.76,0,0,1-1.38,2.85,10.07,10.07,0,0,1,.89-3A9.93,9.93,0,0,1,213.77,98.64Z" style="fill:#8b5d54"></path><path d="M215.67,111a11.81,11.81,0,0,1,.35-2.26,7.29,7.29,0,0,1,.51-2.24,4.29,4.29,0,0,1,0,2.33C216.33,110.1,215.82,111.07,215.67,111Z" style="fill:#8b5d54"></path><path d="M190.77,132l3.28-5.23,14,7.18-.87,3.54s.92,4.42,1.1,5.71Z" style="fill:#455a64"></path><polygon points="202.03 99.75 206.78 101.68 207.79 99.61 203.12 97.69 202.03 99.75" style="fill:#f5f5f5"></polygon><path d="M354.86,98s2.43-5.43,2-6.08-17.78-5.8-17.78-5.8l-2.21,5Z" style="fill:#455a64"></path><path d="M349,74.11l.9-1.09a4.59,4.59,0,0,1,2.62-1.58l4.82-1a2.63,2.63,0,0,1,2.7,1.11l1.17,1.71c2.24.36,4.13,1.11,4.87,3.52a13.86,13.86,0,0,1,3.14,2c.84.82.72,2.92.72,2.92s2,1.52,2.15,3.33.36,9.67.36,9.67-2.6.25-3.35-1c-.53-.84-1.06-4.56-1.06-4.56l-1.3,2.18a3.28,3.28,0,0,1-3-2.81,2.75,2.75,0,0,1-3-2.44l-5.05,1.9a8.11,8.11,0,0,1-3.44,3.33c-2.09.81-9.56-1.83-9.56-1.83s-7.09,1.28-9,.66c-2.31-.75-1.82-2.65-.36-3.54s4.92-1,6.27-3S349,74.11,349,74.11Z" style="fill:#c78976"></path><path d="M357,75.19a6.64,6.64,0,0,1-2.51.54,6.57,6.57,0,0,1-2.57,0,6.33,6.33,0,0,1,2.51-.55A6.24,6.24,0,0,1,357,75.19Z" style="fill:#8b5d54"></path><path d="M360.76,72.7a7.77,7.77,0,0,1,1.17,2.14,18.11,18.11,0,0,1,.93,2.51,2.77,2.77,0,0,1-.4,1.63,1.35,1.35,0,0,1-.69.66,1.8,1.8,0,0,1-1,.13,2.59,2.59,0,0,1-1.54-.93,8.54,8.54,0,0,1-.93-1.27l-1.42-2.21a11.12,11.12,0,0,1-1.2-2.11,11.14,11.14,0,0,1,1.5,1.9l1.51,2.13a8.79,8.79,0,0,0,.91,1.22,2.17,2.17,0,0,0,1.24.75,1.05,1.05,0,0,0,1.15-.52,2.32,2.32,0,0,0,.36-1.32,24.89,24.89,0,0,0-.79-2.43A19.5,19.5,0,0,1,360.76,72.7Z" style="fill:#8b5d54"></path><path d="M361.9,88.14c0,.07-.62-.12-1-.94a4.13,4.13,0,0,1-.42-1.46,7.5,7.5,0,0,1,.07-1.82c.28-2.52.86-4.52,1-4.47s-.23,2-.51,4.53a9.81,9.81,0,0,0-.12,1.73,4.86,4.86,0,0,0,.28,1.34A4.38,4.38,0,0,0,361.9,88.14Z" style="fill:#8b5d54"></path><path d="M366.07,76.8a28.38,28.38,0,0,1-.72,6c-.58,3.28-1.47,5.87-1.63,5.81a8.33,8.33,0,0,1,.3-1.74c.23-1.06.51-2.54.82-4.17A47.23,47.23,0,0,1,366.07,76.8Z" style="fill:#8b5d54"></path><path d="M369.93,81.74a10.42,10.42,0,0,1-.45,4.09A10.74,10.74,0,0,1,368,89.66a35.87,35.87,0,0,1,1-4A36.25,36.25,0,0,1,369.93,81.74Z" style="fill:#8b5d54"></path><path d="M359.32,82.68c-.12.1-1-.94-2.38-1.73s-2.72-1-2.7-1.17a4.25,4.25,0,0,1,3,.72A4.31,4.31,0,0,1,359.32,82.68Z" style="fill:#8b5d54"></path><path d="M348.17,84.28a6.25,6.25,0,0,1-2,3.4,5.87,5.87,0,0,1-3.48,1.87,23.9,23.9,0,0,0,3.12-2.24A37.55,37.55,0,0,0,348.17,84.28Z" style="fill:#8b5d54"></path><path d="M336.82,85.5a2.82,2.82,0,0,1,2.59,2.39,5.07,5.07,0,0,1,0,2.16l1.89-.26s.89-2.26.22-3.6c-.38-.76-2.43-1.86-2.43-1.86A5.47,5.47,0,0,1,336.82,85.5Z" style="fill:#f5f5f5"></path></g><g id="freepik--Microphone--inject-129"><path d="M374.12,112l-2,.21-.29-2.68,2-.22a1.36,1.36,0,0,1,1.49,1.2h0A1.36,1.36,0,0,1,374.12,112Z" style="fill:#263238"></path><path d="M341.81,110.27l29-1.79a1.69,1.69,0,0,1,1.78,1.53l.18,2a1.68,1.68,0,0,1-1.35,1.8l-28.36,5.56Z" style="fill:#455a64"></path><polygon points="343.73 110.25 344.85 119.1 343.05 119.36 341.81 110.27 343.73 110.25" style="fill:#263238"></polygon><path d="M335.11,108.41c-4.23.9-5.84,5.37-5.11,8.78s4.35,6.06,7.15,5.63,4.49-1.29,5.9-3.46l-1.24-9.09A7.2,7.2,0,0,0,335.11,108.41Z" style="fill:#e0e0e0"></path><path d="M337.94,124h0a.72.72,0,0,0,.63-.78l-1.67-15.25a.72.72,0,0,0-.79-.63h0a.7.7,0,0,0-.62.78l1.67,15.25A.71.71,0,0,0,337.94,124Z" style="fill:#e0e0e0"></path><path d="M337.16,123.32a54.65,54.65,0,0,1-1.08-7.46,53.93,53.93,0,0,1-.56-7.52,56.24,56.24,0,0,1,1.08,7.46A55.74,55.74,0,0,1,337.16,123.32Z" style="fill:#263238"></path><path d="M338.52,122.76a56.59,56.59,0,0,1-1.08-7.46,55.84,55.84,0,0,1-.56-7.52,54.33,54.33,0,0,1,1.08,7.46A52.07,52.07,0,0,1,338.52,122.76Z" style="fill:#263238"></path><path d="M335.14,111.76c.07.13-1.22.89-2.35,2.31s-1.61,2.83-1.76,2.78a5.11,5.11,0,0,1,1.36-3.11A5,5,0,0,1,335.14,111.76Z" style="fill:#263238"></path><path d="M335.52,114.41c.07.13-.78.72-1.54,1.73s-1.17,2-1.31,1.92a3.22,3.22,0,0,1,.9-2.23C334.39,114.73,335.46,114.28,335.52,114.41Z" style="fill:#263238"></path><path d="M334.65,117.93a5.37,5.37,0,0,1-1.9-2.4,5.29,5.29,0,0,1-.77-3c.15,0,.5,1.27,1.24,2.73S334.76,117.83,334.65,117.93Z" style="fill:#263238"></path><path d="M335.6,116.29a5,5,0,0,1-1.55-2.1,4.79,4.79,0,0,1-.74-2.49,10.15,10.15,0,0,1,1.21,2.26A10.12,10.12,0,0,1,335.6,116.29Z" style="fill:#263238"></path><path d="M334.69,109.09a13.87,13.87,0,0,1-1.21.84,7,7,0,0,0-2.9,6,12.53,12.53,0,0,1,.09,1.47,2.62,2.62,0,0,1-.46-1.44,6.44,6.44,0,0,1,3.06-6.33C334.09,109.13,334.67,109,334.69,109.09Z" style="fill:#fff"></path><path d="M332.2,120c-.09.12-.4,0-.63-.28s-.24-.64-.11-.69.34.13.52.37S332.29,119.85,332.2,120Z" style="fill:#fff"></path><path d="M337.25,120.44a19.83,19.83,0,0,1-.79-4.53,20.41,20.41,0,0,1-.26-4.59,20.71,20.71,0,0,1,.78,4.53A20.81,20.81,0,0,1,337.25,120.44Z" style="fill:#fff"></path><path d="M372.7,111.32c0,.14-6.41,1.07-14.36,2.08s-14.41,1.7-14.43,1.56,6.41-1.07,14.37-2.08S372.68,111.18,372.7,111.32Z" style="fill:#263238"></path><path d="M365.1,163.62c-.14,0-1.91-8.08-4-18.11s-3.58-18.19-3.43-18.22,1.9,8.08,3.94,18.11S365.24,163.59,365.1,163.62Z" style="fill:#263238"></path><path d="M366.45,139.77c-.14,0-1.42-4.49-2.86-10.1s-2.49-10.2-2.35-10.23a103,103,0,0,1,2.85,10.1C365.53,135.15,366.59,139.73,366.45,139.77Z" style="fill:#263238"></path></g><g id="freepik--Floor--inject-129"><path d="M464.73,467c0,.14-96.15.26-214.72.26S35.27,467.12,35.27,467s96.13-.26,214.74-.26S464.73,466.83,464.73,467Z" style="fill:#263238"></path></g></svg>